<svg xmlns="http://www.w3.org/2000/svg" viewBox="-0.2 -0.2 4.4 4.4">
  <path d="M-0.2 -0.2L4.2 -0.2L4.2 4.2L-0.2 4.2Z" stroke="none" fill="#FFFFFF"/>
  <path d="M2.16 1.88L2.16142581595893 1.877170170898823L2.16142581595893 1.877170170898823L2.16142581595893 1.877170170898823L2.3153850128832643 1.4500590311677057L2.571255080719951 1.827735226320709L2.571255080719951 1.827735226320709L2.571255080719951 1.827735226320709L2.6109672187781894 1.8229450185127523L2.6109672187781894 1.8229450185127523L2.6109672187781894 1.8229450185127523L2.5344196980070395 1.188345052342102L2.494707559948801 1.1931352601500587L2.5610040360109236 1.7427512508760787L2.3023278381337304 1.3484917618947745L2.1508873587814255 1.7898034671706986L2.0848782951877807 1.242570204728173L2.045960399890707 1.2472646083799708L2.1225079206618567 1.8818645745506208L2.16142581595893 1.877170170898823ZM1.73 1.94C1.81 1.93 1.87 1.89 1.91 1.82C1.95 1.75 1.97 1.67 1.96 1.58C1.95 1.49 1.91 1.41 1.86 1.36C1.8 1.3 1.73 1.28 1.65 1.29C1.57 1.3 1.5 1.34 1.46 1.41C1.41 1.47 1.39 1.55 1.4 1.64C1.42 1.74 1.45 1.81 1.51 1.87C1.57 1.92 1.65 1.95 1.73 1.94ZM1.65 1.32C1.72 1.31 1.78 1.34 1.83 1.39C1.88 1.44 1.91 1.5 1.92 1.58C1.93 1.66 1.91 1.74 1.88 1.79C1.84 1.85 1.79 1.89 1.72 1.9C1.65 1.91 1.59 1.89 1.54 1.84C1.49 1.79 1.45 1.72 1.44 1.64C1.43 1.56 1.45 1.49 1.49 1.43C1.53 1.37 1.58 1.33 1.65 1.32ZM1.09 2.01C1.17 2 1.23 1.96 1.27 1.89C1.31 1.83 1.33 1.75 1.32 1.65C1.31 1.56 1.27 1.49 1.22 1.43C1.16 1.38 1.09 1.35 1.01 1.36C0.93 1.37 0.86 1.41 0.82 1.48C0.77 1.55 0.76 1.63 0.77 1.72C0.78 1.81 0.81 1.89 0.87 1.94C0.94 2 1.01 2.02 1.09 2.01ZM1.01 1.4C1.08 1.39 1.14 1.41 1.19 1.46C1.24 1.51 1.27 1.58 1.28 1.66C1.29 1.74 1.28 1.81 1.24 1.87C1.21 1.93 1.15 1.97 1.08 1.97C1.01 1.98 0.95 1.96 0.9 1.91C0.85 1.86 0.82 1.8 0.81 1.72C0.8 1.64 0.81 1.57 0.85 1.5C0.89 1.44 0.94 1.41 1.01 1.4ZM0.29 2.1L0.22185369780137942 1.543039420344745L0.6365755186787334 2.0619083934855293L0.6365755186787334 2.0619083934855293L0.6365755186787334 2.0619083934855293L0.6762876567369719 2.0571181856775724L0.599644331809663 1.4217239767457575L0.5599321937514246 1.4265141845537141L0.6274741238436155 1.9864553311748763L0.21364234988358533 1.4682847966390975L0.21284810712242064 1.4683806007952567L0.21284810712242064 1.4683806007952567L0.17393021182534696 1.4730750044470544L0.24977929399149112 2.1085650175350286L0.2894914320497295 2.1037748097270716Z" stroke="none" fill="#802671"/>
  <path d="M1.45 2.54L1.4538199238833573 2.5443414622300953L1.4538199238833573 2.5443414622300953L1.4538199238833573 2.5443414622300953L1.3257831582423951 2.9799260655440802L1.0476982348764337 2.618294242557569L1.0476982348764337 2.618294242557569L1.0476982348764337 2.618294242557569L1.0083453580346775 2.6254602096435646L1.0083453580346775 2.6254602096435646L1.0083453580346775 2.6254602096435646L1.1228575120688857 3.2543191815748282L1.1622103889106419 3.247153214488833L1.0630334044404641 2.7025093989989273L1.3449150915193788 3.0805261109172557L1.4695850514725475 2.630917791281959L1.5683320779175656 3.173200434161359L1.6068978972224865 3.1661777864170837L1.4923857431882783 2.5373188144858196L1.4538199238833573 2.5443414622300953ZM1.88 2.46C1.8 2.47 1.75 2.52 1.71 2.59C1.67 2.66 1.66 2.74 1.68 2.83C1.69 2.92 1.73 2.99 1.79 3.04C1.85 3.1 1.92 3.12 2 3.1C2.08 3.09 2.14 3.05 2.19 2.97C2.23 2.9 2.24 2.82 2.22 2.73C2.21 2.64 2.17 2.57 2.1 2.52C2.04 2.46 1.96 2.44 1.88 2.46ZM1.99 3.07C1.93 3.08 1.87 3.06 1.81 3.01C1.76 2.97 1.73 2.9 1.72 2.82C1.7 2.74 1.71 2.67 1.74 2.61C1.77 2.55 1.82 2.51 1.89 2.5C1.96 2.48 2.02 2.5 2.08 2.55C2.13 2.6 2.17 2.66 2.18 2.74C2.2 2.82 2.19 2.89 2.15 2.95C2.12 3.02 2.06 3.05 1.99 3.07ZM2.52 2.34C2.44 2.36 2.38 2.4 2.34 2.47C2.3 2.54 2.29 2.62 2.31 2.72C2.33 2.81 2.36 2.88 2.42 2.93C2.48 2.98 2.55 3 2.63 2.99C2.71 2.97 2.78 2.93 2.82 2.86C2.86 2.79 2.87 2.71 2.86 2.62C2.84 2.53 2.8 2.45 2.74 2.4C2.67 2.35 2.6 2.33 2.52 2.34ZM2.63 2.95C2.56 2.96 2.5 2.95 2.45 2.9C2.4 2.85 2.36 2.79 2.35 2.71C2.33 2.63 2.34 2.56 2.37 2.5C2.4 2.43 2.45 2.39 2.52 2.38C2.59 2.37 2.66 2.39 2.71 2.43C2.77 2.48 2.8 2.54 2.82 2.62C2.83 2.7 2.82 2.77 2.78 2.84C2.75 2.9 2.7 2.94 2.63 2.95ZM3.31 2.21L3.40995467411628 2.7614133372650294L2.9648270752650747 2.268381268591033L2.9648270752650747 2.268381268591033L2.9648270752650747 2.268381268591033L2.925474198423318 2.2755472356770285L3.0401296717992463 2.9051932651451273L3.0794825486410025 2.898027298059132L2.978442412728466 2.3431517345903696L3.4226396347011168 2.8355400650692513L3.4234266922379515 2.835396745727531L3.4234266922379515 2.835396745727531L3.4619925115428725 2.8283740979832555L3.3481240957037794 2.198584749173437L3.3087712188620233 2.2057507162594323Z" stroke="none" fill="#598026"/>
  <path d="M3.28 1.23L3.275448791814837 1.2259362856491207L3.275448791814837 1.2259362856491207L3.275448791814837 1.2259362856491207L3.223045655812632 1.0792918547498385L3.3731553382024777 1.123460570647176L3.3731553382024777 1.123460570647176L3.3731553382024777 1.123460570647176L3.3826230268059314 1.1135307533020264L3.3826230268059314 1.1135307533020264L3.3826230268059314 1.1135307533020264L3.2239445456304394 0.9622370894188386L3.2144768570269857 0.9721669067639882L3.3519055290838575 1.1031997170357855L3.19743596963698 1.0552531682719002L3.2536031936555077 1.205107370721523L3.116770310639345 1.0746426217659328L3.1074919758079607 1.0843738427641796L3.2661704569834527 1.2356675066473675L3.275448791814837 1.2259362856491207ZM3.17 1.34C3.19 1.32 3.2 1.29 3.2 1.26C3.19 1.24 3.18 1.21 3.16 1.19C3.13 1.17 3.11 1.16 3.08 1.16C3.05 1.15 3.03 1.16 3.01 1.18C2.99 1.2 2.98 1.23 2.99 1.25C2.99 1.28 3 1.31 3.02 1.33C3.05 1.35 3.07 1.36 3.1 1.36C3.13 1.37 3.15 1.36 3.17 1.34ZM3.02 1.19C3.04 1.17 3.06 1.17 3.08 1.17C3.1 1.17 3.13 1.18 3.15 1.2C3.17 1.22 3.18 1.24 3.18 1.27C3.19 1.29 3.18 1.31 3.16 1.33C3.15 1.34 3.13 1.35 3.1 1.35C3.08 1.35 3.05 1.34 3.03 1.32C3.01 1.3 3 1.28 3 1.25C3 1.23 3 1.21 3.02 1.19ZM3.02 1.5C3.04 1.48 3.05 1.45 3.04 1.42C3.04 1.4 3.03 1.37 3 1.35C2.98 1.33 2.96 1.32 2.93 1.31C2.9 1.31 2.88 1.32 2.86 1.34C2.84 1.36 2.83 1.39 2.83 1.41C2.84 1.44 2.85 1.47 2.87 1.49C2.89 1.51 2.92 1.52 2.95 1.52C2.98 1.53 3 1.52 3.02 1.5ZM2.87 1.35C2.88 1.33 2.9 1.33 2.93 1.33C2.95 1.33 2.97 1.34 2.99 1.36C3.01 1.38 3.03 1.4 3.03 1.42C3.03 1.45 3.03 1.47 3.01 1.49C2.99 1.5 2.97 1.51 2.95 1.51C2.92 1.51 2.9 1.5 2.88 1.48C2.86 1.46 2.85 1.44 2.85 1.41C2.84 1.39 2.85 1.37 2.87 1.35ZM2.83 1.69L2.6891315264814257 1.560533465990782L2.9120881457891232 1.607430625474938L2.9120881457891232 1.607430625474938L2.9120881457891232 1.607430625474938L2.921555834392577 1.5975008081297883L2.762678756870182 1.4460177904745313L2.753211068266728 1.4559476078196811L2.893221492833339 1.5894420171283763L2.6706528236446134 1.5425356150693863L2.6704634698725442 1.5427342114162894L2.6704634698725442 1.5427342114162894L2.6611851350411597 1.5524654324145362L2.8198728587914856 1.7041470464166961L2.8293405473949393 1.6942172290715463Z" stroke="none" fill="#802628"/>
  <path d="M2.29 0.52L2.2878617876078615 0.5230077548251852L2.2878617876078615 0.5230077548251852L2.2878617876078615 0.5230077548251852L2.2635655101408645 0.36918848204740007L2.4028790302317136 0.4404312734799136L2.4028790302317136 0.4404312734799136L2.4028790302317136 0.4404312734799136L2.4140241118813113 0.43242967645033303L2.4140241118813113 0.43242967645033303L2.4140241118813113 0.43242967645033303L2.2861585913486135 0.2543312716897562L2.2750135096990154 0.26233286871933686L2.3857556125884107 0.41658079874977383L2.2428585201121463 0.3408171049650207L2.270258274142784 0.49848857519606954L2.159996267075164 0.3449093500646085L2.1490740870585574 0.35275091515359747L2.2769396075912556 0.5308493199141743L2.2878617876078615 0.5230077548251852ZM2.17 0.61C2.19 0.6 2.2 0.57 2.2 0.55C2.2 0.52 2.2 0.49 2.18 0.47C2.16 0.44 2.14 0.42 2.11 0.42C2.08 0.41 2.06 0.41 2.04 0.43C2.01 0.45 2 0.47 2 0.5C2 0.53 2 0.55 2.02 0.58C2.04 0.6 2.06 0.62 2.09 0.63C2.12 0.63 2.14 0.63 2.17 0.61ZM2.04 0.44C2.06 0.43 2.08 0.42 2.11 0.43C2.13 0.44 2.15 0.45 2.17 0.47C2.18 0.5 2.19 0.52 2.19 0.54C2.19 0.57 2.18 0.59 2.16 0.6C2.14 0.62 2.12 0.62 2.09 0.61C2.07 0.61 2.05 0.59 2.03 0.57C2.02 0.55 2.01 0.52 2.01 0.5C2.01 0.47 2.02 0.45 2.04 0.44ZM1.99 0.74C2.01 0.73 2.02 0.7 2.02 0.68C2.02 0.65 2.02 0.62 2 0.6C1.98 0.57 1.96 0.55 1.93 0.55C1.9 0.54 1.88 0.54 1.86 0.56C1.83 0.57 1.82 0.6 1.82 0.63C1.82 0.65 1.82 0.68 1.84 0.71C1.86 0.73 1.88 0.75 1.91 0.76C1.94 0.76 1.97 0.76 1.99 0.74ZM1.86 0.57C1.88 0.56 1.91 0.55 1.93 0.56C1.95 0.57 1.97 0.58 1.99 0.6C2 0.63 2.01 0.65 2.01 0.67C2.01 0.7 2 0.72 1.98 0.73C1.96 0.74 1.94 0.75 1.91 0.74C1.89 0.74 1.87 0.72 1.85 0.7C1.84 0.68 1.83 0.65 1.83 0.63C1.83 0.6 1.84 0.58 1.86 0.57ZM1.76 0.9L1.6496601205287234 0.7430573875402817L1.860050684203888 0.8304919823940718L1.860050684203888 0.8304919823940718L1.860050684203888 0.8304919823940718L1.8711957658534861 0.8224903853644913L1.7431702133801967 0.6441690789709225L1.7320251317305986 0.6521706760005032L1.844847649847685 0.8093163272598356L1.634840019746104 0.7219446020984458L1.6346171181131117 0.7221046340390374L1.6346171181131117 0.7221046340390374L1.6236949380965058 0.7299461991280265L1.7514975889368032 0.9084275374621869L1.7626426705864011 0.9004259404326062Z" stroke="none" fill="#462680"/>
  <path d="M0.68 2.72L0.6811374129111252 2.7202986884756277L0.6811374129111252 2.7202986884756277L0.6811374129111252 2.7202986884756277L0.8248162259195486 2.6602397468505L0.7886201592740146 2.812468643485114L0.7886201592740146 2.812468643485114L0.7886201592740146 2.812468643485114L0.7990351540766203 2.821399840675956L0.7990351540766203 2.821399840675956L0.7990351540766203 2.821399840675956L0.9417556851862708 2.654968223730319L0.9313406903836652 2.646037026539477L0.8077329212624159 2.7901805546075384L0.8474717908320513 2.633398736212013L0.700786046730977 2.6973856999098955L0.8238579440207758 2.5538670715299907L0.8136512491142223 2.545114498282966L0.6709307180045717 2.711546115228603L0.6811374129111252 2.7202986884756277ZM0.57 2.62C0.59 2.64 0.61 2.65 0.64 2.64C0.66 2.64 0.69 2.62 0.71 2.6C0.73 2.58 0.74 2.55 0.74 2.52C0.74 2.49 0.73 2.47 0.71 2.45C0.69 2.44 0.67 2.43 0.64 2.43C0.61 2.44 0.59 2.45 0.56 2.48C0.54 2.5 0.53 2.53 0.53 2.55C0.53 2.58 0.54 2.61 0.57 2.62ZM0.7 2.46C0.72 2.48 0.73 2.5 0.73 2.52C0.73 2.55 0.72 2.57 0.7 2.59C0.68 2.61 0.66 2.63 0.64 2.63C0.61 2.63 0.59 2.63 0.57 2.61C0.56 2.6 0.55 2.58 0.55 2.55C0.55 2.53 0.56 2.51 0.58 2.48C0.59 2.46 0.61 2.45 0.64 2.45C0.66 2.44 0.69 2.45 0.7 2.46ZM0.4 2.48C0.42 2.5 0.44 2.5 0.47 2.5C0.5 2.49 0.52 2.48 0.54 2.46C0.56 2.43 0.57 2.41 0.57 2.38C0.58 2.35 0.57 2.33 0.54 2.31C0.52 2.29 0.5 2.28 0.47 2.29C0.44 2.29 0.42 2.31 0.4 2.33C0.38 2.36 0.37 2.38 0.37 2.41C0.37 2.44 0.38 2.46 0.4 2.48ZM0.54 2.32C0.55 2.34 0.56 2.36 0.56 2.38C0.56 2.4 0.55 2.43 0.53 2.45C0.51 2.47 0.49 2.48 0.47 2.49C0.45 2.49 0.42 2.49 0.41 2.47C0.39 2.45 0.38 2.43 0.38 2.41C0.38 2.38 0.39 2.36 0.41 2.34C0.43 2.32 0.45 2.31 0.47 2.3C0.5 2.3 0.52 2.3 0.54 2.32ZM0.19 2.3L0.31610443830716684 2.1524306261826105L0.2810229885472544 2.377549016243358L0.2810229885472544 2.377549016243358L0.2810229885472544 2.377549016243358L0.29143798334986 2.3864802134342L0.43433713840332744 2.2198402965925106L0.42392214360072183 2.2109090994016687L0.2979922632098536 2.3577605261184074L0.3331033889220013 2.1330290598975292L0.3328950890259492 2.132850435953712L0.3328950890259492 2.132850435953712L0.3226883941193957 2.1240978627066873L0.1795809391698761 2.2905591556045595L0.18999593397248177 2.2994903527954014Z" stroke="none" fill="#807C26"/>
  <path d="M1.72 3.52L1.7233596884204136 3.52226096005426L1.7233596884204136 3.52226096005426L1.7233596884204136 3.52226096005426L1.6843112799698443 3.4204864352062847L1.790075559340148 3.4489640648964177L1.790075559340148 3.4489640648964177L1.790075559340148 3.4489640648964177L1.796540275514541 3.441861652574921L1.796540275514541 3.441861652574921L1.796540275514541 3.441861652574921L1.6830437266170293 3.338555488108123L1.6765790104426364 3.3456579004296194L1.774876396972146 3.4351295722832167L1.6659998101033258 3.404078810046269L1.7077343813131216 3.5080385844705955L1.609863139522902 3.418954795587462L1.6035277176719969 3.4259151596625284L1.7170242665695086 3.529221324129326L1.7233596884204136 3.52226096005426ZM1.65 3.6C1.67 3.59 1.67 3.57 1.67 3.55C1.67 3.53 1.66 3.51 1.64 3.5C1.62 3.49 1.61 3.48 1.59 3.48C1.57 3.47 1.55 3.48 1.54 3.5C1.52 3.51 1.52 3.53 1.52 3.55C1.52 3.57 1.53 3.58 1.55 3.6C1.57 3.61 1.58 3.62 1.6 3.62C1.62 3.62 1.64 3.62 1.65 3.6ZM1.54 3.5C1.56 3.49 1.57 3.48 1.59 3.48C1.6 3.49 1.62 3.49 1.63 3.51C1.65 3.52 1.66 3.54 1.66 3.55C1.66 3.57 1.66 3.58 1.65 3.59C1.64 3.61 1.62 3.61 1.6 3.61C1.59 3.61 1.57 3.6 1.56 3.59C1.54 3.58 1.53 3.56 1.53 3.55C1.53 3.53 1.53 3.51 1.54 3.5ZM1.55 3.72C1.56 3.7 1.57 3.68 1.56 3.66C1.56 3.65 1.55 3.63 1.54 3.61C1.52 3.6 1.5 3.59 1.48 3.59C1.46 3.59 1.45 3.6 1.43 3.61C1.42 3.62 1.41 3.64 1.42 3.66C1.42 3.68 1.43 3.7 1.45 3.71C1.46 3.73 1.48 3.74 1.5 3.74C1.52 3.74 1.54 3.73 1.55 3.72ZM1.44 3.62C1.45 3.6 1.47 3.6 1.48 3.6C1.5 3.6 1.51 3.61 1.53 3.62C1.54 3.63 1.55 3.65 1.56 3.67C1.56 3.68 1.55 3.7 1.54 3.71C1.53 3.72 1.52 3.73 1.5 3.73C1.48 3.73 1.47 3.72 1.45 3.71C1.44 3.69 1.43 3.68 1.43 3.66C1.42 3.64 1.43 3.63 1.44 3.62ZM1.42 3.86L1.3184689542264354 3.7659161788306585L1.4752566355701575 3.795122887523208L1.4752566355701575 3.795122887523208L1.4752566355701575 3.795122887523208L1.4817213517445502 3.7880204752017113L1.3680827546006087 3.6845850164114253L1.3616180384262158 3.691687428732922L1.4617620521593144 3.782839926791861L1.30524571338551 3.75362046417637L1.3051164190620221 3.7537625124228L1.3051164190620221 3.7537625124228L1.298780997211117 3.760722876497866L1.4122903000315707 3.8643003835345824L1.4187550162059637 3.8571979712130857Z" stroke="none" fill="#618026"/>
  <path d="M1.06 0.57L1.0575445678365627 0.5678076170202037L1.0575445678365627 0.5678076170202037L1.0575445678365627 0.5678076170202037L0.9497314184513002 0.5517092652354818L1.0265748770542948 0.47365709644166887L1.0265748770542948 0.47365709644166887L1.0265748770542948 0.47365709644166887L1.0235739380250053 0.46453398398250856L1.0235739380250053 0.46453398398250856L1.0235739380250053 0.46453398398250856L0.8777866009276228 0.5124889896705553L0.8807875399569124 0.5216121021297156L1.0070514163916917 0.4800791059643485L0.9264362693364355 0.5595741313996462L1.03747372042641 0.5744096828846407L0.9117572307391804 0.6157626227082504L0.9146981509878841 0.6247032729182276L1.0604854880852665 0.5767482672301809L1.0575445678365627 0.5678076170202037ZM1.09 0.67C1.09 0.65 1.07 0.64 1.06 0.63C1.04 0.62 1.02 0.62 1 0.63C0.98 0.64 0.96 0.65 0.95 0.66C0.94 0.68 0.94 0.7 0.94 0.72C0.95 0.74 0.96 0.75 0.98 0.76C1 0.76 1.02 0.76 1.04 0.76C1.06 0.75 1.08 0.74 1.09 0.72C1.1 0.7 1.1 0.69 1.09 0.67ZM0.95 0.71C0.95 0.7 0.95 0.68 0.96 0.67C0.97 0.66 0.98 0.65 1 0.64C1.02 0.63 1.04 0.63 1.05 0.64C1.07 0.64 1.08 0.65 1.08 0.67C1.09 0.69 1.09 0.7 1.08 0.72C1.07 0.73 1.05 0.74 1.04 0.75C1.02 0.75 1 0.75 0.98 0.75C0.97 0.74 0.96 0.73 0.95 0.71ZM1.14 0.81C1.13 0.8 1.12 0.78 1.1 0.78C1.09 0.77 1.07 0.77 1.04 0.78C1.02 0.78 1.01 0.8 1 0.81C0.99 0.83 0.98 0.84 0.99 0.86C1 0.88 1.01 0.89 1.03 0.9C1.05 0.91 1.07 0.91 1.09 0.9C1.11 0.9 1.12 0.88 1.13 0.87C1.14 0.85 1.15 0.83 1.14 0.81ZM1 0.86C0.99 0.84 1 0.83 1.01 0.82C1.02 0.8 1.03 0.79 1.05 0.79C1.07 0.78 1.08 0.78 1.1 0.78C1.12 0.79 1.13 0.8 1.13 0.82C1.14 0.83 1.13 0.85 1.13 0.86C1.12 0.88 1.1 0.89 1.08 0.89C1.07 0.9 1.05 0.9 1.03 0.89C1.02 0.89 1 0.88 1 0.86ZM1.2 1L1.0703729480031103 1.040184378658005L1.172963088810464 0.9180751166713752L1.172963088810464 0.9180751166713752L1.172963088810464 0.9180751166713752L1.1699621497811745 0.9089520042122149L1.023992350434609 0.9569670286808474L1.0269932894638985 0.9660901411400078L1.1556291751380594 0.9237769008270253L1.0531614777993032 1.045643681783886L1.053221496579889 1.0458261440330692L1.053221496579889 1.0458261440330692L1.0561624168285926 1.0547667942430463L1.2021922349557441 1.006934232023597L1.1991912959264546 0.9978111195644367Z" stroke="none" fill="#268068"/>
  <path d="M2 0C3.1 0 4 0.9 4 2C4 3.1 3.1 4 2 4C0.9 4 0 3.1 0 2C0 0.9 0.9 0 2 0Z" stroke="#000000" stroke-width="0.02" fill="none"/>
  <path d="M-0.2 -0.2L4.2 -0.2L4.2 4.2L-0.2 4.2Z" stroke="none" fill="none"/>
</svg>
