<svg xmlns="http://www.w3.org/2000/svg" viewBox="-0.2 -0.2 4.4 4.4">
  <path d="M-0.2 -0.2L4.2 -0.2L4.2 4.2L-0.2 4.2Z" stroke="none" fill="#FFFFFF"/>
  <path d="M2.1614 1.8772L2.16142581595893 1.877170170898823L2.16142581595893 1.877170170898823L2.16142581595893 1.877170170898823L2.3153850128832643 1.4500590311677057L2.571255080719951 1.827735226320709L2.571255080719951 1.827735226320709L2.571255080719951 1.827735226320709L2.6109672187781894 1.8229450185127523L2.6109672187781894 1.8229450185127523L2.6109672187781894 1.8229450185127523L2.5344196980070395 1.188345052342102L2.494707559948801 1.1931352601500587L2.5610040360109236 1.7427512508760787L2.3023278381337304 1.3484917618947745L2.1508873587814255 1.7898034671706986L2.0848782951877807 1.242570204728173L2.045960399890707 1.2472646083799708L2.1225079206618567 1.8818645745506208L2.16142581595893 1.877170170898823ZM1.7269 1.936C1.8069 1.9264 1.8682 1.8868 1.9108 1.8171C1.9527 1.7498 1.968 1.67 1.9569 1.5779C1.9459 1.4863 1.912 1.4128 1.8554 1.3573C1.7974 1.2998 1.7284 1.2759 1.6485 1.2855C1.5675 1.2953 1.5035 1.3353 1.4567 1.4054C1.4112 1.4742 1.394 1.5539 1.4049 1.6445C1.4159 1.7356 1.4516 1.8091 1.5121 1.8652C1.5743 1.9222 1.6459 1.9458 1.7269 1.936ZM1.653 1.3229C1.7224 1.3145 1.7819 1.3358 1.8315 1.3867C1.8788 1.4358 1.9074 1.5012 1.9172 1.5827C1.9271 1.6648 1.9149 1.735 1.8806 1.7934C1.8445 1.8547 1.7917 1.8895 1.7223 1.8979C1.6525 1.9063 1.5911 1.8855 1.5384 1.8355C1.4856 1.7854 1.4543 1.7202 1.4446 1.6397C1.435 1.5597 1.4498 1.4891 1.4892 1.4276C1.5285 1.3662 1.5831 1.3313 1.653 1.3229ZM1.0884 2.0131C1.1683 2.0034 1.2296 1.9638 1.2723 1.8942C1.3141 1.8268 1.3295 1.7471 1.3183 1.6549C1.3073 1.5633 1.2734 1.4898 1.2168 1.4343C1.1588 1.3768 1.0899 1.3529 1.0099 1.3626C0.9289 1.3723 0.865 1.4123 0.8181 1.4824C0.7727 1.5513 0.7554 1.631 0.7663 1.7215C0.7773 1.8126 0.8131 1.8862 0.8736 1.9423C0.9358 1.9992 1.0074 2.0228 1.0884 2.0131ZM1.0144 1.3999C1.0838 1.3915 1.1433 1.4128 1.1929 1.4638C1.2402 1.5129 1.2688 1.5782 1.2786 1.6597C1.2885 1.7418 1.2763 1.812 1.242 1.8704C1.2059 1.9317 1.1531 1.9666 1.0838 1.9749C1.0139 1.9834 0.9526 1.9626 0.8998 1.9125C0.847 1.8625 0.8158 1.7972 0.8061 1.7167C0.7964 1.6368 0.8113 1.5661 0.8506 1.5047C0.8899 1.4433 0.9445 1.4083 1.0144 1.3999ZM0.2895 2.1038L0.22185369780137942 1.543039420344745L0.6365755186787334 2.0619083934855293L0.6365755186787334 2.0619083934855293L0.6365755186787334 2.0619083934855293L0.6762876567369719 2.0571181856775724L0.599644331809663 1.4217239767457575L0.5599321937514246 1.4265141845537141L0.6274741238436155 1.9864553311748763L0.21364234988358533 1.4682847966390975L0.21284810712242064 1.4683806007952567L0.21284810712242064 1.4683806007952567L0.17393021182534696 1.4730750044470544L0.24977929399149112 2.1085650175350286L0.2894914320497295 2.1037748097270716Z" stroke="none" fill="#802671"/>
  <path d="M1.4538 2.5443L1.4538199238833573 2.5443414622300953L1.4538199238833573 2.5443414622300953L1.4538199238833573 2.5443414622300953L1.3257831582423951 2.9799260655440802L1.0476982348764337 2.618294242557569L1.0476982348764337 2.618294242557569L1.0476982348764337 2.618294242557569L1.0083453580346775 2.6254602096435646L1.0083453580346775 2.6254602096435646L1.0083453580346775 2.6254602096435646L1.1228575120688857 3.2543191815748282L1.1622103889106419 3.247153214488833L1.0630334044404641 2.7025093989989273L1.3449150915193788 3.0805261109172557L1.4695850514725475 2.630917791281959L1.5683320779175656 3.173200434161359L1.6068978972224865 3.1661777864170837L1.4923857431882783 2.5373188144858196L1.4538199238833573 2.5443414622300953ZM1.884 2.4595C1.8048 2.4739 1.7459 2.5172 1.7076 2.5892C1.6698 2.659 1.6593 2.7395 1.6759 2.8308C1.6925 2.9216 1.7307 2.9929 1.7905 3.0449C1.8519 3.0988 1.9221 3.1185 2.0014 3.1041C2.0816 3.0895 2.1431 3.0458 2.1856 2.973C2.2268 2.9015 2.2393 2.8209 2.2229 2.7312C2.2065 2.6409 2.1664 2.5696 2.1027 2.5173C2.0372 2.4641 1.9643 2.4449 1.884 2.4595ZM1.9946 3.0671C1.9259 3.0796 1.8652 3.0619 1.8126 3.0141C1.7624 2.9679 1.73 2.9044 1.7153 2.8236C1.7005 2.7423 1.7084 2.6714 1.7392 2.6111C1.7716 2.5477 1.8221 2.5098 1.8909 2.4973C1.9601 2.4847 2.0226 2.5018 2.0783 2.5485C2.134 2.5953 2.1691 2.6586 2.1836 2.7383C2.198 2.8176 2.1874 2.889 2.1519 2.9527C2.1163 3.0164 2.0639 3.0545 1.9946 3.0671ZM2.5168 2.3443C2.4375 2.3587 2.3787 2.4019 2.3404 2.474C2.3026 2.5437 2.2921 2.6243 2.3087 2.7156C2.3253 2.8063 2.3635 2.8777 2.4233 2.9297C2.4847 2.9836 2.5549 3.0033 2.6342 2.9889C2.7144 2.9743 2.7759 2.9305 2.8184 2.8577C2.8596 2.7863 2.8721 2.7057 2.8557 2.6159C2.8393 2.5257 2.7992 2.4544 2.7355 2.402C2.67 2.3489 2.5971 2.3297 2.5168 2.3443ZM2.6274 2.9519C2.5587 2.9644 2.498 2.9467 2.4454 2.8988C2.3952 2.8527 2.3628 2.7892 2.3481 2.7084C2.3333 2.6271 2.3412 2.5562 2.372 2.4959C2.4044 2.4325 2.4549 2.3946 2.5237 2.3821C2.5929 2.3694 2.6554 2.3865 2.7111 2.4333C2.7668 2.4801 2.8019 2.5434 2.8164 2.6231C2.8308 2.7023 2.8202 2.7738 2.7847 2.8375C2.7491 2.9011 2.6967 2.9393 2.6274 2.9519ZM3.3088 2.2058L3.40995467411628 2.7614133372650294L2.9648270752650747 2.268381268591033L2.9648270752650747 2.268381268591033L2.9648270752650747 2.268381268591033L2.925474198423318 2.2755472356770285L3.0401296717992463 2.9051932651451273L3.0794825486410025 2.898027298059132L2.978442412728466 2.3431517345903696L3.4226396347011168 2.8355400650692513L3.4234266922379515 2.835396745727531L3.4234266922379515 2.835396745727531L3.4619925115428725 2.8283740979832555L3.3481240957037794 2.198584749173437L3.3087712188620233 2.2057507162594323Z" stroke="none" fill="#598026"/>
  <path d="M3.2754 1.2259L3.275448791814837 1.2259362856491207L3.275448791814837 1.2259362856491207L3.275448791814837 1.2259362856491207L3.223045655812632 1.0792918547498385L3.3731553382024777 1.123460570647176L3.3731553382024777 1.123460570647176L3.3731553382024777 1.123460570647176L3.3826230268059314 1.1135307533020264L3.3826230268059314 1.1135307533020264L3.3826230268059314 1.1135307533020264L3.2239445456304394 0.9622370894188386L3.2144768570269857 0.9721669067639882L3.3519055290838575 1.1031997170357855L3.19743596963698 1.0552531682719002L3.2536031936555077 1.205107370721523L3.116770310639345 1.0746426217659328L3.1074919758079607 1.0843738427641796L3.2661704569834527 1.2356675066473675L3.275448791814837 1.2259362856491207ZM3.1733 1.3363C3.1923 1.3163 3.1999 1.2924 3.196 1.2647C3.1924 1.2377 3.1791 1.2133 3.156 1.1913C3.1331 1.1695 3.1081 1.1574 3.081 1.1551C3.0532 1.1525 3.0297 1.1612 3.0106 1.1812C2.9913 1.2015 2.9831 1.226 2.986 1.2548C2.989 1.2829 3.0018 1.3078 3.0244 1.3293C3.0472 1.3511 3.0727 1.3627 3.101 1.3644C3.1299 1.3659 3.154 1.3565 3.1733 1.3363ZM3.02 1.1901C3.0365 1.1728 3.0569 1.1654 3.0811 1.1681C3.1044 1.1708 3.1262 1.1818 3.1466 1.2013C3.1671 1.2208 3.1792 1.2421 3.1828 1.265C3.1866 1.2891 3.1803 1.3098 3.1637 1.3272C3.1471 1.3447 3.1263 1.3525 3.1014 1.3508C3.0765 1.3491 3.054 1.3386 3.0339 1.3194C3.0139 1.3004 3.0024 1.2784 2.9994 1.2536C2.9965 1.2287 3.0033 1.2076 3.02 1.1901ZM3.021 1.496C3.0401 1.476 3.0477 1.4521 3.0438 1.4244C3.0402 1.3974 3.0268 1.373 3.0038 1.351C2.9809 1.3292 2.9559 1.3171 2.9288 1.3147C2.9009 1.3122 2.8774 1.3209 2.8584 1.3409C2.8391 1.3611 2.8309 1.3857 2.8337 1.4144C2.8367 1.4426 2.8496 1.4674 2.8722 1.489C2.895 1.5107 2.9205 1.5224 2.9487 1.5241C2.9776 1.5256 3.0017 1.5162 3.021 1.496ZM2.8677 1.3498C2.8843 1.3324 2.9046 1.3251 2.9289 1.3277C2.9521 1.3304 2.9739 1.3415 2.9943 1.3609C3.0149 1.3805 3.0269 1.4017 3.0306 1.4247C3.0344 1.4488 3.028 1.4695 3.0115 1.4869C2.9948 1.5043 2.9741 1.5122 2.9492 1.5105C2.9243 1.5087 2.9018 1.4983 2.8817 1.4791C2.8617 1.46 2.8502 1.4381 2.8472 1.4132C2.8442 1.3884 2.8511 1.3672 2.8677 1.3498ZM2.8293 1.6942L2.6891315264814257 1.560533465990782L2.9120881457891232 1.607430625474938L2.9120881457891232 1.607430625474938L2.9120881457891232 1.607430625474938L2.921555834392577 1.5975008081297883L2.762678756870182 1.4460177904745313L2.753211068266728 1.4559476078196811L2.893221492833339 1.5894420171283763L2.6706528236446134 1.5425356150693863L2.6704634698725442 1.5427342114162894L2.6704634698725442 1.5427342114162894L2.6611851350411597 1.5524654324145362L2.8198728587914856 1.7041470464166961L2.8293405473949393 1.6942172290715463Z" stroke="none" fill="#802628"/>
  <path d="M2.2879 0.523L2.2878617876078615 0.5230077548251852L2.2878617876078615 0.5230077548251852L2.2878617876078615 0.5230077548251852L2.2635655101408645 0.36918848204740007L2.4028790302317136 0.4404312734799136L2.4028790302317136 0.4404312734799136L2.4028790302317136 0.4404312734799136L2.4140241118813113 0.43242967645033303L2.4140241118813113 0.43242967645033303L2.4140241118813113 0.43242967645033303L2.2861585913486135 0.2543312716897562L2.2750135096990154 0.26233286871933686L2.3857556125884107 0.41658079874977383L2.2428585201121463 0.3408171049650207L2.270258274142784 0.49848857519606954L2.159996267075164 0.3449093500646085L2.1490740870585574 0.35275091515359747L2.2769396075912556 0.5308493199141743L2.2878617876078615 0.5230077548251852ZM2.167 0.6125C2.1894 0.5964 2.2013 0.5743 2.2026 0.5464C2.2041 0.5192 2.1955 0.4927 2.1769 0.4668C2.1585 0.4411 2.1362 0.4246 2.11 0.4173C2.083 0.4096 2.0584 0.4138 2.0359 0.4299C2.0132 0.4463 2.0006 0.4688 1.9981 0.4976C1.9958 0.5259 2.0038 0.5527 2.022 0.5781C2.0404 0.6036 2.0633 0.6198 2.0907 0.6267C2.1188 0.6336 2.1443 0.6288 2.167 0.6125ZM2.0434 0.4404C2.0629 0.4264 2.0843 0.423 2.1077 0.4301C2.13 0.4371 2.1494 0.452 2.1658 0.4748C2.1823 0.4979 2.1903 0.521 2.1896 0.5442C2.1889 0.5686 2.1788 0.5878 2.1593 0.6018C2.1397 0.6159 2.1178 0.6198 2.0937 0.6134C2.0696 0.6071 2.0494 0.5927 2.0332 0.5701C2.0171 0.5476 2.0098 0.5239 2.0115 0.499C2.0132 0.474 2.0238 0.4545 2.0434 0.4404ZM1.9878 0.7412C2.0102 0.725 2.0221 0.703 2.0234 0.675C2.0249 0.6479 2.0163 0.6214 1.9977 0.5955C1.9793 0.5698 1.9569 0.5533 1.9308 0.546C1.9038 0.5383 1.8792 0.5425 1.8567 0.5586C1.834 0.5749 1.8214 0.5975 1.8189 0.6263C1.8166 0.6545 1.8246 0.6813 1.8428 0.7067C1.8612 0.7323 1.8841 0.7485 1.9115 0.7554C1.9396 0.7622 1.965 0.7575 1.9878 0.7412ZM1.8642 0.5691C1.8837 0.5551 1.9051 0.5517 1.9285 0.5588C1.9508 0.5657 1.9702 0.5806 1.9866 0.6035C2.0031 0.6265 2.0111 0.6497 2.0104 0.6729C2.0097 0.6973 1.9996 0.7165 1.9801 0.7305C1.9605 0.7445 1.9386 0.7484 1.9145 0.7421C1.8903 0.7358 1.8702 0.7213 1.854 0.6987C1.8378 0.6763 1.8306 0.6526 1.8323 0.6276C1.834 0.6027 1.8446 0.5832 1.8642 0.5691ZM1.7626 0.9004L1.6496601205287234 0.7430573875402817L1.860050684203888 0.8304919823940718L1.860050684203888 0.8304919823940718L1.860050684203888 0.8304919823940718L1.8711957658534861 0.8224903853644913L1.7431702133801967 0.6441690789709225L1.7320251317305986 0.6521706760005032L1.844847649847685 0.8093163272598356L1.634840019746104 0.7219446020984458L1.6346171181131117 0.7221046340390374L1.6346171181131117 0.7221046340390374L1.6236949380965058 0.7299461991280265L1.7514975889368032 0.9084275374621869L1.7626426705864011 0.9004259404326062Z" stroke="none" fill="#462680"/>
  <path d="M0.6811 2.7203L0.6811374129111252 2.7202986884756277L0.6811374129111252 2.7202986884756277L0.6811374129111252 2.7202986884756277L0.8248162259195486 2.6602397468505L0.7886201592740146 2.812468643485114L0.7886201592740146 2.812468643485114L0.7886201592740146 2.812468643485114L0.7990351540766203 2.821399840675956L0.7990351540766203 2.821399840675956L0.7990351540766203 2.821399840675956L0.9417556851862708 2.654968223730319L0.9313406903836652 2.646037026539477L0.8077329212624159 2.7901805546075384L0.8474717908320513 2.633398736212013L0.700786046730977 2.6973856999098955L0.8238579440207758 2.5538670715299907L0.8136512491142223 2.545114498282966L0.6709307180045717 2.711546115228603L0.6811374129111252 2.7202986884756277ZM0.5656 2.6241C0.5865 2.6421 0.6108 2.6484 0.6382 2.643C0.665 2.638 0.6887 2.6234 0.7094 2.5992C0.73 2.5752 0.7408 2.5496 0.7417 2.5224C0.7428 2.4944 0.7328 2.4715 0.7119 2.4535C0.6906 2.4353 0.6657 2.4284 0.6371 2.4327C0.6092 2.4372 0.585 2.4513 0.5646 2.4751C0.5442 2.499 0.5338 2.5251 0.5337 2.5534C0.5337 2.5823 0.5443 2.6059 0.5656 2.6241ZM0.7035 2.4633C0.7216 2.4789 0.7301 2.4989 0.7287 2.5232C0.7272 2.5466 0.7173 2.5689 0.699 2.5903C0.6805 2.6118 0.6599 2.625 0.6372 2.6299C0.6134 2.6349 0.5923 2.6297 0.5741 2.6141C0.5558 2.5984 0.5468 2.578 0.5473 2.5531C0.5477 2.5281 0.557 2.5051 0.5751 2.484C0.593 2.463 0.6144 2.4504 0.639 2.4461C0.6636 2.4418 0.6851 2.4476 0.7035 2.4633ZM0.3981 2.4805C0.4191 2.4984 0.4433 2.5048 0.4708 2.4994C0.4975 2.4944 0.5212 2.4798 0.5419 2.4556C0.5625 2.4316 0.5733 2.406 0.5742 2.3788C0.5753 2.3508 0.5653 2.3278 0.5444 2.3099C0.5231 2.2916 0.4982 2.2847 0.4696 2.2891C0.4417 2.2936 0.4175 2.3077 0.3972 2.3315C0.3767 2.3554 0.3664 2.3814 0.3662 2.4097C0.3662 2.4387 0.3768 2.4622 0.3981 2.4805ZM0.536 2.3197C0.5542 2.3353 0.5626 2.3552 0.5612 2.3796C0.5598 2.4029 0.5499 2.4253 0.5315 2.4467C0.5131 2.4682 0.4925 2.4814 0.4698 2.4863C0.4459 2.4913 0.4249 2.4861 0.4067 2.4705C0.3883 2.4547 0.3794 2.4344 0.3798 2.4095C0.3802 2.3845 0.3895 2.3615 0.4076 2.3404C0.4256 2.3194 0.4469 2.3068 0.4715 2.3025C0.4962 2.2982 0.5177 2.3039 0.536 2.3197ZM0.19 2.2995L0.31610443830716684 2.1524306261826105L0.2810229885472544 2.377549016243358L0.2810229885472544 2.377549016243358L0.2810229885472544 2.377549016243358L0.29143798334986 2.3864802134342L0.43433713840332744 2.2198402965925106L0.42392214360072183 2.2109090994016687L0.2979922632098536 2.3577605261184074L0.3331033889220013 2.1330290598975292L0.3328950890259492 2.132850435953712L0.3328950890259492 2.132850435953712L0.3226883941193957 2.1240978627066873L0.1795809391698761 2.2905591556045595L0.18999593397248177 2.2994903527954014Z" stroke="none" fill="#807C26"/>
  <path d="M1.7234 3.5223L1.7233596884204136 3.52226096005426L1.7233596884204136 3.52226096005426L1.7233596884204136 3.52226096005426L1.6843112799698443 3.4204864352062847L1.790075559340148 3.4489640648964177L1.790075559340148 3.4489640648964177L1.790075559340148 3.4489640648964177L1.796540275514541 3.441861652574921L1.796540275514541 3.441861652574921L1.796540275514541 3.441861652574921L1.6830437266170293 3.338555488108123L1.6765790104426364 3.3456579004296194L1.774876396972146 3.4351295722832167L1.6659998101033258 3.404078810046269L1.7077343813131216 3.5080385844705955L1.609863139522902 3.418954795587462L1.6035277176719969 3.4259151596625284L1.7170242665695086 3.529221324129326L1.7233596884204136 3.52226096005426ZM1.6536 3.6011C1.6667 3.5868 1.6716 3.57 1.6684 3.5507C1.6654 3.5319 1.6557 3.515 1.6392 3.5C1.6229 3.4851 1.6052 3.477 1.5862 3.4758C1.5666 3.4745 1.5503 3.4809 1.5373 3.4952C1.5241 3.5097 1.5188 3.527 1.5213 3.5471C1.5238 3.5668 1.5332 3.584 1.5494 3.5987C1.5657 3.6135 1.5837 3.6213 1.6035 3.622C1.6237 3.6226 1.6405 3.6156 1.6536 3.6011ZM1.544 3.5013C1.5553 3.4889 1.5694 3.4834 1.5864 3.4849C1.6027 3.4864 1.6182 3.4938 1.6328 3.5071C1.6474 3.5204 1.6563 3.5351 1.6592 3.5511C1.6622 3.5679 1.6581 3.5825 1.6468 3.5949C1.6354 3.6074 1.621 3.6133 1.6036 3.6125C1.5862 3.6117 1.5702 3.6047 1.5558 3.5916C1.5415 3.5786 1.5331 3.5634 1.5307 3.5461C1.5282 3.5287 1.5326 3.5138 1.544 3.5013ZM1.5497 3.7153C1.5627 3.701 1.5676 3.6842 1.5645 3.6649C1.5615 3.6461 1.5518 3.6292 1.5353 3.6142C1.5189 3.5993 1.5012 3.5912 1.4822 3.59C1.4627 3.5887 1.4464 3.5952 1.4334 3.6095C1.4202 3.6239 1.4148 3.6412 1.4173 3.6613C1.4199 3.681 1.4292 3.6982 1.4454 3.7129C1.4617 3.7277 1.4798 3.7355 1.4995 3.7362C1.5198 3.7368 1.5365 3.7298 1.5497 3.7153ZM1.44 3.6155C1.4513 3.6031 1.4655 3.5977 1.4825 3.5991C1.4988 3.6006 1.5142 3.608 1.5288 3.6213C1.5435 3.6346 1.5523 3.6493 1.5552 3.6653C1.5583 3.6821 1.5542 3.6967 1.5429 3.7091C1.5315 3.7216 1.5171 3.7275 1.4996 3.7267C1.4822 3.7259 1.4663 3.7189 1.4519 3.7058C1.4376 3.6928 1.4292 3.6776 1.4267 3.6603C1.4242 3.6429 1.4287 3.628 1.44 3.6155ZM1.4188 3.8572L1.3184689542264354 3.7659161788306585L1.4752566355701575 3.795122887523208L1.4752566355701575 3.795122887523208L1.4752566355701575 3.795122887523208L1.4817213517445502 3.7880204752017113L1.3680827546006087 3.6845850164114253L1.3616180384262158 3.691687428732922L1.4617620521593144 3.782839926791861L1.30524571338551 3.75362046417637L1.3051164190620221 3.7537625124228L1.3051164190620221 3.7537625124228L1.298780997211117 3.760722876497866L1.4122903000315707 3.8643003835345824L1.4187550162059637 3.8571979712130857Z" stroke="none" fill="#618026"/>
  <path d="M1.0575 0.5678L1.0575445678365627 0.5678076170202037L1.0575445678365627 0.5678076170202037L1.0575445678365627 0.5678076170202037L0.9497314184513002 0.5517092652354818L1.0265748770542948 0.47365709644166887L1.0265748770542948 0.47365709644166887L1.0265748770542948 0.47365709644166887L1.0235739380250053 0.46453398398250856L1.0235739380250053 0.46453398398250856L1.0235739380250053 0.46453398398250856L0.8777866009276228 0.5124889896705553L0.8807875399569124 0.5216121021297156L1.0070514163916917 0.4800791059643485L0.9264362693364355 0.5595741313996462L1.03747372042641 0.5744096828846407L0.9117572307391804 0.6157626227082504L0.9146981509878841 0.6247032729182276L1.0604854880852665 0.5767482672301809L1.0575445678365627 0.5678076170202037ZM1.0919 0.6673C1.0859 0.6489 1.0736 0.6364 1.0552 0.6296C1.0374 0.623 1.0179 0.6231 0.9967 0.6301C0.9757 0.637 0.96 0.6484 0.9496 0.6644C0.9388 0.6807 0.9364 0.6981 0.9425 0.7165C0.9486 0.7351 0.961 0.7483 0.9797 0.756C0.9981 0.7634 1.0177 0.7637 1.0385 0.7569C1.0594 0.75 1.075 0.7381 1.0854 0.7212C1.0958 0.7039 1.098 0.6859 1.0919 0.6673ZM0.951 0.7137C0.9458 0.6977 0.948 0.6827 0.9577 0.6686C0.967 0.6552 0.981 0.6454 0.9997 0.6392C1.0186 0.633 1.0357 0.6326 1.0511 0.6379C1.0672 0.6435 1.0779 0.6543 1.0831 0.6702C1.0884 0.6863 1.0864 0.7017 1.0771 0.7165C1.0678 0.7312 1.0539 0.7417 1.0355 0.7478C1.0171 0.7538 0.9997 0.7536 0.9834 0.7473C0.9671 0.7409 0.9563 0.7297 0.951 0.7137ZM1.1401 0.814C1.1341 0.7956 1.1219 0.7831 1.1035 0.7763C1.0857 0.7697 1.0662 0.7698 1.045 0.7768C1.0239 0.7837 1.0082 0.7951 0.9978 0.8111C0.987 0.8274 0.9847 0.8448 0.9907 0.8632C0.9968 0.8818 1.0093 0.895 1.028 0.9027C1.0463 0.9101 1.0659 0.9104 1.0867 0.9036C1.1076 0.8967 1.1233 0.8848 1.1336 0.8679C1.1441 0.8506 1.1463 0.8326 1.1401 0.814ZM0.9993 0.8604C0.994 0.8444 0.9963 0.8294 1.0059 0.8153C1.0152 0.8019 1.0293 0.7921 1.048 0.7859C1.0668 0.7797 1.084 0.7793 1.0993 0.7846C1.1155 0.7902 1.1261 0.801 1.1314 0.8169C1.1367 0.833 1.1347 0.8484 1.1254 0.8632C1.1161 0.8779 1.1022 0.8884 1.0837 0.8945C1.0653 0.9005 1.048 0.9003 1.0317 0.894C1.0154 0.8876 1.0046 0.8764 0.9993 0.8604ZM1.1992 0.9978L1.0703729480031103 1.040184378658005L1.172963088810464 0.9180751166713752L1.172963088810464 0.9180751166713752L1.172963088810464 0.9180751166713752L1.1699621497811745 0.9089520042122149L1.023992350434609 0.9569670286808474L1.0269932894638985 0.9660901411400078L1.1556291751380594 0.9237769008270253L1.0531614777993032 1.045643681783886L1.053221496579889 1.0458261440330692L1.053221496579889 1.0458261440330692L1.0561624168285926 1.0547667942430463L1.2021922349557441 1.006934232023597L1.1991912959264546 0.9978111195644367Z" stroke="none" fill="#268068"/>
  <path d="M2 0C3.1046 0 4 0.8954 4 2C4 3.1046 3.1046 4 2 4C0.8954 4 0 3.1046 0 2C0 0.8954 0.8954 0 2 0Z" stroke="#000000" stroke-width="0.02" fill="none"/>
  <path d="M-0.2 -0.2L4.2 -0.2L4.2 4.2L-0.2 4.2Z" stroke="none" fill="none"/>
</svg>
