<svg xmlns="http://www.w3.org/2000/svg" viewBox="-0.1 -0.811 6.189 3.327">
  <path d="M-0.1 -0.811L6.0889999999999995 -0.8109999999999999L6.0889999999999995 2.516L-0.1 2.516Z" stroke="none" fill="#FFFFFF"/>
  <path d="M0.426 -0.606C0.4307 -0.5987 0.4348 -0.5888 0.4385 -0.5765C0.4422 -0.5642 0.444 -0.5513 0.444 -0.538C0.444 -0.512 0.4385 -0.4935 0.4275 -0.4825C0.4165 -0.4715 0.4017 -0.466 0.383 -0.466L0.17300000000000001 -0.466L0.17300000000000001 -0.353L0.392 -0.353C0.3973 -0.3457 0.4018 -0.336 0.4055 -0.324C0.4092 -0.312 0.411 -0.2993 0.411 -0.286C0.411 -0.2607 0.4055 -0.2425 0.3945 -0.2315C0.3835 -0.2205 0.3687 -0.215 0.35 -0.215L0.17500000000000002 -0.215L0.17500000000000002 -0.004C0.1677 -0.002 0.1562 0 0.1405 0.002C0.1248 0.004 0.1093 0.005 0.094 0.005C0.0787 0.005 0.0652 0.0038 0.0535 0.0015C0.0418 -0.0008 0.032 -0.005 0.024 -0.011C0.016 -0.017 0.01 -0.0253 0.006 -0.036C0.002 -0.0467 0 -0.0607 0 -0.078L0 -0.513C0 -0.5417 0.0083 -0.5643 0.025 -0.581C0.0417 -0.5977 0.0643 -0.606 0.093 -0.606L0.426 -0.606ZM0.692 -0.001C0.6847 0.0003 0.6738 0.0022 0.6595 0.0045C0.6452 0.0068 0.6307 0.008 0.616 0.008C0.6013 0.008 0.5882 0.007 0.5765 0.005C0.5648 0.003 0.555 -0.001 0.547 -0.007C0.539 -0.013 0.5328 -0.0212 0.5285 -0.0315C0.5242 -0.0418 0.522 -0.0553 0.522 -0.072L0.522 -0.47900000000000004C0.5293 -0.4803 0.5402 -0.4822 0.5545 -0.4845C0.5688 -0.4868 0.5833 -0.488 0.598 -0.488C0.6127 -0.488 0.6258 -0.487 0.6375 -0.485C0.6492 -0.483 0.659 -0.479 0.667 -0.473C0.675 -0.467 0.6812 -0.4588 0.6855 -0.4485C0.6898 -0.4382 0.692 -0.4247 0.692 -0.408L0.6920000000000001 -0.001ZM0.514 -0.621C0.514 -0.6463 0.5225 -0.6677 0.5395 -0.685C0.5565 -0.7023 0.579 -0.711 0.607 -0.711C0.635 -0.711 0.6575 -0.7023 0.6745 -0.685C0.6915 -0.6677 0.7 -0.6463 0.7 -0.621C0.7 -0.5957 0.6915 -0.5743 0.6745 -0.557C0.6575 -0.5397 0.635 -0.531 0.607 -0.531C0.579 -0.531 0.5565 -0.5397 0.5395 -0.557C0.5225 -0.5743 0.514 -0.5957 0.514 -0.621ZM0.973 -0.001C0.9657 0.0003 0.9548 0.0022 0.9405 0.0045C0.9262 0.0068 0.9117 0.008 0.897 0.008C0.8823 0.008 0.8692 0.007 0.8575 0.005C0.8458 0.003 0.836 -0.001 0.828 -0.007C0.82 -0.013 0.8138 -0.0212 0.8095 -0.0315C0.8052 -0.0418 0.803 -0.0553 0.803 -0.072L0.803 -0.652C0.8103 -0.6533 0.8212 -0.6552 0.8355 -0.6575C0.8498 -0.6598 0.8643 -0.661 0.879 -0.661C0.8937 -0.661 0.9068 -0.66 0.9185 -0.658C0.9302 -0.656 0.94 -0.652 0.948 -0.646C0.956 -0.64 0.9622 -0.6318 0.9665 -0.6215C0.9708 -0.6112 0.973 -0.5977 0.973 -0.581L0.973 -0.001ZM1.253 -0.001C1.2457 0.0003 1.2348 0.0022 1.2205 0.0045C1.2062 0.0068 1.1917 0.008 1.177 0.008C1.1623 0.008 1.1492 0.007 1.1375 0.005C1.1258 0.003 1.116 -0.001 1.108 -0.007C1.1 -0.013 1.0938 -0.0212 1.0895 -0.0315C1.0852 -0.0418 1.083 -0.0553 1.083 -0.072L1.083 -0.652C1.0903 -0.6533 1.1012 -0.6552 1.1155 -0.6575C1.1298 -0.6598 1.1443 -0.661 1.159 -0.661C1.1737 -0.661 1.1868 -0.66 1.1985 -0.658C1.2102 -0.656 1.22 -0.652 1.228 -0.646C1.236 -0.64 1.2422 -0.6318 1.2465 -0.6215C1.2508 -0.6112 1.253 -0.5977 1.253 -0.581L1.2530000000000001 -0.001ZM1.617 0.016C1.5777 0.016 1.5412 0.0105 1.5075 -0.0005C1.4738 -0.0115 1.4445 -0.028 1.4195 -0.05C1.3945 -0.072 1.3748 -0.0997 1.3605 -0.133C1.3462 -0.1663 1.339 -0.2053 1.339 -0.25C1.339 -0.294 1.3462 -0.3318 1.3605 -0.3635C1.3748 -0.3952 1.3937 -0.4212 1.417 -0.4415C1.4403 -0.4618 1.467 -0.4768 1.497 -0.4865C1.527 -0.4962 1.5577 -0.501 1.589 -0.501C1.6243 -0.501 1.6565 -0.4957 1.6855 -0.485C1.7145 -0.4743 1.7395 -0.4597 1.7605 -0.441C1.7815 -0.4223 1.7978 -0.4 1.8095 -0.374C1.8212 -0.348 1.827 -0.3197 1.827 -0.289C1.827 -0.2663 1.8207 -0.249 1.808 -0.237C1.7953 -0.225 1.7777 -0.2173 1.755 -0.214L1.508 -0.177C1.5153 -0.155 1.5303 -0.1385 1.553 -0.1275C1.5757 -0.1165 1.6017 -0.111 1.631 -0.111C1.6583 -0.111 1.6842 -0.1145 1.7085 -0.1215C1.7328 -0.1285 1.7527 -0.1367 1.768 -0.146C1.7787 -0.1393 1.7877 -0.13 1.795 -0.118C1.8023 -0.106 1.806 -0.0933 1.806 -0.08C1.806 -0.05 1.792 -0.0277 1.764 -0.013C1.7427 -0.0017 1.7187 0.006 1.692 0.01C1.6653 0.014 1.6403 0.016 1.617 0.016ZM1.589 -0.377C1.573 -0.377 1.5592 -0.3743 1.5475 -0.369C1.5358 -0.3637 1.5263 -0.3568 1.519 -0.3485C1.5117 -0.3402 1.5062 -0.3308 1.5025 -0.3205C1.4988 -0.3102 1.4967 -0.2997 1.496 -0.289L1.667 -0.317C1.665 -0.3303 1.6577 -0.3437 1.645 -0.357C1.6323 -0.3703 1.6137 -0.377 1.589 -0.377ZM1.888 -0.243C1.888 -0.287 1.8947 -0.3252 1.908 -0.3575C1.9213 -0.3898 1.9398 -0.4167 1.9635 -0.438C1.9872 -0.4593 2.0148 -0.4752 2.0465 -0.4855C2.0782 -0.4958 2.1123 -0.501 2.149 -0.501C2.1623 -0.501 2.1753 -0.4998 2.188 -0.4975C2.2007 -0.4952 2.211 -0.4923 2.219 -0.489L2.219 -0.651C2.2257 -0.653 2.2363 -0.6552 2.251 -0.6575C2.2657 -0.6598 2.2807 -0.661 2.296 -0.661C2.3107 -0.661 2.3238 -0.66 2.3355 -0.658C2.3472 -0.656 2.357 -0.652 2.365 -0.646C2.373 -0.64 2.379 -0.6318 2.383 -0.6215C2.387 -0.6112 2.389 -0.5977 2.389 -0.581L2.3890000000000002 -0.107C2.389 -0.0757 2.3743 -0.0507 2.345 -0.032C2.3257 -0.0193 2.3007 -0.0082 2.27 0.0015C2.2393 0.0112 2.204 0.016 2.164 0.016C2.1207 0.016 2.0818 0.01 2.0475 -0.002C2.0132 -0.014 1.9842 -0.0313 1.9605 -0.054C1.9368 -0.0767 1.9188 -0.1038 1.9065 -0.1355C1.8942 -0.1672 1.888 -0.203 1.888 -0.243ZM2.172 -0.368C2.136 -0.368 2.1083 -0.3577 2.089 -0.337C2.0697 -0.3163 2.06 -0.285 2.06 -0.243C2.06 -0.2017 2.069 -0.1705 2.087 -0.1495C2.105 -0.1285 2.131 -0.118 2.165 -0.118C2.177 -0.118 2.1878 -0.1198 2.1975 -0.1235C2.2072 -0.1272 2.2147 -0.1313 2.22 -0.136L2.22 -0.356C2.2067 -0.364 2.1907 -0.368 2.172 -0.368ZM2.776 -0.304C2.776 -0.356 2.7842 -0.402 2.8005 -0.442C2.8168 -0.482 2.8392 -0.5155 2.8675 -0.5425C2.8958 -0.5695 2.9292 -0.59 2.9675 -0.604C3.0058 -0.618 3.0473 -0.625 3.092 -0.625C3.1367 -0.625 3.1782 -0.618 3.2165 -0.604C3.2548 -0.59 3.2883 -0.5695 3.317 -0.5425C3.3457 -0.5155 3.3682 -0.482 3.3845 -0.442C3.4008 -0.402 3.409 -0.356 3.409 -0.304C3.409 -0.252 3.401 -0.2058 3.385 -0.1655C3.369 -0.1252 3.3468 -0.0915 3.3185 -0.0645C3.2902 -0.0375 3.2567 -0.017 3.218 -0.003C3.1793 0.011 3.1373 0.018 3.092 0.018C3.0467 0.018 3.0047 0.0108 2.966 -0.0035C2.9273 -0.0178 2.894 -0.0387 2.866 -0.066C2.838 -0.0933 2.816 -0.127 2.8 -0.167C2.784 -0.207 2.776 -0.2527 2.776 -0.304ZM2.956 -0.304C2.956 -0.2433 2.9683 -0.198 2.993 -0.168C3.0177 -0.138 3.0507 -0.123 3.092 -0.123C3.134 -0.123 3.1673 -0.138 3.192 -0.168C3.2167 -0.198 3.229 -0.2433 3.229 -0.304C3.229 -0.364 3.2168 -0.409 3.1925 -0.439C3.1682 -0.469 3.135 -0.484 3.093 -0.484C3.0517 -0.484 3.0185 -0.4692 2.9935 -0.4395C2.9685 -0.4098 2.956 -0.3647 2.956 -0.304ZM3.804 -0.308C3.804 -0.3287 3.7982 -0.3438 3.7865 -0.3535C3.7748 -0.3632 3.759 -0.368 3.739 -0.368C3.7257 -0.368 3.7125 -0.3663 3.6995 -0.363C3.6865 -0.3597 3.6753 -0.3547 3.666 -0.348L3.666 -0.001C3.6593 0.001 3.6488 0.003 3.6345 0.005C3.6202 0.007 3.6053 0.008 3.59 0.008C3.5753 0.008 3.5622 0.007 3.5505 0.005C3.5388 0.003 3.529 -0.001 3.521 -0.007C3.513 -0.013 3.5068 -0.0212 3.5025 -0.0315C3.4982 -0.0418 3.496 -0.0553 3.496 -0.072L3.496 -0.372C3.496 -0.39 3.4998 -0.4047 3.5075 -0.416C3.5152 -0.4273 3.5257 -0.4377 3.539 -0.447C3.5617 -0.463 3.5902 -0.476 3.6245 -0.486C3.6588 -0.496 3.697 -0.501 3.739 -0.501C3.8143 -0.501 3.8723 -0.4845 3.913 -0.4515C3.9537 -0.4185 3.974 -0.3727 3.974 -0.314L3.974 -0.001C3.9673 0.001 3.9568 0.003 3.9425 0.005C3.9282 0.007 3.9133 0.008 3.898 0.008C3.8833 0.008 3.8702 0.007 3.8585 0.005C3.8468 0.003 3.837 -0.001 3.829 -0.007C3.821 -0.013 3.8148 -0.0212 3.8105 -0.0315C3.8062 -0.0418 3.804 -0.0553 3.804 -0.072L3.8040000000000003 -0.308ZM4.252 -0.001C4.2447 0.0003 4.2338 0.0022 4.2195 0.0045C4.2052 0.0068 4.1907 0.008 4.176 0.008C4.1613 0.008 4.1482 0.007 4.1365 0.005C4.1248 0.003 4.115 -0.001 4.107 -0.007C4.099 -0.013 4.0928 -0.0212 4.0885 -0.0315C4.0842 -0.0418 4.082 -0.0553 4.082 -0.072L4.082 -0.652C4.0893 -0.6533 4.1002 -0.6552 4.1145 -0.6575C4.1288 -0.6598 4.1433 -0.661 4.158 -0.661C4.1727 -0.661 4.1858 -0.66 4.1975 -0.658C4.2092 -0.656 4.219 -0.652 4.227 -0.646C4.235 -0.64 4.2412 -0.6318 4.2455 -0.6215C4.2498 -0.6112 4.252 -0.5977 4.252 -0.581L4.252 -0.001ZM4.435 -0.124C4.4277 -0.1407 4.4198 -0.1593 4.4115 -0.18C4.4032 -0.2007 4.3945 -0.2243 4.3855 -0.251C4.3765 -0.2777 4.3672 -0.3082 4.3575 -0.3425C4.3478 -0.3768 4.3377 -0.4163 4.327 -0.461C4.3363 -0.4703 4.3488 -0.4785 4.3645 -0.4855C4.3802 -0.4925 4.3973 -0.496 4.416 -0.496C4.4393 -0.496 4.4587 -0.4912 4.474 -0.4815C4.4893 -0.4718 4.5007 -0.4537 4.508 -0.427L4.587 -0.152L4.591 -0.152C4.599 -0.1747 4.6068 -0.1993 4.6145 -0.226C4.6222 -0.2527 4.6297 -0.2802 4.637 -0.3085C4.6443 -0.3368 4.6512 -0.3652 4.6575 -0.3935C4.6638 -0.4218 4.6693 -0.4497 4.674 -0.477C4.698 -0.4897 4.7243 -0.496 4.753 -0.496C4.7763 -0.496 4.7957 -0.491 4.811 -0.481C4.8263 -0.471 4.834 -0.4537 4.834 -0.429C4.834 -0.411 4.8317 -0.3902 4.827 -0.3665C4.8223 -0.3428 4.8162 -0.3177 4.8085 -0.291C4.8008 -0.2643 4.7918 -0.2368 4.7815 -0.2085C4.7712 -0.1802 4.7603 -0.1523 4.749 -0.125C4.7377 -0.0977 4.726 -0.0718 4.714 -0.0475C4.702 -0.0232 4.6903 -0.0013 4.679 0.018C4.6603 0.0507 4.643 0.0773 4.627 0.098C4.611 0.1187 4.5957 0.1348 4.581 0.1465C4.5663 0.1582 4.5517 0.1662 4.537 0.1705C4.5223 0.1748 4.507 0.177 4.491 0.177C4.463 0.177 4.4403 0.1687 4.423 0.152C4.4057 0.1353 4.3953 0.1137 4.392 0.087C4.4133 0.0703 4.4347 0.0518 4.456 0.0315C4.4773 0.0112 4.4967 -0.0097 4.514 -0.031C4.5027 -0.0343 4.4905 -0.0422 4.4775 -0.0545C4.4645 -0.0668 4.4503 -0.09 4.435 -0.124Z" stroke="none" fill="#0000FF"/>
  <path d="M0.197 0.959C0.1677 0.949 0.141 0.9388 0.117 0.9285C0.093 0.9182 0.0723 0.9057 0.055 0.891C0.0377 0.8763 0.0242 0.8588 0.0145 0.8385C0.0048 0.8182 0 0.7933 0 0.764C0 0.7073 0.0218 0.662 0.0655 0.628C0.1092 0.594 0.1703 0.577 0.249 0.577C0.2777 0.577 0.3043 0.579 0.329 0.583C0.3537 0.587 0.3748 0.5932 0.3925 0.6015C0.4102 0.6098 0.424 0.6205 0.434 0.6335C0.444 0.6465 0.449 0.6617 0.449 0.679C0.449 0.6963 0.445 0.7112 0.437 0.7235C0.429 0.7358 0.4193 0.7463 0.408 0.755C0.3933 0.7457 0.3737 0.7375 0.349 0.7305C0.3243 0.7235 0.2973 0.72 0.268 0.72C0.238 0.72 0.216 0.7242 0.202 0.7325C0.188 0.7408 0.181 0.7513 0.181 0.764C0.181 0.774 0.1853 0.7822 0.194 0.7885C0.2027 0.7948 0.2157 0.8007 0.233 0.806L0.28600000000000003 0.823C0.3487 0.843 0.3968 0.8685 0.4305 0.8995C0.4642 0.9305 0.481 0.9727 0.481 1.026C0.481 1.0827 0.4587 1.1285 0.414 1.1635C0.3693 1.1985 0.3037 1.216 0.217 1.216C0.1863 1.216 0.1578 1.2135 0.1315 1.2085C0.1052 1.2035 0.0822 1.1962 0.0625 1.1865C0.0428 1.1768 0.0275 1.1648 0.0165 1.1505C0.0055 1.1362 0 1.1197 0 1.101C0 1.0817 0.0057 1.0652 0.017 1.0515C0.0283 1.0378 0.0407 1.0273 0.054 1.02C0.0727 1.0347 0.0955 1.0473 0.1225 1.058C0.1495 1.0687 0.179 1.074 0.211 1.074C0.2437 1.074 0.2667 1.069 0.28 1.059C0.2933 1.049 0.3 1.0373 0.3 1.024C0.3 1.0107 0.2947 1.0005 0.284 0.9935C0.2733 0.9865 0.2583 0.9797 0.239 0.973L0.197 0.959ZM0.733 1.033C0.733 1.0503 0.7385 1.0627 0.7495 1.07C0.7605 1.0773 0.776 1.081 0.796 1.081C0.806 1.081 0.8163 1.0802 0.827 1.0785C0.8377 1.0768 0.847 1.0747 0.855 1.072C0.861 1.0793 0.8662 1.0875 0.8705 1.0965C0.8748 1.1055 0.877 1.1163 0.877 1.129C0.877 1.1543 0.8675 1.175 0.8485 1.191C0.8295 1.207 0.796 1.215 0.748 1.215C0.6893 1.215 0.6442 1.2017 0.6125 1.175C0.5808 1.1483 0.565 1.105 0.565 1.045L0.5650000000000001 0.617C0.5723 0.615 0.5828 0.6128 0.5965 0.6105C0.6102 0.6082 0.6247 0.607 0.64 0.607C0.6693 0.607 0.6922 0.6122 0.7085 0.6225C0.7248 0.6328 0.733 0.6547 0.733 0.688L0.733 0.752L0.864 0.752C0.868 0.7593 0.8718 0.7685 0.8755 0.7795C0.8792 0.7905 0.881 0.8027 0.881 0.816C0.881 0.8393 0.8758 0.8562 0.8655 0.8665C0.8552 0.8768 0.8413 0.882 0.824 0.882L0.733 0.8819999999999999L0.733 1.033ZM1.133 1.199C1.1263 1.201 1.1158 1.203 1.1015 1.205C1.0872 1.207 1.0723 1.208 1.057 1.208C1.0423 1.208 1.0292 1.207 1.0175 1.205C1.0058 1.203 0.996 1.199 0.988 1.193C0.98 1.187 0.9738 1.1788 0.9695 1.1685C0.9652 1.1582 0.963 1.1447 0.963 1.128L0.963 0.828C0.963 0.8127 0.9658 0.7995 0.9715 0.7885C0.9772 0.7775 0.9853 0.7677 0.996 0.759C1.0067 0.7503 1.0198 0.7425 1.0355 0.7355C1.0512 0.7285 1.068 0.7223 1.086 0.717C1.104 0.7117 1.1227 0.7075 1.142 0.7045C1.1613 0.7015 1.1807 0.7 1.2 0.7C1.232 0.7 1.2573 0.7062 1.276 0.7185C1.2947 0.7308 1.304 0.751 1.304 0.779C1.304 0.7883 1.3027 0.7975 1.3 0.8065C1.2973 0.8155 1.294 0.8237 1.29 0.831C1.276 0.831 1.2617 0.8317 1.247 0.833C1.2323 0.8343 1.218 0.8363 1.204 0.839C1.19 0.8417 1.1768 0.8445 1.1645 0.8475C1.1522 0.8505 1.1417 0.854 1.133 0.858L1.133 1.199ZM1.877 0.957C1.877 0.9983 1.8707 1.0352 1.858 1.0675C1.8453 1.0998 1.8275 1.127 1.8045 1.149C1.7815 1.171 1.754 1.1877 1.722 1.199C1.69 1.2103 1.6543 1.216 1.615 1.216C1.5757 1.216 1.54 1.21 1.508 1.198C1.476 1.186 1.4485 1.1688 1.4255 1.1465C1.4025 1.1242 1.3847 1.097 1.372 1.065C1.3593 1.033 1.353 0.997 1.353 0.957C1.353 0.9177 1.3593 0.882 1.372 0.85C1.3847 0.818 1.4025 0.7908 1.4255 0.7685C1.4485 0.7462 1.476 0.729 1.508 0.717C1.54 0.705 1.5757 0.699 1.615 0.699C1.6543 0.699 1.69 0.7052 1.722 0.7175C1.754 0.7298 1.7815 0.7472 1.8045 0.7695C1.8275 0.7918 1.8453 0.819 1.858 0.851C1.8707 0.883 1.877 0.9183 1.877 0.957ZM1.527 0.957C1.527 0.9977 1.5348 1.0288 1.5505 1.0505C1.5662 1.0722 1.588 1.083 1.616 1.083C1.644 1.083 1.6655 1.072 1.6805 1.05C1.6955 1.028 1.703 0.997 1.703 0.957C1.703 0.917 1.6953 0.8862 1.68 0.8645C1.6647 0.8428 1.643 0.832 1.615 0.832C1.587 0.832 1.5653 0.8428 1.55 0.8645C1.5347 0.8862 1.527 0.917 1.527 0.957ZM2.435 1.112C2.4317 1.1433 2.4225 1.1673 2.4075 1.184C2.3925 1.2007 2.3707 1.209 2.342 1.209C2.3207 1.209 2.3017 1.2038 2.285 1.1935C2.2683 1.1832 2.2503 1.1657 2.231 1.141L2.132 1.017L2.132 1.199C2.1247 1.2003 2.1138 1.2022 2.0995 1.2045C2.0852 1.2068 2.0707 1.208 2.056 1.208C2.0413 1.208 2.0282 1.207 2.0165 1.205C2.0048 1.203 1.995 1.199 1.987 1.193C1.979 1.187 1.9728 1.1788 1.9685 1.1685C1.9642 1.1582 1.962 1.1447 1.962 1.128L1.962 0.5489999999999999C1.9693 0.547 1.9802 0.5448 1.9945 0.5425C2.0088 0.5402 2.0233 0.539 2.038 0.539C2.0527 0.539 2.0658 0.54 2.0775 0.542C2.0892 0.544 2.099 0.548 2.107 0.554C2.115 0.56 2.1212 0.5682 2.1255 0.5785C2.1298 0.5888 2.132 0.6023 2.132 0.619L2.132 0.883L2.3040000000000003 0.707C2.3387 0.707 2.3665 0.7147 2.3875 0.73C2.4085 0.7453 2.419 0.7647 2.419 0.788C2.419 0.798 2.4173 0.8072 2.414 0.8155C2.4107 0.8238 2.4055 0.8323 2.3985 0.841C2.3915 0.8497 2.3825 0.8588 2.3715 0.8685C2.3605 0.8782 2.3477 0.8893 2.333 0.902L2.275 0.952L2.435 1.1119999999999999ZM2.772 1.216C2.7327 1.216 2.6962 1.2105 2.6625 1.1995C2.6288 1.1885 2.5995 1.172 2.5745 1.15C2.5495 1.128 2.5298 1.1003 2.5155 1.067C2.5012 1.0337 2.494 0.9947 2.494 0.95C2.494 0.906 2.5012 0.8682 2.5155 0.8365C2.5298 0.8048 2.5487 0.7788 2.572 0.7585C2.5953 0.7382 2.622 0.7232 2.652 0.7135C2.682 0.7038 2.7127 0.699 2.744 0.699C2.7793 0.699 2.8115 0.7043 2.8405 0.715C2.8695 0.7257 2.8945 0.7403 2.9155 0.759C2.9365 0.7777 2.9528 0.8 2.9645 0.826C2.9762 0.852 2.982 0.8803 2.982 0.911C2.982 0.9337 2.9757 0.951 2.963 0.963C2.9503 0.975 2.9327 0.9827 2.91 0.986L2.6630000000000003 1.023C2.6703 1.045 2.6853 1.0615 2.708 1.0725C2.7307 1.0835 2.7567 1.089 2.786 1.089C2.8133 1.089 2.8392 1.0855 2.8635 1.0785C2.8878 1.0715 2.9077 1.0633 2.923 1.054C2.9337 1.0607 2.9427 1.07 2.95 1.082C2.9573 1.094 2.961 1.1067 2.961 1.12C2.961 1.15 2.947 1.1723 2.919 1.187C2.8977 1.1983 2.8737 1.206 2.847 1.21C2.8203 1.214 2.7953 1.216 2.772 1.216ZM2.744 0.823C2.728 0.823 2.7142 0.8257 2.7025 0.831C2.6908 0.8363 2.6813 0.8432 2.674 0.8515C2.6667 0.8598 2.6612 0.8692 2.6575 0.8795C2.6538 0.8898 2.6517 0.9003 2.651 0.911L2.822 0.883C2.82 0.8697 2.8127 0.8563 2.8 0.843C2.7873 0.8297 2.7687 0.823 2.744 0.823ZM3.043 0.957C3.043 0.913 3.0497 0.8748 3.063 0.8425C3.0763 0.8102 3.0948 0.7833 3.1185 0.762C3.1422 0.7407 3.1698 0.7248 3.2015 0.7145C3.2332 0.7042 3.2673 0.699 3.304 0.699C3.3173 0.699 3.3303 0.7002 3.343 0.7025C3.3557 0.7048 3.366 0.7077 3.374 0.711L3.374 0.5489999999999999C3.3807 0.547 3.3913 0.5448 3.406 0.5425C3.4207 0.5402 3.4357 0.539 3.451 0.539C3.4657 0.539 3.4788 0.54 3.4905 0.542C3.5022 0.544 3.512 0.548 3.52 0.554C3.528 0.56 3.534 0.5682 3.538 0.5785C3.542 0.5888 3.544 0.6023 3.544 0.619L3.544 1.093C3.544 1.1243 3.5293 1.1493 3.5 1.168C3.4807 1.1807 3.4557 1.1918 3.425 1.2015C3.3943 1.2112 3.359 1.216 3.319 1.216C3.2757 1.216 3.2368 1.21 3.2025 1.198C3.1682 1.186 3.1392 1.1687 3.1155 1.146C3.0918 1.1233 3.0738 1.0962 3.0615 1.0645C3.0492 1.0328 3.043 0.997 3.043 0.957ZM3.327 0.832C3.291 0.832 3.2633 0.8423 3.244 0.863C3.2247 0.8837 3.215 0.915 3.215 0.957C3.215 0.9983 3.224 1.0295 3.242 1.0505C3.26 1.0715 3.286 1.082 3.32 1.082C3.332 1.082 3.3428 1.0802 3.3525 1.0765C3.3622 1.0728 3.3697 1.0687 3.375 1.064L3.375 0.844C3.3617 0.836 3.3457 0.832 3.327 0.832ZM3.931 0.896C3.931 0.844 3.9392 0.798 3.9555 0.758C3.9718 0.718 3.9942 0.6845 4.0225 0.6575C4.0508 0.6305 4.0842 0.61 4.1225 0.596C4.1608 0.582 4.2023 0.575 4.247 0.575C4.2917 0.575 4.3332 0.582 4.3715 0.596C4.4098 0.61 4.4433 0.6305 4.472 0.6575C4.5007 0.6845 4.5232 0.718 4.5395 0.758C4.5558 0.798 4.564 0.844 4.564 0.896C4.564 0.948 4.556 0.9942 4.54 1.0345C4.524 1.0748 4.5018 1.1085 4.4735 1.1355C4.4452 1.1625 4.4117 1.183 4.373 1.197C4.3343 1.211 4.2923 1.218 4.247 1.218C4.2017 1.218 4.1597 1.2108 4.121 1.1965C4.0823 1.1822 4.049 1.1613 4.021 1.134C3.993 1.1067 3.971 1.073 3.955 1.033C3.939 0.993 3.931 0.9473 3.931 0.896ZM4.111 0.896C4.111 0.9567 4.1233 1.002 4.148 1.032C4.1727 1.062 4.2057 1.077 4.247 1.077C4.289 1.077 4.3223 1.062 4.347 1.032C4.3717 1.002 4.384 0.9567 4.384 0.896C4.384 0.836 4.3718 0.791 4.3475 0.761C4.3232 0.731 4.29 0.716 4.248 0.716C4.2067 0.716 4.1735 0.7308 4.1485 0.7605C4.1235 0.7902 4.111 0.8353 4.111 0.896ZM4.959 0.892C4.959 0.8713 4.9532 0.8562 4.9415 0.8465C4.9298 0.8368 4.914 0.832 4.894 0.832C4.8807 0.832 4.8675 0.8337 4.8545 0.837C4.8415 0.8403 4.8303 0.8453 4.821 0.852L4.821 1.199C4.8143 1.201 4.8038 1.203 4.7895 1.205C4.7752 1.207 4.7603 1.208 4.745 1.208C4.7303 1.208 4.7172 1.207 4.7055 1.205C4.6938 1.203 4.684 1.199 4.676 1.193C4.668 1.187 4.6618 1.1788 4.6575 1.1685C4.6532 1.1582 4.651 1.1447 4.651 1.128L4.651 0.828C4.651 0.81 4.6548 0.7953 4.6625 0.784C4.6702 0.7727 4.6807 0.7623 4.694 0.753C4.7167 0.737 4.7452 0.724 4.7795 0.714C4.8138 0.704 4.852 0.699 4.894 0.699C4.9693 0.699 5.0273 0.7155 5.068 0.7485C5.1087 0.7815 5.129 0.8273 5.129 0.886L5.1290000000000004 1.199C5.1223 1.201 5.1118 1.203 5.0975 1.205C5.0832 1.207 5.0683 1.208 5.053 1.208C5.0383 1.208 5.0252 1.207 5.0135 1.205C5.0018 1.203 4.992 1.199 4.984 1.193C4.976 1.187 4.9698 1.1788 4.9655 1.1685C4.9612 1.1582 4.959 1.1447 4.959 1.128L4.9590000000000005 0.8919999999999999ZM5.407 1.199C5.3997 1.2003 5.3888 1.2022 5.3745 1.2045C5.3602 1.2068 5.3457 1.208 5.331 1.208C5.3163 1.208 5.3032 1.207 5.2915 1.205C5.2798 1.203 5.27 1.199 5.262 1.193C5.254 1.187 5.2478 1.1788 5.2435 1.1685C5.2392 1.1582 5.237 1.1447 5.237 1.128L5.237 0.5479999999999999C5.2443 0.5467 5.2552 0.5448 5.2695 0.5425C5.2838 0.5402 5.2983 0.539 5.313 0.539C5.3277 0.539 5.3408 0.54 5.3525 0.542C5.3642 0.544 5.374 0.548 5.382 0.554C5.39 0.56 5.3962 0.5682 5.4005 0.5785C5.4048 0.5888 5.407 0.6023 5.407 0.619L5.407 1.199ZM5.59 1.076C5.5827 1.0593 5.5748 1.0407 5.5665 1.02C5.5582 0.9993 5.5495 0.9757 5.5405 0.949C5.5315 0.9223 5.5222 0.8918 5.5125 0.8575C5.5028 0.8232 5.4927 0.7837 5.482 0.739C5.4913 0.7297 5.5038 0.7215 5.5195 0.7145C5.5352 0.7075 5.5523 0.704 5.571 0.704C5.5943 0.704 5.6137 0.7088 5.629 0.7185C5.6443 0.7282 5.6557 0.7463 5.663 0.773L5.742 1.048L5.746 1.048C5.754 1.0253 5.7618 1.0007 5.7695 0.974C5.7772 0.9473 5.7847 0.9198 5.792 0.8915C5.7993 0.8632 5.8062 0.8348 5.8125 0.8065C5.8188 0.7782 5.8243 0.7503 5.829 0.723C5.853 0.7103 5.8793 0.704 5.908 0.704C5.9313 0.704 5.9507 0.709 5.966 0.719C5.9813 0.729 5.989 0.7463 5.989 0.771C5.989 0.789 5.9867 0.8098 5.982 0.8335C5.9773 0.8572 5.9712 0.8823 5.9635 0.909C5.9558 0.9357 5.9468 0.9632 5.9365 0.9915C5.9262 1.0198 5.9153 1.0477 5.904 1.075C5.8927 1.1023 5.881 1.1282 5.869 1.1525C5.857 1.1768 5.8453 1.1987 5.834 1.218C5.8153 1.2507 5.798 1.2773 5.782 1.298C5.766 1.3187 5.7507 1.3348 5.736 1.3465C5.7213 1.3582 5.7067 1.3662 5.692 1.3705C5.6773 1.3748 5.662 1.377 5.646 1.377C5.618 1.377 5.5953 1.3687 5.578 1.352C5.5607 1.3353 5.5503 1.3137 5.547 1.287C5.5683 1.2703 5.5897 1.2518 5.611 1.2315C5.6323 1.2112 5.6517 1.1903 5.669 1.169C5.6577 1.1657 5.6455 1.1578 5.6325 1.1455C5.6195 1.1332 5.6053 1.11 5.59 1.076Z" stroke="#FF0000" stroke-width="0.05" fill="none"/>
  <path d="M0.235 2.416C0.2237 2.416 0.2103 2.4157 0.195 2.415C0.1797 2.4143 0.1638 2.413 0.1475 2.411C0.1312 2.409 0.115 2.4065 0.099 2.4035C0.083 2.4005 0.0683 2.3963 0.055 2.391C0.0183 2.377 0 2.3527 0 2.318L0 1.851C0 1.837 0.0038 1.8262 0.0115 1.8185C0.0192 1.8108 0.0297 1.8047 0.043 1.8C0.0657 1.792 0.094 1.7862 0.128 1.7825C0.162 1.7788 0.197 1.777 0.233 1.777C0.3183 1.777 0.384 1.7913 0.43 1.82C0.476 1.8487 0.499 1.893 0.499 1.953C0.499 1.983 0.4903 2.0088 0.473 2.0305C0.4557 2.0522 0.4323 2.068 0.403 2.078C0.4363 2.0873 0.4642 2.1043 0.4865 2.129C0.5088 2.1537 0.52 2.1847 0.52 2.222C0.52 2.288 0.4955 2.3368 0.4465 2.3685C0.3975 2.4002 0.327 2.416 0.235 2.416ZM0.17 2.275C0.1793 2.2777 0.1913 2.2795 0.206 2.2805C0.2207 2.2815 0.2347 2.282 0.248 2.282C0.2747 2.282 0.2968 2.2765 0.3145 2.2655C0.3322 2.2545 0.341 2.2373 0.341 2.214C0.341 2.192 0.3337 2.1763 0.319 2.167C0.3043 2.1577 0.282 2.153 0.252 2.153L0.17 2.153L0.17 2.275ZM0.17 2.031L0.243 2.0309999999999997C0.2717 2.031 0.2925 2.0257 0.3055 2.015C0.3185 2.0043 0.325 1.9887 0.325 1.968C0.325 1.95 0.3175 1.9357 0.3025 1.925C0.2875 1.9143 0.265 1.909 0.235 1.909C0.225 1.909 0.2135 1.9093 0.2005 1.91C0.1875 1.9107 0.1773 1.9117 0.17 1.913L0.17 2.0309999999999997ZM1.109 2.157C1.109 2.1983 1.1027 2.2352 1.09 2.2675C1.0773 2.2998 1.0595 2.327 1.0365 2.349C1.0135 2.371 0.986 2.3877 0.954 2.399C0.922 2.4103 0.8863 2.416 0.847 2.416C0.8077 2.416 0.772 2.41 0.74 2.398C0.708 2.386 0.6805 2.3688 0.6575 2.3465C0.6345 2.3242 0.6167 2.297 0.604 2.265C0.5913 2.233 0.585 2.197 0.585 2.157C0.585 2.1177 0.5913 2.082 0.604 2.05C0.6167 2.018 0.6345 1.9908 0.6575 1.9685C0.6805 1.9462 0.708 1.929 0.74 1.917C0.772 1.905 0.8077 1.899 0.847 1.899C0.8863 1.899 0.922 1.9052 0.954 1.9175C0.986 1.9298 1.0135 1.9472 1.0365 1.9695C1.0595 1.9918 1.0773 2.019 1.09 2.051C1.1027 2.083 1.109 2.1183 1.109 2.157ZM0.759 2.157C0.759 2.1977 0.7668 2.2288 0.7825 2.2505C0.7982 2.2722 0.82 2.283 0.848 2.283C0.876 2.283 0.8975 2.272 0.9125 2.25C0.9275 2.228 0.935 2.197 0.935 2.157C0.935 2.117 0.9273 2.0862 0.912 2.0645C0.8967 2.0428 0.875 2.032 0.847 2.032C0.819 2.032 0.7973 2.0428 0.782 2.0645C0.7667 2.0862 0.759 2.117 0.759 2.157ZM1.362 2.233C1.362 2.2503 1.3675 2.2627 1.3785 2.27C1.3895 2.2773 1.405 2.281 1.425 2.281C1.435 2.281 1.4453 2.2802 1.456 2.2785C1.4667 2.2768 1.476 2.2747 1.484 2.272C1.49 2.2793 1.4952 2.2875 1.4995 2.2965C1.5038 2.3055 1.506 2.3163 1.506 2.329C1.506 2.3543 1.4965 2.375 1.4775 2.391C1.4585 2.407 1.425 2.415 1.377 2.415C1.3183 2.415 1.2732 2.4017 1.2415 2.375C1.2098 2.3483 1.194 2.305 1.194 2.245L1.194 1.817C1.2013 1.815 1.2118 1.8128 1.2255 1.8105C1.2392 1.8082 1.2537 1.807 1.269 1.807C1.2983 1.807 1.3212 1.8122 1.3375 1.8225C1.3538 1.8328 1.362 1.8547 1.362 1.888L1.362 1.952L1.493 1.952C1.497 1.9593 1.5008 1.9685 1.5045 1.9795C1.5082 1.9905 1.51 2.0027 1.51 2.016C1.51 2.0393 1.5048 2.0562 1.4945 2.0665C1.4842 2.0768 1.4703 2.082 1.453 2.082L1.362 2.082L1.362 2.233ZM2.072 2.399C2.0653 2.401 2.0548 2.403 2.0405 2.405C2.0262 2.407 2.0113 2.408 1.996 2.408C1.9813 2.408 1.9682 2.407 1.9565 2.405C1.9448 2.403 1.935 2.399 1.927 2.393C1.919 2.387 1.9128 2.3788 1.9085 2.3685C1.9042 2.3582 1.902 2.3447 1.902 2.328L1.9020000000000001 2.106C1.902 2.0787 1.8952 2.0595 1.8815 2.0485C1.8678 2.0375 1.851 2.032 1.831 2.032C1.8177 2.032 1.805 2.0337 1.793 2.037C1.781 2.0403 1.7713 2.0443 1.764 2.049L1.764 2.399C1.7573 2.401 1.7468 2.403 1.7325 2.405C1.7182 2.407 1.7033 2.408 1.688 2.408C1.6733 2.408 1.6602 2.407 1.6485 2.405C1.6368 2.403 1.627 2.399 1.619 2.393C1.611 2.387 1.6048 2.3788 1.6005 2.3685C1.5962 2.3582 1.594 2.3447 1.594 2.328L1.594 1.7479999999999998C1.6013 1.7467 1.6122 1.7448 1.6265 1.7425C1.6408 1.7402 1.6553 1.739 1.67 1.739C1.6847 1.739 1.6978 1.74 1.7095 1.742C1.7212 1.744 1.731 1.748 1.739 1.754C1.747 1.76 1.7532 1.7682 1.7575 1.7785C1.7618 1.7888 1.764 1.8023 1.764 1.819L1.764 1.9169999999999998C1.7727 1.9137 1.7858 1.9098 1.8035 1.9055C1.8212 1.9012 1.8407 1.899 1.862 1.899C1.928 1.899 1.9795 1.9155 2.0165 1.9485C2.0535 1.9815 2.072 2.0307 2.072 2.096L2.072 2.399Z" stroke="#000000" stroke-width="0.02" fill="#00FF00"/>
  <path d="M-0.1 -0.811L6.0889999999999995 -0.8109999999999999L6.0889999999999995 2.516L-0.1 2.516Z" stroke="none" fill="none"/>
</svg>
