<svg xmlns="http://www.w3.org/2000/svg" viewBox="-0.1 -0.81 6.19 3.33">
  <path d="M-0.1 -0.81L6.0889999999999995 -0.8109999999999999L6.0889999999999995 2.516L-0.1 2.516Z" stroke="none" fill="#FFFFFF"/>
  <path d="M0.43 -0.61C0.43 -0.6 0.43 -0.59 0.44 -0.58C0.44 -0.56 0.44 -0.55 0.44 -0.54C0.44 -0.51 0.44 -0.49 0.43 -0.48C0.42 -0.47 0.4 -0.47 0.38 -0.47L0.17300000000000001 -0.466L0.17300000000000001 -0.353L0.392 -0.353C0.4 -0.35 0.4 -0.34 0.41 -0.32C0.41 -0.31 0.41 -0.3 0.41 -0.29C0.41 -0.26 0.41 -0.24 0.39 -0.23C0.38 -0.22 0.37 -0.21 0.35 -0.21L0.17500000000000002 -0.215L0.17500000000000002 -0.004C0.17 0 0.16 0 0.14 0C0.12 0 0.11 0.01 0.09 0.01C0.08 0.01 0.07 0 0.05 0C0.04 0 0.03 0 0.02 -0.01C0.02 -0.02 0.01 -0.03 0.01 -0.04C0 -0.05 0 -0.06 0 -0.08L0 -0.513C0 -0.54 0.01 -0.56 0.03 -0.58C0.04 -0.6 0.06 -0.61 0.09 -0.61L0.426 -0.606ZM0.69 0C0.68 0 0.67 0 0.66 0C0.65 0.01 0.63 0.01 0.62 0.01C0.6 0.01 0.59 0.01 0.58 0.01C0.56 0 0.56 0 0.55 -0.01C0.54 -0.01 0.53 -0.02 0.53 -0.03C0.52 -0.04 0.52 -0.06 0.52 -0.07L0.522 -0.47900000000000004C0.53 -0.48 0.54 -0.48 0.55 -0.48C0.57 -0.49 0.58 -0.49 0.6 -0.49C0.61 -0.49 0.63 -0.49 0.64 -0.48C0.65 -0.48 0.66 -0.48 0.67 -0.47C0.68 -0.47 0.68 -0.46 0.69 -0.45C0.69 -0.44 0.69 -0.42 0.69 -0.41L0.6920000000000001 -0.001ZM0.51 -0.62C0.51 -0.65 0.52 -0.67 0.54 -0.68C0.56 -0.7 0.58 -0.71 0.61 -0.71C0.64 -0.71 0.66 -0.7 0.67 -0.68C0.69 -0.67 0.7 -0.65 0.7 -0.62C0.7 -0.6 0.69 -0.57 0.67 -0.56C0.66 -0.54 0.64 -0.53 0.61 -0.53C0.58 -0.53 0.56 -0.54 0.54 -0.56C0.52 -0.57 0.51 -0.6 0.51 -0.62ZM0.97 0C0.97 0 0.95 0 0.94 0C0.93 0.01 0.91 0.01 0.9 0.01C0.88 0.01 0.87 0.01 0.86 0.01C0.85 0 0.84 0 0.83 -0.01C0.82 -0.01 0.81 -0.02 0.81 -0.03C0.81 -0.04 0.8 -0.06 0.8 -0.07L0.803 -0.652C0.81 -0.65 0.82 -0.66 0.84 -0.66C0.85 -0.66 0.86 -0.66 0.88 -0.66C0.89 -0.66 0.91 -0.66 0.92 -0.66C0.93 -0.66 0.94 -0.65 0.95 -0.65C0.96 -0.64 0.96 -0.63 0.97 -0.62C0.97 -0.61 0.97 -0.6 0.97 -0.58L0.973 -0.001ZM1.25 0C1.25 0 1.23 0 1.22 0C1.21 0.01 1.19 0.01 1.18 0.01C1.16 0.01 1.15 0.01 1.14 0.01C1.13 0 1.12 0 1.11 -0.01C1.1 -0.01 1.09 -0.02 1.09 -0.03C1.09 -0.04 1.08 -0.06 1.08 -0.07L1.083 -0.652C1.09 -0.65 1.1 -0.66 1.12 -0.66C1.13 -0.66 1.14 -0.66 1.16 -0.66C1.17 -0.66 1.19 -0.66 1.2 -0.66C1.21 -0.66 1.22 -0.65 1.23 -0.65C1.24 -0.64 1.24 -0.63 1.25 -0.62C1.25 -0.61 1.25 -0.6 1.25 -0.58L1.2530000000000001 -0.001ZM1.62 0.02C1.58 0.02 1.54 0.01 1.51 0C1.47 -0.01 1.44 -0.03 1.42 -0.05C1.39 -0.07 1.37 -0.1 1.36 -0.13C1.35 -0.17 1.34 -0.21 1.34 -0.25C1.34 -0.29 1.35 -0.33 1.36 -0.36C1.37 -0.4 1.39 -0.42 1.42 -0.44C1.44 -0.46 1.47 -0.48 1.5 -0.49C1.53 -0.5 1.56 -0.5 1.59 -0.5C1.62 -0.5 1.66 -0.5 1.69 -0.48C1.71 -0.47 1.74 -0.46 1.76 -0.44C1.78 -0.42 1.8 -0.4 1.81 -0.37C1.82 -0.35 1.83 -0.32 1.83 -0.29C1.83 -0.27 1.82 -0.25 1.81 -0.24C1.8 -0.22 1.78 -0.22 1.76 -0.21L1.508 -0.177C1.52 -0.15 1.53 -0.14 1.55 -0.13C1.58 -0.12 1.6 -0.11 1.63 -0.11C1.66 -0.11 1.68 -0.11 1.71 -0.12C1.73 -0.13 1.75 -0.14 1.77 -0.15C1.78 -0.14 1.79 -0.13 1.8 -0.12C1.8 -0.11 1.81 -0.09 1.81 -0.08C1.81 -0.05 1.79 -0.03 1.76 -0.01C1.74 0 1.72 0.01 1.69 0.01C1.67 0.01 1.64 0.02 1.62 0.02ZM1.59 -0.38C1.57 -0.38 1.56 -0.37 1.55 -0.37C1.54 -0.36 1.53 -0.36 1.52 -0.35C1.51 -0.34 1.51 -0.33 1.5 -0.32C1.5 -0.31 1.5 -0.3 1.5 -0.29L1.667 -0.317C1.67 -0.33 1.66 -0.34 1.65 -0.36C1.63 -0.37 1.61 -0.38 1.59 -0.38ZM1.89 -0.24C1.89 -0.29 1.89 -0.33 1.91 -0.36C1.92 -0.39 1.94 -0.42 1.96 -0.44C1.99 -0.46 2.01 -0.48 2.05 -0.49C2.08 -0.5 2.11 -0.5 2.15 -0.5C2.16 -0.5 2.18 -0.5 2.19 -0.5C2.2 -0.5 2.21 -0.49 2.22 -0.49L2.219 -0.651C2.23 -0.65 2.24 -0.66 2.25 -0.66C2.27 -0.66 2.28 -0.66 2.3 -0.66C2.31 -0.66 2.32 -0.66 2.34 -0.66C2.35 -0.66 2.36 -0.65 2.37 -0.65C2.37 -0.64 2.38 -0.63 2.38 -0.62C2.39 -0.61 2.39 -0.6 2.39 -0.58L2.3890000000000002 -0.107C2.39 -0.08 2.37 -0.05 2.35 -0.03C2.33 -0.02 2.3 -0.01 2.27 0C2.24 0.01 2.2 0.02 2.16 0.02C2.12 0.02 2.08 0.01 2.05 0C2.01 -0.01 1.98 -0.03 1.96 -0.05C1.94 -0.08 1.92 -0.1 1.91 -0.14C1.89 -0.17 1.89 -0.2 1.89 -0.24ZM2.17 -0.37C2.14 -0.37 2.11 -0.36 2.09 -0.34C2.07 -0.32 2.06 -0.28 2.06 -0.24C2.06 -0.2 2.07 -0.17 2.09 -0.15C2.11 -0.13 2.13 -0.12 2.17 -0.12C2.18 -0.12 2.19 -0.12 2.2 -0.12C2.21 -0.13 2.21 -0.13 2.22 -0.14L2.22 -0.356C2.21 -0.36 2.19 -0.37 2.17 -0.37ZM2.78 -0.3C2.78 -0.36 2.78 -0.4 2.8 -0.44C2.82 -0.48 2.84 -0.52 2.87 -0.54C2.9 -0.57 2.93 -0.59 2.97 -0.6C3.01 -0.62 3.05 -0.62 3.09 -0.62C3.14 -0.62 3.18 -0.62 3.22 -0.6C3.25 -0.59 3.29 -0.57 3.32 -0.54C3.35 -0.52 3.37 -0.48 3.38 -0.44C3.4 -0.4 3.41 -0.36 3.41 -0.3C3.41 -0.25 3.4 -0.21 3.39 -0.17C3.37 -0.13 3.35 -0.09 3.32 -0.06C3.29 -0.04 3.26 -0.02 3.22 0C3.18 0.01 3.14 0.02 3.09 0.02C3.05 0.02 3 0.01 2.97 0C2.93 -0.02 2.89 -0.04 2.87 -0.07C2.84 -0.09 2.82 -0.13 2.8 -0.17C2.78 -0.21 2.78 -0.25 2.78 -0.3ZM2.96 -0.3C2.96 -0.24 2.97 -0.2 2.99 -0.17C3.02 -0.14 3.05 -0.12 3.09 -0.12C3.13 -0.12 3.17 -0.14 3.19 -0.17C3.22 -0.2 3.23 -0.24 3.23 -0.3C3.23 -0.36 3.22 -0.41 3.19 -0.44C3.17 -0.47 3.14 -0.48 3.09 -0.48C3.05 -0.48 3.02 -0.47 2.99 -0.44C2.97 -0.41 2.96 -0.36 2.96 -0.3ZM3.8 -0.31C3.8 -0.33 3.8 -0.34 3.79 -0.35C3.77 -0.36 3.76 -0.37 3.74 -0.37C3.73 -0.37 3.71 -0.37 3.7 -0.36C3.69 -0.36 3.68 -0.35 3.67 -0.35L3.666 -0.001C3.66 0 3.65 0 3.63 0.01C3.62 0.01 3.61 0.01 3.59 0.01C3.58 0.01 3.56 0.01 3.55 0.01C3.54 0 3.53 0 3.52 -0.01C3.51 -0.01 3.51 -0.02 3.5 -0.03C3.5 -0.04 3.5 -0.06 3.5 -0.07L3.496 -0.372C3.5 -0.39 3.5 -0.4 3.51 -0.42C3.52 -0.43 3.53 -0.44 3.54 -0.45C3.56 -0.46 3.59 -0.48 3.62 -0.49C3.66 -0.5 3.7 -0.5 3.74 -0.5C3.81 -0.5 3.87 -0.48 3.91 -0.45C3.95 -0.42 3.97 -0.37 3.97 -0.31L3.974 -0.001C3.97 0 3.96 0 3.94 0.01C3.93 0.01 3.91 0.01 3.9 0.01C3.88 0.01 3.87 0.01 3.86 0.01C3.85 0 3.84 0 3.83 -0.01C3.82 -0.01 3.81 -0.02 3.81 -0.03C3.81 -0.04 3.8 -0.06 3.8 -0.07L3.8040000000000003 -0.308ZM4.25 0C4.24 0 4.23 0 4.22 0C4.21 0.01 4.19 0.01 4.18 0.01C4.16 0.01 4.15 0.01 4.14 0.01C4.12 0 4.12 0 4.11 -0.01C4.1 -0.01 4.09 -0.02 4.09 -0.03C4.08 -0.04 4.08 -0.06 4.08 -0.07L4.082 -0.652C4.09 -0.65 4.1 -0.66 4.11 -0.66C4.13 -0.66 4.14 -0.66 4.16 -0.66C4.17 -0.66 4.19 -0.66 4.2 -0.66C4.21 -0.66 4.22 -0.65 4.23 -0.65C4.24 -0.64 4.24 -0.63 4.25 -0.62C4.25 -0.61 4.25 -0.6 4.25 -0.58L4.252 -0.001ZM4.44 -0.12C4.43 -0.14 4.42 -0.16 4.41 -0.18C4.4 -0.2 4.39 -0.22 4.39 -0.25C4.38 -0.28 4.37 -0.31 4.36 -0.34C4.35 -0.38 4.34 -0.42 4.33 -0.46C4.34 -0.47 4.35 -0.48 4.36 -0.49C4.38 -0.49 4.4 -0.5 4.42 -0.5C4.44 -0.5 4.46 -0.49 4.47 -0.48C4.49 -0.47 4.5 -0.45 4.51 -0.43L4.587 -0.152L4.591 -0.152C4.6 -0.17 4.61 -0.2 4.61 -0.23C4.62 -0.25 4.63 -0.28 4.64 -0.31C4.64 -0.34 4.65 -0.37 4.66 -0.39C4.66 -0.42 4.67 -0.45 4.67 -0.48C4.7 -0.49 4.72 -0.5 4.75 -0.5C4.78 -0.5 4.8 -0.49 4.81 -0.48C4.83 -0.47 4.83 -0.45 4.83 -0.43C4.83 -0.41 4.83 -0.39 4.83 -0.37C4.82 -0.34 4.82 -0.32 4.81 -0.29C4.8 -0.26 4.79 -0.24 4.78 -0.21C4.77 -0.18 4.76 -0.15 4.75 -0.12C4.74 -0.1 4.73 -0.07 4.71 -0.05C4.7 -0.02 4.69 0 4.68 0.02C4.66 0.05 4.64 0.08 4.63 0.1C4.61 0.12 4.6 0.13 4.58 0.15C4.57 0.16 4.55 0.17 4.54 0.17C4.52 0.17 4.51 0.18 4.49 0.18C4.46 0.18 4.44 0.17 4.42 0.15C4.41 0.14 4.4 0.11 4.39 0.09C4.41 0.07 4.43 0.05 4.46 0.03C4.48 0.01 4.5 -0.01 4.51 -0.03C4.5 -0.03 4.49 -0.04 4.48 -0.05C4.46 -0.07 4.45 -0.09 4.44 -0.12Z" stroke="none" fill="#0000FF"/>
  <path d="M0.2 0.96C0.17 0.95 0.14 0.94 0.12 0.93C0.09 0.92 0.07 0.91 0.06 0.89C0.04 0.88 0.02 0.86 0.01 0.84C0 0.82 0 0.79 0 0.76C0 0.71 0.02 0.66 0.07 0.63C0.11 0.59 0.17 0.58 0.25 0.58C0.28 0.58 0.3 0.58 0.33 0.58C0.35 0.59 0.37 0.59 0.39 0.6C0.41 0.61 0.42 0.62 0.43 0.63C0.44 0.65 0.45 0.66 0.45 0.68C0.45 0.7 0.45 0.71 0.44 0.72C0.43 0.74 0.42 0.75 0.41 0.75C0.39 0.75 0.37 0.74 0.35 0.73C0.32 0.72 0.3 0.72 0.27 0.72C0.24 0.72 0.22 0.72 0.2 0.73C0.19 0.74 0.18 0.75 0.18 0.76C0.18 0.77 0.19 0.78 0.19 0.79C0.2 0.79 0.22 0.8 0.23 0.81L0.28600000000000003 0.823C0.35 0.84 0.4 0.87 0.43 0.9C0.46 0.93 0.48 0.97 0.48 1.03C0.48 1.08 0.46 1.13 0.41 1.16C0.37 1.2 0.3 1.22 0.22 1.22C0.19 1.22 0.16 1.21 0.13 1.21C0.11 1.2 0.08 1.2 0.06 1.19C0.04 1.18 0.03 1.16 0.02 1.15C0.01 1.14 0 1.12 0 1.1C0 1.08 0.01 1.07 0.02 1.05C0.03 1.04 0.04 1.03 0.05 1.02C0.07 1.03 0.1 1.05 0.12 1.06C0.15 1.07 0.18 1.07 0.21 1.07C0.24 1.07 0.27 1.07 0.28 1.06C0.29 1.05 0.3 1.04 0.3 1.02C0.3 1.01 0.29 1 0.28 0.99C0.27 0.99 0.26 0.98 0.24 0.97L0.197 0.959ZM0.73 1.03C0.73 1.05 0.74 1.06 0.75 1.07C0.76 1.08 0.78 1.08 0.8 1.08C0.81 1.08 0.82 1.08 0.83 1.08C0.84 1.08 0.85 1.07 0.86 1.07C0.86 1.08 0.87 1.09 0.87 1.1C0.87 1.11 0.88 1.12 0.88 1.13C0.88 1.15 0.87 1.18 0.85 1.19C0.83 1.21 0.8 1.21 0.75 1.21C0.69 1.21 0.64 1.2 0.61 1.18C0.58 1.15 0.57 1.11 0.57 1.05L0.5650000000000001 0.617C0.57 0.62 0.58 0.61 0.6 0.61C0.61 0.61 0.62 0.61 0.64 0.61C0.67 0.61 0.69 0.61 0.71 0.62C0.72 0.63 0.73 0.65 0.73 0.69L0.733 0.752L0.864 0.752C0.87 0.76 0.87 0.77 0.88 0.78C0.88 0.79 0.88 0.8 0.88 0.82C0.88 0.84 0.88 0.86 0.87 0.87C0.86 0.88 0.84 0.88 0.82 0.88L0.733 0.8819999999999999L0.733 1.033ZM1.13 1.2C1.13 1.2 1.12 1.2 1.1 1.2C1.09 1.21 1.07 1.21 1.06 1.21C1.04 1.21 1.03 1.21 1.02 1.2C1.01 1.2 1 1.2 0.99 1.19C0.98 1.19 0.97 1.18 0.97 1.17C0.97 1.16 0.96 1.14 0.96 1.13L0.963 0.828C0.96 0.81 0.97 0.8 0.97 0.79C0.98 0.78 0.99 0.77 1 0.76C1.01 0.75 1.02 0.74 1.04 0.74C1.05 0.73 1.07 0.72 1.09 0.72C1.1 0.71 1.12 0.71 1.14 0.7C1.16 0.7 1.18 0.7 1.2 0.7C1.23 0.7 1.26 0.71 1.28 0.72C1.29 0.73 1.3 0.75 1.3 0.78C1.3 0.79 1.3 0.8 1.3 0.81C1.3 0.82 1.29 0.82 1.29 0.83C1.28 0.83 1.26 0.83 1.25 0.83C1.23 0.83 1.22 0.84 1.2 0.84C1.19 0.84 1.18 0.84 1.16 0.85C1.15 0.85 1.14 0.85 1.13 0.86L1.133 1.199ZM1.88 0.96C1.88 1 1.87 1.04 1.86 1.07C1.85 1.1 1.83 1.13 1.8 1.15C1.78 1.17 1.75 1.19 1.72 1.2C1.69 1.21 1.65 1.22 1.62 1.22C1.58 1.22 1.54 1.21 1.51 1.2C1.48 1.19 1.45 1.17 1.43 1.15C1.4 1.12 1.38 1.1 1.37 1.07C1.36 1.03 1.35 1 1.35 0.96C1.35 0.92 1.36 0.88 1.37 0.85C1.38 0.82 1.4 0.79 1.43 0.77C1.45 0.75 1.48 0.73 1.51 0.72C1.54 0.71 1.58 0.7 1.62 0.7C1.65 0.7 1.69 0.71 1.72 0.72C1.75 0.73 1.78 0.75 1.8 0.77C1.83 0.79 1.85 0.82 1.86 0.85C1.87 0.88 1.88 0.92 1.88 0.96ZM1.53 0.96C1.53 1 1.53 1.03 1.55 1.05C1.57 1.07 1.59 1.08 1.62 1.08C1.64 1.08 1.67 1.07 1.68 1.05C1.7 1.03 1.7 1 1.7 0.96C1.7 0.92 1.7 0.89 1.68 0.86C1.66 0.84 1.64 0.83 1.62 0.83C1.59 0.83 1.57 0.84 1.55 0.86C1.53 0.89 1.53 0.92 1.53 0.96ZM2.44 1.11C2.43 1.14 2.42 1.17 2.41 1.18C2.39 1.2 2.37 1.21 2.34 1.21C2.32 1.21 2.3 1.2 2.29 1.19C2.27 1.18 2.25 1.17 2.23 1.14L2.132 1.017L2.132 1.199C2.12 1.2 2.11 1.2 2.1 1.2C2.09 1.21 2.07 1.21 2.06 1.21C2.04 1.21 2.03 1.21 2.02 1.2C2 1.2 2 1.2 1.99 1.19C1.98 1.19 1.97 1.18 1.97 1.17C1.96 1.16 1.96 1.14 1.96 1.13L1.962 0.5489999999999999C1.97 0.55 1.98 0.54 1.99 0.54C2.01 0.54 2.02 0.54 2.04 0.54C2.05 0.54 2.07 0.54 2.08 0.54C2.09 0.54 2.1 0.55 2.11 0.55C2.12 0.56 2.12 0.57 2.13 0.58C2.13 0.59 2.13 0.6 2.13 0.62L2.132 0.883L2.3040000000000003 0.707C2.34 0.71 2.37 0.71 2.39 0.73C2.41 0.75 2.42 0.76 2.42 0.79C2.42 0.8 2.42 0.81 2.41 0.82C2.41 0.82 2.41 0.83 2.4 0.84C2.39 0.85 2.38 0.86 2.37 0.87C2.36 0.88 2.35 0.89 2.33 0.9L2.275 0.952L2.435 1.1119999999999999ZM2.77 1.22C2.73 1.22 2.7 1.21 2.66 1.2C2.63 1.19 2.6 1.17 2.57 1.15C2.55 1.13 2.53 1.1 2.52 1.07C2.5 1.03 2.49 0.99 2.49 0.95C2.49 0.91 2.5 0.87 2.52 0.84C2.53 0.8 2.55 0.78 2.57 0.76C2.6 0.74 2.62 0.72 2.65 0.71C2.68 0.7 2.71 0.7 2.74 0.7C2.78 0.7 2.81 0.7 2.84 0.72C2.87 0.73 2.89 0.74 2.92 0.76C2.94 0.78 2.95 0.8 2.96 0.83C2.98 0.85 2.98 0.88 2.98 0.91C2.98 0.93 2.98 0.95 2.96 0.96C2.95 0.98 2.93 0.98 2.91 0.99L2.6630000000000003 1.023C2.67 1.05 2.69 1.06 2.71 1.07C2.73 1.08 2.76 1.09 2.79 1.09C2.81 1.09 2.84 1.09 2.86 1.08C2.89 1.07 2.91 1.06 2.92 1.05C2.93 1.06 2.94 1.07 2.95 1.08C2.96 1.09 2.96 1.11 2.96 1.12C2.96 1.15 2.95 1.17 2.92 1.19C2.9 1.2 2.87 1.21 2.85 1.21C2.82 1.21 2.8 1.22 2.77 1.22ZM2.74 0.82C2.73 0.82 2.71 0.83 2.7 0.83C2.69 0.84 2.68 0.84 2.67 0.85C2.67 0.86 2.66 0.87 2.66 0.88C2.65 0.89 2.65 0.9 2.65 0.91L2.822 0.883C2.82 0.87 2.81 0.86 2.8 0.84C2.79 0.83 2.77 0.82 2.74 0.82ZM3.04 0.96C3.04 0.91 3.05 0.87 3.06 0.84C3.08 0.81 3.09 0.78 3.12 0.76C3.14 0.74 3.17 0.72 3.2 0.71C3.23 0.7 3.27 0.7 3.3 0.7C3.32 0.7 3.33 0.7 3.34 0.7C3.36 0.7 3.37 0.71 3.37 0.71L3.374 0.5489999999999999C3.38 0.55 3.39 0.54 3.41 0.54C3.42 0.54 3.44 0.54 3.45 0.54C3.47 0.54 3.48 0.54 3.49 0.54C3.5 0.54 3.51 0.55 3.52 0.55C3.53 0.56 3.53 0.57 3.54 0.58C3.54 0.59 3.54 0.6 3.54 0.62L3.544 1.093C3.54 1.12 3.53 1.15 3.5 1.17C3.48 1.18 3.46 1.19 3.43 1.2C3.39 1.21 3.36 1.22 3.32 1.22C3.28 1.22 3.24 1.21 3.2 1.2C3.17 1.19 3.14 1.17 3.12 1.15C3.09 1.12 3.07 1.1 3.06 1.06C3.05 1.03 3.04 1 3.04 0.96ZM3.33 0.83C3.29 0.83 3.26 0.84 3.24 0.86C3.22 0.88 3.22 0.92 3.22 0.96C3.22 1 3.22 1.03 3.24 1.05C3.26 1.07 3.29 1.08 3.32 1.08C3.33 1.08 3.34 1.08 3.35 1.08C3.36 1.07 3.37 1.07 3.38 1.06L3.375 0.844C3.36 0.84 3.35 0.83 3.33 0.83ZM3.93 0.9C3.93 0.84 3.94 0.8 3.96 0.76C3.97 0.72 3.99 0.68 4.02 0.66C4.05 0.63 4.08 0.61 4.12 0.6C4.16 0.58 4.2 0.57 4.25 0.57C4.29 0.57 4.33 0.58 4.37 0.6C4.41 0.61 4.44 0.63 4.47 0.66C4.5 0.68 4.52 0.72 4.54 0.76C4.56 0.8 4.56 0.84 4.56 0.9C4.56 0.95 4.56 0.99 4.54 1.03C4.52 1.07 4.5 1.11 4.47 1.14C4.45 1.16 4.41 1.18 4.37 1.2C4.33 1.21 4.29 1.22 4.25 1.22C4.2 1.22 4.16 1.21 4.12 1.2C4.08 1.18 4.05 1.16 4.02 1.13C3.99 1.11 3.97 1.07 3.96 1.03C3.94 0.99 3.93 0.95 3.93 0.9ZM4.11 0.9C4.11 0.96 4.12 1 4.15 1.03C4.17 1.06 4.21 1.08 4.25 1.08C4.29 1.08 4.32 1.06 4.35 1.03C4.37 1 4.38 0.96 4.38 0.9C4.38 0.84 4.37 0.79 4.35 0.76C4.32 0.73 4.29 0.72 4.25 0.72C4.21 0.72 4.17 0.73 4.15 0.76C4.12 0.79 4.11 0.84 4.11 0.9ZM4.96 0.89C4.96 0.87 4.95 0.86 4.94 0.85C4.93 0.84 4.91 0.83 4.89 0.83C4.88 0.83 4.87 0.83 4.85 0.84C4.84 0.84 4.83 0.85 4.82 0.85L4.821 1.199C4.81 1.2 4.8 1.2 4.79 1.2C4.78 1.21 4.76 1.21 4.75 1.21C4.73 1.21 4.72 1.21 4.71 1.2C4.69 1.2 4.68 1.2 4.68 1.19C4.67 1.19 4.66 1.18 4.66 1.17C4.65 1.16 4.65 1.14 4.65 1.13L4.651 0.828C4.65 0.81 4.65 0.8 4.66 0.78C4.67 0.77 4.68 0.76 4.69 0.75C4.72 0.74 4.75 0.72 4.78 0.71C4.81 0.7 4.85 0.7 4.89 0.7C4.97 0.7 5.03 0.72 5.07 0.75C5.11 0.78 5.13 0.83 5.13 0.89L5.1290000000000004 1.199C5.12 1.2 5.11 1.2 5.1 1.2C5.08 1.21 5.07 1.21 5.05 1.21C5.04 1.21 5.03 1.21 5.01 1.2C5 1.2 4.99 1.2 4.98 1.19C4.98 1.19 4.97 1.18 4.97 1.17C4.96 1.16 4.96 1.14 4.96 1.13L4.9590000000000005 0.8919999999999999ZM5.41 1.2C5.4 1.2 5.39 1.2 5.37 1.2C5.36 1.21 5.35 1.21 5.33 1.21C5.32 1.21 5.3 1.21 5.29 1.2C5.28 1.2 5.27 1.2 5.26 1.19C5.25 1.19 5.25 1.18 5.24 1.17C5.24 1.16 5.24 1.14 5.24 1.13L5.237 0.5479999999999999C5.24 0.55 5.26 0.54 5.27 0.54C5.28 0.54 5.3 0.54 5.31 0.54C5.33 0.54 5.34 0.54 5.35 0.54C5.36 0.54 5.37 0.55 5.38 0.55C5.39 0.56 5.4 0.57 5.4 0.58C5.4 0.59 5.41 0.6 5.41 0.62L5.407 1.199ZM5.59 1.08C5.58 1.06 5.57 1.04 5.57 1.02C5.56 1 5.55 0.98 5.54 0.95C5.53 0.92 5.52 0.89 5.51 0.86C5.5 0.82 5.49 0.78 5.48 0.74C5.49 0.73 5.5 0.72 5.52 0.71C5.54 0.71 5.55 0.7 5.57 0.7C5.59 0.7 5.61 0.71 5.63 0.72C5.64 0.73 5.66 0.75 5.66 0.77L5.742 1.048L5.746 1.048C5.75 1.03 5.76 1 5.77 0.97C5.78 0.95 5.78 0.92 5.79 0.89C5.8 0.86 5.81 0.83 5.81 0.81C5.82 0.78 5.82 0.75 5.83 0.72C5.85 0.71 5.88 0.7 5.91 0.7C5.93 0.7 5.95 0.71 5.97 0.72C5.98 0.73 5.99 0.75 5.99 0.77C5.99 0.79 5.99 0.81 5.98 0.83C5.98 0.86 5.97 0.88 5.96 0.91C5.96 0.94 5.95 0.96 5.94 0.99C5.93 1.02 5.92 1.05 5.9 1.08C5.89 1.1 5.88 1.13 5.87 1.15C5.86 1.18 5.85 1.2 5.83 1.22C5.82 1.25 5.8 1.28 5.78 1.3C5.77 1.32 5.75 1.33 5.74 1.35C5.72 1.36 5.71 1.37 5.69 1.37C5.68 1.37 5.66 1.38 5.65 1.38C5.62 1.38 5.6 1.37 5.58 1.35C5.56 1.34 5.55 1.31 5.55 1.29C5.57 1.27 5.59 1.25 5.61 1.23C5.63 1.21 5.65 1.19 5.67 1.17C5.66 1.17 5.65 1.16 5.63 1.15C5.62 1.13 5.61 1.11 5.59 1.08Z" stroke="#FF0000" stroke-width="0.05" fill="none"/>
  <path d="M0.24 2.42C0.22 2.42 0.21 2.42 0.2 2.42C0.18 2.41 0.16 2.41 0.15 2.41C0.13 2.41 0.12 2.41 0.1 2.4C0.08 2.4 0.07 2.4 0.06 2.39C0.02 2.38 0 2.35 0 2.32L0 1.851C0 1.84 0 1.83 0.01 1.82C0.02 1.81 0.03 1.8 0.04 1.8C0.07 1.79 0.09 1.79 0.13 1.78C0.16 1.78 0.2 1.78 0.23 1.78C0.32 1.78 0.38 1.79 0.43 1.82C0.48 1.85 0.5 1.89 0.5 1.95C0.5 1.98 0.49 2.01 0.47 2.03C0.46 2.05 0.43 2.07 0.4 2.08C0.44 2.09 0.46 2.1 0.49 2.13C0.51 2.15 0.52 2.18 0.52 2.22C0.52 2.29 0.5 2.34 0.45 2.37C0.4 2.4 0.33 2.42 0.24 2.42ZM0.17 2.28C0.18 2.28 0.19 2.28 0.21 2.28C0.22 2.28 0.23 2.28 0.25 2.28C0.27 2.28 0.3 2.28 0.31 2.27C0.33 2.25 0.34 2.24 0.34 2.21C0.34 2.19 0.33 2.18 0.32 2.17C0.3 2.16 0.28 2.15 0.25 2.15L0.17 2.153L0.17 2.275ZM0.17 2.03L0.243 2.0309999999999997C0.27 2.03 0.29 2.03 0.31 2.01C0.32 2 0.33 1.99 0.33 1.97C0.33 1.95 0.32 1.94 0.3 1.92C0.29 1.91 0.27 1.91 0.24 1.91C0.23 1.91 0.21 1.91 0.2 1.91C0.19 1.91 0.18 1.91 0.17 1.91L0.17 2.0309999999999997ZM1.11 2.16C1.11 2.2 1.1 2.24 1.09 2.27C1.08 2.3 1.06 2.33 1.04 2.35C1.01 2.37 0.99 2.39 0.95 2.4C0.92 2.41 0.89 2.42 0.85 2.42C0.81 2.42 0.77 2.41 0.74 2.4C0.71 2.39 0.68 2.37 0.66 2.35C0.63 2.32 0.62 2.3 0.6 2.26C0.59 2.23 0.59 2.2 0.59 2.16C0.59 2.12 0.59 2.08 0.6 2.05C0.62 2.02 0.63 1.99 0.66 1.97C0.68 1.95 0.71 1.93 0.74 1.92C0.77 1.9 0.81 1.9 0.85 1.9C0.89 1.9 0.92 1.91 0.95 1.92C0.99 1.93 1.01 1.95 1.04 1.97C1.06 1.99 1.08 2.02 1.09 2.05C1.1 2.08 1.11 2.12 1.11 2.16ZM0.76 2.16C0.76 2.2 0.77 2.23 0.78 2.25C0.8 2.27 0.82 2.28 0.85 2.28C0.88 2.28 0.9 2.27 0.91 2.25C0.93 2.23 0.94 2.2 0.94 2.16C0.94 2.12 0.93 2.09 0.91 2.06C0.9 2.04 0.88 2.03 0.85 2.03C0.82 2.03 0.8 2.04 0.78 2.06C0.77 2.09 0.76 2.12 0.76 2.16ZM1.36 2.23C1.36 2.25 1.37 2.26 1.38 2.27C1.39 2.28 1.41 2.28 1.43 2.28C1.44 2.28 1.45 2.28 1.46 2.28C1.47 2.28 1.48 2.27 1.48 2.27C1.49 2.28 1.5 2.29 1.5 2.3C1.5 2.31 1.51 2.32 1.51 2.33C1.51 2.35 1.5 2.38 1.48 2.39C1.46 2.41 1.43 2.42 1.38 2.42C1.32 2.42 1.27 2.4 1.24 2.38C1.21 2.35 1.19 2.31 1.19 2.25L1.194 1.817C1.2 1.82 1.21 1.81 1.23 1.81C1.24 1.81 1.25 1.81 1.27 1.81C1.3 1.81 1.32 1.81 1.34 1.82C1.35 1.83 1.36 1.85 1.36 1.89L1.362 1.952L1.493 1.952C1.5 1.96 1.5 1.97 1.5 1.98C1.51 1.99 1.51 2 1.51 2.02C1.51 2.04 1.5 2.06 1.49 2.07C1.48 2.08 1.47 2.08 1.45 2.08L1.362 2.082L1.362 2.233ZM2.07 2.4C2.07 2.4 2.05 2.4 2.04 2.4C2.03 2.41 2.01 2.41 2 2.41C1.98 2.41 1.97 2.41 1.96 2.4C1.94 2.4 1.94 2.4 1.93 2.39C1.92 2.39 1.91 2.38 1.91 2.37C1.9 2.36 1.9 2.34 1.9 2.33L1.9020000000000001 2.106C1.9 2.08 1.9 2.06 1.88 2.05C1.87 2.04 1.85 2.03 1.83 2.03C1.82 2.03 1.81 2.03 1.79 2.04C1.78 2.04 1.77 2.04 1.76 2.05L1.764 2.399C1.76 2.4 1.75 2.4 1.73 2.4C1.72 2.41 1.7 2.41 1.69 2.41C1.67 2.41 1.66 2.41 1.65 2.4C1.64 2.4 1.63 2.4 1.62 2.39C1.61 2.39 1.6 2.38 1.6 2.37C1.6 2.36 1.59 2.34 1.59 2.33L1.594 1.7479999999999998C1.6 1.75 1.61 1.74 1.63 1.74C1.64 1.74 1.66 1.74 1.67 1.74C1.68 1.74 1.7 1.74 1.71 1.74C1.72 1.74 1.73 1.75 1.74 1.75C1.75 1.76 1.75 1.77 1.76 1.78C1.76 1.79 1.76 1.8 1.76 1.82L1.764 1.9169999999999998C1.77 1.91 1.79 1.91 1.8 1.91C1.82 1.9 1.84 1.9 1.86 1.9C1.93 1.9 1.98 1.92 2.02 1.95C2.05 1.98 2.07 2.03 2.07 2.1L2.072 2.399Z" stroke="#000000" stroke-width="0.02" fill="#00FF00"/>
</svg>
