<svg xmlns="http://www.w3.org/2000/svg" viewBox="-6.1 -6.01 12.21 12.14">
  <path d="M-6.1 -6.01L6.103008443328729 -6.007931274059412L6.103008443328729 6.134811995186289L-6.10300844332873 6.134811995186289Z" stroke="none" fill="#FFFFFF"/>
  <path d="M-1.34 -0.4L-1.34 -0.40361111111111114L-1.34 -0.40361111111111114L-1.34 -0.40361111111111114L-1.5950000000000002 0.10338888888888892L-1.856 -0.40361111111111114L-1.856 -0.40361111111111114L-1.856 -0.40361111111111114L-1.9060000000000001 -0.40361111111111114L-1.9060000000000001 -0.40361111111111114L-1.9060000000000001 -0.40361111111111114L-1.9060000000000001 0.3953888888888889L-1.856 0.3953888888888889L-1.856 -0.29661111111111116L-1.594 0.2313888888888889L-1.34 -0.29361111111111116L-1.34 0.3953888888888889L-1.2910000000000001 0.3953888888888889L-1.2910000000000001 -0.40361111111111114L-1.34 -0.40361111111111114ZM-0.87 -0.19C-0.94 -0.19 -1 -0.16 -1.06 -0.1C-1.11 -0.05 -1.14 0.03 -1.14 0.11C-1.14 0.2 -1.11 0.28 -1.07 0.33C-1.02 0.38 -0.95 0.41 -0.87 0.41C-0.79 0.41 -0.72 0.38 -0.68 0.33C-0.63 0.28 -0.61 0.2 -0.61 0.11C-0.61 0.03 -0.63 -0.05 -0.69 -0.1C-0.74 -0.16 -0.8 -0.19 -0.87 -0.19ZM-0.87 0.36C-0.94 0.36 -0.99 0.34 -1.03 0.29C-1.07 0.25 -1.09 0.19 -1.09 0.11C-1.09 0.04 -1.06 -0.02 -1.02 -0.07C-0.98 -0.12 -0.93 -0.14 -0.87 -0.14C-0.81 -0.14 -0.76 -0.12 -0.72 -0.07C-0.68 -0.02 -0.66 0.04 -0.66 0.11C-0.66 0.19 -0.68 0.25 -0.72 0.29C-0.76 0.34 -0.81 0.36 -0.87 0.36ZM-0.24 -0.19C-0.31 -0.19 -0.37 -0.16 -0.43 -0.1C-0.48 -0.05 -0.51 0.03 -0.51 0.11C-0.51 0.2 -0.48 0.28 -0.44 0.33C-0.39 0.38 -0.32 0.41 -0.24 0.41C-0.16 0.41 -0.09 0.38 -0.05 0.33C0 0.28 0.02 0.2 0.02 0.11C0.02 0.03 0 -0.05 -0.06 -0.1C-0.11 -0.16 -0.17 -0.19 -0.24 -0.19ZM-0.24 0.36C-0.31 0.36 -0.36 0.34 -0.4 0.29C-0.44 0.25 -0.46 0.19 -0.46 0.11C-0.46 0.04 -0.44 -0.02 -0.39 -0.07C-0.35 -0.12 -0.3 -0.14 -0.24 -0.14C-0.19 -0.14 -0.14 -0.12 -0.09 -0.07C-0.05 -0.02 -0.03 0.04 -0.03 0.11C-0.03 0.19 -0.05 0.25 -0.09 0.29C-0.13 0.34 -0.18 0.36 -0.24 0.36ZM0.63 -0.09C0.62 -0.12 0.59 -0.15 0.57 -0.16C0.54 -0.18 0.51 -0.19 0.46 -0.2C0.45 -0.2 0.44 -0.2 0.43 -0.2C0.39 -0.2 0.35 -0.19 0.31 -0.17C0.27 -0.14 0.24 -0.11 0.22 -0.08L0.21700000000000008 -0.18161111111111106L0.16699999999999982 -0.18161111111111106L0.16699999999999982 0.3963888888888889L0.21700000000000008 0.3963888888888889L0.21700000000000008 0.0803888888888889C0.22 0.01 0.24 -0.04 0.3 -0.09C0.34 -0.13 0.39 -0.15 0.43 -0.15C0.44 -0.15 0.45 -0.15 0.46 -0.15C0.49 -0.14 0.52 -0.13 0.54 -0.12C0.56 -0.11 0.57 -0.09 0.59 -0.06C0.61 -0.03 0.62 0.02 0.62 0.08L0.6189999999999998 0.0843888888888889L0.6189999999999998 0.3963888888888889L0.6709999999999998 0.3963888888888889L0.6709999999999998 0.0843888888888889C0.67 0.01 0.66 -0.05 0.63 -0.09ZM1.3 0.15C1.3 0.1 1.28 0.05 1.25 0.02C1.22 -0.01 1.18 -0.03 1.13 -0.05C1.2 -0.08 1.23 -0.14 1.23 -0.24C1.23 -0.29 1.2 -0.33 1.15 -0.36C1.11 -0.39 1.07 -0.41 1.02 -0.41C1 -0.41 0.98 -0.41 0.96 -0.41C0.9 -0.41 0.85 -0.41 0.82 -0.4L0.815 -0.40261111111111114L0.815 -0.40261111111111114L0.815 -0.40261111111111114L0.815 0.3963888888888889L0.8159999999999998 0.3963888888888889L0.8159999999999998 0.3963888888888889C0.89 0.41 0.96 0.41 1.02 0.41C1.14 0.41 1.21 0.38 1.26 0.33C1.29 0.28 1.3 0.23 1.3 0.15L1.3009999999999997 0.1473888888888889ZM1 0.36C0.97 0.36 0.92 0.36 0.86 0.35L0.8649999999999998 -0.01361111111111113L1.044 -0.01361111111111113C1.09 -0.01 1.14 0 1.18 0.03C1.23 0.06 1.25 0.1 1.25 0.15C1.26 0.21 1.24 0.26 1.21 0.29C1.18 0.33 1.11 0.36 1 0.36L1.004 0.3593888888888889ZM0.99 -0.37C1.04 -0.36 1.08 -0.35 1.11 -0.33C1.16 -0.31 1.18 -0.27 1.18 -0.23C1.19 -0.12 1.12 -0.06 0.97 -0.06L0.8649999999999998 -0.06361111111111112L0.8649999999999998 -0.3646111111111111C0.9 -0.37 0.95 -0.37 0.99 -0.37ZM1.44 -0.18L1.444 0.3973888888888889L1.4939999999999998 0.3973888888888889L1.4939999999999998 -0.18261111111111106L1.444 -0.18261111111111106ZM1.49 -0.33L1.444 -0.3296111111111111L1.444 -0.27961111111111114L1.4939999999999998 -0.27961111111111114L1.4939999999999998 -0.3296111111111111ZM1.8 0.34C1.78 0.33 1.77 0.3 1.76 0.25C1.76 0.24 1.76 0.19 1.76 0.12C1.76 0.03 1.76 -0.05 1.76 -0.13L1.8900000000000001 -0.13161111111111112L1.8900000000000001 -0.18161111111111106L1.7610000000000001 -0.18161111111111106L1.7610000000000001 -0.27861111111111114L1.7109999999999999 -0.27861111111111114L1.7109999999999999 -0.18161111111111106L1.6269999999999998 -0.18161111111111106L1.6269999999999998 -0.13161111111111112L1.7109999999999999 -0.13161111111111112C1.71 -0.05 1.71 0.04 1.71 0.12C1.71 0.21 1.71 0.26 1.72 0.28C1.72 0.32 1.74 0.36 1.76 0.38C1.78 0.39 1.8 0.4 1.83 0.4C1.84 0.4 1.87 0.4 1.91 0.4L1.9060000000000001 0.36038888888888887C1.85 0.36 1.81 0.36 1.8 0.34Z" stroke="none" fill="#000000"/>
  <path d="M0 2.11C0 2.11 0.12 2.26 0.24 2.26C0.37 2.26 0 2.41 0 2.41C0 2.41 -0.12 2.26 -0.24 2.26C-0.37 2.26 0 2.11 0 2.11Z" stroke="rgba(52,161,48,0.72)" stroke-width="0.01" fill="rgba(75,230,69,0.6)"/>
  <path d="M-0.86 1.92C-0.86 1.92 -0.81 2.11 -0.7 2.16C-0.58 2.21 -0.98 2.21 -0.98 2.21C-0.98 2.21 -1.03 2.01 -1.14 1.97C-1.25 1.92 -0.86 1.92 -0.86 1.92Z" stroke="rgba(52,161,48,0.72)" stroke-width="0.01" fill="rgba(75,230,69,0.6)"/>
  <path d="M-1.57 1.41C-1.57 1.41 -1.6 1.6 -1.52 1.69C-1.43 1.78 -1.79 1.62 -1.79 1.62C-1.79 1.62 -1.76 1.42 -1.84 1.33C-1.92 1.24 -1.57 1.41 -1.57 1.41Z" stroke="rgba(52,161,48,0.72)" stroke-width="0.01" fill="rgba(75,230,69,0.6)"/>
  <path d="M-2 0.65C-2 0.65 -2.11 0.81 -2.07 0.93C-2.04 1.05 -2.3 0.75 -2.3 0.75C-2.3 0.75 -2.19 0.58 -2.23 0.47C-2.26 0.35 -2 0.65 -2 0.65Z" stroke="rgba(52,161,48,0.72)" stroke-width="0.01" fill="rgba(75,230,69,0.6)"/>
  <path d="M-2.09 -0.22C-2.09 -0.22 -2.26 -0.11 -2.27 0.01C-2.29 0.13 -2.4 -0.25 -2.4 -0.25C-2.4 -0.25 -2.23 -0.36 -2.22 -0.48C-2.21 -0.6 -2.09 -0.22 -2.09 -0.22Z" stroke="rgba(52,161,48,0.72)" stroke-width="0.01" fill="rgba(75,230,69,0.6)"/>
  <path d="M-1.82 -1.05C-1.82 -1.05 -2.02 -1.02 -2.08 -0.92C-2.14 -0.81 -2.09 -1.21 -2.09 -1.21C-2.09 -1.21 -1.9 -1.24 -1.84 -1.34C-1.77 -1.45 -1.82 -1.05 -1.82 -1.05Z" stroke="rgba(52,161,48,0.72)" stroke-width="0.01" fill="rgba(75,230,69,0.6)"/>
  <path d="M-1.24 -1.7C-1.24 -1.7 -1.43 -1.76 -1.53 -1.68C-1.63 -1.61 -1.42 -1.95 -1.42 -1.95C-1.42 -1.95 -1.23 -1.9 -1.13 -1.97C-1.03 -2.04 -1.24 -1.7 -1.24 -1.7Z" stroke="rgba(52,161,48,0.72)" stroke-width="0.01" fill="rgba(75,230,69,0.6)"/>
  <path d="M-0.44 -2.06C-0.44 -2.06 -0.59 -2.19 -0.71 -2.16C-0.83 -2.13 -0.5 -2.36 -0.5 -2.36C-0.5 -2.36 -0.35 -2.24 -0.23 -2.26C-0.11 -2.29 -0.44 -2.06 -0.44 -2.06Z" stroke="rgba(52,161,48,0.72)" stroke-width="0.01" fill="rgba(75,230,69,0.6)"/>
  <path d="M0.44 -2.06C0.44 -2.06 0.35 -2.24 0.23 -2.26C0.11 -2.29 0.5 -2.36 0.5 -2.36C0.5 -2.36 0.59 -2.19 0.71 -2.16C0.83 -2.13 0.44 -2.06 0.44 -2.06Z" stroke="rgba(52,161,48,0.72)" stroke-width="0.01" fill="rgba(75,230,69,0.6)"/>
  <path d="M1.24 -1.7C1.24 -1.7 1.23 -1.9 1.13 -1.97C1.03 -2.04 1.42 -1.95 1.42 -1.95C1.42 -1.95 1.43 -1.76 1.53 -1.68C1.63 -1.61 1.24 -1.7 1.24 -1.7Z" stroke="rgba(52,161,48,0.72)" stroke-width="0.01" fill="rgba(75,230,69,0.6)"/>
  <path d="M1.82 -1.05C1.82 -1.05 1.9 -1.24 1.84 -1.34C1.77 -1.45 2.09 -1.21 2.09 -1.21C2.09 -1.21 2.02 -1.02 2.08 -0.92C2.14 -0.81 1.82 -1.05 1.82 -1.05Z" stroke="rgba(52,161,48,0.72)" stroke-width="0.01" fill="rgba(75,230,69,0.6)"/>
  <path d="M2.09 -0.22C2.09 -0.22 2.23 -0.36 2.22 -0.48C2.21 -0.6 2.4 -0.25 2.4 -0.25C2.4 -0.25 2.26 -0.11 2.27 0.01C2.29 0.13 2.09 -0.22 2.09 -0.22Z" stroke="rgba(52,161,48,0.72)" stroke-width="0.01" fill="rgba(75,230,69,0.6)"/>
  <path d="M2 0.65C2 0.65 2.19 0.58 2.23 0.47C2.26 0.35 2.3 0.75 2.3 0.75C2.3 0.75 2.11 0.81 2.07 0.93C2.04 1.05 2 0.65 2 0.65Z" stroke="rgba(52,161,48,0.72)" stroke-width="0.01" fill="rgba(75,230,69,0.6)"/>
  <path d="M1.57 1.41C1.57 1.41 1.76 1.42 1.84 1.33C1.92 1.24 1.79 1.62 1.79 1.62C1.79 1.62 1.6 1.6 1.52 1.69C1.43 1.78 1.57 1.41 1.57 1.41Z" stroke="rgba(52,161,48,0.72)" stroke-width="0.01" fill="rgba(75,230,69,0.6)"/>
  <path d="M0.86 1.92C0.86 1.92 1.03 2.01 1.14 1.97C1.25 1.92 0.98 2.21 0.98 2.21C0.98 2.21 0.81 2.11 0.7 2.16C0.58 2.21 0.86 1.92 0.86 1.92Z" stroke="rgba(52,161,48,0.72)" stroke-width="0.01" fill="rgba(75,230,69,0.6)"/>
  <path d="M0 2.91L0.062212738586688764 3.020429875469967L0 3.135101241114131L-0.062212738586688764 3.020429875469967Z" stroke="rgba(161,48,120,0.72)" stroke-width="0.01" fill="rgba(230,69,171,0.6)"/>
  <path d="M-2.05 2.05L-2.091775397712419 2.179757496374087L-2.2168513472981632 2.2168513472981637L-2.1797574963740867 2.0917753977124196Z" stroke="rgba(161,48,120,0.72)" stroke-width="0.01" fill="rgba(230,69,171,0.6)"/>
  <path d="M-2.91 0L-3.020429875469967 0.06221273858668895L-3.135101241114131 1.9196958499666575e-16L-3.020429875469967 -0.062212738586688576Z" stroke="rgba(161,48,120,0.72)" stroke-width="0.01" fill="rgba(230,69,171,0.6)"/>
  <path d="M-2.05 -2.05L-2.179757496374087 -2.091775397712419L-2.2168513472981637 -2.2168513472981632L-2.0917753977124196 -2.1797574963740867Z" stroke="rgba(161,48,120,0.72)" stroke-width="0.01" fill="rgba(230,69,171,0.6)"/>
  <path d="M0 -2.91L-0.06221273858668913 -3.020429875469967L-3.839391699933315e-16 -3.135101241114131L0.062212738586688396 -3.020429875469967Z" stroke="rgba(161,48,120,0.72)" stroke-width="0.01" fill="rgba(230,69,171,0.6)"/>
  <path d="M2.05 -2.05L2.091775397712419 -2.179757496374087L2.2168513472981632 -2.216851347298164L2.1797574963740867 -2.0917753977124196Z" stroke="rgba(161,48,120,0.72)" stroke-width="0.01" fill="rgba(230,69,171,0.6)"/>
  <path d="M2.91 0L3.020429875469967 -0.06221273858668932L3.135101241114131 -5.759087549899972e-16L3.020429875469967 0.06221273858668821Z" stroke="rgba(161,48,120,0.72)" stroke-width="0.01" fill="rgba(230,69,171,0.6)"/>
  <path d="M2.05 2.05L2.179757496374087 2.0917753977124187L2.216851347298164 2.216851347298163L2.0917753977124196 2.1797574963740862Z" stroke="rgba(161,48,120,0.72)" stroke-width="0.01" fill="rgba(230,69,171,0.6)"/>
  <path d="M0 3.47C0.08 3.47 0.15 3.54 0.15 3.62C0.15 3.7 0.08 3.77 0 3.77C-0.08 3.77 -0.15 3.7 -0.15 3.62C-0.15 3.54 -0.08 3.47 0 3.47Z" stroke="rgba(114,161,48,0.72)" stroke-width="0.01" fill="rgba(162,230,69,0.6)"/>
  <path d="M-1.61 3.08C-1.54 3.11 -1.51 3.2 -1.55 3.28C-1.59 3.35 -1.68 3.38 -1.75 3.34C-1.82 3.3 -1.85 3.21 -1.81 3.14C-1.78 3.07 -1.69 3.04 -1.61 3.08Z" stroke="rgba(114,161,48,0.72)" stroke-width="0.01" fill="rgba(162,230,69,0.6)"/>
  <path d="M-2.86 1.97C-2.81 2.04 -2.83 2.13 -2.9 2.18C-2.96 2.23 -3.06 2.21 -3.1 2.14C-3.15 2.07 -3.13 1.98 -3.06 1.94C-3 1.89 -2.91 1.91 -2.86 1.97Z" stroke="rgba(114,161,48,0.72)" stroke-width="0.01" fill="rgba(162,230,69,0.6)"/>
  <path d="M-3.45 0.42C-3.44 0.5 -3.5 0.57 -3.58 0.58C-3.66 0.59 -3.73 0.54 -3.74 0.45C-3.75 0.37 -3.69 0.3 -3.61 0.29C-3.53 0.28 -3.46 0.34 -3.45 0.42Z" stroke="rgba(114,161,48,0.72)" stroke-width="0.01" fill="rgba(162,230,69,0.6)"/>
  <path d="M-3.25 -1.23C-3.28 -1.16 -3.36 -1.12 -3.44 -1.15C-3.51 -1.18 -3.55 -1.26 -3.52 -1.34C-3.5 -1.41 -3.41 -1.45 -3.33 -1.42C-3.26 -1.39 -3.22 -1.31 -3.25 -1.23Z" stroke="rgba(114,161,48,0.72)" stroke-width="0.01" fill="rgba(162,230,69,0.6)"/>
  <path d="M-2.3 -2.6C-2.36 -2.55 -2.46 -2.55 -2.51 -2.61C-2.57 -2.67 -2.56 -2.77 -2.5 -2.82C-2.44 -2.88 -2.35 -2.87 -2.29 -2.81C-2.24 -2.75 -2.24 -2.65 -2.3 -2.6Z" stroke="rgba(114,161,48,0.72)" stroke-width="0.01" fill="rgba(162,230,69,0.6)"/>
  <path d="M-0.83 -3.37C-0.91 -3.35 -0.99 -3.4 -1.01 -3.48C-1.03 -3.56 -0.98 -3.64 -0.9 -3.66C-0.82 -3.68 -0.74 -3.63 -0.72 -3.55C-0.7 -3.47 -0.75 -3.39 -0.83 -3.37Z" stroke="rgba(114,161,48,0.72)" stroke-width="0.01" fill="rgba(162,230,69,0.6)"/>
  <path d="M0.83 -3.37C0.75 -3.39 0.7 -3.47 0.72 -3.55C0.74 -3.63 0.82 -3.68 0.9 -3.66C0.98 -3.64 1.03 -3.56 1.01 -3.48C0.99 -3.4 0.91 -3.35 0.83 -3.37Z" stroke="rgba(114,161,48,0.72)" stroke-width="0.01" fill="rgba(162,230,69,0.6)"/>
  <path d="M2.3 -2.6C2.24 -2.65 2.24 -2.75 2.29 -2.81C2.35 -2.87 2.44 -2.88 2.5 -2.82C2.56 -2.77 2.57 -2.67 2.51 -2.61C2.46 -2.55 2.36 -2.55 2.3 -2.6Z" stroke="rgba(114,161,48,0.72)" stroke-width="0.01" fill="rgba(162,230,69,0.6)"/>
  <path d="M3.25 -1.23C3.22 -1.31 3.26 -1.39 3.33 -1.42C3.41 -1.45 3.5 -1.41 3.52 -1.34C3.55 -1.26 3.51 -1.18 3.44 -1.15C3.36 -1.12 3.28 -1.16 3.25 -1.23Z" stroke="rgba(114,161,48,0.72)" stroke-width="0.01" fill="rgba(162,230,69,0.6)"/>
  <path d="M3.45 0.42C3.46 0.34 3.53 0.28 3.61 0.29C3.69 0.3 3.75 0.37 3.74 0.45C3.73 0.54 3.66 0.59 3.58 0.58C3.5 0.57 3.44 0.5 3.45 0.42Z" stroke="rgba(114,161,48,0.72)" stroke-width="0.01" fill="rgba(162,230,69,0.6)"/>
  <path d="M2.86 1.97C2.91 1.91 3 1.89 3.06 1.94C3.13 1.98 3.15 2.07 3.1 2.14C3.06 2.21 2.96 2.23 2.9 2.18C2.83 2.13 2.81 2.04 2.86 1.97Z" stroke="rgba(114,161,48,0.72)" stroke-width="0.01" fill="rgba(162,230,69,0.6)"/>
  <path d="M1.61 3.08C1.69 3.04 1.78 3.07 1.81 3.14C1.85 3.21 1.82 3.3 1.75 3.34C1.68 3.38 1.59 3.35 1.55 3.28C1.51 3.2 1.54 3.11 1.61 3.08Z" stroke="rgba(114,161,48,0.72)" stroke-width="0.01" fill="rgba(162,230,69,0.6)"/>
  <path d="M0 4.25C0 4.25 0.12 4.54 0.25 4.54C0.37 4.54 0 4.83 0 4.83C0 4.83 -0.12 4.54 -0.25 4.54C-0.37 4.54 0 4.25 0 4.25Z" stroke="rgba(119,161,48,0.72)" stroke-width="0.01" fill="rgba(170,230,69,0.6)"/>
  <path d="M-1.54 3.96C-1.54 3.96 -1.52 4.28 -1.41 4.32C-1.29 4.37 -1.74 4.5 -1.74 4.5C-1.74 4.5 -1.76 4.19 -1.87 4.14C-1.99 4.1 -1.54 3.96 -1.54 3.96Z" stroke="rgba(119,161,48,0.72)" stroke-width="0.01" fill="rgba(170,230,69,0.6)"/>
  <path d="M-2.86 3.14C-2.86 3.14 -2.97 3.44 -2.88 3.52C-2.78 3.61 -3.25 3.57 -3.25 3.57C-3.25 3.57 -3.15 3.27 -3.24 3.19C-3.33 3.11 -2.86 3.14 -2.86 3.14Z" stroke="rgba(119,161,48,0.72)" stroke-width="0.01" fill="rgba(170,230,69,0.6)"/>
  <path d="M-3.8 1.89C-3.8 1.89 -4.01 2.13 -3.95 2.25C-3.9 2.36 -4.32 2.15 -4.32 2.15C-4.32 2.15 -4.12 1.91 -4.17 1.8C-4.23 1.69 -3.8 1.89 -3.8 1.89Z" stroke="rgba(119,161,48,0.72)" stroke-width="0.01" fill="rgba(170,230,69,0.6)"/>
  <path d="M-4.23 0.39C-4.23 0.39 -4.51 0.54 -4.5 0.67C-4.49 0.79 -4.81 0.45 -4.81 0.45C-4.81 0.45 -4.53 0.3 -4.54 0.17C-4.56 0.05 -4.23 0.39 -4.23 0.39Z" stroke="rgba(119,161,48,0.72)" stroke-width="0.01" fill="rgba(170,230,69,0.6)"/>
  <path d="M-4.09 -1.16C-4.09 -1.16 -4.4 -1.12 -4.43 -1C-4.47 -0.89 -4.65 -1.32 -4.65 -1.32C-4.65 -1.32 -4.33 -1.36 -4.3 -1.48C-4.27 -1.6 -4.09 -1.16 -4.09 -1.16Z" stroke="rgba(119,161,48,0.72)" stroke-width="0.01" fill="rgba(170,230,69,0.6)"/>
  <path d="M-3.39 -2.56C-3.39 -2.56 -3.7 -2.64 -3.77 -2.54C-3.85 -2.44 -3.85 -2.91 -3.85 -2.91C-3.85 -2.91 -3.55 -2.84 -3.47 -2.93C-3.4 -3.03 -3.39 -2.56 -3.39 -2.56Z" stroke="rgba(119,161,48,0.72)" stroke-width="0.01" fill="rgba(170,230,69,0.6)"/>
  <path d="M-2.24 -3.61C-2.24 -3.61 -2.5 -3.8 -2.6 -3.73C-2.71 -3.66 -2.54 -4.11 -2.54 -4.11C-2.54 -4.11 -2.28 -3.93 -2.18 -3.99C-2.07 -4.06 -2.24 -3.61 -2.24 -3.61Z" stroke="rgba(119,161,48,0.72)" stroke-width="0.01" fill="rgba(170,230,69,0.6)"/>
  <path d="M-0.78 -4.18C-0.78 -4.18 -0.96 -4.44 -1.08 -4.42C-1.2 -4.39 -0.89 -4.75 -0.89 -4.75C-0.89 -4.75 -0.71 -4.49 -0.59 -4.51C-0.47 -4.53 -0.78 -4.18 -0.78 -4.18Z" stroke="rgba(119,161,48,0.72)" stroke-width="0.01" fill="rgba(170,230,69,0.6)"/>
  <path d="M0.78 -4.18C0.78 -4.18 0.71 -4.49 0.59 -4.51C0.47 -4.53 0.89 -4.75 0.89 -4.75C0.89 -4.75 0.96 -4.44 1.08 -4.42C1.2 -4.39 0.78 -4.18 0.78 -4.18Z" stroke="rgba(119,161,48,0.72)" stroke-width="0.01" fill="rgba(170,230,69,0.6)"/>
  <path d="M2.24 -3.61C2.24 -3.61 2.28 -3.93 2.18 -3.99C2.07 -4.06 2.54 -4.11 2.54 -4.11C2.54 -4.11 2.5 -3.8 2.6 -3.73C2.71 -3.66 2.24 -3.61 2.24 -3.61Z" stroke="rgba(119,161,48,0.72)" stroke-width="0.01" fill="rgba(170,230,69,0.6)"/>
  <path d="M3.39 -2.56C3.39 -2.56 3.55 -2.84 3.47 -2.93C3.4 -3.03 3.85 -2.91 3.85 -2.91C3.85 -2.91 3.7 -2.64 3.77 -2.54C3.85 -2.44 3.39 -2.56 3.39 -2.56Z" stroke="rgba(119,161,48,0.72)" stroke-width="0.01" fill="rgba(170,230,69,0.6)"/>
  <path d="M4.09 -1.16C4.09 -1.16 4.33 -1.36 4.3 -1.48C4.27 -1.6 4.65 -1.32 4.65 -1.32C4.65 -1.32 4.4 -1.12 4.43 -1C4.47 -0.89 4.09 -1.16 4.09 -1.16Z" stroke="rgba(119,161,48,0.72)" stroke-width="0.01" fill="rgba(170,230,69,0.6)"/>
  <path d="M4.23 0.39C4.23 0.39 4.53 0.3 4.54 0.17C4.56 0.05 4.81 0.45 4.81 0.45C4.81 0.45 4.51 0.54 4.5 0.67C4.49 0.79 4.23 0.39 4.23 0.39Z" stroke="rgba(119,161,48,0.72)" stroke-width="0.01" fill="rgba(170,230,69,0.6)"/>
  <path d="M3.8 1.89C3.8 1.89 4.12 1.91 4.17 1.8C4.23 1.69 4.32 2.15 4.32 2.15C4.32 2.15 4.01 2.13 3.95 2.25C3.9 2.36 3.8 1.89 3.8 1.89Z" stroke="rgba(119,161,48,0.72)" stroke-width="0.01" fill="rgba(170,230,69,0.6)"/>
  <path d="M2.86 3.14C2.86 3.14 3.15 3.27 3.24 3.19C3.33 3.11 3.25 3.57 3.25 3.57C3.25 3.57 2.97 3.44 2.88 3.52C2.78 3.61 2.86 3.14 2.86 3.14Z" stroke="rgba(119,161,48,0.72)" stroke-width="0.01" fill="rgba(170,230,69,0.6)"/>
  <path d="M1.54 3.96C1.54 3.96 1.76 4.19 1.87 4.14C1.99 4.1 1.74 4.5 1.74 4.5C1.74 4.5 1.52 4.28 1.41 4.32C1.29 4.37 1.54 3.96 1.54 3.96Z" stroke="rgba(119,161,48,0.72)" stroke-width="0.01" fill="rgba(170,230,69,0.6)"/>
  <path d="M0 5.04L0.05574011830880313 5.254709331289264L0 5.472546921975233L-0.05574011830880313 5.254709331289264Z" stroke="rgba(65,161,48,0.72)" stroke-width="0.01" fill="rgba(92,230,69,0.6)"/>
  <path d="M-2.19 4.54L-2.22971282134628 4.758514248318645L-2.3744491210028977 4.930594404834895L-2.3301530439251383 4.710144786417287Z" stroke="rgba(65,161,48,0.72)" stroke-width="0.01" fill="rgba(92,230,69,0.6)"/>
  <path d="M-3.94 3.14L-4.073543791100537 3.3198370591210966L-4.27860947288375 3.4120771960449607L-4.143050581740413 3.2326783004604667Z" stroke="rgba(65,161,48,0.72)" stroke-width="0.01" fill="rgba(92,230,69,0.6)"/>
  <path d="M-4.91 1.12L-5.110559454291278 1.2236254252350167L-5.33533874495838 1.2177562521976828L-5.135366140661099 1.1149402308998781Z" stroke="rgba(65,161,48,0.72)" stroke-width="0.01" fill="rgba(92,230,69,0.6)"/>
  <path d="M-4.91 -1.12L-5.135366140661099 -1.1149402308998777L-5.33533874495838 -1.2177562521976821L-5.110559454291278 -1.2236254252350163Z" stroke="rgba(65,161,48,0.72)" stroke-width="0.01" fill="rgba(92,230,69,0.6)"/>
  <path d="M-3.94 -3.14L-4.143050581740411 -3.2326783004604676L-4.278609472883749 -3.412077196044962L-4.073543791100535 -3.3198370591210975Z" stroke="rgba(65,161,48,0.72)" stroke-width="0.01" fill="rgba(92,230,69,0.6)"/>
  <path d="M-2.19 -4.54L-2.330153043925139 -4.7101447864172865L-2.3744491210028986 -4.930594404834894L-2.2297128213462805 -4.758514248318644Z" stroke="rgba(65,161,48,0.72)" stroke-width="0.01" fill="rgba(92,230,69,0.6)"/>
  <path d="M0 -5.04L-0.05574011830880377 -5.254709331289264L-6.70193707118067e-16 -5.472546921975233L0.05574011830880248 -5.254709331289264Z" stroke="rgba(65,161,48,0.72)" stroke-width="0.01" fill="rgba(92,230,69,0.6)"/>
  <path d="M2.19 -4.54L2.2297128213462796 -4.758514248318645L2.3744491210028973 -4.930594404834895L2.330153043925138 -4.710144786417287Z" stroke="rgba(65,161,48,0.72)" stroke-width="0.01" fill="rgba(92,230,69,0.6)"/>
  <path d="M3.94 -3.14L4.073543791100539 -3.319837059121093L4.278609472883753 -3.412077196044957L4.143050581740415 -3.232678300460463Z" stroke="rgba(65,161,48,0.72)" stroke-width="0.01" fill="rgba(92,230,69,0.6)"/>
  <path d="M4.91 -1.12L5.110559454291279 -1.223625425235013L5.3353387449583805 -1.2177562521976788L5.1353661406611 -1.1149402308998744Z" stroke="rgba(65,161,48,0.72)" stroke-width="0.01" fill="rgba(92,230,69,0.6)"/>
  <path d="M4.91 1.12L5.135366140661099 1.114940230899877L5.33533874495838 1.2177562521976817L5.110559454291278 1.2236254252350156Z" stroke="rgba(65,161,48,0.72)" stroke-width="0.01" fill="rgba(92,230,69,0.6)"/>
  <path d="M3.94 3.14L4.143050581740413 3.2326783004604653L4.278609472883751 3.4120771960449594L4.073543791100537 3.3198370591210953Z" stroke="rgba(65,161,48,0.72)" stroke-width="0.01" fill="rgba(92,230,69,0.6)"/>
  <path d="M2.19 4.54L2.3301530439251397 4.7101447864172865L2.374449121002899 4.930594404834894L2.2297128213462813 4.758514248318644Z" stroke="rgba(65,161,48,0.72)" stroke-width="0.01" fill="rgba(92,230,69,0.6)"/>
  <path d="M0 5.68C0.07 5.68 0.13 5.74 0.13 5.81C0.13 5.88 0.07 5.93 0 5.93C-0.07 5.93 -0.13 5.88 -0.13 5.81C-0.13 5.74 -0.07 5.68 0 5.68Z" stroke="rgba(161,114,48,0.72)" stroke-width="0.01" fill="rgba(230,163,69,0.6)"/>
  <path d="M-2.31 5.19C-2.25 5.22 -2.22 5.29 -2.25 5.36C-2.27 5.42 -2.35 5.45 -2.41 5.42C-2.48 5.39 -2.51 5.32 -2.48 5.25C-2.45 5.19 -2.37 5.16 -2.31 5.19Z" stroke="rgba(161,114,48,0.72)" stroke-width="0.01" fill="rgba(230,163,69,0.6)"/>
  <path d="M-4.22 3.8C-4.17 3.85 -4.18 3.93 -4.23 3.98C-4.28 4.03 -4.36 4.02 -4.41 3.97C-4.46 3.92 -4.45 3.84 -4.4 3.79C-4.35 3.74 -4.27 3.75 -4.22 3.8Z" stroke="rgba(161,114,48,0.72)" stroke-width="0.01" fill="rgba(230,163,69,0.6)"/>
  <path d="M-5.4 1.76C-5.38 1.82 -5.42 1.89 -5.48 1.92C-5.55 1.94 -5.62 1.9 -5.64 1.83C-5.67 1.77 -5.63 1.7 -5.56 1.67C-5.5 1.65 -5.42 1.69 -5.4 1.76Z" stroke="rgba(161,114,48,0.72)" stroke-width="0.01" fill="rgba(230,163,69,0.6)"/>
  <path d="M-5.65 -0.59C-5.66 -0.52 -5.72 -0.47 -5.79 -0.48C-5.86 -0.49 -5.91 -0.55 -5.9 -0.62C-5.89 -0.69 -5.83 -0.74 -5.76 -0.73C-5.69 -0.73 -5.64 -0.66 -5.65 -0.59Z" stroke="rgba(161,114,48,0.72)" stroke-width="0.01" fill="rgba(230,163,69,0.6)"/>
  <path d="M-4.92 -2.84C-4.95 -2.78 -5.03 -2.76 -5.09 -2.79C-5.15 -2.83 -5.17 -2.91 -5.14 -2.97C-5.1 -3.03 -5.03 -3.05 -4.97 -3.01C-4.9 -2.98 -4.88 -2.9 -4.92 -2.84Z" stroke="rgba(161,114,48,0.72)" stroke-width="0.01" fill="rgba(230,163,69,0.6)"/>
  <path d="M-3.34 -4.6C-3.4 -4.55 -3.48 -4.57 -3.52 -4.62C-3.56 -4.68 -3.55 -4.76 -3.49 -4.8C-3.43 -4.84 -3.35 -4.83 -3.31 -4.77C-3.27 -4.72 -3.28 -4.64 -3.34 -4.6Z" stroke="rgba(161,114,48,0.72)" stroke-width="0.01" fill="rgba(230,163,69,0.6)"/>
  <path d="M-1.18 -5.56C-1.25 -5.54 -1.32 -5.59 -1.33 -5.65C-1.35 -5.72 -1.3 -5.79 -1.23 -5.81C-1.17 -5.82 -1.1 -5.78 -1.08 -5.71C-1.07 -5.64 -1.11 -5.57 -1.18 -5.56Z" stroke="rgba(161,114,48,0.72)" stroke-width="0.01" fill="rgba(230,163,69,0.6)"/>
  <path d="M1.18 -5.56C1.11 -5.57 1.07 -5.64 1.08 -5.71C1.1 -5.78 1.17 -5.82 1.23 -5.81C1.3 -5.79 1.35 -5.72 1.33 -5.65C1.32 -5.59 1.25 -5.54 1.18 -5.56Z" stroke="rgba(161,114,48,0.72)" stroke-width="0.01" fill="rgba(230,163,69,0.6)"/>
  <path d="M3.34 -4.6C3.28 -4.64 3.27 -4.72 3.31 -4.77C3.35 -4.83 3.43 -4.84 3.49 -4.8C3.55 -4.76 3.56 -4.68 3.52 -4.62C3.48 -4.57 3.4 -4.55 3.34 -4.6Z" stroke="rgba(161,114,48,0.72)" stroke-width="0.01" fill="rgba(230,163,69,0.6)"/>
  <path d="M4.92 -2.84C4.88 -2.9 4.9 -2.98 4.97 -3.01C5.03 -3.05 5.1 -3.03 5.14 -2.97C5.17 -2.91 5.15 -2.83 5.09 -2.79C5.03 -2.76 4.95 -2.78 4.92 -2.84Z" stroke="rgba(161,114,48,0.72)" stroke-width="0.01" fill="rgba(230,163,69,0.6)"/>
  <path d="M5.65 -0.59C5.64 -0.66 5.69 -0.73 5.76 -0.73C5.83 -0.74 5.89 -0.69 5.9 -0.62C5.91 -0.55 5.86 -0.49 5.79 -0.48C5.72 -0.47 5.66 -0.52 5.65 -0.59Z" stroke="rgba(161,114,48,0.72)" stroke-width="0.01" fill="rgba(230,163,69,0.6)"/>
  <path d="M5.4 1.76C5.42 1.69 5.5 1.65 5.56 1.67C5.63 1.7 5.67 1.77 5.64 1.83C5.62 1.9 5.55 1.94 5.48 1.92C5.42 1.89 5.38 1.82 5.4 1.76Z" stroke="rgba(161,114,48,0.72)" stroke-width="0.01" fill="rgba(230,163,69,0.6)"/>
  <path d="M4.22 3.8C4.27 3.75 4.35 3.74 4.4 3.79C4.45 3.84 4.46 3.92 4.41 3.97C4.36 4.02 4.28 4.03 4.23 3.98C4.18 3.93 4.17 3.85 4.22 3.8Z" stroke="rgba(161,114,48,0.72)" stroke-width="0.01" fill="rgba(230,163,69,0.6)"/>
  <path d="M2.31 5.19C2.37 5.16 2.45 5.19 2.48 5.25C2.51 5.32 2.48 5.39 2.41 5.42C2.35 5.45 2.27 5.42 2.25 5.36C2.22 5.29 2.25 5.22 2.31 5.19Z" stroke="rgba(161,114,48,0.72)" stroke-width="0.01" fill="rgba(230,163,69,0.6)"/>
  <path d="M-6.1 -6.01L6.103008443328729 -6.007931274059412L6.103008443328729 6.134811995186289L-6.10300844332873 6.134811995186289Z" stroke="none" fill="none"/>
</svg>
