<svg xmlns="http://www.w3.org/2000/svg" viewBox="-6.103 -6.0079 12.206 12.1427">
  <path d="M-6.103 -6.0079L6.103008443328729 -6.007931274059412L6.103008443328729 6.134811995186289L-6.10300844332873 6.134811995186289Z" stroke="none" fill="#FFFFFF"/>
  <path d="M-1.34 -0.4036L-1.34 -0.40361111111111114L-1.34 -0.40361111111111114L-1.34 -0.40361111111111114L-1.5950000000000002 0.10338888888888892L-1.856 -0.40361111111111114L-1.856 -0.40361111111111114L-1.856 -0.40361111111111114L-1.9060000000000001 -0.40361111111111114L-1.9060000000000001 -0.40361111111111114L-1.9060000000000001 -0.40361111111111114L-1.9060000000000001 0.3953888888888889L-1.856 0.3953888888888889L-1.856 -0.29661111111111116L-1.594 0.2313888888888889L-1.34 -0.29361111111111116L-1.34 0.3953888888888889L-1.2910000000000001 0.3953888888888889L-1.2910000000000001 -0.40361111111111114L-1.34 -0.40361111111111114ZM-0.872 -0.1936C-0.942 -0.1936 -1.0038 -0.1639 -1.0575 -0.1046C-1.1112 -0.0453 -1.138 0.0257 -1.138 0.1084C-1.138 0.2017 -1.1137 0.2754 -1.065 0.3294C-1.0163 0.3834 -0.952 0.4104 -0.872 0.4104C-0.7887 0.4104 -0.7235 0.3837 -0.6765 0.3304C-0.6295 0.2771 -0.606 0.2031 -0.606 0.1084C-0.606 0.0257 -0.6327 -0.0453 -0.686 -0.1046C-0.7393 -0.1639 -0.8013 -0.1936 -0.872 -0.1936ZM-0.871 0.3604C-0.9357 0.3604 -0.9877 0.3379 -1.027 0.2929C-1.0663 0.2479 -1.086 0.1864 -1.086 0.1084C-1.086 0.0397 -1.0643 -0.0194 -1.021 -0.0691C-0.9777 -0.1188 -0.9277 -0.1436 -0.871 -0.1436C-0.8143 -0.1436 -0.7643 -0.1188 -0.721 -0.0691C-0.6777 -0.0194 -0.656 0.0397 -0.656 0.1084C-0.656 0.1851 -0.676 0.2462 -0.716 0.2919C-0.756 0.3376 -0.8077 0.3604 -0.871 0.3604ZM-0.243 -0.1936C-0.313 -0.1936 -0.3748 -0.1639 -0.4285 -0.1046C-0.4822 -0.0453 -0.509 0.0257 -0.509 0.1084C-0.509 0.2017 -0.4847 0.2754 -0.436 0.3294C-0.3873 0.3834 -0.323 0.4104 -0.243 0.4104C-0.1597 0.4104 -0.0945 0.3837 -0.0475 0.3304C-0.0005 0.2771 0.023 0.2031 0.023 0.1084C0.023 0.0257 -0.0037 -0.0453 -0.057 -0.1046C-0.1103 -0.1639 -0.1723 -0.1936 -0.243 -0.1936ZM-0.242 0.3604C-0.3067 0.3604 -0.3587 0.3379 -0.398 0.2929C-0.4373 0.2479 -0.457 0.1864 -0.457 0.1084C-0.457 0.0397 -0.4353 -0.0194 -0.392 -0.0691C-0.3487 -0.1188 -0.2987 -0.1436 -0.242 -0.1436C-0.1853 -0.1436 -0.1353 -0.1188 -0.092 -0.0691C-0.0487 -0.0194 -0.027 0.0397 -0.027 0.1084C-0.027 0.1851 -0.047 0.2462 -0.087 0.2919C-0.127 0.3376 -0.1787 0.3604 -0.242 0.3604ZM0.635 -0.0896C0.6157 -0.1223 0.5937 -0.1464 0.569 -0.1621C0.5443 -0.1778 0.5097 -0.1893 0.465 -0.1966C0.4537 -0.1979 0.442 -0.1986 0.43 -0.1986C0.388 -0.1986 0.3482 -0.1876 0.3105 -0.1656C0.2728 -0.1436 0.2417 -0.1146 0.217 -0.0786L0.21700000000000008 -0.18161111111111106L0.16699999999999982 -0.18161111111111106L0.16699999999999982 0.3963888888888889L0.21700000000000008 0.3963888888888889L0.21700000000000008 0.0803888888888889C0.217 0.0124 0.2433 -0.0449 0.296 -0.0916C0.3393 -0.1296 0.3853 -0.1486 0.434 -0.1486C0.4413 -0.1486 0.4487 -0.1479 0.456 -0.1466C0.492 -0.1406 0.5193 -0.1316 0.538 -0.1196C0.5567 -0.1076 0.5737 -0.0879 0.589 -0.0606C0.609 -0.0273 0.619 0.0211 0.619 0.0844L0.6189999999999998 0.0843888888888889L0.6189999999999998 0.3963888888888889L0.6709999999999998 0.3963888888888889L0.6709999999999998 0.0843888888888889C0.671 0.0097 0.659 -0.0483 0.635 -0.0896ZM1.301 0.1474C1.299 0.0967 1.281 0.0537 1.247 0.0184C1.2177 -0.0116 1.1803 -0.0336 1.135 -0.0476C1.203 -0.0803 1.2347 -0.1436 1.23 -0.2376C1.228 -0.2896 1.2027 -0.3319 1.154 -0.3646C1.1127 -0.3926 1.0667 -0.4076 1.016 -0.4096C0.9967 -0.4103 0.9777 -0.4106 0.959 -0.4106C0.9003 -0.4106 0.8527 -0.4079 0.816 -0.4026L0.815 -0.40261111111111114L0.815 -0.40261111111111114L0.815 -0.40261111111111114L0.815 0.3963888888888889L0.8159999999999998 0.3963888888888889L0.8159999999999998 0.3963888888888889C0.886 0.4071 0.955 0.4117 1.023 0.4104C1.1363 0.4071 1.2143 0.3787 1.257 0.3254C1.2897 0.2847 1.3043 0.2254 1.301 0.1474L1.3009999999999997 0.1473888888888889ZM1.004 0.3594C0.9653 0.3601 0.919 0.3581 0.865 0.3534L0.8649999999999998 -0.01361111111111113L1.044 -0.01361111111111113C1.094 -0.0136 1.1393 -0.0003 1.18 0.0264C1.2273 0.0577 1.2523 0.0991 1.255 0.1504C1.2577 0.2131 1.2443 0.2601 1.215 0.2914C1.1763 0.3341 1.106 0.3567 1.004 0.3594L1.004 0.3593888888888889ZM0.991 -0.3656C1.0363 -0.3643 1.0773 -0.3526 1.114 -0.3306C1.1573 -0.3053 1.18 -0.2729 1.182 -0.2336C1.188 -0.1203 1.1177 -0.0636 0.971 -0.0636L0.8649999999999998 -0.06361111111111112L0.8649999999999998 -0.3646111111111111C0.9043 -0.3666 0.9463 -0.3669 0.991 -0.3656ZM1.444 -0.1826L1.444 0.3973888888888889L1.4939999999999998 0.3973888888888889L1.4939999999999998 -0.18261111111111106L1.444 -0.18261111111111106ZM1.494 -0.3296L1.444 -0.3296111111111111L1.444 -0.27961111111111114L1.4939999999999998 -0.27961111111111114L1.4939999999999998 -0.3296111111111111ZM1.799 0.3434C1.7803 0.3267 1.7687 0.2964 1.764 0.2524C1.7627 0.2397 1.7617 0.1947 1.761 0.1174C1.7597 0.0341 1.7597 -0.0489 1.761 -0.1316L1.8900000000000001 -0.13161111111111112L1.8900000000000001 -0.18161111111111106L1.7610000000000001 -0.18161111111111106L1.7610000000000001 -0.27861111111111114L1.7109999999999999 -0.27861111111111114L1.7109999999999999 -0.18161111111111106L1.6269999999999998 -0.18161111111111106L1.6269999999999998 -0.13161111111111112L1.7109999999999999 -0.13161111111111112C1.7097 -0.0476 1.7097 0.0364 1.711 0.1204C1.7123 0.2057 1.714 0.2577 1.716 0.2764C1.722 0.3231 1.737 0.3567 1.761 0.3774C1.7757 0.3901 1.7987 0.3981 1.83 0.4014C1.8413 0.4027 1.8667 0.4034 1.906 0.4034L1.9060000000000001 0.36038888888888887C1.85 0.3617 1.8143 0.3561 1.799 0.3434Z" stroke="none" fill="#000000"/>
  <path d="M0 2.106C0 2.106 0.1223 2.2601 0.2445 2.2601C0.3668 2.2601 0 2.4141 0 2.4141C0 2.4141 -0.1223 2.2601 -0.2445 2.2601C-0.3668 2.2601 0 2.106 0 2.106Z" stroke="rgba(52,161,48,0.72)" stroke-width="0.01" fill="rgba(75,230,69,0.6)"/>
  <path d="M-0.8566 1.9239C-0.8566 1.9239 -0.8076 2.1144 -0.6959 2.1641C-0.5842 2.2138 -0.9819 2.2054 -0.9819 2.2054C-0.9819 2.2054 -1.0309 2.015 -1.1426 1.9652C-1.2543 1.9155 -0.8566 1.9239 -0.8566 1.9239Z" stroke="rgba(52,161,48,0.72)" stroke-width="0.01" fill="rgba(75,230,69,0.6)"/>
  <path d="M-1.5651 1.4092C-1.5651 1.4092 -1.5978 1.6031 -1.516 1.694C-1.4342 1.7848 -1.7941 1.6154 -1.7941 1.6154C-1.7941 1.6154 -1.7614 1.4214 -1.8432 1.3306C-1.925 1.2397 -1.5651 1.4092 -1.5651 1.4092Z" stroke="rgba(52,161,48,0.72)" stroke-width="0.01" fill="rgba(75,230,69,0.6)"/>
  <path d="M-2.0029 0.6508C-2.0029 0.6508 -2.1117 0.8147 -2.0739 0.9309C-2.0361 1.0472 -2.296 0.746 -2.296 0.746C-2.296 0.746 -2.1872 0.5821 -2.225 0.4659C-2.2628 0.3496 -2.0029 0.6508 -2.0029 0.6508Z" stroke="rgba(52,161,48,0.72)" stroke-width="0.01" fill="rgba(75,230,69,0.6)"/>
  <path d="M-2.0945 -0.2201C-2.0945 -0.2201 -2.2605 -0.1147 -2.2732 0.0069C-2.286 0.1285 -2.4009 -0.2523 -2.4009 -0.2523C-2.4009 -0.2523 -2.2349 -0.3578 -2.2221 -0.4794C-2.2094 -0.601 -2.0945 -0.2201 -2.0945 -0.2201Z" stroke="rgba(52,161,48,0.72)" stroke-width="0.01" fill="rgba(75,230,69,0.6)"/>
  <path d="M-1.8238 -1.053C-1.8238 -1.053 -2.0184 -1.0242 -2.0795 -0.9183C-2.1407 -0.8124 -2.0907 -1.2071 -2.0907 -1.2071C-2.0907 -1.2071 -1.8962 -1.2359 -1.835 -1.3418C-1.7739 -1.4476 -1.8238 -1.053 -1.8238 -1.053Z" stroke="rgba(52,161,48,0.72)" stroke-width="0.01" fill="rgba(75,230,69,0.6)"/>
  <path d="M-1.2379 -1.7038C-1.2379 -1.7038 -1.4273 -1.7566 -1.5262 -1.6847C-1.6251 -1.6129 -1.419 -1.9531 -1.419 -1.9531C-1.419 -1.9531 -1.2295 -1.9003 -1.1306 -1.9721C-1.0317 -2.044 -1.2379 -1.7038 -1.2379 -1.7038Z" stroke="rgba(52,161,48,0.72)" stroke-width="0.01" fill="rgba(75,230,69,0.6)"/>
  <path d="M-0.4379 -2.06C-0.4379 -2.06 -0.5895 -2.1853 -0.7091 -2.1598C-0.8286 -2.1344 -0.5019 -2.3614 -0.5019 -2.3614C-0.5019 -2.3614 -0.3503 -2.2361 -0.2307 -2.2615C-0.1112 -2.2869 -0.4379 -2.06 -0.4379 -2.06Z" stroke="rgba(52,161,48,0.72)" stroke-width="0.01" fill="rgba(75,230,69,0.6)"/>
  <path d="M0.4379 -2.06C0.4379 -2.06 0.3503 -2.2361 0.2307 -2.2615C0.1112 -2.2869 0.5019 -2.3614 0.5019 -2.3614C0.5019 -2.3614 0.5895 -2.1853 0.7091 -2.1598C0.8286 -2.1344 0.4379 -2.06 0.4379 -2.06Z" stroke="rgba(52,161,48,0.72)" stroke-width="0.01" fill="rgba(75,230,69,0.6)"/>
  <path d="M1.2379 -1.7038C1.2379 -1.7038 1.2295 -1.9003 1.1306 -1.9721C1.0317 -2.044 1.419 -1.9531 1.419 -1.9531C1.419 -1.9531 1.4273 -1.7566 1.5262 -1.6847C1.6251 -1.6129 1.2379 -1.7038 1.2379 -1.7038Z" stroke="rgba(52,161,48,0.72)" stroke-width="0.01" fill="rgba(75,230,69,0.6)"/>
  <path d="M1.8238 -1.053C1.8238 -1.053 1.8962 -1.2359 1.835 -1.3418C1.7739 -1.4476 2.0907 -1.2071 2.0907 -1.2071C2.0907 -1.2071 2.0184 -1.0242 2.0795 -0.9183C2.1407 -0.8124 1.8238 -1.053 1.8238 -1.053Z" stroke="rgba(52,161,48,0.72)" stroke-width="0.01" fill="rgba(75,230,69,0.6)"/>
  <path d="M2.0945 -0.2201C2.0945 -0.2201 2.2349 -0.3578 2.2221 -0.4794C2.2094 -0.601 2.4009 -0.2523 2.4009 -0.2523C2.4009 -0.2523 2.2605 -0.1147 2.2732 0.0069C2.286 0.1285 2.0945 -0.2201 2.0945 -0.2201Z" stroke="rgba(52,161,48,0.72)" stroke-width="0.01" fill="rgba(75,230,69,0.6)"/>
  <path d="M2.0029 0.6508C2.0029 0.6508 2.1872 0.5821 2.225 0.4659C2.2628 0.3496 2.296 0.746 2.296 0.746C2.296 0.746 2.1117 0.8147 2.0739 0.9309C2.0361 1.0472 2.0029 0.6508 2.0029 0.6508Z" stroke="rgba(52,161,48,0.72)" stroke-width="0.01" fill="rgba(75,230,69,0.6)"/>
  <path d="M1.5651 1.4092C1.5651 1.4092 1.7614 1.4214 1.8432 1.3306C1.925 1.2397 1.7941 1.6154 1.7941 1.6154C1.7941 1.6154 1.5978 1.6031 1.516 1.694C1.4342 1.7848 1.5651 1.4092 1.5651 1.4092Z" stroke="rgba(52,161,48,0.72)" stroke-width="0.01" fill="rgba(75,230,69,0.6)"/>
  <path d="M0.8566 1.9239C0.8566 1.9239 1.0309 2.015 1.1426 1.9652C1.2543 1.9155 0.9819 2.2054 0.9819 2.2054C0.9819 2.2054 0.8076 2.1144 0.6959 2.1641C0.5842 2.2138 0.8566 1.9239 0.8566 1.9239Z" stroke="rgba(52,161,48,0.72)" stroke-width="0.01" fill="rgba(75,230,69,0.6)"/>
  <path d="M0 2.9058L0.062212738586688764 3.020429875469967L0 3.135101241114131L-0.062212738586688764 3.020429875469967Z" stroke="rgba(161,48,120,0.72)" stroke-width="0.01" fill="rgba(230,69,171,0.6)"/>
  <path d="M-2.0547 2.0547L-2.091775397712419 2.179757496374087L-2.2168513472981632 2.2168513472981637L-2.1797574963740867 2.0917753977124196Z" stroke="rgba(161,48,120,0.72)" stroke-width="0.01" fill="rgba(230,69,171,0.6)"/>
  <path d="M-2.9058 0L-3.020429875469967 0.06221273858668895L-3.135101241114131 1.9196958499666575e-16L-3.020429875469967 -0.062212738586688576Z" stroke="rgba(161,48,120,0.72)" stroke-width="0.01" fill="rgba(230,69,171,0.6)"/>
  <path d="M-2.0547 -2.0547L-2.179757496374087 -2.091775397712419L-2.2168513472981637 -2.2168513472981632L-2.0917753977124196 -2.1797574963740867Z" stroke="rgba(161,48,120,0.72)" stroke-width="0.01" fill="rgba(230,69,171,0.6)"/>
  <path d="M0 -2.9058L-0.06221273858668913 -3.020429875469967L-3.839391699933315e-16 -3.135101241114131L0.062212738586688396 -3.020429875469967Z" stroke="rgba(161,48,120,0.72)" stroke-width="0.01" fill="rgba(230,69,171,0.6)"/>
  <path d="M2.0547 -2.0547L2.091775397712419 -2.179757496374087L2.2168513472981632 -2.216851347298164L2.1797574963740867 -2.0917753977124196Z" stroke="rgba(161,48,120,0.72)" stroke-width="0.01" fill="rgba(230,69,171,0.6)"/>
  <path d="M2.9058 0L3.020429875469967 -0.06221273858668932L3.135101241114131 -5.759087549899972e-16L3.020429875469967 0.06221273858668821Z" stroke="rgba(161,48,120,0.72)" stroke-width="0.01" fill="rgba(230,69,171,0.6)"/>
  <path d="M2.0547 2.0547L2.179757496374087 2.0917753977124187L2.216851347298164 2.216851347298163L2.0917753977124196 2.1797574963740862Z" stroke="rgba(161,48,120,0.72)" stroke-width="0.01" fill="rgba(230,69,171,0.6)"/>
  <path d="M0 3.4744C0.0814 3.4744 0.1474 3.5404 0.1474 3.6219C0.1474 3.7033 0.0814 3.7693 0 3.7693C-0.0814 3.7693 -0.1474 3.7033 -0.1474 3.6219C-0.1474 3.5404 -0.0814 3.4744 0 3.4744Z" stroke="rgba(114,161,48,0.72)" stroke-width="0.01" fill="rgba(162,230,69,0.6)"/>
  <path d="M-1.6146 3.0764C-1.5425 3.1143 -1.5148 3.2034 -1.5526 3.2755C-1.5904 3.3476 -1.6796 3.3754 -1.7517 3.3376C-1.8238 3.2997 -1.8516 3.2106 -1.8137 3.1385C-1.7759 3.0664 -1.6867 3.0386 -1.6146 3.0764Z" stroke="rgba(114,161,48,0.72)" stroke-width="0.01" fill="rgba(162,230,69,0.6)"/>
  <path d="M-2.8594 1.9737C-2.8131 2.0407 -2.83 2.1325 -2.897 2.1788C-2.964 2.2251 -3.0558 2.2082 -3.1021 2.1412C-3.1483 2.0742 -3.1315 1.9824 -3.0645 1.9361C-2.9975 1.8898 -2.9056 1.9067 -2.8594 1.9737Z" stroke="rgba(114,161,48,0.72)" stroke-width="0.01" fill="rgba(162,230,69,0.6)"/>
  <path d="M-3.4491 0.4188C-3.4393 0.4996 -3.4968 0.5731 -3.5777 0.5829C-3.6585 0.5928 -3.732 0.5352 -3.7418 0.4543C-3.7516 0.3735 -3.6941 0.3 -3.6132 0.2902C-3.5324 0.2804 -3.4589 0.338 -3.4491 0.4188Z" stroke="rgba(114,161,48,0.72)" stroke-width="0.01" fill="rgba(162,230,69,0.6)"/>
  <path d="M-3.2486 -1.232C-3.2775 -1.1559 -3.3626 -1.1176 -3.4388 -1.1465C-3.5149 -1.1753 -3.5532 -1.2605 -3.5244 -1.3366C-3.4955 -1.4128 -3.4103 -1.4511 -3.3342 -1.4222C-3.2581 -1.3933 -3.2198 -1.3082 -3.2486 -1.232Z" stroke="rgba(114,161,48,0.72)" stroke-width="0.01" fill="rgba(162,230,69,0.6)"/>
  <path d="M-2.304 -2.6006C-2.3649 -2.5466 -2.4581 -2.5523 -2.5121 -2.6132C-2.5661 -2.6742 -2.5605 -2.7674 -2.4995 -2.8214C-2.4386 -2.8754 -2.3454 -2.8697 -2.2914 -2.8088C-2.2374 -2.7478 -2.243 -2.6546 -2.304 -2.6006Z" stroke="rgba(114,161,48,0.72)" stroke-width="0.01" fill="rgba(162,230,69,0.6)"/>
  <path d="M-0.8315 -3.3734C-0.9105 -3.354 -0.9904 -3.4023 -1.0099 -3.4813C-1.0294 -3.5604 -0.9811 -3.6403 -0.9021 -3.6598C-0.823 -3.6793 -0.7431 -3.631 -0.7236 -3.5519C-0.7041 -3.4728 -0.7524 -3.3929 -0.8315 -3.3734Z" stroke="rgba(114,161,48,0.72)" stroke-width="0.01" fill="rgba(162,230,69,0.6)"/>
  <path d="M0.8315 -3.3734C0.7524 -3.3929 0.7041 -3.4728 0.7236 -3.5519C0.7431 -3.631 0.823 -3.6793 0.9021 -3.6598C0.9811 -3.6403 1.0294 -3.5604 1.0099 -3.4813C0.9904 -3.4023 0.9105 -3.354 0.8315 -3.3734Z" stroke="rgba(114,161,48,0.72)" stroke-width="0.01" fill="rgba(162,230,69,0.6)"/>
  <path d="M2.304 -2.6006C2.243 -2.6546 2.2374 -2.7478 2.2914 -2.8088C2.3454 -2.8697 2.4386 -2.8754 2.4995 -2.8214C2.5605 -2.7674 2.5661 -2.6742 2.5121 -2.6132C2.4581 -2.5523 2.3649 -2.5466 2.304 -2.6006Z" stroke="rgba(114,161,48,0.72)" stroke-width="0.01" fill="rgba(162,230,69,0.6)"/>
  <path d="M3.2486 -1.232C3.2198 -1.3082 3.2581 -1.3933 3.3342 -1.4222C3.4103 -1.4511 3.4955 -1.4128 3.5244 -1.3366C3.5532 -1.2605 3.5149 -1.1753 3.4388 -1.1465C3.3626 -1.1176 3.2775 -1.1559 3.2486 -1.232Z" stroke="rgba(114,161,48,0.72)" stroke-width="0.01" fill="rgba(162,230,69,0.6)"/>
  <path d="M3.4491 0.4188C3.4589 0.338 3.5324 0.2804 3.6132 0.2902C3.6941 0.3 3.7516 0.3735 3.7418 0.4543C3.732 0.5352 3.6585 0.5928 3.5777 0.5829C3.4968 0.5731 3.4393 0.4996 3.4491 0.4188Z" stroke="rgba(114,161,48,0.72)" stroke-width="0.01" fill="rgba(162,230,69,0.6)"/>
  <path d="M2.8594 1.9737C2.9056 1.9067 2.9975 1.8898 3.0645 1.9361C3.1315 1.9824 3.1483 2.0742 3.1021 2.1412C3.0558 2.2082 2.964 2.2251 2.897 2.1788C2.83 2.1325 2.8131 2.0407 2.8594 1.9737Z" stroke="rgba(114,161,48,0.72)" stroke-width="0.01" fill="rgba(162,230,69,0.6)"/>
  <path d="M1.6146 3.0764C1.6867 3.0386 1.7759 3.0664 1.8137 3.1385C1.8516 3.2106 1.8238 3.2997 1.7517 3.3376C1.6796 3.3754 1.5904 3.3476 1.5526 3.2755C1.5148 3.2034 1.5425 3.1143 1.6146 3.0764Z" stroke="rgba(114,161,48,0.72)" stroke-width="0.01" fill="rgba(162,230,69,0.6)"/>
  <path d="M0 4.2503C0 4.2503 0.1238 4.5404 0.2477 4.5404C0.3715 4.5404 0 4.8304 0 4.8304C0 4.8304 -0.1238 4.5404 -0.2477 4.5404C-0.3715 4.5404 0 4.2503 0 4.2503Z" stroke="rgba(119,161,48,0.72)" stroke-width="0.01" fill="rgba(170,230,69,0.6)"/>
  <path d="M-1.5354 3.9633C-1.5354 3.9633 -1.5247 4.2785 -1.4092 4.3232C-1.2937 4.368 -1.7449 4.5042 -1.7449 4.5042C-1.7449 4.5042 -1.7556 4.189 -1.8711 4.1443C-1.9866 4.0995 -1.5354 3.9633 -1.5354 3.9633Z" stroke="rgba(119,161,48,0.72)" stroke-width="0.01" fill="rgba(170,230,69,0.6)"/>
  <path d="M-2.8634 3.141C-2.8634 3.141 -2.9673 3.4388 -2.8758 3.5222C-2.7842 3.6057 -3.2542 3.5697 -3.2542 3.5697C-3.2542 3.5697 -3.1503 3.2719 -3.2419 3.1885C-3.3334 3.1051 -2.8634 3.141 -2.8634 3.141Z" stroke="rgba(119,161,48,0.72)" stroke-width="0.01" fill="rgba(170,230,69,0.6)"/>
  <path d="M-3.8047 1.8945C-3.8047 1.8945 -4.0092 2.1347 -3.954 2.2455C-3.8987 2.3564 -4.324 2.1531 -4.324 2.1531C-4.324 2.1531 -4.1196 1.9129 -4.1748 1.8021C-4.23 1.6912 -3.8047 1.8945 -3.8047 1.8945Z" stroke="rgba(119,161,48,0.72)" stroke-width="0.01" fill="rgba(170,230,69,0.6)"/>
  <path d="M-4.2322 0.3922C-4.2322 0.3922 -4.5096 0.5423 -4.4981 0.6656C-4.4867 0.7889 -4.8098 0.4457 -4.8098 0.4457C-4.8098 0.4457 -4.5324 0.2956 -4.5438 0.1723C-4.5553 0.049 -4.2322 0.3922 -4.2322 0.3922Z" stroke="rgba(119,161,48,0.72)" stroke-width="0.01" fill="rgba(170,230,69,0.6)"/>
  <path d="M-4.088 -1.1631C-4.088 -1.1631 -4.4009 -1.1234 -4.4348 -1.0043C-4.4687 -0.8852 -4.646 -1.3219 -4.646 -1.3219C-4.646 -1.3219 -4.3331 -1.3616 -4.2992 -1.4808C-4.2654 -1.5999 -4.088 -1.1631 -4.088 -1.1631Z" stroke="rgba(119,161,48,0.72)" stroke-width="0.01" fill="rgba(170,230,69,0.6)"/>
  <path d="M-3.3918 -2.5614C-3.3918 -2.5614 -3.6979 -2.6373 -3.7725 -2.5385C-3.8472 -2.4397 -3.8548 -2.911 -3.8548 -2.911C-3.8548 -2.911 -3.5486 -2.835 -3.474 -2.9338C-3.3994 -3.0327 -3.3918 -2.5614 -3.3918 -2.5614Z" stroke="rgba(119,161,48,0.72)" stroke-width="0.01" fill="rgba(170,230,69,0.6)"/>
  <path d="M-2.2375 -3.6137C-2.2375 -3.6137 -2.4955 -3.7951 -2.6008 -3.7299C-2.7061 -3.6647 -2.5429 -4.1069 -2.5429 -4.1069C-2.5429 -4.1069 -2.2849 -3.9255 -2.1796 -3.9907C-2.0743 -4.0559 -2.2375 -3.6137 -2.2375 -3.6137Z" stroke="rgba(119,161,48,0.72)" stroke-width="0.01" fill="rgba(170,230,69,0.6)"/>
  <path d="M-0.781 -4.1779C-0.781 -4.1779 -0.956 -4.4403 -1.0778 -4.4175C-1.1995 -4.3948 -0.8876 -4.7482 -0.8876 -4.7482C-0.8876 -4.7482 -0.7125 -4.4858 -0.5908 -4.5086C-0.4691 -4.5313 -0.781 -4.1779 -0.781 -4.1779Z" stroke="rgba(119,161,48,0.72)" stroke-width="0.01" fill="rgba(170,230,69,0.6)"/>
  <path d="M0.781 -4.1779C0.781 -4.1779 0.7125 -4.4858 0.5908 -4.5086C0.4691 -4.5313 0.8876 -4.7482 0.8876 -4.7482C0.8876 -4.7482 0.956 -4.4403 1.0778 -4.4175C1.1995 -4.3948 0.781 -4.1779 0.781 -4.1779Z" stroke="rgba(119,161,48,0.72)" stroke-width="0.01" fill="rgba(170,230,69,0.6)"/>
  <path d="M2.2375 -3.6137C2.2375 -3.6137 2.2849 -3.9255 2.1796 -3.9907C2.0743 -4.0559 2.5429 -4.1069 2.5429 -4.1069C2.5429 -4.1069 2.4955 -3.7951 2.6008 -3.7299C2.7061 -3.6647 2.2375 -3.6137 2.2375 -3.6137Z" stroke="rgba(119,161,48,0.72)" stroke-width="0.01" fill="rgba(170,230,69,0.6)"/>
  <path d="M3.3918 -2.5614C3.3918 -2.5614 3.5486 -2.835 3.474 -2.9338C3.3994 -3.0327 3.8548 -2.911 3.8548 -2.911C3.8548 -2.911 3.6979 -2.6373 3.7725 -2.5385C3.8472 -2.4397 3.3918 -2.5614 3.3918 -2.5614Z" stroke="rgba(119,161,48,0.72)" stroke-width="0.01" fill="rgba(170,230,69,0.6)"/>
  <path d="M4.088 -1.1631C4.088 -1.1631 4.3331 -1.3616 4.2992 -1.4808C4.2654 -1.5999 4.646 -1.3219 4.646 -1.3219C4.646 -1.3219 4.4009 -1.1234 4.4348 -1.0043C4.4687 -0.8852 4.088 -1.1631 4.088 -1.1631Z" stroke="rgba(119,161,48,0.72)" stroke-width="0.01" fill="rgba(170,230,69,0.6)"/>
  <path d="M4.2322 0.3922C4.2322 0.3922 4.5324 0.2956 4.5438 0.1723C4.5553 0.049 4.8098 0.4457 4.8098 0.4457C4.8098 0.4457 4.5096 0.5423 4.4981 0.6656C4.4867 0.7889 4.2322 0.3922 4.2322 0.3922Z" stroke="rgba(119,161,48,0.72)" stroke-width="0.01" fill="rgba(170,230,69,0.6)"/>
  <path d="M3.8047 1.8945C3.8047 1.8945 4.1196 1.9129 4.1748 1.8021C4.23 1.6912 4.324 2.1531 4.324 2.1531C4.324 2.1531 4.0092 2.1347 3.954 2.2455C3.8987 2.3564 3.8047 1.8945 3.8047 1.8945Z" stroke="rgba(119,161,48,0.72)" stroke-width="0.01" fill="rgba(170,230,69,0.6)"/>
  <path d="M2.8634 3.141C2.8634 3.141 3.1503 3.2719 3.2419 3.1885C3.3334 3.1051 3.2542 3.5697 3.2542 3.5697C3.2542 3.5697 2.9673 3.4388 2.8758 3.5222C2.7842 3.6057 2.8634 3.141 2.8634 3.141Z" stroke="rgba(119,161,48,0.72)" stroke-width="0.01" fill="rgba(170,230,69,0.6)"/>
  <path d="M1.5354 3.9633C1.5354 3.9633 1.7556 4.189 1.8711 4.1443C1.9866 4.0995 1.7449 4.5042 1.7449 4.5042C1.7449 4.5042 1.5247 4.2785 1.4092 4.3232C1.2937 4.368 1.5354 3.9633 1.5354 3.9633Z" stroke="rgba(119,161,48,0.72)" stroke-width="0.01" fill="rgba(170,230,69,0.6)"/>
  <path d="M0 5.0369L0.05574011830880313 5.254709331289264L0 5.472546921975233L-0.05574011830880313 5.254709331289264Z" stroke="rgba(65,161,48,0.72)" stroke-width="0.01" fill="rgba(92,230,69,0.6)"/>
  <path d="M-2.1854 4.5381L-2.22971282134628 4.758514248318645L-2.3744491210028977 4.930594404834895L-2.3301530439251383 4.710144786417287Z" stroke="rgba(65,161,48,0.72)" stroke-width="0.01" fill="rgba(92,230,69,0.6)"/>
  <path d="M-3.938 3.1404L-4.073543791100537 3.3198370591210966L-4.27860947288375 3.4120771960449607L-4.143050581740413 3.2326783004604667Z" stroke="rgba(65,161,48,0.72)" stroke-width="0.01" fill="rgba(92,230,69,0.6)"/>
  <path d="M-4.9106 1.1208L-5.110559454291278 1.2236254252350167L-5.33533874495838 1.2177562521976828L-5.135366140661099 1.1149402308998781Z" stroke="rgba(65,161,48,0.72)" stroke-width="0.01" fill="rgba(92,230,69,0.6)"/>
  <path d="M-4.9106 -1.1208L-5.135366140661099 -1.1149402308998777L-5.33533874495838 -1.2177562521976821L-5.110559454291278 -1.2236254252350163Z" stroke="rgba(65,161,48,0.72)" stroke-width="0.01" fill="rgba(92,230,69,0.6)"/>
  <path d="M-3.938 -3.1404L-4.143050581740411 -3.2326783004604676L-4.278609472883749 -3.412077196044962L-4.073543791100535 -3.3198370591210975Z" stroke="rgba(65,161,48,0.72)" stroke-width="0.01" fill="rgba(92,230,69,0.6)"/>
  <path d="M-2.1854 -4.5381L-2.330153043925139 -4.7101447864172865L-2.3744491210028986 -4.930594404834894L-2.2297128213462805 -4.758514248318644Z" stroke="rgba(65,161,48,0.72)" stroke-width="0.01" fill="rgba(92,230,69,0.6)"/>
  <path d="M0 -5.0369L-0.05574011830880377 -5.254709331289264L-6.70193707118067e-16 -5.472546921975233L0.05574011830880248 -5.254709331289264Z" stroke="rgba(65,161,48,0.72)" stroke-width="0.01" fill="rgba(92,230,69,0.6)"/>
  <path d="M2.1854 -4.5381L2.2297128213462796 -4.758514248318645L2.3744491210028973 -4.930594404834895L2.330153043925138 -4.710144786417287Z" stroke="rgba(65,161,48,0.72)" stroke-width="0.01" fill="rgba(92,230,69,0.6)"/>
  <path d="M3.938 -3.1404L4.073543791100539 -3.319837059121093L4.278609472883753 -3.412077196044957L4.143050581740415 -3.232678300460463Z" stroke="rgba(65,161,48,0.72)" stroke-width="0.01" fill="rgba(92,230,69,0.6)"/>
  <path d="M4.9106 -1.1208L5.110559454291279 -1.223625425235013L5.3353387449583805 -1.2177562521976788L5.1353661406611 -1.1149402308998744Z" stroke="rgba(65,161,48,0.72)" stroke-width="0.01" fill="rgba(92,230,69,0.6)"/>
  <path d="M4.9106 1.1208L5.135366140661099 1.114940230899877L5.33533874495838 1.2177562521976817L5.110559454291278 1.2236254252350156Z" stroke="rgba(65,161,48,0.72)" stroke-width="0.01" fill="rgba(92,230,69,0.6)"/>
  <path d="M3.938 3.1404L4.143050581740413 3.2326783004604653L4.278609472883751 3.4120771960449594L4.073543791100537 3.3198370591210953Z" stroke="rgba(65,161,48,0.72)" stroke-width="0.01" fill="rgba(92,230,69,0.6)"/>
  <path d="M2.1854 4.5381L2.3301530439251397 4.7101447864172865L2.374449121002899 4.930594404834894L2.2297128213462813 4.758514248318644Z" stroke="rgba(65,161,48,0.72)" stroke-width="0.01" fill="rgba(92,230,69,0.6)"/>
  <path d="M0 5.6801C0.0703 5.6801 0.1274 5.7371 0.1274 5.8075C0.1274 5.8778 0.0703 5.9348 0 5.9348C-0.0703 5.9348 -0.1274 5.8778 -0.1274 5.8075C-0.1274 5.7371 -0.0703 5.6801 0 5.6801Z" stroke="rgba(161,114,48,0.72)" stroke-width="0.01" fill="rgba(230,163,69,0.6)"/>
  <path d="M-2.3103 5.189C-2.246 5.2176 -2.2172 5.2929 -2.2458 5.3572C-2.2744 5.4214 -2.3497 5.4503 -2.4139 5.4217C-2.4782 5.3931 -2.5071 5.3178 -2.4785 5.2536C-2.4498 5.1893 -2.3746 5.1604 -2.3103 5.189Z" stroke="rgba(161,114,48,0.72)" stroke-width="0.01" fill="rgba(230,163,69,0.6)"/>
  <path d="M-4.2211 3.8007C-4.1741 3.853 -4.1783 3.9335 -4.2306 3.9806C-4.2828 4.0277 -4.3634 4.0234 -4.4104 3.9712C-4.4575 3.9189 -4.4533 3.8384 -4.401 3.7913C-4.3487 3.7442 -4.2682 3.7485 -4.2211 3.8007Z" stroke="rgba(161,114,48,0.72)" stroke-width="0.01" fill="rgba(230,163,69,0.6)"/>
  <path d="M-5.4021 1.7552C-5.3804 1.8221 -5.417 1.894 -5.4839 1.9157C-5.5508 1.9375 -5.6226 1.9009 -5.6443 1.834C-5.6661 1.7671 -5.6295 1.6952 -5.5626 1.6735C-5.4957 1.6517 -5.4238 1.6884 -5.4021 1.7552Z" stroke="rgba(161,114,48,0.72)" stroke-width="0.01" fill="rgba(230,163,69,0.6)"/>
  <path d="M-5.649 -0.5937C-5.6563 -0.5238 -5.719 -0.473 -5.789 -0.4804C-5.8589 -0.4877 -5.9097 -0.5504 -5.9023 -0.6204C-5.8949 -0.6903 -5.8323 -0.7411 -5.7623 -0.7337C-5.6924 -0.7263 -5.6416 -0.6637 -5.649 -0.5937Z" stroke="rgba(161,114,48,0.72)" stroke-width="0.01" fill="rgba(230,163,69,0.6)"/>
  <path d="M-4.9191 -2.8401C-4.9543 -2.7791 -5.0322 -2.7583 -5.0931 -2.7934C-5.154 -2.8286 -5.1749 -2.9065 -5.1397 -2.9674C-5.1045 -3.0283 -5.0266 -3.0492 -4.9657 -3.014C-4.9048 -2.9789 -4.8839 -2.901 -4.9191 -2.8401Z" stroke="rgba(161,114,48,0.72)" stroke-width="0.01" fill="rgba(230,163,69,0.6)"/>
  <path d="M-3.3387 -4.5953C-3.3956 -4.554 -3.4752 -4.5666 -3.5166 -4.6235C-3.5579 -4.6804 -3.5453 -4.76 -3.4884 -4.8014C-3.4315 -4.8427 -3.3518 -4.8301 -3.3105 -4.7732C-3.2692 -4.7163 -3.2818 -4.6366 -3.3387 -4.5953Z" stroke="rgba(161,114,48,0.72)" stroke-width="0.01" fill="rgba(230,163,69,0.6)"/>
  <path d="M-1.181 -5.556C-1.2498 -5.5414 -1.3174 -5.5853 -1.332 -5.6541C-1.3466 -5.7229 -1.3027 -5.7905 -1.2339 -5.8051C-1.1651 -5.8197 -1.0975 -5.7758 -1.0829 -5.707C-1.0682 -5.6382 -1.1122 -5.5706 -1.181 -5.556Z" stroke="rgba(161,114,48,0.72)" stroke-width="0.01" fill="rgba(230,163,69,0.6)"/>
  <path d="M1.181 -5.556C1.1122 -5.5706 1.0682 -5.6382 1.0829 -5.707C1.0975 -5.7758 1.1651 -5.8197 1.2339 -5.8051C1.3027 -5.7905 1.3466 -5.7229 1.332 -5.6541C1.3174 -5.5853 1.2498 -5.5414 1.181 -5.556Z" stroke="rgba(161,114,48,0.72)" stroke-width="0.01" fill="rgba(230,163,69,0.6)"/>
  <path d="M3.3387 -4.5953C3.2818 -4.6366 3.2692 -4.7163 3.3105 -4.7732C3.3518 -4.8301 3.4315 -4.8427 3.4884 -4.8014C3.5453 -4.76 3.5579 -4.6804 3.5166 -4.6235C3.4752 -4.5666 3.3956 -4.554 3.3387 -4.5953Z" stroke="rgba(161,114,48,0.72)" stroke-width="0.01" fill="rgba(230,163,69,0.6)"/>
  <path d="M4.9191 -2.8401C4.8839 -2.901 4.9048 -2.9789 4.9657 -3.014C5.0266 -3.0492 5.1045 -3.0283 5.1397 -2.9674C5.1749 -2.9065 5.154 -2.8286 5.0931 -2.7934C5.0322 -2.7583 4.9543 -2.7791 4.9191 -2.8401Z" stroke="rgba(161,114,48,0.72)" stroke-width="0.01" fill="rgba(230,163,69,0.6)"/>
  <path d="M5.649 -0.5937C5.6416 -0.6637 5.6924 -0.7263 5.7623 -0.7337C5.8323 -0.7411 5.8949 -0.6903 5.9023 -0.6204C5.9097 -0.5504 5.8589 -0.4877 5.789 -0.4804C5.719 -0.473 5.6563 -0.5238 5.649 -0.5937Z" stroke="rgba(161,114,48,0.72)" stroke-width="0.01" fill="rgba(230,163,69,0.6)"/>
  <path d="M5.4021 1.7552C5.4238 1.6884 5.4957 1.6517 5.5626 1.6735C5.6295 1.6952 5.6661 1.7671 5.6443 1.834C5.6226 1.9009 5.5508 1.9375 5.4839 1.9157C5.417 1.894 5.3804 1.8221 5.4021 1.7552Z" stroke="rgba(161,114,48,0.72)" stroke-width="0.01" fill="rgba(230,163,69,0.6)"/>
  <path d="M4.2211 3.8007C4.2682 3.7485 4.3487 3.7442 4.401 3.7913C4.4533 3.8384 4.4575 3.9189 4.4104 3.9712C4.3634 4.0234 4.2828 4.0277 4.2306 3.9806C4.1783 3.9335 4.1741 3.853 4.2211 3.8007Z" stroke="rgba(161,114,48,0.72)" stroke-width="0.01" fill="rgba(230,163,69,0.6)"/>
  <path d="M2.3103 5.189C2.3746 5.1604 2.4498 5.1893 2.4785 5.2536C2.5071 5.3178 2.4782 5.3931 2.4139 5.4217C2.3497 5.4503 2.2744 5.4214 2.2458 5.3572C2.2172 5.2929 2.246 5.2176 2.3103 5.189Z" stroke="rgba(161,114,48,0.72)" stroke-width="0.01" fill="rgba(230,163,69,0.6)"/>
  <path d="M-6.103 -6.0079L6.103008443328729 -6.007931274059412L6.103008443328729 6.134811995186289L-6.10300844332873 6.134811995186289Z" stroke="none" fill="none"/>
</svg>
