<svg xmlns="http://www.w3.org/2000/svg" viewBox="0 0 8 8">
  <path d="M0 8L1 8L1 7L0 7Z" stroke="none" fill="#000000"/>
  <path d="M0.5 7.975C0.7623 7.975 0.975 7.7623 0.975 7.5C0.975 7.2377 0.7623 7.025 0.5 7.025C0.2377 7.025 0.025 7.2377 0.025 7.5C0.025 7.7623 0.2377 7.975 0.5 7.975Z" stroke="none" fill="#666666"/>
  <path d="M0.5 7.9C0.7209 7.9 0.9 7.7209 0.9 7.5C0.9 7.2791 0.7209 7.1 0.5 7.1C0.2791 7.1 0.1 7.2791 0.1 7.5C0.1 7.7209 0.2791 7.9 0.5 7.9Z" stroke="none" fill="#1A1A1A"/>
  <path d="M1 8L2 8L2 7L1 7Z" stroke="none" fill="#FF0000"/>
  <path d="M2 8L3 8L3 7L2 7Z" stroke="none" fill="#000000"/>
  <path d="M2.5 7.975C2.7623 7.975 2.975 7.7623 2.975 7.5C2.975 7.2377 2.7623 7.025 2.5 7.025C2.2377 7.025 2.025 7.2377 2.025 7.5C2.025 7.7623 2.2377 7.975 2.5 7.975Z" stroke="none" fill="#666666"/>
  <path d="M2.5 7.9C2.7209 7.9 2.9 7.7209 2.9 7.5C2.9 7.2791 2.7209 7.1 2.5 7.1C2.2791 7.1 2.1 7.2791 2.1 7.5C2.1 7.7209 2.2791 7.9 2.5 7.9Z" stroke="none" fill="#1A1A1A"/>
  <path d="M3 8L4 8L4 7L3 7Z" stroke="none" fill="#FF0000"/>
  <path d="M4 8L5 8L5 7L4 7Z" stroke="none" fill="#000000"/>
  <path d="M4.5 7.975C4.7623 7.975 4.975 7.7623 4.975 7.5C4.975 7.2377 4.7623 7.025 4.5 7.025C4.2377 7.025 4.025 7.2377 4.025 7.5C4.025 7.7623 4.2377 7.975 4.5 7.975Z" stroke="none" fill="#666666"/>
  <path d="M4.5 7.9C4.7209 7.9 4.9 7.7209 4.9 7.5C4.9 7.2791 4.7209 7.1 4.5 7.1C4.2791 7.1 4.1 7.2791 4.1 7.5C4.1 7.7209 4.2791 7.9 4.5 7.9Z" stroke="none" fill="#1A1A1A"/>
  <path d="M5 8L6 8L6 7L5 7Z" stroke="none" fill="#FF0000"/>
  <path d="M6 8L7 8L7 7L6 7Z" stroke="none" fill="#000000"/>
  <path d="M6.5 7.975C6.7623 7.975 6.975 7.7623 6.975 7.5C6.975 7.2377 6.7623 7.025 6.5 7.025C6.2377 7.025 6.025 7.2377 6.025 7.5C6.025 7.7623 6.2377 7.975 6.5 7.975Z" stroke="none" fill="#666666"/>
  <path d="M6.5 7.9C6.7209 7.9 6.9 7.7209 6.9 7.5C6.9 7.2791 6.7209 7.1 6.5 7.1C6.2791 7.1 6.1 7.2791 6.1 7.5C6.1 7.7209 6.2791 7.9 6.5 7.9Z" stroke="none" fill="#1A1A1A"/>
  <path d="M7 8L8 8L8 7L7 7Z" stroke="none" fill="#FF0000"/>
  <path d="M0 7L1 7L1 6L0 6Z" stroke="none" fill="#FF0000"/>
  <path d="M1 7L2 7L2 6L1 6Z" stroke="none" fill="#000000"/>
  <path d="M1.5 6.975C1.7623 6.975 1.975 6.7623 1.975 6.5C1.975 6.2377 1.7623 6.025 1.5 6.025C1.2377 6.025 1.025 6.2377 1.025 6.5C1.025 6.7623 1.2377 6.975 1.5 6.975Z" stroke="none" fill="#666666"/>
  <path d="M1.5 6.9C1.7209 6.9 1.9 6.7209 1.9 6.5C1.9 6.2791 1.7209 6.1 1.5 6.1C1.2791 6.1 1.1 6.2791 1.1 6.5C1.1 6.7209 1.2791 6.9 1.5 6.9Z" stroke="none" fill="#1A1A1A"/>
  <path d="M2 7L3 7L3 6L2 6Z" stroke="none" fill="#FF0000"/>
  <path d="M3 7L4 7L4 6L3 6Z" stroke="none" fill="#000000"/>
  <path d="M3.5 6.975C3.7623 6.975 3.975 6.7623 3.975 6.5C3.975 6.2377 3.7623 6.025 3.5 6.025C3.2377 6.025 3.025 6.2377 3.025 6.5C3.025 6.7623 3.2377 6.975 3.5 6.975Z" stroke="none" fill="#666666"/>
  <path d="M3.5 6.9C3.7209 6.9 3.9 6.7209 3.9 6.5C3.9 6.2791 3.7209 6.1 3.5 6.1C3.2791 6.1 3.1 6.2791 3.1 6.5C3.1 6.7209 3.2791 6.9 3.5 6.9Z" stroke="none" fill="#1A1A1A"/>
  <path d="M4 7L5 7L5 6L4 6Z" stroke="none" fill="#FF0000"/>
  <path d="M5 7L6 7L6 6L5 6Z" stroke="none" fill="#000000"/>
  <path d="M5.5 6.975C5.7623 6.975 5.975 6.7623 5.975 6.5C5.975 6.2377 5.7623 6.025 5.5 6.025C5.2377 6.025 5.025 6.2377 5.025 6.5C5.025 6.7623 5.2377 6.975 5.5 6.975Z" stroke="none" fill="#666666"/>
  <path d="M5.5 6.9C5.7209 6.9 5.9 6.7209 5.9 6.5C5.9 6.2791 5.7209 6.1 5.5 6.1C5.2791 6.1 5.1 6.2791 5.1 6.5C5.1 6.7209 5.2791 6.9 5.5 6.9Z" stroke="none" fill="#1A1A1A"/>
  <path d="M6 7L7 7L7 6L6 6Z" stroke="none" fill="#FF0000"/>
  <path d="M7 7L8 7L8 6L7 6Z" stroke="none" fill="#000000"/>
  <path d="M7.5 6.975C7.7623 6.975 7.975 6.7623 7.975 6.5C7.975 6.2377 7.7623 6.025 7.5 6.025C7.2377 6.025 7.025 6.2377 7.025 6.5C7.025 6.7623 7.2377 6.975 7.5 6.975Z" stroke="none" fill="#666666"/>
  <path d="M7.5 6.9C7.7209 6.9 7.9 6.7209 7.9 6.5C7.9 6.2791 7.7209 6.1 7.5 6.1C7.2791 6.1 7.1 6.2791 7.1 6.5C7.1 6.7209 7.2791 6.9 7.5 6.9Z" stroke="none" fill="#1A1A1A"/>
  <path d="M0 6L1 6L1 5L0 5Z" stroke="none" fill="#000000"/>
  <path d="M0.5 5.975C0.7623 5.975 0.975 5.7623 0.975 5.5C0.975 5.2377 0.7623 5.025 0.5 5.025C0.2377 5.025 0.025 5.2377 0.025 5.5C0.025 5.7623 0.2377 5.975 0.5 5.975Z" stroke="none" fill="#666666"/>
  <path d="M0.5 5.9C0.7209 5.9 0.9 5.7209 0.9 5.5C0.9 5.2791 0.7209 5.1 0.5 5.1C0.2791 5.1 0.1 5.2791 0.1 5.5C0.1 5.7209 0.2791 5.9 0.5 5.9Z" stroke="none" fill="#1A1A1A"/>
  <path d="M1 6L2 6L2 5L1 5Z" stroke="none" fill="#FF0000"/>
  <path d="M2 6L3 6L3 5L2 5Z" stroke="none" fill="#000000"/>
  <path d="M2.5 5.975C2.7623 5.975 2.975 5.7623 2.975 5.5C2.975 5.2377 2.7623 5.025 2.5 5.025C2.2377 5.025 2.025 5.2377 2.025 5.5C2.025 5.7623 2.2377 5.975 2.5 5.975Z" stroke="none" fill="#666666"/>
  <path d="M2.5 5.9C2.7209 5.9 2.9 5.7209 2.9 5.5C2.9 5.2791 2.7209 5.1 2.5 5.1C2.2791 5.1 2.1 5.2791 2.1 5.5C2.1 5.7209 2.2791 5.9 2.5 5.9Z" stroke="none" fill="#1A1A1A"/>
  <path d="M3 6L4 6L4 5L3 5Z" stroke="none" fill="#FF0000"/>
  <path d="M4 6L5 6L5 5L4 5Z" stroke="none" fill="#000000"/>
  <path d="M4.5 5.975C4.7623 5.975 4.975 5.7623 4.975 5.5C4.975 5.2377 4.7623 5.025 4.5 5.025C4.2377 5.025 4.025 5.2377 4.025 5.5C4.025 5.7623 4.2377 5.975 4.5 5.975Z" stroke="none" fill="#666666"/>
  <path d="M4.5 5.9C4.7209 5.9 4.9 5.7209 4.9 5.5C4.9 5.2791 4.7209 5.1 4.5 5.1C4.2791 5.1 4.1 5.2791 4.1 5.5C4.1 5.7209 4.2791 5.9 4.5 5.9Z" stroke="none" fill="#1A1A1A"/>
  <path d="M5 6L6 6L6 5L5 5Z" stroke="none" fill="#FF0000"/>
  <path d="M6 6L7 6L7 5L6 5Z" stroke="none" fill="#000000"/>
  <path d="M6.5 5.975C6.7623 5.975 6.975 5.7623 6.975 5.5C6.975 5.2377 6.7623 5.025 6.5 5.025C6.2377 5.025 6.025 5.2377 6.025 5.5C6.025 5.7623 6.2377 5.975 6.5 5.975Z" stroke="none" fill="#666666"/>
  <path d="M6.5 5.9C6.7209 5.9 6.9 5.7209 6.9 5.5C6.9 5.2791 6.7209 5.1 6.5 5.1C6.2791 5.1 6.1 5.2791 6.1 5.5C6.1 5.7209 6.2791 5.9 6.5 5.9Z" stroke="none" fill="#1A1A1A"/>
  <path d="M7 6L8 6L8 5L7 5Z" stroke="none" fill="#FF0000"/>
  <path d="M0 5L1 5L1 4L0 4Z" stroke="none" fill="#FF0000"/>
  <path d="M1 5L2 5L2 4L1 4Z" stroke="none" fill="#000000"/>
  <path d="M2 5L3 5L3 4L2 4Z" stroke="none" fill="#FF0000"/>
  <path d="M3 5L4 5L4 4L3 4Z" stroke="none" fill="#000000"/>
  <path d="M4 5L5 5L5 4L4 4Z" stroke="none" fill="#FF0000"/>
  <path d="M5 5L6 5L6 4L5 4Z" stroke="none" fill="#000000"/>
  <path d="M6 5L7 5L7 4L6 4Z" stroke="none" fill="#FF0000"/>
  <path d="M7 5L8 5L8 4L7 4Z" stroke="none" fill="#000000"/>
  <path d="M0 4L1 4L1 3L0 3Z" stroke="none" fill="#000000"/>
  <path d="M1 4L2 4L2 3L1 3Z" stroke="none" fill="#FF0000"/>
  <path d="M2 4L3 4L3 3L2 3Z" stroke="none" fill="#000000"/>
  <path d="M3 4L4 4L4 3L3 3Z" stroke="none" fill="#FF0000"/>
  <path d="M4 4L5 4L5 3L4 3Z" stroke="none" fill="#000000"/>
  <path d="M5 4L6 4L6 3L5 3Z" stroke="none" fill="#FF0000"/>
  <path d="M6 4L7 4L7 3L6 3Z" stroke="none" fill="#000000"/>
  <path d="M7 4L8 4L8 3L7 3Z" stroke="none" fill="#FF0000"/>
  <path d="M0 3L1 3L1 2L0 2Z" stroke="none" fill="#FF0000"/>
  <path d="M1 3L2 3L2 2L1 2Z" stroke="none" fill="#000000"/>
  <path d="M1.5 2.975C1.7623 2.975 1.975 2.7623 1.975 2.5C1.975 2.2377 1.7623 2.025 1.5 2.025C1.2377 2.025 1.025 2.2377 1.025 2.5C1.025 2.7623 1.2377 2.975 1.5 2.975Z" stroke="none" fill="#CC0000"/>
  <path d="M1.5 2.9C1.7209 2.9 1.9 2.7209 1.9 2.5C1.9 2.2791 1.7209 2.1 1.5 2.1C1.2791 2.1 1.1 2.2791 1.1 2.5C1.1 2.7209 1.2791 2.9 1.5 2.9Z" stroke="none" fill="#800000"/>
  <path d="M2 3L3 3L3 2L2 2Z" stroke="none" fill="#FF0000"/>
  <path d="M3 3L4 3L4 2L3 2Z" stroke="none" fill="#000000"/>
  <path d="M3.5 2.975C3.7623 2.975 3.975 2.7623 3.975 2.5C3.975 2.2377 3.7623 2.025 3.5 2.025C3.2377 2.025 3.025 2.2377 3.025 2.5C3.025 2.7623 3.2377 2.975 3.5 2.975Z" stroke="none" fill="#CC0000"/>
  <path d="M3.5 2.9C3.7209 2.9 3.9 2.7209 3.9 2.5C3.9 2.2791 3.7209 2.1 3.5 2.1C3.2791 2.1 3.1 2.2791 3.1 2.5C3.1 2.7209 3.2791 2.9 3.5 2.9Z" stroke="none" fill="#800000"/>
  <path d="M4 3L5 3L5 2L4 2Z" stroke="none" fill="#FF0000"/>
  <path d="M5 3L6 3L6 2L5 2Z" stroke="none" fill="#000000"/>
  <path d="M5.5 2.975C5.7623 2.975 5.975 2.7623 5.975 2.5C5.975 2.2377 5.7623 2.025 5.5 2.025C5.2377 2.025 5.025 2.2377 5.025 2.5C5.025 2.7623 5.2377 2.975 5.5 2.975Z" stroke="none" fill="#CC0000"/>
  <path d="M5.5 2.9C5.7209 2.9 5.9 2.7209 5.9 2.5C5.9 2.2791 5.7209 2.1 5.5 2.1C5.2791 2.1 5.1 2.2791 5.1 2.5C5.1 2.7209 5.2791 2.9 5.5 2.9Z" stroke="none" fill="#800000"/>
  <path d="M6 3L7 3L7 2L6 2Z" stroke="none" fill="#FF0000"/>
  <path d="M7 3L8 3L8 2L7 2Z" stroke="none" fill="#000000"/>
  <path d="M7.5 2.975C7.7623 2.975 7.975 2.7623 7.975 2.5C7.975 2.2377 7.7623 2.025 7.5 2.025C7.2377 2.025 7.025 2.2377 7.025 2.5C7.025 2.7623 7.2377 2.975 7.5 2.975Z" stroke="none" fill="#CC0000"/>
  <path d="M7.5 2.9C7.7209 2.9 7.9 2.7209 7.9 2.5C7.9 2.2791 7.7209 2.1 7.5 2.1C7.2791 2.1 7.1 2.2791 7.1 2.5C7.1 2.7209 7.2791 2.9 7.5 2.9Z" stroke="none" fill="#800000"/>
  <path d="M0 2L1 2L1 1L0 1Z" stroke="none" fill="#000000"/>
  <path d="M0.5 1.975C0.7623 1.975 0.975 1.7623 0.975 1.5C0.975 1.2377 0.7623 1.025 0.5 1.025C0.2377 1.025 0.025 1.2377 0.025 1.5C0.025 1.7623 0.2377 1.975 0.5 1.975Z" stroke="none" fill="#CC0000"/>
  <path d="M0.5 1.9C0.7209 1.9 0.9 1.7209 0.9 1.5C0.9 1.2791 0.7209 1.1 0.5 1.1C0.2791 1.1 0.1 1.2791 0.1 1.5C0.1 1.7209 0.2791 1.9 0.5 1.9Z" stroke="none" fill="#800000"/>
  <path d="M1 2L2 2L2 1L1 1Z" stroke="none" fill="#FF0000"/>
  <path d="M2 2L3 2L3 1L2 1Z" stroke="none" fill="#000000"/>
  <path d="M2.5 1.975C2.7623 1.975 2.975 1.7623 2.975 1.5C2.975 1.2377 2.7623 1.025 2.5 1.025C2.2377 1.025 2.025 1.2377 2.025 1.5C2.025 1.7623 2.2377 1.975 2.5 1.975Z" stroke="none" fill="#CC0000"/>
  <path d="M2.5 1.9C2.7209 1.9 2.9 1.7209 2.9 1.5C2.9 1.2791 2.7209 1.1 2.5 1.1C2.2791 1.1 2.1 1.2791 2.1 1.5C2.1 1.7209 2.2791 1.9 2.5 1.9Z" stroke="none" fill="#800000"/>
  <path d="M3 2L4 2L4 1L3 1Z" stroke="none" fill="#FF0000"/>
  <path d="M4 2L5 2L5 1L4 1Z" stroke="none" fill="#000000"/>
  <path d="M4.5 1.975C4.7623 1.975 4.975 1.7623 4.975 1.5C4.975 1.2377 4.7623 1.025 4.5 1.025C4.2377 1.025 4.025 1.2377 4.025 1.5C4.025 1.7623 4.2377 1.975 4.5 1.975Z" stroke="none" fill="#CC0000"/>
  <path d="M4.5 1.9C4.7209 1.9 4.9 1.7209 4.9 1.5C4.9 1.2791 4.7209 1.1 4.5 1.1C4.2791 1.1 4.1 1.2791 4.1 1.5C4.1 1.7209 4.2791 1.9 4.5 1.9Z" stroke="none" fill="#800000"/>
  <path d="M5 2L6 2L6 1L5 1Z" stroke="none" fill="#FF0000"/>
  <path d="M6 2L7 2L7 1L6 1Z" stroke="none" fill="#000000"/>
  <path d="M6.5 1.975C6.7623 1.975 6.975 1.7623 6.975 1.5C6.975 1.2377 6.7623 1.025 6.5 1.025C6.2377 1.025 6.025 1.2377 6.025 1.5C6.025 1.7623 6.2377 1.975 6.5 1.975Z" stroke="none" fill="#CC0000"/>
  <path d="M6.5 1.9C6.7209 1.9 6.9 1.7209 6.9 1.5C6.9 1.2791 6.7209 1.1 6.5 1.1C6.2791 1.1 6.1 1.2791 6.1 1.5C6.1 1.7209 6.2791 1.9 6.5 1.9Z" stroke="none" fill="#800000"/>
  <path d="M7 2L8 2L8 1L7 1Z" stroke="none" fill="#FF0000"/>
  <path d="M0 1L1 1L1 0L0 0Z" stroke="none" fill="#FF0000"/>
  <path d="M1 1L2 1L2 0L1 0Z" stroke="none" fill="#000000"/>
  <path d="M1.5 0.975C1.7623 0.975 1.975 0.7623 1.975 0.5C1.975 0.2377 1.7623 0.025 1.5 0.025C1.2377 0.025 1.025 0.2377 1.025 0.5C1.025 0.7623 1.2377 0.975 1.5 0.975Z" stroke="none" fill="#CC0000"/>
  <path d="M1.5 0.9C1.7209 0.9 1.9 0.7209 1.9 0.5C1.9 0.2791 1.7209 0.1 1.5 0.1C1.2791 0.1 1.1 0.2791 1.1 0.5C1.1 0.7209 1.2791 0.9 1.5 0.9Z" stroke="none" fill="#800000"/>
  <path d="M2 1L3 1L3 0L2 0Z" stroke="none" fill="#FF0000"/>
  <path d="M3 1L4 1L4 0L3 0Z" stroke="none" fill="#000000"/>
  <path d="M3.5 0.975C3.7623 0.975 3.975 0.7623 3.975 0.5C3.975 0.2377 3.7623 0.025 3.5 0.025C3.2377 0.025 3.025 0.2377 3.025 0.5C3.025 0.7623 3.2377 0.975 3.5 0.975Z" stroke="none" fill="#CC0000"/>
  <path d="M3.5 0.9C3.7209 0.9 3.9 0.7209 3.9 0.5C3.9 0.2791 3.7209 0.1 3.5 0.1C3.2791 0.1 3.1 0.2791 3.1 0.5C3.1 0.7209 3.2791 0.9 3.5 0.9Z" stroke="none" fill="#800000"/>
  <path d="M4 1L5 1L5 0L4 0Z" stroke="none" fill="#FF0000"/>
  <path d="M5 1L6 1L6 0L5 0Z" stroke="none" fill="#000000"/>
  <path d="M5.5 0.975C5.7623 0.975 5.975 0.7623 5.975 0.5C5.975 0.2377 5.7623 0.025 5.5 0.025C5.2377 0.025 5.025 0.2377 5.025 0.5C5.025 0.7623 5.2377 0.975 5.5 0.975Z" stroke="none" fill="#CC0000"/>
  <path d="M5.5 0.9C5.7209 0.9 5.9 0.7209 5.9 0.5C5.9 0.2791 5.7209 0.1 5.5 0.1C5.2791 0.1 5.1 0.2791 5.1 0.5C5.1 0.7209 5.2791 0.9 5.5 0.9Z" stroke="none" fill="#800000"/>
  <path d="M6 1L7 1L7 0L6 0Z" stroke="none" fill="#FF0000"/>
  <path d="M7 1L8 1L8 0L7 0Z" stroke="none" fill="#000000"/>
  <path d="M7.5 0.975C7.7623 0.975 7.975 0.7623 7.975 0.5C7.975 0.2377 7.7623 0.025 7.5 0.025C7.2377 0.025 7.025 0.2377 7.025 0.5C7.025 0.7623 7.2377 0.975 7.5 0.975Z" stroke="none" fill="#CC0000"/>
  <path d="M7.5 0.9C7.7209 0.9 7.9 0.7209 7.9 0.5C7.9 0.2791 7.7209 0.1 7.5 0.1C7.2791 0.1 7.1 0.2791 7.1 0.5C7.1 0.7209 7.2791 0.9 7.5 0.9Z" stroke="none" fill="#800000"/>
</svg>
