<svg xmlns="http://www.w3.org/2000/svg" viewBox="0 0 8 8">
  <path d="M0 8L1 8L1 7L0 7Z" stroke="none" fill="#000000"/>
  <path d="M0.5 7.98C0.76 7.98 0.98 7.76 0.98 7.5C0.98 7.24 0.76 7.03 0.5 7.03C0.24 7.03 0.03 7.24 0.03 7.5C0.03 7.76 0.24 7.98 0.5 7.98Z" stroke="none" fill="#666666"/>
  <path d="M0.5 7.9C0.72 7.9 0.9 7.72 0.9 7.5C0.9 7.28 0.72 7.1 0.5 7.1C0.28 7.1 0.1 7.28 0.1 7.5C0.1 7.72 0.28 7.9 0.5 7.9Z" stroke="none" fill="#1A1A1A"/>
  <path d="M1 8L2 8L2 7L1 7Z" stroke="none" fill="#FF0000"/>
  <path d="M2 8L3 8L3 7L2 7Z" stroke="none" fill="#000000"/>
  <path d="M2.5 7.98C2.76 7.98 2.98 7.76 2.98 7.5C2.98 7.24 2.76 7.03 2.5 7.03C2.24 7.03 2.03 7.24 2.03 7.5C2.03 7.76 2.24 7.98 2.5 7.98Z" stroke="none" fill="#666666"/>
  <path d="M2.5 7.9C2.72 7.9 2.9 7.72 2.9 7.5C2.9 7.28 2.72 7.1 2.5 7.1C2.28 7.1 2.1 7.28 2.1 7.5C2.1 7.72 2.28 7.9 2.5 7.9Z" stroke="none" fill="#1A1A1A"/>
  <path d="M3 8L4 8L4 7L3 7Z" stroke="none" fill="#FF0000"/>
  <path d="M4 8L5 8L5 7L4 7Z" stroke="none" fill="#000000"/>
  <path d="M4.5 7.98C4.76 7.98 4.97 7.76 4.97 7.5C4.97 7.24 4.76 7.03 4.5 7.03C4.24 7.03 4.03 7.24 4.03 7.5C4.03 7.76 4.24 7.98 4.5 7.98Z" stroke="none" fill="#666666"/>
  <path d="M4.5 7.9C4.72 7.9 4.9 7.72 4.9 7.5C4.9 7.28 4.72 7.1 4.5 7.1C4.28 7.1 4.1 7.28 4.1 7.5C4.1 7.72 4.28 7.9 4.5 7.9Z" stroke="none" fill="#1A1A1A"/>
  <path d="M5 8L6 8L6 7L5 7Z" stroke="none" fill="#FF0000"/>
  <path d="M6 8L7 8L7 7L6 7Z" stroke="none" fill="#000000"/>
  <path d="M6.5 7.98C6.76 7.98 6.98 7.76 6.98 7.5C6.98 7.24 6.76 7.03 6.5 7.03C6.24 7.03 6.03 7.24 6.03 7.5C6.03 7.76 6.24 7.98 6.5 7.98Z" stroke="none" fill="#666666"/>
  <path d="M6.5 7.9C6.72 7.9 6.9 7.72 6.9 7.5C6.9 7.28 6.72 7.1 6.5 7.1C6.28 7.1 6.1 7.28 6.1 7.5C6.1 7.72 6.28 7.9 6.5 7.9Z" stroke="none" fill="#1A1A1A"/>
  <path d="M7 8L8 8L8 7L7 7Z" stroke="none" fill="#FF0000"/>
  <path d="M0 7L1 7L1 6L0 6Z" stroke="none" fill="#FF0000"/>
  <path d="M1 7L2 7L2 6L1 6Z" stroke="none" fill="#000000"/>
  <path d="M1.5 6.98C1.76 6.98 1.98 6.76 1.98 6.5C1.98 6.24 1.76 6.03 1.5 6.03C1.24 6.03 1.02 6.24 1.02 6.5C1.02 6.76 1.24 6.98 1.5 6.98Z" stroke="none" fill="#666666"/>
  <path d="M1.5 6.9C1.72 6.9 1.9 6.72 1.9 6.5C1.9 6.28 1.72 6.1 1.5 6.1C1.28 6.1 1.1 6.28 1.1 6.5C1.1 6.72 1.28 6.9 1.5 6.9Z" stroke="none" fill="#1A1A1A"/>
  <path d="M2 7L3 7L3 6L2 6Z" stroke="none" fill="#FF0000"/>
  <path d="M3 7L4 7L4 6L3 6Z" stroke="none" fill="#000000"/>
  <path d="M3.5 6.98C3.76 6.98 3.98 6.76 3.98 6.5C3.98 6.24 3.76 6.03 3.5 6.03C3.24 6.03 3.03 6.24 3.03 6.5C3.03 6.76 3.24 6.98 3.5 6.98Z" stroke="none" fill="#666666"/>
  <path d="M3.5 6.9C3.72 6.9 3.9 6.72 3.9 6.5C3.9 6.28 3.72 6.1 3.5 6.1C3.28 6.1 3.1 6.28 3.1 6.5C3.1 6.72 3.28 6.9 3.5 6.9Z" stroke="none" fill="#1A1A1A"/>
  <path d="M4 7L5 7L5 6L4 6Z" stroke="none" fill="#FF0000"/>
  <path d="M5 7L6 7L6 6L5 6Z" stroke="none" fill="#000000"/>
  <path d="M5.5 6.98C5.76 6.98 5.98 6.76 5.98 6.5C5.98 6.24 5.76 6.03 5.5 6.03C5.24 6.03 5.03 6.24 5.03 6.5C5.03 6.76 5.24 6.98 5.5 6.98Z" stroke="none" fill="#666666"/>
  <path d="M5.5 6.9C5.72 6.9 5.9 6.72 5.9 6.5C5.9 6.28 5.72 6.1 5.5 6.1C5.28 6.1 5.1 6.28 5.1 6.5C5.1 6.72 5.28 6.9 5.5 6.9Z" stroke="none" fill="#1A1A1A"/>
  <path d="M6 7L7 7L7 6L6 6Z" stroke="none" fill="#FF0000"/>
  <path d="M7 7L8 7L8 6L7 6Z" stroke="none" fill="#000000"/>
  <path d="M7.5 6.98C7.76 6.98 7.98 6.76 7.98 6.5C7.98 6.24 7.76 6.03 7.5 6.03C7.24 6.03 7.03 6.24 7.03 6.5C7.03 6.76 7.24 6.98 7.5 6.98Z" stroke="none" fill="#666666"/>
  <path d="M7.5 6.9C7.72 6.9 7.9 6.72 7.9 6.5C7.9 6.28 7.72 6.1 7.5 6.1C7.28 6.1 7.1 6.28 7.1 6.5C7.1 6.72 7.28 6.9 7.5 6.9Z" stroke="none" fill="#1A1A1A"/>
  <path d="M0 6L1 6L1 5L0 5Z" stroke="none" fill="#000000"/>
  <path d="M0.5 5.98C0.76 5.98 0.98 5.76 0.98 5.5C0.98 5.24 0.76 5.03 0.5 5.03C0.24 5.03 0.03 5.24 0.03 5.5C0.03 5.76 0.24 5.98 0.5 5.98Z" stroke="none" fill="#666666"/>
  <path d="M0.5 5.9C0.72 5.9 0.9 5.72 0.9 5.5C0.9 5.28 0.72 5.1 0.5 5.1C0.28 5.1 0.1 5.28 0.1 5.5C0.1 5.72 0.28 5.9 0.5 5.9Z" stroke="none" fill="#1A1A1A"/>
  <path d="M1 6L2 6L2 5L1 5Z" stroke="none" fill="#FF0000"/>
  <path d="M2 6L3 6L3 5L2 5Z" stroke="none" fill="#000000"/>
  <path d="M2.5 5.98C2.76 5.98 2.98 5.76 2.98 5.5C2.98 5.24 2.76 5.03 2.5 5.03C2.24 5.03 2.03 5.24 2.03 5.5C2.03 5.76 2.24 5.98 2.5 5.98Z" stroke="none" fill="#666666"/>
  <path d="M2.5 5.9C2.72 5.9 2.9 5.72 2.9 5.5C2.9 5.28 2.72 5.1 2.5 5.1C2.28 5.1 2.1 5.28 2.1 5.5C2.1 5.72 2.28 5.9 2.5 5.9Z" stroke="none" fill="#1A1A1A"/>
  <path d="M3 6L4 6L4 5L3 5Z" stroke="none" fill="#FF0000"/>
  <path d="M4 6L5 6L5 5L4 5Z" stroke="none" fill="#000000"/>
  <path d="M4.5 5.98C4.76 5.98 4.97 5.76 4.97 5.5C4.97 5.24 4.76 5.03 4.5 5.03C4.24 5.03 4.03 5.24 4.03 5.5C4.03 5.76 4.24 5.98 4.5 5.98Z" stroke="none" fill="#666666"/>
  <path d="M4.5 5.9C4.72 5.9 4.9 5.72 4.9 5.5C4.9 5.28 4.72 5.1 4.5 5.1C4.28 5.1 4.1 5.28 4.1 5.5C4.1 5.72 4.28 5.9 4.5 5.9Z" stroke="none" fill="#1A1A1A"/>
  <path d="M5 6L6 6L6 5L5 5Z" stroke="none" fill="#FF0000"/>
  <path d="M6 6L7 6L7 5L6 5Z" stroke="none" fill="#000000"/>
  <path d="M6.5 5.98C6.76 5.98 6.98 5.76 6.98 5.5C6.98 5.24 6.76 5.03 6.5 5.03C6.24 5.03 6.03 5.24 6.03 5.5C6.03 5.76 6.24 5.98 6.5 5.98Z" stroke="none" fill="#666666"/>
  <path d="M6.5 5.9C6.72 5.9 6.9 5.72 6.9 5.5C6.9 5.28 6.72 5.1 6.5 5.1C6.28 5.1 6.1 5.28 6.1 5.5C6.1 5.72 6.28 5.9 6.5 5.9Z" stroke="none" fill="#1A1A1A"/>
  <path d="M7 6L8 6L8 5L7 5Z" stroke="none" fill="#FF0000"/>
  <path d="M0 5L1 5L1 4L0 4Z" stroke="none" fill="#FF0000"/>
  <path d="M1 5L2 5L2 4L1 4Z" stroke="none" fill="#000000"/>
  <path d="M2 5L3 5L3 4L2 4Z" stroke="none" fill="#FF0000"/>
  <path d="M3 5L4 5L4 4L3 4Z" stroke="none" fill="#000000"/>
  <path d="M4 5L5 5L5 4L4 4Z" stroke="none" fill="#FF0000"/>
  <path d="M5 5L6 5L6 4L5 4Z" stroke="none" fill="#000000"/>
  <path d="M6 5L7 5L7 4L6 4Z" stroke="none" fill="#FF0000"/>
  <path d="M7 5L8 5L8 4L7 4Z" stroke="none" fill="#000000"/>
  <path d="M0 4L1 4L1 3L0 3Z" stroke="none" fill="#000000"/>
  <path d="M1 4L2 4L2 3L1 3Z" stroke="none" fill="#FF0000"/>
  <path d="M2 4L3 4L3 3L2 3Z" stroke="none" fill="#000000"/>
  <path d="M3 4L4 4L4 3L3 3Z" stroke="none" fill="#FF0000"/>
  <path d="M4 4L5 4L5 3L4 3Z" stroke="none" fill="#000000"/>
  <path d="M5 4L6 4L6 3L5 3Z" stroke="none" fill="#FF0000"/>
  <path d="M6 4L7 4L7 3L6 3Z" stroke="none" fill="#000000"/>
  <path d="M7 4L8 4L8 3L7 3Z" stroke="none" fill="#FF0000"/>
  <path d="M0 3L1 3L1 2L0 2Z" stroke="none" fill="#FF0000"/>
  <path d="M1 3L2 3L2 2L1 2Z" stroke="none" fill="#000000"/>
  <path d="M1.5 2.97C1.76 2.97 1.98 2.76 1.98 2.5C1.98 2.24 1.76 2.03 1.5 2.03C1.24 2.03 1.02 2.24 1.02 2.5C1.02 2.76 1.24 2.97 1.5 2.97Z" stroke="none" fill="#CC0000"/>
  <path d="M1.5 2.9C1.72 2.9 1.9 2.72 1.9 2.5C1.9 2.28 1.72 2.1 1.5 2.1C1.28 2.1 1.1 2.28 1.1 2.5C1.1 2.72 1.28 2.9 1.5 2.9Z" stroke="none" fill="#800000"/>
  <path d="M2 3L3 3L3 2L2 2Z" stroke="none" fill="#FF0000"/>
  <path d="M3 3L4 3L4 2L3 2Z" stroke="none" fill="#000000"/>
  <path d="M3.5 2.97C3.76 2.97 3.98 2.76 3.98 2.5C3.98 2.24 3.76 2.03 3.5 2.03C3.24 2.03 3.03 2.24 3.03 2.5C3.03 2.76 3.24 2.97 3.5 2.97Z" stroke="none" fill="#CC0000"/>
  <path d="M3.5 2.9C3.72 2.9 3.9 2.72 3.9 2.5C3.9 2.28 3.72 2.1 3.5 2.1C3.28 2.1 3.1 2.28 3.1 2.5C3.1 2.72 3.28 2.9 3.5 2.9Z" stroke="none" fill="#800000"/>
  <path d="M4 3L5 3L5 2L4 2Z" stroke="none" fill="#FF0000"/>
  <path d="M5 3L6 3L6 2L5 2Z" stroke="none" fill="#000000"/>
  <path d="M5.5 2.97C5.76 2.97 5.98 2.76 5.98 2.5C5.98 2.24 5.76 2.03 5.5 2.03C5.24 2.03 5.03 2.24 5.03 2.5C5.03 2.76 5.24 2.97 5.5 2.97Z" stroke="none" fill="#CC0000"/>
  <path d="M5.5 2.9C5.72 2.9 5.9 2.72 5.9 2.5C5.9 2.28 5.72 2.1 5.5 2.1C5.28 2.1 5.1 2.28 5.1 2.5C5.1 2.72 5.28 2.9 5.5 2.9Z" stroke="none" fill="#800000"/>
  <path d="M6 3L7 3L7 2L6 2Z" stroke="none" fill="#FF0000"/>
  <path d="M7 3L8 3L8 2L7 2Z" stroke="none" fill="#000000"/>
  <path d="M7.5 2.97C7.76 2.97 7.98 2.76 7.98 2.5C7.98 2.24 7.76 2.03 7.5 2.03C7.24 2.03 7.03 2.24 7.03 2.5C7.03 2.76 7.24 2.97 7.5 2.97Z" stroke="none" fill="#CC0000"/>
  <path d="M7.5 2.9C7.72 2.9 7.9 2.72 7.9 2.5C7.9 2.28 7.72 2.1 7.5 2.1C7.28 2.1 7.1 2.28 7.1 2.5C7.1 2.72 7.28 2.9 7.5 2.9Z" stroke="none" fill="#800000"/>
  <path d="M0 2L1 2L1 1L0 1Z" stroke="none" fill="#000000"/>
  <path d="M0.5 1.97C0.76 1.97 0.98 1.76 0.98 1.5C0.98 1.24 0.76 1.03 0.5 1.03C0.24 1.03 0.03 1.24 0.03 1.5C0.03 1.76 0.24 1.97 0.5 1.97Z" stroke="none" fill="#CC0000"/>
  <path d="M0.5 1.9C0.72 1.9 0.9 1.72 0.9 1.5C0.9 1.28 0.72 1.1 0.5 1.1C0.28 1.1 0.1 1.28 0.1 1.5C0.1 1.72 0.28 1.9 0.5 1.9Z" stroke="none" fill="#800000"/>
  <path d="M1 2L2 2L2 1L1 1Z" stroke="none" fill="#FF0000"/>
  <path d="M2 2L3 2L3 1L2 1Z" stroke="none" fill="#000000"/>
  <path d="M2.5 1.97C2.76 1.97 2.98 1.76 2.98 1.5C2.98 1.24 2.76 1.03 2.5 1.03C2.24 1.03 2.03 1.24 2.03 1.5C2.03 1.76 2.24 1.97 2.5 1.97Z" stroke="none" fill="#CC0000"/>
  <path d="M2.5 1.9C2.72 1.9 2.9 1.72 2.9 1.5C2.9 1.28 2.72 1.1 2.5 1.1C2.28 1.1 2.1 1.28 2.1 1.5C2.1 1.72 2.28 1.9 2.5 1.9Z" stroke="none" fill="#800000"/>
  <path d="M3 2L4 2L4 1L3 1Z" stroke="none" fill="#FF0000"/>
  <path d="M4 2L5 2L5 1L4 1Z" stroke="none" fill="#000000"/>
  <path d="M4.5 1.97C4.76 1.97 4.97 1.76 4.97 1.5C4.97 1.24 4.76 1.03 4.5 1.03C4.24 1.03 4.03 1.24 4.03 1.5C4.03 1.76 4.24 1.97 4.5 1.97Z" stroke="none" fill="#CC0000"/>
  <path d="M4.5 1.9C4.72 1.9 4.9 1.72 4.9 1.5C4.9 1.28 4.72 1.1 4.5 1.1C4.28 1.1 4.1 1.28 4.1 1.5C4.1 1.72 4.28 1.9 4.5 1.9Z" stroke="none" fill="#800000"/>
  <path d="M5 2L6 2L6 1L5 1Z" stroke="none" fill="#FF0000"/>
  <path d="M6 2L7 2L7 1L6 1Z" stroke="none" fill="#000000"/>
  <path d="M6.5 1.97C6.76 1.97 6.98 1.76 6.98 1.5C6.98 1.24 6.76 1.03 6.5 1.03C6.24 1.03 6.03 1.24 6.03 1.5C6.03 1.76 6.24 1.97 6.5 1.97Z" stroke="none" fill="#CC0000"/>
  <path d="M6.5 1.9C6.72 1.9 6.9 1.72 6.9 1.5C6.9 1.28 6.72 1.1 6.5 1.1C6.28 1.1 6.1 1.28 6.1 1.5C6.1 1.72 6.28 1.9 6.5 1.9Z" stroke="none" fill="#800000"/>
  <path d="M7 2L8 2L8 1L7 1Z" stroke="none" fill="#FF0000"/>
  <path d="M0 1L1 1L1 0L0 0Z" stroke="none" fill="#FF0000"/>
  <path d="M1 1L2 1L2 0L1 0Z" stroke="none" fill="#000000"/>
  <path d="M1.5 0.97C1.76 0.97 1.98 0.76 1.98 0.5C1.98 0.24 1.76 0.03 1.5 0.03C1.24 0.03 1.02 0.24 1.02 0.5C1.02 0.76 1.24 0.97 1.5 0.97Z" stroke="none" fill="#CC0000"/>
  <path d="M1.5 0.9C1.72 0.9 1.9 0.72 1.9 0.5C1.9 0.28 1.72 0.1 1.5 0.1C1.28 0.1 1.1 0.28 1.1 0.5C1.1 0.72 1.28 0.9 1.5 0.9Z" stroke="none" fill="#800000"/>
  <path d="M2 1L3 1L3 0L2 0Z" stroke="none" fill="#FF0000"/>
  <path d="M3 1L4 1L4 0L3 0Z" stroke="none" fill="#000000"/>
  <path d="M3.5 0.97C3.76 0.97 3.98 0.76 3.98 0.5C3.98 0.24 3.76 0.03 3.5 0.03C3.24 0.03 3.03 0.24 3.03 0.5C3.03 0.76 3.24 0.97 3.5 0.97Z" stroke="none" fill="#CC0000"/>
  <path d="M3.5 0.9C3.72 0.9 3.9 0.72 3.9 0.5C3.9 0.28 3.72 0.1 3.5 0.1C3.28 0.1 3.1 0.28 3.1 0.5C3.1 0.72 3.28 0.9 3.5 0.9Z" stroke="none" fill="#800000"/>
  <path d="M4 1L5 1L5 0L4 0Z" stroke="none" fill="#FF0000"/>
  <path d="M5 1L6 1L6 0L5 0Z" stroke="none" fill="#000000"/>
  <path d="M5.5 0.97C5.76 0.97 5.98 0.76 5.98 0.5C5.98 0.24 5.76 0.03 5.5 0.03C5.24 0.03 5.03 0.24 5.03 0.5C5.03 0.76 5.24 0.97 5.5 0.97Z" stroke="none" fill="#CC0000"/>
  <path d="M5.5 0.9C5.72 0.9 5.9 0.72 5.9 0.5C5.9 0.28 5.72 0.1 5.5 0.1C5.28 0.1 5.1 0.28 5.1 0.5C5.1 0.72 5.28 0.9 5.5 0.9Z" stroke="none" fill="#800000"/>
  <path d="M6 1L7 1L7 0L6 0Z" stroke="none" fill="#FF0000"/>
  <path d="M7 1L8 1L8 0L7 0Z" stroke="none" fill="#000000"/>
  <path d="M7.5 0.97C7.76 0.97 7.98 0.76 7.98 0.5C7.98 0.24 7.76 0.03 7.5 0.03C7.24 0.03 7.03 0.24 7.03 0.5C7.03 0.76 7.24 0.97 7.5 0.97Z" stroke="none" fill="#CC0000"/>
  <path d="M7.5 0.9C7.72 0.9 7.9 0.72 7.9 0.5C7.9 0.28 7.72 0.1 7.5 0.1C7.28 0.1 7.1 0.28 7.1 0.5C7.1 0.72 7.28 0.9 7.5 0.9Z" stroke="none" fill="#800000"/>
</svg>
