<svg xmlns="http://www.w3.org/2000/svg" viewBox="-0.5 -1.123 3.983 1.639">
  <path d="M-0.5 -1.123L3.483 -1.123L3.483 0.516L-0.5 0.516Z" stroke="none" fill="#000000"/>
  <path d="M0.5137 -0.0905L0.4949472172425035 -0.09831309077574947L0.48988922097226684 -0.10173579501876678L0.5118112606279343 -0.20776295342368167L0.6491879487117972 -0.20841234902700034L0.6702131747718895 -0.1533303408650864L0.6375961768906749 -0.07007116206303861Z" stroke="#1A1A1A" stroke-width="0.01" fill="rgba(190,100,43,0.9)"/>
  <path d="M0.6376 -0.0701L0.6324251871959353 -0.004173362140700659L0.6195574641486644 -0.0037345556039180975L0.5137187243452916 -0.09051094173302685Z" stroke="#1A1A1A" stroke-width="0.01" fill="rgba(250,214,66,0.9)"/>
  <path d="M0.5137 -0.0905L0.6195574641486642 -0.0037345556039181105L0.5646750998496912 0.009567784201409218L0.4949472172425032 -0.09831309077574957Z" stroke="#1A1A1A" stroke-width="0.01" fill="rgba(251,185,58,0.9)"/>
  <path d="M0.4899 -0.1017L0.4949472172425033 -0.09831309077574968L0.5646750998496913 0.00956778420140919L0.5310968719311814 0.03190342254282351L0.4796298488971762 -0.09111531544089663Z" stroke="#1A1A1A" stroke-width="0.01" fill="rgba(248,218,70,0.9)"/>
  <path d="M0.4796 -0.0911L0.5310968719311814 0.03190342254282348L0.5021641067659005 0.06669285588633428L0.4592377524146224 -0.07639499195125932Z" stroke="#1A1A1A" stroke-width="0.01" fill="rgba(235,142,80,0.9)"/>
  <path d="M0.4733 0.1253L0.46983923718687115 0.12536453818745097L0.43098531562182285 -0.06451833655786587L0.4592377524146223 -0.07639499195125929L0.5021641067659004 0.06669285588633436Z" stroke="#1A1A1A" stroke-width="0.01" fill="rgba(226,183,71,0.9)"/>
  <path d="M0.3977 -0.0568L0.4179132816162301 -0.06275874882806398L0.43098531562182274 -0.06451833655786586L0.4698392371868711 0.12536453818745102L0.4210228735558198 0.13471228401272156Z" stroke="#1A1A1A" stroke-width="0.01" fill="rgba(207,178,56,0.9)"/>
  <path d="M0.381 -0.0569L0.3977257380223145 -0.056825558126667494L0.4210228735558198 0.1347122840127215L0.37109867977490996 0.15310090706032375L0.3625658224128677 -0.05310981252236541Z" stroke="#1A1A1A" stroke-width="0.01" fill="rgba(241,192,94,0.9)"/>
  <path d="M0.3342 0.1733L0.2792651798824607 0.14439720610306098L0.2998592245850431 -0.04886998264425124L0.3320617884705666 -0.05586931291910649L0.36256582241286767 -0.053109812522365366L0.37109867977490996 0.1531009070603238Z" stroke="#1A1A1A" stroke-width="0.01" fill="rgba(222,167,56,0.9)"/>
  <path d="M0.2194 -0.0742L0.27042834417830597 -0.06495113305875612L0.29985922458504316 -0.04886998264425128L0.27926517988246075 0.14439720610306098L0.1456754255555002 0.12869757782260585Z" stroke="#1A1A1A" stroke-width="0.01" fill="rgba(66,55,212,0.9)"/>
  <path d="M0.1598 -0.1147L0.20537854991599144 -0.08881233980416012L0.21937662806216346 -0.07420734109356264L0.14567542555550023 0.12869757782260582L0.10684167293409416 0.13643478775235596L0.06390988327950436 0.010920416971916924Z" stroke="#1A1A1A" stroke-width="0.01" fill="rgba(69,117,213,0.9)"/>
  <path d="M0.1598 -0.1147L0.06390988327950432 0.010920416971916924L-0.02500438526723353 -0.07062787030022821L0.11838458910382449 -0.1658159560677141L0.14829790449311606 -0.13581837781817097Z" stroke="#1A1A1A" stroke-width="0.01" fill="rgba(55,103,213,0.9)"/>
  <path d="M0.0922 -0.2305L0.10858789478255251 -0.20408773311071657L0.11838458910382439 -0.16581595606771413L-0.025004385267233573 -0.07062787030022825L-0.15814178456410782 -0.10885935272881025L-0.11580686683379529 -0.17737950940914493Z" stroke="#1A1A1A" stroke-width="0.01" fill="rgba(52,92,211,0.9)"/>
  <path d="M0.0867 -0.3134L0.09298753344856325 -0.2993506737870719L0.09220553773507384 -0.2304639604805954L-0.11580686683379532 -0.17737950940914488L-0.08807447760864381 -0.32206619746993265Z" stroke="#1A1A1A" stroke-width="0.01" fill="rgba(73,44,218,0.9)"/>
  <path d="M0.0867 -0.3134L-0.08807447760864377 -0.3220661974699327L-0.15381911072629462 -0.4943385450047879L0.10181456522886123 -0.39241978320008086Z" stroke="#1A1A1A" stroke-width="0.01" fill="rgba(89,136,223,0.9)"/>
  <path d="M-0.1538 -0.4943L-0.2000771312167142 -0.5586585347670915L-0.10197214479925487 -0.6595732172271163L0.1377841840496506 -0.45371240049822475L0.1320761059104258 -0.42470413454478695L0.10181456522886131 -0.39241978320008086Z" stroke="#1A1A1A" stroke-width="0.01" fill="rgba(88,134,222,0.9)"/>
  <path d="M-0.102 -0.6596L-0.0027925408560008497 -0.8138147752593538L0.16423126667045923 -0.540213871501724L0.17036446655061785 -0.49034645086797585L0.13778418404965068 -0.4537124004982247Z" stroke="#1A1A1A" stroke-width="0.01" fill="rgba(54,74,239,0.9)"/>
  <path d="M0.0188 -0.8635L0.21064646346059213 -0.6917328703843324L0.23584188293320163 -0.6018562254166411L0.16423126667045929 -0.5402138715017238L-0.002792540856000808 -0.8138147752593536Z" stroke="#1A1A1A" stroke-width="0.01" fill="rgba(90,124,251,0.9)"/>
  <path d="M0.3386 -0.5592L0.29132324869189496 -0.5451760051477053L0.2358418829332017 -0.6018562254166409L0.21064646346059218 -0.6917328703843323L0.3357682692969329 -0.6617349189728439Z" stroke="#1A1A1A" stroke-width="0.01" fill="rgba(80,75,205,0.9)"/>
  <path d="M0.4302 -0.5531L0.37570462673790755 -0.5470985909770564L0.3640940307488633 -0.5468960901373445L0.3386471140740842 -0.559230597362155L0.3357682692969328 -0.6617349189728439L0.49461716487568097 -0.7906755056889867Z" stroke="#1A1A1A" stroke-width="0.01" fill="rgba(210,195,61,0.9)"/>
  <path d="M0.5936 -0.6293L0.4822384784310681 -0.526176772586382L0.4563669653756794 -0.5324414314292295L0.43019487625058167 -0.55305230994067L0.49461716487568097 -0.7906755056889867L0.5733434251297039 -0.9033977215181512Z" stroke="#1A1A1A" stroke-width="0.01" fill="rgba(218,199,56,0.9)"/>
  <path d="M0.5936 -0.6293L0.6504556436859046 -0.5130102401548269L0.49480960717048106 -0.5122948611294768L0.48223847843106826 -0.5261767725863821Z" stroke="#1A1A1A" stroke-width="0.01" fill="rgba(238,158,48,0.9)"/>
  <path d="M0.6505 -0.513L0.7154593516288871 -0.4337139621778693L0.6283005270715133 -0.4257335312040344L0.5000294432217044 -0.4968754768686346L0.4948096071704812 -0.5122948611294768Z" stroke="#1A1A1A" stroke-width="0.01" fill="rgba(206,178,62,0.9)"/>
  <path d="M0.4996 -0.4729L0.5000294432217044 -0.4968754768686346L0.6283005270715135 -0.42573353120403445L0.5718806973369751 -0.41066248079549333L0.5553083380291027 -0.41120773289635054Z" stroke="#1A1A1A" stroke-width="0.01" fill="rgba(182,162,55,0.9)"/>
  <path d="M0.455 -0.3835L0.499598113527389 -0.47288691002324795L0.5553083380291026 -0.4112077328963506Z" stroke="#1A1A1A" stroke-width="0.01" fill="rgba(182,140,63,0.9)"/>
  <path d="M0.4211 -0.4201L0.4563669653756793 -0.5324414314292295L0.4822384784310684 -0.526176772586382L0.4948096071704811 -0.5122948611294771L0.5000294432217044 -0.49687547686863465L0.499598113527389 -0.472886910023248L0.4550119436957408 -0.3835264430610837L0.432375506375367 -0.3681532720462629L0.4156036582140154 -0.391205618649394Z" stroke="#1A1A1A" stroke-width="0.01" fill="rgba(63,98,232,0.9)"/>
  <path d="M0.3757 -0.5471L0.43019487625058156 -0.5530523099406701L0.4563669653756793 -0.5324414314292295L0.42111191324945213 -0.4201228402319035Z" stroke="#1A1A1A" stroke-width="0.01" fill="rgba(87,138,221,0.9)"/>
  <path d="M0.3641 -0.5469L0.3550541738638186 -0.42462652895673175L0.29455894479417977 -0.4185571063033634L0.25641678057775347 -0.4979404855788008L0.29132324869189485 -0.5451760051477053L0.3386471140740843 -0.559230597362155Z" stroke="#1A1A1A" stroke-width="0.01" fill="rgba(250,221,86,0.9)"/>
  <path d="M0.2946 -0.4186L0.29146345184016026 -0.4138423677144288L0.24204567307692307 -0.36971935096153846L0.13207610591042585 -0.42470413454478706L0.13778418404965065 -0.45371240049822464L0.17036446655061785 -0.4903464508679758L0.2564167805777535 -0.49794048557880066Z" stroke="#1A1A1A" stroke-width="0.01" fill="rgba(221,190,45,0.9)"/>
  <path d="M0.243 -0.3559L0.22903560482673788 -0.2998113331709708L0.09298753344856327 -0.29935067378707186L0.08671948847535674 -0.313388482841649L0.10181456522886126 -0.39241978320008075L0.13207610591042587 -0.42470413454478706L0.24204567307692307 -0.3697193509615384Z" stroke="#1A1A1A" stroke-width="0.01" fill="rgba(186,105,69,0.9)"/>
  <path d="M0.229 -0.2998L0.2310388754467397 -0.29607344246113304L0.23962738480768203 -0.251392117687642L0.2393974247625516 -0.24750966141167838L0.10858789478255251 -0.2040877331107166L0.09220553773507383 -0.2304639604805954L0.09298753344856324 -0.29935067378707186Z" stroke="#1A1A1A" stroke-width="0.01" fill="rgba(243,142,57,0.9)"/>
  <path d="M0.1086 -0.2041L0.23939742476255166 -0.2475096614116784L0.25234294051922673 -0.22061469194168806L0.25379418647397073 -0.21468699247212714L0.1482979044931161 -0.1358183778181709L0.11838458910382436 -0.1658159560677142Z" stroke="#1A1A1A" stroke-width="0.01" fill="rgba(207,167,69,0.9)"/>
  <path d="M0.2054 -0.0888L0.15984626424633908 -0.11474272992830331L0.1482979044931161 -0.1358183778181709L0.2537941864739707 -0.2146869924721271L0.2744455637488107 -0.19067376308277828Z" stroke="#1A1A1A" stroke-width="0.01" fill="rgba(179,143,52,0.9)"/>
  <path d="M0.2704 -0.065L0.21937662806216346 -0.07420734109356264L0.20537854991599144 -0.08881233980416012L0.2744455637488107 -0.19067376308277828L0.30482374899418524 -0.17840927835638484Z" stroke="#1A1A1A" stroke-width="0.01" fill="rgba(218,149,51,0.9)"/>
  <path d="M0.3048 -0.1784L0.3388831321792336 -0.1813461353495866L0.3320617884705666 -0.0558693129191065L0.29985922458504316 -0.04886998264425127L0.270428344178306 -0.06495113305875612Z" stroke="#1A1A1A" stroke-width="0.01" fill="rgba(245,113,52,0.9)"/>
  <path d="M0.3626 -0.0531L0.3320617884705666 -0.0558693129191065L0.3388831321792336 -0.1813461353495866L0.3629559974232808 -0.1932275319542305L0.3810190827023159 -0.05685123809751511Z" stroke="#1A1A1A" stroke-width="0.01" fill="rgba(64,89,193,0.9)"/>
  <path d="M0.363 -0.1932L0.37434332379444724 -0.20218261385776914L0.41791328161623004 -0.06275874882806395L0.39772573802231453 -0.056825558126667494L0.3810190827023159 -0.056851238097515105Z" stroke="#1A1A1A" stroke-width="0.01" fill="rgba(79,112,202,0.9)"/>
  <path d="M0.4179 -0.0628L0.3743433237944472 -0.20218261385776914L0.43586407234173985 -0.26725186961226144L0.4647902902377584 -0.2517902902377586L0.5118112606279344 -0.20776295342368156L0.4898892209722671 -0.10173579501876717L0.47962984889717575 -0.0911153154408963L0.4592377524146223 -0.0763949919512593L0.43098531562182285 -0.06451833655786586Z" stroke="#1A1A1A" stroke-width="0.01" fill="rgba(62,126,251,0.9)"/>
  <path d="M0.2744 -0.1907L0.2537941864739707 -0.21468699247212716L0.2523429405192266 -0.22061469194168826L0.39487411505749836 -0.2814192755749881L0.4323603237637176 -0.2731404883443935L0.4358640723417398 -0.2672518696122614L0.3743433237944469 -0.20218261385776887L0.36295599742328083 -0.1932275319542305L0.3388831321792336 -0.1813461353495866L0.30482374899418524 -0.17840927835638482Z" stroke="#1A1A1A" stroke-width="0.01" fill="rgba(188,127,61,0.9)"/>
  <path d="M0.2523 -0.2206L0.2393974247625516 -0.2475096614116784L0.23962738480768203 -0.2513921176876419L0.37868817025211476 -0.28687991628258314L0.39487411505749836 -0.2814192755749881Z" stroke="#1A1A1A" stroke-width="0.01" fill="rgba(76,113,202,0.9)"/>
  <path d="M0.3787 -0.2869L0.23962738480768203 -0.2513921176876419L0.2310388754467398 -0.2960734424611329L0.3587843832505932 -0.2972848222765143Z" stroke="#1A1A1A" stroke-width="0.01" fill="rgba(100,80,236,0.9)"/>
  <path d="M0.229 -0.2998L0.2430452112412762 -0.3559491177398656L0.34195445326418916 -0.3125447961074703L0.35878438325059325 -0.2972848222765143L0.23103887544673982 -0.2960734424611329Z" stroke="#1A1A1A" stroke-width="0.01" fill="rgba(49,84,186,0.9)"/>
  <path d="M0.242 -0.3697L0.2914634518401602 -0.41384236771442884L0.3419544532641893 -0.3125447961074702L0.24304521124127618 -0.3559491177398656Z" stroke="#1A1A1A" stroke-width="0.01" fill="rgba(90,61,247,0.9)"/>
  <path d="M0.3551 -0.4246L0.4156036582140154 -0.391205618649394L0.432375506375367 -0.3681532720462629L0.4323603237637176 -0.2731404883443935L0.3948741150574984 -0.2814192755749881L0.37868817025211443 -0.28687991628258325L0.3587843832505933 -0.29728482227651426L0.3419544532641892 -0.3125447961074702L0.29146345184016026 -0.4138423677144288L0.29455894479417977 -0.4185571063033634Z" stroke="#1A1A1A" stroke-width="0.01" fill="rgba(50,83,230,0.9)"/>
  <path d="M0.5719 -0.4107L0.5244140625000003 -0.3114140625000003L0.4647902902377584 -0.2517902902377586L0.43586407234173974 -0.2672518696122615L0.4323603237637176 -0.2731404883443934L0.432375506375367 -0.3681532720462629L0.4550119436957407 -0.38352644306108363L0.5553083380291026 -0.41120773289635054Z" stroke="#1A1A1A" stroke-width="0.01" fill="rgba(253,173,82,0.9)"/>
  <path d="M0.5719 -0.4107L0.6283005270715135 -0.42573353120403445L0.715459351628887 -0.43371396217786934L0.7223767098287206 -0.430181408378731L0.7335886617087563 -0.41145408820853524L0.5244140625000002 -0.31141406250000025Z" stroke="#1A1A1A" stroke-width="0.01" fill="rgba(184,152,57,0.9)"/>
  <path d="M0.5244 -0.3114L0.7335886617087561 -0.41145408820853524L0.7658100077390115 -0.3680086856343688L0.6491879487117971 -0.2084123490270003L0.5118112606279341 -0.20776295342368162L0.4647902902377584 -0.25179029023775856Z" stroke="#1A1A1A" stroke-width="0.01" fill="rgba(197,105,50,0.9)"/>
  <path d="M2.2287 -0.1114L2.2196032782007067 -0.13471128590878645L2.239409214527048 -0.15012175014032939L2.3279042238783947 -0.21207298398378052L2.3738603174042248 -0.019460193588668295L2.3761485895628507 0.03232212764561371L2.3269652174363937 0.04744091223503641Z" stroke="#1A1A1A" stroke-width="0.01" fill="rgba(189,152,72,0.9)"/>
  <path d="M2.327 0.0474L2.2958260196898252 0.06562584578509172L2.2666240667056665 0.04993363110300923L2.2286839157735443 -0.11140292126329965Z" stroke="#1A1A1A" stroke-width="0.01" fill="rgba(208,168,59,0.9)"/>
  <path d="M2.2196 -0.1347L2.2286839157735447 -0.1114029212632982L2.2666240667056665 0.049933631103009246L2.208920820701126 0.04475590949199815L2.2050080973244603 -0.1286395159370744Z" stroke="#1A1A1A" stroke-width="0.01" fill="rgba(224,149,56,0.9)"/>
  <path d="M2.2089 0.0448L2.139549957133241 0.08407828329501085L2.177597508418858 -0.1068512467928156L2.185972319858774 -0.12473643732551748L2.2050080973244603 -0.12863951593707437Z" stroke="#1A1A1A" stroke-width="0.01" fill="rgba(83,82,246,0.9)"/>
  <path d="M2.1395 0.0841L2.023885865732315 0.20843921978651142L2.0236014010224963 0.0871328000932084L2.177597508418858 -0.10685124679281575Z" stroke="#1A1A1A" stroke-width="0.01" fill="rgba(109,83,235,0.9)"/>
  <path d="M2.186 -0.1247L2.177597508418858 -0.10685124679281546L2.0236014010224963 0.08713280009320862L1.9874061567291763 -0.09203694366365289L2.0437787891481354 -0.154112965579545Z" stroke="#1A1A1A" stroke-width="0.01" fill="rgba(92,74,212,0.9)"/>
  <path d="M1.95 -0.2277L1.9445701995502707 -0.287933042365633L2.020946785573967 -0.322724979599855L2.040053214426033 -0.2842750204001452L2.045879976878248 -0.23645538372334446L2.0360320260302913 -0.18161874635522202Z" stroke="#1A1A1A" stroke-width="0.01" fill="rgba(62,62,197,0.9)"/>
  <path d="M1.9065 -0.31L1.9417816487156014 -0.34007409004680805L2.015120023121752 -0.37054461627665486L2.020946785573967 -0.32272497959985497L1.9445701995502707 -0.2879330423656329Z" stroke="#1A1A1A" stroke-width="0.01" fill="rgba(84,101,241,0.9)"/>
  <path d="M1.9298 -0.4706L2.023913967302345 -0.4257591437566274L2.024583134997891 -0.4232383433613594L2.0151200231217516 -0.3705446162766547L1.9417816487156014 -0.340074090046808L1.8291377726395242 -0.4573426413870043L1.8518952532891761 -0.47618057359707067L1.857913646050832 -0.47865745182827096L1.8740031370790624 -0.4820187494201914Z" stroke="#1A1A1A" stroke-width="0.01" fill="rgba(70,51,253,0.9)"/>
  <path d="M1.8291 -0.4573L1.9417816487156014 -0.340074090046808L1.906526932785888 -0.3099580915450122L1.7786360703764446 -0.30576257682796015L1.770530887910094 -0.326353886495124L1.7685497398696084 -0.3405368366088405L1.7660449379664427 -0.3976581073040928L1.7752178248446207 -0.41752192924099246Z" stroke="#1A1A1A" stroke-width="0.01" fill="rgba(235,152,55,0.9)"/>
  <path d="M1.9065 -0.31L1.9445701995502704 -0.287933042365633L1.9500335177996482 -0.22771690691628754L1.7859237252521898 -0.2267886841077616L1.7786360703764448 -0.3057625768279602Z" stroke="#1A1A1A" stroke-width="0.01" fill="rgba(230,210,67,0.9)"/>
  <path d="M1.8522 -0.1037L1.7793016062776785 -0.19446620537004783L1.7859237252521896 -0.2267886841077616L1.9500335177996482 -0.22771690691628754L2.0360320260302913 -0.18161874635522185L2.0437787891481354 -0.15411296557954554L1.9874061567291756 -0.09203694366365277L1.8874449091970065 -0.09540527705564883L1.864113324260986 -0.09955612879426641Z" stroke="#1A1A1A" stroke-width="0.01" fill="rgba(216,134,51,0.9)"/>
  <path d="M1.9874 -0.092L2.0236014010224963 0.08713280009320856L2.023885865732315 0.2084392197865103L1.9927586114378226 0.316L1.955305573453608 0.316L1.8874449091970065 -0.09540527705564883Z" stroke="#1A1A1A" stroke-width="0.01" fill="rgba(225,134,52,0.9)"/>
  <path d="M1.8874 -0.0954L1.955305573453608 0.316L1.9189049715534998 0.316L1.8971726267670235 0.29384957102757914L1.864113324260986 -0.09955612879426645Z" stroke="#1A1A1A" stroke-width="0.01" fill="rgba(201,135,45,0.9)"/>
  <path d="M1.8641 -0.0996L1.8971726267670235 0.2938495710275791L1.8866365413854356 0.28427983157647513L1.8365019773482203 0.21011484232556069L1.8417343157494261 -0.08551227734258043L1.8522026176398223 -0.10373169893870698Z" stroke="#1A1A1A" stroke-width="0.01" fill="rgba(218,177,44,0.9)"/>
  <path d="M1.8417 -0.0855L1.8365019773482203 0.21011484232556063L1.7880726771302042 0.14918303410687872L1.8208753354376621 -0.06055517507110991Z" stroke="#1A1A1A" stroke-width="0.01" fill="rgba(85,130,239,0.9)"/>
  <path d="M1.7368 0.0954L1.8111353488144863 -0.050474018043251134L1.8165750083273189 -0.05716610775319633L1.820875335437662 -0.06055517507110956L1.7880726771302042 0.14918303410687853Z" stroke="#1A1A1A" stroke-width="0.01" fill="rgba(56,106,212,0.9)"/>
  <path d="M1.7041 0.0672L1.703368839265566 0.03550363438375642L1.8111353488144868 -0.05047401804325188L1.7368310352993948 0.09538259737526253Z" stroke="#1A1A1A" stroke-width="0.01" fill="rgba(84,90,244,0.9)"/>
  <path d="M1.7034 0.0355L1.7020124624187125 0.026555202102195658L1.704671648408345 -0.0111182845798244L1.7764949594295327 -0.0447497357278601L1.8165750083273187 -0.05716610775319614L1.8111353488144872 -0.0504740180432523Z" stroke="#1A1A1A" stroke-width="0.01" fill="rgba(59,109,242,0.9)"/>
  <path d="M1.7135 -0.1037L1.7305197111329018 -0.13871511258031133L1.7605529375099334 -0.1834114800313475L1.7793016062776785 -0.19446620537004808L1.8522026176398223 -0.10373169893870693L1.8417343157494264 -0.08551227734258068L1.8208753354376614 -0.06055517507110923L1.8165750083273187 -0.057166107753196096L1.776494959429533 -0.04474973572786011L1.7032347619099342 -0.0616574961186626Z" stroke="#1A1A1A" stroke-width="0.01" fill="rgba(62,79,199,0.9)"/>
  <path d="M1.7016 -0.6273L1.7096650462305252 -0.6597138960908275L1.8359772510409451 -0.5071676179736276L1.8518952532891764 -0.4761805735970707L1.8291377726395264 -0.4573426413870061L1.7752178248446209 -0.41752192924099246L1.7458212027110807 -0.457860627390906L1.7048128939243667 -0.5404746853604105L1.697863040253993 -0.5861225878771831Z" stroke="#1A1A1A" stroke-width="0.01" fill="rgba(58,114,233,0.9)"/>
  <path d="M1.836 -0.5072L1.7096650462305252 -0.6597138960908273L1.7112671130527615 -0.697060189654466L1.7711229908328288 -0.7224219959024673Z" stroke="#1A1A1A" stroke-width="0.01" fill="rgba(84,56,237,0.9)"/>
  <path d="M1.8519 -0.4762L1.835977251040944 -0.5071676179736295L1.7711229908328288 -0.7224219959024674L1.847483917853714 -0.7730685512872711L1.8579136460508319 -0.4786574518282708Z" stroke="#1A1A1A" stroke-width="0.01" fill="rgba(66,117,235,0.9)"/>
  <path d="M1.8815 -0.4979L1.8740031370790624 -0.4820187494201915L1.8579136460508319 -0.47865745182827096L1.847483917853714 -0.7730685512872713L1.9038418219270095 -0.8247145782028564L1.9321974704017109 -0.7435724762065471Z" stroke="#1A1A1A" stroke-width="0.01" fill="rgba(250,184,81,0.9)"/>
  <path d="M1.9933 -0.6388L1.8814768448491452 -0.49790822896498943L1.9321974704017109 -0.7435724762065472Z" stroke="#1A1A1A" stroke-width="0.01" fill="rgba(226,139,58,0.9)"/>
  <path d="M2.0347 -0.6069L1.9298371123483433 -0.4706211379930132L1.8740031370790624 -0.4820187494201914L1.8814768448491455 -0.49790822896498993L1.9932597977102122 -0.6387981002995747Z" stroke="#1A1A1A" stroke-width="0.01" fill="rgba(199,138,59,0.9)"/>
  <path d="M2.115 -0.3184L2.040053214426033 -0.28427502040014485L2.020946785573967 -0.32272497959985513L2.015120023121752 -0.37054461627665536L2.024583134997891 -0.42323834336135874L2.112091191150314 -0.3762171289484992Z" stroke="#1A1A1A" stroke-width="0.01" fill="rgba(195,134,51,0.9)"/>
  <path d="M2.154 -0.2961L2.1177864885937843 -0.26633100162552337L2.045879976878248 -0.23645538372334549L2.040053214426033 -0.28427502040014474L2.1149778166490645 -0.3184055333433918Z" stroke="#1A1A1A" stroke-width="0.01" fill="rgba(194,109,47,0.9)"/>
  <path d="M2.186 -0.1247L2.0437787891481354 -0.15411296557954499L2.0360320260302913 -0.18161874635522182L2.0458799768782483 -0.23645538372334574L2.117786488593784 -0.2663310016255232L2.239409214527049 -0.15012175014033013L2.2196032782007067 -0.13471128590878634L2.20500809732446 -0.1286395159370743Z" stroke="#1A1A1A" stroke-width="0.01" fill="rgba(209,165,68,0.9)"/>
  <path d="M2.1178 -0.2663L2.154001438142935 -0.29610632106118023L2.3620068114682176 -0.304291717696665L2.366470521896689 -0.2682808057408567L2.327904223878395 -0.21207298398378063L2.2394092145270488 -0.1501217501403299Z" stroke="#1A1A1A" stroke-width="0.01" fill="rgba(79,46,217,0.9)"/>
  <path d="M2.362 -0.3043L2.154001438142935 -0.29610632106118023L2.1149778166490645 -0.31840553334339183L2.112091191150314 -0.376217128948499L2.2887066078802007 -0.37826128886435423L2.3626737878509263 -0.31618832878841824Z" stroke="#1A1A1A" stroke-width="0.01" fill="rgba(86,115,221,0.9)"/>
  <path d="M2.0246 -0.4232L2.0239139673023456 -0.42575914375662766L2.110796181076822 -0.5131659867868874L2.1721176338071277 -0.5111843059817905L2.195156434461509 -0.5072337424080424L2.198998088820524 -0.5059343771659175L2.2887066078802003 -0.37826128886435423L2.1120911911503146 -0.376217128948499Z" stroke="#1A1A1A" stroke-width="0.01" fill="rgba(76,52,194,0.9)"/>
  <path d="M2.1108 -0.5132L2.0644162491522997 -0.5982308855973714L2.14154456007476 -0.6965335654842721L2.1721176338071277 -0.5111843059817905Z" stroke="#1A1A1A" stroke-width="0.01" fill="rgba(55,80,223,0.9)"/>
  <path d="M2.1721 -0.5112L2.1415445600747596 -0.6965335654842717L2.1743180377724736 -0.7552106630075649L2.1951564344615093 -0.5072337424080424Z" stroke="#1A1A1A" stroke-width="0.01" fill="rgba(54,110,204,0.9)"/>
  <path d="M2.2417 -0.7994L2.2220968053910903 -0.5351740602797155L2.1989980888205243 -0.5059343771659175L2.1951564344615093 -0.5072337424080424L2.1743180377724736 -0.7552106630075648L2.2089721487363847 -0.8390604413775041Z" stroke="#1A1A1A" stroke-width="0.01" fill="rgba(87,54,231,0.9)"/>
  <path d="M2.3348 -0.7127L2.2433972133124818 -0.5495142363844293L2.22209680539109 -0.5351740602797155L2.2416656255776966 -0.799353132798907Z" stroke="#1A1A1A" stroke-width="0.01" fill="rgba(179,125,64,0.9)"/>
  <path d="M2.369 -0.6903L2.3710184654994175 -0.6651010966297127L2.3620463734473005 -0.5775992862962736L2.243397213312482 -0.5495142363844296L2.334835864420736 -0.7126929645630614Z" stroke="#1A1A1A" stroke-width="0.01" fill="rgba(182,140,59,0.9)"/>
  <path d="M2.2221 -0.5352L2.243397213312482 -0.5495142363844296L2.3620463734473005 -0.5775992862962736L2.419247454723822 -0.39169577214757906L2.408612447423896 -0.3745763141509576L2.3626737878509263 -0.3161883287884187L2.2887066078802 -0.37826128886435495L2.198998088820524 -0.5059343771659173Z" stroke="#1A1A1A" stroke-width="0.01" fill="rgba(199,172,54,0.9)"/>
  <path d="M3.283 0.316L3.1721305392976573 0.316L2.925899269705921 -0.08196297085367327L3.283 -0.2185843173622781Z" stroke="#1A1A1A" stroke-width="0.01" fill="rgba(228,191,71,0.9)"/>
  <path d="M2.9259 -0.082L3.1721305392976573 0.316L3.0081926418106684 0.316L2.915037083080496 -0.08013434079827197Z" stroke="#1A1A1A" stroke-width="0.01" fill="rgba(183,140,55,0.9)"/>
  <path d="M2.9184 0.316L2.8928427058798976 0.26287313688808217L2.885259930881263 -0.0731635235776939L2.901840871303362 -0.08123808464640783L2.915037083080496 -0.0801343407982721L3.0081926418106684 0.316Z" stroke="#1A1A1A" stroke-width="0.01" fill="rgba(186,108,40,0.9)"/>
  <path d="M2.8489 -0.0682L2.885259930881263 -0.07316352357769393L2.8928427058798976 0.262873136888082L2.80985250158191 0.12772369660714503Z" stroke="#1A1A1A" stroke-width="0.01" fill="rgba(49,85,203,0.9)"/>
  <path d="M2.8294 -0.0725L2.8489004013526564 -0.06822576406060027L2.80985250158191 0.12772369660714508L2.7342765066644854 0.04723266701932285Z" stroke="#1A1A1A" stroke-width="0.01" fill="rgba(78,106,209,0.9)"/>
  <path d="M2.737 -0.1362L2.829359620494247 -0.07254053714192395L2.734276506664486 0.047232667019322674L2.6894931564684508 0.022245800054809833L2.6665954922765835 -0.09109971552289842Z" stroke="#1A1A1A" stroke-width="0.01" fill="rgba(49,69,204,0.9)"/>
  <path d="M2.6284 -0.235L2.6235701995502705 -0.287933042365633L2.658308611354253 -0.30375748158219756L2.682163564570374 -0.28619577300085813L2.7151181767586596 -0.24785674081308434Z" stroke="#1A1A1A" stroke-width="0.01" fill="rgba(88,65,219,0.9)"/>
  <path d="M2.6118 -0.2947L2.6069222318569505 -0.3282348178716179L2.620781648715601 -0.3400740900468076L2.6533749278092724 -0.3536159005052781L2.658308611354253 -0.3037574815821975L2.6235701995502705 -0.287933042365633Z" stroke="#1A1A1A" stroke-width="0.01" fill="rgba(76,65,216,0.9)"/>
  <path d="M2.6995 -0.4386L2.6533749278092733 -0.35361590050527847L2.6207816487156013 -0.340074090046808L2.5081377726395253 -0.4573426413870054L2.516820010536231 -0.46452952694115474L2.555928115206867 -0.4814216620021288L2.6957126805109235 -0.45288688275403133Z" stroke="#1A1A1A" stroke-width="0.01" fill="rgba(47,92,216,0.9)"/>
  <path d="M2.4086 -0.3746L2.4192474547238225 -0.3916957721475792L2.5081377726395258 -0.45734264138700537L2.6207816487156013 -0.340074090046808L2.6069222318569505 -0.32823481787161773Z" stroke="#1A1A1A" stroke-width="0.01" fill="rgba(220,172,69,0.9)"/>
  <path d="M2.6236 -0.2879L2.628372409692923 -0.23500357291012341L2.620099194812747 -0.22766637341523038L2.4324794188307575 -0.2266051755872789L2.4184363342167488 -0.23736640834400335L2.611840909688527 -0.29472368386453696Z" stroke="#1A1A1A" stroke-width="0.01" fill="rgba(238,120,55,0.9)"/>
  <path d="M2.4325 -0.2266L2.620099194812747 -0.22766637341523038L2.663261659600858 -0.09214290187185681L2.566444909197006 -0.09540527705564884L2.543113324260987 -0.09955612879426608L2.531202617639823 -0.10373169893870698Z" stroke="#1A1A1A" stroke-width="0.01" fill="rgba(206,107,55,0.9)"/>
  <path d="M2.6666 -0.0911L2.6894931564684508 0.02224580005481018L2.5964496611015764 0.08649853136580568L2.5664449091970063 -0.09540527705564884L2.6632616596008574 -0.09214290187185682Z" stroke="#1A1A1A" stroke-width="0.01" fill="rgba(223,117,62,0.9)"/>
  <path d="M2.5431 -0.0996L2.5664449091970063 -0.09540527705564875L2.5964496611015764 0.08649853136580568L2.561538388264035 0.1197021328420097Z" stroke="#1A1A1A" stroke-width="0.01" fill="rgba(244,145,65,0.9)"/>
  <path d="M2.5238 0.1676L2.5162975128575553 0.16516708604815503L2.5207343157494266 -0.08551227734258099L2.5312026176398223 -0.10373169893870716L2.5431133242609865 -0.09955612879426644L2.561538388264035 0.11970213284200922Z" stroke="#1A1A1A" stroke-width="0.01" fill="rgba(183,145,70,0.9)"/>
  <path d="M2.4709 0.1247L2.499875335437661 -0.0605551750711083L2.520734315749426 -0.08551227734258003L2.5162975128575553 0.1651670860481549L2.496977802163178 0.16100011678618847Z" stroke="#1A1A1A" stroke-width="0.01" fill="rgba(81,101,230,0.9)"/>
  <path d="M2.4263 0.0749L2.490135348814486 -0.050474018043250246L2.49557500832732 -0.057166107753196894L2.499875335437661 -0.06055517507110861L2.470899769202323 0.12471283934272201Z" stroke="#1A1A1A" stroke-width="0.01" fill="rgba(83,67,207,0.9)"/>
  <path d="M2.4901 -0.0505L2.426274263912146 0.07488292639467532L2.3816880894832053 0.03604674623197661Z" stroke="#1A1A1A" stroke-width="0.01" fill="rgba(42,67,208,0.9)"/>
  <path d="M2.3817 0.036L2.3761485895628502 0.03232212764561353L2.3738603174042243 -0.01946019358866919L2.49557500832732 -0.057166107753196936L2.490135348814486 -0.050474018043250524Z" stroke="#1A1A1A" stroke-width="0.01" fill="rgba(55,50,231,0.9)"/>
  <path d="M2.3665 -0.2683L2.418436334216749 -0.2373664083440031L2.432479418830758 -0.2266051755872788L2.5312026176398223 -0.10373169893870723L2.5207343157494253 -0.08551227734257869L2.4998753354376624 -0.06055517507110972L2.4955750083273194 -0.05716610775319683L2.3738603174042243 -0.019460193588669218L2.3279042238783947 -0.21207298398378033Z" stroke="#1A1A1A" stroke-width="0.01" fill="rgba(94,82,206,0.9)"/>
  <path d="M2.489 -0.5385L2.516820010536232 -0.46452952694115485L2.5081377726395235 -0.45734264138700365L2.419247454723822 -0.391695772147579L2.3620463734473005 -0.577599286296274L2.3710184654994175 -0.6651010966297113L2.442808553471944 -0.5943251988838831Z" stroke="#1A1A1A" stroke-width="0.01" fill="rgba(80,51,247,0.9)"/>
  <path d="M2.4844 -0.6088L2.4889934474764317 -0.538548057663079L2.4428085534719424 -0.5943251988838849L2.484283289308583 -0.6090423385805601Z" stroke="#1A1A1A" stroke-width="0.01" fill="rgba(57,56,195,0.9)"/>
  <path d="M2.4844 -0.6088L2.484283289308583 -0.6090423385805616L2.464761572270015 -0.7056472025693287L2.5279645381490123 -0.7312734976884193L2.5324118297152247 -0.605735039266742Z" stroke="#1A1A1A" stroke-width="0.01" fill="rgba(57,105,212,0.9)"/>
  <path d="M2.5605 -0.4979L2.558823416857283 -0.4943929576881734L2.5324118297152247 -0.6057350392667404L2.5279645381490123 -0.7312734976884192L2.62177652198002 -0.7948118825467073Z" stroke="#1A1A1A" stroke-width="0.01" fill="rgba(236,149,85,0.9)"/>
  <path d="M2.6218 -0.7948L2.6526542860797697 -0.8227155069120721L2.713722916894339 -0.6921172161394935L2.713742468551756 -0.6910823530222965L2.560476844849145 -0.49790822896498776Z" stroke="#1A1A1A" stroke-width="0.01" fill="rgba(246,154,88,0.9)"/>
  <path d="M2.5605 -0.4979L2.713742468551756 -0.6910823530222965L2.7533041326844354 -0.5143452737838199L2.6957126805109235 -0.4528868827540314L2.555928115206867 -0.4814216620021289L2.558823416857283 -0.49439295768817293Z" stroke="#1A1A1A" stroke-width="0.01" fill="rgba(242,203,91,0.9)"/>
  <path d="M2.7172 -0.4025L2.7152525035680037 -0.416967973458018L2.7910911911503145 -0.3762171289484989L2.7939778166490647 -0.31840553334339167L2.7422737639839476 -0.29485271108813255Z" stroke="#1A1A1A" stroke-width="0.01" fill="rgba(193,115,77,0.9)"/>
  <path d="M2.7968 -0.2663L2.7301925335903254 -0.23866263742856714L2.7269749786179585 -0.24355343668858276L2.742273763983948 -0.29485271108813244L2.7939778166490647 -0.31840553334339156L2.8330014381429347 -0.2961063210611803Z" stroke="#1A1A1A" stroke-width="0.01" fill="rgba(232,184,89,0.9)"/>
  <path d="M2.8605 -0.2054L2.7483809024956307 -0.17071266003390168L2.7301925335903254 -0.23866263742856722L2.7967864885937845 -0.26633100162552353Z" stroke="#1A1A1A" stroke-width="0.01" fill="rgba(254,155,91,0.9)"/>
  <path d="M2.8712 -0.2075L2.860519290380383 -0.20543497143179998L2.7967864885937845 -0.26633100162552353L2.8330014381429347 -0.2961063210611803L2.948021004339332 -0.3006325539902054Z" stroke="#1A1A1A" stroke-width="0.01" fill="rgba(50,93,248,0.9)"/>
  <path d="M2.948 -0.3006L2.8330014381429347 -0.2961063210611803L2.7939778166490647 -0.3184055333433916L2.7910911911503145 -0.376217128948499L2.9677066078802 -0.37826128886435423L3.011022983781383 -0.34191036034426603Z" stroke="#1A1A1A" stroke-width="0.01" fill="rgba(85,134,225,0.9)"/>
  <path d="M2.7533 -0.5143L2.8189802886487194 -0.5122228652003284L2.9027060890158296 -0.47076997222694195L2.9677066078802006 -0.3782612888643543L2.791091191150314 -0.376217128948499L2.7152525035680037 -0.41696797345801767L2.6995048859461788 -0.4386013859738326L2.6957126805109235 -0.4528868827540316Z" stroke="#1A1A1A" stroke-width="0.01" fill="rgba(40,73,190,0.9)"/>
  <path d="M2.7533 -0.5143L2.713742468551756 -0.6910823530222973L2.713722916894339 -0.6921172161394936L2.825968258539372 -0.6636523935425531L2.8428234434747783 -0.5614678348716523L2.8189802886487194 -0.5122228652003284Z" stroke="#1A1A1A" stroke-width="0.01" fill="rgba(66,114,230,0.9)"/>
  <path d="M2.861 -0.6636L2.867284614710494 -0.5890083974451212L2.8428234434747783 -0.5614678348716522L2.825968258539372 -0.6636523935425529Z" stroke="#1A1A1A" stroke-width="0.01" fill="rgba(52,48,212,0.9)"/>
  <path d="M2.9058 -0.5986L2.867284614710494 -0.5890083974451217L2.8610134853075753 -0.6636348373398544L2.911865285905261 -0.6805485472210197Z" stroke="#1A1A1A" stroke-width="0.01" fill="rgba(63,115,197,0.9)"/>
  <path d="M2.942 -0.7046L2.9457129339422163 -0.704751775577428L2.945226489545446 -0.5902546914959483L2.9336923997956617 -0.569671294067658L2.9057927106279613 -0.5985687809774738L2.911865285905261 -0.68054854722102Z" stroke="#1A1A1A" stroke-width="0.01" fill="rgba(245,147,70,0.9)"/>
  <path d="M2.9337 -0.5697L2.945226489545445 -0.590254691495947L3.283 -0.7671443470969693L3.283 -0.634871328259003L2.9372439849348484 -0.5530285665454704Z" stroke="#1A1A1A" stroke-width="0.01" fill="rgba(219,151,46,0.9)"/>
  <path d="M2.9372 -0.553L3.283 -0.6348713282590029L3.283 -0.3012292048280124L3.0110229837813827 -0.34191036034426625L2.9677066078802015 -0.3782612888643531L2.902706089015829 -0.4707699722269423Z" stroke="#1A1A1A" stroke-width="0.01" fill="rgba(247,201,73,0.9)"/>
  <path d="M1.2922 -0.52L1.3324436855699109 -0.49468559523273614L1.1864889544869928 -0.3135738851298449L1.137121827115572 -0.32725300548589925L1.0819710721713394 -0.5224784652534122L1.1038136363540112 -0.5686920552532728Z" stroke="#1A1A1A" stroke-width="0.01" fill="rgba(83,127,229,0.9)"/>
  <path d="M1.1365 -0.7145L1.2921916882309443 -0.5199735935609628L1.1038136363540112 -0.5686920552532727L1.1307090993244426 -0.7015892886838311Z" stroke="#1A1A1A" stroke-width="0.01" fill="rgba(84,73,253,0.9)"/>
  <path d="M1.3324 -0.4947L1.292191688230944 -0.5199735935609633L1.1364588858666655 -0.7144892752785095L1.193285041816197 -0.923L1.235607742877889 -0.923L1.396433723347169 -0.7425929747097451L1.4137969260259755 -0.701804972241253L1.3769021034418116 -0.5176350802124209Z" stroke="#1A1A1A" stroke-width="0.01" fill="rgba(74,57,234,0.9)"/>
  <path d="M1.7016 -0.6273L1.5769923724512518 -0.5684551834288025L1.5353072176818205 -0.652476561144967L1.704573260251855 -0.6990211666571474L1.7112671130527615 -0.6970601896544661L1.7096650462305252 -0.6597138960908271Z" stroke="#1A1A1A" stroke-width="0.01" fill="rgba(231,183,69,0.9)"/>
  <path d="M1.577 -0.5685L1.7016381711923765 -0.6273474644853885L1.6978630402539931 -0.5861225878771833L1.5806668751969024 -0.5559438987227585Z" stroke="#1A1A1A" stroke-width="0.01" fill="rgba(185,153,59,0.9)"/>
  <path d="M1.5807 -0.5559L1.697863040253993 -0.5861225878771833L1.7048128939243667 -0.5404746853604105L1.5818708029028532 -0.5393363326657674Z" stroke="#1A1A1A" stroke-width="0.01" fill="rgba(252,137,55,0.9)"/>
  <path d="M1.7048 -0.5405L1.7458212027110804 -0.45786062739090616L1.594240966126239 -0.5223212950107491L1.580830628518038 -0.5343612331553382L1.5818708029028532 -0.5393363326657674Z" stroke="#1A1A1A" stroke-width="0.01" fill="rgba(223,144,54,0.9)"/>
  <path d="M1.766 -0.3977L1.7555616097995077 -0.398703083665663L1.6445070342815284 -0.41959001821837644L1.594240966126239 -0.5223212950107491L1.7458212027110804 -0.45786062739090616L1.7752178248446209 -0.4175219292409924Z" stroke="#1A1A1A" stroke-width="0.01" fill="rgba(201,178,52,0.9)"/>
  <path d="M1.6445 -0.4196L1.4949375485749854 -0.4086747773212696L1.4856132151668997 -0.4308789662182502L1.580830628518038 -0.5343612331553382L1.594240966126239 -0.5223212950107491Z" stroke="#1A1A1A" stroke-width="0.01" fill="rgba(192,158,62,0.9)"/>
  <path d="M1.3769 -0.5176L1.4856132151668997 -0.4308789662182505L1.4949375485749854 -0.4086747773212698L1.4903526642687566 -0.32455803851491327L1.479857292917167 -0.308L1.1914237833834203 -0.30800000000000005L1.1864889544869925 -0.31357388512984496L1.3324436855699107 -0.4946855952327359Z" stroke="#1A1A1A" stroke-width="0.01" fill="rgba(50,73,241,0.9)"/>
  <path d="M1.7556 -0.3987L1.5176758531334262 -0.31920784341785263L1.4903526642687566 -0.3245580385149136L1.4949375485749854 -0.4086747773212695L1.6445070342815284 -0.41959001821837644Z" stroke="#1A1A1A" stroke-width="0.01" fill="rgba(240,222,67,0.9)"/>
  <path d="M1.7685 -0.3405L1.53080607597785 -0.31481375166317754L1.517675853133426 -0.31920784341785263L1.7555616097995081 -0.398703083665663L1.7660449379664427 -0.39765810730409235Z" stroke="#1A1A1A" stroke-width="0.01" fill="rgba(223,205,89,0.9)"/>
  <path d="M1.6457 -0.2816L1.5617298995590405 -0.2985318900048992L1.5308060759778501 -0.31481375166317754L1.7685497398696082 -0.3405368366088423L1.7705308879100943 -0.3263538864951239Z" stroke="#1A1A1A" stroke-width="0.01" fill="rgba(199,107,41,0.9)"/>
  <path d="M1.6457 -0.2816L1.6144852368216192 -0.23497867669442368L1.56172989955904 -0.2985318900048994Z" stroke="#1A1A1A" stroke-width="0.01" fill="rgba(179,138,71,0.9)"/>
  <path d="M1.6145 -0.235L1.613916211900532 -0.1877056700753094L1.4833062707451727 -0.12843759182944367L1.479857292917167 -0.308L1.4903526642687568 -0.32455803851491355L1.517675853133426 -0.3192078434178527L1.5308060759778503 -0.31481375166317743L1.5617298995590398 -0.2985318900048996Z" stroke="#1A1A1A" stroke-width="0.01" fill="rgba(205,146,71,0.9)"/>
  <path d="M1.428 -0.0685L1.338602614788963 -0.11218370323917537L1.2118716098201536 -0.2558121755371592L1.1914237833834203 -0.308L1.479857292917167 -0.308L1.4833062707451727 -0.1284375918294437L1.4757894200930473 -0.11079310831277825Z" stroke="#1A1A1A" stroke-width="0.01" fill="rgba(234,163,92,0.9)"/>
  <path d="M1.6429 -0.1179L1.555425071022728 -0.08341246448863611L1.4757894200930473 -0.11079310831277847L1.4833062707451727 -0.1284375918294437L1.613916211900532 -0.1877056700753093L1.6205161413938127 -0.18732879673572841Z" stroke="#1A1A1A" stroke-width="0.01" fill="rgba(250,197,95,0.9)"/>
  <path d="M1.5554 -0.0834L1.642853839093849 -0.1178864096223713L1.7305197111329023 -0.13871511258031177L1.7134707125085797 -0.10374280770990671L1.568075838414635 -0.0770870807926825Z" stroke="#1A1A1A" stroke-width="0.01" fill="rgba(230,182,47,0.9)"/>
  <path d="M1.7004 -0.0521L1.588416229093046 -0.06208329184172175L1.5680758384146352 -0.07708708079268252L1.7134707125085793 -0.10374280770990664L1.7032347619099337 -0.06165749611866135Z" stroke="#1A1A1A" stroke-width="0.01" fill="rgba(219,187,79,0.9)"/>
  <path d="M1.7004 -0.0521L1.704671648408345 -0.011118284579825288L1.7020124624187123 0.02655520210219532L1.5960707015971316 -0.05093818041069166L1.588416229093046 -0.06208329184172177Z" stroke="#1A1A1A" stroke-width="0.01" fill="rgba(251,162,59,0.9)"/>
  <path d="M1.5961 -0.0509L1.7020124624187125 0.02655520210219542L1.7033688392655661 0.03550363438375839L1.704148153684519 0.06723286429827188L1.629315298834342 0.07297350020072894Z" stroke="#1A1A1A" stroke-width="0.01" fill="rgba(180,119,71,0.9)"/>
  <path d="M1.5884 -0.0621L1.5960707015971314 -0.050938180410691695L1.629315298834342 0.07297350020072899L1.4323206828981603 0.13485276519331524L1.426291827616171 0.02410315565687532L1.4280439518822556 -0.06854917553368295L1.4757894200930473 -0.11079310831277844L1.5554250710227278 -0.08341246448863611L1.5680758384146352 -0.07708708079268237Z" stroke="#1A1A1A" stroke-width="0.01" fill="rgba(197,147,66,0.9)"/>
  <path d="M1.428 -0.0685L1.4262918276161711 0.02410315565687568L1.2214214569431177 0.005368071636685234L1.2921916882309452 -0.08302640643903747L1.338602614788963 -0.11218370323917534Z" stroke="#1A1A1A" stroke-width="0.01" fill="rgba(77,90,204,0.9)"/>
  <path d="M1.1669 -0.0506L1.2921916882309448 -0.08302640643903722L1.2214214569431174 0.005368071636685276L1.1697125490509157 0.04019107568606667L1.1667612049821496 0.027090753983598843Z" stroke="#1A1A1A" stroke-width="0.01" fill="rgba(60,121,235,0.9)"/>
  <path d="M1.1679 -0.1453L1.2118716098201539 -0.2558121755371592L1.3386026147889631 -0.11218370323917543L1.2921916882309448 -0.08302640643903722L1.1669406040326915 -0.050633884663627185L1.1653328400851743 -0.05343354751911887L1.159769653276979 -0.10324387646432326Z" stroke="#1A1A1A" stroke-width="0.01" fill="rgba(61,96,181,0.9)"/>
  <path d="M0.78 -0.0822L0.7820373006456971 -0.08539251524796755L0.7977089147117201 -0.08650811040672254L0.921 -0.03239275685358606L0.921 -0.004194540939321121L0.8698523371361117 0.3055652824175855L0.863859155970036 0.316L0.7782158698064364 0.316L0.7443954951336652 0.2727707928060778L0.7163796303240313 0.16390917941374566Z" stroke="#1A1A1A" stroke-width="0.01" fill="rgba(216,121,67,0.9)"/>
  <path d="M0.78 -0.0822L0.7163796303240314 0.16390917941374572L0.653154725500216 0.019384093417137673Z" stroke="#1A1A1A" stroke-width="0.01" fill="rgba(81,125,223,0.9)"/>
  <path d="M0.78 -0.0822L0.6531547255002159 0.019384093417137663L0.6324251871959353 -0.00417336214070071L0.6375961768906748 -0.07007116206303837L0.6702131747718895 -0.1533303408650864L0.7820373006456972 -0.08539251524796757Z" stroke="#1A1A1A" stroke-width="0.01" fill="rgba(113,83,237,0.9)"/>
  <path d="M0.5793 -0.923L0.6552085999015741 -0.923L0.7313374665492283 -0.4513723871096612L0.7223767098287206 -0.430181408378731L0.7154593516288871 -0.4337139621778693L0.6504556436859049 -0.5130102401548264L0.5935674034152809 -0.6293279468205029L0.5733434251297039 -0.9033977215181512Z" stroke="#1A1A1A" stroke-width="0.01" fill="rgba(65,44,185,0.9)"/>
  <path d="M0.7313 -0.4514L0.6552085999015741 -0.923L0.6968930602477486 -0.923L0.7505076357475136 -0.4886045342719674Z" stroke="#1A1A1A" stroke-width="0.01" fill="rgba(70,101,194,0.9)"/>
  <path d="M0.7505 -0.4886L0.6968930602477486 -0.923L0.7633313892757657 -0.923L0.7712283580854171 -0.5179983139050359Z" stroke="#1A1A1A" stroke-width="0.01" fill="rgba(49,117,240,0.9)"/>
  <path d="M0.7787 -0.923L0.8207645558633477 -0.7924292781493727L0.7924524840022167 -0.5392384640769634L0.7712283580854171 -0.517998313905036L0.7633313892757657 -0.923Z" stroke="#1A1A1A" stroke-width="0.01" fill="rgba(253,211,81,0.9)"/>
  <path d="M0.8208 -0.7924L0.8596596542033162 -0.6987510206541463L0.8072124548048831 -0.5531953099641145L0.7974870396688082 -0.5426264983934749L0.7924524840022167 -0.5392384640769635Z" stroke="#1A1A1A" stroke-width="0.01" fill="rgba(203,108,58,0.9)"/>
  <path d="M0.8902 -0.6455L0.8109118359375004 -0.5558359765625004L0.807212454804883 -0.5531953099641144L0.8596596542033162 -0.6987510206541463Z" stroke="#1A1A1A" stroke-width="0.01" fill="rgba(241,198,50,0.9)"/>
  <path d="M0.8109 -0.5558L0.8902317783741927 -0.645465848624088L0.9232841509079629 -0.6055745422051639Z" stroke="#1A1A1A" stroke-width="0.01" fill="rgba(216,193,68,0.9)"/>
  <path d="M0.7975 -0.5426L0.8072124548048829 -0.5531953099641143L0.8109118359375003 -0.5558359765625004L0.9232841509079629 -0.6055745422051639L0.9253752121449286 -0.6038185857461804L0.9421446821968888 -0.5572547993232813Z" stroke="#1A1A1A" stroke-width="0.01" fill="rgba(200,98,47,0.9)"/>
  <path d="M0.7336 -0.4115L0.7223767098287206 -0.43018140837873103L0.7313374665492283 -0.4513723871096613L0.7505076357475134 -0.4886045342719672L0.771228358085417 -0.5179983139050359L0.792452484002217 -0.5392384640769637L0.7974870396688083 -0.5426264983934749L0.9421446821968888 -0.5572547993232813L0.9570014593126421 -0.5338236377151133L0.915081353198239 -0.4782507638956349L0.7680995563592248 -0.3674062279795006L0.7658100077390115 -0.3680086856343688Z" stroke="#1A1A1A" stroke-width="0.01" fill="rgba(245,168,90,0.9)"/>
  <path d="M1.1914 -0.308L1.2118716098201539 -0.2558121755371591L1.1678785750568463 -0.14532260570039152L1.019078524703586 -0.08485405934169668L0.9748227048673759 -0.10007371874382778L0.989388932747594 -0.25563417819788725L1.1077589079061783 -0.31603822071954873L1.1371218271155723 -0.3272530054858992L1.1864889544869928 -0.31357388512984485Z" stroke="#1A1A1A" stroke-width="0.01" fill="rgba(236,122,56,0.9)"/>
  <path d="M1.1598 -0.1032L1.0323655227834454 -0.0781807688262516L1.019078524703586 -0.08485405934169665L1.1678785750568463 -0.14532260570039152Z" stroke="#1A1A1A" stroke-width="0.01" fill="rgba(232,208,80,0.9)"/>
  <path d="M1.1653 -0.0534L1.0522728432645074 -0.06338346916976666L1.0323655227834454 -0.07818076882625159L1.159769653276979 -0.10324387646432373Z" stroke="#1A1A1A" stroke-width="0.01" fill="rgba(196,118,58,0.9)"/>
  <path d="M1.1668 0.0271L1.0598044533302997 -0.05219503235177342L1.0522728432645077 -0.06338346916976666L1.1653328400851746 -0.053433547519118704L1.1669406040326915 -0.050633884663627365Z" stroke="#1A1A1A" stroke-width="0.01" fill="rgba(203,113,67,0.9)"/>
  <path d="M1.0598 -0.0522L1.1667612049821496 0.027090753983599128L1.1697125490509157 0.040191075686066745L1.1601252772444341 0.09914828605738453L1.1596585464068083 0.09931427195560008L1.0814229365462387 0.031221741269325212Z" stroke="#1A1A1A" stroke-width="0.01" fill="rgba(193,100,48,0.9)"/>
  <path d="M0.921 -0.0042L0.921 -0.032392756853586224L0.9748227048673759 -0.10007371874382778L1.0190785247035863 -0.08485405934169661L1.032365522783445 -0.07818076882625186L1.0522728432645079 -0.0633834691697664L1.0598044533302995 -0.05219503235177361L1.0814229365462387 0.03122174126932538Z" stroke="#1A1A1A" stroke-width="0.01" fill="rgba(223,131,59,0.9)"/>
  <path d="M0.9233 -0.6056L0.8902317783741923 -0.6454658486240883L0.8596596542033161 -0.6987510206541464L0.8207645558633478 -0.7924292781493721L0.7787329153220942 -0.923L0.8282787431151972 -0.923L0.9773016771817589 -0.6439667117527639L0.9253752121449286 -0.6038185857461803Z" stroke="#1A1A1A" stroke-width="0.01" fill="rgba(182,143,55,0.9)"/>
  <path d="M2.8489 -0.0682L2.8293596204942464 -0.07254053714192413L2.7369539930380093 -0.13623364857714576L2.7483809024956307 -0.17071266003390184L2.8605192903803824 -0.2054349714317999L2.871160081511995 -0.20745037529438182L2.9018408713033614 -0.08123808464640762L2.8852599308812636 -0.07316352357769396Z" stroke="#1A1A1A" stroke-width="0.01" fill="rgba(84,83,251,0.9)"/>
  <path d="M2.371 -0.6651L2.3689911241144412 -0.6903027515553958L2.4647615722700147 -0.7056472025693288L2.484283289308583 -0.6090423385805601L2.4428085534719424 -0.5943251988838849Z" stroke="#1A1A1A" stroke-width="0.01" fill="rgba(244,136,81,0.9)"/>
  <path d="M0.9748 -0.1001L0.9209999999999999 -0.03239275685358612L0.7977089147117201 -0.08650811040672252L0.8481496980360376 -0.3084615874150375L0.989388932747594 -0.25563417819788725Z" stroke="#1A1A1A" stroke-width="0.01" fill="rgba(59,114,243,0.9)"/>
  <path d="M2.4086 -0.3746L2.606922231856951 -0.3282348178716176L2.6118409096885276 -0.29472368386453696L2.4184363342167488 -0.23736640834400344L2.366470521896689 -0.26828080574085705L2.3620068114682176 -0.3042917176966641L2.3626737878509263 -0.3161883287884186Z" stroke="#1A1A1A" stroke-width="0.01" fill="rgba(86,108,215,0.9)"/>
  <path d="M-0.1628 -0.1065L-0.15814178456410785 -0.10885935272881025L-0.025004385267233697 -0.07062787030022827L0.06390988327950436 0.010920416971917035L0.10684167293409413 0.13643478775235598L0.05886712769650326 0.1847853011927144Z" stroke="#1A1A1A" stroke-width="0.01" fill="rgba(207,129,54,0.9)"/>
  <path d="M2.2414 0.2847L2.496977802163178 0.16100011678618859L2.516297512857554 0.16516708604815467L2.5237987367244825 0.1675784824287303L2.639254706154489 0.316L2.208857313266322 0.316Z" stroke="#1A1A1A" stroke-width="0.01" fill="rgba(212,172,76,0.9)"/>
  <path d="M3.283 -0.3012L3.283 -0.21858431736227812L2.925899269705922 -0.0819629708536736L2.9150370830804966 -0.08013434079827209L2.9018408713033614 -0.08123808464640786L2.8711600815119955 -0.20745037529438157L2.9480210043393322 -0.30063255399020544L3.0110229837813836 -0.34191036034426614Z" stroke="#1A1A1A" stroke-width="0.01" fill="rgba(73,102,222,0.9)"/>
  <path d="M-0.102 -0.6596L-0.20007713121671417 -0.5586585347670916L-0.3 -0.5386155766413584L-0.3 -0.923L0.02630950604560428 -0.923L0.018766628567244092 -0.8634891753770829L-0.0027925408560007803 -0.8138147752593539Z" stroke="#1A1A1A" stroke-width="0.01" fill="rgba(242,176,55,0.9)"/>
  <path d="M2.2414 0.2847L2.295826019689825 0.06562584578509198L2.3269652174363937 0.04744091223503649L2.3761485895628507 0.03232212764561378L2.3816880894832053 0.03604674623197663L2.4262742639121453 0.07488292639467456L2.4708997692023233 0.12471283934272225L2.496977802163178 0.1610001167861887Z" stroke="#1A1A1A" stroke-width="0.01" fill="rgba(181,152,65,0.9)"/>
  <path d="M-0.018 0.2845L-0.016625305397828288 0.316L-0.3 0.316L-0.3 0.06067714993389273Z" stroke="#1A1A1A" stroke-width="0.01" fill="rgba(211,187,66,0.9)"/>
  <path d="M1.6153 -0.8143L1.3964337233471695 -0.7425929747097447L1.2356077428778889 -0.923L1.6488635307112123 -0.923Z" stroke="#1A1A1A" stroke-width="0.01" fill="rgba(229,204,80,0.9)"/>
  <path d="M1.4221 0.1647L1.8866365413854362 0.28427983157647574L1.8971726267670226 0.29384957102757825L1.9189049715534998 0.316L1.3810396401143037 0.316L1.3961413792613449 0.19924022294722238Z" stroke="#1A1A1A" stroke-width="0.01" fill="rgba(227,179,78,0.9)"/>
  <path d="M2.209 -0.8391L2.1808121850633673 -0.923L2.6532995499800416 -0.923L2.661608678316881 -0.8659596477318644L2.6526542860797697 -0.822715506912072L2.62177652198002 -0.7948118825467075L2.527964538149013 -0.7312734976884196L2.4647615722700147 -0.7056472025693287L2.368991124114441 -0.6903027515553958L2.334835864420736 -0.7126929645630613L2.2416656255776957 -0.7993531327989076Z" stroke="#1A1A1A" stroke-width="0.01" fill="rgba(198,116,56,0.9)"/>
  <path d="M0.0589 0.1848L-0.017994062663830475 0.2844620720207656L-0.3 0.06067714993389273L-0.3 -0.05632327947362592L-0.1627730106024334 -0.10654628124379015Z" stroke="#1A1A1A" stroke-width="0.01" fill="rgba(245,194,76,0.9)"/>
  <path d="M0.3711 0.1531L0.42102287355581985 0.13471228401272153L0.46983923718687143 0.12536453818745094L0.4733254104382287 0.12525119059868878L0.7443954951336653 0.2727707928060778L0.7782158698064365 0.316L0.3462490456309361 0.316L0.3341681798798641 0.17326010505486852Z" stroke="#1A1A1A" stroke-width="0.01" fill="rgba(196,156,48,0.9)"/>
  <path d="M3.283 -0.7671L2.945226489545446 -0.5902546914959473L2.9457129339422163 -0.704751775577428L3.283 -0.7688995460538863Z" stroke="#1A1A1A" stroke-width="0.01" fill="rgba(203,129,44,0.9)"/>
  <path d="M0.3641 -0.5469L0.37570462673790794 -0.5470985909770564L0.42111191324945213 -0.4201228402319035L0.41560365821401535 -0.391205618649394L0.35505417386381866 -0.42462652895673175Z" stroke="#1A1A1A" stroke-width="0.01" fill="rgba(191,169,47,0.9)"/>
  <path d="M-0.3 -0.5386L-0.20007713121671425 -0.5586585347670916L-0.15381911072629445 -0.4943385450047877L-0.08807447760864376 -0.3220661974699327L-0.11580686683379526 -0.17737950940914504L-0.15814178456410793 -0.10885935272881021L-0.16277301060243343 -0.10654628124379013L-0.3 -0.056323279473625906Z" stroke="#1A1A1A" stroke-width="0.01" fill="rgba(245,164,86,0.9)"/>
  <path d="M2.819 -0.5122L2.8428234434747783 -0.561467834871652L2.8672846147104942 -0.5890083974451218L2.9057927106279613 -0.5985687809774736L2.9336923997956617 -0.5696712940676579L2.9372439849348484 -0.5530285665454702L2.902706089015829 -0.47076997222694206Z" stroke="#1A1A1A" stroke-width="0.01" fill="rgba(62,50,183,0.9)"/>
  <path d="M2.7172 -0.4025L2.7422737639839476 -0.2948527110881321L2.726974978617958 -0.24355343668858315L2.7151181767586596 -0.24785674081308456L2.6821635645703736 -0.2861957730008586Z" stroke="#1A1A1A" stroke-width="0.01" fill="rgba(57,84,200,0.9)"/>
  <path d="M0.9773 -0.644L0.8282787431151972 -0.923L1.193285041816197 -0.923L1.1364588858666658 -0.7144892752785099L1.1307090993244426 -0.7015892886838312Z" stroke="#1A1A1A" stroke-width="0.01" fill="rgba(192,129,75,0.9)"/>
  <path d="M0.782 -0.0854L0.6702131747718896 -0.15333034086508635L0.6491879487117972 -0.20841234902700032L0.7658100077390116 -0.3680086856343688L0.7680995563592248 -0.3674062279795006L0.8481496980360376 -0.30846158741503743L0.7977089147117201 -0.08650811040672254Z" stroke="#1A1A1A" stroke-width="0.01" fill="rgba(59,53,201,0.9)"/>
  <path d="M0.7681 -0.3674L0.915081353198239 -0.4782507638956348L1.107758907906179 -0.3160382207195491L0.989388932747594 -0.25563417819788725L0.8481496980360375 -0.3084615874150375Z" stroke="#1A1A1A" stroke-width="0.01" fill="rgba(229,178,65,0.9)"/>
  <path d="M1.082 -0.5225L0.9570014593126422 -0.5338236377151132L0.942144682196889 -0.5572547993232813L0.9253752121449286 -0.6038185857461803L0.977301677181759 -0.6439667117527639L1.1307090993244426 -0.7015892886838311L1.1038136363540114 -0.568692055253273Z" stroke="#1A1A1A" stroke-width="0.01" fill="rgba(242,163,91,0.9)"/>
  <path d="M2.6822 -0.2862L2.658308611354253 -0.3037574815821978L2.653374927809273 -0.35361590050527764L2.699504885946179 -0.4386013859738324L2.7152525035680037 -0.41696797345801795L2.7172275501961956 -0.4025176965784689Z" stroke="#1A1A1A" stroke-width="0.01" fill="rgba(82,118,216,0.9)"/>
  <path d="M0.1642 -0.5402L0.23584188293320157 -0.601856225416641L0.2913232486918949 -0.5451760051477053L0.25641678057775336 -0.49794048557880066L0.17036446655061785 -0.4903464508679758Z" stroke="#1A1A1A" stroke-width="0.01" fill="rgba(77,56,223,0.9)"/>
  <path d="M0.6532 0.0194L0.7163796303240311 0.16390917941374503L0.7443954951336652 0.27277079280607774L0.47332541043822873 0.1252511905986888L0.5021641067659005 0.06669285588633406L0.5310968719311813 0.03190342254282358L0.5646750998496912 0.009567784201409274L0.6195574641486645 -0.0037345556039181174L0.6324251871959353 -0.004173362140700683Z" stroke="#1A1A1A" stroke-width="0.01" fill="rgba(249,195,73,0.9)"/>
  <path d="M3.2139 -0.923L3.283 -0.923L3.283 -0.7688995460538863L2.945712933942216 -0.704751775577428L2.9419580109847563 -0.7045858935941789L2.82869418433014 -0.8088110071588765Z" stroke="#1A1A1A" stroke-width="0.01" fill="rgba(201,108,43,0.9)"/>
  <path d="M1.1078 -0.316L0.9150813531982389 -0.4782507638956349L0.9570014593126419 -0.5338236377151133L1.0819710721713391 -0.5224784652534123L1.137121827115572 -0.32725300548589914Z" stroke="#1A1A1A" stroke-width="0.01" fill="rgba(189,154,60,0.9)"/>
  <path d="M0.4946 -0.7907L0.3357682692969329 -0.6617349189728439L0.2106464634605924 -0.6917328703843323L0.018766628567244092 -0.863489175377083L0.026309506045604253 -0.923L0.5793368201889573 -0.923L0.5733434251297038 -0.903397721518151Z" stroke="#1A1A1A" stroke-width="0.01" fill="rgba(254,232,76,0.9)"/>
  <path d="M2.942 -0.7046L2.91186528590526 -0.6805485472210194L2.8610134853075757 -0.6636348373398546L2.8259682585393735 -0.6636523935425529L2.7137229168943384 -0.6921172161394936L2.6526542860797697 -0.8227155069120723L2.661608678316881 -0.8659596477318651L2.8286941843301396 -0.8088110071588769Z" stroke="#1A1A1A" stroke-width="0.01" fill="rgba(246,148,97,0.9)"/>
  <path d="M-0.0166 0.316L-0.017994062663830468 0.2844620720207656L0.058867127696503214 0.18478530119271447L0.10684167293409416 0.13643478775235596L0.14567542555550006 0.12869757782260588L0.27926517988246097 0.14439720610306106L0.3341681798798641 0.17326010505486844L0.34624904563093606 0.316Z" stroke="#1A1A1A" stroke-width="0.01" fill="rgba(241,206,51,0.9)"/>
  <path d="M1.6429 -0.1179L1.6205161413938127 -0.18732879673572844L1.7605529375099334 -0.18341148003134733L1.7305197111329023 -0.13871511258031177Z" stroke="#1A1A1A" stroke-width="0.01" fill="rgba(193,105,49,0.9)"/>
  <path d="M1.9422 -0.923L2.1808121850633673 -0.923L2.2089721487363847 -0.8390604413775042L2.174318037772474 -0.7552106630075657L2.14154456007476 -0.6965335654842724L2.0644162491522997 -0.598230885597371L2.0347329036903217 -0.606917198071855L1.9932597977102127 -0.6387981002995744L1.932197470401711 -0.7435724762065469L1.9038418219270095 -0.8247145782028563Z" stroke="#1A1A1A" stroke-width="0.01" fill="rgba(203,174,66,0.9)"/>
  <path d="M2.6533 -0.923L3.213925154653545 -0.923L2.8286941843301405 -0.8088110071588767L2.661608678316881 -0.8659596477318652Z" stroke="#1A1A1A" stroke-width="0.01" fill="rgba(238,190,84,0.9)"/>
  <path d="M2.6895 0.0222L2.7342765066644854 0.047232667019322355L2.80985250158191 0.12772369660714522L2.892842705879897 0.2628731368880817L2.9183967813198506 0.316L2.639254706154489 0.316L2.5237987367244825 0.1675784824287302L2.5615383882640335 0.11970213284201067L2.5964496611015764 0.08649853136580563Z" stroke="#1A1A1A" stroke-width="0.01" fill="rgba(196,125,73,0.9)"/>
  <path d="M1.4138 -0.7018L1.5353072176818208 -0.6524765611449669L1.5769923724512518 -0.568455183428803L1.5806668751969026 -0.5559438987227583L1.5818708029028532 -0.5393363326657677L1.5808306285180378 -0.5343612331553381L1.4856132151669 -0.4308789662182504L1.3769021034418116 -0.5176350802124211Z" stroke="#1A1A1A" stroke-width="0.01" fill="rgba(79,117,223,0.9)"/>
  <path d="M2.489 -0.5385L2.484371267673884 -0.6087503341966818L2.5324118297152243 -0.605735039266742L2.558823416857283 -0.49439295768817315L2.555928115206867 -0.4814216620021289L2.5168200105362315 -0.46452952694115485Z" stroke="#1A1A1A" stroke-width="0.01" fill="rgba(48,52,213,0.9)"/>
  <path d="M2.6666 -0.0911L2.6632616596008574 -0.0921429018718568L2.620099194812747 -0.22766637341523033L2.628372409692923 -0.23500357291012347L2.71511817675866 -0.24785674081308434L2.7269749786179585 -0.2435534366885831L2.7301925335903254 -0.23866263742856744L2.7483809024956307 -0.17071266003390112L2.7369539930380093 -0.1362336485771461Z" stroke="#1A1A1A" stroke-width="0.01" fill="rgba(231,207,50,0.9)"/>
  <path d="M1.3961 0.1992L1.3810396401143037 0.316L0.863859155970036 0.316L0.8698523371361117 0.3055652824175855L1.159658546406808 0.09931427195560011L1.1601252772444341 0.09914828605738446Z" stroke="#1A1A1A" stroke-width="0.01" fill="rgba(197,149,54,0.9)"/>
  <path d="M0.8699 0.3056L0.9209999999999999 -0.00419454093932109L1.081422936546239 0.031221741269325462L1.1596585464068083 0.0993142719556Z" stroke="#1A1A1A" stroke-width="0.01" fill="rgba(254,195,95,0.9)"/>
  <path d="M2.2089 0.0448L2.2666240667056665 0.049933631103009246L2.295826019689825 0.0656258457850916L2.2413648169688924 0.2846955964828378L2.208857313266322 0.316L1.9927586114378226 0.316L2.023885865732314 0.20843921978651211L2.139549957133241 0.08407828329501088Z" stroke="#1A1A1A" stroke-width="0.01" fill="rgba(215,182,81,0.9)"/>
  <path d="M1.8365 0.2101L1.8866365413854362 0.2842798315764757L1.4220634222110615 0.16465319391929076L1.4323206828981603 0.1348527651933152L1.6293152988343422 0.07297350020072892L1.7041481536845189 0.0672328642982719L1.7368310352993936 0.09538259737526161L1.788072677130204 0.14918303410687855Z" stroke="#1A1A1A" stroke-width="0.01" fill="rgba(254,182,62,0.9)"/>
  <path d="M1.7113 -0.6971L1.7045732602518548 -0.6990211666571475L1.615262338049903 -0.8143031426851058L1.6488635307112123 -0.923L1.9421817903781715 -0.923L1.9038418219270097 -0.8247145782028565L1.847483917853714 -0.7730685512872711L1.7711229908328283 -0.7224219959024671Z" stroke="#1A1A1A" stroke-width="0.01" fill="rgba(231,216,75,0.9)"/>
  <path d="M1.9298 -0.4706L2.034732903690322 -0.606917198071855L2.0644162491523 -0.5982308855973709L2.110796181076822 -0.5131659867868874L2.023913967302345 -0.4257591437566273Z" stroke="#1A1A1A" stroke-width="0.01" fill="rgba(223,134,81,0.9)"/>
  <path d="M1.5353 -0.6525L1.4137969260259753 -0.7018049722412532L1.3964337233471693 -0.7425929747097446L1.615262338049903 -0.8143031426851058L1.704573260251855 -0.6990211666571474Z" stroke="#1A1A1A" stroke-width="0.01" fill="rgba(188,159,61,0.9)"/>
  <path d="M1.7606 -0.1834L1.6205161413938114 -0.18732879673572847L1.613916211900532 -0.18770567007530928L1.6144852368216194 -0.23497867669442377L1.6457404690922919 -0.2815885818637396L1.7705308879100943 -0.3263538864951239L1.7786360703764448 -0.30576257682795943L1.7859237252521896 -0.22678868410776196L1.7793016062776785 -0.19446620537004813Z" stroke="#1A1A1A" stroke-width="0.01" fill="rgba(182,156,48,0.9)"/>
  <path d="M1.7765 -0.0447L1.704671648408345 -0.011118284579824396L1.7003599104300176 -0.05212359666394714L1.7032347619099342 -0.061657496118662614Z" stroke="#1A1A1A" stroke-width="0.01" fill="rgba(243,183,73,0.9)"/>
  <path d="M1.4221 0.1647L1.396141379261345 0.199240222947222L1.1601252772444341 0.09914828605738443L1.1697125490509157 0.04019107568606664L1.2214214569431174 0.00536807163668521L1.426291827616171 0.024103155656875652L1.4323206828981603 0.13485276519331496Z" stroke="#1A1A1A" stroke-width="0.01" fill="rgba(242,114,49,0.9)"/>
  <path d="M-0.5 -1.123L3.483 -1.123L3.483 0.516L-0.5 0.516Z" stroke="none" fill="none"/>
</svg>
