<svg xmlns="http://www.w3.org/2000/svg" viewBox="-0.5 -1.12 3.98 1.64">
  <path d="M-0.5 -1.12L3.483 -1.123L3.483 0.516L-0.5 0.516Z" stroke="none" fill="#000000"/>
  <path d="M0.64 -0.07L0.5137187243452916 -0.09051094173302687L0.4949472172425035 -0.09831309077574947L0.48988922097226684 -0.10173579501876678L0.5118112606279343 -0.20776295342368167L0.6491879487117972 -0.20841234902700034L0.6702131747718895 -0.1533303408650864Z" stroke="#1A1A1A" stroke-width="0.01" fill="rgba(190,100,43,0.9)"/>
  <path d="M0.51 -0.09L0.6375961768906749 -0.07007116206303857L0.6324251871959353 -0.004173362140700659L0.6195574641486643 -0.003734555603918093Z" stroke="#1A1A1A" stroke-width="0.01" fill="rgba(250,214,66,0.9)"/>
  <path d="M0.51 -0.09L0.6195574641486642 -0.0037345556039180966L0.5646750998496912 0.009567784201409218L0.4949472172425032 -0.09831309077574957Z" stroke="#1A1A1A" stroke-width="0.01" fill="rgba(251,185,58,0.9)"/>
  <path d="M0.53 0.03L0.4796298488971762 -0.09111531544089663L0.48988922097226684 -0.1017357950187668L0.4949472172425033 -0.09831309077574968L0.5646750998496913 0.00956778420140919Z" stroke="#1A1A1A" stroke-width="0.01" fill="rgba(248,218,70,0.9)"/>
  <path d="M0.5 0.07L0.4592377524146224 -0.07639499195125932L0.4796298488971762 -0.09111531544089664L0.5310968719311814 0.03190342254282348Z" stroke="#1A1A1A" stroke-width="0.01" fill="rgba(235,142,80,0.9)"/>
  <path d="M0.47 0.13L0.46983923718687115 0.12536453818745097L0.43098531562182285 -0.06451833655786587L0.4592377524146223 -0.07639499195125929L0.5021641067659004 0.06669285588633436Z" stroke="#1A1A1A" stroke-width="0.01" fill="rgba(226,183,71,0.9)"/>
  <path d="M0.4 -0.06L0.4179132816162301 -0.06275874882806398L0.43098531562182274 -0.06451833655786586L0.4698392371868711 0.12536453818745102L0.4210228735558198 0.13471228401272156Z" stroke="#1A1A1A" stroke-width="0.01" fill="rgba(207,178,56,0.9)"/>
  <path d="M0.38 -0.06L0.3977257380223145 -0.056825558126667494L0.4210228735558198 0.1347122840127215L0.37109867977490996 0.15310090706032375L0.3625658224128677 -0.05310981252236541Z" stroke="#1A1A1A" stroke-width="0.01" fill="rgba(241,192,94,0.9)"/>
  <path d="M0.33 0.17L0.2792651798824607 0.14439720610306098L0.2998592245850431 -0.04886998264425124L0.3320617884705666 -0.05586931291910649L0.36256582241286767 -0.053109812522365366L0.37109867977490996 0.1531009070603238Z" stroke="#1A1A1A" stroke-width="0.01" fill="rgba(222,167,56,0.9)"/>
  <path d="M0.22 -0.07L0.27042834417830597 -0.06495113305875612L0.29985922458504316 -0.04886998264425128L0.27926517988246075 0.14439720610306098L0.1456754255555002 0.12869757782260585Z" stroke="#1A1A1A" stroke-width="0.01" fill="rgba(66,55,212,0.9)"/>
  <path d="M0.16 -0.11L0.20537854991599144 -0.08881233980416012L0.21937662806216346 -0.07420734109356264L0.14567542555550023 0.12869757782260582L0.10684167293409416 0.13643478775235596L0.06390988327950436 0.010920416971916924Z" stroke="#1A1A1A" stroke-width="0.01" fill="rgba(69,117,213,0.9)"/>
  <path d="M0.16 -0.11L0.06390988327950432 0.010920416971916924L-0.02500438526723353 -0.07062787030022821L0.11838458910382449 -0.1658159560677141L0.14829790449311606 -0.13581837781817097Z" stroke="#1A1A1A" stroke-width="0.01" fill="rgba(55,103,213,0.9)"/>
  <path d="M0.09 -0.23L0.10858789478255251 -0.20408773311071657L0.11838458910382439 -0.16581595606771413L-0.025004385267233573 -0.07062787030022825L-0.15814178456410782 -0.10885935272881025L-0.11580686683379529 -0.17737950940914493Z" stroke="#1A1A1A" stroke-width="0.01" fill="rgba(52,92,211,0.9)"/>
  <path d="M0.09 -0.31L0.09298753344856325 -0.2993506737870719L0.09220553773507384 -0.2304639604805954L-0.11580686683379532 -0.17737950940914488L-0.08807447760864381 -0.32206619746993265Z" stroke="#1A1A1A" stroke-width="0.01" fill="rgba(73,44,218,0.9)"/>
  <path d="M0.09 -0.31L-0.08807447760864377 -0.3220661974699327L-0.15381911072629462 -0.4943385450047879L0.10181456522886123 -0.39241978320008086Z" stroke="#1A1A1A" stroke-width="0.01" fill="rgba(89,136,223,0.9)"/>
  <path d="M-0.15 -0.49L-0.2000771312167142 -0.5586585347670915L-0.10197214479925487 -0.6595732172271163L0.1377841840496506 -0.45371240049822475L0.1320761059104258 -0.42470413454478695L0.10181456522886131 -0.39241978320008086Z" stroke="#1A1A1A" stroke-width="0.01" fill="rgba(88,134,222,0.9)"/>
  <path d="M-0.1 -0.66L-0.0027925408560008497 -0.8138147752593538L0.16423126667045923 -0.540213871501724L0.17036446655061785 -0.49034645086797585L0.13778418404965068 -0.4537124004982247Z" stroke="#1A1A1A" stroke-width="0.01" fill="rgba(54,74,239,0.9)"/>
  <path d="M0.02 -0.86L0.21064646346059213 -0.6917328703843324L0.23584188293320163 -0.6018562254166411L0.16423126667045929 -0.5402138715017238L-0.002792540856000808 -0.8138147752593536Z" stroke="#1A1A1A" stroke-width="0.01" fill="rgba(90,124,251,0.9)"/>
  <path d="M0.34 -0.56L0.29132324869189496 -0.5451760051477053L0.2358418829332017 -0.6018562254166409L0.21064646346059218 -0.6917328703843323L0.3357682692969329 -0.6617349189728439Z" stroke="#1A1A1A" stroke-width="0.01" fill="rgba(80,75,205,0.9)"/>
  <path d="M0.43 -0.55L0.37570462673790755 -0.5470985909770564L0.3640940307488633 -0.5468960901373445L0.3386471140740842 -0.559230597362155L0.3357682692969328 -0.6617349189728439L0.49461716487568097 -0.7906755056889867Z" stroke="#1A1A1A" stroke-width="0.01" fill="rgba(210,195,61,0.9)"/>
  <path d="M0.57 -0.9L0.5935674034152809 -0.6293279468205024L0.4822384784310681 -0.526176772586382L0.4563669653756794 -0.5324414314292295L0.43019487625058167 -0.55305230994067L0.49461716487568097 -0.7906755056889867Z" stroke="#1A1A1A" stroke-width="0.01" fill="rgba(218,199,56,0.9)"/>
  <path d="M0.59 -0.63L0.6504556436859048 -0.5130102401548269L0.49480960717048106 -0.5122948611294768L0.48223847843106826 -0.5261767725863821Z" stroke="#1A1A1A" stroke-width="0.01" fill="rgba(238,158,48,0.9)"/>
  <path d="M0.72 -0.43L0.6283005270715133 -0.4257335312040344L0.5000294432217044 -0.4968754768686346L0.4948096071704812 -0.5122948611294768L0.6504556436859046 -0.5130102401548269Z" stroke="#1A1A1A" stroke-width="0.01" fill="rgba(206,178,62,0.9)"/>
  <path d="M0.5 -0.47L0.5000294432217044 -0.4968754768686346L0.6283005270715135 -0.42573353120403445L0.5718806973369751 -0.41066248079549333L0.5553083380291027 -0.41120773289635054Z" stroke="#1A1A1A" stroke-width="0.01" fill="rgba(182,162,55,0.9)"/>
  <path d="M0.46 -0.38L0.499598113527389 -0.47288691002324795L0.5553083380291026 -0.4112077328963506Z" stroke="#1A1A1A" stroke-width="0.01" fill="rgba(182,140,63,0.9)"/>
  <path d="M0.42 -0.42L0.4563669653756793 -0.5324414314292295L0.4822384784310684 -0.526176772586382L0.4948096071704811 -0.5122948611294771L0.5000294432217044 -0.49687547686863465L0.499598113527389 -0.472886910023248L0.4550119436957408 -0.3835264430610837L0.432375506375367 -0.3681532720462629L0.4156036582140154 -0.391205618649394Z" stroke="#1A1A1A" stroke-width="0.01" fill="rgba(63,98,232,0.9)"/>
  <path d="M0.38 -0.55L0.43019487625058156 -0.5530523099406701L0.4563669653756793 -0.5324414314292295L0.42111191324945213 -0.4201228402319035Z" stroke="#1A1A1A" stroke-width="0.01" fill="rgba(87,138,221,0.9)"/>
  <path d="M0.36 -0.55L0.3550541738638186 -0.42462652895673175L0.29455894479417977 -0.4185571063033634L0.25641678057775347 -0.4979404855788008L0.29132324869189485 -0.5451760051477053L0.3386471140740843 -0.559230597362155Z" stroke="#1A1A1A" stroke-width="0.01" fill="rgba(250,221,86,0.9)"/>
  <path d="M0.29 -0.42L0.29146345184016026 -0.4138423677144288L0.24204567307692307 -0.36971935096153846L0.13207610591042585 -0.42470413454478706L0.13778418404965065 -0.45371240049822464L0.17036446655061785 -0.4903464508679758L0.2564167805777535 -0.49794048557880066Z" stroke="#1A1A1A" stroke-width="0.01" fill="rgba(221,190,45,0.9)"/>
  <path d="M0.24 -0.36L0.22903560482673788 -0.2998113331709708L0.09298753344856327 -0.29935067378707186L0.08671948847535674 -0.313388482841649L0.10181456522886126 -0.39241978320008075L0.13207610591042587 -0.42470413454478706L0.24204567307692307 -0.3697193509615384Z" stroke="#1A1A1A" stroke-width="0.01" fill="rgba(186,105,69,0.9)"/>
  <path d="M0.23 -0.3L0.2310388754467397 -0.29607344246113304L0.23962738480768203 -0.251392117687642L0.2393974247625516 -0.24750966141167838L0.10858789478255251 -0.2040877331107166L0.09220553773507383 -0.2304639604805954L0.09298753344856324 -0.29935067378707186Z" stroke="#1A1A1A" stroke-width="0.01" fill="rgba(243,142,57,0.9)"/>
  <path d="M0.11 -0.2L0.23939742476255166 -0.2475096614116784L0.25234294051922673 -0.22061469194168806L0.25379418647397073 -0.21468699247212714L0.1482979044931161 -0.1358183778181709L0.11838458910382436 -0.1658159560677142Z" stroke="#1A1A1A" stroke-width="0.01" fill="rgba(207,167,69,0.9)"/>
  <path d="M0.21 -0.09L0.15984626424633908 -0.11474272992830331L0.1482979044931161 -0.1358183778181709L0.2537941864739707 -0.2146869924721271L0.2744455637488107 -0.19067376308277828Z" stroke="#1A1A1A" stroke-width="0.01" fill="rgba(179,143,52,0.9)"/>
  <path d="M0.27 -0.06L0.21937662806216346 -0.07420734109356264L0.20537854991599144 -0.08881233980416012L0.2744455637488107 -0.19067376308277828L0.30482374899418524 -0.17840927835638484Z" stroke="#1A1A1A" stroke-width="0.01" fill="rgba(218,149,51,0.9)"/>
  <path d="M0.3 -0.18L0.3388831321792336 -0.1813461353495866L0.3320617884705666 -0.0558693129191065L0.29985922458504316 -0.04886998264425127L0.270428344178306 -0.06495113305875612Z" stroke="#1A1A1A" stroke-width="0.01" fill="rgba(245,113,52,0.9)"/>
  <path d="M0.36 -0.05L0.3320617884705666 -0.0558693129191065L0.3388831321792336 -0.1813461353495866L0.3629559974232808 -0.1932275319542305L0.3810190827023159 -0.05685123809751511Z" stroke="#1A1A1A" stroke-width="0.01" fill="rgba(64,89,193,0.9)"/>
  <path d="M0.36 -0.19L0.37434332379444724 -0.20218261385776914L0.41791328161623004 -0.06275874882806395L0.39772573802231453 -0.056825558126667494L0.3810190827023159 -0.056851238097515105Z" stroke="#1A1A1A" stroke-width="0.01" fill="rgba(79,112,202,0.9)"/>
  <path d="M0.42 -0.06L0.3743433237944472 -0.20218261385776914L0.43586407234173985 -0.26725186961226144L0.4647902902377584 -0.2517902902377586L0.5118112606279344 -0.20776295342368156L0.4898892209722671 -0.10173579501876717L0.47962984889717575 -0.0911153154408963L0.4592377524146223 -0.0763949919512593L0.43098531562182285 -0.06451833655786586Z" stroke="#1A1A1A" stroke-width="0.01" fill="rgba(62,126,251,0.9)"/>
  <path d="M0.27 -0.19L0.2537941864739707 -0.21468699247212716L0.2523429405192266 -0.22061469194168826L0.39487411505749836 -0.2814192755749881L0.4323603237637176 -0.2731404883443935L0.4358640723417398 -0.2672518696122614L0.3743433237944469 -0.20218261385776887L0.36295599742328083 -0.1932275319542305L0.3388831321792336 -0.1813461353495866L0.30482374899418524 -0.17840927835638482Z" stroke="#1A1A1A" stroke-width="0.01" fill="rgba(188,127,61,0.9)"/>
  <path d="M0.25 -0.22L0.2393974247625516 -0.2475096614116784L0.23962738480768203 -0.2513921176876419L0.37868817025211476 -0.28687991628258314L0.39487411505749836 -0.2814192755749881Z" stroke="#1A1A1A" stroke-width="0.01" fill="rgba(76,113,202,0.9)"/>
  <path d="M0.38 -0.29L0.23962738480768203 -0.2513921176876419L0.2310388754467398 -0.2960734424611329L0.3587843832505932 -0.2972848222765143Z" stroke="#1A1A1A" stroke-width="0.01" fill="rgba(100,80,236,0.9)"/>
  <path d="M0.23 -0.3L0.2430452112412762 -0.3559491177398656L0.34195445326418916 -0.3125447961074703L0.35878438325059325 -0.2972848222765143L0.23103887544673982 -0.2960734424611329Z" stroke="#1A1A1A" stroke-width="0.01" fill="rgba(49,84,186,0.9)"/>
  <path d="M0.24 -0.37L0.2914634518401602 -0.41384236771442884L0.3419544532641893 -0.3125447961074702L0.24304521124127618 -0.3559491177398656Z" stroke="#1A1A1A" stroke-width="0.01" fill="rgba(90,61,247,0.9)"/>
  <path d="M0.36 -0.42L0.4156036582140154 -0.391205618649394L0.432375506375367 -0.3681532720462629L0.4323603237637176 -0.2731404883443935L0.3948741150574984 -0.2814192755749881L0.37868817025211443 -0.28687991628258325L0.3587843832505933 -0.29728482227651426L0.3419544532641892 -0.3125447961074702L0.29146345184016026 -0.4138423677144288L0.29455894479417977 -0.4185571063033634Z" stroke="#1A1A1A" stroke-width="0.01" fill="rgba(50,83,230,0.9)"/>
  <path d="M0.57 -0.41L0.5244140625000003 -0.3114140625000003L0.4647902902377584 -0.2517902902377586L0.43586407234173974 -0.2672518696122615L0.4323603237637176 -0.2731404883443934L0.432375506375367 -0.3681532720462629L0.4550119436957407 -0.38352644306108363L0.5553083380291026 -0.41120773289635054Z" stroke="#1A1A1A" stroke-width="0.01" fill="rgba(253,173,82,0.9)"/>
  <path d="M0.73 -0.41L0.5244140625000002 -0.31141406250000025L0.5718806973369751 -0.4106624807954934L0.6283005270715135 -0.42573353120403445L0.715459351628887 -0.43371396217786934L0.7223767098287206 -0.430181408378731Z" stroke="#1A1A1A" stroke-width="0.01" fill="rgba(184,152,57,0.9)"/>
  <path d="M0.52 -0.31L0.7335886617087561 -0.41145408820853524L0.7658100077390115 -0.3680086856343688L0.6491879487117971 -0.2084123490270003L0.5118112606279341 -0.20776295342368162L0.4647902902377584 -0.25179029023775856Z" stroke="#1A1A1A" stroke-width="0.01" fill="rgba(197,105,50,0.9)"/>
  <path d="M0.78 -0.08L0.7820373006456972 -0.08539251524796757L0.7977089147117201 -0.08650811040672254L0.921 -0.03239275685358606L0.921 -0.004194540939321121L0.8698523371361117 0.3055652824175855L0.863859155970036 0.316L0.7782158698064364 0.316L0.7443954951336652 0.27277079280607786L0.7163796303240314 0.163909179413746Z" stroke="#1A1A1A" stroke-width="0.01" fill="rgba(189,152,72,0.9)"/>
  <path d="M0.78 -0.08L0.7163796303240314 0.16390917941374575L0.653154725500216 0.019384093417137666Z" stroke="#1A1A1A" stroke-width="0.01" fill="rgba(208,168,59,0.9)"/>
  <path d="M0.78 -0.08L0.6531547255002159 0.019384093417137677L0.6324251871959353 -0.00417336214070071L0.6375961768906748 -0.07007116206303837L0.6702131747718895 -0.1533303408650864L0.7820373006456972 -0.08539251524796757Z" stroke="#1A1A1A" stroke-width="0.01" fill="rgba(224,149,56,0.9)"/>
  <path d="M0.72 -0.43L0.7154593516288871 -0.4337139621778693L0.6504556436859049 -0.5130102401548264L0.5935674034152809 -0.6293279468205029L0.5733434251297039 -0.9033977215181512L0.5793368201889573 -0.923L0.6552085999015741 -0.923L0.7313374665492283 -0.4513723871096612Z" stroke="#1A1A1A" stroke-width="0.01" fill="rgba(246,198,82,0.9)"/>
  <path d="M0.73 -0.45L0.6552085999015741 -0.923L0.6968930602477486 -0.923L0.7505076357475136 -0.4886045342719674Z" stroke="#1A1A1A" stroke-width="0.01" fill="rgba(235,215,83,0.9)"/>
  <path d="M0.7 -0.92L0.7633313892757657 -0.923L0.7712283580854171 -0.5179983139050359L0.7505076357475136 -0.4886045342719673Z" stroke="#1A1A1A" stroke-width="0.01" fill="rgba(212,189,74,0.9)"/>
  <path d="M0.79 -0.54L0.7712283580854171 -0.517998313905036L0.7633313892757657 -0.923L0.7787329153220942 -0.923L0.8207645558633477 -0.7924292781493727Z" stroke="#1A1A1A" stroke-width="0.01" fill="rgba(197,156,62,0.9)"/>
  <path d="M0.82 -0.79L0.8596596542033162 -0.6987510206541463L0.8072124548048831 -0.5531953099641145L0.7974870396688082 -0.5426264983934749L0.7924524840022167 -0.5392384640769635Z" stroke="#1A1A1A" stroke-width="0.01" fill="rgba(241,177,84,0.9)"/>
  <path d="M0.89 -0.65L0.8109118359375004 -0.5558359765625004L0.8072124548048831 -0.5531953099641144L0.8596596542033162 -0.6987510206541463Z" stroke="#1A1A1A" stroke-width="0.01" fill="rgba(253,212,51,0.9)"/>
  <path d="M0.81 -0.56L0.8902317783741925 -0.6454658486240881L0.9232841509079629 -0.6055745422051638Z" stroke="#1A1A1A" stroke-width="0.01" fill="rgba(235,152,55,0.9)"/>
  <path d="M0.93 -0.6L0.9421446821968888 -0.5572547993232813L0.7974870396688082 -0.5426264983934749L0.8072124548048829 -0.5531953099641143L0.8109118359375003 -0.5558359765625004L0.9232841509079629 -0.6055745422051639Z" stroke="#1A1A1A" stroke-width="0.01" fill="rgba(230,210,67,0.9)"/>
  <path d="M0.77 -0.52L0.792452484002217 -0.5392384640769637L0.7974870396688083 -0.5426264983934749L0.9421446821968888 -0.5572547993232813L0.9570014593126421 -0.5338236377151133L0.915081353198239 -0.4782507638956349L0.7680995563592248 -0.3674062279795006L0.7658100077390115 -0.3680086856343688L0.7335886617087565 -0.41145408820853496L0.7223767098287206 -0.43018140837873103L0.7313374665492283 -0.4513723871096614L0.7505076357475133 -0.48860453427196704Z" stroke="#1A1A1A" stroke-width="0.01" fill="rgba(216,134,51,0.9)"/>
  <path d="M1.19 -0.31L1.2118716098201539 -0.2558121755371592L1.1678785750568463 -0.14532260570039135L1.0190785247035858 -0.08485405934169643L0.9748227048673759 -0.1000737187438276L0.989388932747594 -0.25563417819788725L1.1077589079061783 -0.31603822071954873L1.1371218271155723 -0.3272530054858992L1.1864889544869928 -0.3135738851298449Z" stroke="#1A1A1A" stroke-width="0.01" fill="rgba(225,134,52,0.9)"/>
  <path d="M1.02 -0.08L1.1678785750568463 -0.14532260570039152L1.159769653276979 -0.10324387646432368L1.0323655227834454 -0.07818076882625152Z" stroke="#1A1A1A" stroke-width="0.01" fill="rgba(201,135,45,0.9)"/>
  <path d="M1.03 -0.08L1.159769653276979 -0.10324387646432373L1.1653328400851743 -0.053433547519118725L1.0522728432645079 -0.06338346916976664Z" stroke="#1A1A1A" stroke-width="0.01" fill="rgba(218,177,44,0.9)"/>
  <path d="M1.05 -0.06L1.1653328400851746 -0.053433547519118725L1.1669406040326915 -0.05063388466362736L1.1667612049821496 0.02709075398359889L1.0598044533302997 -0.05219503235177336Z" stroke="#1A1A1A" stroke-width="0.01" fill="rgba(239,148,85,0.9)"/>
  <path d="M1.08 0.03L1.0598044533302997 -0.052195032351773314L1.1667612049821496 0.02709075398359912L1.1697125490509157 0.04019107568606679L1.1601252772444341 0.09914828605738453L1.1596585464068083 0.09931427195560008Z" stroke="#1A1A1A" stroke-width="0.01" fill="rgba(212,115,56,0.9)"/>
  <path d="M1.05 -0.06L1.0598044533302997 -0.05219503235177328L1.0814229365462387 0.031221741269325406L0.921 -0.0041945409393211175L0.921 -0.03239275685358611L0.9748227048673759 -0.10007371874382776L1.019078524703586 -0.08485405934169664L1.0323655227834454 -0.07818076882625159Z" stroke="#1A1A1A" stroke-width="0.01" fill="rgba(244,190,84,0.9)"/>
  <path d="M1.1 -0.57L1.2921916882309448 -0.5199735935609627L1.3324436855699109 -0.49468559523273603L1.1864889544869928 -0.3135738851298449L1.137121827115572 -0.32725300548589925L1.0819710721713394 -0.5224784652534122Z" stroke="#1A1A1A" stroke-width="0.01" fill="rgba(242,137,59,0.9)"/>
  <path d="M1.14 -0.71L1.2921916882309443 -0.519973593560963L1.1038136363540112 -0.5686920552532728L1.1307090993244426 -0.7015892886838311Z" stroke="#1A1A1A" stroke-width="0.01" fill="rgba(199,141,62,0.9)"/>
  <path d="M1.38 -0.52L1.3324436855699109 -0.494685595232736L1.2921916882309443 -0.519973593560963L1.1364588858666655 -0.7144892752785095L1.193285041816197 -0.923L1.235607742877889 -0.923L1.396433723347169 -0.7425929747097448L1.4137969260259755 -0.701804972241253Z" stroke="#1A1A1A" stroke-width="0.01" fill="rgba(233,124,58,0.9)"/>
  <path d="M1.7 -0.63L1.5769923724512518 -0.5684551834288025L1.5353072176818205 -0.652476561144967L1.704573260251855 -0.6990211666571474L1.7112671130527615 -0.6970601896544661L1.7096650462305252 -0.6597138960908269Z" stroke="#1A1A1A" stroke-width="0.01" fill="rgba(237,210,56,0.9)"/>
  <path d="M1.58 -0.56L1.5769923724512518 -0.5684551834288027L1.7016381711923765 -0.6273474644853887L1.697863040253993 -0.5861225878771833Z" stroke="#1A1A1A" stroke-width="0.01" fill="rgba(235,134,66,0.9)"/>
  <path d="M1.58 -0.54L1.5806668751969026 -0.5559438987227585L1.697863040253993 -0.5861225878771833L1.7048128939243667 -0.5404746853604107Z" stroke="#1A1A1A" stroke-width="0.01" fill="rgba(250,184,81,0.9)"/>
  <path d="M1.58 -0.54L1.7048128939243665 -0.5404746853604107L1.7458212027110804 -0.45786062739090616L1.5942409661262391 -0.5223212950107491L1.580830628518038 -0.5343612331553383Z" stroke="#1A1A1A" stroke-width="0.01" fill="rgba(226,139,58,0.9)"/>
  <path d="M1.75 -0.46L1.7752178248446207 -0.4175219292409925L1.7660449379664425 -0.39765810730409235L1.7555616097995075 -0.398703083665663L1.6445070342815284 -0.41959001821837644L1.594240966126239 -0.5223212950107491Z" stroke="#1A1A1A" stroke-width="0.01" fill="rgba(199,138,59,0.9)"/>
  <path d="M1.58 -0.53L1.594240966126239 -0.5223212950107491L1.6445070342815284 -0.4195900182183764L1.4949375485749856 -0.40867477732126967L1.4856132151669 -0.4308789662182504Z" stroke="#1A1A1A" stroke-width="0.01" fill="rgba(195,134,51,0.9)"/>
  <path d="M1.19 -0.31L1.1864889544869928 -0.3135738851298449L1.3324436855699109 -0.494685595232736L1.3769021034418119 -0.517635080212421L1.4856132151668997 -0.4308789662182505L1.4949375485749854 -0.4086747773212698L1.4903526642687566 -0.32455803851491327L1.479857292917167 -0.308Z" stroke="#1A1A1A" stroke-width="0.01" fill="rgba(194,109,47,0.9)"/>
  <path d="M1.49 -0.41L1.6445070342815287 -0.41959001821837644L1.7555616097995081 -0.398703083665663L1.5176758531334262 -0.31920784341785263L1.4903526642687566 -0.3245580385149136Z" stroke="#1A1A1A" stroke-width="0.01" fill="rgba(209,165,68,0.9)"/>
  <path d="M1.53 -0.31L1.517675853133426 -0.31920784341785263L1.755561609799508 -0.3987030836656629L1.7660449379664427 -0.3976581073040923L1.7685497398696082 -0.3405368366088423Z" stroke="#1A1A1A" stroke-width="0.01" fill="rgba(217,198,46,0.9)"/>
  <path d="M1.53 -0.31L1.7685497398696082 -0.34053683660884226L1.7705308879100943 -0.3263538864951239L1.6457404690922917 -0.28158858186373953L1.5617298995590403 -0.2985318900048993Z" stroke="#1A1A1A" stroke-width="0.01" fill="rgba(221,151,86,0.9)"/>
  <path d="M1.56 -0.3L1.6457404690922919 -0.2815885818637396L1.6144852368216192 -0.2349786766944237Z" stroke="#1A1A1A" stroke-width="0.01" fill="rgba(194,175,52,0.9)"/>
  <path d="M1.53 -0.31L1.5617298995590398 -0.2985318900048997L1.6144852368216194 -0.2349786766944236L1.613916211900532 -0.18770567007530936L1.4833062707451727 -0.12843759182944361L1.479857292917167 -0.30799999999999994L1.4903526642687568 -0.32455803851491355L1.5176758531334258 -0.3192078434178527Z" stroke="#1A1A1A" stroke-width="0.01" fill="rgba(223,149,55,0.9)"/>
  <path d="M1.21 -0.26L1.1914237833834205 -0.308L1.479857292917167 -0.308L1.4833062707451727 -0.12843759182944361L1.4757894200930473 -0.11079310831277828L1.4280439518822556 -0.06854917553368288L1.3386026147889631 -0.1121837032391752Z" stroke="#1A1A1A" stroke-width="0.01" fill="rgba(204,104,54,0.9)"/>
  <path d="M1.64 -0.12L1.5554250710227278 -0.08341246448863612L1.4757894200930473 -0.11079310831277847L1.4833062707451727 -0.1284375918294437L1.6139162119005317 -0.1877056700753093L1.6205161413938127 -0.18732879673572841Z" stroke="#1A1A1A" stroke-width="0.01" fill="rgba(231,211,54,0.9)"/>
  <path d="M1.64 -0.12L1.7305197111329023 -0.13871511258031177L1.7134707125085797 -0.10374280770990661L1.568075838414635 -0.07708708079268242L1.555425071022728 -0.08341246448863608Z" stroke="#1A1A1A" stroke-width="0.01" fill="rgba(179,125,64,0.9)"/>
  <path d="M1.59 -0.06L1.5680758384146352 -0.07708708079268252L1.7134707125085795 -0.10374280770990671L1.703234761909934 -0.061657496118661954L1.7003599104300173 -0.052123596663946926Z" stroke="#1A1A1A" stroke-width="0.01" fill="rgba(182,140,59,0.9)"/>
  <path d="M1.59 -0.06L1.7003599104300176 -0.052123596663946926L1.704671648408345 -0.011118284579824817L1.7020124624187125 0.026555202102195155L1.5960707015971316 -0.0509381804106917Z" stroke="#1A1A1A" stroke-width="0.01" fill="rgba(199,172,54,0.9)"/>
  <path d="M1.6 -0.05L1.7020124624187123 0.026555202102195294L1.7033688392655661 0.03550363438375859L1.704148153684519 0.06723286429827188L1.629315298834342 0.07297350020072894Z" stroke="#1A1A1A" stroke-width="0.01" fill="rgba(228,191,71,0.9)"/>
  <path d="M1.43 0.13L1.426291827616171 0.02410315565687532L1.4280439518822556 -0.06854917553368287L1.4757894200930475 -0.11079310831277842L1.5554250710227278 -0.0834124644886362L1.568075838414635 -0.07708708079268264L1.588416229093046 -0.06208329184172172L1.5960707015971316 -0.05093818041069152L1.6293152988343422 0.07297350020072892Z" stroke="#1A1A1A" stroke-width="0.01" fill="rgba(183,140,55,0.9)"/>
  <path d="M1.22 0.01L1.292191688230945 -0.08302640643903747L1.338602614788963 -0.11218370323917537L1.4280439518822556 -0.06854917553368288L1.426291827616171 0.024103155656875666Z" stroke="#1A1A1A" stroke-width="0.01" fill="rgba(186,108,40,0.9)"/>
  <path d="M1.29 -0.08L1.2214214569431174 0.005368071636685248L1.1697125490509157 0.04019107568606667L1.1667612049821496 0.027090753983598892L1.1669406040326915 -0.05063388466362717Z" stroke="#1A1A1A" stroke-width="0.01" fill="rgba(203,121,49,0.9)"/>
  <path d="M1.17 -0.05L1.1653328400851743 -0.053433547519118996L1.159769653276979 -0.1032438764643232L1.1678785750568463 -0.14532260570039127L1.2118716098201539 -0.25581217553715896L1.338602614788963 -0.1121837032391754L1.2921916882309445 -0.08302640643903714Z" stroke="#1A1A1A" stroke-width="0.01" fill="rgba(209,142,78,0.9)"/>
  <path d="M2.33 0.05L2.2286839157735434 -0.11140292126330109L2.2196032782007062 -0.13471128590878634L2.2394092145270452 -0.15012175014032741L2.3279042238783947 -0.21207298398378047L2.3738603174042248 -0.01946019358866838L2.3761485895628507 0.03232212764561372Z" stroke="#1A1A1A" stroke-width="0.01" fill="rgba(204,137,49,0.9)"/>
  <path d="M2.33 0.05L2.295826019689825 0.06562584578509167L2.266624066705666 0.04993363110300898L2.2286839157735443 -0.11140292126329965Z" stroke="#1A1A1A" stroke-width="0.01" fill="rgba(219,195,65,0.9)"/>
  <path d="M2.22 -0.13L2.2286839157735447 -0.11140292126329854L2.2666240667056665 0.049933631103009246L2.208920820701126 0.04475590949199815L2.2050080973244603 -0.1286395159370744Z" stroke="#1A1A1A" stroke-width="0.01" fill="rgba(216,181,65,0.9)"/>
  <path d="M2.21 0.04L2.139549957133241 0.0840782832950108L2.1775975084188586 -0.10685124679281605L2.185972319858774 -0.12473643732551752L2.2050080973244603 -0.12863951593707437Z" stroke="#1A1A1A" stroke-width="0.01" fill="rgba(216,120,47,0.9)"/>
  <path d="M2.14 0.08L2.023885865732315 0.20843921978651142L2.0236014010224963 0.0871328000932084L2.177597508418858 -0.10685124679281573Z" stroke="#1A1A1A" stroke-width="0.01" fill="rgba(220,172,69,0.9)"/>
  <path d="M2.19 -0.12L2.1775975084188577 -0.10685124679281492L2.0236014010224963 0.08713280009320866L1.9874061567291763 -0.09203694366365289L2.0437787891481354 -0.154112965579545Z" stroke="#1A1A1A" stroke-width="0.01" fill="rgba(238,120,55,0.9)"/>
  <path d="M2.04 -0.18L1.9500335177996484 -0.2277169069162874L1.9445701995502707 -0.28793304236563294L2.020946785573967 -0.32272497959985497L2.040053214426033 -0.28427502040014513L2.045879976878248 -0.23645538372334446Z" stroke="#1A1A1A" stroke-width="0.01" fill="rgba(206,107,55,0.9)"/>
  <path d="M2.02 -0.37L2.020946785573967 -0.322724979599855L1.9445701995502707 -0.2879330423656329L1.906526932785888 -0.30995809154501214L1.9417816487156017 -0.3400740900468081Z" stroke="#1A1A1A" stroke-width="0.01" fill="rgba(223,117,62,0.9)"/>
  <path d="M1.83 -0.46L1.8518952532891766 -0.47618057359707083L1.857913646050832 -0.478657451828271L1.8740031370790622 -0.48201874942019146L1.9298371123483435 -0.47062113799301314L2.023913967302345 -0.4257591437566274L2.024583134997891 -0.4232383433613594L2.0151200231217516 -0.37054461627665464L1.9417816487156017 -0.3400740900468081Z" stroke="#1A1A1A" stroke-width="0.01" fill="rgba(244,145,65,0.9)"/>
  <path d="M1.77 -0.4L1.7752178248446209 -0.4175219292409924L1.8291377726395242 -0.4573426413870044L1.9417816487156017 -0.3400740900468081L1.906526932785888 -0.3099580915450122L1.7786360703764446 -0.30576257682796015L1.770530887910094 -0.32635388649512403L1.7685497398696084 -0.3405368366088402Z" stroke="#1A1A1A" stroke-width="0.01" fill="rgba(183,145,70,0.9)"/>
  <path d="M1.94 -0.29L1.9500335177996482 -0.22771690691628754L1.7859237252521896 -0.2267886841077616L1.7786360703764448 -0.30576257682796015L1.906526932785888 -0.3099580915450122Z" stroke="#1A1A1A" stroke-width="0.01" fill="rgba(230,166,81,0.9)"/>
  <path d="M1.86 -0.1L1.8522026176398223 -0.1037316989387071L1.7793016062776785 -0.19446620537004802L1.7859237252521896 -0.2267886841077616L1.9500335177996484 -0.22771690691628754L2.0360320260302913 -0.18161874635522213L2.0437787891481354 -0.15411296557954496L1.987406156729176 -0.09203694366365275L1.8874449091970065 -0.09540527705564883Z" stroke="#1A1A1A" stroke-width="0.01" fill="rgba(207,181,67,0.9)"/>
  <path d="M2.02 0.21L1.9927586114378226 0.316L1.955305573453608 0.316L1.8874449091970065 -0.09540527705564883L1.987406156729176 -0.09203694366365275L2.0236014010224963 0.08713280009320845Z" stroke="#1A1A1A" stroke-width="0.01" fill="rgba(208,134,42,0.9)"/>
  <path d="M1.92 0.32L1.8971726267670235 0.29384957102757914L1.864113324260986 -0.09955612879426642L1.8874449091970065 -0.09540527705564883L1.955305573453608 0.316Z" stroke="#1A1A1A" stroke-width="0.01" fill="rgba(231,181,50,0.9)"/>
  <path d="M1.89 0.28L1.8365019773482203 0.21011484232556069L1.8417343157494261 -0.08551227734258043L1.8522026176398223 -0.10373169893870711L1.864113324260986 -0.09955612879426644L1.8971726267670235 0.2938495710275791Z" stroke="#1A1A1A" stroke-width="0.01" fill="rgba(206,181,82,0.9)"/>
  <path d="M1.79 0.15L1.8208753354376621 -0.06055517507110991L1.8417343157494261 -0.08551227734258046L1.8365019773482203 0.21011484232556063Z" stroke="#1A1A1A" stroke-width="0.01" fill="rgba(247,217,51,0.9)"/>
  <path d="M1.81 -0.05L1.8165750083273187 -0.057166107753196166L1.820875335437662 -0.06055517507110956L1.7880726771302042 0.14918303410687853L1.7368310352993948 0.09538259737526254Z" stroke="#1A1A1A" stroke-width="0.01" fill="rgba(195,154,56,0.9)"/>
  <path d="M1.81 -0.05L1.7368310352993948 0.09538259737526256L1.704148153684519 0.06723286429827202L1.7033688392655661 0.03550363438375634Z" stroke="#1A1A1A" stroke-width="0.01" fill="rgba(212,117,57,0.9)"/>
  <path d="M1.82 -0.06L1.8111353488144872 -0.05047401804325227L1.7033688392655657 0.035503634383756574L1.7020124624187123 0.026555202102195197L1.7046716484083448 -0.011118284579824285L1.776494959429533 -0.04474973572786012Z" stroke="#1A1A1A" stroke-width="0.01" fill="rgba(236,149,85,0.9)"/>
  <path d="M1.85 -0.1L1.8417343157494264 -0.08551227734258059L1.8208753354376617 -0.060555175071109385L1.8165750083273184 -0.057166107753196096L1.7764949594295327 -0.04474973572786014L1.7032347619099342 -0.06165749611866259L1.7134707125085793 -0.10374280770990585L1.7305197111329023 -0.13871511258031174L1.7605529375099334 -0.18341148003134755L1.7793016062776785 -0.19446620537004808Z" stroke="#1A1A1A" stroke-width="0.01" fill="rgba(246,154,88,0.9)"/>
  <path d="M1.83 -0.46L1.7752178248446209 -0.4175219292409925L1.7458212027110804 -0.4578606273909062L1.7048128939243665 -0.5404746853604108L1.697863040253993 -0.5861225878771829L1.7016381711923765 -0.6273474644853889L1.7096650462305252 -0.6597138960908274L1.835977251040945 -0.5071676179736275L1.8518952532891764 -0.47618057359707067Z" stroke="#1A1A1A" stroke-width="0.01" fill="rgba(242,203,91,0.9)"/>
  <path d="M1.77 -0.72L1.8359772510409442 -0.5071676179736289L1.7096650462305252 -0.6597138960908275L1.7112671130527615 -0.697060189654466Z" stroke="#1A1A1A" stroke-width="0.01" fill="rgba(193,115,77,0.9)"/>
  <path d="M1.85 -0.77L1.8579136460508316 -0.4786574518282708L1.8518952532891761 -0.47618057359707067L1.8359772510409444 -0.5071676179736284L1.7711229908328288 -0.7224219959024674Z" stroke="#1A1A1A" stroke-width="0.01" fill="rgba(232,184,89,0.9)"/>
  <path d="M1.85 -0.77L1.9038418219270092 -0.8247145782028564L1.9321974704017106 -0.7435724762065473L1.8814768448491446 -0.49790822896498793L1.8740031370790624 -0.4820187494201915L1.8579136460508319 -0.47865745182827096Z" stroke="#1A1A1A" stroke-width="0.01" fill="rgba(254,155,91,0.9)"/>
  <path d="M1.93 -0.74L1.9932597977102124 -0.6387981002995746L1.8814768448491452 -0.49790822896498943Z" stroke="#1A1A1A" stroke-width="0.01" fill="rgba(248,145,50,0.9)"/>
  <path d="M2.03 -0.61L1.9298371123483433 -0.4706211379930132L1.8740031370790624 -0.4820187494201914L1.8814768448491455 -0.49790822896498993L1.9932597977102122 -0.6387981002995747Z" stroke="#1A1A1A" stroke-width="0.01" fill="rgba(225,134,85,0.9)"/>
  <path d="M2.11 -0.38L2.1149778166490645 -0.3184055333433917L2.040053214426033 -0.2842750204001448L2.020946785573967 -0.3227249795998549L2.015120023121752 -0.37054461627665536L2.024583134997891 -0.42323834336135857Z" stroke="#1A1A1A" stroke-width="0.01" fill="rgba(190,111,40,0.9)"/>
  <path d="M2.05 -0.24L2.040053214426033 -0.28427502040014474L2.1149778166490645 -0.3184055333433918L2.154001438142935 -0.2961063210611802L2.1177864885937843 -0.2663310016255233Z" stroke="#1A1A1A" stroke-width="0.01" fill="rgba(230,134,66,0.9)"/>
  <path d="M2.24 -0.15L2.2196032782007062 -0.13471128590878612L2.2050080973244603 -0.12863951593707432L2.1859723198587746 -0.12473643732551751L2.0437787891481354 -0.15411296557954504L2.0360320260302913 -0.18161874635522185L2.0458799768782483 -0.23645538372334574L2.117786488593784 -0.2663310016255232Z" stroke="#1A1A1A" stroke-width="0.01" fill="rgba(212,166,48,0.9)"/>
  <path d="M2.12 -0.27L2.154001438142935 -0.29610632106118023L2.3620068114682176 -0.304291717696665L2.366470521896689 -0.2682808057408568L2.327904223878395 -0.2120729839837811L2.2394092145270488 -0.15012175014033025Z" stroke="#1A1A1A" stroke-width="0.01" fill="rgba(197,105,63,0.9)"/>
  <path d="M2.36 -0.32L2.3620068114682176 -0.30429171769666513L2.154001438142935 -0.29610632106118023L2.1149778166490645 -0.31840553334339183L2.112091191150314 -0.376217128948499L2.2887066078802007 -0.37826128886435423Z" stroke="#1A1A1A" stroke-width="0.01" fill="rgba(245,147,70,0.9)"/>
  <path d="M2.2 -0.51L2.2887066078802003 -0.37826128886435423L2.1120911911503146 -0.376217128948499L2.0245831349978913 -0.42323834336135846L2.0239139673023456 -0.42575914375662766L2.110796181076822 -0.5131659867868874L2.1721176338071277 -0.5111843059817905L2.195156434461509 -0.5072337424080424Z" stroke="#1A1A1A" stroke-width="0.01" fill="rgba(219,151,46,0.9)"/>
  <path d="M2.06 -0.6L2.14154456007476 -0.6965335654842721L2.1721176338071277 -0.5111843059817905L2.110796181076822 -0.5131659867868874Z" stroke="#1A1A1A" stroke-width="0.01" fill="rgba(247,201,73,0.9)"/>
  <path d="M2.14 -0.7L2.1743180377724736 -0.7552106630075649L2.1951564344615093 -0.5072337424080424L2.1721176338071273 -0.5111843059817907Z" stroke="#1A1A1A" stroke-width="0.01" fill="rgba(229,141,83,0.9)"/>
  <path d="M2.2 -0.51L2.1951564344615093 -0.5072337424080424L2.1743180377724736 -0.7552106630075648L2.2089721487363847 -0.8390604413775041L2.241665625577697 -0.7993531327989063L2.2220968053910903 -0.5351740602797155Z" stroke="#1A1A1A" stroke-width="0.01" fill="rgba(253,210,73,0.9)"/>
  <path d="M2.24 -0.8L2.334835864420736 -0.7126929645630615L2.2433972133124818 -0.5495142363844293L2.22209680539109 -0.5351740602797155Z" stroke="#1A1A1A" stroke-width="0.01" fill="rgba(234,197,57,0.9)"/>
  <path d="M2.37 -0.69L2.3710184654994175 -0.6651010966297127L2.3620463734473005 -0.5775992862962736L2.243397213312482 -0.5495142363844296L2.334835864420736 -0.7126929645630614Z" stroke="#1A1A1A" stroke-width="0.01" fill="rgba(231,183,69,0.9)"/>
  <path d="M2.2 -0.51L2.22209680539109 -0.5351740602797155L2.243397213312482 -0.5495142363844296L2.3620463734473005 -0.5775992862962736L2.419247454723822 -0.39169577214757906L2.408612447423896 -0.3745763141509576L2.3626737878509263 -0.3161883287884187L2.2887066078802 -0.37826128886435495Z" stroke="#1A1A1A" stroke-width="0.01" fill="rgba(185,153,59,0.9)"/>
  <path d="M3.28 -0.22L3.283 0.316L3.1721305392976573 0.316L2.925899269705921 -0.08196297085367327Z" stroke="#1A1A1A" stroke-width="0.01" fill="rgba(252,137,55,0.9)"/>
  <path d="M3.01 0.32L2.915037083080496 -0.08013434079827197L2.925899269705921 -0.0819629708536734L3.1721305392976573 0.316Z" stroke="#1A1A1A" stroke-width="0.01" fill="rgba(223,144,54,0.9)"/>
  <path d="M2.92 -0.08L3.0081926418106684 0.316L2.9183967813198506 0.316L2.8928427058798976 0.26287313688808217L2.885259930881263 -0.0731635235776939L2.901840871303362 -0.08123808464640783Z" stroke="#1A1A1A" stroke-width="0.01" fill="rgba(201,178,52,0.9)"/>
  <path d="M2.85 -0.07L2.885259930881263 -0.07316352357769393L2.8928427058798976 0.262873136888082L2.80985250158191 0.12772369660714503Z" stroke="#1A1A1A" stroke-width="0.01" fill="rgba(192,158,62,0.9)"/>
  <path d="M2.83 -0.07L2.8489004013526564 -0.06822576406060027L2.80985250158191 0.12772369660714508L2.7342765066644854 0.04723266701932285Z" stroke="#1A1A1A" stroke-width="0.01" fill="rgba(241,161,50,0.9)"/>
  <path d="M2.69 0.02L2.6665954922765835 -0.09109971552289842L2.7369539930380093 -0.13623364857714604L2.829359620494247 -0.07254053714192395L2.734276506664486 0.047232667019322674Z" stroke="#1A1A1A" stroke-width="0.01" fill="rgba(240,222,67,0.9)"/>
  <path d="M2.63 -0.24L2.6235701995502705 -0.287933042365633L2.658308611354253 -0.30375748158219756L2.682163564570374 -0.28619577300085813L2.7151181767586596 -0.24785674081308434Z" stroke="#1A1A1A" stroke-width="0.01" fill="rgba(223,205,89,0.9)"/>
  <path d="M2.62 -0.34L2.6533749278092724 -0.3536159005052781L2.658308611354253 -0.3037574815821975L2.6235701995502705 -0.287933042365633L2.611840909688527 -0.2947236838645369L2.6069222318569505 -0.3282348178716179Z" stroke="#1A1A1A" stroke-width="0.01" fill="rgba(199,107,41,0.9)"/>
  <path d="M2.56 -0.48L2.6957126805109235 -0.45288688275403133L2.6995048859461788 -0.4386013859738329L2.653374927809273 -0.35361590050527825L2.6207816487156017 -0.3400740900468079L2.5081377726395253 -0.4573426413870055L2.516820010536231 -0.4645295269411546Z" stroke="#1A1A1A" stroke-width="0.01" fill="rgba(179,138,71,0.9)"/>
  <path d="M2.41 -0.37L2.4192474547238225 -0.3916957721475792L2.5081377726395258 -0.45734264138700537L2.6207816487156013 -0.340074090046808L2.6069222318569505 -0.32823481787161773Z" stroke="#1A1A1A" stroke-width="0.01" fill="rgba(205,146,71,0.9)"/>
  <path d="M2.61 -0.29L2.6235701995502705 -0.28793304236563305L2.628372409692923 -0.23500357291012341L2.620099194812747 -0.22766637341523038L2.4324794188307575 -0.2266051755872789L2.4184363342167488 -0.23736640834400335Z" stroke="#1A1A1A" stroke-width="0.01" fill="rgba(234,163,92,0.9)"/>
  <path d="M2.57 -0.1L2.543113324260987 -0.09955612879426608L2.531202617639823 -0.10373169893870698L2.4324794188307575 -0.2266051755872789L2.620099194812747 -0.22766637341523038L2.663261659600858 -0.09214290187185681Z" stroke="#1A1A1A" stroke-width="0.01" fill="rgba(250,197,95,0.9)"/>
  <path d="M2.57 -0.1L2.6632616596008574 -0.09214290187185682L2.6665954922765835 -0.09109971552289867L2.6894931564684508 0.02224580005481018L2.5964496611015764 0.08649853136580568Z" stroke="#1A1A1A" stroke-width="0.01" fill="rgba(230,182,47,0.9)"/>
  <path d="M2.54 -0.1L2.5664449091970063 -0.09540527705564875L2.5964496611015764 0.08649853136580568L2.561538388264035 0.1197021328420097Z" stroke="#1A1A1A" stroke-width="0.01" fill="rgba(219,187,79,0.9)"/>
  <path d="M2.52 0.17L2.5207343157494266 -0.08551227734258099L2.5312026176398223 -0.10373169893870716L2.5431133242609865 -0.09955612879426644L2.561538388264035 0.11970213284200922L2.5237987367244825 0.16757848242873025Z" stroke="#1A1A1A" stroke-width="0.01" fill="rgba(251,162,59,0.9)"/>
  <path d="M2.52 -0.09L2.5162975128575553 0.1651670860481549L2.496977802163178 0.16100011678618847L2.470899769202323 0.12471283934272177L2.499875335437661 -0.0605551750711083Z" stroke="#1A1A1A" stroke-width="0.01" fill="rgba(180,119,71,0.9)"/>
  <path d="M2.43 0.07L2.490135348814486 -0.050474018043250246L2.49557500832732 -0.057166107753196894L2.499875335437661 -0.06055517507110861L2.470899769202323 0.12471283934272201Z" stroke="#1A1A1A" stroke-width="0.01" fill="rgba(197,147,66,0.9)"/>
  <path d="M2.49 -0.05L2.426274263912146 0.07488292639467531L2.3816880894832058 0.03604674623197679Z" stroke="#1A1A1A" stroke-width="0.01" fill="rgba(204,153,77,0.9)"/>
  <path d="M2.38 0.03L2.3738603174042243 -0.019460193588669204L2.4955750083273194 -0.057166107753196804L2.4901353488144853 -0.05047401804324968L2.3816880894832053 0.03604674623197672Z" stroke="#1A1A1A" stroke-width="0.01" fill="rgba(235,122,60,0.9)"/>
  <path d="M2.5 -0.06L2.3738603174042243 -0.019460193588669218L2.3279042238783947 -0.21207298398378027L2.3664705218966895 -0.26828080574085694L2.418436334216749 -0.2373664083440031L2.432479418830758 -0.2266051755872788L2.5312026176398223 -0.10373169893870723L2.5207343157494253 -0.08551227734257869L2.4998753354376624 -0.06055517507110972Z" stroke="#1A1A1A" stroke-width="0.01" fill="rgba(181,109,61,0.9)"/>
  <path d="M2.37 -0.67L2.442808553471944 -0.5943251988838831L2.4889934474764313 -0.5385480576630797L2.516820010536232 -0.46452952694115485L2.5081377726395235 -0.45734264138700365L2.419247454723822 -0.391695772147579L2.3620463734473005 -0.5775992862962739Z" stroke="#1A1A1A" stroke-width="0.01" fill="rgba(216,121,67,0.9)"/>
  <path d="M2.44 -0.59L2.484283289308583 -0.6090423385805601L2.484371267673884 -0.6087503341966801L2.4889934474764317 -0.538548057663079Z" stroke="#1A1A1A" stroke-width="0.01" fill="rgba(223,136,81,0.9)"/>
  <path d="M2.48 -0.61L2.464761572270015 -0.7056472025693287L2.5279645381490123 -0.7312734976884193L2.5324118297152247 -0.605735039266742L2.484371267673884 -0.6087503341966818Z" stroke="#1A1A1A" stroke-width="0.01" fill="rgba(237,220,83,0.9)"/>
  <path d="M2.53 -0.61L2.5279645381490123 -0.7312734976884192L2.62177652198002 -0.7948118825467073L2.560476844849145 -0.49790822896498843L2.558823416857283 -0.4943929576881734Z" stroke="#1A1A1A" stroke-width="0.01" fill="rgba(185,164,44,0.9)"/>
  <path d="M2.62 -0.79L2.6526542860797697 -0.8227155069120721L2.713722916894339 -0.6921172161394935L2.713742468551756 -0.6910823530222965L2.560476844849145 -0.49790822896498776Z" stroke="#1A1A1A" stroke-width="0.01" fill="rgba(194,127,70,0.9)"/>
  <path d="M2.75 -0.51L2.6957126805109235 -0.4528868827540314L2.555928115206867 -0.4814216620021289L2.558823416857283 -0.49439295768817293L2.5604768448491444 -0.4979082289649873L2.713742468551756 -0.6910823530222965Z" stroke="#1A1A1A" stroke-width="0.01" fill="rgba(240,115,49,0.9)"/>
  <path d="M2.74 -0.29L2.717227550196195 -0.40251769657846875L2.7152525035680037 -0.416967973458018L2.7910911911503145 -0.3762171289484989L2.7939778166490647 -0.31840553334339167Z" stroke="#1A1A1A" stroke-width="0.01" fill="rgba(253,211,81,0.9)"/>
  <path d="M2.79 -0.32L2.8330014381429347 -0.2961063210611803L2.7967864885937845 -0.2663310016255235L2.7301925335903254 -0.23866263742856714L2.7269749786179585 -0.24355343668858276L2.742273763983948 -0.29485271108813244Z" stroke="#1A1A1A" stroke-width="0.01" fill="rgba(203,108,58,0.9)"/>
  <path d="M2.86 -0.21L2.7483809024956307 -0.17071266003390168L2.7301925335903254 -0.23866263742856716L2.7967864885937845 -0.2663310016255235Z" stroke="#1A1A1A" stroke-width="0.01" fill="rgba(241,198,50,0.9)"/>
  <path d="M2.8 -0.27L2.8330014381429347 -0.2961063210611803L2.948021004339332 -0.3006325539902054L2.8711600815119955 -0.20745037529438187L2.860519290380383 -0.20543497143179998Z" stroke="#1A1A1A" stroke-width="0.01" fill="rgba(216,193,68,0.9)"/>
  <path d="M2.79 -0.38L2.9677066078802 -0.37826128886435423L3.011022983781383 -0.34191036034426603L2.948021004339332 -0.30063255399020533L2.8330014381429347 -0.2961063210611803L2.7939778166490647 -0.3184055333433916Z" stroke="#1A1A1A" stroke-width="0.01" fill="rgba(200,98,47,0.9)"/>
  <path d="M2.72 -0.42L2.699504885946179 -0.43860138597383186L2.695712680510924 -0.45288688275403166L2.753304132684436 -0.5143452737838199L2.8189802886487194 -0.5122228652003284L2.9027060890158296 -0.47076997222694195L2.9677066078802006 -0.3782612888643543L2.7910911911503145 -0.376217128948499Z" stroke="#1A1A1A" stroke-width="0.01" fill="rgba(245,168,90,0.9)"/>
  <path d="M2.83 -0.66L2.8428234434747783 -0.5614678348716523L2.8189802886487194 -0.5122228652003284L2.753304132684436 -0.5143452737838199L2.713742468551756 -0.6910823530222973L2.713722916894339 -0.6921172161394936Z" stroke="#1A1A1A" stroke-width="0.01" fill="rgba(236,122,56,0.9)"/>
  <path d="M2.86 -0.66L2.867284614710494 -0.5890083974451212L2.8428234434747783 -0.5614678348716522L2.825968258539372 -0.6636523935425529Z" stroke="#1A1A1A" stroke-width="0.01" fill="rgba(232,208,80,0.9)"/>
  <path d="M2.91 -0.68L2.9057927106279613 -0.5985687809774736L2.867284614710494 -0.5890083974451217L2.8610134853075753 -0.6636348373398544Z" stroke="#1A1A1A" stroke-width="0.01" fill="rgba(196,118,58,0.9)"/>
  <path d="M2.91 -0.6L2.911865285905261 -0.68054854722102L2.9419580109847563 -0.7045858935941788L2.9457129339422163 -0.704751775577428L2.945226489545446 -0.5902546914959483L2.9336923997956617 -0.569671294067658Z" stroke="#1A1A1A" stroke-width="0.01" fill="rgba(203,113,67,0.9)"/>
  <path d="M2.93 -0.57L2.945226489545445 -0.590254691495947L3.283 -0.7671443470969693L3.283 -0.634871328259003L2.9372439849348484 -0.5530285665454704Z" stroke="#1A1A1A" stroke-width="0.01" fill="rgba(193,100,48,0.9)"/>
  <path d="M2.94 -0.55L3.283 -0.6348713282590029L3.283 -0.3012292048280124L3.0110229837813827 -0.34191036034426625L2.9677066078802015 -0.3782612888643531L2.902706089015829 -0.4707699722269423Z" stroke="#1A1A1A" stroke-width="0.01" fill="rgba(223,131,59,0.9)"/>
  <path d="M0.83 -0.92L0.9773016771817589 -0.6439667117527639L0.9253752121449286 -0.6038185857461803L0.923284150907963 -0.6055745422051638L0.8902317783741925 -0.6454658486240881L0.8596596542033165 -0.698751020654146L0.8207645558633474 -0.7924292781493734L0.7787329153220942 -0.923Z" stroke="#1A1A1A" stroke-width="0.01" fill="rgba(182,143,55,0.9)"/>
  <path d="M2.75 -0.17L2.8605192903803824 -0.2054349714317999L2.871160081511995 -0.20745037529438182L2.9018408713033614 -0.08123808464640762L2.8852599308812636 -0.07316352357769396L2.848900401352656 -0.06822576406060028L2.8293596204942464 -0.07254053714192413L2.7369539930380093 -0.13623364857714576Z" stroke="#1A1A1A" stroke-width="0.01" fill="rgba(251,202,83,0.9)"/>
  <path d="M2.48 -0.61L2.4428085534719424 -0.5943251988838849L2.3710184654994175 -0.6651010966297112L2.3689911241144412 -0.6903027515553958L2.4647615722700147 -0.7056472025693288Z" stroke="#1A1A1A" stroke-width="0.01" fill="rgba(244,136,81,0.9)"/>
  <path d="M0.97 -0.1L0.921 -0.03239275685358613L0.7977089147117201 -0.08650811040672256L0.8481496980360376 -0.30846158741503743L0.989388932747594 -0.25563417819788725Z" stroke="#1A1A1A" stroke-width="0.01" fill="rgba(243,133,59,0.9)"/>
  <path d="M2.36 -0.32L2.408612447423895 -0.37457631415095666L2.606922231856951 -0.3282348178716176L2.6118409096885276 -0.29472368386453696L2.4184363342167488 -0.2373664083440034L2.366470521896689 -0.26828080574085705L2.3620068114682176 -0.3042917176966643Z" stroke="#1A1A1A" stroke-width="0.01" fill="rgba(215,154,86,0.9)"/>
  <path d="M-0.16 -0.11L-0.15814178456410785 -0.10885935272881025L-0.025004385267233697 -0.07062787030022827L0.06390988327950436 0.010920416971917035L0.10684167293409413 0.13643478775235598L0.05886712769650326 0.1847853011927144Z" stroke="#1A1A1A" stroke-width="0.01" fill="rgba(207,129,54,0.9)"/>
  <path d="M2.24 0.28L2.496977802163178 0.16100011678618859L2.516297512857554 0.16516708604815467L2.5237987367244825 0.1675784824287303L2.639254706154489 0.316L2.208857313266322 0.316Z" stroke="#1A1A1A" stroke-width="0.01" fill="rgba(212,172,76,0.9)"/>
  <path d="M3.28 -0.22L2.925899269705922 -0.0819629708536736L2.9150370830804966 -0.08013434079827209L2.9018408713033614 -0.08123808464640786L2.8711600815119955 -0.20745037529438165L2.948021004339332 -0.3006325539902052L3.0110229837813836 -0.3419103603442662L3.283 -0.3012292048280124Z" stroke="#1A1A1A" stroke-width="0.01" fill="rgba(222,148,73,0.9)"/>
  <path d="M-0.1 -0.66L-0.20007713121671417 -0.5586585347670916L-0.3 -0.5386155766413584L-0.3 -0.923L0.02630950604560428 -0.923L0.018766628567244092 -0.8634891753770829L-0.0027925408560007803 -0.8138147752593539Z" stroke="#1A1A1A" stroke-width="0.01" fill="rgba(242,176,55,0.9)"/>
  <path d="M2.24 0.28L2.295826019689825 0.06562584578509181L2.3269652174363937 0.04744091223503637L2.3761485895628502 0.03232212764561369L2.3816880894832058 0.036046746231977005L2.4262742639121435 0.07488292639467313L2.470899769202324 0.12471283934272309L2.496977802163178 0.16100011678618867Z" stroke="#1A1A1A" stroke-width="0.01" fill="rgba(181,152,65,0.9)"/>
  <path d="M-0.02 0.28L-0.016625305397828288 0.316L-0.3 0.316L-0.3 0.06067714993389273Z" stroke="#1A1A1A" stroke-width="0.01" fill="rgba(211,187,66,0.9)"/>
  <path d="M1.62 -0.81L1.396433723347169 -0.7425929747097446L1.2356077428778889 -0.923L1.6488635307112123 -0.923Z" stroke="#1A1A1A" stroke-width="0.01" fill="rgba(229,204,80,0.9)"/>
  <path d="M1.4 0.2L1.4220634222110617 0.16465319391929084L1.8866365413854365 0.28427983157647574L1.897172626767023 0.2938495710275786L1.9189049715534998 0.316L1.3810396401143037 0.316Z" stroke="#1A1A1A" stroke-width="0.01" fill="rgba(227,179,78,0.9)"/>
  <path d="M2.33 -0.71L2.241665625577695 -0.7993531327989084L2.2089721487363847 -0.8390604413775042L2.1808121850633673 -0.923L2.6532995499800416 -0.923L2.661608678316881 -0.8659596477318644L2.6526542860797697 -0.822715506912072L2.62177652198002 -0.7948118825467075L2.527964538149013 -0.7312734976884196L2.4647615722700147 -0.7056472025693287L2.368991124114441 -0.6903027515553958Z" stroke="#1A1A1A" stroke-width="0.01" fill="rgba(198,116,56,0.9)"/>
  <path d="M0.06 0.18L-0.017994062663830475 0.2844620720207656L-0.3 0.06067714993389273L-0.3 -0.05632327947362592L-0.1627730106024334 -0.10654628124379015Z" stroke="#1A1A1A" stroke-width="0.01" fill="rgba(245,194,76,0.9)"/>
  <path d="M0.37 0.15L0.42102287355581985 0.13471228401272153L0.46983923718687143 0.12536453818745094L0.4733254104382287 0.12525119059868878L0.7443954951336653 0.2727707928060778L0.7782158698064365 0.316L0.3462490456309361 0.316L0.3341681798798641 0.17326010505486852Z" stroke="#1A1A1A" stroke-width="0.01" fill="rgba(196,156,48,0.9)"/>
  <path d="M3.28 -0.77L2.945226489545446 -0.5902546914959473L2.9457129339422163 -0.704751775577428L3.283 -0.7688995460538863Z" stroke="#1A1A1A" stroke-width="0.01" fill="rgba(203,129,44,0.9)"/>
  <path d="M0.36 -0.55L0.37570462673790794 -0.5470985909770564L0.42111191324945213 -0.4201228402319035L0.41560365821401535 -0.391205618649394L0.35505417386381866 -0.42462652895673175Z" stroke="#1A1A1A" stroke-width="0.01" fill="rgba(191,169,47,0.9)"/>
  <path d="M-0.3 -0.54L-0.20007713121671425 -0.5586585347670916L-0.15381911072629445 -0.4943385450047877L-0.08807447760864376 -0.3220661974699327L-0.11580686683379526 -0.17737950940914504L-0.15814178456410793 -0.10885935272881021L-0.16277301060243343 -0.10654628124379013L-0.3 -0.056323279473625906Z" stroke="#1A1A1A" stroke-width="0.01" fill="rgba(245,164,86,0.9)"/>
  <path d="M2.9 -0.47L2.8189802886487194 -0.5122228652003284L2.8428234434747783 -0.561467834871652L2.8672846147104942 -0.5890083974451218L2.9057927106279613 -0.5985687809774736L2.9336923997956617 -0.5696712940676579L2.9372439849348484 -0.5530285665454702Z" stroke="#1A1A1A" stroke-width="0.01" fill="rgba(183,155,50,0.9)"/>
  <path d="M2.73 -0.24L2.7151181767586596 -0.2478567408130846L2.6821635645703736 -0.2861957730008585L2.717227550196195 -0.4025176965784683L2.7422737639839476 -0.29485271108813205Z" stroke="#1A1A1A" stroke-width="0.01" fill="rgba(200,130,57,0.9)"/>
  <path d="M1.13 -0.7L0.977301677181759 -0.643966711752764L0.8282787431151972 -0.923L1.193285041816197 -0.923L1.1364588858666655 -0.7144892752785095Z" stroke="#1A1A1A" stroke-width="0.01" fill="rgba(192,129,75,0.9)"/>
  <path d="M0.77 -0.37L0.7680995563592248 -0.3674062279795006L0.8481496980360376 -0.30846158741503743L0.7977089147117201 -0.08650811040672253L0.7820373006456975 -0.08539251524796757L0.6702131747718896 -0.15333034086508635L0.6491879487117972 -0.20841234902700032Z" stroke="#1A1A1A" stroke-width="0.01" fill="rgba(201,162,53,0.9)"/>
  <path d="M0.92 -0.48L1.107758907906179 -0.31603822071954907L0.989388932747594 -0.25563417819788725L0.8481496980360375 -0.3084615874150375L0.7680995563592249 -0.3674062279795006Z" stroke="#1A1A1A" stroke-width="0.01" fill="rgba(229,178,65,0.9)"/>
  <path d="M0.93 -0.6L0.977301677181759 -0.6439667117527639L1.1307090993244426 -0.7015892886838311L1.1038136363540114 -0.5686920552532733L1.0819710721713394 -0.5224784652534122L0.9570014593126422 -0.5338236377151133L0.9421446821968891 -0.557254799323281Z" stroke="#1A1A1A" stroke-width="0.01" fill="rgba(242,163,91,0.9)"/>
  <path d="M2.72 -0.42L2.7172275501961956 -0.4025176965784689L2.6821635645703736 -0.28619577300085836L2.658308611354253 -0.3037574815821976L2.653374927809273 -0.3536159005052776L2.6995048859461788 -0.4386013859738327Z" stroke="#1A1A1A" stroke-width="0.01" fill="rgba(216,140,82,0.9)"/>
  <path d="M0.16 -0.54L0.23584188293320157 -0.601856225416641L0.2913232486918949 -0.5451760051477053L0.25641678057775336 -0.49794048557880066L0.17036446655061785 -0.4903464508679758Z" stroke="#1A1A1A" stroke-width="0.01" fill="rgba(77,56,223,0.9)"/>
  <path d="M0.65 0.02L0.7163796303240307 0.16390917941374405L0.7443954951336649 0.2727707928060776L0.47332541043822873 0.1252511905986888L0.5021641067659005 0.06669285588633406L0.5310968719311813 0.03190342254282358L0.5646750998496912 0.009567784201409274L0.6195574641486645 -0.0037345556039181174L0.6324251871959353 -0.004173362140700684Z" stroke="#1A1A1A" stroke-width="0.01" fill="rgba(249,195,73,0.9)"/>
  <path d="M2.94 -0.7L2.82869418433014 -0.8088110071588765L3.213925154653545 -0.923L3.283 -0.923L3.283 -0.7688995460538863L2.945712933942216 -0.7047517755774279Z" stroke="#1A1A1A" stroke-width="0.01" fill="rgba(201,108,43,0.9)"/>
  <path d="M1.14 -0.33L1.1077589079061791 -0.31603822071954896L0.915081353198239 -0.47825076389563487L0.9570014593126421 -0.5338236377151133L1.0819710721713391 -0.5224784652534123Z" stroke="#1A1A1A" stroke-width="0.01" fill="rgba(189,154,60,0.9)"/>
  <path d="M0.58 -0.92L0.5733434251297038 -0.903397721518151L0.49461716487568097 -0.7906755056889867L0.3357682692969329 -0.6617349189728439L0.2106464634605924 -0.6917328703843323L0.018766628567244092 -0.863489175377083L0.026309506045604253 -0.923Z" stroke="#1A1A1A" stroke-width="0.01" fill="rgba(254,232,76,0.9)"/>
  <path d="M2.65 -0.82L2.661608678316881 -0.8659596477318651L2.8286941843301396 -0.8088110071588769L2.9419580109847563 -0.704585893594179L2.91186528590526 -0.6805485472210194L2.8610134853075757 -0.6636348373398546L2.8259682585393735 -0.6636523935425529L2.7137229168943384 -0.6921172161394936Z" stroke="#1A1A1A" stroke-width="0.01" fill="rgba(246,148,97,0.9)"/>
  <path d="M-0.02 0.32L-0.017994062663830468 0.2844620720207656L0.058867127696503214 0.18478530119271447L0.10684167293409416 0.13643478775235596L0.14567542555550006 0.12869757782260588L0.27926517988246097 0.14439720610306106L0.3341681798798641 0.17326010505486844L0.34624904563093606 0.316Z" stroke="#1A1A1A" stroke-width="0.01" fill="rgba(241,206,51,0.9)"/>
  <path d="M1.64 -0.12L1.6205161413938127 -0.18732879673572844L1.7605529375099334 -0.18341148003134733L1.7305197111329023 -0.13871511258031186Z" stroke="#1A1A1A" stroke-width="0.01" fill="rgba(193,105,49,0.9)"/>
  <path d="M1.99 -0.64L1.9321974704017106 -0.7435724762065477L1.9038418219270095 -0.8247145782028562L1.9421817903781715 -0.923L2.1808121850633673 -0.923L2.2089721487363847 -0.8390604413775042L2.174318037772474 -0.7552106630075657L2.14154456007476 -0.6965335654842724L2.0644162491522997 -0.598230885597371L2.034732903690322 -0.606917198071855Z" stroke="#1A1A1A" stroke-width="0.01" fill="rgba(203,174,66,0.9)"/>
  <path d="M2.65 -0.92L3.213925154653545 -0.923L2.8286941843301405 -0.8088110071588767L2.661608678316881 -0.8659596477318652Z" stroke="#1A1A1A" stroke-width="0.01" fill="rgba(238,190,84,0.9)"/>
  <path d="M2.52 0.17L2.561538388264033 0.11970213284201162L2.596449661101577 0.08649853136580536L2.689493156468451 0.022245800054809944L2.7342765066644854 0.04723266701932241L2.8098525015819096 0.1277236966071447L2.892842705879897 0.26287313688808195L2.9183967813198506 0.316L2.639254706154489 0.316Z" stroke="#1A1A1A" stroke-width="0.01" fill="rgba(196,125,73,0.9)"/>
  <path d="M1.58 -0.57L1.5806668751969026 -0.5559438987227581L1.5818708029028532 -0.5393363326657676L1.5808306285180378 -0.5343612331553381L1.4856132151669 -0.4308789662182504L1.3769021034418116 -0.5176350802124212L1.4137969260259755 -0.7018049722412532L1.5353072176818205 -0.6524765611449669Z" stroke="#1A1A1A" stroke-width="0.01" fill="rgba(223,141,79,0.9)"/>
  <path d="M2.52 -0.46L2.4889934474764317 -0.5385480576630781L2.484371267673884 -0.6087503341966818L2.5324118297152243 -0.605735039266742L2.558823416857283 -0.49439295768817315L2.555928115206867 -0.4814216620021289Z" stroke="#1A1A1A" stroke-width="0.01" fill="rgba(213,159,48,0.9)"/>
  <path d="M2.74 -0.14L2.666595492276584 -0.09109971552289858L2.6632616596008574 -0.0921429018718568L2.620099194812747 -0.22766637341523033L2.628372409692923 -0.23500357291012347L2.71511817675866 -0.24785674081308434L2.7269749786179585 -0.2435534366885831L2.7301925335903254 -0.23866263742856744L2.7483809024956307 -0.17071266003390112Z" stroke="#1A1A1A" stroke-width="0.01" fill="rgba(231,207,50,0.9)"/>
  <path d="M0.87 0.31L1.159658546406808 0.09931427195560014L1.1601252772444344 0.09914828605738447L1.3961413792613449 0.19924022294722196L1.3810396401143037 0.316L0.8638591559700362 0.316Z" stroke="#1A1A1A" stroke-width="0.01" fill="rgba(197,149,54,0.9)"/>
  <path d="M1.16 0.1L0.8698523371361119 0.30556528241758546L0.9210000000000002 -0.004194540939321034L1.0814229365462389 0.031221741269325406Z" stroke="#1A1A1A" stroke-width="0.01" fill="rgba(254,195,95,0.9)"/>
  <path d="M2.02 0.21L2.139549957133241 0.08407828329501091L2.2089208207011257 0.04475590949199815L2.266624066705667 0.04993363110300929L2.295826019689825 0.06562584578509145L2.2413648169688924 0.2846955964828378L2.208857313266322 0.316L1.9927586114378226 0.316Z" stroke="#1A1A1A" stroke-width="0.01" fill="rgba(215,182,81,0.9)"/>
  <path d="M1.84 0.21L1.886636541385436 0.28427983157647563L1.4220634222110615 0.16465319391929079L1.43232068289816 0.1348527651933153L1.6293152988343422 0.07297350020072893L1.7041481536845189 0.06723286429827188L1.7368310352993945 0.09538259737526217L1.7880726771302031 0.14918303410687753Z" stroke="#1A1A1A" stroke-width="0.01" fill="rgba(254,182,62,0.9)"/>
  <path d="M1.94 -0.92L1.9038418219270097 -0.8247145782028568L1.847483917853714 -0.7730685512872711L1.7711229908328283 -0.7224219959024671L1.7112671130527617 -0.6970601896544661L1.7045732602518548 -0.6990211666571475L1.615262338049903 -0.8143031426851058L1.6488635307112123 -0.923Z" stroke="#1A1A1A" stroke-width="0.01" fill="rgba(231,216,75,0.9)"/>
  <path d="M2.03 -0.61L2.0644162491523 -0.5982308855973709L2.110796181076822 -0.5131659867868874L2.023913967302345 -0.4257591437566273L1.9298371123483433 -0.4706211379930131Z" stroke="#1A1A1A" stroke-width="0.01" fill="rgba(223,134,81,0.9)"/>
  <path d="M1.54 -0.65L1.4137969260259753 -0.7018049722412532L1.3964337233471693 -0.7425929747097446L1.615262338049903 -0.8143031426851058L1.704573260251855 -0.6990211666571474Z" stroke="#1A1A1A" stroke-width="0.01" fill="rgba(188,159,61,0.9)"/>
  <path d="M1.77 -0.33L1.7786360703764448 -0.3057625768279596L1.7859237252521896 -0.22678868410776215L1.7793016062776785 -0.19446620537004816L1.7605529375099331 -0.18341148003134736L1.620516141393809 -0.18732879673572855L1.6139162119005321 -0.1877056700753092L1.6144852368216194 -0.23497867669442385L1.6457404690922919 -0.28158858186373964Z" stroke="#1A1A1A" stroke-width="0.01" fill="rgba(182,156,48,0.9)"/>
  <path d="M1.7 -0.06L1.776494959429533 -0.04474973572786014L1.704671648408345 -0.011118284579824386L1.7003599104300173 -0.05212359666394739Z" stroke="#1A1A1A" stroke-width="0.01" fill="rgba(243,183,73,0.9)"/>
  <path d="M1.17 0.04L1.2214214569431174 0.005368071636685222L1.426291827616171 0.024103155656875666L1.4323206828981603 0.13485276519331496L1.4220634222110613 0.16465319391929137L1.396141379261345 0.199240222947222L1.1601252772444344 0.09914828605738452Z" stroke="#1A1A1A" stroke-width="0.01" fill="rgba(242,114,49,0.9)"/>
  <path d="M-0.5 -1.12L3.483 -1.123L3.483 0.516L-0.5 0.516Z" stroke="none" fill="none"/>
</svg>
