<svg xmlns="http://www.w3.org/2000/svg" viewBox="-0.57 -0.1 9.22 10.37">
  <path d="M-0.57 -0.1L8.6458 -0.1L8.6458 10.2684L-0.5725 10.2684Z" stroke="none" fill="#FFFFFF"/>
  <path d="M-0.1 -0.1L0.1 0.1" stroke="#FF0000" stroke-width="0.02" fill="none"/>
  <path d="M-0.1 0.1L0.1 -0.1" stroke="#FF0000" stroke-width="0.02" fill="none"/>
  <path d="M0.57 0.92L0.621 0.919L0.333 0.121L0.281 0.121L0 0.919L0.053 0.919L0.153 0.636L0.466 0.636L0.5680000000000001 0.919ZM0.17 0.59L0.307 0.196L0.448 0.586L0.17 0.586ZM0.74 0.92L0.791 0.921L0.791 0L0.741 0L0.741 0.921ZM1 0.34L1 0.92L1.05 0.92L1.05 0.34L1 0.34ZM1.05 0.19L1 0.193L1 0.243L1.05 0.243L1.05 0.193ZM1.51 0.33C1.43 0.32 1.36 0.35 1.31 0.39C1.25 0.44 1.21 0.51 1.2 0.59C1.2 0.61 1.2 0.63 1.2 0.65C1.2 0.73 1.22 0.79 1.26 0.85C1.31 0.91 1.37 0.94 1.44 0.94C1.5 0.94 1.55 0.92 1.6 0.88C1.62 0.86 1.64 0.84 1.65 0.82L1.6520000000000001 0.853L1.6520000000000001 0.853L1.6520000000000001 0.853L1.6520000000000001 0.926L1.6520000000000001 0.9580000000000001C1.65 1.05 1.63 1.12 1.58 1.16C1.54 1.19 1.49 1.21 1.43 1.21C1.39 1.21 1.35 1.21 1.3 1.2L1.294 1.249C1.34 1.26 1.39 1.26 1.42 1.26C1.44 1.26 1.46 1.26 1.48 1.26C1.53 1.25 1.57 1.23 1.6 1.2C1.67 1.15 1.7 1.07 1.7 0.96C1.7 0.91 1.7 0.86 1.7 0.81L1.702 0.342C1.62 0.33 1.56 0.33 1.51 0.33ZM1.65 0.65C1.65 0.72 1.62 0.79 1.57 0.83C1.53 0.87 1.48 0.89 1.43 0.89C1.37 0.89 1.32 0.85 1.28 0.79C1.26 0.75 1.25 0.71 1.25 0.66C1.25 0.61 1.26 0.57 1.27 0.53C1.29 0.49 1.31 0.46 1.34 0.43C1.38 0.39 1.44 0.37 1.49 0.38C1.51 0.38 1.57 0.38 1.65 0.39C1.65 0.4 1.65 0.49 1.65 0.65ZM2.35 0.43C2.33 0.4 2.31 0.38 2.29 0.36C2.26 0.34 2.23 0.33 2.18 0.33C2.17 0.32 2.16 0.32 2.15 0.32C2.11 0.32 2.07 0.34 2.03 0.36C1.99 0.38 1.96 0.41 1.94 0.44L1.935 0.341L1.885 0.341L1.885 0.919L1.935 0.919L1.935 0.603C1.94 0.54 1.96 0.48 2.01 0.43C2.06 0.39 2.1 0.37 2.15 0.37C2.16 0.37 2.17 0.37 2.17 0.38C2.21 0.38 2.24 0.39 2.26 0.4C2.27 0.42 2.29 0.43 2.31 0.46C2.33 0.5 2.34 0.54 2.34 0.61L2.337 0.607L2.337 0.919L2.3890000000000002 0.919L2.3890000000000002 0.607C2.39 0.53 2.38 0.47 2.35 0.43Z" stroke="none" fill="#000000"/>
  <path d="M-0.27 1.04L-0.3592 1.0402L-0.3592 1.0502L-0.3176 1.0502L-0.3176 1.2L-0.30760000000000004 1.2L-0.30760000000000004 1.0502L-0.266 1.0502L-0.266 1.0402ZM-0.19 1.08C-0.21 1.08 -0.22 1.09 -0.23 1.1C-0.24 1.11 -0.25 1.13 -0.25 1.14C-0.25 1.16 -0.24 1.18 -0.23 1.19C-0.22 1.2 -0.21 1.2 -0.19 1.2C-0.18 1.2 -0.16 1.2 -0.15 1.19C-0.15 1.18 -0.14 1.16 -0.14 1.14C-0.14 1.13 -0.15 1.11 -0.16 1.1C-0.17 1.09 -0.18 1.08 -0.19 1.08ZM-0.19 1.19C-0.21 1.19 -0.22 1.19 -0.22 1.18C-0.23 1.17 -0.24 1.16 -0.24 1.14C-0.24 1.13 -0.23 1.12 -0.22 1.11C-0.22 1.1 -0.21 1.09 -0.19 1.09C-0.18 1.09 -0.17 1.1 -0.16 1.11C-0.16 1.12 -0.15 1.13 -0.15 1.14C-0.15 1.16 -0.15 1.17 -0.16 1.18C-0.17 1.19 -0.18 1.19 -0.19 1.19ZM-0.01 1.14C-0.02 1.12 -0.02 1.1 -0.03 1.09C-0.04 1.09 -0.05 1.08 -0.07 1.08C-0.07 1.08 -0.07 1.08 -0.07 1.08C-0.08 1.08 -0.09 1.08 -0.11 1.08L-0.1126 1.2686L-0.10260000000000001 1.2686L-0.10260000000000001 1.2009999999999998C-0.09 1.2 -0.08 1.2 -0.07 1.2C-0.06 1.2 -0.05 1.2 -0.04 1.19C-0.02 1.18 -0.02 1.17 -0.02 1.15C-0.01 1.15 -0.01 1.14 -0.01 1.14C-0.01 1.14 -0.01 1.14 -0.01 1.14C-0.01 1.14 -0.01 1.14 -0.01 1.14ZM-0.03 1.14C-0.03 1.14 -0.03 1.15 -0.03 1.15C-0.03 1.16 -0.03 1.18 -0.04 1.18C-0.05 1.19 -0.06 1.19 -0.07 1.19C-0.07 1.19 -0.09 1.19 -0.1 1.19L-0.10260000000000001 1.1468L-0.10260000000000001 1.1468L-0.10260000000000001 1.1452L-0.10260000000000001 1.1396L-0.10260000000000001 1.1381999999999999L-0.10260000000000001 1.1381999999999999L-0.10260000000000001 1.0937999999999999C-0.09 1.09 -0.08 1.09 -0.07 1.09C-0.06 1.09 -0.05 1.09 -0.04 1.1C-0.03 1.11 -0.03 1.12 -0.02 1.14C-0.02 1.14 -0.03 1.14 -0.03 1.14ZM0.03 1.19L0.025400000000000002 1.1374L0.025400000000000002 1.1374L0.025400000000000002 1.1374L0.025400000000000002 1.0402L0.0154 1.0402L0.0154 1.1998L0.09580000000000001 1.1998L0.09580000000000001 1.19L0.025400000000000002 1.19ZM0.21 1.14C0.21 1.13 0.21 1.12 0.2 1.1C0.19 1.09 0.18 1.09 0.17 1.08C0.17 1.08 0.17 1.08 0.16 1.08C0.15 1.08 0.14 1.09 0.13 1.09C0.12 1.11 0.11 1.12 0.11 1.14C0.11 1.14 0.11 1.14 0.11 1.14L0.11120000000000001 1.1428L0.11120000000000001 1.147C0.11 1.17 0.12 1.18 0.13 1.19C0.14 1.2 0.15 1.2 0.17 1.2C0.17 1.2 0.18 1.2 0.18 1.2C0.19 1.2 0.2 1.2 0.21 1.2C0.21 1.2 0.21 1.2 0.21 1.19L0.2058 1.187C0.2 1.19 0.19 1.19 0.19 1.19C0.18 1.19 0.18 1.19 0.17 1.19C0.16 1.19 0.15 1.19 0.14 1.18C0.13 1.18 0.12 1.16 0.12 1.15C0.12 1.15 0.12 1.14 0.12 1.14L0.12140000000000001 1.1421999999999999L0.2116 1.1421999999999999ZM0.16 1.09C0.18 1.09 0.19 1.1 0.19 1.11C0.2 1.12 0.2 1.12 0.2 1.13L0.1218 1.1321999999999999C0.12 1.12 0.13 1.11 0.14 1.1C0.15 1.1 0.15 1.09 0.16 1.09ZM0.27 1.03C0.27 1.03 0.28 1.03 0.29 1.02L0.2864 1.016C0.28 1.02 0.27 1.02 0.26 1.02C0.26 1.03 0.25 1.04 0.25 1.04C0.25 1.05 0.25 1.06 0.25 1.07L0.2492 1.0842L0.23240000000000002 1.0842L0.23240000000000002 1.0941999999999998L0.2492 1.0941999999999998L0.2492 1.2002L0.2592 1.2002L0.2592 1.0941999999999998L0.2852 1.0941999999999998L0.2852 1.0842L0.2592 1.0842L0.2592 1.0754C0.26 1.05 0.26 1.04 0.27 1.03ZM0.34 1.19C0.33 1.19 0.33 1.18 0.33 1.17C0.33 1.17 0.33 1.16 0.33 1.14C0.33 1.13 0.33 1.11 0.33 1.09L0.35600000000000004 1.0944L0.35600000000000004 1.0844L0.3302 1.0844L0.3302 1.065L0.32020000000000004 1.065L0.32020000000000004 1.0844L0.3034 1.0844L0.3034 1.0944L0.32020000000000004 1.0944C0.32 1.11 0.32 1.13 0.32 1.14C0.32 1.16 0.32 1.17 0.32 1.18C0.32 1.19 0.33 1.19 0.33 1.2C0.33 1.2 0.34 1.2 0.34 1.2C0.35 1.2 0.35 1.2 0.36 1.2L0.3592 1.1927999999999999C0.35 1.19 0.34 1.19 0.34 1.19Z" stroke="none" fill="#000000"/>
  <path d="M3.9 -0.1L4.1 0.1" stroke="#FF0000" stroke-width="0.02" fill="none"/>
  <path d="M3.9 0.1L4.1 -0.1" stroke="#FF0000" stroke-width="0.02" fill="none"/>
  <path d="M3.37 0.92L3.4265 0.919L3.1385 0.121L3.0865 0.121L2.8055 0.919L2.8585000000000003 0.919L2.9585 0.636L3.2715 0.636L3.3735 0.919ZM2.98 0.59L3.1125 0.196L3.2535 0.586L2.9755000000000003 0.586ZM3.55 0.92L3.5965 0.921L3.5965 0L3.5465 0L3.5465 0.921ZM3.81 0.34L3.8055 0.92L3.8555 0.92L3.8555 0.34L3.8055 0.34ZM3.86 0.19L3.8055 0.193L3.8055 0.243L3.8555 0.243L3.8555 0.193ZM4.31 0.33C4.23 0.32 4.17 0.35 4.11 0.39C4.06 0.44 4.02 0.51 4.01 0.59C4 0.61 4 0.63 4 0.65C4 0.73 4.02 0.79 4.07 0.85C4.11 0.91 4.17 0.94 4.24 0.94C4.3 0.94 4.36 0.92 4.4 0.88C4.43 0.86 4.44 0.84 4.46 0.82L4.4575 0.853L4.4575 0.853L4.4575 0.853L4.4575 0.926L4.4575 0.9580000000000001C4.46 1.05 4.43 1.12 4.38 1.16C4.34 1.19 4.29 1.21 4.23 1.21C4.2 1.21 4.16 1.21 4.11 1.2L4.0995 1.249C4.15 1.26 4.19 1.26 4.22 1.26C4.24 1.26 4.26 1.26 4.28 1.26C4.34 1.25 4.38 1.23 4.41 1.2C4.47 1.15 4.51 1.07 4.51 0.96C4.51 0.91 4.51 0.86 4.51 0.81L4.5075 0.342C4.43 0.33 4.36 0.33 4.31 0.33ZM4.46 0.65C4.46 0.72 4.43 0.79 4.38 0.83C4.33 0.87 4.29 0.89 4.24 0.89C4.18 0.89 4.13 0.85 4.09 0.79C4.07 0.75 4.05 0.71 4.05 0.66C4.05 0.61 4.06 0.57 4.08 0.53C4.09 0.49 4.11 0.46 4.14 0.43C4.19 0.39 4.24 0.37 4.3 0.38C4.32 0.38 4.37 0.38 4.46 0.39C4.46 0.4 4.46 0.49 4.46 0.65ZM5.16 0.43C5.14 0.4 5.12 0.38 5.09 0.36C5.07 0.34 5.03 0.33 4.99 0.33C4.98 0.32 4.97 0.32 4.95 0.32C4.91 0.32 4.87 0.34 4.83 0.36C4.8 0.38 4.77 0.41 4.74 0.44L4.7405 0.341L4.6905 0.341L4.6905 0.919L4.7405 0.919L4.7405 0.603C4.74 0.54 4.77 0.48 4.82 0.43C4.86 0.39 4.91 0.37 4.96 0.37C4.96 0.37 4.97 0.37 4.98 0.38C5.02 0.38 5.04 0.39 5.06 0.4C5.08 0.42 5.1 0.43 5.11 0.46C5.13 0.5 5.14 0.54 5.14 0.61L5.1425 0.607L5.1425 0.919L5.1945 0.919L5.1945 0.607C5.19 0.53 5.18 0.47 5.16 0.43Z" stroke="none" fill="#000000"/>
  <path d="M3.61 1.04L3.5129 1.0402L3.5129 1.0502L3.5545 1.0502L3.5545 1.2L3.5645 1.2L3.5645 1.0502L3.6061 1.0502L3.6061 1.0402ZM3.68 1.08C3.66 1.08 3.65 1.09 3.64 1.1C3.63 1.11 3.62 1.13 3.62 1.14C3.62 1.16 3.63 1.18 3.64 1.19C3.65 1.2 3.66 1.2 3.68 1.2C3.69 1.2 3.71 1.2 3.72 1.19C3.73 1.18 3.73 1.16 3.73 1.14C3.73 1.13 3.73 1.11 3.72 1.1C3.7 1.09 3.69 1.08 3.68 1.08ZM3.68 1.19C3.67 1.19 3.65 1.19 3.65 1.18C3.64 1.17 3.64 1.16 3.64 1.14C3.64 1.13 3.64 1.12 3.65 1.11C3.66 1.1 3.67 1.09 3.68 1.09C3.69 1.09 3.7 1.1 3.71 1.11C3.72 1.12 3.72 1.13 3.72 1.14C3.72 1.16 3.72 1.17 3.71 1.18C3.7 1.19 3.69 1.19 3.68 1.19ZM3.86 1.14C3.86 1.12 3.85 1.1 3.84 1.09C3.83 1.09 3.82 1.08 3.8 1.08C3.8 1.08 3.8 1.08 3.8 1.08C3.79 1.08 3.78 1.08 3.76 1.08L3.7595 1.2686L3.7695 1.2686L3.7695 1.2009999999999998C3.78 1.2 3.79 1.2 3.8 1.2C3.81 1.2 3.83 1.2 3.84 1.19C3.85 1.18 3.86 1.17 3.86 1.15C3.86 1.15 3.86 1.14 3.86 1.14C3.86 1.14 3.86 1.14 3.86 1.14C3.86 1.14 3.86 1.14 3.86 1.14ZM3.85 1.14C3.85 1.14 3.85 1.15 3.85 1.15C3.84 1.16 3.84 1.18 3.83 1.18C3.82 1.19 3.81 1.19 3.8 1.19C3.8 1.19 3.79 1.19 3.77 1.19L3.7695 1.1468L3.7695 1.1468L3.7695 1.1452L3.7695 1.1396L3.7695 1.1381999999999999L3.7695 1.1381999999999999L3.7695 1.0937999999999999C3.78 1.09 3.79 1.09 3.8 1.09C3.81 1.09 3.83 1.09 3.83 1.1C3.84 1.11 3.85 1.12 3.85 1.14C3.85 1.14 3.85 1.14 3.85 1.14ZM3.95 1.05C3.95 1.05 3.96 1.05 3.98 1.05L3.9769 1.04C3.96 1.04 3.95 1.04 3.95 1.04C3.93 1.04 3.92 1.04 3.91 1.05C3.9 1.06 3.89 1.06 3.89 1.07C3.88 1.08 3.88 1.09 3.88 1.11L3.8771 1.1136L3.8771 1.1206L3.8771 1.1238L3.8771 1.1274L3.8773 1.1274C3.88 1.15 3.88 1.16 3.89 1.17C3.89 1.18 3.9 1.19 3.91 1.19C3.92 1.2 3.93 1.2 3.95 1.2C3.95 1.2 3.96 1.2 3.98 1.2L3.9769 1.191C3.96 1.19 3.95 1.19 3.95 1.19C3.93 1.19 3.92 1.19 3.91 1.18C3.91 1.18 3.9 1.17 3.9 1.17C3.89 1.16 3.89 1.14 3.89 1.13L3.8875 1.1205L3.8875 1.1156C3.89 1.1 3.89 1.08 3.9 1.07C3.9 1.07 3.91 1.06 3.91 1.06C3.92 1.05 3.93 1.05 3.95 1.05ZM4.1 1.14C4.1 1.13 4.09 1.12 4.09 1.1C4.08 1.09 4.07 1.09 4.06 1.08C4.05 1.08 4.05 1.08 4.05 1.08C4.04 1.08 4.03 1.09 4.02 1.09C4 1.11 4 1.12 4 1.14C4 1.14 4 1.14 4 1.14L3.9961 1.1428L3.9961 1.147C4 1.17 4.01 1.18 4.02 1.19C4.03 1.2 4.04 1.2 4.05 1.2C4.06 1.2 4.06 1.2 4.06 1.2C4.07 1.2 4.08 1.2 4.09 1.2C4.09 1.2 4.09 1.2 4.09 1.19L4.0907 1.187C4.08 1.19 4.08 1.19 4.07 1.19C4.07 1.19 4.06 1.19 4.05 1.19C4.04 1.19 4.03 1.19 4.02 1.18C4.01 1.18 4.01 1.16 4.01 1.15C4.01 1.15 4.01 1.14 4.01 1.14L4.0063 1.1421999999999999L4.0965 1.1421999999999999ZM4.05 1.09C4.06 1.09 4.07 1.1 4.08 1.11C4.08 1.12 4.09 1.12 4.09 1.13L4.0067 1.1321999999999999C4.01 1.12 4.01 1.11 4.02 1.1C4.03 1.1 4.04 1.09 4.05 1.09ZM4.22 1.1C4.22 1.1 4.21 1.09 4.21 1.09C4.2 1.09 4.19 1.08 4.19 1.08C4.18 1.08 4.18 1.08 4.18 1.08C4.17 1.08 4.16 1.08 4.15 1.09C4.15 1.09 4.14 1.1 4.14 1.11L4.1355 1.0844L4.1255 1.0844L4.1255 1.2L4.1355 1.2L4.1355 1.1368C4.14 1.12 4.14 1.11 4.15 1.1C4.16 1.09 4.17 1.09 4.18 1.09C4.18 1.09 4.18 1.09 4.18 1.09C4.19 1.09 4.2 1.09 4.2 1.1C4.2 1.1 4.21 1.1 4.21 1.11C4.21 1.12 4.22 1.12 4.22 1.14L4.2159 1.1376L4.2159 1.2L4.2263 1.2L4.2263 1.1376C4.23 1.12 4.22 1.11 4.22 1.1ZM4.28 1.19C4.28 1.19 4.28 1.18 4.28 1.17C4.28 1.17 4.28 1.16 4.28 1.14C4.28 1.13 4.28 1.11 4.28 1.09L4.3011 1.0944L4.3011 1.0844L4.2753 1.0844L4.2753 1.065L4.2653 1.065L4.2653 1.0844L4.2485 1.0844L4.2485 1.0944L4.2653 1.0944C4.27 1.11 4.27 1.13 4.27 1.14C4.27 1.16 4.27 1.17 4.27 1.18C4.27 1.19 4.27 1.19 4.28 1.2C4.28 1.2 4.28 1.2 4.29 1.2C4.29 1.2 4.3 1.2 4.3 1.2L4.3043 1.1927999999999999C4.29 1.19 4.29 1.19 4.28 1.19ZM4.42 1.14C4.42 1.13 4.42 1.12 4.41 1.1C4.4 1.09 4.39 1.09 4.38 1.08C4.37 1.08 4.37 1.08 4.37 1.08C4.36 1.08 4.35 1.09 4.34 1.09C4.33 1.11 4.32 1.12 4.32 1.14C4.32 1.14 4.32 1.14 4.32 1.14L4.3177 1.1428L4.3177 1.147C4.32 1.17 4.33 1.18 4.34 1.19C4.35 1.2 4.36 1.2 4.38 1.2C4.38 1.2 4.38 1.2 4.39 1.2C4.4 1.2 4.4 1.2 4.41 1.2C4.41 1.2 4.41 1.2 4.41 1.19L4.4123 1.187C4.4 1.19 4.4 1.19 4.4 1.19C4.39 1.19 4.38 1.19 4.37 1.19C4.36 1.19 4.35 1.19 4.34 1.18C4.34 1.18 4.33 1.16 4.33 1.15C4.33 1.15 4.33 1.14 4.33 1.14L4.3279 1.1421999999999999L4.4181 1.1421999999999999ZM4.37 1.09C4.38 1.09 4.39 1.1 4.4 1.11C4.4 1.12 4.41 1.12 4.41 1.13L4.3283000000000005 1.1321999999999999C4.33 1.12 4.34 1.11 4.34 1.1C4.35 1.1 4.36 1.09 4.37 1.09ZM4.47 1.09C4.46 1.1 4.46 1.1 4.45 1.11L4.4545 1.0844L4.4445 1.0844L4.4445 1.2L4.4545 1.2L4.4545 1.1456C4.45 1.14 4.45 1.14 4.46 1.14C4.46 1.12 4.46 1.11 4.47 1.1C4.48 1.1 4.48 1.1 4.49 1.09L4.4871 1.0842C4.48 1.09 4.47 1.09 4.47 1.09Z" stroke="none" fill="#000000"/>
  <path d="M7.9 -0.1L8.1 0.1" stroke="#FF0000" stroke-width="0.02" fill="none"/>
  <path d="M7.9 0.1L8.1 -0.1" stroke="#FF0000" stroke-width="0.02" fill="none"/>
  <path d="M6.18 0.92L6.232 0.919L5.944 0.121L5.8919999999999995 0.121L5.611 0.919L5.664 0.919L5.763999999999999 0.636L6.077 0.636L6.179 0.919ZM5.78 0.59L5.918 0.196L6.059 0.586L5.781000000000001 0.586ZM6.35 0.92L6.402 0.921L6.402 0L6.352 0L6.352 0.921ZM6.61 0.34L6.611 0.92L6.661 0.92L6.661 0.34L6.611 0.34ZM6.66 0.19L6.611 0.193L6.611 0.243L6.661 0.243L6.661 0.193ZM7.12 0.33C7.04 0.32 6.97 0.35 6.92 0.39C6.86 0.44 6.83 0.51 6.81 0.59C6.81 0.61 6.81 0.63 6.81 0.65C6.81 0.73 6.83 0.79 6.87 0.85C6.92 0.91 6.98 0.94 7.05 0.94C7.11 0.94 7.16 0.92 7.21 0.88C7.23 0.86 7.25 0.84 7.26 0.82L7.263 0.853L7.263 0.853L7.263 0.853L7.263 0.926L7.263 0.9580000000000001C7.26 1.05 7.24 1.12 7.19 1.16C7.15 1.19 7.1 1.21 7.04 1.21C7.01 1.21 6.96 1.21 6.91 1.2L6.905 1.249C6.96 1.26 7 1.26 7.03 1.26C7.05 1.26 7.07 1.26 7.09 1.26C7.14 1.25 7.18 1.23 7.22 1.2C7.28 1.15 7.31 1.07 7.31 0.96C7.31 0.91 7.31 0.86 7.31 0.81L7.313 0.342C7.24 0.33 7.17 0.33 7.12 0.33ZM7.26 0.65C7.26 0.72 7.24 0.79 7.18 0.83C7.14 0.87 7.09 0.89 7.05 0.89C6.98 0.89 6.93 0.85 6.89 0.79C6.87 0.75 6.86 0.71 6.86 0.66C6.86 0.61 6.87 0.57 6.88 0.53C6.9 0.49 6.92 0.46 6.95 0.43C6.99 0.39 7.05 0.37 7.11 0.38C7.12 0.38 7.18 0.38 7.26 0.39C7.26 0.4 7.26 0.49 7.26 0.65ZM7.96 0.43C7.94 0.4 7.92 0.38 7.9 0.36C7.87 0.34 7.84 0.33 7.79 0.33C7.78 0.32 7.77 0.32 7.76 0.32C7.72 0.32 7.68 0.34 7.64 0.36C7.6 0.38 7.57 0.41 7.55 0.44L7.546 0.341L7.496 0.341L7.496 0.919L7.546 0.919L7.546 0.603C7.55 0.54 7.57 0.48 7.63 0.43C7.67 0.39 7.71 0.37 7.76 0.37C7.77 0.37 7.78 0.37 7.79 0.38C7.82 0.38 7.85 0.39 7.87 0.4C7.89 0.42 7.9 0.43 7.92 0.46C7.94 0.5 7.95 0.54 7.95 0.61L7.948 0.607L7.948 0.919L8 0.919L8 0.607C8 0.53 7.99 0.47 7.96 0.43Z" stroke="none" fill="#000000"/>
  <path d="M7.66 1.04L7.5675 1.0402L7.5675 1.0502L7.6091 1.0502L7.6091 1.2L7.6190999999999995 1.2L7.6190999999999995 1.0502L7.6607 1.0502L7.6607 1.0402ZM7.73 1.08C7.72 1.08 7.71 1.09 7.7 1.1C7.68 1.11 7.68 1.13 7.68 1.14C7.68 1.16 7.68 1.18 7.69 1.19C7.7 1.2 7.72 1.2 7.73 1.2C7.75 1.2 7.76 1.2 7.77 1.19C7.78 1.18 7.79 1.16 7.79 1.14C7.79 1.13 7.78 1.11 7.77 1.1C7.76 1.09 7.75 1.08 7.73 1.08ZM7.73 1.19C7.72 1.19 7.71 1.19 7.7 1.18C7.69 1.17 7.69 1.16 7.69 1.14C7.69 1.13 7.69 1.12 7.7 1.11C7.71 1.1 7.72 1.09 7.73 1.09C7.74 1.09 7.75 1.1 7.76 1.11C7.77 1.12 7.78 1.13 7.78 1.14C7.78 1.16 7.77 1.17 7.76 1.18C7.76 1.19 7.75 1.19 7.73 1.19ZM7.91 1.14C7.91 1.12 7.9 1.1 7.89 1.09C7.88 1.09 7.87 1.08 7.86 1.08C7.86 1.08 7.86 1.08 7.85 1.08C7.85 1.08 7.84 1.08 7.81 1.08L7.8141 1.2686L7.8241 1.2686L7.8241 1.2009999999999998C7.84 1.2 7.85 1.2 7.85 1.2C7.87 1.2 7.88 1.2 7.89 1.19C7.9 1.18 7.91 1.17 7.91 1.15C7.91 1.15 7.91 1.14 7.91 1.14C7.91 1.14 7.91 1.14 7.91 1.14C7.91 1.14 7.91 1.14 7.91 1.14ZM7.9 1.14C7.9 1.14 7.9 1.15 7.9 1.15C7.9 1.16 7.89 1.18 7.89 1.18C7.88 1.19 7.87 1.19 7.86 1.19C7.85 1.19 7.84 1.19 7.82 1.19L7.8241 1.1468L7.8241 1.1468L7.8241 1.1452L7.8241 1.1396L7.8241 1.1381999999999999L7.8241 1.1381999999999999L7.8241 1.0937999999999999C7.84 1.09 7.85 1.09 7.86 1.09C7.87 1.09 7.88 1.09 7.89 1.1C7.9 1.11 7.9 1.12 7.9 1.14C7.9 1.14 7.9 1.14 7.9 1.14ZM7.98 1.13C8 1.13 8.01 1.13 8.02 1.12C8.03 1.11 8.03 1.1 8.03 1.09L8.0331 1.0859999999999999L8.0331 1.0857999999999999L8.0331 1.0857999999999999C8.03 1.07 8.03 1.06 8.02 1.05C8.01 1.04 8 1.04 7.98 1.04C7.97 1.04 7.96 1.04 7.94 1.04L7.9437 1.0406L7.9437 1.0406L7.9437 1.2L7.9537 1.2L7.9537 1.1316C7.96 1.13 7.97 1.13 7.97 1.13C7.99 1.15 8.01 1.18 8.04 1.2L8.0487 1.1994C8.03 1.18 8.01 1.15 7.98 1.13ZM7.95 1.05C7.96 1.05 7.97 1.05 7.97 1.05C7.99 1.05 8.01 1.05 8.01 1.06C8.02 1.07 8.02 1.07 8.02 1.09L8.0225 1.0857999999999999C8.02 1.1 8.02 1.11 8.01 1.12C8 1.12 7.99 1.12 7.97 1.12C7.97 1.12 7.97 1.12 7.97 1.12C7.96 1.12 7.96 1.12 7.95 1.12L7.9537 1.0493999999999999ZM8.08 1.08L8.0787 1.2002L8.0887 1.2002L8.0887 1.0842L8.0787 1.0842ZM8.09 1.05L8.0787 1.0548L8.0787 1.0648L8.0887 1.0648L8.0887 1.0548ZM8.18 1.08C8.16 1.08 8.15 1.09 8.14 1.09C8.13 1.1 8.12 1.12 8.12 1.14C8.12 1.14 8.12 1.14 8.12 1.15C8.12 1.16 8.12 1.17 8.13 1.19C8.14 1.2 8.15 1.2 8.17 1.2C8.18 1.2 8.19 1.2 8.2 1.19C8.2 1.19 8.21 1.18 8.21 1.18L8.2091 1.1867999999999999L8.2091 1.1867999999999999L8.2091 1.1867999999999999L8.2091 1.2014L8.2091 1.2078C8.21 1.23 8.2 1.24 8.19 1.25C8.19 1.26 8.18 1.26 8.16 1.26C8.16 1.26 8.15 1.26 8.14 1.26L8.1375 1.266C8.15 1.27 8.16 1.27 8.16 1.27C8.17 1.27 8.17 1.27 8.17 1.27C8.18 1.27 8.19 1.26 8.2 1.26C8.21 1.25 8.22 1.23 8.22 1.21C8.22 1.2 8.22 1.19 8.22 1.18L8.2191 1.0846C8.2 1.08 8.19 1.08 8.18 1.08ZM8.21 1.15C8.21 1.16 8.2 1.17 8.19 1.18C8.18 1.19 8.18 1.19 8.17 1.19C8.15 1.19 8.14 1.19 8.13 1.17C8.13 1.17 8.13 1.16 8.13 1.15C8.13 1.14 8.13 1.13 8.13 1.12C8.14 1.11 8.14 1.11 8.15 1.1C8.16 1.09 8.17 1.09 8.18 1.09C8.18 1.09 8.19 1.09 8.21 1.09C8.21 1.1 8.21 1.11 8.21 1.15ZM8.35 1.1C8.35 1.1 8.34 1.09 8.34 1.09C8.33 1.08 8.32 1.08 8.32 1.08C8.31 1.08 8.31 1.08 8.31 1.08C8.3 1.08 8.29 1.08 8.28 1.09C8.28 1.09 8.27 1.1 8.27 1.11L8.2657 1.016L8.255700000000001 1.016L8.255700000000001 1.2002L8.2657 1.2002L8.2657 1.1368C8.27 1.12 8.27 1.11 8.28 1.1C8.29 1.09 8.3 1.09 8.31 1.09C8.31 1.09 8.31 1.09 8.31 1.09C8.32 1.09 8.33 1.09 8.33 1.1C8.33 1.1 8.34 1.1 8.34 1.11C8.34 1.12 8.35 1.12 8.35 1.14L8.3463 1.1376L8.3463 1.2L8.3567 1.2L8.3567 1.1376L8.3567 1.1376C8.36 1.12 8.35 1.11 8.35 1.1ZM8.41 1.19C8.41 1.19 8.41 1.18 8.4 1.17C8.4 1.17 8.4 1.16 8.4 1.14C8.4 1.13 8.4 1.11 8.4 1.09L8.4293 1.0944L8.4293 1.0844L8.4035 1.0844L8.4035 1.065L8.3935 1.065L8.3935 1.0844L8.3767 1.0844L8.3767 1.0944L8.3935 1.0944C8.39 1.11 8.39 1.13 8.39 1.14C8.39 1.16 8.39 1.17 8.39 1.18C8.4 1.19 8.4 1.19 8.4 1.2C8.41 1.2 8.41 1.2 8.42 1.2C8.42 1.2 8.42 1.2 8.43 1.2L8.4325 1.1927999999999999C8.42 1.19 8.41 1.19 8.41 1.19Z" stroke="none" fill="#000000"/>
  <path d="M-0.1 2.9L0.1 3.1" stroke="#FF0000" stroke-width="0.02" fill="none"/>
  <path d="M-0.1 3.1L0.1 2.9" stroke="#FF0000" stroke-width="0.02" fill="none"/>
  <path d="M0.57 3.29L0.621 3.2885L0.333 2.4905L0.281 2.4905L0 3.2885L0.053 3.2885L0.153 3.0055L0.466 3.0055L0.5680000000000001 3.2885ZM0.17 2.96L0.307 2.5655L0.448 2.9555L0.17 2.9555ZM0.74 3.29L0.791 3.2904999999999998L0.791 2.3695L0.741 2.3695L0.741 3.2904999999999998ZM1 2.71L1 3.2895L1.05 3.2895L1.05 2.7095000000000002L1 2.7095000000000002ZM1.05 2.56L1 2.5625L1 2.6125L1.05 2.6125L1.05 2.5625ZM1.51 2.7C1.43 2.69 1.36 2.71 1.31 2.76C1.25 2.81 1.21 2.88 1.2 2.96C1.2 2.98 1.2 3 1.2 3.02C1.2 3.1 1.22 3.16 1.26 3.22C1.31 3.28 1.37 3.31 1.44 3.31C1.5 3.31 1.55 3.29 1.6 3.25C1.62 3.23 1.64 3.21 1.65 3.19L1.6520000000000001 3.2225L1.6520000000000001 3.2225L1.6520000000000001 3.2225L1.6520000000000001 3.2955L1.6520000000000001 3.3275C1.65 3.42 1.63 3.49 1.58 3.53C1.54 3.56 1.49 3.58 1.43 3.58C1.39 3.58 1.35 3.58 1.3 3.57L1.294 3.6185C1.34 3.63 1.39 3.63 1.42 3.63C1.44 3.63 1.46 3.63 1.48 3.63C1.53 3.62 1.57 3.6 1.6 3.57C1.67 3.52 1.7 3.44 1.7 3.33C1.7 3.28 1.7 3.23 1.7 3.17L1.702 2.7115C1.62 2.7 1.56 2.7 1.51 2.7ZM1.65 3.01C1.65 3.09 1.62 3.15 1.57 3.2C1.53 3.24 1.48 3.26 1.43 3.26C1.37 3.26 1.32 3.22 1.28 3.16C1.26 3.12 1.25 3.08 1.25 3.02C1.25 2.98 1.26 2.94 1.27 2.9C1.29 2.86 1.31 2.83 1.34 2.8C1.38 2.76 1.44 2.74 1.49 2.75C1.51 2.75 1.57 2.75 1.65 2.76C1.65 2.77 1.65 2.86 1.65 3.01ZM2.35 2.8C2.33 2.77 2.31 2.75 2.29 2.73C2.26 2.71 2.23 2.7 2.18 2.7C2.17 2.69 2.16 2.69 2.15 2.69C2.11 2.69 2.07 2.7 2.03 2.73C1.99 2.75 1.96 2.78 1.94 2.81L1.935 2.7105L1.885 2.7105L1.885 3.2885L1.935 3.2885L1.935 2.9725C1.94 2.9 1.96 2.85 2.01 2.8C2.06 2.76 2.1 2.74 2.15 2.74C2.16 2.74 2.17 2.74 2.17 2.75C2.21 2.75 2.24 2.76 2.26 2.77C2.27 2.78 2.29 2.8 2.31 2.83C2.33 2.86 2.34 2.91 2.34 2.98L2.337 2.9765L2.337 3.2885L2.3890000000000002 3.2885L2.3890000000000002 2.9765C2.39 2.9 2.38 2.84 2.35 2.8Z" stroke="none" fill="#000000"/>
  <path d="M-0.42 4.05C-0.42 4.05 -0.4 4.05 -0.39 4.05L-0.39130000000000004 4.04C-0.4 4.04 -0.41 4.04 -0.42 4.04C-0.44 4.04 -0.45 4.04 -0.46 4.05C-0.47 4.06 -0.48 4.06 -0.48 4.07C-0.49 4.08 -0.49 4.09 -0.49 4.11L-0.49110000000000004 4.1136L-0.49110000000000004 4.1206000000000005L-0.49110000000000004 4.1238L-0.49110000000000004 4.1274L-0.4909 4.1274C-0.49 4.15 -0.49 4.16 -0.48 4.17C-0.48 4.18 -0.47 4.19 -0.46 4.19C-0.45 4.2 -0.44 4.2 -0.42 4.2C-0.41 4.2 -0.4 4.2 -0.39 4.2L-0.39130000000000004 4.191C-0.4 4.19 -0.42 4.19 -0.42 4.19C-0.44 4.19 -0.45 4.19 -0.45 4.18C-0.46 4.18 -0.47 4.17 -0.47 4.17C-0.48 4.16 -0.48 4.14 -0.48 4.13L-0.4807 4.1205L-0.4807 4.115600000000001C-0.48 4.1 -0.48 4.08 -0.47 4.07C-0.47 4.07 -0.46 4.06 -0.45 4.06C-0.45 4.05 -0.44 4.05 -0.42 4.05ZM-0.27 4.14C-0.27 4.13 -0.27 4.12 -0.28 4.1C-0.29 4.09 -0.3 4.09 -0.31 4.08C-0.31 4.08 -0.32 4.08 -0.32 4.08C-0.33 4.08 -0.34 4.09 -0.35 4.09C-0.36 4.11 -0.37 4.12 -0.37 4.14C-0.37 4.14 -0.37 4.14 -0.37 4.14L-0.37210000000000004 4.1428L-0.37210000000000004 4.147C-0.37 4.17 -0.36 4.18 -0.35 4.19C-0.34 4.2 -0.33 4.2 -0.31 4.2C-0.31 4.2 -0.31 4.2 -0.3 4.2C-0.29 4.2 -0.29 4.2 -0.28 4.2C-0.28 4.2 -0.28 4.2 -0.28 4.19L-0.2775 4.187C-0.29 4.19 -0.29 4.19 -0.29 4.19C-0.3 4.19 -0.31 4.19 -0.32 4.19C-0.33 4.19 -0.34 4.19 -0.35 4.18C-0.35 4.18 -0.36 4.16 -0.36 4.15C-0.36 4.15 -0.36 4.14 -0.36 4.14L-0.3619 4.1422L-0.2717 4.1422ZM-0.32 4.09C-0.31 4.09 -0.3 4.1 -0.29 4.11C-0.29 4.12 -0.28 4.12 -0.28 4.13L-0.36150000000000004 4.1322C-0.36 4.12 -0.35 4.11 -0.35 4.1C-0.34 4.1 -0.33 4.09 -0.32 4.09ZM-0.15 4.1C-0.15 4.1 -0.16 4.09 -0.16 4.09C-0.17 4.09 -0.17 4.08 -0.18 4.08C-0.19 4.08 -0.19 4.08 -0.19 4.08C-0.2 4.08 -0.21 4.08 -0.21 4.09C-0.22 4.09 -0.23 4.1 -0.23 4.11L-0.23270000000000002 4.0844000000000005L-0.2427 4.0844000000000005L-0.2427 4.2L-0.23270000000000002 4.2L-0.23270000000000002 4.1368C-0.23 4.12 -0.23 4.11 -0.22 4.1C-0.21 4.09 -0.2 4.09 -0.19 4.09C-0.19 4.09 -0.19 4.09 -0.18 4.09C-0.18 4.09 -0.17 4.09 -0.17 4.1C-0.16 4.1 -0.16 4.1 -0.16 4.11C-0.15 4.12 -0.15 4.12 -0.15 4.14L-0.15230000000000002 4.1376L-0.15230000000000002 4.2L-0.1419 4.2L-0.1419 4.1376C-0.14 4.12 -0.14 4.11 -0.15 4.1ZM-0.09 4.19C-0.09 4.19 -0.09 4.18 -0.09 4.17C-0.09 4.17 -0.09 4.16 -0.09 4.14C-0.09 4.13 -0.09 4.11 -0.09 4.09L-0.0671 4.0944L-0.0671 4.0844000000000005L-0.09290000000000001 4.0844000000000005L-0.09290000000000001 4.065L-0.1029 4.065L-0.1029 4.0844000000000005L-0.1197 4.0844000000000005L-0.1197 4.0944L-0.1029 4.0944C-0.1 4.11 -0.1 4.13 -0.1 4.14C-0.1 4.16 -0.1 4.17 -0.1 4.18C-0.1 4.19 -0.1 4.19 -0.09 4.2C-0.09 4.2 -0.09 4.2 -0.08 4.2C-0.08 4.2 -0.07 4.2 -0.06 4.2L-0.0639 4.1928C-0.08 4.19 -0.08 4.19 -0.09 4.19ZM0.05 4.14C0.05 4.13 0.05 4.12 0.04 4.1C0.03 4.09 0.02 4.09 0.01 4.08C0.01 4.08 0 4.08 0 4.08C-0.01 4.08 -0.02 4.09 -0.03 4.09C-0.04 4.11 -0.05 4.12 -0.05 4.14C-0.05 4.14 -0.05 4.14 -0.05 4.14L-0.0505 4.1428L-0.0505 4.147C-0.05 4.17 -0.04 4.18 -0.03 4.19C-0.02 4.2 -0.01 4.2 0.01 4.2C0.01 4.2 0.01 4.2 0.02 4.2C0.03 4.2 0.04 4.2 0.04 4.2C0.04 4.2 0.04 4.2 0.04 4.19L0.0441 4.187C0.04 4.19 0.03 4.19 0.03 4.19C0.02 4.19 0.01 4.19 0.01 4.19C-0.01 4.19 -0.02 4.19 -0.02 4.18C-0.03 4.18 -0.04 4.16 -0.04 4.15C-0.04 4.15 -0.04 4.14 -0.04 4.14L-0.0403 4.1422L0.0499 4.1422ZM0 4.09C0.02 4.09 0.03 4.1 0.03 4.11C0.04 4.12 0.04 4.12 0.04 4.13L-0.039900000000000005 4.1322C-0.04 4.12 -0.03 4.11 -0.02 4.1C-0.02 4.1 -0.01 4.09 0 4.09ZM0.1 4.09C0.09 4.1 0.09 4.1 0.09 4.11L0.0863 4.0844000000000005L0.0763 4.0844000000000005L0.0763 4.2L0.0863 4.2L0.0863 4.1456C0.09 4.14 0.09 4.14 0.09 4.14C0.09 4.12 0.1 4.11 0.1 4.1C0.11 4.1 0.11 4.1 0.12 4.09L0.1189 4.0842C0.11 4.09 0.1 4.09 0.1 4.09ZM0.16 4.19L0.1573 4.1374L0.1573 4.1374L0.1573 4.1374L0.1573 4.0402000000000005L0.14730000000000001 4.0402000000000005L0.14730000000000001 4.1998L0.2277 4.1998L0.2277 4.19L0.1573 4.19ZM0.34 4.14C0.34 4.13 0.34 4.12 0.33 4.1C0.33 4.09 0.32 4.09 0.3 4.08C0.3 4.08 0.3 4.08 0.3 4.08C0.28 4.08 0.27 4.09 0.26 4.09C0.25 4.11 0.24 4.12 0.24 4.14C0.24 4.14 0.24 4.14 0.24 4.14L0.2431 4.1428L0.2431 4.147C0.25 4.17 0.25 4.18 0.26 4.19C0.27 4.2 0.29 4.2 0.3 4.2C0.3 4.2 0.31 4.2 0.31 4.2C0.32 4.2 0.33 4.2 0.34 4.2C0.34 4.2 0.34 4.2 0.34 4.19L0.3377 4.187C0.33 4.19 0.32 4.19 0.32 4.19C0.31 4.19 0.31 4.19 0.3 4.19C0.29 4.19 0.28 4.19 0.27 4.18C0.26 4.18 0.26 4.16 0.25 4.15C0.25 4.15 0.25 4.14 0.25 4.14L0.2533 4.1422L0.3435 4.1422ZM0.3 4.09C0.31 4.09 0.32 4.1 0.33 4.11C0.33 4.12 0.33 4.12 0.33 4.13L0.25370000000000004 4.1322C0.26 4.12 0.26 4.11 0.27 4.1C0.28 4.1 0.29 4.09 0.3 4.09ZM0.4 4.03C0.41 4.03 0.41 4.03 0.42 4.03L0.4183 4.016C0.41 4.02 0.4 4.02 0.39 4.02C0.39 4.03 0.39 4.04 0.38 4.04C0.38 4.05 0.38 4.06 0.38 4.07L0.3811 4.0842L0.3643 4.0842L0.3643 4.0942L0.3811 4.0942L0.3811 4.200200000000001L0.3911 4.200200000000001L0.3911 4.0942L0.4171 4.0942L0.4171 4.0842L0.3911 4.0842L0.3911 4.0754C0.39 4.05 0.4 4.04 0.4 4.03ZM0.47 4.19C0.47 4.19 0.46 4.18 0.46 4.17C0.46 4.17 0.46 4.16 0.46 4.14C0.46 4.13 0.46 4.11 0.46 4.09L0.4879 4.0944L0.4879 4.0844000000000005L0.4621 4.0844000000000005L0.4621 4.065L0.4521 4.065L0.4521 4.0844000000000005L0.4353 4.0844000000000005L0.4353 4.0944L0.4521 4.0944C0.45 4.11 0.45 4.13 0.45 4.14C0.45 4.16 0.45 4.17 0.45 4.18C0.45 4.19 0.46 4.19 0.46 4.2C0.47 4.2 0.47 4.2 0.48 4.2C0.48 4.2 0.48 4.2 0.49 4.2L0.49110000000000004 4.1928C0.48 4.19 0.47 4.19 0.47 4.19Z" stroke="none" fill="#000000"/>
  <path d="M3.9 2.9L4.1 3.1" stroke="#FF0000" stroke-width="0.02" fill="none"/>
  <path d="M3.9 3.1L4.1 2.9" stroke="#FF0000" stroke-width="0.02" fill="none"/>
  <path d="M3.37 3.29L3.4265 3.2885L3.1385 2.4905L3.0865 2.4905L2.8055 3.2885L2.8585000000000003 3.2885L2.9585 3.0055L3.2715 3.0055L3.3735 3.2885ZM2.98 2.96L3.1125 2.5655L3.2535 2.9555L2.9755000000000003 2.9555ZM3.55 3.29L3.5965 3.2904999999999998L3.5965 2.3695L3.5465 2.3695L3.5465 3.2904999999999998ZM3.81 2.71L3.8055 3.2895L3.8555 3.2895L3.8555 2.7095000000000002L3.8055 2.7095000000000002ZM3.86 2.56L3.8055 2.5625L3.8055 2.6125L3.8555 2.6125L3.8555 2.5625ZM4.31 2.7C4.23 2.69 4.17 2.71 4.11 2.76C4.06 2.81 4.02 2.88 4.01 2.96C4 2.98 4 3 4 3.02C4 3.1 4.02 3.16 4.07 3.22C4.11 3.28 4.17 3.31 4.24 3.31C4.3 3.31 4.36 3.29 4.4 3.25C4.43 3.23 4.44 3.21 4.46 3.19L4.4575 3.2225L4.4575 3.2225L4.4575 3.2225L4.4575 3.2955L4.4575 3.3275C4.46 3.42 4.43 3.49 4.38 3.53C4.34 3.56 4.29 3.58 4.23 3.58C4.2 3.58 4.16 3.58 4.11 3.57L4.0995 3.6185C4.15 3.63 4.19 3.63 4.22 3.63C4.24 3.63 4.26 3.63 4.28 3.63C4.34 3.62 4.38 3.6 4.41 3.57C4.47 3.52 4.51 3.44 4.51 3.33C4.51 3.28 4.51 3.23 4.51 3.17L4.5075 2.7115C4.43 2.7 4.36 2.7 4.31 2.7ZM4.46 3.01C4.46 3.09 4.43 3.15 4.38 3.2C4.33 3.24 4.29 3.26 4.24 3.26C4.18 3.26 4.13 3.22 4.09 3.16C4.07 3.12 4.05 3.08 4.05 3.02C4.05 2.98 4.06 2.94 4.08 2.9C4.09 2.86 4.11 2.83 4.14 2.8C4.19 2.76 4.24 2.74 4.3 2.75C4.32 2.75 4.37 2.75 4.46 2.76C4.46 2.77 4.46 2.86 4.46 3.01ZM5.16 2.8C5.14 2.77 5.12 2.75 5.09 2.73C5.07 2.71 5.03 2.7 4.99 2.7C4.98 2.69 4.97 2.69 4.95 2.69C4.91 2.69 4.87 2.7 4.83 2.73C4.8 2.75 4.77 2.78 4.74 2.81L4.7405 2.7105L4.6905 2.7105L4.6905 3.2885L4.7405 3.2885L4.7405 2.9725C4.74 2.9 4.77 2.85 4.82 2.8C4.86 2.76 4.91 2.74 4.96 2.74C4.96 2.74 4.97 2.74 4.98 2.75C5.02 2.75 5.04 2.76 5.06 2.77C5.08 2.78 5.1 2.8 5.11 2.83C5.13 2.86 5.14 2.91 5.14 2.98L5.1425 2.9765L5.1425 3.2885L5.1945 3.2885L5.1945 2.9765C5.19 2.9 5.18 2.84 5.16 2.8Z" stroke="none" fill="#000000"/>
  <path d="M3.76 4.05C3.77 4.05 3.78 4.05 3.79 4.05L3.7948 4.04C3.78 4.04 3.77 4.04 3.77 4.04C3.75 4.04 3.73 4.04 3.72 4.05C3.72 4.06 3.71 4.06 3.71 4.07C3.7 4.08 3.7 4.09 3.7 4.11L3.695 4.1136L3.695 4.1206000000000005L3.695 4.1238L3.695 4.1274L3.6952 4.1274C3.7 4.15 3.7 4.16 3.71 4.17C3.71 4.18 3.72 4.19 3.72 4.19C3.73 4.2 3.75 4.2 3.77 4.2C3.77 4.2 3.78 4.2 3.79 4.2L3.7948 4.191C3.78 4.19 3.77 4.19 3.76 4.19C3.75 4.19 3.74 4.19 3.73 4.18C3.72 4.18 3.72 4.17 3.72 4.17C3.71 4.16 3.71 4.14 3.71 4.13L3.7054 4.1205L3.7054 4.115600000000001C3.71 4.1 3.71 4.08 3.72 4.07C3.72 4.07 3.72 4.06 3.73 4.06C3.74 4.05 3.75 4.05 3.76 4.05ZM3.91 4.14C3.91 4.13 3.91 4.12 3.9 4.1C3.9 4.09 3.89 4.09 3.87 4.08C3.87 4.08 3.87 4.08 3.87 4.08C3.85 4.08 3.84 4.09 3.83 4.09C3.82 4.11 3.82 4.12 3.81 4.14C3.81 4.14 3.81 4.14 3.81 4.14L3.814 4.1428L3.814 4.147C3.82 4.17 3.82 4.18 3.83 4.19C3.84 4.2 3.86 4.2 3.87 4.2C3.88 4.2 3.88 4.2 3.88 4.2C3.89 4.2 3.9 4.2 3.91 4.2C3.91 4.2 3.91 4.2 3.91 4.19L3.9086 4.187C3.9 4.19 3.89 4.19 3.89 4.19C3.89 4.19 3.88 4.19 3.87 4.19C3.86 4.19 3.85 4.19 3.84 4.18C3.83 4.18 3.83 4.16 3.82 4.15C3.82 4.15 3.82 4.14 3.82 4.14L3.8242 4.1422L3.9144 4.1422ZM3.87 4.09C3.88 4.09 3.89 4.1 3.9 4.11C3.9 4.12 3.9 4.12 3.9 4.13L3.8246 4.1322C3.83 4.12 3.83 4.11 3.84 4.1C3.85 4.1 3.86 4.09 3.87 4.09ZM4.04 4.1C4.03 4.1 4.03 4.09 4.02 4.09C4.02 4.09 4.01 4.08 4 4.08C4 4.08 4 4.08 4 4.08C3.99 4.08 3.98 4.08 3.97 4.09C3.96 4.09 3.96 4.1 3.95 4.11L3.9534 4.0844000000000005L3.9434 4.0844000000000005L3.9434 4.2L3.9534 4.2L3.9534 4.1368C3.95 4.12 3.96 4.11 3.97 4.1C3.98 4.09 3.99 4.09 4 4.09C4 4.09 4 4.09 4 4.09C4.01 4.09 4.01 4.09 4.02 4.1C4.02 4.1 4.02 4.1 4.03 4.11C4.03 4.12 4.03 4.12 4.03 4.14L4.0338 4.1376L4.0338 4.2L4.0442 4.2L4.0442 4.1376C4.04 4.12 4.04 4.11 4.04 4.1ZM4.1 4.19C4.1 4.19 4.09 4.18 4.09 4.17C4.09 4.17 4.09 4.16 4.09 4.14C4.09 4.13 4.09 4.11 4.09 4.09L4.119 4.0944L4.119 4.0844000000000005L4.0932 4.0844000000000005L4.0932 4.065L4.0832 4.065L4.0832 4.0844000000000005L4.0664 4.0844000000000005L4.0664 4.0944L4.0832 4.0944C4.08 4.11 4.08 4.13 4.08 4.14C4.08 4.16 4.08 4.17 4.08 4.18C4.09 4.19 4.09 4.19 4.09 4.2C4.1 4.2 4.1 4.2 4.11 4.2C4.11 4.2 4.11 4.2 4.12 4.2L4.1222 4.1928C4.11 4.19 4.1 4.19 4.1 4.19ZM4.24 4.14C4.24 4.13 4.23 4.12 4.23 4.1C4.22 4.09 4.21 4.09 4.2 4.08C4.19 4.08 4.19 4.08 4.19 4.08C4.18 4.08 4.17 4.09 4.16 4.09C4.14 4.11 4.14 4.12 4.14 4.14C4.14 4.14 4.14 4.14 4.14 4.14L4.1356 4.1428L4.1356 4.147C4.14 4.17 4.14 4.18 4.16 4.19C4.17 4.2 4.18 4.2 4.19 4.2C4.2 4.2 4.2 4.2 4.2 4.2C4.21 4.2 4.22 4.2 4.23 4.2C4.23 4.2 4.23 4.2 4.23 4.19L4.2302 4.187C4.22 4.19 4.22 4.19 4.21 4.19C4.21 4.19 4.2 4.19 4.19 4.19C4.18 4.19 4.17 4.19 4.16 4.18C4.15 4.18 4.15 4.16 4.15 4.15C4.15 4.15 4.15 4.14 4.15 4.14L4.1458 4.1422L4.236 4.1422ZM4.19 4.09C4.2 4.09 4.21 4.1 4.22 4.11C4.22 4.12 4.22 4.12 4.23 4.13L4.1462 4.1322C4.15 4.12 4.15 4.11 4.16 4.1C4.17 4.1 4.18 4.09 4.19 4.09ZM4.28 4.09C4.28 4.1 4.28 4.1 4.27 4.11L4.2724 4.0844000000000005L4.2624 4.0844000000000005L4.2624 4.2L4.2724 4.2L4.2724 4.1456C4.27 4.14 4.27 4.14 4.27 4.14C4.28 4.12 4.28 4.11 4.29 4.1C4.29 4.1 4.3 4.1 4.31 4.09L4.305 4.0842C4.3 4.09 4.29 4.09 4.28 4.09Z" stroke="none" fill="#000000"/>
  <path d="M7.9 2.9L8.1 3.1" stroke="#FF0000" stroke-width="0.02" fill="none"/>
  <path d="M7.9 3.1L8.1 2.9" stroke="#FF0000" stroke-width="0.02" fill="none"/>
  <path d="M6.18 3.29L6.232 3.2885L5.944 2.4905L5.8919999999999995 2.4905L5.611 3.2885L5.664 3.2885L5.763999999999999 3.0055L6.077 3.0055L6.179 3.2885ZM5.78 2.96L5.918 2.5655L6.059 2.9555L5.781000000000001 2.9555ZM6.35 3.29L6.402 3.2904999999999998L6.402 2.3695L6.352 2.3695L6.352 3.2904999999999998ZM6.61 2.71L6.611 3.2895L6.661 3.2895L6.661 2.7095000000000002L6.611 2.7095000000000002ZM6.66 2.56L6.611 2.5625L6.611 2.6125L6.661 2.6125L6.661 2.5625ZM7.12 2.7C7.04 2.69 6.97 2.71 6.92 2.76C6.86 2.81 6.83 2.88 6.81 2.96C6.81 2.98 6.81 3 6.81 3.02C6.81 3.1 6.83 3.16 6.87 3.22C6.92 3.28 6.98 3.31 7.05 3.31C7.11 3.31 7.16 3.29 7.21 3.25C7.23 3.23 7.25 3.21 7.26 3.19L7.263 3.2225L7.263 3.2225L7.263 3.2225L7.263 3.2955L7.263 3.3275C7.26 3.42 7.24 3.49 7.19 3.53C7.15 3.56 7.1 3.58 7.04 3.58C7.01 3.58 6.96 3.58 6.91 3.57L6.905 3.6185C6.96 3.63 7 3.63 7.03 3.63C7.05 3.63 7.07 3.63 7.09 3.63C7.14 3.62 7.18 3.6 7.22 3.57C7.28 3.52 7.31 3.44 7.31 3.33C7.31 3.28 7.31 3.23 7.31 3.17L7.313 2.7115C7.24 2.7 7.17 2.7 7.12 2.7ZM7.26 3.01C7.26 3.09 7.24 3.15 7.18 3.2C7.14 3.24 7.09 3.26 7.05 3.26C6.98 3.26 6.93 3.22 6.89 3.16C6.87 3.12 6.86 3.08 6.86 3.02C6.86 2.98 6.87 2.94 6.88 2.9C6.9 2.86 6.92 2.83 6.95 2.8C6.99 2.76 7.05 2.74 7.11 2.75C7.12 2.75 7.18 2.75 7.26 2.76C7.26 2.77 7.26 2.86 7.26 3.01ZM7.96 2.8C7.94 2.77 7.92 2.75 7.9 2.73C7.87 2.71 7.84 2.7 7.79 2.7C7.78 2.69 7.77 2.69 7.76 2.69C7.72 2.69 7.68 2.7 7.64 2.73C7.6 2.75 7.57 2.78 7.55 2.81L7.546 2.7105L7.496 2.7105L7.496 3.2885L7.546 3.2885L7.546 2.9725C7.55 2.9 7.57 2.85 7.63 2.8C7.67 2.76 7.71 2.74 7.76 2.74C7.77 2.74 7.78 2.74 7.79 2.75C7.82 2.75 7.85 2.76 7.87 2.77C7.89 2.78 7.9 2.8 7.92 2.83C7.94 2.86 7.95 2.91 7.95 2.98L7.948 2.9765L7.948 3.2885L8 3.2885L8 2.9765C8 2.9 7.99 2.84 7.96 2.8Z" stroke="none" fill="#000000"/>
  <path d="M7.5 4.05C7.51 4.05 7.52 4.05 7.54 4.05L7.5354 4.04C7.52 4.04 7.51 4.04 7.51 4.04C7.49 4.04 7.47 4.04 7.46 4.05C7.46 4.06 7.45 4.06 7.45 4.07C7.44 4.08 7.44 4.09 7.44 4.11L7.4356 4.1136L7.4356 4.1206000000000005L7.4356 4.1238L7.4356 4.1274L7.4358 4.1274C7.44 4.15 7.44 4.16 7.45 4.17C7.45 4.18 7.46 4.19 7.46 4.19C7.47 4.2 7.49 4.2 7.51 4.2C7.51 4.2 7.52 4.2 7.54 4.2L7.5354 4.191C7.52 4.19 7.51 4.19 7.5 4.19C7.49 4.19 7.48 4.19 7.47 4.18C7.46 4.18 7.46 4.17 7.46 4.17C7.45 4.16 7.45 4.14 7.45 4.13L7.446 4.1205L7.446 4.115600000000001C7.45 4.1 7.45 4.08 7.46 4.07C7.46 4.07 7.46 4.06 7.47 4.06C7.48 4.05 7.49 4.05 7.5 4.05ZM7.66 4.14C7.66 4.13 7.65 4.12 7.65 4.1C7.64 4.09 7.63 4.09 7.61 4.08C7.61 4.08 7.61 4.08 7.61 4.08C7.6 4.08 7.58 4.09 7.58 4.09C7.56 4.11 7.56 4.12 7.55 4.14C7.55 4.14 7.55 4.14 7.55 4.14L7.5546 4.1428L7.5546 4.147C7.56 4.17 7.56 4.18 7.58 4.19C7.58 4.2 7.6 4.2 7.61 4.2C7.62 4.2 7.62 4.2 7.62 4.2C7.63 4.2 7.64 4.2 7.65 4.2C7.65 4.2 7.65 4.2 7.65 4.19L7.6492 4.187C7.64 4.19 7.64 4.19 7.63 4.19C7.63 4.19 7.62 4.19 7.61 4.19C7.6 4.19 7.59 4.19 7.58 4.18C7.57 4.18 7.57 4.16 7.57 4.15C7.57 4.15 7.56 4.14 7.56 4.14L7.5648 4.1422L7.655 4.1422ZM7.61 4.09C7.62 4.09 7.63 4.1 7.64 4.11C7.64 4.12 7.64 4.12 7.64 4.13L7.5652 4.1322C7.57 4.12 7.57 4.11 7.58 4.1C7.59 4.1 7.6 4.09 7.61 4.09ZM7.78 4.1C7.77 4.1 7.77 4.09 7.76 4.09C7.76 4.09 7.75 4.08 7.74 4.08C7.74 4.08 7.74 4.08 7.74 4.08C7.73 4.08 7.72 4.08 7.71 4.09C7.71 4.09 7.7 4.1 7.69 4.11L7.694 4.0844000000000005L7.684 4.0844000000000005L7.684 4.2L7.694 4.2L7.694 4.1368C7.69 4.12 7.7 4.11 7.71 4.1C7.72 4.09 7.73 4.09 7.74 4.09C7.74 4.09 7.74 4.09 7.74 4.09C7.75 4.09 7.75 4.09 7.76 4.1C7.76 4.1 7.77 4.1 7.77 4.11C7.77 4.12 7.77 4.12 7.77 4.14L7.7744 4.1376L7.7744 4.2L7.7848 4.2L7.7848 4.1376C7.78 4.12 7.78 4.11 7.78 4.1ZM7.84 4.19C7.84 4.19 7.84 4.18 7.83 4.17C7.83 4.17 7.83 4.16 7.83 4.14C7.83 4.13 7.83 4.11 7.83 4.09L7.8596 4.0944L7.8596 4.0844000000000005L7.8338 4.0844000000000005L7.8338 4.065L7.8238 4.065L7.8238 4.0844000000000005L7.807 4.0844000000000005L7.807 4.0944L7.8238 4.0944C7.82 4.11 7.82 4.13 7.82 4.14C7.82 4.16 7.82 4.17 7.82 4.18C7.83 4.19 7.83 4.19 7.83 4.2C7.84 4.2 7.84 4.2 7.85 4.2C7.85 4.2 7.85 4.2 7.86 4.2L7.8628 4.1928C7.85 4.19 7.84 4.19 7.84 4.19ZM7.98 4.14C7.98 4.13 7.97 4.12 7.97 4.1C7.96 4.09 7.95 4.09 7.94 4.08C7.93 4.08 7.93 4.08 7.93 4.08C7.92 4.08 7.91 4.09 7.9 4.09C7.88 4.11 7.88 4.12 7.88 4.14C7.88 4.14 7.88 4.14 7.88 4.14L7.8762 4.1428L7.8762 4.147C7.88 4.17 7.89 4.18 7.9 4.19C7.91 4.2 7.92 4.2 7.93 4.2C7.94 4.2 7.94 4.2 7.94 4.2C7.95 4.2 7.96 4.2 7.97 4.2C7.97 4.2 7.97 4.2 7.97 4.19L7.9708 4.187C7.96 4.19 7.96 4.19 7.95 4.19C7.95 4.19 7.94 4.19 7.93 4.19C7.92 4.19 7.91 4.19 7.9 4.18C7.89 4.18 7.89 4.16 7.89 4.15C7.89 4.15 7.89 4.14 7.89 4.14L7.8864 4.1422L7.9766 4.1422ZM7.93 4.09C7.94 4.09 7.95 4.1 7.96 4.11C7.96 4.12 7.97 4.12 7.97 4.13L7.8868 4.1322C7.89 4.12 7.89 4.11 7.9 4.1C7.91 4.1 7.92 4.09 7.93 4.09ZM8.03 4.09C8.02 4.1 8.02 4.1 8.01 4.11L8.013 4.0844000000000005L8.003 4.0844000000000005L8.003 4.2L8.013 4.2L8.013 4.1456C8.01 4.14 8.01 4.14 8.01 4.14C8.02 4.12 8.02 4.11 8.03 4.1C8.04 4.1 8.04 4.1 8.05 4.09L8.0456 4.0842C8.04 4.09 8.03 4.09 8.03 4.09ZM8.12 4.13C8.13 4.13 8.14 4.13 8.15 4.12C8.16 4.11 8.16 4.1 8.16 4.09L8.165 4.086L8.165 4.0858L8.165 4.0858C8.16 4.07 8.16 4.06 8.15 4.05C8.15 4.04 8.13 4.04 8.11 4.04C8.1 4.04 8.09 4.04 8.08 4.04L8.0756 4.0406L8.0756 4.0406L8.0756 4.2L8.0856 4.2L8.0856 4.131600000000001C8.09 4.13 8.1 4.13 8.1 4.13C8.12 4.15 8.15 4.18 8.17 4.2L8.1806 4.1994C8.16 4.18 8.14 4.15 8.12 4.13ZM8.09 4.05C8.09 4.05 8.1 4.05 8.11 4.05C8.12 4.05 8.14 4.05 8.15 4.06C8.15 4.07 8.15 4.07 8.15 4.09L8.1544 4.0858C8.15 4.1 8.15 4.11 8.14 4.12C8.13 4.12 8.12 4.12 8.1 4.12C8.1 4.12 8.1 4.12 8.1 4.12C8.1 4.12 8.09 4.12 8.09 4.12L8.0856 4.0494ZM8.21 4.08L8.2106 4.200200000000001L8.2206 4.200200000000001L8.2206 4.0842L8.2106 4.0842ZM8.22 4.05L8.2106 4.0548L8.2106 4.0648L8.2206 4.0648L8.2206 4.0548ZM8.31 4.08C8.3 4.08 8.28 4.09 8.27 4.09C8.26 4.1 8.25 4.12 8.25 4.14C8.25 4.14 8.25 4.14 8.25 4.15C8.25 4.16 8.25 4.17 8.26 4.19C8.27 4.2 8.28 4.2 8.3 4.2C8.31 4.2 8.32 4.2 8.33 4.19C8.33 4.19 8.34 4.18 8.34 4.18L8.341 4.1868L8.341 4.1868L8.341 4.1868L8.341 4.2014000000000005L8.341 4.2078C8.34 4.23 8.34 4.24 8.33 4.25C8.32 4.26 8.31 4.26 8.3 4.26C8.29 4.26 8.28 4.26 8.27 4.26L8.2694 4.266C8.28 4.27 8.29 4.27 8.29 4.27C8.3 4.27 8.3 4.27 8.31 4.27C8.32 4.27 8.33 4.26 8.33 4.26C8.34 4.25 8.35 4.23 8.35 4.21C8.35 4.2 8.35 4.19 8.35 4.18L8.351 4.0846C8.34 4.08 8.32 4.08 8.31 4.08ZM8.34 4.15C8.34 4.16 8.34 4.17 8.32 4.18C8.32 4.19 8.31 4.19 8.3 4.19C8.29 4.19 8.27 4.19 8.27 4.17C8.26 4.17 8.26 4.16 8.26 4.15C8.26 4.14 8.26 4.13 8.26 4.12C8.27 4.11 8.27 4.11 8.28 4.1C8.29 4.09 8.3 4.09 8.31 4.09C8.31 4.09 8.32 4.09 8.34 4.09C8.34 4.1 8.34 4.11 8.34 4.15ZM8.48 4.1C8.48 4.1 8.47 4.09 8.47 4.09C8.46 4.08 8.46 4.08 8.45 4.08C8.45 4.08 8.44 4.08 8.44 4.08C8.43 4.08 8.42 4.08 8.42 4.09C8.41 4.09 8.4 4.1 8.4 4.11L8.3976 4.016L8.3876 4.016L8.3876 4.200200000000001L8.3976 4.200200000000001L8.3976 4.1368C8.4 4.12 8.4 4.11 8.41 4.1C8.42 4.09 8.43 4.09 8.44 4.09C8.44 4.09 8.44 4.09 8.45 4.09C8.45 4.09 8.46 4.09 8.46 4.1C8.47 4.1 8.47 4.1 8.47 4.11C8.48 4.12 8.48 4.12 8.48 4.14L8.4782 4.1376L8.4782 4.2L8.4886 4.2L8.4886 4.1376L8.4886 4.1376C8.49 4.12 8.49 4.11 8.48 4.1ZM8.54 4.19C8.54 4.19 8.54 4.18 8.54 4.17C8.54 4.17 8.54 4.16 8.54 4.14C8.54 4.13 8.54 4.11 8.54 4.09L8.5612 4.0944L8.5612 4.0844000000000005L8.5354 4.0844000000000005L8.5354 4.065L8.5254 4.065L8.5254 4.0844000000000005L8.5086 4.0844000000000005L8.5086 4.0944L8.5254 4.0944C8.53 4.11 8.53 4.13 8.53 4.14C8.53 4.16 8.53 4.17 8.53 4.18C8.53 4.19 8.53 4.19 8.54 4.2C8.54 4.2 8.54 4.2 8.55 4.2C8.55 4.2 8.56 4.2 8.56 4.2L8.5644 4.1928C8.55 4.19 8.55 4.19 8.54 4.19Z" stroke="none" fill="#000000"/>
  <path d="M-0.1 5.9L0.1 6.1" stroke="#FF0000" stroke-width="0.02" fill="none"/>
  <path d="M-0.1 6.1L0.1 5.9" stroke="#FF0000" stroke-width="0.02" fill="none"/>
  <path d="M0.57 6L0.621 6L0.333 5.202L0.281 5.202L0 6L0.053 6L0.153 5.717L0.466 5.717L0.5680000000000001 6ZM0.17 5.67L0.307 5.277L0.448 5.667L0.17 5.667ZM0.74 6L0.791 6.002L0.791 5.0809999999999995L0.741 5.0809999999999995L0.741 6.002ZM1 5.42L1 6.001L1.05 6.001L1.05 5.421L1 5.421ZM1.05 5.27L1 5.274L1 5.324L1.05 5.324L1.05 5.274ZM1.51 5.41C1.43 5.4 1.36 5.43 1.31 5.47C1.25 5.52 1.21 5.59 1.2 5.68C1.2 5.7 1.2 5.71 1.2 5.73C1.2 5.81 1.22 5.87 1.26 5.93C1.31 5.99 1.37 6.02 1.44 6.02C1.5 6.02 1.55 6 1.6 5.96C1.62 5.94 1.64 5.92 1.65 5.9L1.6520000000000001 5.934L1.6520000000000001 5.934L1.6520000000000001 5.934L1.6520000000000001 6.007L1.6520000000000001 6.039C1.65 6.13 1.63 6.2 1.58 6.24C1.54 6.28 1.49 6.29 1.43 6.29C1.39 6.29 1.35 6.29 1.3 6.28L1.294 6.33C1.34 6.34 1.39 6.34 1.42 6.34C1.44 6.34 1.46 6.34 1.48 6.34C1.53 6.33 1.57 6.31 1.6 6.29C1.67 6.23 1.7 6.15 1.7 6.04C1.7 5.99 1.7 5.94 1.7 5.89L1.702 5.423C1.62 5.42 1.56 5.41 1.51 5.41ZM1.65 5.73C1.65 5.8 1.62 5.87 1.57 5.91C1.53 5.95 1.48 5.97 1.43 5.97C1.37 5.97 1.32 5.94 1.28 5.87C1.26 5.83 1.25 5.79 1.25 5.74C1.25 5.7 1.26 5.66 1.27 5.62C1.29 5.57 1.31 5.54 1.34 5.51C1.38 5.47 1.44 5.45 1.49 5.46C1.51 5.46 1.57 5.46 1.65 5.47C1.65 5.49 1.65 5.57 1.65 5.73ZM2.35 5.51C2.33 5.48 2.31 5.46 2.29 5.44C2.26 5.43 2.23 5.41 2.18 5.41C2.17 5.41 2.16 5.41 2.15 5.41C2.11 5.41 2.07 5.42 2.03 5.44C1.99 5.46 1.96 5.49 1.94 5.53L1.935 5.422L1.885 5.422L1.885 6L1.935 6L1.935 5.684C1.94 5.62 1.96 5.56 2.01 5.51C2.06 5.47 2.1 5.46 2.15 5.46C2.16 5.46 2.17 5.46 2.17 5.46C2.21 5.46 2.24 5.47 2.26 5.48C2.27 5.5 2.29 5.52 2.31 5.54C2.33 5.58 2.34 5.62 2.34 5.69L2.337 5.688L2.337 6L2.3890000000000002 6L2.3890000000000002 5.688C2.39 5.61 2.38 5.56 2.35 5.51Z" stroke="none" fill="#000000"/>
  <path d="M-0.48 7.15C-0.48 7.14 -0.48 7.13 -0.49 7.12C-0.49 7.12 -0.5 7.11 -0.51 7.11C-0.49 7.1 -0.49 7.09 -0.49 7.07C-0.49 7.06 -0.49 7.05 -0.5 7.05C-0.51 7.04 -0.52 7.04 -0.53 7.04C-0.54 7.04 -0.54 7.04 -0.54 7.04C-0.56 7.04 -0.56 7.04 -0.57 7.04L-0.5725 7.0402000000000005L-0.5725 7.0402000000000005L-0.5725 7.0402000000000005L-0.5725 7.2L-0.5723 7.2L-0.5723 7.2C-0.56 7.2 -0.54 7.2 -0.53 7.2C-0.51 7.2 -0.49 7.2 -0.48 7.19C-0.48 7.18 -0.47 7.17 -0.48 7.15L-0.4753 7.1502ZM-0.53 7.19C-0.54 7.19 -0.55 7.19 -0.56 7.19L-0.5625 7.118L-0.5267000000000001 7.118C-0.52 7.12 -0.51 7.12 -0.5 7.13C-0.49 7.13 -0.49 7.14 -0.48 7.15C-0.48 7.16 -0.49 7.17 -0.49 7.18C-0.5 7.19 -0.51 7.19 -0.53 7.19L-0.5347000000000001 7.1926000000000005ZM-0.54 7.05C-0.53 7.05 -0.52 7.05 -0.51 7.05C-0.5 7.06 -0.5 7.07 -0.5 7.07C-0.5 7.1 -0.51 7.11 -0.54 7.11L-0.5625 7.1080000000000005L-0.5625 7.0478000000000005C-0.55 7.05 -0.55 7.05 -0.54 7.05ZM-0.4 7.08C-0.41 7.08 -0.42 7.09 -0.43 7.1C-0.45 7.11 -0.45 7.12 -0.46 7.14C-0.46 7.14 -0.46 7.14 -0.46 7.15C-0.46 7.16 -0.45 7.18 -0.44 7.19C-0.43 7.2 -0.42 7.2 -0.41 7.2C-0.4 7.2 -0.39 7.2 -0.38 7.19C-0.37 7.19 -0.37 7.18 -0.37 7.18L-0.3659 7.187L-0.3659 7.187L-0.3659 7.187L-0.3659 7.2L-0.3559 7.2L-0.3559 7.0854C-0.37 7.08 -0.38 7.08 -0.4 7.08ZM-0.37 7.15C-0.37 7.16 -0.37 7.17 -0.38 7.18C-0.39 7.19 -0.4 7.19 -0.41 7.19C-0.42 7.19 -0.43 7.19 -0.44 7.17C-0.44 7.17 -0.45 7.16 -0.45 7.15C-0.45 7.14 -0.44 7.13 -0.44 7.12C-0.44 7.11 -0.43 7.11 -0.43 7.1C-0.42 7.1 -0.41 7.09 -0.4 7.09C-0.39 7.09 -0.38 7.09 -0.37 7.09L-0.3659 7.1456ZM-0.3 7.13C-0.32 7.13 -0.32 7.12 -0.32 7.11C-0.32 7.11 -0.32 7.11 -0.32 7.11C-0.32 7.1 -0.31 7.09 -0.3 7.09C-0.3 7.09 -0.3 7.09 -0.3 7.09C-0.29 7.09 -0.29 7.09 -0.29 7.1C-0.28 7.1 -0.28 7.1 -0.27 7.1L-0.2737 7.0948C-0.28 7.09 -0.29 7.08 -0.31 7.08C-0.32 7.08 -0.33 7.09 -0.33 7.11C-0.33 7.11 -0.33 7.11 -0.33 7.11C-0.33 7.12 -0.33 7.13 -0.32 7.14C-0.31 7.14 -0.3 7.15 -0.3 7.15C-0.29 7.16 -0.28 7.17 -0.28 7.17C-0.28 7.17 -0.28 7.18 -0.28 7.18C-0.29 7.19 -0.29 7.2 -0.3 7.2C-0.32 7.2 -0.32 7.19 -0.33 7.18L-0.3341 7.1948C-0.33 7.2 -0.32 7.2 -0.31 7.2C-0.31 7.2 -0.31 7.2 -0.3 7.2C-0.3 7.2 -0.29 7.2 -0.28 7.2C-0.28 7.19 -0.27 7.19 -0.27 7.18C-0.27 7.18 -0.27 7.17 -0.27 7.17C-0.27 7.17 -0.27 7.16 -0.28 7.15C-0.28 7.15 -0.29 7.14 -0.3 7.13ZM-0.16 7.14C-0.15 7.13 -0.16 7.12 -0.16 7.1C-0.17 7.09 -0.18 7.09 -0.2 7.08C-0.2 7.08 -0.2 7.08 -0.2 7.08C-0.21 7.08 -0.23 7.09 -0.23 7.09C-0.25 7.11 -0.25 7.12 -0.26 7.14C-0.26 7.14 -0.26 7.14 -0.26 7.14L-0.25570000000000004 7.1428L-0.25570000000000004 7.147C-0.25 7.17 -0.25 7.18 -0.24 7.19C-0.23 7.2 -0.21 7.2 -0.2 7.2C-0.19 7.2 -0.19 7.2 -0.19 7.2C-0.18 7.2 -0.17 7.2 -0.16 7.2C-0.16 7.2 -0.16 7.2 -0.16 7.19L-0.16110000000000002 7.187C-0.17 7.19 -0.18 7.19 -0.18 7.19C-0.18 7.19 -0.19 7.19 -0.2 7.19C-0.21 7.19 -0.22 7.19 -0.23 7.18C-0.24 7.18 -0.24 7.16 -0.24 7.15C-0.25 7.15 -0.25 7.14 -0.25 7.14L-0.24550000000000002 7.1422L-0.1553 7.1422ZM-0.2 7.09C-0.19 7.09 -0.18 7.1 -0.17 7.11C-0.17 7.12 -0.17 7.12 -0.17 7.13L-0.2451 7.1322C-0.24 7.12 -0.24 7.11 -0.23 7.1C-0.22 7.1 -0.21 7.09 -0.2 7.09ZM-0.13 7.2L-0.1155 7.2004L-0.1155 7.0162L-0.1255 7.0162L-0.1255 7.2004ZM-0.07 7.08L-0.0737 7.200200000000001L-0.0637 7.200200000000001L-0.0637 7.0842L-0.0737 7.0842ZM-0.06 7.05L-0.0737 7.0548L-0.0737 7.0648L-0.0637 7.0648L-0.0637 7.0548ZM0.07 7.1C0.06 7.1 0.06 7.09 0.05 7.09C0.05 7.09 0.04 7.08 0.03 7.08C0.03 7.08 0.03 7.08 0.03 7.08C0.02 7.08 0.01 7.08 0 7.09C0 7.09 -0.01 7.1 -0.02 7.11L-0.0155 7.0844000000000005L-0.025500000000000002 7.0844000000000005L-0.025500000000000002 7.2L-0.0155 7.2L-0.0155 7.1368C-0.02 7.12 -0.01 7.11 0 7.1C0.01 7.09 0.02 7.09 0.03 7.09C0.03 7.09 0.03 7.09 0.03 7.09C0.04 7.09 0.04 7.09 0.05 7.1C0.05 7.1 0.06 7.1 0.06 7.11C0.06 7.12 0.06 7.12 0.06 7.14L0.0649 7.1376L0.0649 7.2L0.0753 7.2L0.0753 7.1376C0.08 7.12 0.07 7.11 0.07 7.1ZM0.2 7.14C0.2 7.13 0.2 7.12 0.19 7.1C0.18 7.09 0.17 7.09 0.16 7.08C0.16 7.08 0.15 7.08 0.15 7.08C0.14 7.08 0.13 7.09 0.12 7.09C0.11 7.11 0.1 7.12 0.1 7.14C0.1 7.14 0.1 7.14 0.1 7.14L0.0981 7.1428L0.0981 7.147C0.1 7.17 0.11 7.18 0.12 7.19C0.13 7.2 0.14 7.2 0.16 7.2C0.16 7.2 0.16 7.2 0.17 7.2C0.18 7.2 0.18 7.2 0.19 7.2C0.19 7.2 0.19 7.2 0.19 7.19L0.1927 7.187C0.18 7.19 0.18 7.19 0.18 7.19C0.17 7.19 0.16 7.19 0.15 7.19C0.14 7.19 0.13 7.19 0.12 7.18C0.12 7.18 0.11 7.16 0.11 7.15C0.11 7.15 0.11 7.14 0.11 7.14L0.10830000000000001 7.1422L0.1985 7.1422ZM0.15 7.09C0.16 7.09 0.17 7.1 0.18 7.11C0.19 7.12 0.19 7.12 0.19 7.13L0.1087 7.1322C0.11 7.12 0.12 7.11 0.12 7.1C0.13 7.1 0.14 7.09 0.15 7.09ZM0.24 7.19L0.23870000000000002 7.1374L0.23870000000000002 7.1374L0.23870000000000002 7.1374L0.23870000000000002 7.0402000000000005L0.22870000000000001 7.0402000000000005L0.22870000000000001 7.1998L0.30910000000000004 7.1998L0.30910000000000004 7.19L0.23870000000000002 7.19ZM0.42 7.14C0.43 7.13 0.42 7.12 0.42 7.1C0.41 7.09 0.4 7.09 0.38 7.08C0.38 7.08 0.38 7.08 0.38 7.08C0.37 7.08 0.35 7.09 0.35 7.09C0.33 7.11 0.33 7.12 0.32 7.14C0.32 7.14 0.32 7.14 0.32 7.14L0.3245 7.1428L0.3245 7.147C0.33 7.17 0.33 7.18 0.34 7.19C0.35 7.2 0.37 7.2 0.38 7.2C0.39 7.2 0.39 7.2 0.39 7.2C0.4 7.2 0.41 7.2 0.42 7.2C0.42 7.2 0.42 7.2 0.42 7.19L0.41910000000000003 7.187C0.41 7.19 0.4 7.19 0.4 7.19C0.4 7.19 0.39 7.19 0.38 7.19C0.37 7.19 0.36 7.19 0.35 7.18C0.34 7.18 0.34 7.16 0.34 7.15C0.33 7.15 0.33 7.14 0.33 7.14L0.3347 7.1422L0.4249 7.1422ZM0.38 7.09C0.39 7.09 0.4 7.1 0.41 7.11C0.41 7.12 0.41 7.12 0.41 7.13L0.3351 7.1322C0.34 7.12 0.34 7.11 0.35 7.1C0.36 7.1 0.37 7.09 0.38 7.09ZM0.48 7.03C0.49 7.03 0.49 7.03 0.5 7.03L0.49970000000000003 7.016C0.49 7.02 0.48 7.02 0.48 7.02C0.47 7.03 0.47 7.04 0.47 7.04C0.46 7.05 0.46 7.06 0.46 7.07L0.4625 7.0842L0.44570000000000004 7.0842L0.44570000000000004 7.0942L0.4625 7.0942L0.4625 7.200200000000001L0.47250000000000003 7.200200000000001L0.47250000000000003 7.0942L0.4985 7.0942L0.4985 7.0842L0.47250000000000003 7.0842L0.47250000000000003 7.0754C0.47 7.05 0.48 7.04 0.48 7.03ZM0.55 7.19C0.55 7.19 0.55 7.18 0.54 7.17C0.54 7.17 0.54 7.16 0.54 7.14C0.54 7.13 0.54 7.11 0.54 7.09L0.5693 7.0944L0.5693 7.0844000000000005L0.5435 7.0844000000000005L0.5435 7.065L0.5335 7.065L0.5335 7.0844000000000005L0.5167 7.0844000000000005L0.5167 7.0944L0.5335 7.0944C0.53 7.11 0.53 7.13 0.53 7.14C0.53 7.16 0.53 7.17 0.53 7.18C0.54 7.19 0.54 7.19 0.54 7.2C0.55 7.2 0.55 7.2 0.56 7.2C0.56 7.2 0.56 7.2 0.57 7.2L0.5725 7.1928C0.56 7.19 0.55 7.19 0.55 7.19Z" stroke="none" fill="#000000"/>
  <path d="M3.9 5.9L4.1 6.1" stroke="#FF0000" stroke-width="0.02" fill="none"/>
  <path d="M3.9 6.1L4.1 5.9" stroke="#FF0000" stroke-width="0.02" fill="none"/>
  <path d="M3.37 6L3.4265 6L3.1385 5.202L3.0865 5.202L2.8055 6L2.8585000000000003 6L2.9585 5.717L3.2715 5.717L3.3735 6ZM2.98 5.67L3.1125 5.277L3.2535 5.667L2.9755000000000003 5.667ZM3.55 6L3.5965 6.002L3.5965 5.0809999999999995L3.5465 5.0809999999999995L3.5465 6.002ZM3.81 5.42L3.8055 6.001L3.8555 6.001L3.8555 5.421L3.8055 5.421ZM3.86 5.27L3.8055 5.274L3.8055 5.324L3.8555 5.324L3.8555 5.274ZM4.31 5.41C4.23 5.4 4.17 5.43 4.11 5.47C4.06 5.52 4.02 5.59 4.01 5.68C4 5.7 4 5.71 4 5.73C4 5.81 4.02 5.87 4.07 5.93C4.11 5.99 4.17 6.02 4.24 6.02C4.3 6.02 4.36 6 4.4 5.96C4.43 5.94 4.44 5.92 4.46 5.9L4.4575 5.934L4.4575 5.934L4.4575 5.934L4.4575 6.007L4.4575 6.039C4.46 6.13 4.43 6.2 4.38 6.24C4.34 6.28 4.29 6.29 4.23 6.29C4.2 6.29 4.16 6.29 4.11 6.28L4.0995 6.33C4.15 6.34 4.19 6.34 4.22 6.34C4.24 6.34 4.26 6.34 4.28 6.34C4.34 6.33 4.38 6.31 4.41 6.29C4.47 6.23 4.51 6.15 4.51 6.04C4.51 5.99 4.51 5.94 4.51 5.89L4.5075 5.423C4.43 5.42 4.36 5.41 4.31 5.41ZM4.46 5.73C4.46 5.8 4.43 5.87 4.38 5.91C4.33 5.95 4.29 5.97 4.24 5.97C4.18 5.97 4.13 5.94 4.09 5.87C4.07 5.83 4.05 5.79 4.05 5.74C4.05 5.7 4.06 5.66 4.08 5.62C4.09 5.57 4.11 5.54 4.14 5.51C4.19 5.47 4.24 5.45 4.3 5.46C4.32 5.46 4.37 5.46 4.46 5.47C4.46 5.49 4.46 5.57 4.46 5.73ZM5.16 5.51C5.14 5.48 5.12 5.46 5.09 5.44C5.07 5.43 5.03 5.41 4.99 5.41C4.98 5.41 4.97 5.41 4.95 5.41C4.91 5.41 4.87 5.42 4.83 5.44C4.8 5.46 4.77 5.49 4.74 5.53L4.7405 5.422L4.6905 5.422L4.6905 6L4.7405 6L4.7405 5.684C4.74 5.62 4.77 5.56 4.82 5.51C4.86 5.47 4.91 5.46 4.96 5.46C4.96 5.46 4.97 5.46 4.98 5.46C5.02 5.46 5.04 5.47 5.06 5.48C5.08 5.5 5.1 5.52 5.11 5.54C5.13 5.58 5.14 5.62 5.14 5.69L5.1425 5.688L5.1425 6L5.1945 6L5.1945 5.688C5.19 5.61 5.18 5.56 5.16 5.51Z" stroke="none" fill="#000000"/>
  <path d="M3.4 7.15C3.4 7.14 3.39 7.13 3.39 7.12C3.38 7.12 3.37 7.11 3.36 7.11C3.38 7.1 3.38 7.09 3.38 7.07C3.38 7.06 3.38 7.05 3.37 7.05C3.36 7.04 3.35 7.04 3.34 7.04C3.34 7.04 3.33 7.04 3.33 7.04C3.32 7.04 3.31 7.04 3.3 7.04L3.2996 7.0402000000000005L3.2996 7.0402000000000005L3.2996 7.0402000000000005L3.2996 7.2L3.2998 7.2L3.2998 7.2C3.31 7.2 3.33 7.2 3.34 7.2C3.36 7.2 3.38 7.2 3.39 7.19C3.39 7.18 3.4 7.17 3.4 7.15L3.3968 7.1502ZM3.34 7.19C3.33 7.19 3.32 7.19 3.31 7.19L3.3096 7.118L3.3453999999999997 7.118C3.36 7.12 3.36 7.12 3.37 7.13C3.38 7.13 3.39 7.14 3.39 7.15C3.39 7.16 3.39 7.17 3.38 7.18C3.37 7.19 3.36 7.19 3.34 7.19L3.3373999999999997 7.1926000000000005ZM3.33 7.05C3.34 7.05 3.35 7.05 3.36 7.05C3.37 7.06 3.37 7.07 3.37 7.07C3.37 7.1 3.36 7.11 3.33 7.11L3.3096 7.1080000000000005L3.3096 7.0478000000000005C3.32 7.05 3.33 7.05 3.33 7.05ZM3.48 7.08C3.46 7.08 3.45 7.09 3.44 7.1C3.43 7.11 3.42 7.12 3.42 7.14C3.42 7.14 3.42 7.14 3.42 7.15C3.42 7.16 3.42 7.18 3.43 7.19C3.44 7.2 3.45 7.2 3.46 7.2C3.48 7.2 3.49 7.2 3.5 7.19C3.5 7.19 3.5 7.18 3.51 7.18L3.5061999999999998 7.187L3.5061999999999998 7.187L3.5061999999999998 7.187L3.5061999999999998 7.2L3.5162 7.2L3.5162 7.0854C3.5 7.08 3.49 7.08 3.48 7.08ZM3.51 7.15C3.51 7.16 3.5 7.17 3.49 7.18C3.48 7.19 3.47 7.19 3.46 7.19C3.45 7.19 3.44 7.19 3.43 7.17C3.43 7.17 3.43 7.16 3.43 7.15C3.43 7.14 3.43 7.13 3.43 7.12C3.43 7.11 3.44 7.11 3.44 7.1C3.45 7.1 3.46 7.09 3.47 7.09C3.48 7.09 3.49 7.09 3.51 7.09L3.5061999999999998 7.1456ZM3.57 7.13C3.55 7.13 3.55 7.12 3.55 7.11C3.55 7.11 3.55 7.11 3.55 7.11C3.55 7.1 3.56 7.09 3.57 7.09C3.57 7.09 3.57 7.09 3.58 7.09C3.58 7.09 3.58 7.09 3.59 7.1C3.59 7.1 3.59 7.1 3.6 7.1L3.5984 7.0948C3.59 7.09 3.58 7.08 3.57 7.08C3.55 7.08 3.54 7.09 3.54 7.11C3.54 7.11 3.54 7.11 3.54 7.11C3.54 7.12 3.54 7.13 3.55 7.14C3.56 7.14 3.57 7.15 3.58 7.15C3.58 7.16 3.59 7.17 3.59 7.17C3.59 7.17 3.59 7.18 3.59 7.18C3.59 7.19 3.58 7.2 3.57 7.2C3.56 7.2 3.55 7.19 3.54 7.18L3.538 7.1948C3.54 7.2 3.55 7.2 3.56 7.2C3.56 7.2 3.56 7.2 3.57 7.2C3.58 7.2 3.58 7.2 3.59 7.2C3.59 7.19 3.6 7.19 3.6 7.18C3.6 7.18 3.6 7.17 3.6 7.17C3.6 7.17 3.6 7.16 3.59 7.15C3.59 7.15 3.58 7.14 3.57 7.13ZM3.72 7.14C3.72 7.13 3.71 7.12 3.71 7.1C3.7 7.09 3.69 7.09 3.68 7.08C3.67 7.08 3.67 7.08 3.67 7.08C3.66 7.08 3.65 7.09 3.64 7.09C3.62 7.11 3.62 7.12 3.62 7.14C3.62 7.14 3.62 7.14 3.62 7.14L3.6164 7.1428L3.6164 7.147C3.62 7.17 3.63 7.18 3.64 7.19C3.65 7.2 3.66 7.2 3.67 7.2C3.68 7.2 3.68 7.2 3.69 7.2C3.69 7.2 3.7 7.2 3.71 7.2C3.71 7.2 3.71 7.2 3.71 7.19L3.711 7.187C3.7 7.19 3.7 7.19 3.69 7.19C3.69 7.19 3.68 7.19 3.67 7.19C3.66 7.19 3.65 7.19 3.64 7.18C3.63 7.18 3.63 7.16 3.63 7.15C3.63 7.15 3.63 7.14 3.63 7.14L3.6266 7.1422L3.7168 7.1422ZM3.67 7.09C3.68 7.09 3.69 7.1 3.7 7.11C3.7 7.12 3.71 7.12 3.71 7.13L3.627 7.1322C3.63 7.12 3.63 7.11 3.64 7.1C3.65 7.1 3.66 7.09 3.67 7.09ZM3.75 7.2L3.7566 7.2004L3.7566 7.0162L3.7466 7.0162L3.7466 7.2004ZM3.8 7.08L3.7984 7.200200000000001L3.8084 7.200200000000001L3.8084 7.0842L3.7984 7.0842ZM3.81 7.05L3.7984 7.0548L3.7984 7.0648L3.8084 7.0648L3.8084 7.0548ZM3.94 7.1C3.94 7.1 3.93 7.09 3.93 7.09C3.92 7.09 3.92 7.08 3.91 7.08C3.9 7.08 3.9 7.08 3.9 7.08C3.89 7.08 3.88 7.08 3.88 7.09C3.87 7.09 3.86 7.1 3.86 7.11L3.8566 7.0844000000000005L3.8466 7.0844000000000005L3.8466 7.2L3.8566 7.2L3.8566 7.1368C3.86 7.12 3.86 7.11 3.87 7.1C3.88 7.09 3.89 7.09 3.9 7.09C3.9 7.09 3.9 7.09 3.9 7.09C3.91 7.09 3.92 7.09 3.92 7.1C3.92 7.1 3.93 7.1 3.93 7.11C3.94 7.12 3.94 7.12 3.94 7.14L3.937 7.1376L3.937 7.2L3.9474 7.2L3.9474 7.1376C3.95 7.12 3.95 7.11 3.94 7.1ZM4.07 7.14C4.07 7.13 4.07 7.12 4.06 7.1C4.05 7.09 4.04 7.09 4.03 7.08C4.03 7.08 4.03 7.08 4.02 7.08C4.01 7.08 4 7.09 3.99 7.09C3.98 7.11 3.97 7.12 3.97 7.14C3.97 7.14 3.97 7.14 3.97 7.14L3.9702 7.1428L3.9702 7.147C3.97 7.17 3.98 7.18 3.99 7.19C4 7.2 4.01 7.2 4.03 7.2C4.03 7.2 4.04 7.2 4.04 7.2C4.05 7.2 4.06 7.2 4.06 7.2C4.06 7.2 4.06 7.2 4.06 7.19L4.0648 7.187C4.06 7.19 4.05 7.19 4.05 7.19C4.04 7.19 4.03 7.19 4.03 7.19C4.01 7.19 4 7.19 4 7.18C3.99 7.18 3.98 7.16 3.98 7.15C3.98 7.15 3.98 7.14 3.98 7.14L3.9804 7.1422L4.0706 7.1422ZM4.02 7.09C4.04 7.09 4.05 7.1 4.05 7.11C4.06 7.12 4.06 7.12 4.06 7.13L3.9808 7.1322C3.98 7.12 3.99 7.11 4 7.1C4 7.1 4.01 7.09 4.02 7.09ZM4.16 7.05C4.17 7.05 4.18 7.05 4.19 7.05L4.1902 7.04C4.18 7.04 4.17 7.04 4.16 7.04C4.14 7.04 4.13 7.04 4.12 7.05C4.11 7.06 4.1 7.06 4.1 7.07C4.09 7.08 4.09 7.09 4.09 7.11L4.0904 7.1136L4.0904 7.1206000000000005L4.0904 7.1238L4.0904 7.1274L4.0906 7.1274C4.09 7.15 4.09 7.16 4.1 7.17C4.1 7.18 4.11 7.19 4.12 7.19C4.13 7.2 4.14 7.2 4.16 7.2C4.17 7.2 4.18 7.2 4.19 7.2L4.1902 7.191C4.18 7.19 4.17 7.19 4.16 7.19C4.15 7.19 4.13 7.19 4.13 7.18C4.12 7.18 4.11 7.17 4.11 7.17C4.11 7.16 4.1 7.14 4.1 7.13L4.1008 7.1205L4.1008 7.115600000000001C4.1 7.1 4.11 7.08 4.11 7.07C4.11 7.07 4.12 7.06 4.13 7.06C4.13 7.05 4.15 7.05 4.16 7.05ZM4.31 7.14C4.31 7.13 4.31 7.12 4.3 7.1C4.29 7.09 4.28 7.09 4.27 7.08C4.27 7.08 4.26 7.08 4.26 7.08C4.25 7.08 4.24 7.09 4.23 7.09C4.22 7.11 4.21 7.12 4.21 7.14C4.21 7.14 4.21 7.14 4.21 7.14L4.2094 7.1428L4.2094 7.147C4.21 7.17 4.22 7.18 4.23 7.19C4.24 7.2 4.25 7.2 4.27 7.2C4.27 7.2 4.27 7.2 4.28 7.2C4.29 7.2 4.3 7.2 4.3 7.2C4.3 7.2 4.3 7.2 4.3 7.19L4.304 7.187C4.3 7.19 4.29 7.19 4.29 7.19C4.28 7.19 4.27 7.19 4.27 7.19C4.25 7.19 4.24 7.19 4.24 7.18C4.23 7.18 4.22 7.16 4.22 7.15C4.22 7.15 4.22 7.14 4.22 7.14L4.2196 7.1422L4.3098 7.1422ZM4.26 7.09C4.28 7.09 4.29 7.1 4.29 7.11C4.3 7.12 4.3 7.12 4.3 7.13L4.22 7.1322C4.22 7.12 4.23 7.11 4.24 7.1C4.24 7.1 4.25 7.09 4.26 7.09ZM4.43 7.1C4.43 7.1 4.42 7.09 4.42 7.09C4.41 7.09 4.41 7.08 4.4 7.08C4.4 7.08 4.39 7.08 4.39 7.08C4.38 7.08 4.38 7.08 4.37 7.09C4.36 7.09 4.35 7.1 4.35 7.11L4.3488 7.0844000000000005L4.3388 7.0844000000000005L4.3388 7.2L4.3488 7.2L4.3488 7.1368C4.35 7.12 4.35 7.11 4.36 7.1C4.37 7.09 4.38 7.09 4.39 7.09C4.39 7.09 4.4 7.09 4.4 7.09C4.4 7.09 4.41 7.09 4.41 7.1C4.42 7.1 4.42 7.1 4.42 7.11C4.43 7.12 4.43 7.12 4.43 7.14L4.4292 7.1376L4.4292 7.2L4.4396 7.2L4.4396 7.1376C4.44 7.12 4.44 7.11 4.43 7.1ZM4.5 7.19C4.49 7.19 4.49 7.18 4.49 7.17C4.49 7.17 4.49 7.16 4.49 7.14C4.49 7.13 4.49 7.11 4.49 7.09L4.5144 7.0944L4.5144 7.0844000000000005L4.4886 7.0844000000000005L4.4886 7.065L4.4786 7.065L4.4786 7.0844000000000005L4.4618 7.0844000000000005L4.4618 7.0944L4.4786 7.0944C4.48 7.11 4.48 7.13 4.48 7.14C4.48 7.16 4.48 7.17 4.48 7.18C4.48 7.19 4.48 7.19 4.49 7.2C4.49 7.2 4.5 7.2 4.5 7.2C4.5 7.2 4.51 7.2 4.52 7.2L4.5176 7.1928C4.51 7.19 4.5 7.19 4.5 7.19ZM4.63 7.14C4.63 7.13 4.63 7.12 4.62 7.1C4.61 7.09 4.6 7.09 4.59 7.08C4.59 7.08 4.59 7.08 4.58 7.08C4.57 7.08 4.56 7.09 4.55 7.09C4.54 7.11 4.53 7.12 4.53 7.14C4.53 7.14 4.53 7.14 4.53 7.14L4.531 7.1428L4.531 7.147C4.53 7.17 4.54 7.18 4.55 7.19C4.56 7.2 4.57 7.2 4.59 7.2C4.59 7.2 4.6 7.2 4.6 7.2C4.61 7.2 4.62 7.2 4.63 7.2C4.63 7.2 4.63 7.2 4.63 7.19L4.6256 7.187C4.62 7.19 4.61 7.19 4.61 7.19C4.6 7.19 4.6 7.19 4.59 7.19C4.58 7.19 4.57 7.19 4.56 7.18C4.55 7.18 4.54 7.16 4.54 7.15C4.54 7.15 4.54 7.14 4.54 7.14L4.5412 7.1422L4.6314 7.1422ZM4.58 7.09C4.6 7.09 4.61 7.1 4.61 7.11C4.62 7.12 4.62 7.12 4.62 7.13L4.5416 7.1322C4.54 7.12 4.55 7.11 4.56 7.1C4.57 7.1 4.57 7.09 4.58 7.09ZM4.68 7.09C4.68 7.1 4.67 7.1 4.67 7.11L4.6678 7.0844000000000005L4.6578 7.0844000000000005L4.6578 7.2L4.6678 7.2L4.6678 7.1456C4.67 7.14 4.67 7.14 4.67 7.14C4.67 7.12 4.68 7.11 4.69 7.1C4.69 7.1 4.7 7.1 4.7 7.09L4.7004 7.0842C4.69 7.09 4.69 7.09 4.68 7.09Z" stroke="none" fill="#000000"/>
  <path d="M7.9 5.9L8.1 6.1" stroke="#FF0000" stroke-width="0.02" fill="none"/>
  <path d="M7.9 6.1L8.1 5.9" stroke="#FF0000" stroke-width="0.02" fill="none"/>
  <path d="M6.18 6L6.232 6L5.944 5.202L5.8919999999999995 5.202L5.611 6L5.664 6L5.763999999999999 5.717L6.077 5.717L6.179 6ZM5.78 5.67L5.918 5.277L6.059 5.667L5.781000000000001 5.667ZM6.35 6L6.402 6.002L6.402 5.0809999999999995L6.352 5.0809999999999995L6.352 6.002ZM6.61 5.42L6.611 6.001L6.661 6.001L6.661 5.421L6.611 5.421ZM6.66 5.27L6.611 5.274L6.611 5.324L6.661 5.324L6.661 5.274ZM7.12 5.41C7.04 5.4 6.97 5.43 6.92 5.47C6.86 5.52 6.83 5.59 6.81 5.68C6.81 5.7 6.81 5.71 6.81 5.73C6.81 5.81 6.83 5.87 6.87 5.93C6.92 5.99 6.98 6.02 7.05 6.02C7.11 6.02 7.16 6 7.21 5.96C7.23 5.94 7.25 5.92 7.26 5.9L7.263 5.934L7.263 5.934L7.263 5.934L7.263 6.007L7.263 6.039C7.26 6.13 7.24 6.2 7.19 6.24C7.15 6.28 7.1 6.29 7.04 6.29C7.01 6.29 6.96 6.29 6.91 6.28L6.905 6.33C6.96 6.34 7 6.34 7.03 6.34C7.05 6.34 7.07 6.34 7.09 6.34C7.14 6.33 7.18 6.31 7.22 6.29C7.28 6.23 7.31 6.15 7.31 6.04C7.31 5.99 7.31 5.94 7.31 5.89L7.313 5.423C7.24 5.42 7.17 5.41 7.12 5.41ZM7.26 5.73C7.26 5.8 7.24 5.87 7.18 5.91C7.14 5.95 7.09 5.97 7.05 5.97C6.98 5.97 6.93 5.94 6.89 5.87C6.87 5.83 6.86 5.79 6.86 5.74C6.86 5.7 6.87 5.66 6.88 5.62C6.9 5.57 6.92 5.54 6.95 5.51C6.99 5.47 7.05 5.45 7.11 5.46C7.12 5.46 7.18 5.46 7.26 5.47C7.26 5.49 7.26 5.57 7.26 5.73ZM7.96 5.51C7.94 5.48 7.92 5.46 7.9 5.44C7.87 5.43 7.84 5.41 7.79 5.41C7.78 5.41 7.77 5.41 7.76 5.41C7.72 5.41 7.68 5.42 7.64 5.44C7.6 5.46 7.57 5.49 7.55 5.53L7.546 5.422L7.496 5.422L7.496 6L7.546 6L7.546 5.684C7.55 5.62 7.57 5.56 7.63 5.51C7.67 5.47 7.71 5.46 7.76 5.46C7.77 5.46 7.78 5.46 7.79 5.46C7.82 5.46 7.85 5.47 7.87 5.48C7.89 5.5 7.9 5.52 7.92 5.54C7.94 5.58 7.95 5.62 7.95 5.69L7.948 5.688L7.948 6L8 6L8 5.688C8 5.61 7.99 5.56 7.96 5.51Z" stroke="none" fill="#000000"/>
  <path d="M7.45 7.15C7.45 7.14 7.45 7.13 7.44 7.12C7.43 7.12 7.43 7.11 7.42 7.11C7.43 7.1 7.44 7.09 7.44 7.07C7.44 7.06 7.43 7.05 7.42 7.05C7.41 7.04 7.4 7.04 7.39 7.04C7.39 7.04 7.39 7.04 7.38 7.04C7.37 7.04 7.36 7.04 7.35 7.04L7.3542 7.0402000000000005L7.3542 7.0402000000000005L7.3542 7.0402000000000005L7.3542 7.2L7.3544 7.2L7.3544 7.2C7.37 7.2 7.38 7.2 7.4 7.2C7.42 7.2 7.43 7.2 7.44 7.19C7.45 7.18 7.45 7.17 7.45 7.15L7.4514 7.1502ZM7.39 7.19C7.38 7.19 7.38 7.19 7.36 7.19L7.3642 7.118L7.4 7.118C7.41 7.12 7.42 7.12 7.43 7.13C7.44 7.13 7.44 7.14 7.44 7.15C7.44 7.16 7.44 7.17 7.43 7.18C7.43 7.19 7.41 7.19 7.39 7.19L7.392 7.1926000000000005ZM7.39 7.05C7.4 7.05 7.41 7.05 7.41 7.05C7.42 7.06 7.43 7.07 7.43 7.07C7.43 7.1 7.41 7.11 7.39 7.11L7.3642 7.1080000000000005L7.3642 7.0478000000000005C7.37 7.05 7.38 7.05 7.39 7.05ZM7.53 7.08C7.52 7.08 7.5 7.09 7.49 7.1C7.48 7.11 7.47 7.12 7.47 7.14C7.47 7.14 7.47 7.14 7.47 7.15C7.47 7.16 7.47 7.18 7.48 7.19C7.49 7.2 7.5 7.2 7.52 7.2C7.53 7.2 7.54 7.2 7.55 7.19C7.55 7.19 7.56 7.18 7.56 7.18L7.5608 7.187L7.5608 7.187L7.5608 7.187L7.5608 7.2L7.5708 7.2L7.5708 7.0854C7.56 7.08 7.54 7.08 7.53 7.08ZM7.56 7.15C7.56 7.16 7.56 7.17 7.55 7.18C7.54 7.19 7.53 7.19 7.52 7.19C7.51 7.19 7.5 7.19 7.49 7.17C7.48 7.17 7.48 7.16 7.48 7.15C7.48 7.14 7.48 7.13 7.49 7.12C7.49 7.11 7.49 7.11 7.5 7.1C7.51 7.1 7.52 7.09 7.53 7.09C7.53 7.09 7.54 7.09 7.56 7.09L7.5608 7.1456ZM7.62 7.13C7.61 7.13 7.6 7.12 7.6 7.11C7.6 7.11 7.6 7.11 7.6 7.11C7.61 7.1 7.61 7.09 7.62 7.09C7.63 7.09 7.63 7.09 7.63 7.09C7.63 7.09 7.64 7.09 7.64 7.1C7.64 7.1 7.65 7.1 7.65 7.1L7.653 7.0948C7.65 7.09 7.63 7.08 7.62 7.08C7.61 7.08 7.6 7.09 7.59 7.11C7.59 7.11 7.59 7.11 7.59 7.11C7.59 7.12 7.6 7.13 7.61 7.14C7.61 7.14 7.62 7.15 7.63 7.15C7.64 7.16 7.64 7.17 7.64 7.17C7.64 7.17 7.64 7.18 7.64 7.18C7.64 7.19 7.63 7.2 7.62 7.2C7.61 7.2 7.6 7.19 7.59 7.18L7.5926 7.1948C7.6 7.2 7.6 7.2 7.61 7.2C7.62 7.2 7.62 7.2 7.62 7.2C7.63 7.2 7.64 7.2 7.64 7.2C7.65 7.19 7.65 7.19 7.65 7.18C7.65 7.18 7.65 7.17 7.65 7.17C7.65 7.17 7.65 7.16 7.65 7.15C7.64 7.15 7.63 7.14 7.62 7.13ZM7.77 7.14C7.77 7.13 7.77 7.12 7.76 7.1C7.75 7.09 7.74 7.09 7.73 7.08C7.73 7.08 7.73 7.08 7.72 7.08C7.71 7.08 7.7 7.09 7.69 7.09C7.68 7.11 7.67 7.12 7.67 7.14C7.67 7.14 7.67 7.14 7.67 7.14L7.671 7.1428L7.671 7.147C7.67 7.17 7.68 7.18 7.69 7.19C7.7 7.2 7.71 7.2 7.73 7.2C7.73 7.2 7.74 7.2 7.74 7.2C7.75 7.2 7.76 7.2 7.77 7.2C7.77 7.2 7.77 7.2 7.77 7.19L7.7656 7.187C7.76 7.19 7.75 7.19 7.75 7.19C7.74 7.19 7.74 7.19 7.73 7.19C7.72 7.19 7.71 7.19 7.7 7.18C7.69 7.18 7.68 7.16 7.68 7.15C7.68 7.15 7.68 7.14 7.68 7.14L7.6812 7.1422L7.7714 7.1422ZM7.72 7.09C7.74 7.09 7.75 7.1 7.75 7.11C7.76 7.12 7.76 7.12 7.76 7.13L7.6815999999999995 7.1322C7.68 7.12 7.69 7.11 7.7 7.1C7.71 7.1 7.71 7.09 7.72 7.09ZM7.8 7.2L7.8112 7.2004L7.8112 7.0162L7.8012 7.0162L7.8012 7.2004ZM7.85 7.08L7.853 7.200200000000001L7.8629999999999995 7.200200000000001L7.8629999999999995 7.0842L7.853 7.0842ZM7.86 7.05L7.853 7.0548L7.853 7.0648L7.8629999999999995 7.0648L7.8629999999999995 7.0548ZM7.99 7.1C7.99 7.1 7.99 7.09 7.98 7.09C7.98 7.09 7.97 7.08 7.96 7.08C7.96 7.08 7.96 7.08 7.95 7.08C7.95 7.08 7.94 7.08 7.93 7.09C7.92 7.09 7.92 7.1 7.91 7.11L7.9112 7.0844000000000005L7.9012 7.0844000000000005L7.9012 7.2L7.9112 7.2L7.9112 7.1368C7.91 7.12 7.92 7.11 7.93 7.1C7.94 7.09 7.94 7.09 7.95 7.09C7.96 7.09 7.96 7.09 7.96 7.09C7.97 7.09 7.97 7.09 7.98 7.1C7.98 7.1 7.98 7.1 7.99 7.11C7.99 7.12 7.99 7.12 7.99 7.14L7.9916 7.1376L7.9916 7.2L8.002 7.2L8.002 7.1376C8 7.12 8 7.11 7.99 7.1ZM8.13 7.14C8.13 7.13 8.12 7.12 8.12 7.1C8.11 7.09 8.1 7.09 8.08 7.08C8.08 7.08 8.08 7.08 8.08 7.08C8.07 7.08 8.05 7.09 8.05 7.09C8.03 7.11 8.03 7.12 8.03 7.14C8.02 7.14 8.02 7.14 8.02 7.14L8.0248 7.1428L8.0248 7.147C8.03 7.17 8.03 7.18 8.05 7.19C8.06 7.2 8.07 7.2 8.08 7.2C8.09 7.2 8.09 7.2 8.09 7.2C8.1 7.2 8.11 7.2 8.12 7.2C8.12 7.2 8.12 7.2 8.12 7.19L8.1194 7.187C8.11 7.19 8.11 7.19 8.1 7.19C8.1 7.19 8.09 7.19 8.08 7.19C8.07 7.19 8.06 7.19 8.05 7.18C8.04 7.18 8.04 7.16 8.04 7.15C8.04 7.15 8.04 7.14 8.04 7.14L8.035 7.1422L8.1252 7.1422ZM8.08 7.09C8.09 7.09 8.1 7.1 8.11 7.11C8.11 7.12 8.11 7.12 8.11 7.13L8.0354 7.1322C8.04 7.12 8.04 7.11 8.05 7.1C8.06 7.1 8.07 7.09 8.08 7.09ZM8.2 7.13C8.21 7.13 8.22 7.13 8.23 7.12C8.24 7.11 8.25 7.1 8.25 7.09L8.2464 7.086L8.2464 7.0858L8.2464 7.0858C8.25 7.07 8.24 7.06 8.24 7.05C8.23 7.04 8.21 7.04 8.19 7.04C8.18 7.04 8.17 7.04 8.16 7.04L8.157 7.0406L8.157 7.0406L8.157 7.2L8.167 7.2L8.167 7.131600000000001C8.17 7.13 8.18 7.13 8.18 7.13C8.21 7.15 8.23 7.18 8.25 7.2L8.262 7.1994C8.24 7.18 8.22 7.15 8.2 7.13ZM8.17 7.05C8.17 7.05 8.18 7.05 8.19 7.05C8.21 7.05 8.22 7.05 8.23 7.06C8.23 7.07 8.24 7.07 8.24 7.09L8.2358 7.0858C8.24 7.1 8.23 7.11 8.22 7.12C8.21 7.12 8.2 7.12 8.18 7.12C8.18 7.12 8.18 7.12 8.18 7.12C8.18 7.12 8.17 7.12 8.17 7.12L8.167 7.0494ZM8.29 7.08L8.292 7.200200000000001L8.302 7.200200000000001L8.302 7.0842L8.292 7.0842ZM8.3 7.05L8.292 7.0548L8.292 7.0648L8.302 7.0648L8.302 7.0548ZM8.39 7.08C8.38 7.08 8.36 7.09 8.35 7.09C8.34 7.1 8.33 7.12 8.33 7.14C8.33 7.14 8.33 7.14 8.33 7.15C8.33 7.16 8.34 7.17 8.34 7.19C8.35 7.2 8.37 7.2 8.38 7.2C8.39 7.2 8.4 7.2 8.41 7.19C8.42 7.19 8.42 7.18 8.42 7.18L8.4224 7.1868L8.4224 7.1868L8.4224 7.1868L8.4224 7.2014000000000005L8.4224 7.2078C8.42 7.23 8.42 7.24 8.41 7.25C8.4 7.26 8.39 7.26 8.38 7.26C8.37 7.26 8.36 7.26 8.35 7.26L8.3508 7.266C8.36 7.27 8.37 7.27 8.38 7.27C8.38 7.27 8.38 7.27 8.39 7.27C8.4 7.27 8.41 7.26 8.41 7.26C8.43 7.25 8.43 7.23 8.43 7.21C8.43 7.2 8.43 7.19 8.43 7.18L8.4324 7.0846C8.42 7.08 8.4 7.08 8.39 7.08ZM8.42 7.15C8.42 7.16 8.42 7.17 8.41 7.18C8.4 7.19 8.39 7.19 8.38 7.19C8.37 7.19 8.36 7.19 8.35 7.17C8.34 7.17 8.34 7.16 8.34 7.15C8.34 7.14 8.34 7.13 8.35 7.12C8.35 7.11 8.35 7.11 8.36 7.1C8.37 7.09 8.38 7.09 8.39 7.09C8.39 7.09 8.41 7.09 8.42 7.09C8.42 7.1 8.42 7.11 8.42 7.15ZM8.56 7.1C8.56 7.1 8.55 7.09 8.55 7.09C8.54 7.08 8.54 7.08 8.53 7.08C8.53 7.08 8.52 7.08 8.52 7.08C8.51 7.08 8.51 7.08 8.5 7.09C8.49 7.09 8.48 7.1 8.48 7.11L8.479 7.016L8.469 7.016L8.469 7.200200000000001L8.479 7.200200000000001L8.479 7.1368C8.48 7.12 8.48 7.11 8.49 7.1C8.5 7.09 8.51 7.09 8.52 7.09C8.52 7.09 8.53 7.09 8.53 7.09C8.53 7.09 8.54 7.09 8.54 7.1C8.55 7.1 8.55 7.1 8.55 7.11C8.56 7.12 8.56 7.12 8.56 7.14L8.5596 7.1376L8.5596 7.2L8.57 7.2L8.57 7.1376L8.57 7.1376C8.57 7.12 8.57 7.11 8.56 7.1ZM8.62 7.19C8.62 7.19 8.62 7.18 8.62 7.17C8.62 7.17 8.62 7.16 8.62 7.14C8.62 7.13 8.62 7.11 8.62 7.09L8.6426 7.0944L8.6426 7.0844000000000005L8.6168 7.0844000000000005L8.6168 7.065L8.6068 7.065L8.6068 7.0844000000000005L8.59 7.0844000000000005L8.59 7.0944L8.6068 7.0944C8.61 7.11 8.61 7.13 8.61 7.14C8.61 7.16 8.61 7.17 8.61 7.18C8.61 7.19 8.61 7.19 8.62 7.2C8.62 7.2 8.62 7.2 8.63 7.2C8.63 7.2 8.64 7.2 8.65 7.2L8.6458 7.1928C8.63 7.19 8.63 7.19 8.62 7.19Z" stroke="none" fill="#000000"/>
  <path d="M-0.1 8.9L0.1 9.1" stroke="#FF0000" stroke-width="0.02" fill="none"/>
  <path d="M-0.1 9.1L0.1 8.9" stroke="#FF0000" stroke-width="0.02" fill="none"/>
  <path d="M0.57 8.66L0.621 8.658L0.333 7.859999999999999L0.281 7.859999999999999L0 8.658L0.053 8.658L0.153 8.375L0.466 8.375L0.5680000000000001 8.658ZM0.17 8.32L0.307 7.9350000000000005L0.448 8.325L0.17 8.325ZM0.74 8.66L0.791 8.66L0.791 7.739L0.741 7.739L0.741 8.66ZM1 8.08L1 8.659L1.05 8.659L1.05 8.079L1 8.079ZM1.05 7.93L1 7.932L1 7.982L1.05 7.982L1.05 7.932ZM1.51 8.07C1.43 8.06 1.36 8.08 1.31 8.13C1.25 8.18 1.21 8.25 1.2 8.33C1.2 8.35 1.2 8.37 1.2 8.39C1.2 8.47 1.22 8.53 1.26 8.59C1.31 8.65 1.37 8.68 1.44 8.68C1.5 8.68 1.55 8.66 1.6 8.62C1.62 8.6 1.64 8.58 1.65 8.56L1.6520000000000001 8.592L1.6520000000000001 8.592L1.6520000000000001 8.592L1.6520000000000001 8.665L1.6520000000000001 8.697C1.65 8.79 1.63 8.86 1.58 8.9C1.54 8.93 1.49 8.95 1.43 8.95C1.39 8.95 1.35 8.95 1.3 8.94L1.294 8.988C1.34 9 1.39 9 1.42 9C1.44 9 1.46 9 1.48 9C1.53 8.99 1.57 8.97 1.6 8.94C1.67 8.89 1.7 8.81 1.7 8.7C1.7 8.65 1.7 8.6 1.7 8.54L1.702 8.081C1.62 8.07 1.56 8.07 1.51 8.07ZM1.65 8.38C1.65 8.46 1.62 8.52 1.57 8.57C1.53 8.61 1.48 8.63 1.43 8.63C1.37 8.63 1.32 8.59 1.28 8.53C1.26 8.49 1.25 8.44 1.25 8.39C1.25 8.35 1.26 8.31 1.27 8.27C1.29 8.23 1.31 8.2 1.34 8.17C1.38 8.13 1.44 8.11 1.49 8.12C1.51 8.12 1.57 8.12 1.65 8.13C1.65 8.14 1.65 8.23 1.65 8.38ZM2.35 8.17C2.33 8.14 2.31 8.12 2.29 8.1C2.26 8.08 2.23 8.07 2.18 8.07C2.17 8.06 2.16 8.06 2.15 8.06C2.11 8.06 2.07 8.07 2.03 8.1C1.99 8.12 1.96 8.15 1.94 8.18L1.935 8.08L1.885 8.08L1.885 8.658L1.935 8.658L1.935 8.342C1.94 8.27 1.96 8.22 2.01 8.17C2.06 8.13 2.1 8.11 2.15 8.11C2.16 8.11 2.17 8.11 2.17 8.12C2.21 8.12 2.24 8.13 2.26 8.14C2.27 8.15 2.29 8.17 2.31 8.2C2.33 8.23 2.34 8.28 2.34 8.35L2.337 8.346L2.337 8.658L2.3890000000000002 8.658L2.3890000000000002 8.346C2.39 8.27 2.38 8.21 2.35 8.17Z" stroke="none" fill="#000000"/>
  <path d="M-0.44 10.15C-0.44 10.14 -0.44 10.13 -0.45 10.12C-0.45 10.12 -0.46 10.11 -0.47 10.11C-0.46 10.1 -0.45 10.09 -0.45 10.07C-0.45 10.06 -0.46 10.05 -0.47 10.05C-0.47 10.04 -0.48 10.04 -0.49 10.04C-0.5 10.04 -0.5 10.04 -0.5 10.04C-0.52 10.04 -0.53 10.04 -0.53 10.04L-0.5337000000000001 10.040199999999999L-0.5337000000000001 10.040199999999999L-0.5337000000000001 10.040199999999999L-0.5337000000000001 10.2L-0.5335 10.2L-0.5335 10.2C-0.52 10.2 -0.51 10.2 -0.49 10.2C-0.47 10.2 -0.45 10.2 -0.45 10.19C-0.44 10.18 -0.44 10.17 -0.44 10.15L-0.4365 10.1502ZM-0.5 10.19C-0.5 10.19 -0.51 10.19 -0.52 10.19L-0.5237 10.117999999999999L-0.4879 10.117999999999999C-0.48 10.12 -0.47 10.12 -0.46 10.13C-0.45 10.13 -0.45 10.14 -0.45 10.15C-0.45 10.16 -0.45 10.17 -0.45 10.18C-0.46 10.19 -0.48 10.19 -0.5 10.19L-0.4959 10.192599999999999ZM-0.5 10.05C-0.49 10.05 -0.48 10.05 -0.47 10.05C-0.47 10.06 -0.46 10.07 -0.46 10.07C-0.46 10.1 -0.47 10.11 -0.5 10.11L-0.5237 10.107999999999999L-0.5237 10.047799999999999C-0.52 10.05 -0.51 10.05 -0.5 10.05ZM-0.36 10.08C-0.38 10.08 -0.39 10.09 -0.4 10.1C-0.41 10.11 -0.42 10.13 -0.42 10.14C-0.42 10.16 -0.41 10.18 -0.4 10.19C-0.39 10.2 -0.38 10.2 -0.36 10.2C-0.35 10.2 -0.33 10.2 -0.33 10.19C-0.32 10.18 -0.31 10.16 -0.31 10.14C-0.31 10.13 -0.32 10.11 -0.33 10.1C-0.34 10.09 -0.35 10.08 -0.36 10.08ZM-0.36 10.19C-0.38 10.19 -0.39 10.19 -0.4 10.18C-0.4 10.17 -0.41 10.16 -0.41 10.14C-0.41 10.13 -0.4 10.12 -0.39 10.11C-0.39 10.1 -0.38 10.09 -0.36 10.09C-0.35 10.09 -0.34 10.1 -0.33 10.11C-0.33 10.12 -0.32 10.13 -0.32 10.14C-0.32 10.16 -0.33 10.17 -0.33 10.18C-0.34 10.19 -0.35 10.19 -0.36 10.19ZM-0.26 10.19C-0.26 10.19 -0.27 10.18 -0.27 10.17C-0.27 10.17 -0.27 10.16 -0.27 10.14C-0.27 10.13 -0.27 10.11 -0.27 10.09L-0.2417 10.094399999999998L-0.2417 10.084399999999999L-0.2675 10.084399999999999L-0.2675 10.065L-0.2775 10.065L-0.2775 10.084399999999999L-0.2943 10.084399999999999L-0.2943 10.094399999999998L-0.2775 10.094399999999998C-0.28 10.11 -0.28 10.13 -0.28 10.14C-0.28 10.16 -0.28 10.17 -0.28 10.18C-0.28 10.19 -0.27 10.19 -0.27 10.2C-0.26 10.2 -0.26 10.2 -0.25 10.2C-0.25 10.2 -0.25 10.2 -0.24 10.2L-0.23850000000000002 10.1928C-0.25 10.19 -0.26 10.19 -0.26 10.19ZM-0.19 10.19C-0.2 10.19 -0.2 10.18 -0.2 10.17C-0.2 10.17 -0.2 10.16 -0.2 10.14C-0.2 10.13 -0.2 10.11 -0.2 10.09L-0.1731 10.094399999999998L-0.1731 10.084399999999999L-0.19890000000000002 10.084399999999999L-0.19890000000000002 10.065L-0.2089 10.065L-0.2089 10.084399999999999L-0.2257 10.084399999999999L-0.2257 10.094399999999998L-0.2089 10.094399999999998C-0.21 10.11 -0.21 10.13 -0.21 10.14C-0.21 10.16 -0.21 10.17 -0.21 10.18C-0.21 10.19 -0.2 10.19 -0.2 10.2C-0.2 10.2 -0.19 10.2 -0.19 10.2C-0.18 10.2 -0.18 10.2 -0.17 10.2L-0.1699 10.1928C-0.18 10.19 -0.19 10.19 -0.19 10.19ZM-0.1 10.08C-0.12 10.08 -0.13 10.09 -0.14 10.1C-0.15 10.11 -0.15 10.13 -0.15 10.14C-0.15 10.16 -0.15 10.18 -0.14 10.19C-0.13 10.2 -0.12 10.2 -0.1 10.2C-0.09 10.2 -0.07 10.2 -0.06 10.19C-0.05 10.18 -0.05 10.16 -0.05 10.14C-0.05 10.13 -0.05 10.11 -0.06 10.1C-0.08 10.09 -0.09 10.08 -0.1 10.08ZM-0.1 10.19C-0.11 10.19 -0.12 10.19 -0.13 10.18C-0.14 10.17 -0.14 10.16 -0.14 10.14C-0.14 10.13 -0.14 10.12 -0.13 10.11C-0.12 10.1 -0.11 10.09 -0.1 10.09C-0.09 10.09 -0.08 10.1 -0.07 10.11C-0.06 10.12 -0.06 10.13 -0.06 10.14C-0.06 10.16 -0.06 10.17 -0.07 10.18C-0.08 10.19 -0.09 10.19 -0.1 10.19ZM0.15 10.1C0.14 10.09 0.13 10.08 0.12 10.08C0.11 10.08 0.11 10.08 0.11 10.08C0.1 10.08 0.09 10.08 0.08 10.09C0.07 10.1 0.07 10.1 0.07 10.11C0.06 10.09 0.05 10.08 0.03 10.08C0.03 10.08 0.03 10.08 0.03 10.08C0.01 10.08 0 10.09 -0.01 10.1L-0.0095 10.0842L-0.0195 10.0842L-0.0195 10.2L-0.0095 10.2L-0.0095 10.116399999999999C-0.01 10.11 0 10.11 0 10.1C0.01 10.09 0.02 10.09 0.03 10.09C0.04 10.09 0.05 10.1 0.06 10.11C0.06 10.11 0.06 10.12 0.06 10.14L0.0609 10.200199999999999L0.0713 10.200199999999999L0.0713 10.1374C0.07 10.13 0.07 10.13 0.07 10.13C0.07 10.12 0.08 10.11 0.08 10.1C0.09 10.09 0.1 10.09 0.11 10.09C0.12 10.09 0.13 10.1 0.14 10.11C0.14 10.11 0.14 10.12 0.14 10.14L0.1439 10.200199999999999L0.15430000000000002 10.200199999999999L0.15430000000000002 10.1374C0.15 10.12 0.15 10.11 0.15 10.1ZM0.2 10.19L0.19990000000000002 10.1374L0.19990000000000002 10.1374L0.19990000000000002 10.1374L0.19990000000000002 10.040199999999999L0.1899 10.040199999999999L0.1899 10.1998L0.27030000000000004 10.1998L0.27030000000000004 10.19L0.19990000000000002 10.19ZM0.39 10.14C0.39 10.13 0.38 10.12 0.38 10.1C0.37 10.09 0.36 10.09 0.35 10.08C0.34 10.08 0.34 10.08 0.34 10.08C0.33 10.08 0.32 10.09 0.31 10.09C0.29 10.11 0.29 10.12 0.29 10.14C0.29 10.14 0.29 10.14 0.29 10.14L0.2857 10.1428L0.2857 10.146999999999998C0.29 10.17 0.29 10.18 0.31 10.19C0.32 10.2 0.33 10.2 0.34 10.2C0.35 10.2 0.35 10.2 0.35 10.2C0.36 10.2 0.37 10.2 0.38 10.2C0.38 10.2 0.38 10.2 0.38 10.19L0.3803 10.187C0.37 10.19 0.37 10.19 0.36 10.19C0.36 10.19 0.35 10.19 0.34 10.19C0.33 10.19 0.32 10.19 0.31 10.18C0.3 10.18 0.3 10.16 0.3 10.15C0.3 10.15 0.3 10.14 0.3 10.14L0.2959 10.142199999999999L0.3861 10.142199999999999ZM0.34 10.09C0.35 10.09 0.36 10.1 0.37 10.11C0.37 10.12 0.37 10.12 0.38 10.13L0.2963 10.1322C0.3 10.12 0.3 10.11 0.31 10.1C0.32 10.1 0.33 10.09 0.34 10.09ZM0.44 10.03C0.45 10.03 0.45 10.03 0.46 10.02L0.46090000000000003 10.016C0.45 10.02 0.44 10.02 0.44 10.02C0.43 10.03 0.43 10.04 0.43 10.04C0.43 10.05 0.42 10.06 0.42 10.07L0.4237 10.0842L0.40690000000000004 10.0842L0.40690000000000004 10.094199999999999L0.4237 10.094199999999999L0.4237 10.200199999999999L0.43370000000000003 10.200199999999999L0.43370000000000003 10.094199999999999L0.4597 10.094199999999999L0.4597 10.0842L0.43370000000000003 10.0842L0.43370000000000003 10.0754C0.43 10.05 0.44 10.04 0.44 10.03ZM0.51 10.19C0.51 10.19 0.51 10.18 0.51 10.17C0.51 10.17 0.5 10.16 0.5 10.14C0.5 10.13 0.5 10.11 0.5 10.09L0.5305 10.094399999999998L0.5305 10.084399999999999L0.5047 10.084399999999999L0.5047 10.065L0.49470000000000003 10.065L0.49470000000000003 10.084399999999999L0.47790000000000005 10.084399999999999L0.47790000000000005 10.094399999999998L0.49470000000000003 10.094399999999998C0.49 10.11 0.49 10.13 0.49 10.14C0.49 10.16 0.5 10.17 0.5 10.18C0.5 10.19 0.5 10.19 0.5 10.2C0.51 10.2 0.51 10.2 0.52 10.2C0.52 10.2 0.53 10.2 0.53 10.2L0.5337000000000001 10.1928C0.52 10.19 0.52 10.19 0.51 10.19Z" stroke="none" fill="#000000"/>
  <path d="M3.9 8.9L4.1 9.1" stroke="#FF0000" stroke-width="0.02" fill="none"/>
  <path d="M3.9 9.1L4.1 8.9" stroke="#FF0000" stroke-width="0.02" fill="none"/>
  <path d="M3.37 8.66L3.4265 8.658L3.1385 7.859999999999999L3.0865 7.859999999999999L2.8055 8.658L2.8585000000000003 8.658L2.9585 8.375L3.2715 8.375L3.3735 8.658ZM2.98 8.32L3.1125 7.9350000000000005L3.2535 8.325L2.9755000000000003 8.325ZM3.55 8.66L3.5965 8.66L3.5965 7.739L3.5465 7.739L3.5465 8.66ZM3.81 8.08L3.8055 8.659L3.8555 8.659L3.8555 8.079L3.8055 8.079ZM3.86 7.93L3.8055 7.932L3.8055 7.982L3.8555 7.982L3.8555 7.932ZM4.31 8.07C4.23 8.06 4.17 8.08 4.11 8.13C4.06 8.18 4.02 8.25 4.01 8.33C4 8.35 4 8.37 4 8.39C4 8.47 4.02 8.53 4.07 8.59C4.11 8.65 4.17 8.68 4.24 8.68C4.3 8.68 4.36 8.66 4.4 8.62C4.43 8.6 4.44 8.58 4.46 8.56L4.4575 8.592L4.4575 8.592L4.4575 8.592L4.4575 8.665L4.4575 8.697C4.46 8.79 4.43 8.86 4.38 8.9C4.34 8.93 4.29 8.95 4.23 8.95C4.2 8.95 4.16 8.95 4.11 8.94L4.0995 8.988C4.15 9 4.19 9 4.22 9C4.24 9 4.26 9 4.28 9C4.34 8.99 4.38 8.97 4.41 8.94C4.47 8.89 4.51 8.81 4.51 8.7C4.51 8.65 4.51 8.6 4.51 8.54L4.5075 8.081C4.43 8.07 4.36 8.07 4.31 8.07ZM4.46 8.38C4.46 8.46 4.43 8.52 4.38 8.57C4.33 8.61 4.29 8.63 4.24 8.63C4.18 8.63 4.13 8.59 4.09 8.53C4.07 8.49 4.05 8.44 4.05 8.39C4.05 8.35 4.06 8.31 4.08 8.27C4.09 8.23 4.11 8.2 4.14 8.17C4.19 8.13 4.24 8.11 4.3 8.12C4.32 8.12 4.37 8.12 4.46 8.13C4.46 8.14 4.46 8.23 4.46 8.38ZM5.16 8.17C5.14 8.14 5.12 8.12 5.09 8.1C5.07 8.08 5.03 8.07 4.99 8.07C4.98 8.06 4.97 8.06 4.95 8.06C4.91 8.06 4.87 8.07 4.83 8.1C4.8 8.12 4.77 8.15 4.74 8.18L4.7405 8.08L4.6905 8.08L4.6905 8.658L4.7405 8.658L4.7405 8.342C4.74 8.27 4.77 8.22 4.82 8.17C4.86 8.13 4.91 8.11 4.96 8.11C4.96 8.11 4.97 8.11 4.98 8.12C5.02 8.12 5.04 8.13 5.06 8.14C5.08 8.15 5.1 8.17 5.11 8.2C5.13 8.23 5.14 8.28 5.14 8.35L5.1425 8.346L5.1425 8.658L5.1945 8.658L5.1945 8.346C5.19 8.27 5.18 8.21 5.16 8.17Z" stroke="none" fill="#000000"/>
  <path d="M3.44 10.15C3.44 10.14 3.43 10.13 3.42 10.12C3.42 10.12 3.41 10.11 3.4 10.11C3.42 10.1 3.42 10.09 3.42 10.07C3.42 10.06 3.42 10.05 3.41 10.05C3.4 10.04 3.39 10.04 3.38 10.04C3.37 10.04 3.37 10.04 3.37 10.04C3.36 10.04 3.35 10.04 3.34 10.04L3.3384 10.040199999999999L3.3384 10.040199999999999L3.3384 10.040199999999999L3.3384 10.2L3.3386 10.2L3.3386 10.2C3.35 10.2 3.37 10.2 3.38 10.2C3.4 10.2 3.42 10.2 3.43 10.19C3.43 10.18 3.44 10.17 3.44 10.15L3.4356 10.1502ZM3.38 10.19C3.37 10.19 3.36 10.19 3.35 10.19L3.3484 10.117999999999999L3.3842 10.117999999999999C3.39 10.12 3.4 10.12 3.41 10.13C3.42 10.13 3.43 10.14 3.43 10.15C3.43 10.16 3.42 10.17 3.42 10.18C3.41 10.19 3.4 10.19 3.38 10.19L3.3762 10.192599999999999ZM3.37 10.05C3.38 10.05 3.39 10.05 3.4 10.05C3.41 10.06 3.41 10.07 3.41 10.07C3.41 10.1 3.4 10.11 3.37 10.11L3.3484 10.107999999999999L3.3484 10.047799999999999C3.36 10.05 3.36 10.05 3.37 10.05ZM3.51 10.08C3.49 10.08 3.48 10.09 3.47 10.1C3.46 10.11 3.45 10.13 3.45 10.14C3.45 10.16 3.46 10.18 3.47 10.19C3.48 10.2 3.49 10.2 3.51 10.2C3.52 10.2 3.54 10.2 3.55 10.19C3.56 10.18 3.56 10.16 3.56 10.14C3.56 10.13 3.56 10.11 3.54 10.1C3.53 10.09 3.52 10.08 3.51 10.08ZM3.51 10.19C3.49 10.19 3.48 10.19 3.48 10.18C3.47 10.17 3.46 10.16 3.46 10.14C3.46 10.13 3.47 10.12 3.48 10.11C3.49 10.1 3.5 10.09 3.51 10.09C3.52 10.09 3.53 10.1 3.54 10.11C3.55 10.12 3.55 10.13 3.55 10.14C3.55 10.16 3.55 10.17 3.54 10.18C3.53 10.19 3.52 10.19 3.51 10.19ZM3.61 10.19C3.61 10.19 3.61 10.18 3.61 10.17C3.6 10.17 3.6 10.16 3.6 10.14C3.6 10.13 3.6 10.11 3.6 10.09L3.6304 10.094399999999998L3.6304 10.084399999999999L3.6046 10.084399999999999L3.6046 10.065L3.5946 10.065L3.5946 10.084399999999999L3.5778 10.084399999999999L3.5778 10.094399999999998L3.5946 10.094399999999998C3.59 10.11 3.59 10.13 3.59 10.14C3.59 10.16 3.6 10.17 3.6 10.18C3.6 10.19 3.6 10.19 3.6 10.2C3.61 10.2 3.61 10.2 3.62 10.2C3.62 10.2 3.63 10.2 3.63 10.2L3.6336 10.1928C3.62 10.19 3.62 10.19 3.61 10.19ZM3.68 10.19C3.68 10.19 3.67 10.18 3.67 10.17C3.67 10.17 3.67 10.16 3.67 10.14C3.67 10.13 3.67 10.11 3.67 10.09L3.699 10.094399999999998L3.699 10.084399999999999L3.6732 10.084399999999999L3.6732 10.065L3.6632 10.065L3.6632 10.084399999999999L3.6464 10.084399999999999L3.6464 10.094399999999998L3.6632 10.094399999999998C3.66 10.11 3.66 10.13 3.66 10.14C3.66 10.16 3.66 10.17 3.66 10.18C3.67 10.19 3.67 10.19 3.67 10.2C3.68 10.2 3.68 10.2 3.69 10.2C3.69 10.2 3.69 10.2 3.7 10.2L3.7022 10.1928C3.69 10.19 3.68 10.19 3.68 10.19ZM3.77 10.08C3.76 10.08 3.74 10.09 3.73 10.1C3.72 10.11 3.72 10.13 3.72 10.14C3.72 10.16 3.72 10.18 3.73 10.19C3.74 10.2 3.75 10.2 3.77 10.2C3.79 10.2 3.8 10.2 3.81 10.19C3.82 10.18 3.82 10.16 3.82 10.14C3.82 10.13 3.82 10.11 3.81 10.1C3.8 10.09 3.78 10.08 3.77 10.08ZM3.77 10.19C3.76 10.19 3.75 10.19 3.74 10.18C3.73 10.17 3.73 10.16 3.73 10.14C3.73 10.13 3.73 10.12 3.74 10.11C3.75 10.1 3.76 10.09 3.77 10.09C3.78 10.09 3.79 10.1 3.8 10.11C3.81 10.12 3.81 10.13 3.81 10.14C3.81 10.16 3.81 10.17 3.8 10.18C3.79 10.19 3.78 10.19 3.77 10.19ZM4.02 10.1C4.01 10.09 4 10.08 3.99 10.08C3.99 10.08 3.98 10.08 3.98 10.08C3.97 10.08 3.96 10.08 3.95 10.09C3.95 10.1 3.94 10.1 3.94 10.11C3.93 10.09 3.92 10.08 3.91 10.08C3.9 10.08 3.9 10.08 3.9 10.08C3.88 10.08 3.87 10.09 3.86 10.1L3.8626 10.0842L3.8526 10.0842L3.8526 10.2L3.8626 10.2L3.8626 10.116399999999999C3.86 10.11 3.87 10.11 3.87 10.1C3.88 10.09 3.89 10.09 3.9 10.09C3.91 10.09 3.92 10.1 3.93 10.11C3.93 10.11 3.93 10.12 3.93 10.14L3.933 10.200199999999999L3.9434 10.200199999999999L3.9434 10.1374C3.94 10.13 3.94 10.13 3.94 10.13C3.94 10.12 3.95 10.11 3.96 10.1C3.96 10.09 3.97 10.09 3.98 10.09C4 10.09 4.01 10.1 4.01 10.11C4.01 10.11 4.02 10.12 4.02 10.14L4.016 10.200199999999999L4.0264 10.200199999999999L4.0264 10.1374C4.03 10.12 4.02 10.11 4.02 10.1ZM4.12 10.05C4.13 10.05 4.14 10.05 4.15 10.05L4.1514 10.04C4.14 10.04 4.13 10.04 4.12 10.04C4.1 10.04 4.09 10.04 4.08 10.05C4.07 10.06 4.07 10.06 4.06 10.07C4.06 10.08 4.05 10.09 4.05 10.11L4.0516 10.1136L4.0516 10.1206L4.0516 10.1238L4.0516 10.1274L4.0518 10.1274C4.05 10.15 4.06 10.16 4.06 10.17C4.07 10.18 4.07 10.19 4.08 10.19C4.09 10.2 4.1 10.2 4.12 10.2C4.13 10.2 4.14 10.2 4.15 10.2L4.1514 10.190999999999999C4.14 10.19 4.13 10.19 4.12 10.19C4.11 10.19 4.1 10.19 4.09 10.18C4.08 10.18 4.08 10.17 4.07 10.17C4.07 10.16 4.06 10.14 4.06 10.13L4.062 10.1205L4.062 10.115599999999999C4.06 10.1 4.07 10.08 4.07 10.07C4.08 10.07 4.08 10.06 4.09 10.06C4.1 10.05 4.11 10.05 4.12 10.05ZM4.27 10.14C4.27 10.13 4.27 10.12 4.26 10.1C4.25 10.09 4.24 10.09 4.23 10.08C4.23 10.08 4.23 10.08 4.22 10.08C4.21 10.08 4.2 10.09 4.19 10.09C4.18 10.11 4.17 10.12 4.17 10.14C4.17 10.14 4.17 10.14 4.17 10.14L4.1706 10.1428L4.1706 10.146999999999998C4.17 10.17 4.18 10.18 4.19 10.19C4.2 10.2 4.21 10.2 4.23 10.2C4.23 10.2 4.24 10.2 4.24 10.2C4.25 10.2 4.26 10.2 4.27 10.2C4.27 10.2 4.27 10.2 4.27 10.19L4.2652 10.187C4.26 10.19 4.25 10.19 4.25 10.19C4.24 10.19 4.23 10.19 4.23 10.19C4.22 10.19 4.21 10.19 4.2 10.18C4.19 10.18 4.18 10.16 4.18 10.15C4.18 10.15 4.18 10.14 4.18 10.14L4.1808 10.142199999999999L4.271 10.142199999999999ZM4.22 10.09C4.24 10.09 4.25 10.1 4.25 10.11C4.26 10.12 4.26 10.12 4.26 10.13L4.1812 10.1322C4.18 10.12 4.19 10.11 4.2 10.1C4.21 10.1 4.21 10.09 4.22 10.09ZM4.39 10.1C4.39 10.1 4.39 10.09 4.38 10.09C4.38 10.09 4.37 10.08 4.36 10.08C4.36 10.08 4.35 10.08 4.35 10.08C4.34 10.08 4.34 10.08 4.33 10.09C4.32 10.09 4.31 10.1 4.31 10.1L4.31 10.084399999999999L4.3 10.084399999999999L4.3 10.2L4.31 10.2L4.31 10.1368C4.31 10.12 4.32 10.11 4.33 10.1C4.33 10.09 4.34 10.09 4.35 10.09C4.35 10.09 4.36 10.09 4.36 10.09C4.37 10.09 4.37 10.09 4.37 10.1C4.38 10.1 4.38 10.1 4.38 10.11C4.39 10.12 4.39 10.12 4.39 10.14L4.3904 10.137599999999999L4.3904 10.2L4.4008 10.2L4.4008 10.137599999999999C4.4 10.12 4.4 10.11 4.39 10.1ZM4.46 10.19C4.45 10.19 4.45 10.18 4.45 10.17C4.45 10.17 4.45 10.16 4.45 10.14C4.45 10.13 4.45 10.11 4.45 10.09L4.4756 10.094399999999998L4.4756 10.084399999999999L4.4498 10.084399999999999L4.4498 10.065L4.4398 10.065L4.4398 10.084399999999999L4.423 10.084399999999999L4.423 10.094399999999998L4.4398 10.094399999999998C4.44 10.11 4.44 10.13 4.44 10.14C4.44 10.16 4.44 10.17 4.44 10.18C4.44 10.19 4.44 10.19 4.45 10.2C4.45 10.2 4.46 10.2 4.46 10.2C4.47 10.2 4.47 10.2 4.48 10.2L4.4788 10.1928C4.47 10.19 4.46 10.19 4.46 10.19ZM4.59 10.14C4.59 10.13 4.59 10.12 4.58 10.1C4.58 10.09 4.56 10.09 4.55 10.08C4.55 10.08 4.55 10.08 4.54 10.08C4.53 10.08 4.52 10.09 4.51 10.09C4.5 10.11 4.49 10.12 4.49 10.14C4.49 10.14 4.49 10.14 4.49 10.14L4.4922 10.1428L4.4922 10.146999999999998C4.49 10.17 4.5 10.18 4.51 10.19C4.52 10.2 4.54 10.2 4.55 10.2C4.55 10.2 4.56 10.2 4.56 10.2C4.57 10.2 4.58 10.2 4.59 10.2C4.59 10.2 4.59 10.2 4.59 10.19L4.5868 10.187C4.58 10.19 4.57 10.19 4.57 10.19C4.56 10.19 4.56 10.19 4.55 10.19C4.54 10.19 4.53 10.19 4.52 10.18C4.51 10.18 4.51 10.16 4.5 10.15C4.5 10.15 4.5 10.14 4.5 10.14L4.5024 10.142199999999999L4.5926 10.142199999999999ZM4.55 10.09C4.56 10.09 4.57 10.1 4.58 10.11C4.58 10.12 4.58 10.12 4.58 10.13L4.5028 10.1322C4.5 10.12 4.51 10.11 4.52 10.1C4.53 10.1 4.54 10.09 4.55 10.09ZM4.64 10.09C4.64 10.1 4.63 10.1 4.63 10.11L4.629 10.084399999999999L4.619 10.084399999999999L4.619 10.2L4.629 10.2L4.629 10.1456C4.63 10.14 4.63 10.14 4.63 10.14C4.63 10.12 4.64 10.11 4.65 10.1C4.65 10.1 4.66 10.1 4.66 10.09L4.6616 10.0842C4.65 10.09 4.65 10.09 4.64 10.09Z" stroke="none" fill="#000000"/>
  <path d="M7.9 8.9L8.1 9.1" stroke="#FF0000" stroke-width="0.02" fill="none"/>
  <path d="M7.9 9.1L8.1 8.9" stroke="#FF0000" stroke-width="0.02" fill="none"/>
  <path d="M6.18 8.66L6.232 8.658L5.944 7.859999999999999L5.8919999999999995 7.859999999999999L5.611 8.658L5.664 8.658L5.763999999999999 8.375L6.077 8.375L6.179 8.658ZM5.78 8.32L5.918 7.9350000000000005L6.059 8.325L5.781000000000001 8.325ZM6.35 8.66L6.402 8.66L6.402 7.739L6.352 7.739L6.352 8.66ZM6.61 8.08L6.611 8.659L6.661 8.659L6.661 8.079L6.611 8.079ZM6.66 7.93L6.611 7.932L6.611 7.982L6.661 7.982L6.661 7.932ZM7.12 8.07C7.04 8.06 6.97 8.08 6.92 8.13C6.86 8.18 6.83 8.25 6.81 8.33C6.81 8.35 6.81 8.37 6.81 8.39C6.81 8.47 6.83 8.53 6.87 8.59C6.92 8.65 6.98 8.68 7.05 8.68C7.11 8.68 7.16 8.66 7.21 8.62C7.23 8.6 7.25 8.58 7.26 8.56L7.263 8.592L7.263 8.592L7.263 8.592L7.263 8.665L7.263 8.697C7.26 8.79 7.24 8.86 7.19 8.9C7.15 8.93 7.1 8.95 7.04 8.95C7.01 8.95 6.96 8.95 6.91 8.94L6.905 8.988C6.96 9 7 9 7.03 9C7.05 9 7.07 9 7.09 9C7.14 8.99 7.18 8.97 7.22 8.94C7.28 8.89 7.31 8.81 7.31 8.7C7.31 8.65 7.31 8.6 7.31 8.54L7.313 8.081C7.24 8.07 7.17 8.07 7.12 8.07ZM7.26 8.38C7.26 8.46 7.24 8.52 7.18 8.57C7.14 8.61 7.09 8.63 7.05 8.63C6.98 8.63 6.93 8.59 6.89 8.53C6.87 8.49 6.86 8.44 6.86 8.39C6.86 8.35 6.87 8.31 6.88 8.27C6.9 8.23 6.92 8.2 6.95 8.17C6.99 8.13 7.05 8.11 7.11 8.12C7.12 8.12 7.18 8.12 7.26 8.13C7.26 8.14 7.26 8.23 7.26 8.38ZM7.96 8.17C7.94 8.14 7.92 8.12 7.9 8.1C7.87 8.08 7.84 8.07 7.79 8.07C7.78 8.06 7.77 8.06 7.76 8.06C7.72 8.06 7.68 8.07 7.64 8.1C7.6 8.12 7.57 8.15 7.55 8.18L7.546 8.08L7.496 8.08L7.496 8.658L7.546 8.658L7.546 8.342C7.55 8.27 7.57 8.22 7.63 8.17C7.67 8.13 7.71 8.11 7.76 8.11C7.77 8.11 7.78 8.11 7.79 8.12C7.82 8.12 7.85 8.13 7.87 8.14C7.89 8.15 7.9 8.17 7.92 8.2C7.94 8.23 7.95 8.28 7.95 8.35L7.948 8.346L7.948 8.658L8 8.658L8 8.346C8 8.27 7.99 8.21 7.96 8.17Z" stroke="none" fill="#000000"/>
  <path d="M7.49 10.15C7.49 10.14 7.49 10.13 7.48 10.12C7.47 10.12 7.47 10.11 7.46 10.11C7.47 10.1 7.48 10.09 7.48 10.07C7.48 10.06 7.47 10.05 7.46 10.05C7.45 10.04 7.44 10.04 7.43 10.04C7.43 10.04 7.43 10.04 7.42 10.04C7.41 10.04 7.4 10.04 7.39 10.04L7.393 10.040199999999999L7.393 10.040199999999999L7.393 10.040199999999999L7.393 10.2L7.3932 10.2L7.3932 10.2C7.41 10.2 7.42 10.2 7.43 10.2C7.46 10.2 7.47 10.2 7.48 10.19C7.49 10.18 7.49 10.17 7.49 10.15L7.4902 10.1502ZM7.43 10.19C7.42 10.19 7.41 10.19 7.4 10.19L7.4030000000000005 10.117999999999999L7.4388 10.117999999999999C7.45 10.12 7.46 10.12 7.47 10.13C7.48 10.13 7.48 10.14 7.48 10.15C7.48 10.16 7.48 10.17 7.47 10.18C7.47 10.19 7.45 10.19 7.43 10.19L7.4308 10.192599999999999ZM7.43 10.05C7.44 10.05 7.45 10.05 7.45 10.05C7.46 10.06 7.47 10.07 7.47 10.07C7.47 10.1 7.45 10.11 7.42 10.11L7.4030000000000005 10.107999999999999L7.4030000000000005 10.047799999999999C7.41 10.05 7.42 10.05 7.43 10.05ZM7.56 10.08C7.55 10.08 7.54 10.09 7.52 10.1C7.51 10.11 7.51 10.13 7.51 10.14C7.51 10.16 7.51 10.18 7.52 10.19C7.53 10.2 7.55 10.2 7.56 10.2C7.58 10.2 7.59 10.2 7.6 10.19C7.61 10.18 7.62 10.16 7.62 10.14C7.62 10.13 7.61 10.11 7.6 10.1C7.59 10.09 7.58 10.08 7.56 10.08ZM7.56 10.19C7.55 10.19 7.54 10.19 7.53 10.18C7.52 10.17 7.52 10.16 7.52 10.14C7.52 10.13 7.52 10.12 7.53 10.11C7.54 10.1 7.55 10.09 7.56 10.09C7.57 10.09 7.58 10.1 7.59 10.11C7.6 10.12 7.61 10.13 7.61 10.14C7.61 10.16 7.6 10.17 7.59 10.18C7.59 10.19 7.57 10.19 7.56 10.19ZM7.67 10.19C7.66 10.19 7.66 10.18 7.66 10.17C7.66 10.17 7.66 10.16 7.66 10.14C7.66 10.13 7.66 10.11 7.66 10.09L7.685 10.094399999999998L7.685 10.084399999999999L7.6592 10.084399999999999L7.6592 10.065L7.6492 10.065L7.6492 10.084399999999999L7.6324 10.084399999999999L7.6324 10.094399999999998L7.6492 10.094399999999998C7.65 10.11 7.65 10.13 7.65 10.14C7.65 10.16 7.65 10.17 7.65 10.18C7.65 10.19 7.65 10.19 7.66 10.2C7.66 10.2 7.67 10.2 7.67 10.2C7.68 10.2 7.68 10.2 7.69 10.2L7.6882 10.1928C7.68 10.19 7.67 10.19 7.67 10.19ZM7.74 10.19C7.73 10.19 7.73 10.18 7.73 10.17C7.73 10.17 7.73 10.16 7.73 10.14C7.73 10.13 7.73 10.11 7.73 10.09L7.7536 10.094399999999998L7.7536 10.084399999999999L7.7278 10.084399999999999L7.7278 10.065L7.7178 10.065L7.7178 10.084399999999999L7.701 10.084399999999999L7.701 10.094399999999998L7.7178 10.094399999999998C7.72 10.11 7.72 10.13 7.72 10.14C7.72 10.16 7.72 10.17 7.72 10.18C7.72 10.19 7.72 10.19 7.73 10.2C7.73 10.2 7.74 10.2 7.74 10.2C7.74 10.2 7.75 10.2 7.76 10.2L7.7568 10.1928C7.75 10.19 7.74 10.19 7.74 10.19ZM7.83 10.08C7.81 10.08 7.8 10.09 7.79 10.1C7.78 10.11 7.77 10.13 7.77 10.14C7.77 10.16 7.78 10.18 7.79 10.19C7.8 10.2 7.81 10.2 7.83 10.2C7.84 10.2 7.85 10.2 7.86 10.19C7.87 10.18 7.88 10.16 7.88 10.14C7.88 10.13 7.87 10.11 7.86 10.1C7.85 10.09 7.84 10.08 7.83 10.08ZM7.83 10.19C7.81 10.19 7.8 10.19 7.79 10.18C7.79 10.17 7.78 10.16 7.78 10.14C7.78 10.13 7.79 10.12 7.8 10.11C7.8 10.1 7.81 10.09 7.83 10.09C7.84 10.09 7.85 10.1 7.86 10.11C7.86 10.12 7.87 10.13 7.87 10.14C7.87 10.16 7.86 10.17 7.86 10.18C7.85 10.19 7.84 10.19 7.83 10.19ZM8.07 10.1C8.07 10.09 8.06 10.08 8.04 10.08C8.04 10.08 8.04 10.08 8.04 10.08C8.02 10.08 8.01 10.08 8.01 10.09C8 10.1 8 10.1 7.99 10.11C7.99 10.09 7.98 10.08 7.96 10.08C7.96 10.08 7.96 10.08 7.95 10.08C7.94 10.08 7.93 10.09 7.92 10.1L7.9172 10.0842L7.9072 10.0842L7.9072 10.2L7.9172 10.2L7.9172 10.116399999999999C7.92 10.11 7.92 10.11 7.93 10.1C7.94 10.09 7.94 10.09 7.95 10.09C7.97 10.09 7.98 10.1 7.98 10.11C7.99 10.11 7.99 10.12 7.99 10.14L7.9876 10.200199999999999L7.998 10.200199999999999L7.998 10.1374C8 10.13 8 10.13 8 10.13C8 10.12 8 10.11 8.01 10.1C8.02 10.09 8.03 10.09 8.04 10.09C8.05 10.09 8.06 10.1 8.06 10.11C8.07 10.11 8.07 10.12 8.07 10.14L8.0706 10.200199999999999L8.081 10.200199999999999L8.081 10.1374C8.08 10.12 8.08 10.11 8.07 10.1ZM8.16 10.13C8.17 10.13 8.19 10.13 8.19 10.12C8.2 10.11 8.21 10.1 8.21 10.09L8.2076 10.085999999999999L8.2076 10.085799999999999L8.2076 10.085799999999999C8.21 10.07 8.2 10.06 8.2 10.05C8.19 10.04 8.17 10.04 8.15 10.04C8.14 10.04 8.13 10.04 8.12 10.04L8.1182 10.0406L8.1182 10.0406L8.1182 10.2L8.1282 10.2L8.1282 10.131599999999999C8.13 10.13 8.14 10.13 8.14 10.13C8.17 10.15 8.19 10.18 8.21 10.2L8.2232 10.199399999999999C8.2 10.18 8.18 10.15 8.16 10.13ZM8.13 10.05C8.14 10.05 8.14 10.05 8.15 10.05C8.17 10.05 8.18 10.05 8.19 10.06C8.19 10.07 8.2 10.07 8.2 10.09L8.197 10.085799999999999C8.2 10.1 8.19 10.11 8.18 10.12C8.17 10.12 8.16 10.12 8.14 10.12C8.14 10.12 8.14 10.12 8.14 10.12C8.14 10.12 8.13 10.12 8.13 10.12L8.1282 10.049399999999999ZM8.25 10.08L8.2532 10.200199999999999L8.2632 10.200199999999999L8.2632 10.0842L8.2532 10.0842ZM8.26 10.05L8.2532 10.0548L8.2532 10.0648L8.2632 10.0648L8.2632 10.0548ZM8.35 10.08C8.34 10.08 8.33 10.09 8.32 10.09C8.3 10.1 8.3 10.12 8.29 10.14C8.29 10.14 8.29 10.14 8.29 10.15C8.29 10.16 8.3 10.17 8.31 10.19C8.31 10.2 8.33 10.2 8.34 10.2C8.35 10.2 8.36 10.2 8.37 10.19C8.38 10.19 8.38 10.18 8.38 10.18L8.3836 10.1868L8.3836 10.1868L8.3836 10.1868L8.3836 10.2014L8.3836 10.207799999999999C8.38 10.23 8.38 10.24 8.37 10.25C8.36 10.26 8.35 10.26 8.34 10.26C8.33 10.26 8.32 10.26 8.31 10.26L8.312 10.266C8.32 10.27 8.33 10.27 8.34 10.27C8.34 10.27 8.34 10.27 8.35 10.27C8.36 10.27 8.37 10.26 8.37 10.26C8.39 10.25 8.39 10.23 8.39 10.21C8.39 10.2 8.39 10.19 8.39 10.18L8.3936 10.0846C8.38 10.08 8.36 10.08 8.35 10.08ZM8.38 10.15C8.38 10.16 8.38 10.17 8.37 10.18C8.36 10.19 8.35 10.19 8.34 10.19C8.33 10.19 8.32 10.19 8.31 10.17C8.31 10.17 8.3 10.16 8.3 10.15C8.3 10.14 8.3 10.13 8.31 10.12C8.31 10.11 8.32 10.11 8.32 10.1C8.33 10.09 8.34 10.09 8.35 10.09C8.36 10.09 8.37 10.09 8.38 10.09C8.38 10.1 8.38 10.11 8.38 10.15ZM8.52 10.1C8.52 10.1 8.52 10.09 8.51 10.09C8.51 10.08 8.5 10.08 8.49 10.08C8.49 10.08 8.49 10.08 8.48 10.08C8.47 10.08 8.47 10.08 8.46 10.09C8.45 10.09 8.45 10.1 8.44 10.1L8.4402 10.016L8.4302 10.016L8.4302 10.200199999999999L8.4402 10.200199999999999L8.4402 10.1368C8.44 10.12 8.45 10.11 8.46 10.1C8.46 10.09 8.47 10.09 8.48 10.09C8.49 10.09 8.49 10.09 8.49 10.09C8.5 10.09 8.5 10.09 8.5 10.1C8.51 10.1 8.51 10.1 8.51 10.11C8.52 10.12 8.52 10.12 8.52 10.14L8.5208 10.137599999999999L8.5208 10.2L8.5312 10.2L8.5312 10.137599999999999L8.5312 10.137599999999999C8.53 10.12 8.53 10.11 8.52 10.1ZM8.59 10.19C8.58 10.19 8.58 10.18 8.58 10.17C8.58 10.17 8.58 10.16 8.58 10.14C8.58 10.13 8.58 10.11 8.58 10.09L8.6038 10.094399999999998L8.6038 10.084399999999999L8.578 10.084399999999999L8.578 10.065L8.568 10.065L8.568 10.084399999999999L8.5512 10.084399999999999L8.5512 10.094399999999998L8.568 10.094399999999998C8.57 10.11 8.57 10.13 8.57 10.14C8.57 10.16 8.57 10.17 8.57 10.18C8.57 10.19 8.57 10.19 8.58 10.2C8.58 10.2 8.59 10.2 8.59 10.2C8.59 10.2 8.6 10.2 8.61 10.2L8.607 10.1928C8.6 10.19 8.59 10.19 8.59 10.19Z" stroke="none" fill="#000000"/>
</svg>
