<svg xmlns="http://www.w3.org/2000/svg" viewBox="-0.2 -0.2 9.4 2.42">
  <path d="M-0.2 -0.2L9.2 -0.2L9.2 2.22L-0.2 2.22Z" stroke="none" fill="#FFFFFF"/>
  <path d="M0 0L4 0L4 2L0 2Z" stroke="#000000" stroke-width="0.02" fill="none"/>
  <path d="M5 0L9 0L9 2L5 2Z" stroke="#000000" stroke-width="0.02" fill="none"/>
  <path d="M4.06 0L4.0625 0.05333333333333334" stroke="#FF0000" stroke-width="0.01" fill="none"/>
  <path d="M4.06 0.07L4.0625 0.12" stroke="#FF0000" stroke-width="0.01" fill="none"/>
  <path d="M4.06 0.13L4.0625 0.18666666666666668" stroke="#FF0000" stroke-width="0.01" fill="none"/>
  <path d="M4.06 0.2L4.0625 0.25333333333333335" stroke="#FF0000" stroke-width="0.01" fill="none"/>
  <path d="M4.06 0.27L4.0625 0.32" stroke="#FF0000" stroke-width="0.01" fill="none"/>
  <path d="M4.06 0.33L4.0625 0.38666666666666666" stroke="#FF0000" stroke-width="0.01" fill="none"/>
  <path d="M4.06 0.4L4.0625 0.45333333333333337" stroke="#FF0000" stroke-width="0.01" fill="none"/>
  <path d="M4.06 0.47L4.0625 0.52" stroke="#FF0000" stroke-width="0.01" fill="none"/>
  <path d="M4.06 0.53L4.0625 0.5866666666666667" stroke="#FF0000" stroke-width="0.01" fill="none"/>
  <path d="M4.06 0.6L4.0625 0.6533333333333333" stroke="#FF0000" stroke-width="0.01" fill="none"/>
  <path d="M4.06 0.67L4.0625 0.72" stroke="#FF0000" stroke-width="0.01" fill="none"/>
  <path d="M4.06 0.73L4.0625 0.7866666666666666" stroke="#FF0000" stroke-width="0.01" fill="none"/>
  <path d="M4.06 0.8L4.0625 0.8533333333333334" stroke="#FF0000" stroke-width="0.01" fill="none"/>
  <path d="M4.06 0.87L4.0625 0.92" stroke="#FF0000" stroke-width="0.01" fill="none"/>
  <path d="M4.06 0.93L4.0625 0.9866666666666667" stroke="#FF0000" stroke-width="0.01" fill="none"/>
  <path d="M4.06 1L4.0625 1.0533333333333332" stroke="#FF0000" stroke-width="0.01" fill="none"/>
  <path d="M4.06 1.07L4.0625 1.1199999999999999" stroke="#FF0000" stroke-width="0.01" fill="none"/>
  <path d="M4.06 1.2L4.0625 1.2533333333333332" stroke="#FF0000" stroke-width="0.01" fill="none"/>
  <path d="M4.06 1.27L4.0625 1.3199999999999998" stroke="#FF0000" stroke-width="0.01" fill="none"/>
  <path d="M4.06 1.33L4.0625 1.3866666666666665" stroke="#FF0000" stroke-width="0.01" fill="none"/>
  <path d="M4.06 1.4L4.0625 1.4533333333333331" stroke="#FF0000" stroke-width="0.01" fill="none"/>
  <path d="M4.06 1.47L4.0625 1.5199999999999998" stroke="#FF0000" stroke-width="0.01" fill="none"/>
  <path d="M4.06 1.53L4.0625 1.5866666666666664" stroke="#FF0000" stroke-width="0.01" fill="none"/>
  <path d="M4.06 1.6L4.0625 1.6533333333333333" stroke="#FF0000" stroke-width="0.01" fill="none"/>
  <path d="M4.06 1.67L4.0625 1.72" stroke="#FF0000" stroke-width="0.01" fill="none"/>
  <path d="M4.06 1.73L4.0625 1.7866666666666666" stroke="#FF0000" stroke-width="0.01" fill="none"/>
  <path d="M4.06 1.8L4.0625 1.8533333333333333" stroke="#FF0000" stroke-width="0.01" fill="none"/>
  <path d="M4.06 1.87L4.0625 1.92" stroke="#FF0000" stroke-width="0.01" fill="none"/>
  <path d="M4.06 1.93L4.0625 1.9866666666666666" stroke="#FF0000" stroke-width="0.01" fill="none"/>
  <path d="M4.19 0.03L4.1875 0.08666666666666667" stroke="#FF0000" stroke-width="0.01" fill="none"/>
  <path d="M4.19 0.1L4.1875 0.15333333333333335" stroke="#FF0000" stroke-width="0.01" fill="none"/>
  <path d="M4.19 0.17L4.1875 0.22" stroke="#FF0000" stroke-width="0.01" fill="none"/>
  <path d="M4.19 0.23L4.1875 0.2866666666666667" stroke="#FF0000" stroke-width="0.01" fill="none"/>
  <path d="M4.19 0.3L4.1875 0.35333333333333333" stroke="#FF0000" stroke-width="0.01" fill="none"/>
  <path d="M4.19 0.37L4.1875 0.42" stroke="#FF0000" stroke-width="0.01" fill="none"/>
  <path d="M4.19 0.43L4.1875 0.4866666666666667" stroke="#FF0000" stroke-width="0.01" fill="none"/>
  <path d="M4.19 0.5L4.1875 0.5533333333333333" stroke="#FF0000" stroke-width="0.01" fill="none"/>
  <path d="M4.19 0.57L4.1875 0.62" stroke="#FF0000" stroke-width="0.01" fill="none"/>
  <path d="M4.19 0.63L4.1875 0.6866666666666666" stroke="#FF0000" stroke-width="0.01" fill="none"/>
  <path d="M4.19 0.7L4.1875 0.7533333333333333" stroke="#FF0000" stroke-width="0.01" fill="none"/>
  <path d="M4.19 0.77L4.1875 0.82" stroke="#FF0000" stroke-width="0.01" fill="none"/>
  <path d="M4.19 0.83L4.1875 0.8866666666666667" stroke="#FF0000" stroke-width="0.01" fill="none"/>
  <path d="M4.19 0.9L4.1875 0.9533333333333334" stroke="#FF0000" stroke-width="0.01" fill="none"/>
  <path d="M4.19 0.97L4.1875 1.02" stroke="#FF0000" stroke-width="0.01" fill="none"/>
  <path d="M4.19 1.03L4.1875 1.0866666666666667" stroke="#FF0000" stroke-width="0.01" fill="none"/>
  <path d="M4.19 1.17L4.1875 1.22" stroke="#FF0000" stroke-width="0.01" fill="none"/>
  <path d="M4.19 1.23L4.1875 1.2866666666666666" stroke="#FF0000" stroke-width="0.01" fill="none"/>
  <path d="M4.19 1.3L4.1875 1.3533333333333333" stroke="#FF0000" stroke-width="0.01" fill="none"/>
  <path d="M4.19 1.37L4.1875 1.42" stroke="#FF0000" stroke-width="0.01" fill="none"/>
  <path d="M4.19 1.43L4.1875 1.4866666666666666" stroke="#FF0000" stroke-width="0.01" fill="none"/>
  <path d="M4.19 1.5L4.1875 1.5533333333333332" stroke="#FF0000" stroke-width="0.01" fill="none"/>
  <path d="M4.19 1.57L4.1875 1.6199999999999999" stroke="#FF0000" stroke-width="0.01" fill="none"/>
  <path d="M4.19 1.63L4.1875 1.6866666666666668" stroke="#FF0000" stroke-width="0.01" fill="none"/>
  <path d="M4.19 1.7L4.1875 1.7533333333333334" stroke="#FF0000" stroke-width="0.01" fill="none"/>
  <path d="M4.19 1.77L4.1875 1.82" stroke="#FF0000" stroke-width="0.01" fill="none"/>
  <path d="M4.19 1.83L4.1875 1.8866666666666667" stroke="#FF0000" stroke-width="0.01" fill="none"/>
  <path d="M4.19 1.9L4.1875 1.9533333333333334" stroke="#FF0000" stroke-width="0.01" fill="none"/>
  <path d="M4.19 1.97L4.1875 2.02" stroke="#FF0000" stroke-width="0.01" fill="none"/>
  <path d="M4.31 0L4.3125 0.05333333333333334" stroke="#FF0000" stroke-width="0.01" fill="none"/>
  <path d="M4.31 0.07L4.3125 0.12" stroke="#FF0000" stroke-width="0.01" fill="none"/>
  <path d="M4.31 0.13L4.3125 0.18666666666666668" stroke="#FF0000" stroke-width="0.01" fill="none"/>
  <path d="M4.31 0.2L4.3125 0.25333333333333335" stroke="#FF0000" stroke-width="0.01" fill="none"/>
  <path d="M4.31 0.27L4.3125 0.32" stroke="#FF0000" stroke-width="0.01" fill="none"/>
  <path d="M4.31 0.33L4.3125 0.38666666666666666" stroke="#FF0000" stroke-width="0.01" fill="none"/>
  <path d="M4.31 0.4L4.3125 0.45333333333333337" stroke="#FF0000" stroke-width="0.01" fill="none"/>
  <path d="M4.31 0.47L4.3125 0.52" stroke="#FF0000" stroke-width="0.01" fill="none"/>
  <path d="M4.31 0.53L4.3125 0.5866666666666667" stroke="#FF0000" stroke-width="0.01" fill="none"/>
  <path d="M4.31 0.6L4.3125 0.6533333333333333" stroke="#FF0000" stroke-width="0.01" fill="none"/>
  <path d="M4.31 0.67L4.3125 0.72" stroke="#FF0000" stroke-width="0.01" fill="none"/>
  <path d="M4.31 0.73L4.3125 0.7866666666666666" stroke="#FF0000" stroke-width="0.01" fill="none"/>
  <path d="M4.31 0.8L4.3125 0.8533333333333334" stroke="#FF0000" stroke-width="0.01" fill="none"/>
  <path d="M4.31 0.87L4.3125 0.92" stroke="#FF0000" stroke-width="0.01" fill="none"/>
  <path d="M4.31 0.93L4.3125 0.9866666666666667" stroke="#FF0000" stroke-width="0.01" fill="none"/>
  <path d="M4.31 1L4.3125 1.0533333333333332" stroke="#FF0000" stroke-width="0.01" fill="none"/>
  <path d="M4.31 1.07L4.3125 1.1199999999999999" stroke="#FF0000" stroke-width="0.01" fill="none"/>
  <path d="M4.31 1.13L4.3125 1.1866666666666665" stroke="#FF0000" stroke-width="0.01" fill="none"/>
  <path d="M4.31 1.2L4.3125 1.2533333333333332" stroke="#FF0000" stroke-width="0.01" fill="none"/>
  <path d="M4.31 1.27L4.3125 1.3199999999999998" stroke="#FF0000" stroke-width="0.01" fill="none"/>
  <path d="M4.31 1.33L4.3125 1.3866666666666665" stroke="#FF0000" stroke-width="0.01" fill="none"/>
  <path d="M4.31 1.4L4.3125 1.4533333333333331" stroke="#FF0000" stroke-width="0.01" fill="none"/>
  <path d="M4.31 1.47L4.3125 1.5199999999999998" stroke="#FF0000" stroke-width="0.01" fill="none"/>
  <path d="M4.31 1.53L4.3125 1.5866666666666664" stroke="#FF0000" stroke-width="0.01" fill="none"/>
  <path d="M4.31 1.6L4.3125 1.6533333333333333" stroke="#FF0000" stroke-width="0.01" fill="none"/>
  <path d="M4.31 1.67L4.3125 1.72" stroke="#FF0000" stroke-width="0.01" fill="none"/>
  <path d="M4.31 1.73L4.3125 1.7866666666666666" stroke="#FF0000" stroke-width="0.01" fill="none"/>
  <path d="M4.31 1.8L4.3125 1.8533333333333333" stroke="#FF0000" stroke-width="0.01" fill="none"/>
  <path d="M4.31 1.87L4.3125 1.92" stroke="#FF0000" stroke-width="0.01" fill="none"/>
  <path d="M4.31 1.93L4.3125 1.9866666666666666" stroke="#FF0000" stroke-width="0.01" fill="none"/>
  <path d="M4.44 0.03L4.4375 0.08666666666666667" stroke="#FF0000" stroke-width="0.01" fill="none"/>
  <path d="M4.44 0.1L4.4375 0.15333333333333335" stroke="#FF0000" stroke-width="0.01" fill="none"/>
  <path d="M4.44 0.17L4.4375 0.22" stroke="#FF0000" stroke-width="0.01" fill="none"/>
  <path d="M4.44 0.23L4.4375 0.2866666666666667" stroke="#FF0000" stroke-width="0.01" fill="none"/>
  <path d="M4.44 0.3L4.4375 0.35333333333333333" stroke="#FF0000" stroke-width="0.01" fill="none"/>
  <path d="M4.44 0.37L4.4375 0.42" stroke="#FF0000" stroke-width="0.01" fill="none"/>
  <path d="M4.44 0.43L4.4375 0.4866666666666667" stroke="#FF0000" stroke-width="0.01" fill="none"/>
  <path d="M4.44 0.5L4.4375 0.5533333333333333" stroke="#FF0000" stroke-width="0.01" fill="none"/>
  <path d="M4.44 0.57L4.4375 0.62" stroke="#FF0000" stroke-width="0.01" fill="none"/>
  <path d="M4.44 0.63L4.4375 0.6866666666666666" stroke="#FF0000" stroke-width="0.01" fill="none"/>
  <path d="M4.44 0.7L4.4375 0.7533333333333333" stroke="#FF0000" stroke-width="0.01" fill="none"/>
  <path d="M4.44 0.77L4.4375 0.82" stroke="#FF0000" stroke-width="0.01" fill="none"/>
  <path d="M4.44 0.83L4.4375 0.8866666666666667" stroke="#FF0000" stroke-width="0.01" fill="none"/>
  <path d="M4.44 0.9L4.4375 0.9533333333333334" stroke="#FF0000" stroke-width="0.01" fill="none"/>
  <path d="M4.44 0.97L4.4375 1.02" stroke="#FF0000" stroke-width="0.01" fill="none"/>
  <path d="M4.44 1.03L4.4375 1.0866666666666667" stroke="#FF0000" stroke-width="0.01" fill="none"/>
  <path d="M4.44 1.1L4.4375 1.1533333333333333" stroke="#FF0000" stroke-width="0.01" fill="none"/>
  <path d="M4.44 1.17L4.4375 1.22" stroke="#FF0000" stroke-width="0.01" fill="none"/>
  <path d="M4.44 1.23L4.4375 1.2866666666666666" stroke="#FF0000" stroke-width="0.01" fill="none"/>
  <path d="M4.44 1.3L4.4375 1.3533333333333333" stroke="#FF0000" stroke-width="0.01" fill="none"/>
  <path d="M4.44 1.37L4.4375 1.42" stroke="#FF0000" stroke-width="0.01" fill="none"/>
  <path d="M4.44 1.43L4.4375 1.4866666666666666" stroke="#FF0000" stroke-width="0.01" fill="none"/>
  <path d="M4.44 1.5L4.4375 1.5533333333333332" stroke="#FF0000" stroke-width="0.01" fill="none"/>
  <path d="M4.44 1.57L4.4375 1.6199999999999999" stroke="#FF0000" stroke-width="0.01" fill="none"/>
  <path d="M4.44 1.63L4.4375 1.6866666666666668" stroke="#FF0000" stroke-width="0.01" fill="none"/>
  <path d="M4.44 1.7L4.4375 1.7533333333333334" stroke="#FF0000" stroke-width="0.01" fill="none"/>
  <path d="M4.44 1.77L4.4375 1.82" stroke="#FF0000" stroke-width="0.01" fill="none"/>
  <path d="M4.44 1.83L4.4375 1.8866666666666667" stroke="#FF0000" stroke-width="0.01" fill="none"/>
  <path d="M4.44 1.9L4.4375 1.9533333333333334" stroke="#FF0000" stroke-width="0.01" fill="none"/>
  <path d="M4.44 1.97L4.4375 2.02" stroke="#FF0000" stroke-width="0.01" fill="none"/>
  <path d="M4.56 0L4.5625 0.05333333333333334" stroke="#FF0000" stroke-width="0.01" fill="none"/>
  <path d="M4.56 0.07L4.5625 0.12" stroke="#FF0000" stroke-width="0.01" fill="none"/>
  <path d="M4.56 0.13L4.5625 0.18666666666666668" stroke="#FF0000" stroke-width="0.01" fill="none"/>
  <path d="M4.56 0.2L4.5625 0.25333333333333335" stroke="#FF0000" stroke-width="0.01" fill="none"/>
  <path d="M4.56 0.27L4.5625 0.32" stroke="#FF0000" stroke-width="0.01" fill="none"/>
  <path d="M4.56 0.33L4.5625 0.38666666666666666" stroke="#FF0000" stroke-width="0.01" fill="none"/>
  <path d="M4.56 0.4L4.5625 0.45333333333333337" stroke="#FF0000" stroke-width="0.01" fill="none"/>
  <path d="M4.56 0.47L4.5625 0.52" stroke="#FF0000" stroke-width="0.01" fill="none"/>
  <path d="M4.56 0.53L4.5625 0.5866666666666667" stroke="#FF0000" stroke-width="0.01" fill="none"/>
  <path d="M4.56 0.6L4.5625 0.6533333333333333" stroke="#FF0000" stroke-width="0.01" fill="none"/>
  <path d="M4.56 0.67L4.5625 0.72" stroke="#FF0000" stroke-width="0.01" fill="none"/>
  <path d="M4.56 0.73L4.5625 0.7866666666666666" stroke="#FF0000" stroke-width="0.01" fill="none"/>
  <path d="M4.56 0.8L4.5625 0.8533333333333334" stroke="#FF0000" stroke-width="0.01" fill="none"/>
  <path d="M4.56 0.87L4.5625 0.92" stroke="#FF0000" stroke-width="0.01" fill="none"/>
  <path d="M4.56 0.93L4.5625 0.9866666666666667" stroke="#FF0000" stroke-width="0.01" fill="none"/>
  <path d="M4.56 1L4.5625 1.0533333333333332" stroke="#FF0000" stroke-width="0.01" fill="none"/>
  <path d="M4.56 1.07L4.5625 1.1199999999999999" stroke="#FF0000" stroke-width="0.01" fill="none"/>
  <path d="M4.56 1.13L4.5625 1.1866666666666665" stroke="#FF0000" stroke-width="0.01" fill="none"/>
  <path d="M4.56 1.2L4.5625 1.2533333333333332" stroke="#FF0000" stroke-width="0.01" fill="none"/>
  <path d="M4.56 1.27L4.5625 1.3199999999999998" stroke="#FF0000" stroke-width="0.01" fill="none"/>
  <path d="M4.56 1.33L4.5625 1.3866666666666665" stroke="#FF0000" stroke-width="0.01" fill="none"/>
  <path d="M4.56 1.4L4.5625 1.4533333333333331" stroke="#FF0000" stroke-width="0.01" fill="none"/>
  <path d="M4.56 1.47L4.5625 1.5199999999999998" stroke="#FF0000" stroke-width="0.01" fill="none"/>
  <path d="M4.56 1.53L4.5625 1.5866666666666664" stroke="#FF0000" stroke-width="0.01" fill="none"/>
  <path d="M4.56 1.6L4.5625 1.6533333333333333" stroke="#FF0000" stroke-width="0.01" fill="none"/>
  <path d="M4.56 1.67L4.5625 1.72" stroke="#FF0000" stroke-width="0.01" fill="none"/>
  <path d="M4.56 1.73L4.5625 1.7866666666666666" stroke="#FF0000" stroke-width="0.01" fill="none"/>
  <path d="M4.56 1.8L4.5625 1.8533333333333333" stroke="#FF0000" stroke-width="0.01" fill="none"/>
  <path d="M4.56 1.87L4.5625 1.92" stroke="#FF0000" stroke-width="0.01" fill="none"/>
  <path d="M4.56 1.93L4.5625 1.9866666666666666" stroke="#FF0000" stroke-width="0.01" fill="none"/>
  <path d="M4.69 0.03L4.6875 0.08666666666666667" stroke="#FF0000" stroke-width="0.01" fill="none"/>
  <path d="M4.69 0.1L4.6875 0.15333333333333335" stroke="#FF0000" stroke-width="0.01" fill="none"/>
  <path d="M4.69 0.17L4.6875 0.22" stroke="#FF0000" stroke-width="0.01" fill="none"/>
  <path d="M4.69 0.23L4.6875 0.2866666666666667" stroke="#FF0000" stroke-width="0.01" fill="none"/>
  <path d="M4.69 0.3L4.6875 0.35333333333333333" stroke="#FF0000" stroke-width="0.01" fill="none"/>
  <path d="M4.69 0.37L4.6875 0.42" stroke="#FF0000" stroke-width="0.01" fill="none"/>
  <path d="M4.69 0.43L4.6875 0.4866666666666667" stroke="#FF0000" stroke-width="0.01" fill="none"/>
  <path d="M4.69 0.5L4.6875 0.5533333333333333" stroke="#FF0000" stroke-width="0.01" fill="none"/>
  <path d="M4.69 0.57L4.6875 0.62" stroke="#FF0000" stroke-width="0.01" fill="none"/>
  <path d="M4.69 0.63L4.6875 0.6866666666666666" stroke="#FF0000" stroke-width="0.01" fill="none"/>
  <path d="M4.69 0.7L4.6875 0.7533333333333333" stroke="#FF0000" stroke-width="0.01" fill="none"/>
  <path d="M4.69 0.77L4.6875 0.82" stroke="#FF0000" stroke-width="0.01" fill="none"/>
  <path d="M4.69 0.83L4.6875 0.8866666666666667" stroke="#FF0000" stroke-width="0.01" fill="none"/>
  <path d="M4.69 0.9L4.6875 0.9533333333333334" stroke="#FF0000" stroke-width="0.01" fill="none"/>
  <path d="M4.69 0.97L4.6875 1.02" stroke="#FF0000" stroke-width="0.01" fill="none"/>
  <path d="M4.69 1.03L4.6875 1.0866666666666667" stroke="#FF0000" stroke-width="0.01" fill="none"/>
  <path d="M4.69 1.1L4.6875 1.1533333333333333" stroke="#FF0000" stroke-width="0.01" fill="none"/>
  <path d="M4.69 1.17L4.6875 1.22" stroke="#FF0000" stroke-width="0.01" fill="none"/>
  <path d="M4.69 1.23L4.6875 1.2866666666666666" stroke="#FF0000" stroke-width="0.01" fill="none"/>
  <path d="M4.69 1.3L4.6875 1.3533333333333333" stroke="#FF0000" stroke-width="0.01" fill="none"/>
  <path d="M4.69 1.37L4.6875 1.42" stroke="#FF0000" stroke-width="0.01" fill="none"/>
  <path d="M4.69 1.43L4.6875 1.4866666666666666" stroke="#FF0000" stroke-width="0.01" fill="none"/>
  <path d="M4.69 1.5L4.6875 1.5533333333333332" stroke="#FF0000" stroke-width="0.01" fill="none"/>
  <path d="M4.69 1.57L4.6875 1.6199999999999999" stroke="#FF0000" stroke-width="0.01" fill="none"/>
  <path d="M4.69 1.63L4.6875 1.6866666666666668" stroke="#FF0000" stroke-width="0.01" fill="none"/>
  <path d="M4.69 1.7L4.6875 1.7533333333333334" stroke="#FF0000" stroke-width="0.01" fill="none"/>
  <path d="M4.69 1.77L4.6875 1.82" stroke="#FF0000" stroke-width="0.01" fill="none"/>
  <path d="M4.69 1.83L4.6875 1.8866666666666667" stroke="#FF0000" stroke-width="0.01" fill="none"/>
  <path d="M4.69 1.9L4.6875 1.9533333333333334" stroke="#FF0000" stroke-width="0.01" fill="none"/>
  <path d="M4.69 1.97L4.6875 2.02" stroke="#FF0000" stroke-width="0.01" fill="none"/>
  <path d="M4.81 0L4.8125 0.05333333333333334" stroke="#FF0000" stroke-width="0.01" fill="none"/>
  <path d="M4.81 0.07L4.8125 0.12" stroke="#FF0000" stroke-width="0.01" fill="none"/>
  <path d="M4.81 0.13L4.8125 0.18666666666666668" stroke="#FF0000" stroke-width="0.01" fill="none"/>
  <path d="M4.81 0.2L4.8125 0.25333333333333335" stroke="#FF0000" stroke-width="0.01" fill="none"/>
  <path d="M4.81 0.27L4.8125 0.32" stroke="#FF0000" stroke-width="0.01" fill="none"/>
  <path d="M4.81 0.33L4.8125 0.38666666666666666" stroke="#FF0000" stroke-width="0.01" fill="none"/>
  <path d="M4.81 0.4L4.8125 0.45333333333333337" stroke="#FF0000" stroke-width="0.01" fill="none"/>
  <path d="M4.81 0.47L4.8125 0.52" stroke="#FF0000" stroke-width="0.01" fill="none"/>
  <path d="M4.81 0.53L4.8125 0.5866666666666667" stroke="#FF0000" stroke-width="0.01" fill="none"/>
  <path d="M4.81 0.6L4.8125 0.6533333333333333" stroke="#FF0000" stroke-width="0.01" fill="none"/>
  <path d="M4.81 0.67L4.8125 0.72" stroke="#FF0000" stroke-width="0.01" fill="none"/>
  <path d="M4.81 0.73L4.8125 0.7866666666666666" stroke="#FF0000" stroke-width="0.01" fill="none"/>
  <path d="M4.81 0.8L4.8125 0.8533333333333334" stroke="#FF0000" stroke-width="0.01" fill="none"/>
  <path d="M4.81 0.87L4.8125 0.92" stroke="#FF0000" stroke-width="0.01" fill="none"/>
  <path d="M4.81 0.93L4.8125 0.9866666666666667" stroke="#FF0000" stroke-width="0.01" fill="none"/>
  <path d="M4.81 1L4.8125 1.0533333333333332" stroke="#FF0000" stroke-width="0.01" fill="none"/>
  <path d="M4.81 1.07L4.8125 1.1199999999999999" stroke="#FF0000" stroke-width="0.01" fill="none"/>
  <path d="M4.81 1.13L4.8125 1.1866666666666665" stroke="#FF0000" stroke-width="0.01" fill="none"/>
  <path d="M4.81 1.2L4.8125 1.2533333333333332" stroke="#FF0000" stroke-width="0.01" fill="none"/>
  <path d="M4.81 1.27L4.8125 1.3199999999999998" stroke="#FF0000" stroke-width="0.01" fill="none"/>
  <path d="M4.81 1.33L4.8125 1.3866666666666665" stroke="#FF0000" stroke-width="0.01" fill="none"/>
  <path d="M4.81 1.4L4.8125 1.4533333333333331" stroke="#FF0000" stroke-width="0.01" fill="none"/>
  <path d="M4.81 1.47L4.8125 1.5199999999999998" stroke="#FF0000" stroke-width="0.01" fill="none"/>
  <path d="M4.81 1.53L4.8125 1.5866666666666664" stroke="#FF0000" stroke-width="0.01" fill="none"/>
  <path d="M4.81 1.6L4.8125 1.6533333333333333" stroke="#FF0000" stroke-width="0.01" fill="none"/>
  <path d="M4.81 1.67L4.8125 1.72" stroke="#FF0000" stroke-width="0.01" fill="none"/>
  <path d="M4.81 1.73L4.8125 1.7866666666666666" stroke="#FF0000" stroke-width="0.01" fill="none"/>
  <path d="M4.81 1.8L4.8125 1.8533333333333333" stroke="#FF0000" stroke-width="0.01" fill="none"/>
  <path d="M4.81 1.87L4.8125 1.92" stroke="#FF0000" stroke-width="0.01" fill="none"/>
  <path d="M4.81 1.93L4.8125 1.9866666666666666" stroke="#FF0000" stroke-width="0.01" fill="none"/>
  <path d="M4.94 0.03L4.9375 0.08666666666666667" stroke="#FF0000" stroke-width="0.01" fill="none"/>
  <path d="M4.94 0.1L4.9375 0.15333333333333335" stroke="#FF0000" stroke-width="0.01" fill="none"/>
  <path d="M4.94 0.17L4.9375 0.22" stroke="#FF0000" stroke-width="0.01" fill="none"/>
  <path d="M4.94 0.23L4.9375 0.2866666666666667" stroke="#FF0000" stroke-width="0.01" fill="none"/>
  <path d="M4.94 0.3L4.9375 0.35333333333333333" stroke="#FF0000" stroke-width="0.01" fill="none"/>
  <path d="M4.94 0.37L4.9375 0.42" stroke="#FF0000" stroke-width="0.01" fill="none"/>
  <path d="M4.94 0.43L4.9375 0.4866666666666667" stroke="#FF0000" stroke-width="0.01" fill="none"/>
  <path d="M4.94 0.5L4.9375 0.5533333333333333" stroke="#FF0000" stroke-width="0.01" fill="none"/>
  <path d="M4.94 0.57L4.9375 0.62" stroke="#FF0000" stroke-width="0.01" fill="none"/>
  <path d="M4.94 0.63L4.9375 0.6866666666666666" stroke="#FF0000" stroke-width="0.01" fill="none"/>
  <path d="M4.94 0.7L4.9375 0.7533333333333333" stroke="#FF0000" stroke-width="0.01" fill="none"/>
  <path d="M4.94 0.77L4.9375 0.82" stroke="#FF0000" stroke-width="0.01" fill="none"/>
  <path d="M4.94 0.83L4.9375 0.8866666666666667" stroke="#FF0000" stroke-width="0.01" fill="none"/>
  <path d="M4.94 0.9L4.9375 0.9533333333333334" stroke="#FF0000" stroke-width="0.01" fill="none"/>
  <path d="M4.94 0.97L4.9375 1.02" stroke="#FF0000" stroke-width="0.01" fill="none"/>
  <path d="M4.94 1.03L4.9375 1.0866666666666667" stroke="#FF0000" stroke-width="0.01" fill="none"/>
  <path d="M4.94 1.1L4.9375 1.1533333333333333" stroke="#FF0000" stroke-width="0.01" fill="none"/>
  <path d="M4.94 1.17L4.9375 1.22" stroke="#FF0000" stroke-width="0.01" fill="none"/>
  <path d="M4.94 1.23L4.9375 1.2866666666666666" stroke="#FF0000" stroke-width="0.01" fill="none"/>
  <path d="M4.94 1.3L4.9375 1.3533333333333333" stroke="#FF0000" stroke-width="0.01" fill="none"/>
  <path d="M4.94 1.37L4.9375 1.42" stroke="#FF0000" stroke-width="0.01" fill="none"/>
  <path d="M4.94 1.43L4.9375 1.4866666666666666" stroke="#FF0000" stroke-width="0.01" fill="none"/>
  <path d="M4.94 1.5L4.9375 1.5533333333333332" stroke="#FF0000" stroke-width="0.01" fill="none"/>
  <path d="M4.94 1.57L4.9375 1.6199999999999999" stroke="#FF0000" stroke-width="0.01" fill="none"/>
  <path d="M4.94 1.63L4.9375 1.6866666666666668" stroke="#FF0000" stroke-width="0.01" fill="none"/>
  <path d="M4.94 1.7L4.9375 1.7533333333333334" stroke="#FF0000" stroke-width="0.01" fill="none"/>
  <path d="M4.94 1.77L4.9375 1.82" stroke="#FF0000" stroke-width="0.01" fill="none"/>
  <path d="M4.94 1.83L4.9375 1.8866666666666667" stroke="#FF0000" stroke-width="0.01" fill="none"/>
  <path d="M4.94 1.9L4.9375 1.9533333333333334" stroke="#FF0000" stroke-width="0.01" fill="none"/>
  <path d="M4.94 1.97L4.9375 2.02" stroke="#FF0000" stroke-width="0.01" fill="none"/>
  <path d="M4.21 1.06C4.21 1.04 4.2 1.02 4.19 1.01C4.18 1 4.16 0.99 4.14 0.98C4.17 0.97 4.18 0.94 4.18 0.91C4.18 0.88 4.17 0.87 4.15 0.85C4.13 0.84 4.12 0.84 4.09 0.84C4.09 0.84 4.08 0.84 4.07 0.84C4.05 0.84 4.03 0.84 4.01 0.84L4.0144 0.8391555555555555L4.0144 0.8391555555555555L4.0144 0.8391555555555555L4.0144 1.1587555555555555L4.0148 1.1587555555555555L4.0148 1.1587555555555555C4.04 1.16 4.07 1.16 4.1 1.16C4.14 1.16 4.17 1.15 4.19 1.13C4.2 1.11 4.21 1.09 4.21 1.06L4.2088 1.0591555555555556ZM4.09 1.14C4.07 1.14 4.06 1.14 4.03 1.14L4.0344 0.9947555555555555L4.106 0.9947555555555555C4.13 0.99 4.14 1 4.16 1.01C4.18 1.02 4.19 1.04 4.19 1.06C4.19 1.09 4.19 1.1 4.17 1.12C4.16 1.13 4.13 1.14 4.09 1.14L4.09 1.1439555555555556ZM4.08 0.85C4.1 0.85 4.12 0.86 4.13 0.87C4.15 0.88 4.16 0.89 4.16 0.91C4.16 0.95 4.14 0.97 4.08 0.97L4.0344 0.9747555555555556L4.0344 0.8543555555555555C4.05 0.85 4.07 0.85 4.08 0.85ZM4.28 0.86L4.4192 0.8595555555555555L4.4192 0.8395555555555555L4.2788 0.8395555555555555L4.2788 0.8395555555555555L4.2588 0.8395555555555555L4.2588 1.1587555555555555L4.4188 1.1587555555555555L4.4188 1.1391555555555555L4.2788 1.1395555555555554L4.2788 1.0335555555555556L4.2788 1.0335555555555556L4.2788 1.0335555555555556L4.2788 0.9947555555555555L4.4192 0.9947555555555555L4.4192 0.9747555555555556L4.2788 0.9747555555555556L4.2788 0.8595555555555555ZM4.68 0.84L4.6776 1.1207555555555555L4.502800000000001 0.8383555555555555L4.502800000000001 0.8383555555555555L4.502800000000001 0.8383555555555555L4.4828 0.8383555555555555L4.4828 1.1583555555555556L4.502800000000001 1.1583555555555556L4.502800000000001 0.8763555555555556L4.6772 1.1583555555555556L4.6776 1.1583555555555556L4.6776 1.1583555555555556L4.6972000000000005 1.1583555555555556L4.6976 0.8383555555555555L4.6776 0.8383555555555555ZM4.99 0.99C4.98 0.95 4.98 0.92 4.96 0.9C4.95 0.88 4.94 0.87 4.92 0.86C4.9 0.84 4.87 0.84 4.83 0.84C4.83 0.84 4.82 0.84 4.81 0.84C4.79 0.84 4.78 0.84 4.78 0.84L4.7708 0.8383555555555555L4.7708 1.1587555555555555L4.7712 1.1587555555555555L4.7712 1.1587555555555555C4.8 1.16 4.82 1.16 4.83 1.16C4.87 1.16 4.9 1.15 4.92 1.14C4.94 1.13 4.95 1.12 4.96 1.1C4.98 1.08 4.98 1.05 4.99 1.01C4.99 1.01 4.99 1 4.99 1C4.99 1 4.99 0.99 4.99 0.99ZM4.96 1.01C4.96 1.05 4.96 1.07 4.94 1.09C4.94 1.1 4.92 1.12 4.91 1.13C4.89 1.14 4.87 1.14 4.84 1.14C4.83 1.14 4.81 1.14 4.79 1.14L4.7908 1.0331555555555556L4.7908 1.0331555555555556L4.7908 1.0331555555555556L4.7908 0.8571555555555554C4.81 0.86 4.83 0.85 4.84 0.85C4.87 0.85 4.89 0.86 4.91 0.87C4.92 0.88 4.94 0.89 4.94 0.91C4.96 0.93 4.96 0.95 4.96 0.99L4.9648 0.9987555555555555L4.9648 1.0087555555555556Z" stroke="#FF0000" stroke-width="0.01" fill="none"/>
  <path d="M-0.2 -0.2L9.2 -0.2L9.2 2.22L-0.2 2.22Z" stroke="none" fill="none"/>
</svg>
