<svg xmlns="http://www.w3.org/2000/svg" viewBox="-0.2 -0.2 9.4 2.42">
  <path d="M-0.2 -0.2L9.2 -0.2L9.2 2.22L-0.2 2.22Z" stroke="none" fill="#FFFFFF"/>
  <path d="M0 0L4 0L4 2L0 2Z" stroke="#000000" stroke-width="0.02" fill="none"/>
  <path d="M5 0L9 0L9 2L5 2Z" stroke="#000000" stroke-width="0.02" fill="none"/>
  <path d="M4.0625 0L4.0625 0.05333333333333334" stroke="#FF0000" stroke-width="0.01" fill="none"/>
  <path d="M4.0625 0.0667L4.0625 0.12" stroke="#FF0000" stroke-width="0.01" fill="none"/>
  <path d="M4.0625 0.1333L4.0625 0.18666666666666668" stroke="#FF0000" stroke-width="0.01" fill="none"/>
  <path d="M4.0625 0.2L4.0625 0.25333333333333335" stroke="#FF0000" stroke-width="0.01" fill="none"/>
  <path d="M4.0625 0.2667L4.0625 0.32" stroke="#FF0000" stroke-width="0.01" fill="none"/>
  <path d="M4.0625 0.3333L4.0625 0.38666666666666666" stroke="#FF0000" stroke-width="0.01" fill="none"/>
  <path d="M4.0625 0.4L4.0625 0.45333333333333337" stroke="#FF0000" stroke-width="0.01" fill="none"/>
  <path d="M4.0625 0.4667L4.0625 0.52" stroke="#FF0000" stroke-width="0.01" fill="none"/>
  <path d="M4.0625 0.5333L4.0625 0.5866666666666667" stroke="#FF0000" stroke-width="0.01" fill="none"/>
  <path d="M4.0625 0.6L4.0625 0.6533333333333333" stroke="#FF0000" stroke-width="0.01" fill="none"/>
  <path d="M4.0625 0.6667L4.0625 0.72" stroke="#FF0000" stroke-width="0.01" fill="none"/>
  <path d="M4.0625 0.7333L4.0625 0.7866666666666666" stroke="#FF0000" stroke-width="0.01" fill="none"/>
  <path d="M4.0625 0.8L4.0625 0.8533333333333334" stroke="#FF0000" stroke-width="0.01" fill="none"/>
  <path d="M4.0625 0.8667L4.0625 0.92" stroke="#FF0000" stroke-width="0.01" fill="none"/>
  <path d="M4.0625 0.9333L4.0625 0.9866666666666667" stroke="#FF0000" stroke-width="0.01" fill="none"/>
  <path d="M4.0625 1L4.0625 1.0533333333333332" stroke="#FF0000" stroke-width="0.01" fill="none"/>
  <path d="M4.0625 1.0667L4.0625 1.1199999999999999" stroke="#FF0000" stroke-width="0.01" fill="none"/>
  <path d="M4.0625 1.2L4.0625 1.2533333333333332" stroke="#FF0000" stroke-width="0.01" fill="none"/>
  <path d="M4.0625 1.2667L4.0625 1.3199999999999998" stroke="#FF0000" stroke-width="0.01" fill="none"/>
  <path d="M4.0625 1.3333L4.0625 1.3866666666666665" stroke="#FF0000" stroke-width="0.01" fill="none"/>
  <path d="M4.0625 1.4L4.0625 1.4533333333333331" stroke="#FF0000" stroke-width="0.01" fill="none"/>
  <path d="M4.0625 1.4667L4.0625 1.5199999999999998" stroke="#FF0000" stroke-width="0.01" fill="none"/>
  <path d="M4.0625 1.5333L4.0625 1.5866666666666664" stroke="#FF0000" stroke-width="0.01" fill="none"/>
  <path d="M4.0625 1.6L4.0625 1.6533333333333333" stroke="#FF0000" stroke-width="0.01" fill="none"/>
  <path d="M4.0625 1.6667L4.0625 1.72" stroke="#FF0000" stroke-width="0.01" fill="none"/>
  <path d="M4.0625 1.7333L4.0625 1.7866666666666666" stroke="#FF0000" stroke-width="0.01" fill="none"/>
  <path d="M4.0625 1.8L4.0625 1.8533333333333333" stroke="#FF0000" stroke-width="0.01" fill="none"/>
  <path d="M4.0625 1.8667L4.0625 1.92" stroke="#FF0000" stroke-width="0.01" fill="none"/>
  <path d="M4.0625 1.9333L4.0625 1.9866666666666666" stroke="#FF0000" stroke-width="0.01" fill="none"/>
  <path d="M4.1875 0.0333L4.1875 0.08666666666666667" stroke="#FF0000" stroke-width="0.01" fill="none"/>
  <path d="M4.1875 0.1L4.1875 0.15333333333333335" stroke="#FF0000" stroke-width="0.01" fill="none"/>
  <path d="M4.1875 0.1667L4.1875 0.22" stroke="#FF0000" stroke-width="0.01" fill="none"/>
  <path d="M4.1875 0.2333L4.1875 0.2866666666666667" stroke="#FF0000" stroke-width="0.01" fill="none"/>
  <path d="M4.1875 0.3L4.1875 0.35333333333333333" stroke="#FF0000" stroke-width="0.01" fill="none"/>
  <path d="M4.1875 0.3667L4.1875 0.42" stroke="#FF0000" stroke-width="0.01" fill="none"/>
  <path d="M4.1875 0.4333L4.1875 0.4866666666666667" stroke="#FF0000" stroke-width="0.01" fill="none"/>
  <path d="M4.1875 0.5L4.1875 0.5533333333333333" stroke="#FF0000" stroke-width="0.01" fill="none"/>
  <path d="M4.1875 0.5667L4.1875 0.62" stroke="#FF0000" stroke-width="0.01" fill="none"/>
  <path d="M4.1875 0.6333L4.1875 0.6866666666666666" stroke="#FF0000" stroke-width="0.01" fill="none"/>
  <path d="M4.1875 0.7L4.1875 0.7533333333333333" stroke="#FF0000" stroke-width="0.01" fill="none"/>
  <path d="M4.1875 0.7667L4.1875 0.82" stroke="#FF0000" stroke-width="0.01" fill="none"/>
  <path d="M4.1875 0.8333L4.1875 0.8866666666666667" stroke="#FF0000" stroke-width="0.01" fill="none"/>
  <path d="M4.1875 0.9L4.1875 0.9533333333333334" stroke="#FF0000" stroke-width="0.01" fill="none"/>
  <path d="M4.1875 0.9667L4.1875 1.02" stroke="#FF0000" stroke-width="0.01" fill="none"/>
  <path d="M4.1875 1.0333L4.1875 1.0866666666666667" stroke="#FF0000" stroke-width="0.01" fill="none"/>
  <path d="M4.1875 1.1667L4.1875 1.22" stroke="#FF0000" stroke-width="0.01" fill="none"/>
  <path d="M4.1875 1.2333L4.1875 1.2866666666666666" stroke="#FF0000" stroke-width="0.01" fill="none"/>
  <path d="M4.1875 1.3L4.1875 1.3533333333333333" stroke="#FF0000" stroke-width="0.01" fill="none"/>
  <path d="M4.1875 1.3667L4.1875 1.42" stroke="#FF0000" stroke-width="0.01" fill="none"/>
  <path d="M4.1875 1.4333L4.1875 1.4866666666666666" stroke="#FF0000" stroke-width="0.01" fill="none"/>
  <path d="M4.1875 1.5L4.1875 1.5533333333333332" stroke="#FF0000" stroke-width="0.01" fill="none"/>
  <path d="M4.1875 1.5667L4.1875 1.6199999999999999" stroke="#FF0000" stroke-width="0.01" fill="none"/>
  <path d="M4.1875 1.6333L4.1875 1.6866666666666668" stroke="#FF0000" stroke-width="0.01" fill="none"/>
  <path d="M4.1875 1.7L4.1875 1.7533333333333334" stroke="#FF0000" stroke-width="0.01" fill="none"/>
  <path d="M4.1875 1.7667L4.1875 1.82" stroke="#FF0000" stroke-width="0.01" fill="none"/>
  <path d="M4.1875 1.8333L4.1875 1.8866666666666667" stroke="#FF0000" stroke-width="0.01" fill="none"/>
  <path d="M4.1875 1.9L4.1875 1.9533333333333334" stroke="#FF0000" stroke-width="0.01" fill="none"/>
  <path d="M4.1875 1.9667L4.1875 2.02" stroke="#FF0000" stroke-width="0.01" fill="none"/>
  <path d="M4.3125 0L4.3125 0.05333333333333334" stroke="#FF0000" stroke-width="0.01" fill="none"/>
  <path d="M4.3125 0.0667L4.3125 0.12" stroke="#FF0000" stroke-width="0.01" fill="none"/>
  <path d="M4.3125 0.1333L4.3125 0.18666666666666668" stroke="#FF0000" stroke-width="0.01" fill="none"/>
  <path d="M4.3125 0.2L4.3125 0.25333333333333335" stroke="#FF0000" stroke-width="0.01" fill="none"/>
  <path d="M4.3125 0.2667L4.3125 0.32" stroke="#FF0000" stroke-width="0.01" fill="none"/>
  <path d="M4.3125 0.3333L4.3125 0.38666666666666666" stroke="#FF0000" stroke-width="0.01" fill="none"/>
  <path d="M4.3125 0.4L4.3125 0.45333333333333337" stroke="#FF0000" stroke-width="0.01" fill="none"/>
  <path d="M4.3125 0.4667L4.3125 0.52" stroke="#FF0000" stroke-width="0.01" fill="none"/>
  <path d="M4.3125 0.5333L4.3125 0.5866666666666667" stroke="#FF0000" stroke-width="0.01" fill="none"/>
  <path d="M4.3125 0.6L4.3125 0.6533333333333333" stroke="#FF0000" stroke-width="0.01" fill="none"/>
  <path d="M4.3125 0.6667L4.3125 0.72" stroke="#FF0000" stroke-width="0.01" fill="none"/>
  <path d="M4.3125 0.7333L4.3125 0.7866666666666666" stroke="#FF0000" stroke-width="0.01" fill="none"/>
  <path d="M4.3125 0.8L4.3125 0.8533333333333334" stroke="#FF0000" stroke-width="0.01" fill="none"/>
  <path d="M4.3125 0.8667L4.3125 0.92" stroke="#FF0000" stroke-width="0.01" fill="none"/>
  <path d="M4.3125 0.9333L4.3125 0.9866666666666667" stroke="#FF0000" stroke-width="0.01" fill="none"/>
  <path d="M4.3125 1L4.3125 1.0533333333333332" stroke="#FF0000" stroke-width="0.01" fill="none"/>
  <path d="M4.3125 1.0667L4.3125 1.1199999999999999" stroke="#FF0000" stroke-width="0.01" fill="none"/>
  <path d="M4.3125 1.1333L4.3125 1.1866666666666665" stroke="#FF0000" stroke-width="0.01" fill="none"/>
  <path d="M4.3125 1.2L4.3125 1.2533333333333332" stroke="#FF0000" stroke-width="0.01" fill="none"/>
  <path d="M4.3125 1.2667L4.3125 1.3199999999999998" stroke="#FF0000" stroke-width="0.01" fill="none"/>
  <path d="M4.3125 1.3333L4.3125 1.3866666666666665" stroke="#FF0000" stroke-width="0.01" fill="none"/>
  <path d="M4.3125 1.4L4.3125 1.4533333333333331" stroke="#FF0000" stroke-width="0.01" fill="none"/>
  <path d="M4.3125 1.4667L4.3125 1.5199999999999998" stroke="#FF0000" stroke-width="0.01" fill="none"/>
  <path d="M4.3125 1.5333L4.3125 1.5866666666666664" stroke="#FF0000" stroke-width="0.01" fill="none"/>
  <path d="M4.3125 1.6L4.3125 1.6533333333333333" stroke="#FF0000" stroke-width="0.01" fill="none"/>
  <path d="M4.3125 1.6667L4.3125 1.72" stroke="#FF0000" stroke-width="0.01" fill="none"/>
  <path d="M4.3125 1.7333L4.3125 1.7866666666666666" stroke="#FF0000" stroke-width="0.01" fill="none"/>
  <path d="M4.3125 1.8L4.3125 1.8533333333333333" stroke="#FF0000" stroke-width="0.01" fill="none"/>
  <path d="M4.3125 1.8667L4.3125 1.92" stroke="#FF0000" stroke-width="0.01" fill="none"/>
  <path d="M4.3125 1.9333L4.3125 1.9866666666666666" stroke="#FF0000" stroke-width="0.01" fill="none"/>
  <path d="M4.4375 0.0333L4.4375 0.08666666666666667" stroke="#FF0000" stroke-width="0.01" fill="none"/>
  <path d="M4.4375 0.1L4.4375 0.15333333333333335" stroke="#FF0000" stroke-width="0.01" fill="none"/>
  <path d="M4.4375 0.1667L4.4375 0.22" stroke="#FF0000" stroke-width="0.01" fill="none"/>
  <path d="M4.4375 0.2333L4.4375 0.2866666666666667" stroke="#FF0000" stroke-width="0.01" fill="none"/>
  <path d="M4.4375 0.3L4.4375 0.35333333333333333" stroke="#FF0000" stroke-width="0.01" fill="none"/>
  <path d="M4.4375 0.3667L4.4375 0.42" stroke="#FF0000" stroke-width="0.01" fill="none"/>
  <path d="M4.4375 0.4333L4.4375 0.4866666666666667" stroke="#FF0000" stroke-width="0.01" fill="none"/>
  <path d="M4.4375 0.5L4.4375 0.5533333333333333" stroke="#FF0000" stroke-width="0.01" fill="none"/>
  <path d="M4.4375 0.5667L4.4375 0.62" stroke="#FF0000" stroke-width="0.01" fill="none"/>
  <path d="M4.4375 0.6333L4.4375 0.6866666666666666" stroke="#FF0000" stroke-width="0.01" fill="none"/>
  <path d="M4.4375 0.7L4.4375 0.7533333333333333" stroke="#FF0000" stroke-width="0.01" fill="none"/>
  <path d="M4.4375 0.7667L4.4375 0.82" stroke="#FF0000" stroke-width="0.01" fill="none"/>
  <path d="M4.4375 0.8333L4.4375 0.8866666666666667" stroke="#FF0000" stroke-width="0.01" fill="none"/>
  <path d="M4.4375 0.9L4.4375 0.9533333333333334" stroke="#FF0000" stroke-width="0.01" fill="none"/>
  <path d="M4.4375 0.9667L4.4375 1.02" stroke="#FF0000" stroke-width="0.01" fill="none"/>
  <path d="M4.4375 1.0333L4.4375 1.0866666666666667" stroke="#FF0000" stroke-width="0.01" fill="none"/>
  <path d="M4.4375 1.1L4.4375 1.1533333333333333" stroke="#FF0000" stroke-width="0.01" fill="none"/>
  <path d="M4.4375 1.1667L4.4375 1.22" stroke="#FF0000" stroke-width="0.01" fill="none"/>
  <path d="M4.4375 1.2333L4.4375 1.2866666666666666" stroke="#FF0000" stroke-width="0.01" fill="none"/>
  <path d="M4.4375 1.3L4.4375 1.3533333333333333" stroke="#FF0000" stroke-width="0.01" fill="none"/>
  <path d="M4.4375 1.3667L4.4375 1.42" stroke="#FF0000" stroke-width="0.01" fill="none"/>
  <path d="M4.4375 1.4333L4.4375 1.4866666666666666" stroke="#FF0000" stroke-width="0.01" fill="none"/>
  <path d="M4.4375 1.5L4.4375 1.5533333333333332" stroke="#FF0000" stroke-width="0.01" fill="none"/>
  <path d="M4.4375 1.5667L4.4375 1.6199999999999999" stroke="#FF0000" stroke-width="0.01" fill="none"/>
  <path d="M4.4375 1.6333L4.4375 1.6866666666666668" stroke="#FF0000" stroke-width="0.01" fill="none"/>
  <path d="M4.4375 1.7L4.4375 1.7533333333333334" stroke="#FF0000" stroke-width="0.01" fill="none"/>
  <path d="M4.4375 1.7667L4.4375 1.82" stroke="#FF0000" stroke-width="0.01" fill="none"/>
  <path d="M4.4375 1.8333L4.4375 1.8866666666666667" stroke="#FF0000" stroke-width="0.01" fill="none"/>
  <path d="M4.4375 1.9L4.4375 1.9533333333333334" stroke="#FF0000" stroke-width="0.01" fill="none"/>
  <path d="M4.4375 1.9667L4.4375 2.02" stroke="#FF0000" stroke-width="0.01" fill="none"/>
  <path d="M4.5625 0L4.5625 0.05333333333333334" stroke="#FF0000" stroke-width="0.01" fill="none"/>
  <path d="M4.5625 0.0667L4.5625 0.12" stroke="#FF0000" stroke-width="0.01" fill="none"/>
  <path d="M4.5625 0.1333L4.5625 0.18666666666666668" stroke="#FF0000" stroke-width="0.01" fill="none"/>
  <path d="M4.5625 0.2L4.5625 0.25333333333333335" stroke="#FF0000" stroke-width="0.01" fill="none"/>
  <path d="M4.5625 0.2667L4.5625 0.32" stroke="#FF0000" stroke-width="0.01" fill="none"/>
  <path d="M4.5625 0.3333L4.5625 0.38666666666666666" stroke="#FF0000" stroke-width="0.01" fill="none"/>
  <path d="M4.5625 0.4L4.5625 0.45333333333333337" stroke="#FF0000" stroke-width="0.01" fill="none"/>
  <path d="M4.5625 0.4667L4.5625 0.52" stroke="#FF0000" stroke-width="0.01" fill="none"/>
  <path d="M4.5625 0.5333L4.5625 0.5866666666666667" stroke="#FF0000" stroke-width="0.01" fill="none"/>
  <path d="M4.5625 0.6L4.5625 0.6533333333333333" stroke="#FF0000" stroke-width="0.01" fill="none"/>
  <path d="M4.5625 0.6667L4.5625 0.72" stroke="#FF0000" stroke-width="0.01" fill="none"/>
  <path d="M4.5625 0.7333L4.5625 0.7866666666666666" stroke="#FF0000" stroke-width="0.01" fill="none"/>
  <path d="M4.5625 0.8L4.5625 0.8533333333333334" stroke="#FF0000" stroke-width="0.01" fill="none"/>
  <path d="M4.5625 0.8667L4.5625 0.92" stroke="#FF0000" stroke-width="0.01" fill="none"/>
  <path d="M4.5625 1L4.5625 1.0533333333333332" stroke="#FF0000" stroke-width="0.01" fill="none"/>
  <path d="M4.5625 1.0667L4.5625 1.1199999999999999" stroke="#FF0000" stroke-width="0.01" fill="none"/>
  <path d="M4.5625 1.1333L4.5625 1.1866666666666665" stroke="#FF0000" stroke-width="0.01" fill="none"/>
  <path d="M4.5625 1.2L4.5625 1.2533333333333332" stroke="#FF0000" stroke-width="0.01" fill="none"/>
  <path d="M4.5625 1.2667L4.5625 1.3199999999999998" stroke="#FF0000" stroke-width="0.01" fill="none"/>
  <path d="M4.5625 1.3333L4.5625 1.3866666666666665" stroke="#FF0000" stroke-width="0.01" fill="none"/>
  <path d="M4.5625 1.4L4.5625 1.4533333333333331" stroke="#FF0000" stroke-width="0.01" fill="none"/>
  <path d="M4.5625 1.4667L4.5625 1.5199999999999998" stroke="#FF0000" stroke-width="0.01" fill="none"/>
  <path d="M4.5625 1.5333L4.5625 1.5866666666666664" stroke="#FF0000" stroke-width="0.01" fill="none"/>
  <path d="M4.5625 1.6L4.5625 1.6533333333333333" stroke="#FF0000" stroke-width="0.01" fill="none"/>
  <path d="M4.5625 1.6667L4.5625 1.72" stroke="#FF0000" stroke-width="0.01" fill="none"/>
  <path d="M4.5625 1.7333L4.5625 1.7866666666666666" stroke="#FF0000" stroke-width="0.01" fill="none"/>
  <path d="M4.5625 1.8L4.5625 1.8533333333333333" stroke="#FF0000" stroke-width="0.01" fill="none"/>
  <path d="M4.5625 1.8667L4.5625 1.92" stroke="#FF0000" stroke-width="0.01" fill="none"/>
  <path d="M4.5625 1.9333L4.5625 1.9866666666666666" stroke="#FF0000" stroke-width="0.01" fill="none"/>
  <path d="M4.6875 0.0333L4.6875 0.08666666666666667" stroke="#FF0000" stroke-width="0.01" fill="none"/>
  <path d="M4.6875 0.1L4.6875 0.15333333333333335" stroke="#FF0000" stroke-width="0.01" fill="none"/>
  <path d="M4.6875 0.1667L4.6875 0.22" stroke="#FF0000" stroke-width="0.01" fill="none"/>
  <path d="M4.6875 0.2333L4.6875 0.2866666666666667" stroke="#FF0000" stroke-width="0.01" fill="none"/>
  <path d="M4.6875 0.3L4.6875 0.35333333333333333" stroke="#FF0000" stroke-width="0.01" fill="none"/>
  <path d="M4.6875 0.3667L4.6875 0.42" stroke="#FF0000" stroke-width="0.01" fill="none"/>
  <path d="M4.6875 0.4333L4.6875 0.4866666666666667" stroke="#FF0000" stroke-width="0.01" fill="none"/>
  <path d="M4.6875 0.5L4.6875 0.5533333333333333" stroke="#FF0000" stroke-width="0.01" fill="none"/>
  <path d="M4.6875 0.5667L4.6875 0.62" stroke="#FF0000" stroke-width="0.01" fill="none"/>
  <path d="M4.6875 0.6333L4.6875 0.6866666666666666" stroke="#FF0000" stroke-width="0.01" fill="none"/>
  <path d="M4.6875 0.7L4.6875 0.7533333333333333" stroke="#FF0000" stroke-width="0.01" fill="none"/>
  <path d="M4.6875 0.7667L4.6875 0.82" stroke="#FF0000" stroke-width="0.01" fill="none"/>
  <path d="M4.6875 1.1667L4.6875 1.22" stroke="#FF0000" stroke-width="0.01" fill="none"/>
  <path d="M4.6875 1.2333L4.6875 1.2866666666666666" stroke="#FF0000" stroke-width="0.01" fill="none"/>
  <path d="M4.6875 1.3L4.6875 1.3533333333333333" stroke="#FF0000" stroke-width="0.01" fill="none"/>
  <path d="M4.6875 1.3667L4.6875 1.42" stroke="#FF0000" stroke-width="0.01" fill="none"/>
  <path d="M4.6875 1.4333L4.6875 1.4866666666666666" stroke="#FF0000" stroke-width="0.01" fill="none"/>
  <path d="M4.6875 1.5L4.6875 1.5533333333333332" stroke="#FF0000" stroke-width="0.01" fill="none"/>
  <path d="M4.6875 1.5667L4.6875 1.6199999999999999" stroke="#FF0000" stroke-width="0.01" fill="none"/>
  <path d="M4.6875 1.6333L4.6875 1.6866666666666668" stroke="#FF0000" stroke-width="0.01" fill="none"/>
  <path d="M4.6875 1.7L4.6875 1.7533333333333334" stroke="#FF0000" stroke-width="0.01" fill="none"/>
  <path d="M4.6875 1.7667L4.6875 1.82" stroke="#FF0000" stroke-width="0.01" fill="none"/>
  <path d="M4.6875 1.8333L4.6875 1.8866666666666667" stroke="#FF0000" stroke-width="0.01" fill="none"/>
  <path d="M4.6875 1.9L4.6875 1.9533333333333334" stroke="#FF0000" stroke-width="0.01" fill="none"/>
  <path d="M4.6875 1.9667L4.6875 2.02" stroke="#FF0000" stroke-width="0.01" fill="none"/>
  <path d="M4.8125 0L4.8125 0.05333333333333334" stroke="#FF0000" stroke-width="0.01" fill="none"/>
  <path d="M4.8125 0.0667L4.8125 0.12" stroke="#FF0000" stroke-width="0.01" fill="none"/>
  <path d="M4.8125 0.1333L4.8125 0.18666666666666668" stroke="#FF0000" stroke-width="0.01" fill="none"/>
  <path d="M4.8125 0.2L4.8125 0.25333333333333335" stroke="#FF0000" stroke-width="0.01" fill="none"/>
  <path d="M4.8125 0.2667L4.8125 0.32" stroke="#FF0000" stroke-width="0.01" fill="none"/>
  <path d="M4.8125 0.3333L4.8125 0.38666666666666666" stroke="#FF0000" stroke-width="0.01" fill="none"/>
  <path d="M4.8125 0.4L4.8125 0.45333333333333337" stroke="#FF0000" stroke-width="0.01" fill="none"/>
  <path d="M4.8125 0.4667L4.8125 0.52" stroke="#FF0000" stroke-width="0.01" fill="none"/>
  <path d="M4.8125 0.5333L4.8125 0.5866666666666667" stroke="#FF0000" stroke-width="0.01" fill="none"/>
  <path d="M4.8125 0.6L4.8125 0.6533333333333333" stroke="#FF0000" stroke-width="0.01" fill="none"/>
  <path d="M4.8125 0.6667L4.8125 0.72" stroke="#FF0000" stroke-width="0.01" fill="none"/>
  <path d="M4.8125 0.7333L4.8125 0.7866666666666666" stroke="#FF0000" stroke-width="0.01" fill="none"/>
  <path d="M4.8125 0.8L4.8125 0.8533333333333334" stroke="#FF0000" stroke-width="0.01" fill="none"/>
  <path d="M4.8125 0.8667L4.8125 0.92" stroke="#FF0000" stroke-width="0.01" fill="none"/>
  <path d="M4.8125 0.9333L4.8125 0.9866666666666667" stroke="#FF0000" stroke-width="0.01" fill="none"/>
  <path d="M4.8125 1L4.8125 1.0533333333333332" stroke="#FF0000" stroke-width="0.01" fill="none"/>
  <path d="M4.8125 1.0667L4.8125 1.1199999999999999" stroke="#FF0000" stroke-width="0.01" fill="none"/>
  <path d="M4.8125 1.2L4.8125 1.2533333333333332" stroke="#FF0000" stroke-width="0.01" fill="none"/>
  <path d="M4.8125 1.2667L4.8125 1.3199999999999998" stroke="#FF0000" stroke-width="0.01" fill="none"/>
  <path d="M4.8125 1.3333L4.8125 1.3866666666666665" stroke="#FF0000" stroke-width="0.01" fill="none"/>
  <path d="M4.8125 1.4L4.8125 1.4533333333333331" stroke="#FF0000" stroke-width="0.01" fill="none"/>
  <path d="M4.8125 1.4667L4.8125 1.5199999999999998" stroke="#FF0000" stroke-width="0.01" fill="none"/>
  <path d="M4.8125 1.5333L4.8125 1.5866666666666664" stroke="#FF0000" stroke-width="0.01" fill="none"/>
  <path d="M4.8125 1.6L4.8125 1.6533333333333333" stroke="#FF0000" stroke-width="0.01" fill="none"/>
  <path d="M4.8125 1.6667L4.8125 1.72" stroke="#FF0000" stroke-width="0.01" fill="none"/>
  <path d="M4.8125 1.7333L4.8125 1.7866666666666666" stroke="#FF0000" stroke-width="0.01" fill="none"/>
  <path d="M4.8125 1.8L4.8125 1.8533333333333333" stroke="#FF0000" stroke-width="0.01" fill="none"/>
  <path d="M4.8125 1.8667L4.8125 1.92" stroke="#FF0000" stroke-width="0.01" fill="none"/>
  <path d="M4.8125 1.9333L4.8125 1.9866666666666666" stroke="#FF0000" stroke-width="0.01" fill="none"/>
  <path d="M4.9375 0.0333L4.9375 0.08666666666666667" stroke="#FF0000" stroke-width="0.01" fill="none"/>
  <path d="M4.9375 0.1L4.9375 0.15333333333333335" stroke="#FF0000" stroke-width="0.01" fill="none"/>
  <path d="M4.9375 0.1667L4.9375 0.22" stroke="#FF0000" stroke-width="0.01" fill="none"/>
  <path d="M4.9375 0.2333L4.9375 0.2866666666666667" stroke="#FF0000" stroke-width="0.01" fill="none"/>
  <path d="M4.9375 0.3L4.9375 0.35333333333333333" stroke="#FF0000" stroke-width="0.01" fill="none"/>
  <path d="M4.9375 0.3667L4.9375 0.42" stroke="#FF0000" stroke-width="0.01" fill="none"/>
  <path d="M4.9375 0.4333L4.9375 0.4866666666666667" stroke="#FF0000" stroke-width="0.01" fill="none"/>
  <path d="M4.9375 0.5L4.9375 0.5533333333333333" stroke="#FF0000" stroke-width="0.01" fill="none"/>
  <path d="M4.9375 0.5667L4.9375 0.62" stroke="#FF0000" stroke-width="0.01" fill="none"/>
  <path d="M4.9375 0.6333L4.9375 0.6866666666666666" stroke="#FF0000" stroke-width="0.01" fill="none"/>
  <path d="M4.9375 0.7L4.9375 0.7533333333333333" stroke="#FF0000" stroke-width="0.01" fill="none"/>
  <path d="M4.9375 0.7667L4.9375 0.82" stroke="#FF0000" stroke-width="0.01" fill="none"/>
  <path d="M4.9375 0.8333L4.9375 0.8866666666666667" stroke="#FF0000" stroke-width="0.01" fill="none"/>
  <path d="M4.9375 0.9L4.9375 0.9533333333333334" stroke="#FF0000" stroke-width="0.01" fill="none"/>
  <path d="M4.9375 0.9667L4.9375 1.02" stroke="#FF0000" stroke-width="0.01" fill="none"/>
  <path d="M4.9375 1.0333L4.9375 1.0866666666666667" stroke="#FF0000" stroke-width="0.01" fill="none"/>
  <path d="M4.9375 1.1667L4.9375 1.22" stroke="#FF0000" stroke-width="0.01" fill="none"/>
  <path d="M4.9375 1.2333L4.9375 1.2866666666666666" stroke="#FF0000" stroke-width="0.01" fill="none"/>
  <path d="M4.9375 1.3L4.9375 1.3533333333333333" stroke="#FF0000" stroke-width="0.01" fill="none"/>
  <path d="M4.9375 1.3667L4.9375 1.42" stroke="#FF0000" stroke-width="0.01" fill="none"/>
  <path d="M4.9375 1.4333L4.9375 1.4866666666666666" stroke="#FF0000" stroke-width="0.01" fill="none"/>
  <path d="M4.9375 1.5L4.9375 1.5533333333333332" stroke="#FF0000" stroke-width="0.01" fill="none"/>
  <path d="M4.9375 1.5667L4.9375 1.6199999999999999" stroke="#FF0000" stroke-width="0.01" fill="none"/>
  <path d="M4.9375 1.6333L4.9375 1.6866666666666668" stroke="#FF0000" stroke-width="0.01" fill="none"/>
  <path d="M4.9375 1.7L4.9375 1.7533333333333334" stroke="#FF0000" stroke-width="0.01" fill="none"/>
  <path d="M4.9375 1.7667L4.9375 1.82" stroke="#FF0000" stroke-width="0.01" fill="none"/>
  <path d="M4.9375 1.8333L4.9375 1.8866666666666667" stroke="#FF0000" stroke-width="0.01" fill="none"/>
  <path d="M4.9375 1.9L4.9375 1.9533333333333334" stroke="#FF0000" stroke-width="0.01" fill="none"/>
  <path d="M4.9375 1.9667L4.9375 2.02" stroke="#FF0000" stroke-width="0.01" fill="none"/>
  <path d="M4.2088 1.0592C4.208 1.0389 4.2008 1.0217 4.1872 1.0076C4.1755 0.9956 4.1605 0.9868 4.1424 0.9812C4.1696 0.9681 4.1823 0.9428 4.1804 0.9052C4.1796 0.8844 4.1695 0.8674 4.15 0.8544C4.1335 0.8432 4.1151 0.8372 4.0948 0.8364C4.0871 0.8361 4.0795 0.836 4.072 0.836C4.0485 0.836 4.0295 0.837 4.0148 0.8392L4.0144 0.8391555555555555L4.0144 0.8391555555555555L4.0144 0.8391555555555555L4.0144 1.1587555555555555L4.0148 1.1587555555555555L4.0148 1.1587555555555555C4.0428 1.163 4.0704 1.1649 4.0976 1.1644C4.1429 1.163 4.1741 1.1517 4.1912 1.1304C4.2043 1.1141 4.2101 1.0904 4.2088 1.0592L4.2088 1.0591555555555556ZM4.09 1.144C4.0745 1.1442 4.056 1.1434 4.0344 1.1416L4.0344 0.9947555555555555L4.106 0.9947555555555555C4.126 0.9948 4.1441 1.0001 4.1604 1.0108C4.1793 1.0233 4.1893 1.0398 4.1904 1.0604C4.1915 1.0854 4.1861 1.1042 4.1744 1.1168C4.1589 1.1338 4.1308 1.1429 4.09 1.144L4.09 1.1439555555555556ZM4.0848 0.854C4.1029 0.8545 4.1193 0.8592 4.134 0.868C4.1513 0.8781 4.1604 0.891 4.1612 0.9068C4.1636 0.9521 4.1355 0.9748 4.0768 0.9748L4.0344 0.9747555555555556L4.0344 0.8543555555555555C4.0501 0.8536 4.0669 0.8534 4.0848 0.854ZM4.2788 0.8596L4.4192 0.8595555555555555L4.4192 0.8395555555555555L4.2788 0.8395555555555555L4.2788 0.8395555555555555L4.2588 0.8395555555555555L4.2588 1.1587555555555555L4.4188 1.1587555555555555L4.4188 1.1391555555555555L4.2788 1.1395555555555554L4.2788 1.0335555555555556L4.2788 1.0335555555555556L4.2788 1.0335555555555556L4.2788 0.9947555555555555L4.4192 0.9947555555555555L4.4192 0.9747555555555556L4.2788 0.9747555555555556L4.2788 0.8595555555555555ZM4.6776 0.8384L4.6776 1.1207555555555555L4.502800000000001 0.8383555555555555L4.502800000000001 0.8383555555555555L4.502800000000001 0.8383555555555555L4.4828 0.8383555555555555L4.4828 1.1583555555555556L4.502800000000001 1.1583555555555556L4.502800000000001 0.8763555555555556L4.6772 1.1583555555555556L4.6776 1.1583555555555556L4.6776 1.1583555555555556L4.6972000000000005 1.1583555555555556L4.6976 0.8383555555555555L4.6776 0.8383555555555555ZM4.9852 0.9852C4.9836 0.947 4.9761 0.9172 4.9628 0.8956C4.9545 0.882 4.9415 0.869 4.9236 0.8568C4.9028 0.8426 4.8731 0.8356 4.8344 0.8356C4.8299 0.8356 4.8207 0.836 4.8068 0.837C4.7929 0.8379 4.7829 0.8384 4.7768 0.8384L4.7708 0.8383555555555555L4.7708 1.1587555555555555L4.7712 1.1587555555555555L4.7712 1.1587555555555555C4.796 1.1609 4.8171 1.162 4.8344 1.162C4.8723 1.162 4.902 1.1549 4.9236 1.1408C4.9407 1.1296 4.9537 1.1164 4.9628 1.1012C4.9759 1.0788 4.9833 1.0492 4.9852 1.0124C4.9855 1.0062 4.9856 1.0017 4.9856 0.9988C4.9856 0.9958 4.9855 0.9913 4.9852 0.9852ZM4.9648 1.0088C4.9624 1.045 4.9552 1.0729 4.9432 1.0924C4.936 1.1041 4.9245 1.1152 4.9088 1.1256C4.8912 1.137 4.8679 1.1428 4.8388 1.1428C4.8284 1.1428 4.8124 1.1421 4.7908 1.1408L4.7908 1.0331555555555556L4.7908 1.0331555555555556L4.7908 1.0331555555555556L4.7908 0.8571555555555554C4.8124 0.8556 4.8284 0.8548 4.8388 0.8548C4.8692 0.8548 4.8927 0.8605 4.9092 0.872C4.9249 0.8826 4.9364 0.8938 4.9436 0.9056C4.9553 0.925 4.9624 0.9528 4.9648 0.9888L4.9648 0.9987555555555555L4.9648 1.0087555555555556Z" stroke="#FF0000" stroke-width="0.01" fill="none"/>
  <path d="M-0.2 -0.2L9.2 -0.2L9.2 2.22L-0.2 2.22Z" stroke="none" fill="none"/>
</svg>
