<svg xmlns="http://www.w3.org/2000/svg" viewBox="-2.16 -5.95 9.17 6.45">
  <path d="M-2.16 -5.95L7.009452631578948 -5.9533000000000005L7.009452631578948 0.5L-2.162 0.5Z" stroke="none" fill="#F2F2F7"/>
  <path d="M-0.86 -0.87L-0.5794736842105261 -0.8720000000000001L-0.5794736842105261 -0.9120000000000001L-0.8602736842105263 -0.9120000000000001L-0.8602736842105263 -0.9120000000000001L-0.9002736842105263 -0.9120000000000001L-0.9002736842105263 -0.2736L-0.8602736842105263 -0.2736L-0.8602736842105263 -0.524L-0.8602736842105263 -0.524L-0.8602736842105263 -0.524L-0.8602736842105263 -0.6016L-0.5794736842105261 -0.6016L-0.5794736842105261 -0.6416L-0.8602736842105263 -0.6416L-0.8602736842105263 -0.8720000000000001ZM-0.46 -0.27L-0.42107368421052627 -0.272L-0.42107368421052627 -1.0088000000000001L-0.4610736842105263 -1.0088000000000001L-0.4610736842105263 -0.272ZM-0.25 -0.74L-0.25387368421052603 -0.2728L-0.213873684210526 -0.2728L-0.213873684210526 -0.7368L-0.25387368421052603 -0.7368ZM-0.21 -0.85L-0.25387368421052603 -0.8544L-0.25387368421052603 -0.8144L-0.213873684210526 -0.8144L-0.213873684210526 -0.8544ZM0.15 -0.75C0.09 -0.75 0.04 -0.73 -0.01 -0.69C-0.05 -0.65 -0.08 -0.6 -0.09 -0.53C-0.1 -0.52 -0.1 -0.5 -0.1 -0.49C-0.1 -0.43 -0.08 -0.37 -0.05 -0.33C-0.01 -0.28 0.04 -0.26 0.1 -0.26C0.14 -0.26 0.19 -0.27 0.22 -0.31C0.24 -0.32 0.26 -0.34 0.27 -0.35L0.2677263157894738 -0.3264L0.2677263157894738 -0.3264L0.2677263157894738 -0.3264L0.2677263157894738 -0.268L0.2677263157894738 -0.2424C0.27 -0.17 0.25 -0.11 0.21 -0.08C0.18 -0.05 0.14 -0.04 0.09 -0.04C0.06 -0.04 0.03 -0.04 -0.01 -0.05L-0.018673684210526176 -0.009599999999999997C0.02 0 0.05 0 0.08 0C0.1 0 0.11 0 0.13 0C0.17 -0.01 0.2 -0.02 0.23 -0.05C0.28 -0.09 0.31 -0.16 0.31 -0.24C0.31 -0.28 0.31 -0.32 0.31 -0.36L0.30772631578947385 -0.7352000000000001C0.25 -0.74 0.19 -0.75 0.15 -0.75ZM0.27 -0.49C0.27 -0.43 0.25 -0.38 0.2 -0.34C0.17 -0.31 0.13 -0.3 0.09 -0.3C0.04 -0.3 0 -0.33 -0.03 -0.38C-0.05 -0.41 -0.05 -0.44 -0.05 -0.48C-0.05 -0.52 -0.05 -0.55 -0.04 -0.58C-0.02 -0.62 -0.01 -0.64 0.02 -0.66C0.05 -0.69 0.09 -0.71 0.14 -0.71C0.16 -0.71 0.2 -0.7 0.27 -0.7C0.27 -0.69 0.27 -0.62 0.27 -0.49ZM0.83 -0.66C0.81 -0.69 0.8 -0.71 0.78 -0.72C0.76 -0.73 0.73 -0.74 0.69 -0.75C0.68 -0.75 0.67 -0.75 0.67 -0.75C0.63 -0.75 0.6 -0.74 0.57 -0.72C0.54 -0.71 0.51 -0.68 0.49 -0.65L0.49412631578947397 -1.0096L0.45412631578947393 -1.0096L0.45412631578947393 -0.2728L0.49412631578947397 -0.2728L0.49412631578947397 -0.5264C0.49 -0.58 0.52 -0.63 0.56 -0.66C0.59 -0.69 0.63 -0.71 0.67 -0.71C0.67 -0.71 0.68 -0.71 0.69 -0.71C0.71 -0.7 0.74 -0.7 0.75 -0.69C0.77 -0.68 0.78 -0.66 0.79 -0.64C0.81 -0.61 0.82 -0.57 0.82 -0.52L0.8165263157894738 -0.5232L0.8165263157894738 -0.2736L0.8581263157894738 -0.2736L0.8581263157894738 -0.5232L0.8581263157894738 -0.5232C0.86 -0.58 0.85 -0.63 0.83 -0.66ZM1.08 -0.32C1.06 -0.33 1.05 -0.35 1.05 -0.39C1.05 -0.4 1.05 -0.43 1.05 -0.5C1.04 -0.56 1.04 -0.63 1.05 -0.7L1.1485263157894738 -0.696L1.1485263157894738 -0.736L1.0453263157894739 -0.736L1.0453263157894739 -0.8136000000000001L1.0053263157894738 -0.8136000000000001L1.0053263157894738 -0.736L0.9381263157894739 -0.736L0.9381263157894739 -0.696L1.0053263157894738 -0.696C1 -0.63 1 -0.56 1.01 -0.49C1.01 -0.43 1.01 -0.38 1.01 -0.37C1.01 -0.33 1.03 -0.31 1.05 -0.29C1.06 -0.28 1.08 -0.27 1.1 -0.27C1.11 -0.27 1.13 -0.27 1.16 -0.27L1.161326315789474 -0.3024C1.12 -0.3 1.09 -0.31 1.08 -0.32ZM2.18 -0.62C2.18 -0.7 2.16 -0.76 2.13 -0.8C2.12 -0.83 2.09 -0.85 2.06 -0.88C2.01 -0.91 1.95 -0.92 1.88 -0.92C1.87 -0.92 1.85 -0.92 1.82 -0.92C1.79 -0.92 1.77 -0.91 1.76 -0.91L1.750126315789474 -0.9144000000000001L1.750126315789474 -0.2736L1.7509263157894739 -0.2736L1.7509263157894739 -0.2736C1.8 -0.27 1.84 -0.27 1.88 -0.27C1.95 -0.27 2.01 -0.28 2.06 -0.31C2.09 -0.33 2.12 -0.36 2.13 -0.39C2.16 -0.43 2.18 -0.49 2.18 -0.57C2.18 -0.58 2.18 -0.59 2.18 -0.59C2.18 -0.6 2.18 -0.61 2.18 -0.62ZM2.14 -0.57C2.13 -0.5 2.12 -0.45 2.09 -0.41C2.08 -0.38 2.06 -0.36 2.03 -0.34C1.99 -0.32 1.94 -0.31 1.89 -0.31C1.87 -0.31 1.83 -0.31 1.79 -0.31L1.790126315789474 -0.5248L1.790126315789474 -0.5248L1.790126315789474 -0.5248L1.790126315789474 -0.8768C1.83 -0.88 1.87 -0.88 1.89 -0.88C1.95 -0.88 1.99 -0.87 2.03 -0.85C2.06 -0.83 2.08 -0.8 2.1 -0.78C2.12 -0.74 2.13 -0.69 2.14 -0.61L2.138126315789474 -0.5936L2.138126315789474 -0.5736ZM2.51 -0.74C2.45 -0.75 2.39 -0.73 2.35 -0.69C2.31 -0.65 2.28 -0.6 2.27 -0.53C2.26 -0.52 2.26 -0.5 2.26 -0.48C2.26 -0.43 2.28 -0.37 2.31 -0.33C2.35 -0.28 2.4 -0.26 2.45 -0.26C2.5 -0.26 2.54 -0.27 2.58 -0.31C2.6 -0.32 2.61 -0.34 2.62 -0.35L2.624526315789474 -0.3256L2.624526315789474 -0.3256L2.624526315789474 -0.3256L2.624526315789474 -0.2736L2.664526315789474 -0.2736L2.664526315789474 -0.732C2.6 -0.74 2.55 -0.74 2.51 -0.74ZM2.62 -0.49C2.62 -0.43 2.6 -0.38 2.56 -0.34C2.53 -0.31 2.49 -0.3 2.45 -0.3C2.4 -0.3 2.36 -0.32 2.33 -0.38C2.31 -0.41 2.3 -0.44 2.3 -0.48C2.3 -0.52 2.31 -0.55 2.32 -0.58C2.33 -0.61 2.35 -0.64 2.37 -0.66C2.41 -0.69 2.45 -0.71 2.5 -0.7C2.51 -0.7 2.56 -0.7 2.62 -0.7L2.624526315789474 -0.4912ZM2.87 -0.54C2.82 -0.57 2.79 -0.6 2.79 -0.62C2.79 -0.63 2.79 -0.63 2.79 -0.64C2.8 -0.68 2.83 -0.71 2.87 -0.71C2.88 -0.71 2.89 -0.7 2.9 -0.7C2.92 -0.7 2.94 -0.7 2.95 -0.69C2.96 -0.68 2.97 -0.67 2.99 -0.66L2.993326315789474 -0.6944C2.96 -0.73 2.92 -0.74 2.87 -0.74C2.8 -0.74 2.76 -0.71 2.75 -0.65C2.75 -0.64 2.75 -0.64 2.75 -0.63C2.75 -0.59 2.77 -0.56 2.8 -0.53C2.84 -0.51 2.87 -0.49 2.9 -0.47C2.94 -0.44 2.96 -0.41 2.96 -0.38C2.96 -0.38 2.96 -0.37 2.96 -0.37C2.95 -0.32 2.92 -0.29 2.87 -0.29C2.83 -0.29 2.79 -0.31 2.75 -0.34L2.751726315789474 -0.2944C2.77 -0.28 2.8 -0.27 2.83 -0.26C2.85 -0.26 2.86 -0.26 2.87 -0.26C2.9 -0.26 2.93 -0.27 2.95 -0.28C2.98 -0.3 2.99 -0.32 3 -0.36C3 -0.37 3 -0.38 3 -0.39C3 -0.41 2.99 -0.44 2.97 -0.46C2.95 -0.48 2.92 -0.51 2.87 -0.54ZM3.48 -0.66C3.47 -0.69 3.45 -0.71 3.43 -0.72C3.41 -0.73 3.38 -0.74 3.35 -0.75C3.34 -0.75 3.33 -0.75 3.32 -0.75C3.29 -0.75 3.25 -0.74 3.22 -0.72C3.19 -0.71 3.17 -0.68 3.15 -0.65L3.149326315789474 -1.0096L3.109326315789474 -1.0096L3.109326315789474 -0.2728L3.149326315789474 -0.2728L3.149326315789474 -0.5264C3.15 -0.58 3.17 -0.63 3.21 -0.66C3.25 -0.69 3.28 -0.71 3.32 -0.71C3.33 -0.71 3.34 -0.71 3.34 -0.71C3.37 -0.7 3.39 -0.7 3.41 -0.69C3.42 -0.68 3.43 -0.66 3.45 -0.64C3.46 -0.61 3.47 -0.57 3.47 -0.52L3.471726315789474 -0.5232L3.471726315789474 -0.2736L3.513326315789474 -0.2736L3.513326315789474 -0.5232L3.513326315789474 -0.5232C3.51 -0.58 3.5 -0.63 3.48 -0.66ZM4.01 -0.52L4.010126315789474 -0.532C4.01 -0.59 3.99 -0.63 3.96 -0.67C3.93 -0.71 3.89 -0.73 3.84 -0.74C3.82 -0.74 3.8 -0.74 3.78 -0.74C3.75 -0.74 3.71 -0.74 3.66 -0.74L3.6597263157894737 -1.0056L3.6197263157894737 -1.0056L3.6197263157894737 -0.2728L3.6197263157894737 -0.2728L3.6197263157894737 -0.2728C3.68 -0.27 3.73 -0.26 3.78 -0.26C3.83 -0.26 3.88 -0.27 3.93 -0.31C3.98 -0.35 4 -0.41 4.01 -0.49C4.01 -0.49 4.01 -0.49 4.01 -0.5C4.01 -0.51 4.01 -0.52 4.01 -0.52ZM3.97 -0.5C3.97 -0.49 3.97 -0.49 3.97 -0.48C3.96 -0.42 3.94 -0.37 3.91 -0.34C3.87 -0.31 3.83 -0.3 3.79 -0.3C3.77 -0.3 3.73 -0.3 3.66 -0.31L3.6597263157894737 -0.48560000000000003L3.6597263157894737 -0.48560000000000003L3.6597263157894737 -0.4912L3.6597263157894737 -0.5136000000000001L3.6597263157894737 -0.5192L3.6597263157894737 -0.5192L3.6597263157894737 -0.6968000000000001C3.71 -0.7 3.75 -0.7 3.79 -0.7C3.84 -0.71 3.88 -0.7 3.91 -0.66C3.95 -0.63 3.97 -0.59 3.97 -0.53L3.9693263157894743 -0.5008ZM4.3 -0.75C4.24 -0.75 4.19 -0.72 4.15 -0.67C4.11 -0.63 4.08 -0.57 4.08 -0.5C4.08 -0.43 4.1 -0.37 4.14 -0.33C4.18 -0.28 4.23 -0.26 4.3 -0.26C4.36 -0.26 4.42 -0.28 4.45 -0.33C4.49 -0.37 4.51 -0.43 4.51 -0.5C4.51 -0.57 4.49 -0.63 4.45 -0.67C4.4 -0.72 4.35 -0.75 4.3 -0.75ZM4.3 -0.3C4.25 -0.3 4.2 -0.32 4.17 -0.36C4.14 -0.39 4.13 -0.44 4.13 -0.5C4.13 -0.56 4.14 -0.61 4.18 -0.65C4.21 -0.69 4.25 -0.71 4.3 -0.71C4.34 -0.71 4.38 -0.69 4.42 -0.65C4.45 -0.61 4.47 -0.56 4.47 -0.5C4.47 -0.44 4.45 -0.39 4.42 -0.36C4.39 -0.32 4.35 -0.3 4.3 -0.3ZM4.83 -0.74C4.77 -0.75 4.72 -0.73 4.68 -0.69C4.63 -0.65 4.6 -0.6 4.59 -0.53C4.59 -0.52 4.59 -0.5 4.59 -0.48C4.59 -0.43 4.6 -0.37 4.64 -0.33C4.67 -0.28 4.72 -0.26 4.78 -0.26C4.83 -0.26 4.87 -0.27 4.91 -0.31C4.93 -0.32 4.94 -0.34 4.95 -0.35L4.950126315789474 -0.3256L4.950126315789474 -0.3256L4.950126315789474 -0.3256L4.950126315789474 -0.2736L4.990126315789475 -0.2736L4.990126315789475 -0.732C4.93 -0.74 4.88 -0.74 4.83 -0.74ZM4.95 -0.49C4.95 -0.43 4.93 -0.38 4.89 -0.34C4.85 -0.31 4.82 -0.3 4.78 -0.3C4.73 -0.3 4.69 -0.32 4.65 -0.38C4.64 -0.41 4.63 -0.44 4.63 -0.48C4.63 -0.52 4.64 -0.55 4.65 -0.58C4.66 -0.61 4.68 -0.64 4.7 -0.66C4.74 -0.69 4.78 -0.71 4.82 -0.7C4.84 -0.7 4.88 -0.7 4.95 -0.7L4.950126315789474 -0.4912ZM5.2 -0.69C5.18 -0.68 5.17 -0.66 5.15 -0.63L5.151726315789475 -0.736L5.111726315789474 -0.736L5.111726315789474 -0.2736L5.151726315789475 -0.2736L5.151726315789475 -0.4912C5.15 -0.5 5.15 -0.51 5.16 -0.53C5.17 -0.59 5.19 -0.63 5.22 -0.66C5.24 -0.68 5.26 -0.69 5.28 -0.7L5.2821263157894744 -0.7368C5.25 -0.73 5.22 -0.71 5.2 -0.69ZM5.71 -1.01L5.708526315789474 -0.736C5.66 -0.74 5.62 -0.74 5.59 -0.74C5.53 -0.74 5.47 -0.73 5.43 -0.69C5.39 -0.65 5.36 -0.6 5.35 -0.53C5.35 -0.52 5.35 -0.5 5.35 -0.48C5.35 -0.43 5.36 -0.37 5.4 -0.33C5.43 -0.28 5.48 -0.26 5.54 -0.26C5.58 -0.26 5.63 -0.27 5.66 -0.31C5.68 -0.32 5.7 -0.34 5.71 -0.35L5.708526315789474 -0.3256L5.708526315789474 -0.3256L5.708526315789474 -0.3256L5.708526315789474 -0.2736L5.747726315789475 -0.2736L5.747726315789475 -1.0056L5.708526315789474 -1.0056ZM5.71 -0.49C5.71 -0.43 5.69 -0.38 5.64 -0.34C5.61 -0.31 5.57 -0.3 5.53 -0.3C5.49 -0.3 5.44 -0.32 5.41 -0.38C5.4 -0.41 5.39 -0.44 5.39 -0.48C5.39 -0.52 5.39 -0.55 5.4 -0.58C5.42 -0.61 5.43 -0.64 5.46 -0.66C5.49 -0.69 5.54 -0.71 5.58 -0.7C5.6 -0.7 5.64 -0.7 5.71 -0.7C5.71 -0.68 5.71 -0.61 5.71 -0.49Z" stroke="none" fill="#1A1A33"/>
  <path d="M0.72 -1.22C0.73 -1.23 0.74 -1.24 0.75 -1.26C0.75 -1.26 0.75 -1.27 0.75 -1.27C0.75 -1.28 0.74 -1.3 0.73 -1.31C0.73 -1.31 0.71 -1.33 0.68 -1.35C0.66 -1.36 0.65 -1.37 0.65 -1.38C0.64 -1.38 0.64 -1.39 0.64 -1.4C0.64 -1.4 0.64 -1.4 0.64 -1.41C0.64 -1.42 0.65 -1.43 0.66 -1.44C0.67 -1.44 0.67 -1.44 0.68 -1.44C0.69 -1.44 0.69 -1.44 0.7 -1.44C0.71 -1.44 0.72 -1.43 0.74 -1.42L0.7357763157894741 -1.4399000000000002C0.72 -1.45 0.71 -1.45 0.7 -1.46C0.7 -1.46 0.69 -1.46 0.68 -1.46C0.67 -1.46 0.66 -1.45 0.65 -1.45C0.64 -1.44 0.63 -1.43 0.62 -1.41C0.62 -1.4 0.62 -1.4 0.62 -1.4C0.62 -1.38 0.63 -1.37 0.64 -1.36C0.64 -1.36 0.66 -1.35 0.68 -1.33C0.7 -1.32 0.71 -1.31 0.71 -1.3C0.73 -1.29 0.73 -1.28 0.73 -1.27C0.73 -1.27 0.73 -1.27 0.73 -1.26C0.72 -1.24 0.71 -1.22 0.68 -1.22C0.68 -1.22 0.67 -1.23 0.67 -1.23C0.65 -1.23 0.64 -1.24 0.62 -1.25L0.621776315789474 -1.2302000000000002C0.63 -1.22 0.65 -1.22 0.66 -1.21C0.67 -1.21 0.67 -1.21 0.68 -1.21C0.7 -1.21 0.71 -1.21 0.72 -1.22ZM0.9 -1.39L0.8470763157894741 -1.2365000000000002L0.7924763157894741 -1.3871000000000002L0.7765763157894741 -1.3871000000000002L0.839276315789474 -1.2140000000000002L0.815576315789474 -1.1462C0.81 -1.14 0.81 -1.14 0.81 -1.13C0.8 -1.13 0.79 -1.12 0.78 -1.12L0.7843763157894741 -1.1096000000000001C0.8 -1.11 0.81 -1.12 0.82 -1.12C0.82 -1.13 0.83 -1.13 0.83 -1.14L0.829076315789474 -1.1402L0.829376315789474 -1.1402C0.83 -1.14 0.83 -1.14 0.83 -1.14L0.915776315789474 -1.3871000000000002L0.900176315789474 -1.3871000000000002ZM0.98 -1.31C0.96 -1.32 0.95 -1.34 0.95 -1.35C0.95 -1.35 0.95 -1.35 0.95 -1.35C0.96 -1.37 0.97 -1.38 0.98 -1.38C0.99 -1.38 0.99 -1.38 0.99 -1.38C1 -1.37 1.01 -1.37 1.01 -1.37C1.01 -1.37 1.02 -1.36 1.03 -1.36L1.027076315789474 -1.3718000000000001C1.02 -1.38 1 -1.39 0.98 -1.39C0.96 -1.39 0.94 -1.38 0.94 -1.36C0.94 -1.35 0.94 -1.35 0.94 -1.35C0.94 -1.33 0.94 -1.32 0.96 -1.31C0.97 -1.3 0.98 -1.29 0.99 -1.29C1.01 -1.28 1.01 -1.27 1.01 -1.26C1.01 -1.25 1.01 -1.25 1.01 -1.25C1.01 -1.23 1 -1.22 0.98 -1.22C0.96 -1.22 0.95 -1.23 0.94 -1.24L0.936476315789474 -1.2218000000000002C0.94 -1.22 0.95 -1.21 0.97 -1.21C0.97 -1.21 0.98 -1.21 0.98 -1.21C0.99 -1.21 1 -1.21 1.01 -1.22C1.02 -1.22 1.03 -1.23 1.03 -1.24C1.03 -1.25 1.03 -1.25 1.03 -1.26C1.03 -1.27 1.03 -1.27 1.02 -1.28C1.01 -1.29 1 -1.3 0.98 -1.31ZM1.1 -1.23C1.1 -1.23 1.1 -1.24 1.09 -1.26C1.09 -1.26 1.09 -1.27 1.09 -1.3C1.09 -1.32 1.09 -1.35 1.09 -1.37L1.132076315789474 -1.3724000000000003L1.132076315789474 -1.3874000000000002L1.093376315789474 -1.3874000000000002L1.093376315789474 -1.4165L1.0783763157894741 -1.4165L1.0783763157894741 -1.3874000000000002L1.053176315789474 -1.3874000000000002L1.053176315789474 -1.3724000000000003L1.0783763157894741 -1.3724000000000003C1.08 -1.35 1.08 -1.32 1.08 -1.3C1.08 -1.27 1.08 -1.26 1.08 -1.25C1.08 -1.24 1.09 -1.23 1.09 -1.22C1.1 -1.22 1.1 -1.21 1.11 -1.21C1.12 -1.21 1.13 -1.21 1.14 -1.21L1.1368763157894741 -1.2248C1.12 -1.22 1.11 -1.23 1.1 -1.23ZM1.31 -1.3C1.31 -1.32 1.3 -1.34 1.29 -1.36C1.28 -1.38 1.27 -1.39 1.25 -1.39C1.24 -1.39 1.24 -1.39 1.24 -1.39C1.22 -1.39 1.2 -1.38 1.19 -1.37C1.17 -1.36 1.16 -1.34 1.16 -1.31C1.16 -1.31 1.16 -1.31 1.16 -1.31L1.1569763157894741 -1.2998000000000003L1.1569763157894741 -1.2935C1.16 -1.27 1.17 -1.24 1.19 -1.23C1.2 -1.22 1.22 -1.21 1.24 -1.21C1.25 -1.21 1.25 -1.21 1.26 -1.21C1.27 -1.21 1.29 -1.22 1.3 -1.22C1.3 -1.22 1.3 -1.22 1.3 -1.22L1.298876315789474 -1.2335000000000003C1.29 -1.23 1.28 -1.23 1.27 -1.23C1.26 -1.22 1.25 -1.22 1.24 -1.22C1.22 -1.22 1.21 -1.23 1.2 -1.24C1.18 -1.25 1.18 -1.27 1.17 -1.29C1.17 -1.29 1.17 -1.3 1.17 -1.3L1.172276315789474 -1.3007000000000002L1.307576315789474 -1.3007000000000002ZM1.24 -1.38C1.26 -1.38 1.27 -1.36 1.28 -1.34C1.29 -1.34 1.29 -1.33 1.29 -1.32L1.1728763157894742 -1.3157C1.18 -1.33 1.18 -1.35 1.2 -1.36C1.21 -1.37 1.22 -1.38 1.24 -1.38ZM1.6 -1.36C1.59 -1.38 1.58 -1.39 1.55 -1.39C1.55 -1.39 1.55 -1.39 1.54 -1.39C1.53 -1.39 1.51 -1.39 1.5 -1.38C1.49 -1.37 1.49 -1.36 1.48 -1.35C1.47 -1.38 1.46 -1.39 1.43 -1.39C1.43 -1.39 1.42 -1.39 1.42 -1.39C1.4 -1.39 1.38 -1.39 1.37 -1.37L1.366376315789474 -1.3877000000000002L1.351376315789474 -1.3877000000000002L1.351376315789474 -1.2140000000000002L1.366376315789474 -1.2140000000000002L1.366376315789474 -1.3394000000000001C1.37 -1.35 1.37 -1.36 1.38 -1.36C1.39 -1.37 1.41 -1.38 1.42 -1.38C1.44 -1.38 1.46 -1.37 1.46 -1.35C1.47 -1.34 1.47 -1.33 1.47 -1.31L1.471976315789474 -1.2137000000000002L1.487576315789474 -1.2137000000000002L1.487576315789474 -1.3079000000000003C1.49 -1.32 1.49 -1.32 1.49 -1.33C1.49 -1.34 1.5 -1.35 1.51 -1.36C1.52 -1.37 1.53 -1.38 1.55 -1.38C1.57 -1.38 1.58 -1.37 1.59 -1.35C1.59 -1.34 1.6 -1.33 1.6 -1.31L1.5964763157894741 -1.2137000000000002L1.612076315789474 -1.2137000000000002L1.612076315789474 -1.3079000000000003C1.61 -1.33 1.61 -1.35 1.6 -1.36ZM1.95 -1.22C1.96 -1.23 1.97 -1.24 1.97 -1.26C1.97 -1.26 1.97 -1.27 1.97 -1.27C1.97 -1.28 1.97 -1.3 1.96 -1.31C1.95 -1.31 1.93 -1.33 1.91 -1.35C1.89 -1.36 1.88 -1.37 1.87 -1.38C1.87 -1.38 1.86 -1.39 1.86 -1.4C1.86 -1.4 1.86 -1.4 1.86 -1.41C1.87 -1.42 1.87 -1.43 1.88 -1.44C1.89 -1.44 1.9 -1.44 1.91 -1.44C1.91 -1.44 1.92 -1.44 1.92 -1.44C1.94 -1.44 1.95 -1.43 1.96 -1.42L1.960076315789474 -1.4399000000000002C1.95 -1.45 1.94 -1.45 1.93 -1.46C1.92 -1.46 1.91 -1.46 1.91 -1.46C1.89 -1.46 1.88 -1.45 1.87 -1.45C1.86 -1.44 1.85 -1.43 1.85 -1.41C1.85 -1.4 1.85 -1.4 1.85 -1.4C1.85 -1.38 1.85 -1.37 1.87 -1.36C1.87 -1.36 1.88 -1.35 1.9 -1.33C1.92 -1.32 1.93 -1.31 1.94 -1.3C1.95 -1.29 1.96 -1.28 1.96 -1.27C1.96 -1.27 1.96 -1.27 1.95 -1.26C1.95 -1.24 1.93 -1.22 1.91 -1.22C1.9 -1.22 1.9 -1.23 1.89 -1.23C1.88 -1.23 1.86 -1.24 1.85 -1.25L1.846076315789474 -1.2302000000000002C1.86 -1.22 1.87 -1.22 1.89 -1.21C1.89 -1.21 1.9 -1.21 1.9 -1.21C1.92 -1.21 1.94 -1.21 1.95 -1.22ZM2.05 -1.23C2.05 -1.23 2.05 -1.24 2.04 -1.26C2.04 -1.26 2.04 -1.27 2.04 -1.3C2.04 -1.32 2.04 -1.35 2.04 -1.37L2.081876315789474 -1.3724000000000003L2.081876315789474 -1.3874000000000002L2.043176315789474 -1.3874000000000002L2.043176315789474 -1.4165L2.028176315789474 -1.4165L2.028176315789474 -1.3874000000000002L2.002976315789474 -1.3874000000000002L2.002976315789474 -1.3724000000000003L2.028176315789474 -1.3724000000000003C2.03 -1.35 2.03 -1.32 2.03 -1.3C2.03 -1.27 2.03 -1.26 2.03 -1.25C2.03 -1.24 2.04 -1.23 2.04 -1.22C2.05 -1.22 2.05 -1.21 2.06 -1.21C2.07 -1.21 2.07 -1.21 2.09 -1.21L2.086676315789474 -1.2248C2.07 -1.22 2.06 -1.23 2.05 -1.23ZM2.2 -1.39C2.18 -1.39 2.16 -1.39 2.14 -1.37C2.13 -1.36 2.11 -1.34 2.11 -1.31C2.11 -1.3 2.11 -1.3 2.11 -1.29C2.11 -1.27 2.12 -1.25 2.13 -1.23C2.14 -1.22 2.16 -1.21 2.18 -1.21C2.2 -1.21 2.22 -1.21 2.23 -1.23C2.24 -1.23 2.24 -1.24 2.25 -1.24L2.245376315789474 -1.2335000000000003L2.245376315789474 -1.2335000000000003L2.245376315789474 -1.2335000000000003L2.245376315789474 -1.2140000000000002L2.260376315789474 -1.2140000000000002L2.260376315789474 -1.3859000000000001C2.24 -1.39 2.22 -1.39 2.2 -1.39ZM2.25 -1.3C2.25 -1.27 2.24 -1.25 2.22 -1.24C2.21 -1.23 2.19 -1.22 2.18 -1.22C2.16 -1.22 2.15 -1.23 2.13 -1.25C2.13 -1.26 2.13 -1.28 2.13 -1.29C2.13 -1.3 2.13 -1.32 2.13 -1.33C2.14 -1.34 2.14 -1.35 2.15 -1.36C2.17 -1.37 2.18 -1.38 2.2 -1.38C2.2 -1.38 2.22 -1.37 2.25 -1.37L2.245376315789474 -1.2956ZM2.34 -1.23C2.34 -1.23 2.33 -1.24 2.33 -1.26C2.33 -1.26 2.33 -1.27 2.33 -1.3C2.33 -1.32 2.33 -1.35 2.33 -1.37L2.371376315789474 -1.3724000000000003L2.371376315789474 -1.3874000000000002L2.332676315789474 -1.3874000000000002L2.332676315789474 -1.4165L2.3176763157894738 -1.4165L2.3176763157894738 -1.3874000000000002L2.292476315789474 -1.3874000000000002L2.292476315789474 -1.3724000000000003L2.3176763157894738 -1.3724000000000003C2.32 -1.35 2.32 -1.32 2.32 -1.3C2.32 -1.27 2.32 -1.26 2.32 -1.25C2.32 -1.24 2.33 -1.23 2.33 -1.22C2.34 -1.22 2.34 -1.21 2.35 -1.21C2.36 -1.21 2.36 -1.21 2.38 -1.21L2.3761763157894737 -1.2248C2.36 -1.22 2.35 -1.23 2.34 -1.23ZM2.53 -1.39L2.525276315789474 -1.2623000000000002C2.52 -1.25 2.52 -1.25 2.51 -1.24C2.5 -1.23 2.48 -1.22 2.47 -1.22C2.45 -1.22 2.44 -1.23 2.43 -1.25C2.42 -1.26 2.42 -1.27 2.42 -1.29L2.419976315789474 -1.3871000000000002L2.4043763157894738 -1.3871000000000002L2.4043763157894738 -1.2932000000000001C2.4 -1.27 2.41 -1.25 2.41 -1.24C2.42 -1.22 2.44 -1.21 2.46 -1.21C2.47 -1.21 2.47 -1.21 2.47 -1.21C2.49 -1.21 2.51 -1.22 2.53 -1.23L2.525276315789474 -1.2140000000000002L2.539976315789474 -1.2140000000000002L2.539976315789474 -1.3871000000000002L2.525276315789474 -1.3871000000000002ZM2.62 -1.31C2.6 -1.32 2.59 -1.34 2.59 -1.35C2.59 -1.35 2.59 -1.35 2.59 -1.35C2.6 -1.37 2.61 -1.38 2.62 -1.38C2.63 -1.38 2.63 -1.38 2.63 -1.38C2.64 -1.37 2.65 -1.37 2.65 -1.37C2.66 -1.37 2.66 -1.36 2.67 -1.36L2.669576315789474 -1.3718000000000001C2.66 -1.38 2.64 -1.39 2.62 -1.39C2.6 -1.39 2.58 -1.38 2.58 -1.36C2.58 -1.35 2.58 -1.35 2.58 -1.35C2.58 -1.33 2.59 -1.32 2.6 -1.31C2.61 -1.3 2.62 -1.29 2.64 -1.29C2.65 -1.28 2.66 -1.27 2.66 -1.26C2.66 -1.25 2.66 -1.25 2.66 -1.25C2.65 -1.23 2.64 -1.22 2.62 -1.22C2.61 -1.22 2.59 -1.23 2.58 -1.24L2.578976315789474 -1.2218000000000002C2.59 -1.22 2.6 -1.21 2.61 -1.21C2.61 -1.21 2.62 -1.21 2.62 -1.21C2.63 -1.21 2.65 -1.21 2.65 -1.22C2.66 -1.22 2.67 -1.23 2.67 -1.24C2.67 -1.25 2.67 -1.25 2.67 -1.26C2.67 -1.27 2.67 -1.27 2.66 -1.28C2.65 -1.29 2.64 -1.3 2.62 -1.31ZM2.99 -1.46C2.96 -1.46 2.94 -1.44 2.92 -1.42C2.9 -1.4 2.89 -1.37 2.89 -1.33C2.89 -1.3 2.9 -1.27 2.92 -1.25C2.94 -1.22 2.96 -1.21 2.99 -1.21C3.02 -1.21 3.05 -1.22 3.07 -1.25C3.09 -1.27 3.1 -1.3 3.1 -1.33C3.1 -1.37 3.09 -1.4 3.07 -1.42C3.05 -1.44 3.02 -1.46 2.99 -1.46ZM2.99 -1.22C2.97 -1.22 2.94 -1.24 2.93 -1.26C2.91 -1.28 2.9 -1.3 2.9 -1.33C2.9 -1.36 2.91 -1.39 2.93 -1.41C2.94 -1.43 2.97 -1.44 2.99 -1.44C3.02 -1.44 3.04 -1.43 3.06 -1.41C3.07 -1.39 3.08 -1.36 3.08 -1.33C3.08 -1.3 3.07 -1.28 3.06 -1.26C3.04 -1.24 3.02 -1.22 2.99 -1.22ZM3.19 -1.21L3.201176315789474 -1.2140000000000002L3.262076315789474 -1.3871000000000002L3.246176315789474 -1.3871000000000002L3.193376315789474 -1.2365000000000002L3.1387763157894737 -1.3871000000000002L3.122876315789474 -1.3871000000000002L3.185576315789474 -1.2140000000000002ZM3.43 -1.3C3.43 -1.32 3.43 -1.34 3.42 -1.36C3.41 -1.38 3.39 -1.39 3.37 -1.39C3.37 -1.39 3.36 -1.39 3.36 -1.39C3.34 -1.39 3.33 -1.38 3.31 -1.37C3.29 -1.36 3.28 -1.34 3.28 -1.31C3.28 -1.31 3.28 -1.31 3.28 -1.31L3.282176315789474 -1.2998000000000003L3.282176315789474 -1.2935C3.29 -1.27 3.3 -1.24 3.31 -1.23C3.33 -1.22 3.35 -1.21 3.37 -1.21C3.37 -1.21 3.38 -1.21 3.39 -1.21C3.4 -1.21 3.41 -1.22 3.42 -1.22C3.42 -1.22 3.42 -1.22 3.42 -1.22L3.424076315789474 -1.2335000000000003C3.41 -1.23 3.4 -1.23 3.4 -1.23C3.39 -1.22 3.38 -1.22 3.37 -1.22C3.35 -1.22 3.33 -1.23 3.32 -1.24C3.31 -1.25 3.3 -1.27 3.3 -1.29C3.3 -1.29 3.3 -1.3 3.3 -1.3L3.2974763157894738 -1.3007000000000002L3.432776315789474 -1.3007000000000002ZM3.36 -1.38C3.38 -1.38 3.4 -1.36 3.41 -1.34C3.41 -1.34 3.42 -1.33 3.42 -1.32L3.2980763157894737 -1.3157C3.3 -1.33 3.31 -1.35 3.32 -1.36C3.33 -1.37 3.35 -1.38 3.36 -1.38ZM3.51 -1.37C3.5 -1.37 3.49 -1.36 3.49 -1.35L3.487376315789474 -1.3874000000000002L3.472376315789474 -1.3874000000000002L3.472376315789474 -1.2140000000000002L3.487376315789474 -1.2140000000000002L3.487376315789474 -1.2956C3.49 -1.3 3.49 -1.3 3.49 -1.31C3.49 -1.33 3.5 -1.35 3.51 -1.36C3.52 -1.37 3.53 -1.37 3.54 -1.37L3.5362763157894737 -1.3877000000000002C3.52 -1.38 3.51 -1.38 3.51 -1.37ZM3.62 -1.21L3.635276315789474 -1.2140000000000002L3.696176315789474 -1.3871000000000002L3.680276315789474 -1.3871000000000002L3.627476315789474 -1.2365000000000002L3.5728763157894736 -1.3871000000000002L3.556976315789474 -1.3871000000000002L3.619676315789474 -1.2140000000000002ZM3.73 -1.39L3.7336763157894737 -1.2137000000000002L3.748676315789474 -1.2137000000000002L3.748676315789474 -1.3877000000000002L3.7336763157894737 -1.3877000000000002ZM3.75 -1.43L3.7336763157894737 -1.4318000000000002L3.7336763157894737 -1.4168000000000003L3.748676315789474 -1.4168000000000003L3.748676315789474 -1.4318000000000002ZM3.94 -1.3C3.94 -1.32 3.94 -1.34 3.93 -1.36C3.91 -1.38 3.9 -1.39 3.88 -1.39C3.88 -1.39 3.87 -1.39 3.87 -1.39C3.85 -1.39 3.83 -1.38 3.82 -1.37C3.8 -1.36 3.79 -1.34 3.79 -1.31C3.79 -1.31 3.79 -1.31 3.79 -1.31L3.7894763157894737 -1.2998000000000003L3.7894763157894737 -1.2935C3.79 -1.27 3.8 -1.24 3.82 -1.23C3.83 -1.22 3.85 -1.21 3.88 -1.21C3.88 -1.21 3.89 -1.21 3.89 -1.21C3.91 -1.21 3.92 -1.22 3.93 -1.22C3.93 -1.22 3.93 -1.22 3.93 -1.22L3.931376315789474 -1.2335000000000003C3.92 -1.23 3.91 -1.23 3.91 -1.23C3.9 -1.22 3.89 -1.22 3.87 -1.22C3.86 -1.22 3.84 -1.23 3.83 -1.24C3.82 -1.25 3.81 -1.27 3.81 -1.29C3.81 -1.29 3.8 -1.3 3.8 -1.3L3.804776315789474 -1.3007000000000002L3.940076315789474 -1.3007000000000002ZM3.87 -1.38C3.89 -1.38 3.9 -1.36 3.91 -1.34C3.92 -1.34 3.92 -1.33 3.92 -1.32L3.8053763157894736 -1.3157C3.81 -1.33 3.82 -1.35 3.83 -1.36C3.84 -1.37 3.85 -1.38 3.87 -1.38ZM4.21 -1.39L4.156976315789474 -1.2365000000000002L4.102376315789474 -1.3871000000000002L4.102076315789474 -1.3871000000000002L4.086476315789474 -1.3871000000000002L4.033376315789473 -1.2365000000000002L3.9787763157894735 -1.3871000000000002L3.9628763157894737 -1.3871000000000002L4.025576315789474 -1.2140000000000002L4.041476315789474 -1.2140000000000002L4.0942763157894735 -1.3649000000000002L4.149176315789473 -1.2140000000000002L4.1647763157894735 -1.2140000000000002L4.225676315789474 -1.3871000000000002L4.209776315789474 -1.3871000000000002Z" stroke="none" fill="#666680"/>
  <path d="M-1.66 -3.76L1.0154526315789476 -3.7582000000000004L1.0154526315789476 -2.2892L-1.662 -2.2892Z" stroke="none" fill="#3366CC"/>
  <path d="M-0.64 -2.66L-0.6328736842105263 -2.6586000000000003L-0.5768736842105262 -2.8180000000000005L-0.5874736842105261 -2.8180000000000005L-0.6382736842105261 -2.6736000000000004L-0.6902736842105262 -2.8180000000000005L-0.7008736842105261 -2.8180000000000005L-0.6434736842105262 -2.6586000000000003ZM-0.46 -2.72C-0.46 -2.73 -0.46 -2.74 -0.47 -2.75C-0.48 -2.77 -0.49 -2.77 -0.5 -2.78C-0.5 -2.78 -0.5 -2.78 -0.51 -2.78C-0.52 -2.78 -0.53 -2.77 -0.54 -2.76C-0.55 -2.75 -0.56 -2.74 -0.56 -2.72C-0.56 -2.72 -0.56 -2.72 -0.56 -2.72L-0.5594736842105261 -2.716L-0.5594736842105261 -2.7118C-0.56 -2.69 -0.55 -2.68 -0.54 -2.67C-0.53 -2.66 -0.52 -2.66 -0.5 -2.66C-0.5 -2.66 -0.49 -2.66 -0.49 -2.66C-0.48 -2.66 -0.47 -2.66 -0.46 -2.66C-0.46 -2.66 -0.46 -2.66 -0.46 -2.66L-0.4648736842105261 -2.6718C-0.47 -2.67 -0.48 -2.67 -0.48 -2.67C-0.49 -2.67 -0.5 -2.67 -0.5 -2.67C-0.51 -2.67 -0.52 -2.67 -0.53 -2.68C-0.54 -2.68 -0.55 -2.69 -0.55 -2.71C-0.55 -2.71 -0.55 -2.71 -0.55 -2.72L-0.5492736842105261 -2.7166000000000006L-0.4590736842105261 -2.7166000000000006ZM-0.51 -2.77C-0.49 -2.77 -0.48 -2.76 -0.48 -2.75C-0.47 -2.74 -0.47 -2.73 -0.47 -2.73L-0.5488736842105262 -2.7266000000000004C-0.55 -2.74 -0.54 -2.75 -0.53 -2.76C-0.52 -2.76 -0.52 -2.77 -0.51 -2.77ZM-0.43 -2.66L-0.41927368421052624 -2.6584000000000003L-0.41927368421052624 -2.8426000000000005L-0.42927368421052625 -2.8426000000000005L-0.42927368421052625 -2.6584000000000003ZM-0.33 -2.78C-0.35 -2.78 -0.36 -2.77 -0.37 -2.76C-0.38 -2.75 -0.39 -2.73 -0.39 -2.72C-0.39 -2.7 -0.38 -2.68 -0.37 -2.67C-0.36 -2.66 -0.35 -2.66 -0.33 -2.66C-0.32 -2.66 -0.3 -2.66 -0.3 -2.67C-0.29 -2.68 -0.28 -2.7 -0.28 -2.72C-0.28 -2.73 -0.29 -2.75 -0.3 -2.76C-0.31 -2.77 -0.32 -2.78 -0.33 -2.78ZM-0.33 -2.67C-0.35 -2.67 -0.36 -2.67 -0.37 -2.68C-0.37 -2.69 -0.38 -2.7 -0.38 -2.72C-0.38 -2.73 -0.37 -2.74 -0.36 -2.75C-0.36 -2.76 -0.35 -2.77 -0.33 -2.77C-0.32 -2.77 -0.31 -2.76 -0.3 -2.75C-0.3 -2.74 -0.29 -2.73 -0.29 -2.72C-0.29 -2.7 -0.3 -2.69 -0.3 -2.68C-0.31 -2.67 -0.32 -2.67 -0.33 -2.67ZM-0.17 -2.67C-0.18 -2.67 -0.18 -2.67 -0.18 -2.67C-0.19 -2.67 -0.2 -2.67 -0.21 -2.67C-0.22 -2.67 -0.23 -2.67 -0.24 -2.68C-0.24 -2.68 -0.25 -2.69 -0.25 -2.71C-0.25 -2.71 -0.25 -2.71 -0.25 -2.72C-0.25 -2.72 -0.25 -2.72 -0.25 -2.72C-0.25 -2.74 -0.25 -2.75 -0.24 -2.76C-0.23 -2.76 -0.22 -2.77 -0.21 -2.77C-0.2 -2.77 -0.19 -2.77 -0.18 -2.76L-0.17647368421052612 -2.7746000000000004C-0.19 -2.78 -0.2 -2.78 -0.2 -2.78C-0.22 -2.78 -0.24 -2.77 -0.24 -2.76C-0.26 -2.75 -0.26 -2.74 -0.26 -2.72C-0.26 -2.72 -0.26 -2.72 -0.26 -2.72L-0.2630736842105261 -2.716C-0.26 -2.72 -0.26 -2.71 -0.26 -2.71C-0.26 -2.69 -0.25 -2.68 -0.24 -2.67C-0.23 -2.66 -0.22 -2.66 -0.2 -2.66C-0.2 -2.66 -0.2 -2.66 -0.19 -2.66C-0.19 -2.66 -0.18 -2.66 -0.17 -2.66C-0.17 -2.66 -0.17 -2.66 -0.17 -2.66L-0.16827368421052613 -2.6718ZM-0.14 -2.77L-0.1422736842105261 -2.6586000000000003L-0.1322736842105261 -2.6586000000000003L-0.1322736842105261 -2.7746000000000004L-0.1422736842105261 -2.7746000000000004ZM-0.13 -2.8L-0.1422736842105261 -2.8040000000000003L-0.1422736842105261 -2.7940000000000005L-0.1322736842105261 -2.7940000000000005L-0.1322736842105261 -2.8040000000000003ZM-0.07 -2.67C-0.08 -2.67 -0.08 -2.68 -0.08 -2.69C-0.08 -2.69 -0.08 -2.7 -0.08 -2.71C-0.08 -2.73 -0.08 -2.75 -0.08 -2.76L-0.05307368421052616 -2.7644L-0.05307368421052616 -2.7744000000000004L-0.07887368421052621 -2.7744000000000004L-0.07887368421052621 -2.7938L-0.08887368421052622 -2.7938L-0.08887368421052622 -2.7744000000000004L-0.10567368421052614 -2.7744000000000004L-0.10567368421052614 -2.7644L-0.08887368421052622 -2.7644C-0.09 -2.75 -0.09 -2.73 -0.09 -2.71C-0.09 -2.7 -0.09 -2.69 -0.09 -2.68C-0.09 -2.67 -0.08 -2.67 -0.08 -2.66C-0.08 -2.66 -0.07 -2.66 -0.07 -2.66C-0.06 -2.66 -0.06 -2.66 -0.05 -2.66L-0.04987368421052607 -2.6660000000000004C-0.06 -2.67 -0.07 -2.67 -0.07 -2.67ZM0.04 -2.77L0.008526315789473937 -2.6738000000000004L-0.02787368421052605 -2.7742000000000004L-0.038473684210526216 -2.7742000000000004L0.0033263157894738438 -2.6588000000000003L-0.012473684210526192 -2.6136000000000004C-0.01 -2.61 -0.02 -2.61 -0.02 -2.61C-0.02 -2.6 -0.03 -2.6 -0.03 -2.6L-0.03327368421052612 -2.5892000000000004C-0.02 -2.59 -0.02 -2.59 -0.01 -2.6C-0.01 -2.6 -0.01 -2.61 0 -2.61L-0.0034736842105260735 -2.6096000000000004L-0.0032736842105260955 -2.6096000000000004C0 -2.61 0 -2.61 0 -2.61L0.05432631578947378 -2.7742000000000004L0.04392631578947381 -2.7742000000000004Z" stroke="none" fill="#FFFFFF"/>
  <path d="M-1.15 -3.26C-1.13 -3.27 -1.12 -3.29 -1.12 -3.31C-1.12 -3.33 -1.13 -3.34 -1.14 -3.36C-1.15 -3.37 -1.16 -3.38 -1.18 -3.38L-1.1801473684210524 -3.3814C-1.2 -3.38 -1.21 -3.38 -1.22 -3.37C-1.24 -3.35 -1.24 -3.34 -1.24 -3.32C-1.25 -3.29 -1.24 -3.27 -1.22 -3.26C-1.23 -3.25 -1.24 -3.24 -1.25 -3.22C-1.26 -3.21 -1.26 -3.2 -1.26 -3.18C-1.26 -3.15 -1.26 -3.13 -1.24 -3.11C-1.23 -3.1 -1.21 -3.09 -1.19 -3.09C-1.16 -3.09 -1.15 -3.09 -1.13 -3.11C-1.11 -3.12 -1.1 -3.14 -1.1 -3.17C-1.1 -3.19 -1.11 -3.21 -1.11 -3.22C-1.12 -3.24 -1.13 -3.25 -1.15 -3.26L-1.1465473684210523 -3.2562000000000006ZM-1.13 -3.17C-1.13 -3.15 -1.13 -3.13 -1.15 -3.12C-1.16 -3.11 -1.17 -3.11 -1.19 -3.11C-1.2 -3.11 -1.22 -3.12 -1.23 -3.13C-1.24 -3.14 -1.24 -3.16 -1.24 -3.18C-1.24 -3.2 -1.23 -3.22 -1.22 -3.23C-1.2 -3.24 -1.19 -3.24 -1.18 -3.24C-1.16 -3.24 -1.15 -3.24 -1.14 -3.22C-1.13 -3.21 -1.12 -3.19 -1.13 -3.17ZM-1.22 -3.32C-1.22 -3.33 -1.22 -3.34 -1.21 -3.35C-1.2 -3.36 -1.19 -3.36 -1.18 -3.36C-1.17 -3.36 -1.16 -3.35 -1.15 -3.34C-1.15 -3.33 -1.14 -3.32 -1.14 -3.31C-1.14 -3.3 -1.15 -3.29 -1.15 -3.28C-1.16 -3.27 -1.17 -3.27 -1.18 -3.27C-1.18 -3.27 -1.18 -3.27 -1.19 -3.27C-1.2 -3.27 -1.21 -3.27 -1.21 -3.28C-1.22 -3.29 -1.22 -3.3 -1.22 -3.32L-1.2233473684210523 -3.3150000000000004ZM-0.89 -3.13L-0.9229473684210524 -3.1262000000000003L-0.9229473684210524 -3.3218000000000005L-0.9541473684210524 -3.3218000000000005C-0.95 -3.32 -0.99 -3.26 -1.06 -3.13L-1.0645473684210525 -3.1102000000000003L-0.9425473684210524 -3.1102000000000003L-0.9425473684210524 -3.0426L-0.9229473684210524 -3.0426L-0.9229473684210524 -3.1102000000000003L-0.8893473684210524 -3.1102000000000003L-0.8893473684210524 -3.1262000000000003ZM-0.94 -3.29L-0.9429473684210524 -3.1266000000000003L-1.0477473684210525 -3.1266000000000003L-0.9469473684210524 -3.2970000000000006C-0.95 -3.3 -0.94 -3.3 -0.94 -3.31L-0.9421473684210524 -3.3066000000000004C-0.94 -3.3 -0.94 -3.29 -0.94 -3.29ZM-0.83 -3.27C-0.83 -3.28 -0.82 -3.29 -0.81 -3.3C-0.8 -3.31 -0.79 -3.31 -0.78 -3.31C-0.77 -3.31 -0.76 -3.31 -0.75 -3.3C-0.73 -3.29 -0.73 -3.28 -0.73 -3.26C-0.73 -3.25 -0.74 -3.22 -0.77 -3.19L-0.8521473684210524 -3.107L-0.8521473684210524 -3.0902000000000003L-0.7065473684210524 -3.0902000000000003L-0.7065473684210524 -3.1078C-0.71 -3.11 -0.74 -3.11 -0.8 -3.11L-0.8285473684210524 -3.107L-0.7589473684210524 -3.1790000000000003C-0.74 -3.2 -0.73 -3.22 -0.72 -3.23C-0.71 -3.24 -0.71 -3.25 -0.71 -3.26C-0.71 -3.28 -0.71 -3.3 -0.73 -3.31C-0.74 -3.32 -0.76 -3.33 -0.78 -3.33C-0.8 -3.33 -0.82 -3.32 -0.83 -3.3C-0.84 -3.3 -0.84 -3.28 -0.85 -3.27C-0.84 -3.27 -0.83 -3.27 -0.83 -3.27ZM-0.34 -3.22L-0.23614736842105244 -3.3218000000000005L-0.2649473684210524 -3.3218000000000005L-0.3645473684210523 -3.2238000000000007L-0.3645473684210523 -3.4582000000000006L-0.3845473684210523 -3.4582000000000006L-0.3845473684210523 -3.0898000000000003L-0.3645473684210523 -3.0898000000000003L-0.3645473684210523 -3.1954000000000002L-0.3525473684210523 -3.2078000000000007C-0.31 -3.17 -0.28 -3.13 -0.25 -3.09L-0.22374736842105225 -3.0902000000000003C-0.26 -3.14 -0.3 -3.18 -0.34 -3.22ZM0.16 -3.29C0.15 -3.31 0.13 -3.32 0.1 -3.33C0.09 -3.33 0.09 -3.33 0.08 -3.33C0.06 -3.33 0.04 -3.32 0.02 -3.31C0.01 -3.3 0 -3.29 0 -3.28C-0.01 -3.31 -0.03 -3.32 -0.07 -3.33C-0.07 -3.33 -0.08 -3.33 -0.08 -3.33C-0.11 -3.33 -0.13 -3.32 -0.15 -3.3L-0.15454736842105232 -3.3218000000000005L-0.17454736842105234 -3.3218000000000005L-0.17454736842105234 -3.0902000000000003L-0.15454736842105232 -3.0902000000000003L-0.15454736842105232 -3.2574000000000005C-0.15 -3.27 -0.14 -3.28 -0.13 -3.29C-0.12 -3.3 -0.1 -3.31 -0.08 -3.31C-0.05 -3.31 -0.04 -3.3 -0.03 -3.28C-0.02 -3.26 -0.01 -3.24 -0.01 -3.22L-0.013747368421052286 -3.0898000000000003L0.0070526315789476435 -3.0898000000000003L0.0070526315789476435 -3.2154000000000003C0.01 -3.22 0.01 -3.23 0.01 -3.24C0.01 -3.26 0.02 -3.28 0.03 -3.29C0.05 -3.3 0.07 -3.31 0.08 -3.31C0.11 -3.31 0.13 -3.3 0.14 -3.28C0.15 -3.26 0.15 -3.24 0.15 -3.22L0.15225263157894764 -3.0898000000000003L0.17305263157894757 -3.0898000000000003L0.17305263157894757 -3.2154000000000003C0.17 -3.25 0.17 -3.27 0.16 -3.29ZM0.26 -3.09L0.3430526315789475 -3.4558000000000004L0.3226526315789475 -3.4558000000000004L0.23465263157894767 -3.0890000000000004L0.25505263157894764 -3.0890000000000004ZM0.6 -3.28C0.59 -3.3 0.58 -3.31 0.57 -3.31C0.56 -3.32 0.55 -3.32 0.53 -3.33C0.53 -3.33 0.52 -3.33 0.52 -3.33C0.5 -3.33 0.49 -3.32 0.47 -3.32C0.46 -3.31 0.44 -3.29 0.43 -3.28L0.43345263157894776 -3.4582000000000006L0.41345263157894774 -3.4582000000000006L0.41345263157894774 -3.0898000000000003L0.43345263157894776 -3.0898000000000003L0.43345263157894776 -3.2166000000000006C0.43 -3.24 0.44 -3.27 0.47 -3.29C0.48 -3.3 0.5 -3.31 0.52 -3.31C0.52 -3.31 0.53 -3.31 0.53 -3.31C0.54 -3.31 0.55 -3.3 0.56 -3.3C0.57 -3.29 0.58 -3.28 0.58 -3.27C0.59 -3.26 0.59 -3.24 0.59 -3.22L0.5946526315789478 -3.2150000000000003L0.5946526315789478 -3.0902000000000003L0.6154526315789477 -3.0902000000000003L0.6154526315789477 -3.2150000000000003L0.6154526315789477 -3.2150000000000003C0.62 -3.25 0.61 -3.27 0.6 -3.28Z" stroke="none" fill="#FFFFFF"/>
  <path d="M-1.66 -3.76L1.0154526315789476 -3.7582000000000004L1.0154526315789476 -2.2892L-1.662 -2.2892Z" stroke="none" fill="none"/>
  <path d="M1.32 -3.72L3.8974526315789477 -3.72100945945946L3.8974526315789477 -2.326390540540541L1.3154526315789474 -2.326390540540541Z" stroke="none" fill="#CC3333"/>
  <path d="M2.33 -2.74C2.33 -2.74 2.33 -2.74 2.33 -2.75C2.33 -2.76 2.33 -2.76 2.32 -2.77C2.32 -2.77 2.32 -2.78 2.31 -2.78C2.3 -2.79 2.29 -2.79 2.27 -2.79C2.27 -2.79 2.25 -2.79 2.23 -2.79L2.231624060150376 -2.629990540540541L2.241624060150376 -2.629990540540541L2.241624060150376 -2.687190540540541C2.25 -2.69 2.26 -2.69 2.27 -2.69C2.28 -2.69 2.3 -2.69 2.31 -2.7C2.32 -2.71 2.33 -2.72 2.33 -2.73C2.33 -2.74 2.33 -2.74 2.33 -2.74L2.3294240601503757 -2.743390540540541ZM2.32 -2.74C2.32 -2.74 2.32 -2.74 2.32 -2.73C2.32 -2.72 2.31 -2.71 2.3 -2.71C2.29 -2.7 2.28 -2.69 2.27 -2.7C2.27 -2.7 2.26 -2.7 2.24 -2.7L2.241624060150376 -2.728590540540541L2.241624060150376 -2.728590540540541L2.241624060150376 -2.730190540540541C2.24 -2.73 2.24 -2.73 2.24 -2.74L2.241624060150376 -2.737190540540541L2.241624060150376 -2.737190540540541L2.241624060150376 -2.781590540540541C2.25 -2.78 2.26 -2.78 2.27 -2.78C2.29 -2.78 2.3 -2.78 2.31 -2.77C2.31 -2.77 2.32 -2.76 2.32 -2.75C2.32 -2.74 2.32 -2.74 2.32 -2.74ZM2.38 -2.74C2.38 -2.73 2.37 -2.73 2.37 -2.72L2.3680240601503755 -2.746190540540541L2.3580240601503757 -2.746190540540541L2.3580240601503757 -2.630590540540541L2.3680240601503755 -2.630590540540541L2.3680240601503755 -2.6849905405405408C2.37 -2.69 2.37 -2.69 2.37 -2.69C2.37 -2.71 2.38 -2.72 2.39 -2.73C2.39 -2.73 2.4 -2.73 2.4 -2.74L2.400624060150376 -2.746390540540541C2.39 -2.74 2.39 -2.74 2.38 -2.74ZM2.52 -2.69C2.52 -2.7 2.51 -2.71 2.51 -2.73C2.5 -2.74 2.49 -2.75 2.48 -2.75C2.47 -2.75 2.47 -2.75 2.47 -2.75C2.46 -2.75 2.45 -2.74 2.44 -2.74C2.43 -2.72 2.42 -2.71 2.42 -2.69C2.42 -2.69 2.42 -2.69 2.42 -2.69L2.4168240601503754 -2.687790540540541L2.4168240601503754 -2.683590540540541C2.42 -2.66 2.43 -2.65 2.44 -2.64C2.45 -2.63 2.46 -2.63 2.48 -2.63C2.48 -2.63 2.48 -2.63 2.49 -2.63C2.49 -2.63 2.5 -2.63 2.51 -2.63C2.51 -2.63 2.51 -2.63 2.51 -2.64L2.511424060150376 -2.643590540540541C2.5 -2.64 2.5 -2.64 2.49 -2.64C2.49 -2.64 2.48 -2.64 2.47 -2.64C2.46 -2.64 2.45 -2.64 2.44 -2.65C2.44 -2.66 2.43 -2.67 2.43 -2.68C2.43 -2.68 2.43 -2.69 2.43 -2.69L2.4270240601503756 -2.688390540540541L2.517224060150376 -2.688390540540541ZM2.47 -2.74C2.48 -2.74 2.49 -2.73 2.5 -2.72C2.5 -2.71 2.51 -2.71 2.51 -2.7L2.4274240601503756 -2.698390540540541C2.43 -2.71 2.43 -2.72 2.44 -2.73C2.45 -2.73 2.46 -2.74 2.47 -2.74ZM2.56 -2.7C2.55 -2.7 2.55 -2.71 2.55 -2.72C2.55 -2.72 2.55 -2.72 2.55 -2.72C2.55 -2.73 2.55 -2.74 2.57 -2.74C2.57 -2.74 2.57 -2.74 2.57 -2.74C2.58 -2.74 2.58 -2.74 2.58 -2.73C2.59 -2.73 2.59 -2.73 2.59 -2.73L2.5954240601503757 -2.735790540540541C2.59 -2.74 2.58 -2.75 2.56 -2.75C2.55 -2.75 2.54 -2.74 2.54 -2.73C2.53 -2.72 2.53 -2.72 2.53 -2.72C2.53 -2.71 2.54 -2.7 2.55 -2.7C2.56 -2.69 2.56 -2.68 2.57 -2.68C2.58 -2.67 2.59 -2.67 2.59 -2.66C2.59 -2.66 2.59 -2.66 2.59 -2.65C2.58 -2.64 2.58 -2.63 2.56 -2.63C2.55 -2.63 2.54 -2.64 2.54 -2.65L2.535024060150376 -2.635790540540541C2.54 -2.63 2.55 -2.63 2.56 -2.63C2.56 -2.63 2.56 -2.63 2.56 -2.63C2.57 -2.63 2.58 -2.63 2.58 -2.63C2.59 -2.64 2.59 -2.64 2.6 -2.65C2.6 -2.65 2.6 -2.66 2.6 -2.66C2.6 -2.67 2.59 -2.67 2.59 -2.68C2.59 -2.68 2.58 -2.69 2.56 -2.7ZM2.64 -2.7C2.63 -2.7 2.62 -2.71 2.62 -2.72C2.62 -2.72 2.62 -2.72 2.62 -2.72C2.63 -2.73 2.63 -2.74 2.64 -2.74C2.65 -2.74 2.65 -2.74 2.65 -2.74C2.66 -2.74 2.66 -2.74 2.66 -2.73C2.66 -2.73 2.67 -2.73 2.67 -2.73L2.6736240601503756 -2.735790540540541C2.67 -2.74 2.66 -2.75 2.64 -2.75C2.63 -2.75 2.62 -2.74 2.61 -2.73C2.61 -2.72 2.61 -2.72 2.61 -2.72C2.61 -2.71 2.62 -2.7 2.63 -2.7C2.63 -2.69 2.64 -2.68 2.65 -2.68C2.66 -2.67 2.66 -2.67 2.66 -2.66C2.66 -2.66 2.66 -2.66 2.66 -2.65C2.66 -2.64 2.65 -2.63 2.64 -2.63C2.63 -2.63 2.62 -2.64 2.61 -2.65L2.613224060150376 -2.635790540540541C2.62 -2.63 2.63 -2.63 2.63 -2.63C2.64 -2.63 2.64 -2.63 2.64 -2.63C2.65 -2.63 2.66 -2.63 2.66 -2.63C2.67 -2.64 2.67 -2.64 2.67 -2.65C2.68 -2.65 2.68 -2.66 2.68 -2.66C2.68 -2.67 2.67 -2.67 2.67 -2.68C2.66 -2.68 2.66 -2.69 2.64 -2.7ZM2.78 -2.75L2.7776240601503757 -2.662790540540541C2.78 -2.66 2.77 -2.65 2.77 -2.65C2.76 -2.64 2.75 -2.64 2.74 -2.64C2.73 -2.64 2.72 -2.64 2.71 -2.65C2.71 -2.66 2.71 -2.67 2.71 -2.68L2.707424060150376 -2.745990540540541L2.697024060150376 -2.745990540540541L2.697024060150376 -2.683390540540541C2.7 -2.67 2.7 -2.65 2.7 -2.65C2.71 -2.64 2.72 -2.63 2.74 -2.63C2.74 -2.63 2.74 -2.63 2.74 -2.63C2.76 -2.63 2.77 -2.63 2.78 -2.64L2.7776240601503757 -2.630590540540541L2.787424060150376 -2.630590540540541L2.787424060150376 -2.745990540540541L2.7776240601503757 -2.745990540540541ZM2.84 -2.74C2.84 -2.73 2.84 -2.73 2.83 -2.72L2.832024060150376 -2.746190540540541L2.822024060150376 -2.746190540540541L2.822024060150376 -2.630590540540541L2.832024060150376 -2.630590540540541L2.832024060150376 -2.6849905405405408C2.83 -2.69 2.83 -2.69 2.83 -2.69C2.84 -2.71 2.84 -2.72 2.85 -2.73C2.85 -2.73 2.86 -2.73 2.86 -2.74L2.8646240601503754 -2.746390540540541C2.86 -2.74 2.85 -2.74 2.84 -2.74ZM2.98 -2.69C2.98 -2.7 2.98 -2.71 2.97 -2.73C2.96 -2.74 2.95 -2.75 2.94 -2.75C2.94 -2.75 2.94 -2.75 2.93 -2.75C2.92 -2.75 2.91 -2.74 2.9 -2.74C2.89 -2.72 2.88 -2.71 2.88 -2.69C2.88 -2.69 2.88 -2.69 2.88 -2.69L2.880824060150376 -2.687790540540541L2.880824060150376 -2.683590540540541C2.88 -2.66 2.89 -2.65 2.9 -2.64C2.91 -2.63 2.92 -2.63 2.94 -2.63C2.94 -2.63 2.95 -2.63 2.95 -2.63C2.96 -2.63 2.97 -2.63 2.98 -2.63C2.98 -2.63 2.98 -2.63 2.98 -2.64L2.9754240601503756 -2.643590540540541C2.97 -2.64 2.96 -2.64 2.96 -2.64C2.95 -2.64 2.94 -2.64 2.94 -2.64C2.93 -2.64 2.92 -2.64 2.91 -2.65C2.9 -2.66 2.89 -2.67 2.89 -2.68C2.89 -2.68 2.89 -2.69 2.89 -2.69L2.891024060150376 -2.688390540540541L2.9812240601503754 -2.688390540540541ZM2.93 -2.74C2.95 -2.74 2.96 -2.73 2.96 -2.72C2.97 -2.71 2.97 -2.71 2.97 -2.7L2.891424060150376 -2.698390540540541C2.89 -2.71 2.9 -2.72 2.91 -2.73C2.92 -2.73 2.92 -2.74 2.93 -2.74Z" stroke="none" fill="#FFFFFF"/>
  <path d="M1.79 -3.05L1.7890526315789472 -3.28460945945946L1.7686526315789473 -3.28460945945946L1.7154526315789473 -3.24780945945946C1.72 -3.24 1.72 -3.24 1.73 -3.23C1.73 -3.23 1.74 -3.24 1.77 -3.26L1.7686526315789473 -3.05300945945946L1.7890526315789472 -3.05300945945946ZM1.97 -3.29C1.94 -3.29 1.92 -3.28 1.9 -3.25C1.88 -3.23 1.87 -3.2 1.87 -3.17C1.87 -3.13 1.88 -3.1 1.89 -3.08C1.91 -3.06 1.94 -3.05 1.97 -3.05C2.01 -3.05 2.03 -3.06 2.05 -3.08C2.07 -3.1 2.08 -3.13 2.08 -3.17C2.08 -3.2 2.07 -3.23 2.05 -3.25C2.02 -3.28 2 -3.29 1.97 -3.29ZM1.97 -3.07C1.95 -3.07 1.93 -3.08 1.91 -3.09C1.89 -3.11 1.89 -3.14 1.89 -3.17C1.89 -3.2 1.89 -3.22 1.91 -3.24C1.93 -3.26 1.95 -3.27 1.97 -3.27C1.99 -3.27 2.01 -3.26 2.03 -3.24C2.05 -3.22 2.06 -3.2 2.06 -3.17C2.06 -3.14 2.05 -3.11 2.03 -3.1C2.02 -3.08 2 -3.07 1.97 -3.07ZM2.19 -3.05L2.1922526315789472 -3.28460945945946L2.1718526315789473 -3.28460945945946L2.1186526315789473 -3.24780945945946C2.12 -3.24 2.13 -3.24 2.13 -3.23C2.13 -3.23 2.15 -3.24 2.17 -3.26L2.1718526315789473 -3.05300945945946L2.1922526315789472 -3.05300945945946ZM2.29 -3.08L2.314252631578947 -3.0810094594594597L2.314252631578947 -3.05300945945946L2.2862526315789475 -3.05300945945946L2.2862526315789475 -3.0810094594594597ZM2.52 -3.11C2.52 -3.14 2.51 -3.16 2.48 -3.17L2.476652631578947 -3.17340945945946L2.476652631578947 -3.17500945945946L2.476652631578947 -3.17500945945946C2.5 -3.19 2.52 -3.2 2.52 -3.23C2.52 -3.24 2.51 -3.25 2.51 -3.26C2.5 -3.28 2.48 -3.29 2.45 -3.29C2.41 -3.29 2.39 -3.27 2.38 -3.24C2.38 -3.24 2.38 -3.24 2.4 -3.23C2.4 -3.26 2.42 -3.27 2.45 -3.27C2.48 -3.27 2.49 -3.26 2.49 -3.23C2.49 -3.21 2.49 -3.19 2.47 -3.19C2.46 -3.19 2.45 -3.19 2.44 -3.19L2.4298526315789477 -3.1854094594594597L2.4298526315789477 -3.16380945945946L2.4326526315789474 -3.16420945945946L2.445052631578947 -3.16380945945946C2.46 -3.16 2.48 -3.16 2.49 -3.15C2.5 -3.13 2.5 -3.12 2.5 -3.1C2.5 -3.08 2.5 -3.07 2.5 -3.06C2.49 -3.05 2.49 -3.04 2.48 -3.04C2.47 -3.02 2.45 -3.01 2.42 -3.01C2.41 -3.01 2.39 -3.01 2.37 -3.02L2.3678526315789474 -2.99820945945946C2.39 -3 2.4 -2.99 2.42 -2.99C2.45 -2.99 2.47 -3 2.49 -3.02C2.51 -3.03 2.52 -3.06 2.52 -3.11ZM2.89 -3.18L2.991052631578947 -3.28460945945946L2.9622526315789477 -3.28460945945946L2.862652631578947 -3.1866094594594596L2.862652631578947 -3.4210094594594596L2.8426526315789475 -3.4210094594594596L2.8426526315789475 -3.0526094594594597L2.862652631578947 -3.0526094594594597L2.862652631578947 -3.15820945945946L2.8746526315789476 -3.1706094594594596C2.91 -3.13 2.95 -3.09 2.98 -3.05L3.0034526315789476 -3.05300945945946C2.97 -3.1 2.93 -3.14 2.89 -3.18ZM3.25 -3.28C3.25 -3.28 3.25 -3.28 3.25 -3.29C3.25 -3.3 3.25 -3.32 3.24 -3.33C3.23 -3.34 3.23 -3.35 3.21 -3.36C3.19 -3.37 3.17 -3.38 3.14 -3.38C3.13 -3.38 3.1 -3.38 3.06 -3.37L3.056652631578947 -3.05180945945946L3.0766526315789475 -3.05180945945946L3.0766526315789475 -3.16620945945946C3.1 -3.16 3.12 -3.16 3.14 -3.16C3.16 -3.16 3.19 -3.17 3.21 -3.19C3.24 -3.21 3.25 -3.23 3.25 -3.26C3.25 -3.26 3.25 -3.27 3.25 -3.27L3.2522526315789477 -3.27860945945946ZM3.23 -3.27C3.23 -3.27 3.23 -3.26 3.23 -3.26C3.23 -3.24 3.22 -3.22 3.2 -3.2C3.18 -3.19 3.16 -3.18 3.14 -3.18C3.13 -3.18 3.11 -3.18 3.08 -3.19L3.0766526315789475 -3.24900945945946L3.0766526315789475 -3.24900945945946L3.0766526315789475 -3.25220945945946C3.08 -3.26 3.08 -3.26 3.08 -3.26L3.0766526315789475 -3.2662094594594597L3.0766526315789475 -3.2662094594594597L3.0766526315789475 -3.3550094594594597C3.1 -3.36 3.12 -3.36 3.14 -3.36C3.16 -3.36 3.19 -3.35 3.2 -3.34C3.22 -3.33 3.23 -3.31 3.23 -3.28C3.23 -3.28 3.23 -3.28 3.23 -3.27ZM3.42 -3.29C3.39 -3.29 3.36 -3.28 3.34 -3.26C3.32 -3.24 3.3 -3.22 3.3 -3.18C3.3 -3.17 3.3 -3.17 3.3 -3.16C3.3 -3.13 3.3 -3.1 3.32 -3.08C3.34 -3.06 3.36 -3.04 3.39 -3.04C3.42 -3.04 3.44 -3.05 3.46 -3.07C3.46 -3.08 3.47 -3.09 3.48 -3.09L3.477452631578948 -3.07900945945946L3.477452631578948 -3.07900945945946L3.477452631578948 -3.07900945945946L3.477452631578948 -3.05300945945946L3.4974526315789474 -3.05300945945946L3.4974526315789474 -3.2822094594594597C3.47 -3.29 3.44 -3.29 3.42 -3.29ZM3.48 -3.16C3.48 -3.13 3.47 -3.11 3.45 -3.09C3.43 -3.07 3.41 -3.07 3.39 -3.07C3.37 -3.07 3.35 -3.08 3.33 -3.11C3.32 -3.12 3.32 -3.14 3.32 -3.16C3.32 -3.17 3.32 -3.19 3.33 -3.21C3.33 -3.22 3.34 -3.24 3.35 -3.25C3.37 -3.26 3.39 -3.27 3.41 -3.27C3.42 -3.27 3.44 -3.27 3.48 -3.26L3.477452631578948 -3.1618094594594597Z" stroke="none" fill="#FFFFFF"/>
  <path d="M1.32 -3.72L3.8974526315789477 -3.72100945945946L3.8974526315789477 -2.326390540540541L1.3154526315789474 -2.326390540540541Z" stroke="none" fill="none"/>
  <path d="M4.2 -3.79L6.509452631578948 -3.7901000000000007L6.509452631578948 -2.2573000000000003L4.197452631578947 -2.2573000000000003Z" stroke="none" fill="#33B34D"/>
  <path d="M5.04 -2.78L5.110824060150375 -2.7753000000000005L5.110824060150375 -2.7853000000000003L5.040624060150376 -2.7853000000000003L5.040624060150376 -2.7853000000000003L5.030624060150376 -2.7853000000000003L5.030624060150376 -2.6257L5.110624060150376 -2.6257L5.110624060150376 -2.6355000000000004L5.040624060150376 -2.6353000000000004L5.040624060150376 -2.6883000000000004L5.040624060150376 -2.6883000000000004L5.040624060150376 -2.6883000000000004L5.040624060150376 -2.7077000000000004L5.110824060150375 -2.7077000000000004L5.110824060150375 -2.7177000000000002L5.040624060150376 -2.7177000000000002L5.040624060150376 -2.7753000000000005ZM5.23 -2.72C5.23 -2.73 5.23 -2.73 5.22 -2.74C5.22 -2.74 5.21 -2.74 5.2 -2.74C5.2 -2.74 5.2 -2.74 5.19 -2.74C5.18 -2.74 5.18 -2.74 5.17 -2.74C5.16 -2.73 5.15 -2.73 5.15 -2.72L5.1500240601503755 -2.7413000000000003L5.140024060150376 -2.7413000000000003L5.140024060150376 -2.6257L5.1500240601503755 -2.6257L5.1500240601503755 -2.6889000000000003C5.15 -2.7 5.16 -2.71 5.17 -2.72C5.17 -2.73 5.18 -2.73 5.19 -2.73C5.19 -2.73 5.2 -2.73 5.2 -2.73C5.21 -2.73 5.21 -2.73 5.21 -2.73C5.22 -2.73 5.22 -2.72 5.22 -2.72C5.23 -2.71 5.23 -2.7 5.23 -2.69L5.2304240601503755 -2.6881000000000004L5.2304240601503755 -2.6257L5.240824060150376 -2.6257L5.240824060150376 -2.6881000000000004C5.24 -2.7 5.24 -2.71 5.23 -2.72ZM5.33 -2.74C5.31 -2.74 5.3 -2.74 5.29 -2.73C5.28 -2.72 5.27 -2.71 5.27 -2.69C5.27 -2.69 5.27 -2.68 5.27 -2.68C5.27 -2.66 5.27 -2.65 5.28 -2.64C5.29 -2.63 5.3 -2.62 5.31 -2.62C5.33 -2.62 5.34 -2.63 5.35 -2.63C5.35 -2.64 5.35 -2.64 5.36 -2.65L5.356824060150376 -2.6389000000000005L5.356824060150376 -2.6389000000000005L5.356824060150376 -2.6389000000000005L5.356824060150376 -2.6243000000000003L5.356824060150376 -2.6179C5.36 -2.6 5.35 -2.59 5.34 -2.58C5.33 -2.57 5.32 -2.57 5.31 -2.57C5.31 -2.57 5.3 -2.57 5.29 -2.57L5.285224060150376 -2.5597000000000003C5.3 -2.56 5.3 -2.56 5.31 -2.56C5.31 -2.56 5.32 -2.56 5.32 -2.56C5.33 -2.56 5.34 -2.56 5.35 -2.57C5.36 -2.58 5.37 -2.6 5.37 -2.62C5.37 -2.63 5.37 -2.64 5.37 -2.65L5.366824060150376 -2.7411000000000003C5.35 -2.74 5.34 -2.74 5.33 -2.74ZM5.36 -2.68C5.36 -2.66 5.35 -2.65 5.34 -2.64C5.33 -2.64 5.32 -2.63 5.31 -2.63C5.3 -2.63 5.29 -2.64 5.28 -2.65C5.28 -2.66 5.28 -2.67 5.28 -2.68C5.28 -2.69 5.28 -2.69 5.28 -2.7C5.28 -2.71 5.29 -2.72 5.29 -2.72C5.3 -2.73 5.31 -2.73 5.33 -2.73C5.33 -2.73 5.34 -2.73 5.36 -2.73C5.36 -2.73 5.36 -2.71 5.36 -2.68ZM5.4 -2.74L5.404024060150376 -2.6255L5.414024060150376 -2.6255L5.414024060150376 -2.7415000000000003L5.404024060150376 -2.7415000000000003ZM5.41 -2.77L5.404024060150376 -2.7709L5.404024060150376 -2.7609000000000004L5.414024060150376 -2.7609000000000004L5.414024060150376 -2.7709ZM5.55 -2.72C5.54 -2.73 5.54 -2.73 5.53 -2.74C5.53 -2.74 5.52 -2.74 5.51 -2.74C5.51 -2.74 5.51 -2.74 5.5 -2.74C5.5 -2.74 5.49 -2.74 5.48 -2.74C5.47 -2.73 5.47 -2.73 5.46 -2.72L5.462224060150376 -2.7413000000000003L5.4522240601503755 -2.7413000000000003L5.4522240601503755 -2.6257L5.462224060150376 -2.6257L5.462224060150376 -2.6889000000000003C5.46 -2.7 5.47 -2.71 5.48 -2.72C5.49 -2.73 5.5 -2.73 5.51 -2.73C5.51 -2.73 5.51 -2.73 5.51 -2.73C5.52 -2.73 5.52 -2.73 5.53 -2.73C5.53 -2.73 5.53 -2.72 5.54 -2.72C5.54 -2.71 5.54 -2.7 5.54 -2.69L5.542624060150376 -2.6881000000000004L5.542624060150376 -2.6257L5.553024060150376 -2.6257L5.553024060150376 -2.6881000000000004C5.55 -2.7 5.55 -2.71 5.55 -2.72ZM5.68 -2.68C5.68 -2.7 5.67 -2.71 5.67 -2.72C5.66 -2.73 5.65 -2.74 5.64 -2.74C5.63 -2.74 5.63 -2.74 5.63 -2.74C5.62 -2.74 5.61 -2.74 5.6 -2.73C5.58 -2.72 5.58 -2.71 5.58 -2.69C5.58 -2.69 5.58 -2.69 5.58 -2.69L5.575824060150376 -2.6829L5.575824060150376 -2.6787C5.58 -2.66 5.58 -2.65 5.6 -2.64C5.61 -2.63 5.62 -2.62 5.63 -2.62C5.64 -2.62 5.64 -2.62 5.64 -2.62C5.65 -2.62 5.66 -2.63 5.67 -2.63C5.67 -2.63 5.67 -2.63 5.67 -2.63L5.670424060150376 -2.6387C5.66 -2.64 5.66 -2.63 5.65 -2.63C5.65 -2.63 5.64 -2.63 5.63 -2.63C5.62 -2.63 5.61 -2.64 5.6 -2.64C5.59 -2.65 5.59 -2.66 5.59 -2.68C5.59 -2.68 5.59 -2.68 5.59 -2.68L5.5860240601503754 -2.6835000000000004L5.676224060150376 -2.6835000000000004ZM5.63 -2.73C5.64 -2.73 5.65 -2.73 5.66 -2.71C5.66 -2.71 5.66 -2.7 5.67 -2.69L5.586424060150375 -2.6935000000000002C5.59 -2.7 5.59 -2.71 5.6 -2.72C5.61 -2.73 5.62 -2.73 5.63 -2.73Z" stroke="none" fill="#FFFFFF"/>
  <path d="M4.73 -3.45C4.69 -3.45 4.66 -3.43 4.63 -3.4C4.61 -3.37 4.6 -3.33 4.6 -3.28C4.6 -3.24 4.61 -3.2 4.63 -3.17C4.66 -3.13 4.69 -3.12 4.73 -3.12C4.77 -3.12 4.81 -3.13 4.84 -3.17C4.86 -3.2 4.88 -3.24 4.88 -3.28C4.88 -3.33 4.86 -3.37 4.84 -3.4C4.81 -3.43 4.77 -3.45 4.73 -3.45ZM4.73 -3.14C4.7 -3.14 4.67 -3.15 4.65 -3.18C4.63 -3.21 4.62 -3.24 4.62 -3.28C4.62 -3.32 4.63 -3.36 4.65 -3.38C4.67 -3.41 4.7 -3.43 4.73 -3.43C4.77 -3.43 4.8 -3.41 4.82 -3.38C4.84 -3.36 4.86 -3.32 4.86 -3.28C4.86 -3.24 4.84 -3.21 4.82 -3.18C4.8 -3.15 4.77 -3.14 4.73 -3.14ZM5.13 -3.25C5.13 -3.29 5.12 -3.32 5.09 -3.34C5.07 -3.35 5.05 -3.36 5.02 -3.36C5.02 -3.36 5.02 -3.36 5.01 -3.36C5 -3.36 4.98 -3.36 4.93 -3.35L4.933852631578947 -2.9853000000000005L4.953852631578947 -2.9853000000000005L4.953852631578947 -3.1205000000000003C4.98 -3.12 5 -3.12 5.01 -3.12C5.04 -3.12 5.07 -3.13 5.09 -3.14C5.11 -3.16 5.13 -3.19 5.13 -3.23C5.13 -3.23 5.13 -3.23 5.13 -3.24C5.13 -3.24 5.13 -3.24 5.13 -3.25C5.13 -3.25 5.13 -3.25 5.13 -3.25ZM5.11 -3.24C5.11 -3.23 5.11 -3.23 5.11 -3.23C5.1 -3.19 5.09 -3.17 5.08 -3.16C5.06 -3.14 5.04 -3.13 5.02 -3.14C5.01 -3.14 4.99 -3.14 4.95 -3.14L4.953852631578947 -3.2289000000000003L4.953852631578947 -3.2289000000000003L4.953852631578947 -3.2321000000000004L4.953852631578947 -3.2433000000000005L4.953852631578947 -3.2461L4.953852631578947 -3.2461L4.953852631578947 -3.3349C4.98 -3.34 5 -3.34 5.02 -3.34C5.04 -3.34 5.07 -3.33 5.08 -3.32C5.1 -3.3 5.11 -3.28 5.11 -3.25C5.11 -3.25 5.11 -3.24 5.11 -3.24ZM5.23 -3.14C5.23 -3.15 5.22 -3.16 5.22 -3.18C5.22 -3.19 5.22 -3.2 5.22 -3.23C5.22 -3.27 5.22 -3.3 5.22 -3.33L5.269452631578948 -3.3337000000000003L5.269452631578948 -3.3537000000000003L5.217852631578947 -3.3537000000000003L5.217852631578947 -3.3925L5.1978526315789475 -3.3925L5.1978526315789475 -3.3537000000000003L5.164252631578948 -3.3537000000000003L5.164252631578948 -3.3337000000000003L5.1978526315789475 -3.3337000000000003C5.2 -3.3 5.2 -3.27 5.2 -3.23C5.2 -3.2 5.2 -3.18 5.2 -3.17C5.2 -3.15 5.21 -3.14 5.22 -3.13C5.22 -3.13 5.23 -3.12 5.25 -3.12C5.25 -3.12 5.26 -3.12 5.28 -3.12L5.275852631578947 -3.1369000000000002C5.25 -3.14 5.24 -3.14 5.23 -3.14ZM5.33 -3.35L5.325852631578948 -3.1221000000000005L5.345852631578947 -3.1221000000000005L5.345852631578947 -3.3541000000000003L5.325852631578948 -3.3541000000000003ZM5.35 -3.41L5.325852631578948 -3.4129000000000005L5.325852631578948 -3.3929000000000005L5.345852631578947 -3.3929000000000005L5.345852631578947 -3.4129000000000005ZM5.76 -3.32C5.75 -3.34 5.72 -3.36 5.69 -3.36C5.69 -3.36 5.68 -3.36 5.68 -3.36C5.66 -3.36 5.64 -3.35 5.62 -3.34C5.61 -3.33 5.6 -3.32 5.6 -3.31C5.59 -3.34 5.56 -3.36 5.53 -3.36C5.52 -3.36 5.52 -3.36 5.51 -3.36C5.49 -3.36 5.46 -3.35 5.44 -3.33L5.442652631578947 -3.3541000000000003L5.422652631578948 -3.3541000000000003L5.422652631578948 -3.1225000000000005L5.442652631578947 -3.1225000000000005L5.442652631578947 -3.2897000000000003C5.45 -3.3 5.45 -3.31 5.46 -3.32C5.48 -3.33 5.5 -3.34 5.52 -3.34C5.54 -3.34 5.56 -3.33 5.57 -3.31C5.58 -3.29 5.58 -3.27 5.58 -3.25L5.583452631578948 -3.1221000000000005L5.604252631578947 -3.1221000000000005L5.604252631578947 -3.2477C5.6 -3.26 5.6 -3.26 5.6 -3.27C5.61 -3.29 5.62 -3.31 5.63 -3.32C5.65 -3.33 5.66 -3.34 5.68 -3.34C5.71 -3.34 5.73 -3.33 5.74 -3.31C5.75 -3.29 5.75 -3.27 5.75 -3.25L5.749452631578947 -3.1221000000000005L5.7702526315789475 -3.1221000000000005L5.7702526315789475 -3.2477C5.77 -3.28 5.77 -3.31 5.76 -3.32ZM5.94 -3.36C5.91 -3.36 5.89 -3.35 5.87 -3.33C5.84 -3.31 5.83 -3.28 5.82 -3.25C5.82 -3.24 5.82 -3.24 5.82 -3.23C5.82 -3.2 5.83 -3.17 5.85 -3.15C5.86 -3.13 5.89 -3.11 5.92 -3.11C5.94 -3.11 5.96 -3.12 5.98 -3.14C5.99 -3.15 6 -3.15 6 -3.16L6.001852631578947 -3.1485000000000003L6.001852631578947 -3.1485000000000003L6.001852631578947 -3.1485000000000003L6.001852631578947 -3.1225000000000005L6.021852631578947 -3.1225000000000005L6.021852631578947 -3.3517C5.99 -3.36 5.96 -3.36 5.94 -3.36ZM6 -3.23C6 -3.2 5.99 -3.18 5.97 -3.16C5.95 -3.14 5.93 -3.13 5.92 -3.13C5.89 -3.13 5.87 -3.15 5.85 -3.17C5.85 -3.19 5.84 -3.21 5.84 -3.23C5.84 -3.24 5.84 -3.26 5.85 -3.28C5.86 -3.29 5.87 -3.31 5.88 -3.32C5.89 -3.33 5.92 -3.34 5.94 -3.34C5.95 -3.34 5.97 -3.34 6 -3.33L6.001852631578947 -3.2313ZM6.09 -3.12L6.1094526315789475 -3.1217000000000006L6.1094526315789475 -3.4901000000000004L6.089452631578947 -3.4901000000000004L6.089452631578947 -3.1217000000000006Z" stroke="none" fill="#FFFFFF"/>
  <path d="M4.2 -3.79L6.509452631578948 -3.7901000000000007L6.509452631578948 -2.2573000000000003L4.197452631578947 -2.2573000000000003Z" stroke="none" fill="none"/>
  <path d="M-1.02 -5.43L0.37785263157894766 -5.430300000000001L0.37785263157894766 -4.1131L-1.0243999999999998 -4.1131Z" stroke="none" fill="#E6991A"/>
  <path d="M-0.49 -4.57L-0.42317368421052604 -4.5665000000000004L-0.42317368421052604 -4.576500000000001L-0.4933736842105261 -4.576500000000001L-0.4933736842105261 -4.576500000000001L-0.5033736842105261 -4.576500000000001L-0.5033736842105261 -4.4169L-0.4933736842105261 -4.4169L-0.4933736842105261 -4.4795L-0.4933736842105261 -4.4795L-0.4933736842105261 -4.4795L-0.4933736842105261 -4.498900000000001L-0.42317368421052604 -4.498900000000001L-0.42317368421052604 -4.508900000000001L-0.4933736842105261 -4.508900000000001L-0.4933736842105261 -4.5665000000000004ZM-0.32 -4.53L-0.3193736842105259 -4.4491000000000005C-0.32 -4.44 -0.32 -4.44 -0.33 -4.43C-0.34 -4.43 -0.35 -4.42 -0.36 -4.42C-0.37 -4.42 -0.38 -4.43 -0.38 -4.44C-0.39 -4.45 -0.39 -4.46 -0.39 -4.47L-0.38957368421052596 -4.532300000000001L-0.3999736842105259 -4.532300000000001L-0.3999736842105259 -4.4697000000000005C-0.4 -4.45 -0.4 -4.44 -0.39 -4.43C-0.39 -4.42 -0.38 -4.42 -0.36 -4.41C-0.36 -4.41 -0.36 -4.41 -0.35 -4.41C-0.34 -4.41 -0.33 -4.42 -0.32 -4.43L-0.3193736842105259 -4.4169L-0.3095736842105259 -4.4169L-0.3095736842105259 -4.532300000000001L-0.3193736842105259 -4.532300000000001ZM-0.18 -4.47C-0.18 -4.49 -0.19 -4.5 -0.19 -4.51C-0.2 -4.52 -0.21 -4.53 -0.22 -4.53C-0.23 -4.53 -0.23 -4.53 -0.23 -4.53C-0.24 -4.53 -0.25 -4.53 -0.26 -4.52C-0.27 -4.51 -0.28 -4.5 -0.28 -4.48C-0.28 -4.48 -0.28 -4.48 -0.28 -4.48L-0.2833736842105259 -4.4741L-0.2833736842105259 -4.469900000000001C-0.28 -4.45 -0.27 -4.44 -0.26 -4.43C-0.25 -4.42 -0.24 -4.41 -0.23 -4.41C-0.22 -4.41 -0.22 -4.41 -0.21 -4.41C-0.21 -4.42 -0.2 -4.42 -0.19 -4.42C-0.19 -4.42 -0.19 -4.42 -0.19 -4.42L-0.18877368421052587 -4.4299C-0.2 -4.43 -0.2 -4.43 -0.21 -4.43C-0.21 -4.42 -0.22 -4.42 -0.23 -4.42C-0.24 -4.42 -0.25 -4.43 -0.26 -4.43C-0.26 -4.44 -0.27 -4.45 -0.27 -4.47C-0.27 -4.47 -0.27 -4.47 -0.27 -4.47L-0.2731736842105259 -4.4747L-0.18297368421052607 -4.4747ZM-0.23 -4.52C-0.22 -4.52 -0.21 -4.52 -0.2 -4.5C-0.2 -4.5 -0.19 -4.49 -0.19 -4.48L-0.27277368421052595 -4.4847C-0.27 -4.5 -0.27 -4.51 -0.26 -4.51C-0.25 -4.52 -0.24 -4.52 -0.23 -4.52ZM-0.15 -4.42L-0.143173684210526 -4.416500000000001L-0.143173684210526 -4.600700000000001L-0.15317368421052602 -4.600700000000001L-0.15317368421052602 -4.416500000000001Z" stroke="none" fill="#FFFFFF"/>
  <path d="M-0.51 -4.97C-0.49 -4.98 -0.49 -5 -0.49 -5.03C-0.48 -5.04 -0.49 -5.06 -0.5 -5.07C-0.51 -5.09 -0.53 -5.1 -0.54 -5.1L-0.5425473684210522 -5.097100000000001C-0.56 -5.1 -0.57 -5.09 -0.58 -5.08C-0.6 -5.07 -0.61 -5.05 -0.61 -5.03C-0.61 -5 -0.6 -4.98 -0.58 -4.97C-0.59 -4.96 -0.6 -4.95 -0.61 -4.94C-0.62 -4.93 -0.62 -4.91 -0.62 -4.9C-0.63 -4.87 -0.62 -4.85 -0.61 -4.83C-0.59 -4.81 -0.57 -4.8 -0.55 -4.8C-0.53 -4.8 -0.51 -4.81 -0.49 -4.82C-0.48 -4.84 -0.47 -4.86 -0.47 -4.89C-0.46 -4.9 -0.47 -4.92 -0.48 -4.94C-0.48 -4.95 -0.49 -4.96 -0.51 -4.97L-0.5089473684210524 -4.971900000000001ZM-0.49 -4.89C-0.49 -4.87 -0.5 -4.85 -0.51 -4.84C-0.52 -4.83 -0.53 -4.82 -0.55 -4.83C-0.57 -4.83 -0.58 -4.83 -0.59 -4.85C-0.6 -4.86 -0.6 -4.88 -0.6 -4.9C-0.6 -4.92 -0.59 -4.93 -0.58 -4.95C-0.57 -4.96 -0.55 -4.96 -0.54 -4.96C-0.53 -4.96 -0.51 -4.95 -0.5 -4.94C-0.49 -4.92 -0.49 -4.91 -0.49 -4.89ZM-0.59 -5.03C-0.58 -5.04 -0.58 -5.05 -0.57 -5.06C-0.56 -5.07 -0.55 -5.08 -0.54 -5.08C-0.53 -5.07 -0.52 -5.07 -0.52 -5.06C-0.51 -5.05 -0.51 -5.04 -0.51 -5.03C-0.51 -5.01 -0.51 -5.01 -0.52 -5C-0.52 -4.99 -0.53 -4.98 -0.54 -4.98C-0.54 -4.98 -0.55 -4.98 -0.55 -4.98C-0.56 -4.98 -0.57 -4.99 -0.58 -5C-0.58 -5.01 -0.59 -5.02 -0.59 -5.03L-0.5857473684210524 -5.0307ZM-0.39 -4.98C-0.39 -5 -0.39 -5.01 -0.38 -5.02C-0.37 -5.02 -0.36 -5.03 -0.34 -5.03C-0.33 -5.03 -0.32 -5.02 -0.31 -5.02C-0.3 -5.01 -0.29 -5 -0.29 -4.98C-0.29 -4.96 -0.31 -4.94 -0.34 -4.91L-0.41854736842105233 -4.822700000000001L-0.41854736842105233 -4.805900000000001L-0.2729473684210524 -4.805900000000001L-0.2729473684210524 -4.823500000000001C-0.28 -4.82 -0.31 -4.82 -0.37 -4.82L-0.39494736842105227 -4.822700000000001L-0.3253473684210524 -4.8947C-0.31 -4.91 -0.29 -4.93 -0.28 -4.95C-0.28 -4.96 -0.27 -4.97 -0.27 -4.98C-0.27 -5 -0.28 -5.01 -0.29 -5.02C-0.31 -5.04 -0.32 -5.04 -0.34 -5.04C-0.37 -5.04 -0.39 -5.03 -0.4 -5.02C-0.41 -5.01 -0.41 -5 -0.42 -4.98C-0.41 -4.98 -0.4 -4.98 -0.39 -4.98ZM-0.17 -4.81L-0.04054736842105244 -5.1303L-0.062147368421052285 -5.1303L-0.19534736842105227 -4.8055L-0.17334736842105225 -4.8055ZM-0.06 -4.88C-0.08 -4.88 -0.09 -4.88 -0.09 -4.87C-0.1 -4.86 -0.11 -4.85 -0.11 -4.84C-0.11 -4.83 -0.1 -4.82 -0.09 -4.81C-0.09 -4.8 -0.08 -4.8 -0.06 -4.8C-0.05 -4.8 -0.04 -4.8 -0.03 -4.81C-0.03 -4.82 -0.02 -4.83 -0.02 -4.84C-0.02 -4.85 -0.03 -4.86 -0.03 -4.87C-0.04 -4.88 -0.05 -4.88 -0.06 -4.88ZM-0.18 -5.12C-0.19 -5.12 -0.2 -5.12 -0.2 -5.11C-0.21 -5.1 -0.22 -5.09 -0.22 -5.08C-0.22 -5.07 -0.21 -5.06 -0.2 -5.05C-0.2 -5.04 -0.19 -5.04 -0.18 -5.04C-0.16 -5.04 -0.15 -5.04 -0.15 -5.05C-0.14 -5.06 -0.13 -5.07 -0.13 -5.08C-0.13 -5.09 -0.14 -5.1 -0.15 -5.11C-0.15 -5.12 -0.16 -5.12 -0.18 -5.12ZM-0.18 -5.06C-0.18 -5.06 -0.19 -5.06 -0.19 -5.07C-0.2 -5.07 -0.2 -5.08 -0.2 -5.08C-0.2 -5.09 -0.2 -5.1 -0.19 -5.1C-0.19 -5.1 -0.18 -5.11 -0.18 -5.11C-0.17 -5.11 -0.16 -5.1 -0.16 -5.1C-0.15 -5.1 -0.15 -5.09 -0.15 -5.08C-0.15 -5.08 -0.15 -5.07 -0.16 -5.07C-0.16 -5.06 -0.17 -5.06 -0.18 -5.06ZM-0.06 -4.82C-0.07 -4.82 -0.08 -4.82 -0.08 -4.83C-0.09 -4.83 -0.09 -4.84 -0.09 -4.84C-0.09 -4.85 -0.09 -4.86 -0.08 -4.86C-0.08 -4.86 -0.07 -4.87 -0.06 -4.87C-0.06 -4.87 -0.05 -4.86 -0.05 -4.86C-0.04 -4.86 -0.04 -4.85 -0.04 -4.84C-0.04 -4.84 -0.04 -4.83 -0.05 -4.83C-0.05 -4.82 -0.06 -4.82 -0.06 -4.82Z" stroke="none" fill="#FFFFFF"/>
  <path d="M-1.02 -5.43L0.37785263157894766 -5.430300000000001L0.37785263157894766 -4.1131L-1.0243999999999998 -4.1131Z" stroke="none" fill="none"/>
  <path d="M1.84 -5.45L3.370652631578947 -5.4503L3.370652631578947 -4.093100000000001L1.8422526315789476 -4.093100000000001Z" stroke="none" fill="#8033B3"/>
  <path d="M2.43 -4.62L2.3336859649122808 -4.621500000000001L2.3336859649122808 -4.6115L2.3752859649122806 -4.6115L2.3752859649122806 -4.4617L2.3852859649122804 -4.4617L2.3852859649122804 -4.6115L2.4268859649122803 -4.6115L2.4268859649122803 -4.621500000000001ZM2.54 -4.52C2.55 -4.53 2.54 -4.55 2.53 -4.56C2.53 -4.57 2.52 -4.58 2.5 -4.58C2.5 -4.58 2.5 -4.58 2.5 -4.58C2.48 -4.58 2.47 -4.58 2.46 -4.57C2.45 -4.56 2.45 -4.54 2.44 -4.53C2.44 -4.53 2.44 -4.52 2.44 -4.52L2.444085964912281 -4.5189L2.444085964912281 -4.5147C2.45 -4.5 2.45 -4.48 2.46 -4.47C2.47 -4.46 2.49 -4.46 2.5 -4.46C2.51 -4.46 2.51 -4.46 2.51 -4.46C2.52 -4.46 2.53 -4.46 2.54 -4.46C2.54 -4.46 2.54 -4.47 2.54 -4.47L2.538685964912281 -4.4747C2.53 -4.47 2.52 -4.47 2.52 -4.47C2.52 -4.47 2.51 -4.47 2.5 -4.47C2.49 -4.47 2.48 -4.47 2.47 -4.48C2.46 -4.49 2.46 -4.5 2.45 -4.51C2.45 -4.52 2.45 -4.52 2.45 -4.52L2.4542859649122803 -4.519500000000001L2.5444859649122806 -4.519500000000001ZM2.5 -4.57C2.51 -4.57 2.52 -4.56 2.53 -4.55C2.53 -4.54 2.53 -4.54 2.53 -4.53L2.4546859649122803 -4.5295000000000005C2.46 -4.54 2.46 -4.55 2.47 -4.56C2.48 -4.57 2.49 -4.57 2.5 -4.57ZM2.74 -4.56C2.74 -4.57 2.72 -4.58 2.71 -4.58C2.71 -4.58 2.7 -4.58 2.7 -4.58C2.69 -4.58 2.68 -4.58 2.67 -4.57C2.67 -4.57 2.66 -4.56 2.66 -4.56C2.65 -4.57 2.64 -4.58 2.63 -4.58C2.62 -4.58 2.62 -4.58 2.62 -4.58C2.61 -4.58 2.59 -4.58 2.58 -4.56L2.5836859649122808 -4.577500000000001L2.573685964912281 -4.577500000000001L2.573685964912281 -4.4617L2.5836859649122808 -4.4617L2.5836859649122808 -4.545300000000001C2.59 -4.55 2.59 -4.56 2.59 -4.56C2.6 -4.57 2.61 -4.57 2.62 -4.57C2.63 -4.57 2.64 -4.57 2.65 -4.56C2.65 -4.55 2.65 -4.54 2.65 -4.52L2.654085964912281 -4.461500000000001L2.6644859649122807 -4.461500000000001L2.6644859649122807 -4.5243C2.66 -4.53 2.66 -4.53 2.66 -4.54C2.67 -4.55 2.67 -4.55 2.68 -4.56C2.69 -4.57 2.69 -4.57 2.7 -4.57C2.72 -4.57 2.73 -4.57 2.73 -4.56C2.73 -4.55 2.74 -4.54 2.74 -4.52L2.7370859649122803 -4.461500000000001L2.747485964912281 -4.461500000000001L2.747485964912281 -4.5243C2.75 -4.54 2.75 -4.55 2.74 -4.56ZM2.88 -4.53C2.88 -4.54 2.87 -4.56 2.86 -4.57C2.85 -4.58 2.84 -4.58 2.83 -4.58C2.82 -4.58 2.82 -4.58 2.82 -4.58C2.82 -4.58 2.8 -4.58 2.78 -4.58L2.7812859649122803 -4.3931000000000004L2.791285964912281 -4.3931000000000004L2.791285964912281 -4.460700000000001C2.8 -4.46 2.81 -4.46 2.82 -4.46C2.84 -4.46 2.85 -4.46 2.86 -4.47C2.87 -4.48 2.88 -4.5 2.88 -4.51C2.88 -4.52 2.88 -4.52 2.88 -4.52C2.88 -4.52 2.88 -4.52 2.88 -4.52C2.88 -4.52 2.88 -4.53 2.88 -4.53ZM2.87 -4.52C2.87 -4.52 2.87 -4.52 2.87 -4.51C2.87 -4.5 2.86 -4.49 2.85 -4.48C2.84 -4.47 2.83 -4.47 2.82 -4.47C2.82 -4.47 2.81 -4.47 2.79 -4.47L2.791285964912281 -4.514900000000001L2.791285964912281 -4.514900000000001L2.791285964912281 -4.516500000000001L2.791285964912281 -4.5221L2.791285964912281 -4.5235L2.791285964912281 -4.5235L2.791285964912281 -4.5679C2.8 -4.57 2.81 -4.57 2.82 -4.57C2.84 -4.57 2.85 -4.57 2.86 -4.56C2.86 -4.55 2.87 -4.54 2.87 -4.53C2.87 -4.52 2.87 -4.52 2.87 -4.52Z" stroke="none" fill="#FFFFFF"/>
  <path d="M2.27 -5C2.27 -5.02 2.27 -5.03 2.29 -5.04C2.29 -5.04 2.3 -5.05 2.32 -5.05C2.33 -5.05 2.34 -5.04 2.35 -5.04C2.36 -5.03 2.37 -5.02 2.37 -5C2.37 -4.98 2.35 -4.96 2.33 -4.93L2.2422526315789475 -4.8439000000000005L2.2422526315789475 -4.827100000000001L2.387852631578947 -4.827100000000001L2.387852631578947 -4.8447000000000005C2.38 -4.85 2.35 -4.85 2.3 -4.84L2.265852631578947 -4.8439000000000005L2.3354526315789474 -4.915900000000001C2.36 -4.94 2.37 -4.95 2.38 -4.97C2.38 -4.98 2.39 -4.99 2.39 -5C2.39 -5.02 2.38 -5.03 2.37 -5.05C2.35 -5.06 2.34 -5.06 2.32 -5.06C2.29 -5.06 2.27 -5.06 2.26 -5.04C2.25 -5.03 2.25 -5.02 2.25 -5C2.25 -5 2.26 -5 2.27 -5ZM2.46 -5C2.47 -5.02 2.47 -5.03 2.48 -5.04C2.49 -5.04 2.5 -5.05 2.51 -5.05C2.53 -5.05 2.54 -5.04 2.55 -5.04C2.56 -5.03 2.56 -5.02 2.56 -5C2.56 -4.98 2.55 -4.96 2.52 -4.93L2.4390526315789476 -4.8439000000000005L2.4390526315789476 -4.827100000000001L2.5846526315789475 -4.827100000000001L2.5846526315789475 -4.8447000000000005C2.58 -4.85 2.55 -4.85 2.49 -4.84L2.4626526315789476 -4.8439000000000005L2.532252631578947 -4.915900000000001C2.55 -4.94 2.57 -4.95 2.57 -4.97C2.58 -4.98 2.58 -4.99 2.58 -5C2.58 -5.02 2.58 -5.03 2.56 -5.05C2.55 -5.06 2.53 -5.06 2.51 -5.06C2.49 -5.06 2.47 -5.06 2.46 -5.04C2.45 -5.03 2.45 -5.02 2.44 -5C2.45 -5 2.46 -5 2.46 -5ZM2.68 -5.15C2.67 -5.15 2.66 -5.14 2.65 -5.13C2.65 -5.12 2.64 -5.11 2.64 -5.1C2.64 -5.09 2.65 -5.08 2.65 -5.07C2.66 -5.07 2.67 -5.06 2.68 -5.06C2.69 -5.06 2.7 -5.07 2.71 -5.07C2.72 -5.08 2.72 -5.09 2.72 -5.1C2.72 -5.11 2.72 -5.12 2.71 -5.13C2.7 -5.14 2.69 -5.15 2.68 -5.15ZM2.68 -5.08C2.68 -5.08 2.67 -5.08 2.67 -5.09C2.66 -5.09 2.66 -5.1 2.66 -5.1C2.66 -5.11 2.66 -5.12 2.67 -5.12C2.67 -5.13 2.68 -5.13 2.68 -5.13C2.69 -5.13 2.7 -5.13 2.7 -5.12C2.7 -5.12 2.71 -5.11 2.71 -5.1C2.71 -5.1 2.7 -5.09 2.7 -5.09C2.7 -5.08 2.69 -5.08 2.68 -5.08ZM2.91 -5.13C2.92 -5.13 2.94 -5.13 2.97 -5.13L2.9706526315789477 -5.1471C2.95 -5.15 2.93 -5.15 2.91 -5.15C2.88 -5.15 2.85 -5.14 2.83 -5.13C2.81 -5.12 2.8 -5.1 2.79 -5.09C2.78 -5.07 2.77 -5.04 2.77 -5L2.7710526315789474 -4.9999L2.7710526315789474 -4.985900000000001L2.7710526315789474 -4.9795L2.7710526315789474 -4.972300000000001L2.7714526315789474 -4.972300000000001C2.77 -4.93 2.78 -4.9 2.79 -4.88C2.8 -4.87 2.81 -4.86 2.83 -4.84C2.85 -4.83 2.88 -4.82 2.91 -4.82C2.93 -4.82 2.95 -4.82 2.97 -4.83L2.9706526315789477 -4.8451C2.94 -4.84 2.92 -4.84 2.91 -4.84C2.88 -4.84 2.86 -4.85 2.84 -4.86C2.83 -4.87 2.82 -4.88 2.81 -4.89C2.8 -4.91 2.79 -4.94 2.79 -4.98L2.791852631578947 -4.9861L2.791852631578947 -4.995900000000001C2.79 -5.03 2.8 -5.06 2.81 -5.08C2.82 -5.09 2.83 -5.1 2.84 -5.11C2.86 -5.13 2.88 -5.13 2.91 -5.13Z" stroke="none" fill="#FFFFFF"/>
  <path d="M1.84 -5.45L3.370652631578947 -5.4503L3.370652631578947 -4.093100000000001L1.8422526315789476 -4.093100000000001Z" stroke="none" fill="none"/>
  <path d="M4.27 -5.45L6.437052631578948 -5.4533000000000005L6.437052631578948 -4.0901000000000005L4.269852631578947 -4.0901000000000005Z" stroke="none" fill="#1AB3CC"/>
  <path d="M5.16 -4.55C5.17 -4.55 5.18 -4.55 5.19 -4.54L5.191052631578947 -4.5543000000000005C5.18 -4.56 5.17 -4.56 5.16 -4.56C5.14 -4.56 5.13 -4.55 5.12 -4.55C5.11 -4.54 5.11 -4.53 5.1 -4.53C5.1 -4.51 5.09 -4.5 5.09 -4.48L5.091252631578947 -4.480700000000001L5.091252631578947 -4.473700000000001L5.091252631578947 -4.4705L5.091252631578947 -4.466900000000001L5.091452631578947 -4.466900000000001C5.09 -4.45 5.1 -4.43 5.1 -4.42C5.11 -4.42 5.11 -4.41 5.12 -4.4C5.13 -4.4 5.14 -4.39 5.16 -4.39C5.17 -4.39 5.18 -4.39 5.19 -4.39L5.191052631578947 -4.4033C5.18 -4.4 5.17 -4.4 5.16 -4.4C5.15 -4.4 5.14 -4.4 5.13 -4.41C5.12 -4.42 5.11 -4.42 5.11 -4.43C5.11 -4.44 5.1 -4.45 5.1 -4.47L5.101652631578947 -4.473800000000001L5.101652631578947 -4.4787C5.1 -4.5 5.11 -4.51 5.11 -4.52C5.11 -4.53 5.12 -4.53 5.13 -4.54C5.14 -4.54 5.15 -4.55 5.16 -4.55ZM5.27 -4.51C5.26 -4.51 5.25 -4.51 5.23 -4.5C5.22 -4.49 5.22 -4.48 5.21 -4.46C5.21 -4.45 5.21 -4.45 5.21 -4.45C5.21 -4.43 5.22 -4.42 5.22 -4.41C5.23 -4.4 5.25 -4.39 5.26 -4.39C5.27 -4.39 5.28 -4.39 5.29 -4.4C5.3 -4.41 5.3 -4.41 5.3 -4.41L5.3026526315789475 -4.4073L5.3026526315789475 -4.4073L5.3026526315789475 -4.4073L5.3026526315789475 -4.3943L5.312652631578947 -4.3943L5.312652631578947 -4.508900000000001C5.3 -4.51 5.28 -4.51 5.27 -4.51ZM5.3 -4.45C5.3 -4.43 5.3 -4.42 5.29 -4.41C5.28 -4.4 5.27 -4.4 5.26 -4.4C5.25 -4.4 5.24 -4.41 5.23 -4.42C5.22 -4.43 5.22 -4.44 5.22 -4.45C5.22 -4.45 5.22 -4.46 5.23 -4.47C5.23 -4.48 5.23 -4.49 5.24 -4.49C5.25 -4.5 5.26 -4.5 5.27 -4.5C5.27 -4.5 5.29 -4.5 5.3 -4.5L5.3026526315789475 -4.4487000000000005ZM5.44 -4.46L5.438252631578948 -4.4589C5.44 -4.47 5.43 -4.48 5.43 -4.49C5.42 -4.5 5.41 -4.51 5.4 -4.51C5.39 -4.51 5.39 -4.51 5.38 -4.51C5.37 -4.51 5.36 -4.51 5.35 -4.51L5.3506526315789475 -4.5773L5.340652631578947 -4.5773L5.340652631578947 -4.3941L5.340652631578947 -4.3941L5.340652631578947 -4.3941C5.36 -4.39 5.37 -4.39 5.38 -4.39C5.39 -4.39 5.41 -4.39 5.42 -4.4C5.43 -4.41 5.44 -4.43 5.44 -4.45C5.44 -4.45 5.44 -4.45 5.44 -4.45C5.44 -4.45 5.44 -4.45 5.44 -4.46ZM5.43 -4.45C5.43 -4.45 5.43 -4.45 5.43 -4.45C5.42 -4.43 5.42 -4.42 5.41 -4.41C5.4 -4.4 5.39 -4.4 5.38 -4.4C5.38 -4.4 5.37 -4.4 5.35 -4.4L5.3506526315789475 -4.4473L5.3506526315789475 -4.4473L5.3506526315789475 -4.4487000000000005L5.3506526315789475 -4.4543L5.3506526315789475 -4.4557L5.3506526315789475 -4.4557L5.3506526315789475 -4.5001C5.36 -4.5 5.37 -4.5 5.38 -4.5C5.4 -4.5 5.41 -4.5 5.41 -4.49C5.42 -4.48 5.43 -4.47 5.43 -4.46L5.4280526315789475 -4.4511ZM5.47 -4.51L5.466652631578947 -4.3941L5.476652631578947 -4.3941L5.476652631578947 -4.5101L5.466652631578947 -4.5101ZM5.48 -4.54L5.466652631578947 -4.5395L5.466652631578947 -4.5295000000000005L5.476652631578947 -4.5295000000000005L5.476652631578947 -4.5395ZM5.61 -4.49C5.6 -4.5 5.6 -4.5 5.6 -4.51C5.59 -4.51 5.58 -4.51 5.57 -4.51C5.57 -4.51 5.57 -4.51 5.57 -4.51C5.56 -4.51 5.55 -4.51 5.54 -4.51C5.54 -4.5 5.53 -4.5 5.52 -4.49L5.5248526315789475 -4.5099L5.514852631578948 -4.5099L5.514852631578948 -4.3943L5.5248526315789475 -4.3943L5.5248526315789475 -4.4575000000000005C5.52 -4.47 5.53 -4.48 5.54 -4.49C5.55 -4.5 5.56 -4.5 5.57 -4.5C5.57 -4.5 5.57 -4.5 5.57 -4.5C5.58 -4.5 5.59 -4.5 5.59 -4.5C5.59 -4.5 5.6 -4.49 5.6 -4.49C5.6 -4.48 5.61 -4.47 5.61 -4.46L5.6052526315789475 -4.4567000000000005L5.6052526315789475 -4.3943L5.615652631578947 -4.3943L5.615652631578947 -4.4567000000000005C5.62 -4.47 5.61 -4.48 5.61 -4.49Z" stroke="none" fill="#FFFFFF"/>
  <path d="M4.86 -5.11L4.864652631578947 -4.8237000000000005L4.6898526315789475 -5.1061L4.6898526315789475 -5.1061L4.6898526315789475 -5.1061L4.669852631578947 -5.1061L4.669852631578947 -4.7861L4.6898526315789475 -4.7861L4.6898526315789475 -5.0681L4.864252631578947 -4.7861L4.864652631578947 -4.7861L4.864652631578947 -4.7861L4.884252631578947 -4.7861L4.884652631578947 -5.1061L4.864652631578947 -5.1061ZM5.05 -5.02C5.02 -5.02 5 -5.01 4.98 -4.99C4.96 -4.96 4.95 -4.93 4.95 -4.9C4.95 -4.86 4.95 -4.83 4.97 -4.81C4.99 -4.79 5.02 -4.78 5.05 -4.78C5.08 -4.78 5.11 -4.79 5.13 -4.81C5.15 -4.83 5.16 -4.86 5.16 -4.9C5.16 -4.93 5.15 -4.96 5.13 -4.99C5.1 -5.01 5.08 -5.02 5.05 -5.02ZM5.05 -4.8C5.03 -4.8 5.01 -4.81 4.99 -4.83C4.97 -4.85 4.97 -4.87 4.97 -4.9C4.97 -4.93 4.97 -4.95 4.99 -4.97C5.01 -4.99 5.03 -5 5.05 -5C5.07 -5 5.09 -4.99 5.11 -4.97C5.13 -4.95 5.14 -4.93 5.14 -4.9C5.14 -4.87 5.13 -4.85 5.11 -4.83C5.1 -4.81 5.08 -4.8 5.05 -4.8ZM5.26 -5C5.25 -4.99 5.24 -4.98 5.23 -4.97L5.2302526315789475 -5.0169L5.210252631578947 -5.0169L5.210252631578947 -4.7857L5.2302526315789475 -4.7857L5.2302526315789475 -4.894500000000001C5.23 -4.9 5.23 -4.9 5.23 -4.91C5.24 -4.94 5.25 -4.96 5.27 -4.98C5.28 -4.99 5.28 -4.99 5.3 -5L5.295452631578947 -5.0173000000000005C5.28 -5.01 5.27 -5.01 5.26 -5ZM5.68 -4.99C5.67 -5.01 5.65 -5.02 5.62 -5.02C5.62 -5.02 5.61 -5.03 5.61 -5.03C5.58 -5.03 5.56 -5.02 5.55 -5C5.54 -4.99 5.53 -4.98 5.52 -4.97C5.51 -5 5.49 -5.02 5.46 -5.02C5.45 -5.02 5.45 -5.03 5.44 -5.03C5.41 -5.03 5.39 -5.01 5.37 -4.99L5.370252631578947 -5.0173000000000005L5.350252631578948 -5.0173000000000005L5.350252631578948 -4.7857L5.370252631578947 -4.7857L5.370252631578947 -4.9529C5.37 -4.96 5.38 -4.97 5.39 -4.98C5.41 -5 5.42 -5 5.44 -5C5.47 -5 5.49 -4.99 5.5 -4.97C5.51 -4.96 5.51 -4.94 5.51 -4.91L5.511052631578948 -4.7853L5.531852631578947 -4.7853L5.531852631578947 -4.9109C5.53 -4.92 5.53 -4.93 5.53 -4.93C5.53 -4.95 5.54 -4.97 5.56 -4.98C5.57 -5 5.59 -5 5.61 -5C5.64 -5 5.66 -4.99 5.67 -4.97C5.67 -4.96 5.68 -4.94 5.68 -4.91L5.677052631578947 -4.7853L5.6978526315789475 -4.7853L5.6978526315789475 -4.9109C5.7 -4.94 5.69 -4.97 5.68 -4.99ZM5.87 -5.02C5.84 -5.02 5.81 -5.01 5.79 -4.99C5.77 -4.97 5.76 -4.95 5.75 -4.91C5.75 -4.91 5.75 -4.9 5.75 -4.89C5.75 -4.86 5.76 -4.84 5.77 -4.81C5.79 -4.79 5.82 -4.78 5.84 -4.78C5.87 -4.78 5.89 -4.79 5.91 -4.8C5.92 -4.81 5.92 -4.82 5.93 -4.83L5.929452631578948 -4.8117L5.929452631578948 -4.8117L5.929452631578948 -4.8117L5.929452631578948 -4.7857L5.949452631578947 -4.7857L5.949452631578947 -5.014900000000001C5.92 -5.02 5.89 -5.02 5.87 -5.02ZM5.93 -4.89C5.93 -4.86 5.92 -4.84 5.9 -4.82C5.88 -4.81 5.86 -4.8 5.84 -4.8C5.82 -4.8 5.8 -4.81 5.78 -4.84C5.77 -4.85 5.77 -4.87 5.77 -4.89C5.77 -4.91 5.77 -4.92 5.78 -4.94C5.78 -4.96 5.79 -4.97 5.8 -4.98C5.82 -5 5.84 -5 5.87 -5C5.87 -5 5.9 -5 5.93 -5L5.929452631578948 -4.894500000000001ZM6.02 -4.78L6.0370526315789474 -4.7849L6.0370526315789474 -5.1533L6.017052631578947 -5.1533L6.017052631578947 -4.7849Z" stroke="none" fill="#FFFFFF"/>
  <path d="M4.27 -5.45L6.437052631578948 -5.4533000000000005L6.437052631578948 -4.0901000000000005L4.269852631578947 -4.0901000000000005Z" stroke="none" fill="none"/>
  <path d="M-2.16 -5.95L7.009452631578948 -5.9533000000000005L7.009452631578948 0.5L-2.162 0.5Z" stroke="none" fill="none"/>
</svg>
