<svg xmlns="http://www.w3.org/2000/svg" viewBox="-2.162 -5.9533 9.1715 6.4533">
  <path d="M-2.162 -5.9533L7.009452631578948 -5.9533000000000005L7.009452631578948 0.5L-2.162 0.5Z" stroke="none" fill="#F2F2F7"/>
  <path d="M-0.8603 -0.872L-0.5794736842105261 -0.8720000000000001L-0.5794736842105261 -0.9120000000000001L-0.8602736842105263 -0.9120000000000001L-0.8602736842105263 -0.9120000000000001L-0.9002736842105263 -0.9120000000000001L-0.9002736842105263 -0.2736L-0.8602736842105263 -0.2736L-0.8602736842105263 -0.524L-0.8602736842105263 -0.524L-0.8602736842105263 -0.524L-0.8602736842105263 -0.6016L-0.5794736842105261 -0.6016L-0.5794736842105261 -0.6416L-0.8602736842105263 -0.6416L-0.8602736842105263 -0.8720000000000001ZM-0.4611 -0.272L-0.42107368421052627 -0.272L-0.42107368421052627 -1.0088000000000001L-0.4610736842105263 -1.0088000000000001L-0.4610736842105263 -0.272ZM-0.2539 -0.7368L-0.25387368421052603 -0.2728L-0.213873684210526 -0.2728L-0.213873684210526 -0.7368L-0.25387368421052603 -0.7368ZM-0.2139 -0.8544L-0.25387368421052603 -0.8544L-0.25387368421052603 -0.8144L-0.213873684210526 -0.8144L-0.213873684210526 -0.8544ZM0.1501 -0.7456C0.0893 -0.7499 0.0371 -0.7328 -0.0067 -0.6944C-0.0536 -0.6539 -0.0824 -0.6003 -0.0931 -0.5336C-0.0952 -0.5176 -0.0963 -0.5019 -0.0963 -0.4864C-0.0963 -0.4261 -0.0795 -0.3739 -0.0459 -0.3296C-0.0091 -0.2816 0.0384 -0.2576 0.0965 -0.2576C0.144 -0.2576 0.1864 -0.2739 0.2237 -0.3064C0.2419 -0.3224 0.2565 -0.3384 0.2677 -0.3544L0.2677263157894738 -0.3264L0.2677263157894738 -0.3264L0.2677263157894738 -0.3264L0.2677263157894738 -0.268L0.2677263157894738 -0.2424C0.2661 -0.1683 0.2467 -0.1149 0.2093 -0.0824C0.1763 -0.0536 0.1357 -0.0392 0.0877 -0.0392C0.0616 -0.0392 0.0285 -0.0424 -0.0115 -0.0488L-0.018673684210526176 -0.009599999999999997C0.0213 -0.0032 0.0544 0 0.0805 0C0.0971 0 0.1123 -0.0008 0.1261 -0.0024C0.1699 -0.0088 0.2043 -0.0232 0.2293 -0.0456C0.2805 -0.0904 0.3067 -0.1555 0.3077 -0.2408C0.3083 -0.2787 0.3083 -0.32 0.3077 -0.3648L0.30772631578947385 -0.7352000000000001C0.2453 -0.7416 0.1928 -0.7451 0.1501 -0.7456ZM0.2677 -0.4928C0.2672 -0.4304 0.2459 -0.3805 0.2037 -0.3432C0.1691 -0.3128 0.1323 -0.2976 0.0933 -0.2976C0.0437 -0.2976 0.0029 -0.3251 -0.0291 -0.38C-0.0461 -0.4093 -0.0547 -0.4443 -0.0547 -0.4848C-0.0547 -0.5173 -0.0488 -0.5496 -0.0371 -0.5816C-0.0243 -0.6157 -0.0067 -0.6427 0.0157 -0.6624C0.0531 -0.6949 0.0949 -0.7099 0.1413 -0.7072C0.1563 -0.7072 0.1984 -0.7048 0.2677 -0.7C0.2688 -0.6851 0.2688 -0.616 0.2677 -0.4928ZM0.8285 -0.6624C0.8136 -0.6891 0.7961 -0.7087 0.7761 -0.7212C0.7561 -0.7337 0.7285 -0.7427 0.6933 -0.748C0.6837 -0.7496 0.6744 -0.7504 0.6653 -0.7504C0.6317 -0.7504 0.5992 -0.7413 0.5677 -0.7232C0.5389 -0.7061 0.5144 -0.6829 0.4941 -0.6536L0.49412631578947397 -1.0096L0.45412631578947393 -1.0096L0.45412631578947393 -0.2728L0.49412631578947397 -0.2728L0.49412631578947397 -0.5264C0.4941 -0.5813 0.5155 -0.6272 0.5581 -0.664C0.5928 -0.6944 0.6293 -0.7096 0.6677 -0.7096C0.6741 -0.7096 0.6803 -0.7093 0.6861 -0.7088C0.7149 -0.704 0.7367 -0.6967 0.7513 -0.6868C0.766 -0.6769 0.7797 -0.6613 0.7925 -0.64C0.8085 -0.6133 0.8165 -0.5744 0.8165 -0.5232L0.8165263157894738 -0.5232L0.8165263157894738 -0.2736L0.8581263157894738 -0.2736L0.8581263157894738 -0.5232L0.8581263157894738 -0.5232C0.8576 -0.584 0.8477 -0.6304 0.8285 -0.6624ZM1.0757 -0.316C1.0608 -0.3293 1.0515 -0.3536 1.0477 -0.3888C1.0467 -0.3989 1.0459 -0.4349 1.0453 -0.4968C1.0443 -0.5635 1.0443 -0.6299 1.0453 -0.696L1.1485263157894738 -0.696L1.1485263157894738 -0.736L1.0453263157894739 -0.736L1.0453263157894739 -0.8136000000000001L1.0053263157894738 -0.8136000000000001L1.0053263157894738 -0.736L0.9381263157894739 -0.736L0.9381263157894739 -0.696L1.0053263157894738 -0.696C1.0043 -0.6288 1.0043 -0.5616 1.0053 -0.4944C1.0064 -0.4261 1.0077 -0.3845 1.0093 -0.3696C1.0141 -0.3323 1.0261 -0.3053 1.0453 -0.2888C1.0571 -0.2787 1.0755 -0.2723 1.1005 -0.2696C1.1096 -0.2685 1.1299 -0.268 1.1613 -0.268L1.161326315789474 -0.3024C1.1165 -0.3013 1.088 -0.3059 1.0757 -0.316ZM2.1789 -0.6208C2.1757 -0.6971 2.1608 -0.7568 2.1341 -0.8C2.1176 -0.8272 2.0915 -0.8531 2.0557 -0.8776C2.0141 -0.9059 1.9547 -0.92 1.8773 -0.92C1.8683 -0.92 1.8499 -0.9191 1.8221 -0.9172C1.7944 -0.9153 1.7744 -0.9144 1.7621 -0.9144L1.750126315789474 -0.9144000000000001L1.750126315789474 -0.2736L1.7509263157894739 -0.2736L1.7509263157894739 -0.2736C1.8005 -0.2693 1.8427 -0.2672 1.8773 -0.2672C1.9531 -0.2672 2.0125 -0.2813 2.0557 -0.3096C2.0899 -0.332 2.116 -0.3584 2.1341 -0.3888C2.1603 -0.4336 2.1752 -0.4928 2.1789 -0.5664C2.1795 -0.5787 2.1797 -0.5877 2.1797 -0.5936C2.1797 -0.5995 2.1795 -0.6085 2.1789 -0.6208ZM2.1381 -0.5736C2.1333 -0.5011 2.1189 -0.4453 2.0949 -0.4064C2.0805 -0.3829 2.0576 -0.3608 2.0261 -0.34C1.9909 -0.3171 1.9443 -0.3056 1.8861 -0.3056C1.8653 -0.3056 1.8333 -0.3069 1.7901 -0.3096L1.790126315789474 -0.5248L1.790126315789474 -0.5248L1.790126315789474 -0.5248L1.790126315789474 -0.8768C1.8333 -0.88 1.8653 -0.8816 1.8861 -0.8816C1.9469 -0.8816 1.9939 -0.8701 2.0269 -0.8472C2.0584 -0.8259 2.0813 -0.8035 2.0957 -0.78C2.1192 -0.7411 2.1333 -0.6856 2.1381 -0.6136L2.138126315789474 -0.5936L2.138126315789474 -0.5736ZM2.5077 -0.7432C2.4469 -0.7475 2.3949 -0.7304 2.3517 -0.692C2.3053 -0.6515 2.2768 -0.5981 2.2661 -0.532C2.2635 -0.516 2.2621 -0.5003 2.2621 -0.4848C2.2621 -0.4251 2.2789 -0.3731 2.3125 -0.3288C2.3493 -0.2808 2.3965 -0.2568 2.4541 -0.2568C2.5016 -0.2568 2.544 -0.2731 2.5813 -0.3056C2.5995 -0.3216 2.6139 -0.3376 2.6245 -0.3536L2.624526315789474 -0.3256L2.624526315789474 -0.3256L2.624526315789474 -0.3256L2.624526315789474 -0.2736L2.664526315789474 -0.2736L2.664526315789474 -0.732C2.6021 -0.7389 2.5499 -0.7427 2.5077 -0.7432ZM2.6245 -0.4912C2.624 -0.4288 2.6029 -0.3792 2.5613 -0.3424C2.5267 -0.3125 2.4899 -0.2976 2.4509 -0.2976C2.4019 -0.2976 2.3613 -0.3245 2.3293 -0.3784C2.3123 -0.4077 2.3037 -0.4427 2.3037 -0.4832C2.3037 -0.5157 2.3096 -0.5477 2.3213 -0.5792C2.3341 -0.6139 2.3515 -0.6408 2.3733 -0.66C2.4107 -0.6931 2.4525 -0.708 2.4989 -0.7048C2.5139 -0.7048 2.5557 -0.7021 2.6245 -0.6968L2.624526315789474 -0.4912ZM2.8709 -0.536C2.8181 -0.568 2.7917 -0.5973 2.7917 -0.624C2.7917 -0.6288 2.7925 -0.6347 2.7941 -0.6416C2.8027 -0.6843 2.8293 -0.7056 2.8741 -0.7056C2.8821 -0.7056 2.8909 -0.7048 2.9005 -0.7032C2.9203 -0.7 2.9352 -0.6957 2.9453 -0.6904C2.9581 -0.6845 2.9728 -0.6733 2.9893 -0.6568L2.993326315789474 -0.6944C2.9624 -0.7264 2.92 -0.7424 2.8661 -0.7424C2.8021 -0.7424 2.7643 -0.7125 2.7525 -0.6528C2.7509 -0.6443 2.7501 -0.6363 2.7501 -0.6288C2.7501 -0.5941 2.768 -0.5621 2.8037 -0.5328C2.8373 -0.5104 2.8707 -0.488 2.9037 -0.4656C2.9395 -0.4389 2.9573 -0.4117 2.9573 -0.384C2.9573 -0.3787 2.9568 -0.3733 2.9557 -0.368C2.9461 -0.3168 2.9173 -0.2912 2.8693 -0.2912C2.8272 -0.2912 2.7885 -0.3069 2.7533 -0.3384L2.751726315789474 -0.2944C2.7725 -0.2784 2.7997 -0.2672 2.8333 -0.2608C2.8451 -0.2581 2.8568 -0.2568 2.8685 -0.2568C2.9011 -0.2568 2.9285 -0.2651 2.9509 -0.2816C2.9755 -0.2987 2.9909 -0.3232 2.9973 -0.3552C2.9995 -0.3669 3.0005 -0.3776 3.0005 -0.3872C3.0005 -0.4123 2.9912 -0.4357 2.9725 -0.4576C2.9539 -0.4795 2.92 -0.5056 2.8709 -0.536ZM3.4837 -0.6624C3.4688 -0.6891 3.4513 -0.7087 3.4313 -0.7212C3.4113 -0.7337 3.3837 -0.7427 3.3485 -0.748C3.3389 -0.7496 3.3296 -0.7504 3.3205 -0.7504C3.2869 -0.7504 3.2544 -0.7413 3.2229 -0.7232C3.1941 -0.7061 3.1696 -0.6829 3.1493 -0.6536L3.149326315789474 -1.0096L3.109326315789474 -1.0096L3.109326315789474 -0.2728L3.149326315789474 -0.2728L3.149326315789474 -0.5264C3.1493 -0.5813 3.1707 -0.6272 3.2133 -0.664C3.248 -0.6944 3.2845 -0.7096 3.3229 -0.7096C3.3293 -0.7096 3.3355 -0.7093 3.3413 -0.7088C3.3701 -0.704 3.3919 -0.6967 3.4065 -0.6868C3.4212 -0.6769 3.4349 -0.6613 3.4477 -0.64C3.4637 -0.6133 3.4717 -0.5744 3.4717 -0.5232L3.471726315789474 -0.5232L3.471726315789474 -0.2736L3.513326315789474 -0.2736L3.513326315789474 -0.5232L3.513326315789474 -0.5232C3.5128 -0.584 3.5029 -0.6304 3.4837 -0.6624ZM4.0101 -0.52L4.010126315789474 -0.532C4.008 -0.5864 3.9925 -0.632 3.9637 -0.6688C3.9339 -0.7077 3.8933 -0.7312 3.8421 -0.7392C3.824 -0.7419 3.8021 -0.7432 3.7765 -0.7432C3.7499 -0.7432 3.7109 -0.7408 3.6597 -0.736L3.6597263157894737 -1.0056L3.6197263157894737 -1.0056L3.6197263157894737 -0.2728L3.6197263157894737 -0.2728L3.6197263157894737 -0.2728C3.6821 -0.2659 3.7344 -0.2621 3.7765 -0.2616C3.8341 -0.2579 3.8845 -0.2749 3.9277 -0.3128C3.9752 -0.3539 4.0024 -0.4115 4.0093 -0.4856C4.0099 -0.4893 4.0101 -0.4949 4.0101 -0.5024C4.0107 -0.5099 4.0107 -0.5157 4.0101 -0.52ZM3.9693 -0.5008C3.9688 -0.4944 3.968 -0.4872 3.9669 -0.4792C3.9568 -0.4163 3.9363 -0.3715 3.9053 -0.3448C3.8685 -0.3123 3.8285 -0.2973 3.7853 -0.3C3.7704 -0.3 3.7285 -0.3027 3.6597 -0.308L3.6597263157894737 -0.48560000000000003L3.6597263157894737 -0.48560000000000003L3.6597263157894737 -0.4912L3.6597263157894737 -0.5136000000000001L3.6597263157894737 -0.5192L3.6597263157894737 -0.5192L3.6597263157894737 -0.6968000000000001C3.7099 -0.7016 3.7517 -0.7043 3.7853 -0.7048C3.8387 -0.7085 3.8816 -0.6951 3.9141 -0.6644C3.9467 -0.6337 3.9651 -0.588 3.9693 -0.5272L3.9693263157894743 -0.5008ZM4.2965 -0.7456C4.2405 -0.7456 4.1911 -0.7219 4.1481 -0.6744C4.1052 -0.6269 4.0837 -0.5701 4.0837 -0.504C4.0837 -0.4293 4.1032 -0.3704 4.1421 -0.3272C4.1811 -0.284 4.2325 -0.2624 4.2965 -0.2624C4.3632 -0.2624 4.4153 -0.2837 4.4529 -0.3264C4.4905 -0.3691 4.5093 -0.4283 4.5093 -0.504C4.5093 -0.5701 4.488 -0.6269 4.4453 -0.6744C4.4027 -0.7219 4.3531 -0.7456 4.2965 -0.7456ZM4.2973 -0.3024C4.2456 -0.3024 4.204 -0.3204 4.1725 -0.3564C4.1411 -0.3924 4.1253 -0.4416 4.1253 -0.504C4.1253 -0.5589 4.1427 -0.6063 4.1773 -0.646C4.212 -0.6857 4.252 -0.7056 4.2973 -0.7056C4.3427 -0.7056 4.3827 -0.6857 4.4173 -0.646C4.452 -0.6063 4.4693 -0.5589 4.4693 -0.504C4.4693 -0.4427 4.4533 -0.3937 4.4213 -0.3572C4.3893 -0.3207 4.348 -0.3024 4.2973 -0.3024ZM4.8333 -0.7432C4.7725 -0.7475 4.7205 -0.7304 4.6773 -0.692C4.6309 -0.6515 4.6024 -0.5981 4.5917 -0.532C4.5891 -0.516 4.5877 -0.5003 4.5877 -0.4848C4.5877 -0.4251 4.6045 -0.3731 4.6381 -0.3288C4.6749 -0.2808 4.7221 -0.2568 4.7797 -0.2568C4.8272 -0.2568 4.8696 -0.2731 4.9069 -0.3056C4.9251 -0.3216 4.9395 -0.3376 4.9501 -0.3536L4.950126315789474 -0.3256L4.950126315789474 -0.3256L4.950126315789474 -0.3256L4.950126315789474 -0.2736L4.990126315789475 -0.2736L4.990126315789475 -0.732C4.9277 -0.7389 4.8755 -0.7427 4.8333 -0.7432ZM4.9501 -0.4912C4.9496 -0.4288 4.9285 -0.3792 4.8869 -0.3424C4.8523 -0.3125 4.8155 -0.2976 4.7765 -0.2976C4.7275 -0.2976 4.6869 -0.3245 4.6549 -0.3784C4.6379 -0.4077 4.6293 -0.4427 4.6293 -0.4832C4.6293 -0.5157 4.6352 -0.5477 4.6469 -0.5792C4.6597 -0.6139 4.6771 -0.6408 4.6989 -0.66C4.7363 -0.6931 4.7781 -0.708 4.8245 -0.7048C4.8395 -0.7048 4.8813 -0.7021 4.9501 -0.6968L4.950126315789474 -0.4912ZM5.2013 -0.6944C5.1821 -0.6773 5.1656 -0.6571 5.1517 -0.6336L5.151726315789475 -0.736L5.111726315789474 -0.736L5.111726315789474 -0.2736L5.151726315789475 -0.2736L5.151726315789475 -0.4912C5.1517 -0.496 5.1533 -0.508 5.1565 -0.5272C5.1661 -0.5864 5.1885 -0.6315 5.2237 -0.6624C5.2413 -0.6773 5.2608 -0.6885 5.2821 -0.696L5.2821263157894744 -0.7368C5.2512 -0.7283 5.2243 -0.7141 5.2013 -0.6944ZM5.7085 -1.0056L5.708526315789474 -0.736C5.6573 -0.7408 5.6181 -0.7432 5.5909 -0.7432C5.5259 -0.7432 5.4739 -0.7261 5.4349 -0.692C5.3885 -0.6515 5.36 -0.5981 5.3493 -0.532C5.3467 -0.516 5.3453 -0.5003 5.3453 -0.4848C5.3453 -0.4251 5.3621 -0.3731 5.3957 -0.3288C5.4325 -0.2808 5.4797 -0.2568 5.5373 -0.2568C5.5848 -0.2568 5.6272 -0.2731 5.6645 -0.3056C5.6827 -0.3216 5.6973 -0.3376 5.7085 -0.3536L5.708526315789474 -0.3256L5.708526315789474 -0.3256L5.708526315789474 -0.3256L5.708526315789474 -0.2736L5.747726315789475 -0.2736L5.747726315789475 -1.0056L5.708526315789474 -1.0056ZM5.7085 -0.4912C5.708 -0.4288 5.6867 -0.3792 5.6445 -0.3424C5.6099 -0.3125 5.5733 -0.2976 5.5349 -0.2976C5.4853 -0.2976 5.4448 -0.3245 5.4133 -0.3784C5.3957 -0.4077 5.3869 -0.4427 5.3869 -0.4832C5.3869 -0.5157 5.3928 -0.5477 5.4045 -0.5792C5.4173 -0.6139 5.4349 -0.6408 5.4573 -0.66C5.4947 -0.6931 5.5363 -0.708 5.5821 -0.7048C5.5971 -0.7048 5.6392 -0.7021 5.7085 -0.6968C5.7096 -0.6824 5.7096 -0.6139 5.7085 -0.4912Z" stroke="none" fill="#1A1A33"/>
  <path d="M0.7232 -1.2227C0.735 -1.2299 0.7424 -1.2419 0.7454 -1.2587C0.7464 -1.2645 0.7469 -1.2695 0.7469 -1.2737C0.7469 -1.2847 0.7423 -1.2952 0.7331 -1.3052C0.7251 -1.3138 0.7078 -1.328 0.6812 -1.3478C0.6644 -1.3602 0.6531 -1.3697 0.6473 -1.3763C0.6415 -1.3829 0.6386 -1.3896 0.6386 -1.3964C0.6386 -1.399 0.639 -1.4021 0.6398 -1.4057C0.6426 -1.4199 0.6491 -1.4304 0.6593 -1.4372C0.6661 -1.4418 0.6743 -1.4441 0.6839 -1.4441C0.6887 -1.4441 0.6939 -1.4435 0.6995 -1.4423C0.7129 -1.4397 0.725 -1.4337 0.7358 -1.4243L0.7357763157894741 -1.4399000000000002C0.725 -1.4479 0.7137 -1.4531 0.7019 -1.4555C0.6957 -1.4567 0.6897 -1.4573 0.6839 -1.4573C0.6701 -1.4573 0.6582 -1.454 0.6482 -1.4474C0.6358 -1.439 0.6278 -1.4261 0.6242 -1.4087C0.6234 -1.4049 0.623 -1.4012 0.623 -1.3976C0.623 -1.3838 0.6291 -1.371 0.6413 -1.3592C0.6443 -1.3564 0.657 -1.3468 0.6794 -1.3304C0.6972 -1.3174 0.7089 -1.3081 0.7145 -1.3025C0.7255 -1.2915 0.731 -1.2809 0.731 -1.2707C0.731 -1.2685 0.7308 -1.2663 0.7304 -1.2641C0.7248 -1.2379 0.7092 -1.2248 0.6836 -1.2248C0.679 -1.2248 0.6742 -1.2253 0.6692 -1.2263C0.6526 -1.2297 0.6368 -1.2364 0.6218 -1.2464L0.621776315789474 -1.2302000000000002C0.6324 -1.2218 0.6463 -1.2159 0.6635 -1.2125C0.6689 -1.2115 0.6744 -1.211 0.68 -1.211C0.6964 -1.211 0.7108 -1.2149 0.7232 -1.2227ZM0.9002 -1.3871L0.8470763157894741 -1.2365000000000002L0.7924763157894741 -1.3871000000000002L0.7765763157894741 -1.3871000000000002L0.839276315789474 -1.2140000000000002L0.815576315789474 -1.1462C0.8142 -1.1422 0.8113 -1.138 0.8069 -1.1336C0.8011 -1.1278 0.7934 -1.1243 0.7838 -1.1231L0.7843763157894741 -1.1096000000000001C0.7994 -1.1116 0.8109 -1.1165 0.8189 -1.1243C0.8233 -1.1285 0.8267 -1.1338 0.8291 -1.1402L0.829076315789474 -1.1402L0.829376315789474 -1.1402C0.8296 -1.1412 0.83 -1.1425 0.8306 -1.1441L0.915776315789474 -1.3871000000000002L0.900176315789474 -1.3871000000000002ZM0.9812 -1.3124C0.9614 -1.3244 0.9515 -1.3354 0.9515 -1.3454C0.9515 -1.3472 0.9518 -1.3494 0.9524 -1.352C0.9556 -1.368 0.9656 -1.376 0.9824 -1.376C0.9854 -1.376 0.9887 -1.3757 0.9923 -1.3751C0.9997 -1.3739 1.0053 -1.3723 1.0091 -1.3703C1.0139 -1.3681 1.0194 -1.3639 1.0256 -1.3577L1.027076315789474 -1.3718000000000001C1.0155 -1.3838 0.9996 -1.3898 0.9794 -1.3898C0.9554 -1.3898 0.9412 -1.3786 0.9368 -1.3562C0.9362 -1.353 0.9359 -1.35 0.9359 -1.3472C0.9359 -1.3342 0.9426 -1.3222 0.956 -1.3112C0.9686 -1.3028 0.9811 -1.2944 0.9935 -1.286C1.0069 -1.276 1.0136 -1.2658 1.0136 -1.2554C1.0136 -1.2534 1.0134 -1.2514 1.013 -1.2494C1.0094 -1.2302 0.9986 -1.2206 0.9806 -1.2206C0.9648 -1.2206 0.9503 -1.2265 0.9371 -1.2383L0.936476315789474 -1.2218000000000002C0.9443 -1.2158 0.9545 -1.2116 0.9671 -1.2092C0.9715 -1.2082 0.9759 -1.2077 0.9803 -1.2077C0.9925 -1.2077 1.0028 -1.2108 1.0112 -1.217C1.0204 -1.2234 1.0262 -1.2326 1.0286 -1.2446C1.0294 -1.249 1.0298 -1.253 1.0298 -1.2566C1.0298 -1.266 1.0263 -1.2748 1.0193 -1.283C1.0123 -1.2912 0.9996 -1.301 0.9812 -1.3124ZM1.1048 -1.2299C1.0992 -1.2349 1.0957 -1.244 1.0943 -1.2572C1.0939 -1.261 1.0936 -1.2745 1.0934 -1.2977C1.093 -1.3227 1.093 -1.3476 1.0934 -1.3724L1.132076315789474 -1.3724000000000003L1.132076315789474 -1.3874000000000002L1.093376315789474 -1.3874000000000002L1.093376315789474 -1.4165L1.0783763157894741 -1.4165L1.0783763157894741 -1.3874000000000002L1.053176315789474 -1.3874000000000002L1.053176315789474 -1.3724000000000003L1.0783763157894741 -1.3724000000000003C1.078 -1.3472 1.078 -1.322 1.0784 -1.2968C1.0788 -1.2712 1.0793 -1.2556 1.0799 -1.25C1.0817 -1.236 1.0862 -1.2259 1.0934 -1.2197C1.0978 -1.2159 1.1047 -1.2135 1.1141 -1.2125C1.1175 -1.2121 1.1251 -1.2119 1.1369 -1.2119L1.1368763157894741 -1.2248C1.1201 -1.2244 1.1094 -1.2261 1.1048 -1.2299ZM1.3076 -1.3007C1.3084 -1.3217 1.3036 -1.3405 1.2932 -1.3571C1.2816 -1.3755 1.266 -1.3863 1.2464 -1.3895C1.2428 -1.3901 1.2393 -1.3904 1.2359 -1.3904C1.2181 -1.3904 1.2022 -1.3842 1.1882 -1.3718C1.1696 -1.3556 1.1593 -1.3351 1.1573 -1.3103C1.1571 -1.3091 1.157 -1.3078 1.157 -1.3064L1.1569763157894741 -1.2998000000000003L1.1569763157894741 -1.2935C1.1604 -1.2653 1.1706 -1.2437 1.1876 -1.2287C1.2024 -1.2157 1.2213 -1.2093 1.2443 -1.2095C1.2493 -1.2097 1.2545 -1.2101 1.2599 -1.2107C1.2731 -1.2123 1.2861 -1.215 1.2989 -1.2188C1.2989 -1.2182 1.2989 -1.2194 1.2989 -1.2224L1.298876315789474 -1.2335000000000003C1.2859 -1.2299 1.2776 -1.2277 1.274 -1.2269C1.2642 -1.2243 1.2532 -1.2233 1.241 -1.2239C1.2238 -1.2239 1.2088 -1.2295 1.196 -1.2407C1.1846 -1.2507 1.177 -1.2675 1.1732 -1.2911C1.1726 -1.2941 1.1723 -1.2968 1.1723 -1.2992L1.172276315789474 -1.3007000000000002L1.307576315789474 -1.3007000000000002ZM1.2368 -1.3751C1.2554 -1.3751 1.2706 -1.3649 1.2824 -1.3445C1.2874 -1.3363 1.2905 -1.3267 1.2917 -1.3157L1.1728763157894742 -1.3157C1.1755 -1.3329 1.1832 -1.3471 1.196 -1.3583C1.2088 -1.3695 1.2224 -1.3751 1.2368 -1.3751ZM1.6016 -1.3646C1.5934 -1.3802 1.5777 -1.3896 1.5545 -1.3928C1.5511 -1.3934 1.5477 -1.3937 1.5443 -1.3937C1.5273 -1.3937 1.5119 -1.3876 1.4981 -1.3754C1.4909 -1.3692 1.4853 -1.3623 1.4813 -1.3547C1.4733 -1.3763 1.4562 -1.389 1.43 -1.3928C1.4266 -1.3934 1.4232 -1.3937 1.4198 -1.3937C1.3992 -1.3937 1.3814 -1.3852 1.3664 -1.3682L1.366376315789474 -1.3877000000000002L1.351376315789474 -1.3877000000000002L1.351376315789474 -1.2140000000000002L1.366376315789474 -1.2140000000000002L1.366376315789474 -1.3394000000000001C1.3694 -1.348 1.3743 -1.3553 1.3811 -1.3613C1.3941 -1.3727 1.4074 -1.3784 1.421 -1.3784C1.4418 -1.3784 1.4559 -1.3704 1.4633 -1.3544C1.4687 -1.3428 1.4716 -1.3275 1.472 -1.3085L1.471976315789474 -1.2137000000000002L1.487576315789474 -1.2137000000000002L1.487576315789474 -1.3079000000000003C1.4876 -1.3151 1.4875 -1.3208 1.4873 -1.325C1.4899 -1.3408 1.496 -1.3529 1.5056 -1.3613C1.5186 -1.3727 1.5319 -1.3784 1.5455 -1.3784C1.5663 -1.3784 1.5804 -1.3704 1.5878 -1.3544C1.5932 -1.3428 1.5961 -1.3275 1.5965 -1.3085L1.5964763157894741 -1.2137000000000002L1.612076315789474 -1.2137000000000002L1.612076315789474 -1.3079000000000003C1.6121 -1.3321 1.6086 -1.351 1.6016 -1.3646ZM1.9475 -1.2227C1.9593 -1.2299 1.9667 -1.2419 1.9697 -1.2587C1.9707 -1.2645 1.9712 -1.2695 1.9712 -1.2737C1.9712 -1.2847 1.9666 -1.2952 1.9574 -1.3052C1.9494 -1.3138 1.9321 -1.328 1.9055 -1.3478C1.8887 -1.3602 1.8774 -1.3697 1.8716 -1.3763C1.8658 -1.3829 1.8629 -1.3896 1.8629 -1.3964C1.8629 -1.399 1.8633 -1.4021 1.8641 -1.4057C1.8669 -1.4199 1.8734 -1.4304 1.8836 -1.4372C1.8904 -1.4418 1.8986 -1.4441 1.9082 -1.4441C1.913 -1.4441 1.9182 -1.4435 1.9238 -1.4423C1.9372 -1.4397 1.9493 -1.4337 1.9601 -1.4243L1.960076315789474 -1.4399000000000002C1.9493 -1.4479 1.938 -1.4531 1.9262 -1.4555C1.92 -1.4567 1.914 -1.4573 1.9082 -1.4573C1.8944 -1.4573 1.8825 -1.454 1.8725 -1.4474C1.8601 -1.439 1.8521 -1.4261 1.8485 -1.4087C1.8477 -1.4049 1.8473 -1.4012 1.8473 -1.3976C1.8473 -1.3838 1.8534 -1.371 1.8656 -1.3592C1.8686 -1.3564 1.8813 -1.3468 1.9037 -1.3304C1.9215 -1.3174 1.9332 -1.3081 1.9388 -1.3025C1.9498 -1.2915 1.9553 -1.2809 1.9553 -1.2707C1.9553 -1.2685 1.9551 -1.2663 1.9547 -1.2641C1.9491 -1.2379 1.9335 -1.2248 1.9079 -1.2248C1.9033 -1.2248 1.8985 -1.2253 1.8935 -1.2263C1.8769 -1.2297 1.8611 -1.2364 1.8461 -1.2464L1.846076315789474 -1.2302000000000002C1.8567 -1.2218 1.8706 -1.2159 1.8878 -1.2125C1.8932 -1.2115 1.8987 -1.211 1.9043 -1.211C1.9207 -1.211 1.9351 -1.2149 1.9475 -1.2227ZM2.0546 -1.2299C2.049 -1.2349 2.0455 -1.244 2.0441 -1.2572C2.0437 -1.261 2.0434 -1.2745 2.0432 -1.2977C2.0428 -1.3227 2.0428 -1.3476 2.0432 -1.3724L2.081876315789474 -1.3724000000000003L2.081876315789474 -1.3874000000000002L2.043176315789474 -1.3874000000000002L2.043176315789474 -1.4165L2.028176315789474 -1.4165L2.028176315789474 -1.3874000000000002L2.002976315789474 -1.3874000000000002L2.002976315789474 -1.3724000000000003L2.028176315789474 -1.3724000000000003C2.0278 -1.3472 2.0278 -1.322 2.0282 -1.2968C2.0286 -1.2712 2.0291 -1.2556 2.0297 -1.25C2.0315 -1.236 2.036 -1.2259 2.0432 -1.2197C2.0476 -1.2159 2.0545 -1.2135 2.0639 -1.2125C2.0673 -1.2121 2.0749 -1.2119 2.0867 -1.2119L2.086676315789474 -1.2248C2.0699 -1.2244 2.0592 -1.2261 2.0546 -1.2299ZM2.2016 -1.3901C2.1788 -1.3917 2.1593 -1.3853 2.1431 -1.3709C2.1257 -1.3557 2.115 -1.3357 2.111 -1.3109C2.11 -1.3049 2.1095 -1.299 2.1095 -1.2932C2.1095 -1.2708 2.1158 -1.2513 2.1284 -1.2347C2.1422 -1.2167 2.1599 -1.2077 2.1815 -1.2077C2.1993 -1.2077 2.2152 -1.2138 2.2292 -1.226C2.236 -1.232 2.2414 -1.238 2.2454 -1.244L2.245376315789474 -1.2335000000000003L2.245376315789474 -1.2335000000000003L2.245376315789474 -1.2335000000000003L2.245376315789474 -1.2140000000000002L2.260376315789474 -1.2140000000000002L2.260376315789474 -1.3859000000000001C2.237 -1.3885 2.2174 -1.3899 2.2016 -1.3901ZM2.2454 -1.2956C2.2452 -1.2722 2.2373 -1.2536 2.2217 -1.2398C2.2087 -1.2286 2.1949 -1.223 2.1803 -1.223C2.1619 -1.223 2.1467 -1.2331 2.1347 -1.2533C2.1283 -1.2643 2.1251 -1.2774 2.1251 -1.2926C2.1251 -1.3048 2.1273 -1.3168 2.1317 -1.3286C2.1365 -1.3416 2.143 -1.3517 2.1512 -1.3589C2.1652 -1.3713 2.1809 -1.3769 2.1983 -1.3757C2.2039 -1.3757 2.2196 -1.3747 2.2454 -1.3727L2.245376315789474 -1.2956ZM2.3441 -1.2299C2.3385 -1.2349 2.335 -1.244 2.3336 -1.2572C2.3332 -1.261 2.3329 -1.2745 2.3327 -1.2977C2.3323 -1.3227 2.3323 -1.3476 2.3327 -1.3724L2.371376315789474 -1.3724000000000003L2.371376315789474 -1.3874000000000002L2.332676315789474 -1.3874000000000002L2.332676315789474 -1.4165L2.3176763157894738 -1.4165L2.3176763157894738 -1.3874000000000002L2.292476315789474 -1.3874000000000002L2.292476315789474 -1.3724000000000003L2.3176763157894738 -1.3724000000000003C2.3173 -1.3472 2.3173 -1.322 2.3177 -1.2968C2.3181 -1.2712 2.3186 -1.2556 2.3192 -1.25C2.321 -1.236 2.3255 -1.2259 2.3327 -1.2197C2.3371 -1.2159 2.344 -1.2135 2.3534 -1.2125C2.3568 -1.2121 2.3644 -1.2119 2.3762 -1.2119L2.3761763157894737 -1.2248C2.3594 -1.2244 2.3487 -1.2261 2.3441 -1.2299ZM2.5253 -1.3871L2.525276315789474 -1.2623000000000002C2.5221 -1.2535 2.5171 -1.2461 2.5103 -1.2401C2.4975 -1.2289 2.4843 -1.2233 2.4707 -1.2233C2.4501 -1.2233 2.4361 -1.2312 2.4287 -1.247C2.4233 -1.2586 2.4204 -1.2739 2.42 -1.2929L2.419976315789474 -1.3871000000000002L2.4043763157894738 -1.3871000000000002L2.4043763157894738 -1.2932000000000001C2.4044 -1.2692 2.4079 -1.2505 2.4149 -1.2371C2.4231 -1.2217 2.4388 -1.2123 2.462 -1.2089C2.4652 -1.2085 2.4685 -1.2083 2.4719 -1.2083C2.4923 -1.2083 2.5101 -1.2167 2.5253 -1.2335L2.525276315789474 -1.2140000000000002L2.539976315789474 -1.2140000000000002L2.539976315789474 -1.3871000000000002L2.525276315789474 -1.3871000000000002ZM2.6237 -1.3124C2.6039 -1.3244 2.594 -1.3354 2.594 -1.3454C2.594 -1.3472 2.5943 -1.3494 2.5949 -1.352C2.5981 -1.368 2.6081 -1.376 2.6249 -1.376C2.6279 -1.376 2.6312 -1.3757 2.6348 -1.3751C2.6422 -1.3739 2.6478 -1.3723 2.6516 -1.3703C2.6564 -1.3681 2.6619 -1.3639 2.6681 -1.3577L2.669576315789474 -1.3718000000000001C2.658 -1.3838 2.6421 -1.3898 2.6219 -1.3898C2.5979 -1.3898 2.5837 -1.3786 2.5793 -1.3562C2.5787 -1.353 2.5784 -1.35 2.5784 -1.3472C2.5784 -1.3342 2.5851 -1.3222 2.5985 -1.3112C2.6111 -1.3028 2.6236 -1.2944 2.636 -1.286C2.6494 -1.276 2.6561 -1.2658 2.6561 -1.2554C2.6561 -1.2534 2.6559 -1.2514 2.6555 -1.2494C2.6519 -1.2302 2.6411 -1.2206 2.6231 -1.2206C2.6073 -1.2206 2.5928 -1.2265 2.5796 -1.2383L2.578976315789474 -1.2218000000000002C2.5868 -1.2158 2.597 -1.2116 2.6096 -1.2092C2.614 -1.2082 2.6184 -1.2077 2.6228 -1.2077C2.635 -1.2077 2.6453 -1.2108 2.6537 -1.217C2.6629 -1.2234 2.6687 -1.2326 2.6711 -1.2446C2.6719 -1.249 2.6723 -1.253 2.6723 -1.2566C2.6723 -1.266 2.6688 -1.2748 2.6618 -1.283C2.6548 -1.2912 2.6421 -1.301 2.6237 -1.3124ZM2.9915 -1.4564C2.9613 -1.4564 2.9367 -1.4444 2.9177 -1.4204C2.8991 -1.3972 2.8898 -1.3682 2.8898 -1.3334C2.8898 -1.2988 2.8991 -1.2699 2.9177 -1.2467C2.9367 -1.2227 2.9613 -1.2107 2.9915 -1.2107C3.0221 -1.2107 3.0477 -1.2227 3.0683 -1.2467C3.0883 -1.2703 3.0983 -1.2992 3.0983 -1.3334C3.0983 -1.3678 3.0883 -1.3968 3.0683 -1.4204C3.0477 -1.4444 3.0221 -1.4564 2.9915 -1.4564ZM2.9915 -1.2248C2.9653 -1.2248 2.9441 -1.2354 2.9279 -1.2566C2.9125 -1.277 2.9048 -1.3026 2.9048 -1.3334C2.9048 -1.3644 2.9125 -1.39 2.9279 -1.4102C2.9441 -1.4314 2.9653 -1.442 2.9915 -1.442C3.0179 -1.442 3.0398 -1.4315 3.0572 -1.4105C3.0746 -1.3895 3.0833 -1.3638 3.0833 -1.3334C3.0833 -1.3032 3.0746 -1.2776 3.0572 -1.2565C3.0398 -1.2354 3.0179 -1.2248 2.9915 -1.2248ZM3.1856 -1.214L3.201176315789474 -1.2140000000000002L3.262076315789474 -1.3871000000000002L3.246176315789474 -1.3871000000000002L3.193376315789474 -1.2365000000000002L3.1387763157894737 -1.3871000000000002L3.122876315789474 -1.3871000000000002L3.185576315789474 -1.2140000000000002ZM3.4328 -1.3007C3.4336 -1.3217 3.4288 -1.3405 3.4184 -1.3571C3.4068 -1.3755 3.3912 -1.3863 3.3716 -1.3895C3.368 -1.3901 3.3645 -1.3904 3.3611 -1.3904C3.3433 -1.3904 3.3274 -1.3842 3.3134 -1.3718C3.2948 -1.3556 3.2845 -1.3351 3.2825 -1.3103C3.2823 -1.3091 3.2822 -1.3078 3.2822 -1.3064L3.282176315789474 -1.2998000000000003L3.282176315789474 -1.2935C3.2856 -1.2653 3.2958 -1.2437 3.3128 -1.2287C3.3276 -1.2157 3.3465 -1.2093 3.3695 -1.2095C3.3745 -1.2097 3.3797 -1.2101 3.3851 -1.2107C3.3983 -1.2123 3.4113 -1.215 3.4241 -1.2188C3.4241 -1.2182 3.4241 -1.2194 3.4241 -1.2224L3.424076315789474 -1.2335000000000003C3.4111 -1.2299 3.4028 -1.2277 3.3992 -1.2269C3.3894 -1.2243 3.3784 -1.2233 3.3662 -1.2239C3.349 -1.2239 3.334 -1.2295 3.3212 -1.2407C3.3098 -1.2507 3.3022 -1.2675 3.2984 -1.2911C3.2978 -1.2941 3.2975 -1.2968 3.2975 -1.2992L3.2974763157894738 -1.3007000000000002L3.432776315789474 -1.3007000000000002ZM3.362 -1.3751C3.3806 -1.3751 3.3958 -1.3649 3.4076 -1.3445C3.4126 -1.3363 3.4157 -1.3267 3.4169 -1.3157L3.2980763157894737 -1.3157C3.3007 -1.3329 3.3084 -1.3471 3.3212 -1.3583C3.334 -1.3695 3.3476 -1.3751 3.362 -1.3751ZM3.506 -1.3718C3.4988 -1.3654 3.4926 -1.3578 3.4874 -1.349L3.487376315789474 -1.3874000000000002L3.472376315789474 -1.3874000000000002L3.472376315789474 -1.2140000000000002L3.487376315789474 -1.2140000000000002L3.487376315789474 -1.2956C3.4874 -1.2974 3.488 -1.3019 3.4892 -1.3091C3.4928 -1.3313 3.5012 -1.3482 3.5144 -1.3598C3.521 -1.3654 3.5283 -1.3696 3.5363 -1.3724L3.5362763157894737 -1.3877000000000002C3.5247 -1.3845 3.5146 -1.3792 3.506 -1.3718ZM3.6197 -1.214L3.635276315789474 -1.2140000000000002L3.696176315789474 -1.3871000000000002L3.680276315789474 -1.3871000000000002L3.627476315789474 -1.2365000000000002L3.5728763157894736 -1.3871000000000002L3.556976315789474 -1.3871000000000002L3.619676315789474 -1.2140000000000002ZM3.7337 -1.3877L3.7336763157894737 -1.2137000000000002L3.748676315789474 -1.2137000000000002L3.748676315789474 -1.3877000000000002L3.7336763157894737 -1.3877000000000002ZM3.7487 -1.4318L3.7336763157894737 -1.4318000000000002L3.7336763157894737 -1.4168000000000003L3.748676315789474 -1.4168000000000003L3.748676315789474 -1.4318000000000002ZM3.9401 -1.3007C3.9409 -1.3217 3.9361 -1.3405 3.9257 -1.3571C3.9141 -1.3755 3.8985 -1.3863 3.8789 -1.3895C3.8753 -1.3901 3.8718 -1.3904 3.8684 -1.3904C3.8506 -1.3904 3.8347 -1.3842 3.8207 -1.3718C3.8021 -1.3556 3.7918 -1.3351 3.7898 -1.3103C3.7896 -1.3091 3.7895 -1.3078 3.7895 -1.3064L3.7894763157894737 -1.2998000000000003L3.7894763157894737 -1.2935C3.7929 -1.2653 3.8031 -1.2437 3.8201 -1.2287C3.8349 -1.2157 3.8538 -1.2093 3.8768 -1.2095C3.8818 -1.2097 3.887 -1.2101 3.8924 -1.2107C3.9056 -1.2123 3.9186 -1.215 3.9314 -1.2188C3.9314 -1.2182 3.9314 -1.2194 3.9314 -1.2224L3.931376315789474 -1.2335000000000003C3.9184 -1.2299 3.9101 -1.2277 3.9065 -1.2269C3.8967 -1.2243 3.8857 -1.2233 3.8735 -1.2239C3.8563 -1.2239 3.8413 -1.2295 3.8285 -1.2407C3.8171 -1.2507 3.8095 -1.2675 3.8057 -1.2911C3.8051 -1.2941 3.8048 -1.2968 3.8048 -1.2992L3.804776315789474 -1.3007000000000002L3.940076315789474 -1.3007000000000002ZM3.8693 -1.3751C3.8879 -1.3751 3.9031 -1.3649 3.9149 -1.3445C3.9199 -1.3363 3.923 -1.3267 3.9242 -1.3157L3.8053763157894736 -1.3157C3.808 -1.3329 3.8157 -1.3471 3.8285 -1.3583C3.8413 -1.3695 3.8549 -1.3751 3.8693 -1.3751ZM4.2098 -1.3871L4.156976315789474 -1.2365000000000002L4.102376315789474 -1.3871000000000002L4.102076315789474 -1.3871000000000002L4.086476315789474 -1.3871000000000002L4.033376315789473 -1.2365000000000002L3.9787763157894735 -1.3871000000000002L3.9628763157894737 -1.3871000000000002L4.025576315789474 -1.2140000000000002L4.041476315789474 -1.2140000000000002L4.0942763157894735 -1.3649000000000002L4.149176315789473 -1.2140000000000002L4.1647763157894735 -1.2140000000000002L4.225676315789474 -1.3871000000000002L4.209776315789474 -1.3871000000000002Z" stroke="none" fill="#666680"/>
  <path d="M-1.662 -3.7582L1.0154526315789476 -3.7582000000000004L1.0154526315789476 -2.2892L-1.662 -2.2892Z" stroke="none" fill="#3366CC"/>
  <path d="M-0.6435 -2.6586L-0.6328736842105263 -2.6586000000000003L-0.5768736842105262 -2.8180000000000005L-0.5874736842105261 -2.8180000000000005L-0.6382736842105261 -2.6736000000000004L-0.6902736842105262 -2.8180000000000005L-0.7008736842105261 -2.8180000000000005L-0.6434736842105262 -2.6586000000000003ZM-0.4591 -2.7166C-0.4585 -2.7306 -0.4617 -2.7431 -0.4687 -2.7542C-0.4764 -2.7665 -0.4868 -2.7737 -0.4999 -2.7758C-0.5023 -2.7762 -0.5046 -2.7764 -0.5069 -2.7764C-0.5187 -2.7764 -0.5293 -2.7723 -0.5387 -2.764C-0.5511 -2.7532 -0.5579 -2.7395 -0.5593 -2.723C-0.5594 -2.7222 -0.5595 -2.7213 -0.5595 -2.7204L-0.5594736842105261 -2.716L-0.5594736842105261 -2.7118C-0.5572 -2.693 -0.5504 -2.6786 -0.5391 -2.6686C-0.5292 -2.6599 -0.5166 -2.6557 -0.5013 -2.6558C-0.4979 -2.6559 -0.4945 -2.6562 -0.4909 -2.6566C-0.4821 -2.6577 -0.4734 -2.6595 -0.4649 -2.662C-0.4649 -2.6616 -0.4649 -2.6624 -0.4649 -2.6644L-0.4648736842105261 -2.6718C-0.4735 -2.6694 -0.4791 -2.6679 -0.4815 -2.6674C-0.488 -2.6657 -0.4953 -2.665 -0.5035 -2.6654C-0.5149 -2.6654 -0.5249 -2.6691 -0.5335 -2.6766C-0.5411 -2.6833 -0.5461 -2.6945 -0.5487 -2.7102C-0.5491 -2.7122 -0.5493 -2.714 -0.5493 -2.7156L-0.5492736842105261 -2.7166000000000006L-0.4590736842105261 -2.7166000000000006ZM-0.5063 -2.7662C-0.4939 -2.7662 -0.4837 -2.7594 -0.4759 -2.7458C-0.4725 -2.7403 -0.4705 -2.7339 -0.4697 -2.7266L-0.5488736842105262 -2.7266000000000004C-0.5471 -2.7381 -0.542 -2.7475 -0.5335 -2.755C-0.5249 -2.7625 -0.5159 -2.7662 -0.5063 -2.7662ZM-0.4293 -2.6584L-0.41927368421052624 -2.6584000000000003L-0.41927368421052624 -2.8426000000000005L-0.42927368421052625 -2.8426000000000005L-0.42927368421052625 -2.6584000000000003ZM-0.3343 -2.7768C-0.3483 -2.7768 -0.3606 -2.7709 -0.3714 -2.759C-0.3821 -2.7471 -0.3875 -2.7329 -0.3875 -2.7164C-0.3875 -2.6977 -0.3826 -2.683 -0.3729 -2.6722C-0.3631 -2.6614 -0.3503 -2.656 -0.3343 -2.656C-0.3176 -2.656 -0.3046 -2.6613 -0.2952 -2.672C-0.2858 -2.6827 -0.2811 -2.6975 -0.2811 -2.7164C-0.2811 -2.7329 -0.2864 -2.7471 -0.2971 -2.759C-0.3077 -2.7709 -0.3201 -2.7768 -0.3343 -2.7768ZM-0.3341 -2.666C-0.347 -2.666 -0.3574 -2.6705 -0.3653 -2.6795C-0.3731 -2.6885 -0.3771 -2.7008 -0.3771 -2.7164C-0.3771 -2.7301 -0.3727 -2.742 -0.3641 -2.7519C-0.3554 -2.7618 -0.3454 -2.7668 -0.3341 -2.7668C-0.3227 -2.7668 -0.3127 -2.7618 -0.3041 -2.7519C-0.2954 -2.742 -0.2911 -2.7301 -0.2911 -2.7164C-0.2911 -2.7011 -0.2951 -2.6888 -0.3031 -2.6797C-0.3111 -2.6706 -0.3214 -2.666 -0.3341 -2.666ZM-0.1683 -2.6718C-0.1769 -2.6694 -0.1825 -2.6679 -0.1849 -2.6674C-0.1914 -2.6657 -0.1987 -2.665 -0.2069 -2.6654C-0.2183 -2.6654 -0.2283 -2.6691 -0.2369 -2.6766C-0.2445 -2.6833 -0.2495 -2.6945 -0.2521 -2.7102C-0.2525 -2.7122 -0.2527 -2.714 -0.2527 -2.7156C-0.2528 -2.7188 -0.2528 -2.721 -0.2527 -2.7222C-0.2517 -2.7374 -0.2471 -2.7489 -0.2389 -2.7566C-0.2318 -2.7633 -0.2211 -2.7666 -0.2069 -2.7666C-0.1999 -2.7666 -0.1898 -2.7659 -0.1765 -2.7646L-0.17647368421052612 -2.7746000000000004C-0.1887 -2.7757 -0.1981 -2.7762 -0.2047 -2.7762C-0.2225 -2.7762 -0.2358 -2.7724 -0.2445 -2.7648C-0.2561 -2.7547 -0.2622 -2.7409 -0.2629 -2.7234C-0.2629 -2.7229 -0.2629 -2.7219 -0.2631 -2.7204L-0.2630736842105261 -2.716C-0.2631 -2.7152 -0.263 -2.7138 -0.2629 -2.7118C-0.261 -2.6933 -0.2541 -2.6789 -0.2423 -2.6686C-0.2325 -2.6599 -0.22 -2.6557 -0.2047 -2.6558C-0.2013 -2.6559 -0.1978 -2.6562 -0.1941 -2.6566C-0.1854 -2.6577 -0.1767 -2.6595 -0.1681 -2.662C-0.1681 -2.6616 -0.1681 -2.6624 -0.1683 -2.6644L-0.16827368421052613 -2.6718ZM-0.1423 -2.7746L-0.1422736842105261 -2.6586000000000003L-0.1322736842105261 -2.6586000000000003L-0.1322736842105261 -2.7746000000000004L-0.1422736842105261 -2.7746000000000004ZM-0.1323 -2.804L-0.1422736842105261 -2.8040000000000003L-0.1422736842105261 -2.7940000000000005L-0.1322736842105261 -2.7940000000000005L-0.1322736842105261 -2.8040000000000003ZM-0.0713 -2.6694C-0.075 -2.6727 -0.0773 -2.6788 -0.0783 -2.6876C-0.0785 -2.6901 -0.0787 -2.6991 -0.0789 -2.7146C-0.0791 -2.7313 -0.0791 -2.7479 -0.0789 -2.7644L-0.05307368421052616 -2.7644L-0.05307368421052616 -2.7744000000000004L-0.07887368421052621 -2.7744000000000004L-0.07887368421052621 -2.7938L-0.08887368421052622 -2.7938L-0.08887368421052622 -2.7744000000000004L-0.10567368421052614 -2.7744000000000004L-0.10567368421052614 -2.7644L-0.08887368421052622 -2.7644C-0.0891 -2.7476 -0.0891 -2.7308 -0.0889 -2.714C-0.0886 -2.6969 -0.0883 -2.6865 -0.0879 -2.6828C-0.0867 -2.6735 -0.0837 -2.6667 -0.0789 -2.6626C-0.0759 -2.6601 -0.0713 -2.6585 -0.0651 -2.6578C-0.0628 -2.6575 -0.0577 -2.6574 -0.0499 -2.6574L-0.04987368421052607 -2.6660000000000004C-0.0611 -2.6657 -0.0682 -2.6669 -0.0713 -2.6694ZM0.0439 -2.7742L0.008526315789473937 -2.6738000000000004L-0.02787368421052605 -2.7742000000000004L-0.038473684210526216 -2.7742000000000004L0.0033263157894738438 -2.6588000000000003L-0.012473684210526192 -2.6136000000000004C-0.0134 -2.6109 -0.0153 -2.6081 -0.0183 -2.6052C-0.0221 -2.6013 -0.0273 -2.599 -0.0337 -2.5982L-0.03327368421052612 -2.5892000000000004C-0.0233 -2.5905 -0.0156 -2.5938 -0.0103 -2.599C-0.0073 -2.6018 -0.0051 -2.6053 -0.0035 -2.6096L-0.0034736842105260735 -2.6096000000000004L-0.0032736842105260955 -2.6096000000000004C-0.0031 -2.6103 -0.0029 -2.6111 -0.0025 -2.6122L0.05432631578947378 -2.7742000000000004L0.04392631578947381 -2.7742000000000004Z" stroke="none" fill="#FFFFFF"/>
  <path d="M-1.1465 -3.2562C-1.1321 -3.2677 -1.1243 -3.2855 -1.1229 -3.3098C-1.1221 -3.3282 -1.1274 -3.3445 -1.1387 -3.3586C-1.1501 -3.3727 -1.1639 -3.3803 -1.1801 -3.3814L-1.1801473684210524 -3.3814C-1.1953 -3.3822 -1.2091 -3.377 -1.2213 -3.3658C-1.236 -3.3527 -1.2437 -3.3362 -1.2445 -3.3162C-1.2461 -3.2882 -1.2377 -3.2678 -1.2193 -3.255C-1.2316 -3.2475 -1.2415 -3.2372 -1.2491 -3.224C-1.2567 -3.2108 -1.2609 -3.1963 -1.2617 -3.1806C-1.2633 -3.1534 -1.2573 -3.1313 -1.2437 -3.1144C-1.2301 -3.0975 -1.2113 -3.0883 -1.1873 -3.087C-1.1641 -3.0857 -1.1453 -3.0917 -1.1309 -3.105C-1.1141 -3.1199 -1.1049 -3.1423 -1.1033 -3.1722C-1.1025 -3.1893 -1.1059 -3.2055 -1.1135 -3.2208C-1.1211 -3.2361 -1.1321 -3.2479 -1.1465 -3.2562L-1.1465473684210523 -3.2562000000000006ZM-1.1257 -3.1734C-1.1268 -3.1513 -1.1339 -3.1343 -1.1469 -3.1226C-1.1576 -3.113 -1.1707 -3.1086 -1.1861 -3.1094C-1.2045 -3.1102 -1.2184 -3.1177 -1.2277 -3.1318C-1.2365 -3.1443 -1.2404 -3.1602 -1.2393 -3.1794C-1.2383 -3.1997 -1.2304 -3.2163 -1.2157 -3.2294C-1.2045 -3.2395 -1.1923 -3.2443 -1.1789 -3.2438C-1.1637 -3.243 -1.1508 -3.2355 -1.1401 -3.2214C-1.1295 -3.2073 -1.1247 -3.1913 -1.1257 -3.1734ZM-1.2233 -3.315C-1.2225 -3.3275 -1.2179 -3.3383 -1.2095 -3.3472C-1.2011 -3.3561 -1.1917 -3.3603 -1.1813 -3.3598C-1.1707 -3.3593 -1.1617 -3.3541 -1.1543 -3.3442C-1.147 -3.3343 -1.1436 -3.3231 -1.1441 -3.3106C-1.1449 -3.2991 -1.148 -3.2894 -1.1533 -3.2814C-1.1595 -3.2726 -1.1679 -3.2675 -1.1785 -3.2662C-1.1815 -3.2662 -1.1844 -3.2661 -1.1873 -3.2658C-1.1988 -3.2666 -1.2078 -3.2715 -1.2143 -3.2804C-1.2209 -3.2893 -1.2239 -3.3009 -1.2233 -3.315L-1.2233473684210523 -3.3150000000000004ZM-0.8893 -3.1262L-0.9229473684210524 -3.1262000000000003L-0.9229473684210524 -3.3218000000000005L-0.9541473684210524 -3.3218000000000005C-0.9541 -3.3215 -0.9909 -3.2582 -1.0645 -3.1318L-1.0645473684210525 -3.1102000000000003L-0.9425473684210524 -3.1102000000000003L-0.9425473684210524 -3.0426L-0.9229473684210524 -3.0426L-0.9229473684210524 -3.1102000000000003L-0.8893473684210524 -3.1102000000000003L-0.8893473684210524 -3.1262000000000003ZM-0.9429 -3.2894L-0.9429473684210524 -3.1266000000000003L-1.0477473684210525 -3.1266000000000003L-0.9469473684210524 -3.2970000000000006C-0.9461 -3.2994 -0.9448 -3.3026 -0.9429 -3.3066L-0.9421473684210524 -3.3066000000000004C-0.9427 -3.2986 -0.9429 -3.2929 -0.9429 -3.2894ZM-0.8269 -3.265C-0.8253 -3.2797 -0.8195 -3.2913 -0.8093 -3.2998C-0.8005 -3.307 -0.79 -3.3106 -0.7777 -3.3106C-0.7657 -3.3106 -0.7551 -3.3071 -0.7457 -3.3002C-0.7343 -3.2917 -0.7285 -3.2798 -0.7285 -3.2646C-0.7285 -3.2454 -0.7421 -3.2217 -0.7693 -3.1934L-0.8521473684210524 -3.107L-0.8521473684210524 -3.0902000000000003L-0.7065473684210524 -3.0902000000000003L-0.7065473684210524 -3.1078C-0.7116 -3.1091 -0.7425 -3.1091 -0.7993 -3.1078L-0.8285473684210524 -3.107L-0.7589473684210524 -3.1790000000000003C-0.7392 -3.1993 -0.7255 -3.2165 -0.7177 -3.2306C-0.7113 -3.2418 -0.7081 -3.2531 -0.7081 -3.2646C-0.7081 -3.2827 -0.7145 -3.2976 -0.7271 -3.3092C-0.7398 -3.3208 -0.7563 -3.3266 -0.7765 -3.3266C-0.8016 -3.3266 -0.8203 -3.3191 -0.8325 -3.3042C-0.8395 -3.2959 -0.8449 -3.2837 -0.8489 -3.2674C-0.842 -3.2666 -0.8347 -3.2658 -0.8269 -3.265ZM-0.3381 -3.2218L-0.23614736842105244 -3.3218000000000005L-0.2649473684210524 -3.3218000000000005L-0.3645473684210523 -3.2238000000000007L-0.3645473684210523 -3.4582000000000006L-0.3845473684210523 -3.4582000000000006L-0.3845473684210523 -3.0898000000000003L-0.3645473684210523 -3.0898000000000003L-0.3645473684210523 -3.1954000000000002L-0.3525473684210523 -3.2078000000000007C-0.3149 -3.1707 -0.2804 -3.1315 -0.2489 -3.0902L-0.22374736842105225 -3.0902000000000003C-0.2584 -3.1369 -0.2965 -3.1807 -0.3381 -3.2218ZM0.1591 -3.291C0.1481 -3.3118 0.1272 -3.3243 0.0963 -3.3286C0.0917 -3.3294 0.0872 -3.3298 0.0827 -3.3298C0.06 -3.3298 0.0395 -3.3217 0.0211 -3.3054C0.0115 -3.2971 0.004 -3.2879 -0.0013 -3.2778C-0.012 -3.3066 -0.0348 -3.3235 -0.0697 -3.3286C-0.0743 -3.3294 -0.0788 -3.3298 -0.0833 -3.3298C-0.1108 -3.3298 -0.1345 -3.3185 -0.1545 -3.2958L-0.15454736842105232 -3.3218000000000005L-0.17454736842105234 -3.3218000000000005L-0.17454736842105234 -3.0902000000000003L-0.15454736842105232 -3.0902000000000003L-0.15454736842105232 -3.2574000000000005C-0.1505 -3.2689 -0.144 -3.2786 -0.1349 -3.2866C-0.1176 -3.3018 -0.0999 -3.3094 -0.0817 -3.3094C-0.054 -3.3094 -0.0352 -3.2987 -0.0253 -3.2774C-0.0181 -3.2619 -0.0143 -3.2415 -0.0137 -3.2162L-0.013747368421052286 -3.0898000000000003L0.0070526315789476435 -3.0898000000000003L0.0070526315789476435 -3.2154000000000003C0.0071 -3.225 0.0069 -3.2326 0.0067 -3.2382C0.0101 -3.2593 0.0183 -3.2754 0.0311 -3.2866C0.0484 -3.3018 0.0661 -3.3094 0.0843 -3.3094C0.112 -3.3094 0.1308 -3.2987 0.1407 -3.2774C0.1479 -3.2619 0.1517 -3.2415 0.1523 -3.2162L0.15225263157894764 -3.0898000000000003L0.17305263157894757 -3.0898000000000003L0.17305263157894757 -3.2154000000000003C0.1731 -3.2477 0.1684 -3.2729 0.1591 -3.291ZM0.2551 -3.089L0.3430526315789475 -3.4558000000000004L0.3226526315789475 -3.4558000000000004L0.23465263157894767 -3.0890000000000004L0.25505263157894764 -3.0890000000000004ZM0.6007 -3.2846C0.5932 -3.2979 0.5845 -3.3077 0.5745 -3.314C0.5645 -3.3203 0.5507 -3.3247 0.5331 -3.3274C0.5283 -3.3282 0.5236 -3.3286 0.5191 -3.3286C0.5023 -3.3286 0.486 -3.3241 0.4703 -3.315C0.4559 -3.3065 0.4436 -3.2949 0.4335 -3.2802L0.43345263157894776 -3.4582000000000006L0.41345263157894774 -3.4582000000000006L0.41345263157894774 -3.0898000000000003L0.43345263157894776 -3.0898000000000003L0.43345263157894776 -3.2166000000000006C0.4335 -3.2441 0.4441 -3.267 0.4655 -3.2854C0.4828 -3.3006 0.5011 -3.3082 0.5203 -3.3082C0.5235 -3.3082 0.5265 -3.3081 0.5295 -3.3078C0.5439 -3.3054 0.5547 -3.3017 0.5621 -3.2968C0.5694 -3.2919 0.5763 -3.2841 0.5827 -3.2734C0.5907 -3.2601 0.5947 -3.2406 0.5947 -3.215L0.5946526315789478 -3.2150000000000003L0.5946526315789478 -3.0902000000000003L0.6154526315789477 -3.0902000000000003L0.6154526315789477 -3.2150000000000003L0.6154526315789477 -3.2150000000000003C0.6152 -3.2454 0.6103 -3.2686 0.6007 -3.2846Z" stroke="none" fill="#FFFFFF"/>
  <path d="M-1.662 -3.7582L1.0154526315789476 -3.7582000000000004L1.0154526315789476 -2.2892L-1.662 -2.2892Z" stroke="none" fill="none"/>
  <path d="M1.3155 -3.721L3.8974526315789477 -3.72100945945946L3.8974526315789477 -2.326390540540541L1.3154526315789474 -2.326390540540541Z" stroke="none" fill="#CC3333"/>
  <path d="M2.3294 -2.7434C2.3293 -2.7439 2.3292 -2.745 2.3292 -2.7466C2.3288 -2.7553 2.3268 -2.7625 2.3232 -2.7684C2.3207 -2.7727 2.3165 -2.7772 2.3106 -2.782C2.3001 -2.7907 2.2868 -2.7944 2.2708 -2.7932C2.2662 -2.7932 2.2531 -2.7923 2.2316 -2.7906L2.231624060150376 -2.629990540540541L2.241624060150376 -2.629990540540541L2.241624060150376 -2.687190540540541C2.2544 -2.6861 2.2642 -2.6856 2.2708 -2.6856C2.285 -2.6856 2.2976 -2.6898 2.3086 -2.6982C2.3209 -2.7077 2.3278 -2.7199 2.3292 -2.7348C2.3292 -2.7359 2.3293 -2.7373 2.3294 -2.7392L2.3294240601503757 -2.743390540540541ZM2.319 -2.7386C2.3189 -2.7371 2.3187 -2.7354 2.3184 -2.7334C2.3167 -2.7222 2.3116 -2.7132 2.303 -2.7064C2.2932 -2.6983 2.2832 -2.6945 2.273 -2.6952C2.2693 -2.6952 2.2588 -2.6959 2.2416 -2.6972L2.241624060150376 -2.728590540540541L2.241624060150376 -2.728590540540541L2.241624060150376 -2.730190540540541C2.2415 -2.7321 2.2415 -2.7339 2.2416 -2.7358L2.241624060150376 -2.737190540540541L2.241624060150376 -2.737190540540541L2.241624060150376 -2.781590540540541C2.2542 -2.7829 2.2646 -2.7836 2.273 -2.7836C2.2853 -2.7844 2.296 -2.7811 2.3052 -2.7736C2.3136 -2.7667 2.3182 -2.7572 2.319 -2.7452C2.3192 -2.744 2.3192 -2.7418 2.319 -2.7386ZM2.3804 -2.7358C2.3756 -2.7315 2.3715 -2.7265 2.368 -2.7206L2.3680240601503755 -2.746190540540541L2.3580240601503757 -2.746190540540541L2.3580240601503757 -2.630590540540541L2.3680240601503755 -2.630590540540541L2.3680240601503755 -2.6849905405405408C2.368 -2.6862 2.3684 -2.6892 2.3692 -2.694C2.3716 -2.7088 2.3772 -2.7201 2.386 -2.7278C2.3904 -2.7315 2.3953 -2.7343 2.4006 -2.7362L2.400624060150376 -2.746390540540541C2.3929 -2.7443 2.3862 -2.7407 2.3804 -2.7358ZM2.5172 -2.6884C2.5178 -2.7024 2.5146 -2.7149 2.5076 -2.726C2.4999 -2.7383 2.4895 -2.7455 2.4764 -2.7476C2.474 -2.748 2.4717 -2.7482 2.4694 -2.7482C2.4576 -2.7482 2.447 -2.7441 2.4376 -2.7358C2.4252 -2.725 2.4184 -2.7113 2.417 -2.6948C2.4169 -2.694 2.4168 -2.6931 2.4168 -2.6922L2.4168240601503754 -2.687790540540541L2.4168240601503754 -2.683590540540541C2.4191 -2.6648 2.4259 -2.6504 2.4372 -2.6404C2.4471 -2.6317 2.4597 -2.6275 2.475 -2.6276C2.4784 -2.6277 2.4818 -2.628 2.4854 -2.6284C2.4942 -2.6295 2.5029 -2.6313 2.5114 -2.6338C2.5114 -2.6334 2.5114 -2.6342 2.5114 -2.6362L2.511424060150376 -2.643590540540541C2.5028 -2.6412 2.4972 -2.6397 2.4948 -2.6392C2.4883 -2.6375 2.481 -2.6368 2.4728 -2.6372C2.4614 -2.6372 2.4514 -2.6409 2.4428 -2.6484C2.4352 -2.6551 2.4302 -2.6663 2.4276 -2.682C2.4272 -2.684 2.427 -2.6858 2.427 -2.6874L2.4270240601503756 -2.688390540540541L2.517224060150376 -2.688390540540541ZM2.47 -2.738C2.4824 -2.738 2.4926 -2.7312 2.5004 -2.7176C2.5038 -2.7121 2.5058 -2.7057 2.5066 -2.6984L2.4274240601503756 -2.698390540540541C2.4292 -2.7099 2.4343 -2.7193 2.4428 -2.7268C2.4514 -2.7343 2.4604 -2.738 2.47 -2.738ZM2.5648 -2.6962C2.5516 -2.7042 2.545 -2.7115 2.545 -2.7182C2.545 -2.7194 2.5452 -2.7209 2.5456 -2.7226C2.5478 -2.7333 2.5544 -2.7386 2.5656 -2.7386C2.5676 -2.7386 2.5698 -2.7384 2.5722 -2.738C2.5772 -2.7372 2.5809 -2.7361 2.5834 -2.7348C2.5866 -2.7333 2.5903 -2.7305 2.5944 -2.7264L2.5954240601503757 -2.735790540540541C2.5877 -2.7438 2.5771 -2.7478 2.5636 -2.7478C2.5476 -2.7478 2.5382 -2.7403 2.5352 -2.7254C2.5348 -2.7233 2.5346 -2.7213 2.5346 -2.7194C2.5346 -2.7107 2.5391 -2.7027 2.548 -2.6954C2.5564 -2.6898 2.5648 -2.6842 2.573 -2.6786C2.582 -2.6719 2.5864 -2.6651 2.5864 -2.6582C2.5864 -2.6569 2.5863 -2.6555 2.586 -2.6542C2.5836 -2.6414 2.5764 -2.635 2.5644 -2.635C2.5539 -2.635 2.5442 -2.6389 2.5354 -2.6468L2.535024060150376 -2.635790540540541C2.5402 -2.6318 2.547 -2.629 2.5554 -2.6274C2.5584 -2.6267 2.5613 -2.6264 2.5642 -2.6264C2.5724 -2.6264 2.5792 -2.6285 2.5848 -2.6326C2.591 -2.6369 2.5948 -2.643 2.5964 -2.651C2.597 -2.6539 2.5972 -2.6566 2.5972 -2.659C2.5972 -2.6653 2.5949 -2.6711 2.5902 -2.6766C2.5856 -2.6821 2.5771 -2.6886 2.5648 -2.6962ZM2.643 -2.6962C2.6298 -2.7042 2.6232 -2.7115 2.6232 -2.7182C2.6232 -2.7194 2.6234 -2.7209 2.6238 -2.7226C2.626 -2.7333 2.6326 -2.7386 2.6438 -2.7386C2.6458 -2.7386 2.648 -2.7384 2.6504 -2.738C2.6554 -2.7372 2.6591 -2.7361 2.6616 -2.7348C2.6648 -2.7333 2.6685 -2.7305 2.6726 -2.7264L2.6736240601503756 -2.735790540540541C2.6659 -2.7438 2.6553 -2.7478 2.6418 -2.7478C2.6258 -2.7478 2.6164 -2.7403 2.6134 -2.7254C2.613 -2.7233 2.6128 -2.7213 2.6128 -2.7194C2.6128 -2.7107 2.6173 -2.7027 2.6262 -2.6954C2.6346 -2.6898 2.643 -2.6842 2.6512 -2.6786C2.6602 -2.6719 2.6646 -2.6651 2.6646 -2.6582C2.6646 -2.6569 2.6645 -2.6555 2.6642 -2.6542C2.6618 -2.6414 2.6546 -2.635 2.6426 -2.635C2.6321 -2.635 2.6224 -2.6389 2.6136 -2.6468L2.613224060150376 -2.635790540540541C2.6184 -2.6318 2.6252 -2.629 2.6336 -2.6274C2.6366 -2.6267 2.6395 -2.6264 2.6424 -2.6264C2.6506 -2.6264 2.6574 -2.6285 2.663 -2.6326C2.6692 -2.6369 2.673 -2.643 2.6746 -2.651C2.6752 -2.6539 2.6754 -2.6566 2.6754 -2.659C2.6754 -2.6653 2.6731 -2.6711 2.6684 -2.6766C2.6638 -2.6821 2.6553 -2.6886 2.643 -2.6962ZM2.7776 -2.746L2.7776240601503757 -2.662790540540541C2.7755 -2.6569 2.7722 -2.652 2.7676 -2.648C2.7591 -2.6405 2.7503 -2.6368 2.7412 -2.6368C2.7275 -2.6368 2.7182 -2.6421 2.7132 -2.6526C2.7096 -2.6603 2.7077 -2.6705 2.7074 -2.6832L2.707424060150376 -2.745990540540541L2.697024060150376 -2.745990540540541L2.697024060150376 -2.683390540540541C2.697 -2.6674 2.6994 -2.6549 2.704 -2.646C2.7095 -2.6357 2.72 -2.6295 2.7354 -2.6272C2.7376 -2.6269 2.7398 -2.6268 2.742 -2.6268C2.7556 -2.6268 2.7675 -2.6324 2.7776 -2.6436L2.7776240601503757 -2.630590540540541L2.787424060150376 -2.630590540540541L2.787424060150376 -2.745990540540541L2.7776240601503757 -2.745990540540541ZM2.8444 -2.7358C2.8396 -2.7315 2.8355 -2.7265 2.832 -2.7206L2.832024060150376 -2.746190540540541L2.822024060150376 -2.746190540540541L2.822024060150376 -2.630590540540541L2.832024060150376 -2.630590540540541L2.832024060150376 -2.6849905405405408C2.832 -2.6862 2.8324 -2.6892 2.8332 -2.694C2.8356 -2.7088 2.8412 -2.7201 2.85 -2.7278C2.8544 -2.7315 2.8593 -2.7343 2.8646 -2.7362L2.8646240601503754 -2.746390540540541C2.8569 -2.7443 2.8502 -2.7407 2.8444 -2.7358ZM2.9812 -2.6884C2.9818 -2.7024 2.9786 -2.7149 2.9716 -2.726C2.9639 -2.7383 2.9535 -2.7455 2.9404 -2.7476C2.938 -2.748 2.9357 -2.7482 2.9334 -2.7482C2.9216 -2.7482 2.911 -2.7441 2.9016 -2.7358C2.8892 -2.725 2.8824 -2.7113 2.881 -2.6948C2.8809 -2.694 2.8808 -2.6931 2.8808 -2.6922L2.880824060150376 -2.687790540540541L2.880824060150376 -2.683590540540541C2.8831 -2.6648 2.8899 -2.6504 2.9012 -2.6404C2.9111 -2.6317 2.9237 -2.6275 2.939 -2.6276C2.9424 -2.6277 2.9458 -2.628 2.9494 -2.6284C2.9582 -2.6295 2.9669 -2.6313 2.9754 -2.6338C2.9754 -2.6334 2.9754 -2.6342 2.9754 -2.6362L2.9754240601503756 -2.643590540540541C2.9668 -2.6412 2.9612 -2.6397 2.9588 -2.6392C2.9523 -2.6375 2.945 -2.6368 2.9368 -2.6372C2.9254 -2.6372 2.9154 -2.6409 2.9068 -2.6484C2.8992 -2.6551 2.8942 -2.6663 2.8916 -2.682C2.8912 -2.684 2.891 -2.6858 2.891 -2.6874L2.891024060150376 -2.688390540540541L2.9812240601503754 -2.688390540540541ZM2.934 -2.738C2.9464 -2.738 2.9566 -2.7312 2.9644 -2.7176C2.9678 -2.7121 2.9698 -2.7057 2.9706 -2.6984L2.891424060150376 -2.698390540540541C2.8932 -2.7099 2.8983 -2.7193 2.9068 -2.7268C2.9154 -2.7343 2.9244 -2.738 2.934 -2.738Z" stroke="none" fill="#FFFFFF"/>
  <path d="M1.7891 -3.053L1.7890526315789472 -3.28460945945946L1.7686526315789473 -3.28460945945946L1.7154526315789473 -3.24780945945946C1.7197 -3.243 1.724 -3.2379 1.7283 -3.2326C1.7285 -3.2329 1.742 -3.2423 1.7687 -3.261L1.7686526315789473 -3.05300945945946L1.7890526315789472 -3.05300945945946ZM1.9719 -3.2894C1.9436 -3.2894 1.9188 -3.2775 1.8975 -3.2538C1.8761 -3.2301 1.8655 -3.2017 1.8655 -3.1686C1.8655 -3.1313 1.8752 -3.1018 1.8947 -3.0802C1.9141 -3.0586 1.9399 -3.0478 1.9719 -3.0478C2.0052 -3.0478 2.0313 -3.0584 2.0501 -3.0796C2.0689 -3.1008 2.0783 -3.1305 2.0783 -3.1686C2.0783 -3.2017 2.0676 -3.2301 2.0463 -3.2538C2.0249 -3.2775 2.0001 -3.2894 1.9719 -3.2894ZM1.9723 -3.0678C1.9464 -3.0678 1.9257 -3.0766 1.9103 -3.0942C1.894 -3.1126 1.8859 -3.1374 1.8859 -3.1686C1.8859 -3.1961 1.8946 -3.2197 1.9121 -3.2396C1.9295 -3.2595 1.9496 -3.2694 1.9723 -3.2694C1.9949 -3.2694 2.0149 -3.2595 2.0323 -3.2396C2.0496 -3.2197 2.0583 -3.1961 2.0583 -3.1686C2.0583 -3.1379 2.0503 -3.1135 2.0343 -3.0952C2.0183 -3.0769 1.9976 -3.0678 1.9723 -3.0678ZM2.1923 -3.053L2.1922526315789472 -3.28460945945946L2.1718526315789473 -3.28460945945946L2.1186526315789473 -3.24780945945946C2.1229 -3.243 2.1272 -3.2379 2.1315 -3.2326C2.1317 -3.2329 2.1452 -3.2423 2.1719 -3.261L2.1718526315789473 -3.05300945945946L2.1922526315789472 -3.05300945945946ZM2.2863 -3.081L2.314252631578947 -3.0810094594594597L2.314252631578947 -3.05300945945946L2.2862526315789475 -3.05300945945946L2.2862526315789475 -3.0810094594594597ZM2.5211 -3.105C2.5211 -3.1386 2.5064 -3.1614 2.4771 -3.1734L2.476652631578947 -3.17340945945946L2.476652631578947 -3.17500945945946L2.476652631578947 -3.17500945945946C2.5025 -3.1859 2.5155 -3.2042 2.5155 -3.2298C2.5155 -3.2429 2.5128 -3.2539 2.5075 -3.263C2.4971 -3.2798 2.4784 -3.2882 2.4515 -3.2882C2.4136 -3.2882 2.3888 -3.2726 2.3771 -3.2414C2.3776 -3.2411 2.3841 -3.2386 2.3967 -3.2338C2.4049 -3.2575 2.4233 -3.2694 2.4519 -3.2694C2.4801 -3.2694 2.4943 -3.2558 2.4943 -3.2286C2.4943 -3.2075 2.4853 -3.1941 2.4675 -3.1882C2.4611 -3.1863 2.4524 -3.1854 2.4415 -3.1854L2.4298526315789477 -3.1854094594594597L2.4298526315789477 -3.16380945945946L2.4326526315789474 -3.16420945945946L2.445052631578947 -3.16380945945946C2.4629 -3.1635 2.4768 -3.1574 2.4867 -3.1454C2.496 -3.1345 2.5009 -3.1199 2.5015 -3.1018C2.5007 -3.0831 2.4991 -3.0694 2.4967 -3.0606C2.494 -3.0505 2.4892 -3.0419 2.4823 -3.035C2.4679 -3.0203 2.4475 -3.013 2.4211 -3.013C2.4083 -3.013 2.3917 -3.0146 2.3715 -3.0178L2.3678526315789474 -2.99820945945946C2.3881 -2.995 2.4047 -2.9934 2.4175 -2.9934C2.4492 -2.9934 2.4741 -3.0011 2.4923 -3.0166C2.5115 -3.0326 2.5211 -3.0621 2.5211 -3.105ZM2.8891 -3.1846L2.991052631578947 -3.28460945945946L2.9622526315789477 -3.28460945945946L2.862652631578947 -3.1866094594594596L2.862652631578947 -3.4210094594594596L2.8426526315789475 -3.4210094594594596L2.8426526315789475 -3.0526094594594597L2.862652631578947 -3.0526094594594597L2.862652631578947 -3.15820945945946L2.8746526315789476 -3.1706094594594596C2.9123 -3.1335 2.9468 -3.0943 2.9783 -3.053L3.0034526315789476 -3.05300945945946C2.9688 -3.0997 2.9307 -3.1435 2.8891 -3.1846ZM3.2523 -3.2786C3.252 -3.2797 3.2519 -3.2818 3.2519 -3.285C3.2511 -3.3023 3.2471 -3.3169 3.2399 -3.3286C3.2348 -3.3371 3.2264 -3.3462 3.2147 -3.3558C3.1936 -3.3731 3.1671 -3.3806 3.1351 -3.3782C3.1257 -3.3782 3.0996 -3.3765 3.0567 -3.373L3.056652631578947 -3.05180945945946L3.0766526315789475 -3.05180945945946L3.0766526315789475 -3.16620945945946C3.1023 -3.1641 3.1217 -3.163 3.1351 -3.163C3.1633 -3.163 3.1885 -3.1714 3.2107 -3.1882C3.2352 -3.2071 3.2489 -3.2315 3.2519 -3.2614C3.2519 -3.2635 3.252 -3.2665 3.2523 -3.2702L3.2522526315789477 -3.27860945945946ZM3.2315 -3.269C3.2312 -3.2661 3.2308 -3.2626 3.2303 -3.2586C3.2268 -3.2362 3.2165 -3.2182 3.1995 -3.2046C3.1797 -3.1883 3.1597 -3.1809 3.1395 -3.1822C3.132 -3.1822 3.1111 -3.1835 3.0767 -3.1862L3.0766526315789475 -3.24900945945946L3.0766526315789475 -3.24900945945946L3.0766526315789475 -3.25220945945946C3.0764 -3.2559 3.0764 -3.2597 3.0767 -3.2634L3.0766526315789475 -3.2662094594594597L3.0766526315789475 -3.2662094594594597L3.0766526315789475 -3.3550094594594597C3.1017 -3.3577 3.1227 -3.359 3.1395 -3.359C3.164 -3.3606 3.1855 -3.3539 3.2039 -3.339C3.2207 -3.3251 3.2299 -3.3062 3.2315 -3.2822C3.2317 -3.2798 3.2317 -3.2754 3.2315 -3.269ZM3.4191 -3.2878C3.3887 -3.2899 3.3627 -3.2814 3.3411 -3.2622C3.3179 -3.2419 3.3036 -3.2153 3.2983 -3.1822C3.2969 -3.1742 3.2963 -3.1663 3.2963 -3.1586C3.2963 -3.1287 3.3047 -3.1027 3.3215 -3.0806C3.3399 -3.0566 3.3635 -3.0446 3.3923 -3.0446C3.416 -3.0446 3.4372 -3.0527 3.4559 -3.069C3.4649 -3.077 3.4721 -3.085 3.4775 -3.093L3.477452631578948 -3.07900945945946L3.477452631578948 -3.07900945945946L3.477452631578948 -3.07900945945946L3.477452631578948 -3.05300945945946L3.4974526315789474 -3.05300945945946L3.4974526315789474 -3.2822094594594597C3.4663 -3.2857 3.4401 -3.2875 3.4191 -3.2878ZM3.4775 -3.1618C3.4772 -3.1306 3.4667 -3.1058 3.4459 -3.0874C3.4285 -3.0725 3.4101 -3.065 3.3907 -3.065C3.3661 -3.065 3.3459 -3.0785 3.3299 -3.1054C3.3213 -3.1201 3.3171 -3.1375 3.3171 -3.1578C3.3171 -3.1741 3.32 -3.1901 3.3259 -3.2058C3.3323 -3.2231 3.3409 -3.2366 3.3519 -3.2462C3.3705 -3.2627 3.3915 -3.2702 3.4147 -3.2686C3.4221 -3.2686 3.4431 -3.2673 3.4775 -3.2646L3.477452631578948 -3.1618094594594597Z" stroke="none" fill="#FFFFFF"/>
  <path d="M1.3155 -3.721L3.8974526315789477 -3.72100945945946L3.8974526315789477 -2.326390540540541L1.3154526315789474 -2.326390540540541Z" stroke="none" fill="none"/>
  <path d="M4.1975 -3.7901L6.509452631578948 -3.7901000000000007L6.509452631578948 -2.2573000000000003L4.197452631578947 -2.2573000000000003Z" stroke="none" fill="#33B34D"/>
  <path d="M5.0406 -2.7753L5.110824060150375 -2.7753000000000005L5.110824060150375 -2.7853000000000003L5.040624060150376 -2.7853000000000003L5.040624060150376 -2.7853000000000003L5.030624060150376 -2.7853000000000003L5.030624060150376 -2.6257L5.110624060150376 -2.6257L5.110624060150376 -2.6355000000000004L5.040624060150376 -2.6353000000000004L5.040624060150376 -2.6883000000000004L5.040624060150376 -2.6883000000000004L5.040624060150376 -2.6883000000000004L5.040624060150376 -2.7077000000000004L5.110824060150375 -2.7077000000000004L5.110824060150375 -2.7177000000000002L5.040624060150376 -2.7177000000000002L5.040624060150376 -2.7753000000000005ZM5.2336 -2.7229C5.2298 -2.7294 5.2254 -2.7343 5.2204 -2.7374C5.2155 -2.7405 5.2086 -2.7428 5.1996 -2.7443C5.1974 -2.7446 5.195 -2.7447 5.1926 -2.7447C5.1842 -2.7447 5.1763 -2.7425 5.1687 -2.7381C5.1612 -2.7337 5.155 -2.7279 5.15 -2.7207L5.1500240601503755 -2.7413000000000003L5.140024060150376 -2.7413000000000003L5.140024060150376 -2.6257L5.1500240601503755 -2.6257L5.1500240601503755 -2.6889000000000003C5.15 -2.7025 5.1553 -2.714 5.1658 -2.7233C5.1745 -2.7309 5.1837 -2.7347 5.1934 -2.7347C5.1949 -2.7347 5.1964 -2.7346 5.1978 -2.7343C5.205 -2.7331 5.2105 -2.7313 5.2142 -2.7289C5.218 -2.7265 5.2214 -2.7226 5.2244 -2.7171C5.2284 -2.7104 5.2304 -2.7008 5.2304 -2.6881L5.2304240601503755 -2.6881000000000004L5.2304240601503755 -2.6257L5.240824060150376 -2.6257L5.240824060150376 -2.6881000000000004C5.2408 -2.703 5.2384 -2.7146 5.2336 -2.7229ZM5.3274 -2.7437C5.3122 -2.7448 5.2992 -2.7405 5.2882 -2.7309C5.2765 -2.7208 5.2693 -2.7074 5.2666 -2.6907C5.2661 -2.6867 5.2658 -2.6828 5.2658 -2.6789C5.2658 -2.6638 5.27 -2.6508 5.2784 -2.6397C5.2876 -2.6277 5.2995 -2.6217 5.314 -2.6217C5.3259 -2.6217 5.3365 -2.6258 5.3458 -2.6339C5.3504 -2.6379 5.354 -2.6419 5.3568 -2.6459L5.356824060150376 -2.6389000000000005L5.356824060150376 -2.6389000000000005L5.356824060150376 -2.6389000000000005L5.356824060150376 -2.6243000000000003L5.356824060150376 -2.6179C5.3564 -2.5994 5.3516 -2.586 5.3422 -2.5779C5.334 -2.5707 5.3238 -2.5671 5.3118 -2.5671C5.3053 -2.5671 5.297 -2.5679 5.287 -2.5695L5.285224060150376 -2.5597000000000003C5.2952 -2.5581 5.3035 -2.5573 5.31 -2.5573C5.3142 -2.5573 5.318 -2.5575 5.3214 -2.5579C5.3324 -2.5595 5.341 -2.5631 5.3472 -2.5687C5.36 -2.5799 5.3666 -2.5962 5.3668 -2.6175C5.367 -2.627 5.367 -2.6373 5.3668 -2.6485L5.366824060150376 -2.7411000000000003C5.3512 -2.7427 5.3381 -2.7436 5.3274 -2.7437ZM5.3568 -2.6805C5.3567 -2.6649 5.3514 -2.6524 5.3408 -2.6431C5.3322 -2.6355 5.323 -2.6317 5.3132 -2.6317C5.3008 -2.6317 5.2906 -2.6386 5.2826 -2.6523C5.2784 -2.6596 5.2762 -2.6684 5.2762 -2.6785C5.2762 -2.6866 5.2777 -2.6947 5.2806 -2.7027C5.2838 -2.7112 5.2882 -2.718 5.2938 -2.7229C5.3032 -2.731 5.3136 -2.7348 5.3252 -2.7341C5.329 -2.7341 5.3395 -2.7335 5.3568 -2.7323C5.3571 -2.7286 5.3571 -2.7113 5.3568 -2.6805ZM5.404 -2.7415L5.404024060150376 -2.6255L5.414024060150376 -2.6255L5.414024060150376 -2.7415000000000003L5.404024060150376 -2.7415000000000003ZM5.414 -2.7709L5.404024060150376 -2.7709L5.404024060150376 -2.7609000000000004L5.414024060150376 -2.7609000000000004L5.414024060150376 -2.7709ZM5.5458 -2.7229C5.542 -2.7294 5.5376 -2.7343 5.5326 -2.7374C5.5277 -2.7405 5.5208 -2.7428 5.5118 -2.7443C5.5096 -2.7446 5.5072 -2.7447 5.5048 -2.7447C5.4964 -2.7447 5.4885 -2.7425 5.4809 -2.7381C5.4734 -2.7337 5.4672 -2.7279 5.4622 -2.7207L5.462224060150376 -2.7413000000000003L5.4522240601503755 -2.7413000000000003L5.4522240601503755 -2.6257L5.462224060150376 -2.6257L5.462224060150376 -2.6889000000000003C5.4622 -2.7025 5.4675 -2.714 5.478 -2.7233C5.4867 -2.7309 5.4959 -2.7347 5.5056 -2.7347C5.5071 -2.7347 5.5086 -2.7346 5.51 -2.7343C5.5172 -2.7331 5.5227 -2.7313 5.5264 -2.7289C5.5302 -2.7265 5.5336 -2.7226 5.5366 -2.7171C5.5406 -2.7104 5.5426 -2.7008 5.5426 -2.6881L5.542624060150376 -2.6881000000000004L5.542624060150376 -2.6257L5.553024060150376 -2.6257L5.553024060150376 -2.6881000000000004C5.553 -2.703 5.5506 -2.7146 5.5458 -2.7229ZM5.6762 -2.6835C5.6768 -2.6975 5.6736 -2.71 5.6666 -2.7211C5.6589 -2.7334 5.6485 -2.7406 5.6354 -2.7427C5.633 -2.7431 5.6307 -2.7433 5.6284 -2.7433C5.6166 -2.7433 5.606 -2.7392 5.5966 -2.7309C5.5842 -2.7201 5.5774 -2.7064 5.576 -2.6899C5.5759 -2.6891 5.5758 -2.6882 5.5758 -2.6873L5.575824060150376 -2.6829L5.575824060150376 -2.6787C5.5781 -2.6599 5.5849 -2.6455 5.5962 -2.6355C5.6061 -2.6268 5.6187 -2.6226 5.634 -2.6227C5.6374 -2.6228 5.6408 -2.6231 5.6444 -2.6235C5.6532 -2.6246 5.6619 -2.6264 5.6704 -2.6289C5.6704 -2.6285 5.6704 -2.6293 5.6704 -2.6313L5.670424060150376 -2.6387C5.6618 -2.6363 5.6562 -2.6348 5.6538 -2.6343C5.6473 -2.6326 5.64 -2.6319 5.6318 -2.6323C5.6204 -2.6323 5.6104 -2.636 5.6018 -2.6435C5.5942 -2.6502 5.5892 -2.6614 5.5866 -2.6771C5.5862 -2.6791 5.586 -2.6809 5.586 -2.6825L5.5860240601503754 -2.6835000000000004L5.676224060150376 -2.6835000000000004ZM5.629 -2.7331C5.6414 -2.7331 5.6516 -2.7263 5.6594 -2.7127C5.6628 -2.7072 5.6648 -2.7008 5.6656 -2.6935L5.586424060150375 -2.6935000000000002C5.5882 -2.705 5.5933 -2.7144 5.6018 -2.7219C5.6104 -2.7294 5.6194 -2.7331 5.629 -2.7331Z" stroke="none" fill="#FFFFFF"/>
  <path d="M4.7331 -3.4457C4.6928 -3.4457 4.66 -3.4297 4.6347 -3.3977C4.6099 -3.3668 4.5975 -3.3281 4.5975 -3.2817C4.5975 -3.2356 4.6099 -3.197 4.6347 -3.1661C4.66 -3.1341 4.6928 -3.1181 4.7331 -3.1181C4.7739 -3.1181 4.808 -3.1341 4.8355 -3.1661C4.8621 -3.1976 4.8755 -3.2361 4.8755 -3.2817C4.8755 -3.3276 4.8621 -3.3662 4.8355 -3.3977C4.808 -3.4297 4.7739 -3.4457 4.7331 -3.4457ZM4.7331 -3.1369C4.6981 -3.1369 4.6699 -3.151 4.6483 -3.1793C4.6277 -3.2065 4.6175 -3.2406 4.6175 -3.2817C4.6175 -3.323 4.6277 -3.3572 4.6483 -3.3841C4.6699 -3.4124 4.6981 -3.4265 4.7331 -3.4265C4.7683 -3.4265 4.7975 -3.4125 4.8207 -3.3845C4.8439 -3.3565 4.8555 -3.3222 4.8555 -3.2817C4.8555 -3.2414 4.8439 -3.2072 4.8207 -3.1791C4.7975 -3.151 4.7683 -3.1369 4.7331 -3.1369ZM5.1295 -3.2525C5.1279 -3.2874 5.1155 -3.3152 5.0923 -3.3357C5.0747 -3.3512 5.052 -3.3589 5.0243 -3.3589C5.0203 -3.3589 5.0163 -3.3588 5.0123 -3.3585C5.0029 -3.3585 4.9768 -3.3566 4.9339 -3.3529L4.933852631578947 -2.9853000000000005L4.953852631578947 -2.9853000000000005L4.953852631578947 -3.1205000000000003C4.9795 -3.1181 4.9989 -3.1169 5.0123 -3.1169C5.0435 -3.1169 5.0688 -3.1254 5.0883 -3.1425C5.112 -3.1633 5.1256 -3.1921 5.1291 -3.2289C5.1293 -3.231 5.1295 -3.234 5.1295 -3.2377C5.1297 -3.2414 5.1298 -3.2441 5.1297 -3.2457C5.1295 -3.2473 5.1295 -3.2496 5.1295 -3.2525ZM5.1087 -3.2369C5.1087 -3.2337 5.1084 -3.2301 5.1079 -3.2261C5.1025 -3.1944 5.0923 -3.1718 5.0771 -3.1585C5.0584 -3.1422 5.0384 -3.1348 5.0171 -3.1361C5.0093 -3.1361 4.9883 -3.1374 4.9539 -3.1401L4.953852631578947 -3.2289000000000003L4.953852631578947 -3.2289000000000003L4.953852631578947 -3.2321000000000004L4.953852631578947 -3.2433000000000005L4.953852631578947 -3.2461L4.953852631578947 -3.2461L4.953852631578947 -3.3349C4.9789 -3.3376 5 -3.339 5.0171 -3.3393C5.0437 -3.3409 5.0652 -3.3341 5.0815 -3.3189C5.0977 -3.3037 5.1069 -3.2806 5.1091 -3.2497C5.1091 -3.2476 5.1089 -3.2433 5.1087 -3.2369ZM5.2331 -3.1437C5.2256 -3.1504 5.2209 -3.1625 5.2191 -3.1801C5.2185 -3.1852 5.2181 -3.2032 5.2179 -3.2341C5.2173 -3.2674 5.2173 -3.3006 5.2179 -3.3337L5.269452631578948 -3.3337000000000003L5.269452631578948 -3.3537000000000003L5.217852631578947 -3.3537000000000003L5.217852631578947 -3.3925L5.1978526315789475 -3.3925L5.1978526315789475 -3.3537000000000003L5.164252631578948 -3.3537000000000003L5.164252631578948 -3.3337000000000003L5.1978526315789475 -3.3337000000000003C5.1973 -3.3001 5.1973 -3.2665 5.1979 -3.2329C5.1984 -3.1988 5.1991 -3.178 5.1999 -3.1705C5.2023 -3.1518 5.2083 -3.1384 5.2179 -3.1301C5.2237 -3.125 5.2329 -3.1218 5.2455 -3.1205C5.25 -3.12 5.2601 -3.1197 5.2759 -3.1197L5.275852631578947 -3.1369000000000002C5.2535 -3.1364 5.2392 -3.1386 5.2331 -3.1437ZM5.3259 -3.3541L5.325852631578948 -3.1221000000000005L5.345852631578947 -3.1221000000000005L5.345852631578947 -3.3541000000000003L5.325852631578948 -3.3541000000000003ZM5.3459 -3.4129L5.325852631578948 -3.4129000000000005L5.325852631578948 -3.3929000000000005L5.345852631578947 -3.3929000000000005L5.345852631578947 -3.4129000000000005ZM5.7563 -3.3233C5.7453 -3.3441 5.7244 -3.3566 5.6935 -3.3609C5.6889 -3.3617 5.6844 -3.3621 5.6799 -3.3621C5.6572 -3.3621 5.6367 -3.354 5.6183 -3.3377C5.6087 -3.3294 5.6012 -3.3202 5.5959 -3.3101C5.5852 -3.3389 5.5624 -3.3558 5.5275 -3.3609C5.5229 -3.3617 5.5184 -3.3621 5.5139 -3.3621C5.4864 -3.3621 5.4627 -3.3508 5.4427 -3.3281L5.442652631578947 -3.3541000000000003L5.422652631578948 -3.3541000000000003L5.422652631578948 -3.1225000000000005L5.442652631578947 -3.1225000000000005L5.442652631578947 -3.2897000000000003C5.4467 -3.3012 5.4532 -3.3109 5.4623 -3.3189C5.4796 -3.3341 5.4973 -3.3417 5.5155 -3.3417C5.5432 -3.3417 5.562 -3.331 5.5719 -3.3097C5.5791 -3.2942 5.5829 -3.2738 5.5835 -3.2485L5.583452631578948 -3.1221000000000005L5.604252631578947 -3.1221000000000005L5.604252631578947 -3.2477C5.6043 -3.2573 5.6041 -3.2649 5.6039 -3.2705C5.6073 -3.2916 5.6155 -3.3077 5.6283 -3.3189C5.6456 -3.3341 5.6633 -3.3417 5.6815 -3.3417C5.7092 -3.3417 5.728 -3.331 5.7379 -3.3097C5.7451 -3.2942 5.7489 -3.2738 5.7495 -3.2485L5.749452631578947 -3.1221000000000005L5.7702526315789475 -3.1221000000000005L5.7702526315789475 -3.2477C5.7703 -3.28 5.7656 -3.3052 5.7563 -3.3233ZM5.9435 -3.3573C5.9131 -3.3594 5.8871 -3.3509 5.8655 -3.3317C5.8423 -3.3114 5.828 -3.2848 5.8227 -3.2517C5.8213 -3.2437 5.8207 -3.2358 5.8207 -3.2281C5.8207 -3.1982 5.8291 -3.1722 5.8459 -3.1501C5.8643 -3.1261 5.8879 -3.1141 5.9167 -3.1141C5.9404 -3.1141 5.9616 -3.1222 5.9803 -3.1385C5.9893 -3.1465 5.9965 -3.1545 6.0019 -3.1625L6.001852631578947 -3.1485000000000003L6.001852631578947 -3.1485000000000003L6.001852631578947 -3.1485000000000003L6.001852631578947 -3.1225000000000005L6.021852631578947 -3.1225000000000005L6.021852631578947 -3.3517C5.9907 -3.3552 5.9645 -3.357 5.9435 -3.3573ZM6.0019 -3.2313C6.0016 -3.2001 5.9911 -3.1753 5.9703 -3.1569C5.9529 -3.142 5.9345 -3.1345 5.9151 -3.1345C5.8905 -3.1345 5.8703 -3.148 5.8543 -3.1749C5.8457 -3.1896 5.8415 -3.207 5.8415 -3.2273C5.8415 -3.2436 5.8444 -3.2596 5.8503 -3.2753C5.8567 -3.2926 5.8653 -3.3061 5.8763 -3.3157C5.8949 -3.3322 5.9159 -3.3397 5.9391 -3.3381C5.9465 -3.3381 5.9675 -3.3368 6.0019 -3.3341L6.001852631578947 -3.2313ZM6.0895 -3.1217L6.1094526315789475 -3.1217000000000006L6.1094526315789475 -3.4901000000000004L6.089452631578947 -3.4901000000000004L6.089452631578947 -3.1217000000000006Z" stroke="none" fill="#FFFFFF"/>
  <path d="M4.1975 -3.7901L6.509452631578948 -3.7901000000000007L6.509452631578948 -2.2573000000000003L4.197452631578947 -2.2573000000000003Z" stroke="none" fill="none"/>
  <path d="M-1.0244 -5.4303L0.37785263157894766 -5.430300000000001L0.37785263157894766 -4.1131L-1.0243999999999998 -4.1131Z" stroke="none" fill="#E6991A"/>
  <path d="M-0.4934 -4.5665L-0.42317368421052604 -4.5665000000000004L-0.42317368421052604 -4.576500000000001L-0.4933736842105261 -4.576500000000001L-0.4933736842105261 -4.576500000000001L-0.5033736842105261 -4.576500000000001L-0.5033736842105261 -4.4169L-0.4933736842105261 -4.4169L-0.4933736842105261 -4.4795L-0.4933736842105261 -4.4795L-0.4933736842105261 -4.4795L-0.4933736842105261 -4.498900000000001L-0.42317368421052604 -4.498900000000001L-0.42317368421052604 -4.508900000000001L-0.4933736842105261 -4.508900000000001L-0.4933736842105261 -4.5665000000000004ZM-0.3194 -4.5323L-0.3193736842105259 -4.4491000000000005C-0.3215 -4.4432 -0.3248 -4.4383 -0.3294 -4.4343C-0.3379 -4.4268 -0.3467 -4.4231 -0.3558 -4.4231C-0.3695 -4.4231 -0.3788 -4.4284 -0.3838 -4.4389C-0.3874 -4.4466 -0.3893 -4.4568 -0.3896 -4.4695L-0.38957368421052596 -4.532300000000001L-0.3999736842105259 -4.532300000000001L-0.3999736842105259 -4.4697000000000005C-0.4 -4.4537 -0.3976 -4.4412 -0.393 -4.4323C-0.3875 -4.422 -0.377 -4.4158 -0.3616 -4.4135C-0.3594 -4.4132 -0.3572 -4.4131 -0.355 -4.4131C-0.3414 -4.4131 -0.3295 -4.4187 -0.3194 -4.4299L-0.3193736842105259 -4.4169L-0.3095736842105259 -4.4169L-0.3095736842105259 -4.532300000000001L-0.3193736842105259 -4.532300000000001ZM-0.183 -4.4747C-0.1824 -4.4887 -0.1856 -4.5012 -0.1926 -4.5123C-0.2003 -4.5246 -0.2107 -4.5318 -0.2238 -4.5339C-0.2262 -4.5343 -0.2285 -4.5345 -0.2308 -4.5345C-0.2426 -4.5345 -0.2532 -4.5304 -0.2626 -4.5221C-0.275 -4.5113 -0.2818 -4.4976 -0.2832 -4.4811C-0.2833 -4.4803 -0.2834 -4.4794 -0.2834 -4.4785L-0.2833736842105259 -4.4741L-0.2833736842105259 -4.469900000000001C-0.2811 -4.4511 -0.2743 -4.4367 -0.263 -4.4267C-0.2531 -4.418 -0.2405 -4.4138 -0.2252 -4.4139C-0.2218 -4.414 -0.2184 -4.4143 -0.2148 -4.4147C-0.206 -4.4158 -0.1973 -4.4176 -0.1888 -4.4201C-0.1888 -4.4197 -0.1888 -4.4205 -0.1888 -4.4225L-0.18877368421052587 -4.4299C-0.1974 -4.4275 -0.203 -4.426 -0.2054 -4.4255C-0.2119 -4.4238 -0.2192 -4.4231 -0.2274 -4.4235C-0.2388 -4.4235 -0.2488 -4.4272 -0.2574 -4.4347C-0.265 -4.4414 -0.27 -4.4526 -0.2726 -4.4683C-0.273 -4.4703 -0.2732 -4.4721 -0.2732 -4.4737L-0.2731736842105259 -4.4747L-0.18297368421052607 -4.4747ZM-0.2302 -4.5243C-0.2178 -4.5243 -0.2076 -4.5175 -0.1998 -4.5039C-0.1964 -4.4984 -0.1944 -4.492 -0.1936 -4.4847L-0.27277368421052595 -4.4847C-0.271 -4.4962 -0.2659 -4.5056 -0.2574 -4.5131C-0.2488 -4.5206 -0.2398 -4.5243 -0.2302 -4.5243ZM-0.1532 -4.4165L-0.143173684210526 -4.416500000000001L-0.143173684210526 -4.600700000000001L-0.15317368421052602 -4.600700000000001L-0.15317368421052602 -4.416500000000001Z" stroke="none" fill="#FFFFFF"/>
  <path d="M-0.5089 -4.9719C-0.4945 -4.9834 -0.4867 -5.0012 -0.4853 -5.0255C-0.4845 -5.0439 -0.4898 -5.0602 -0.5011 -5.0743C-0.5125 -5.0884 -0.5263 -5.096 -0.5425 -5.0971L-0.5425473684210522 -5.097100000000001C-0.5577 -5.0979 -0.5715 -5.0927 -0.5837 -5.0815C-0.5984 -5.0684 -0.6061 -5.0519 -0.6069 -5.0319C-0.6085 -5.0039 -0.6001 -4.9835 -0.5817 -4.9707C-0.594 -4.9632 -0.6039 -4.9529 -0.6115 -4.9397C-0.6191 -4.9265 -0.6233 -4.912 -0.6241 -4.8963C-0.6257 -4.8691 -0.6197 -4.847 -0.6061 -4.8301C-0.5925 -4.8132 -0.5737 -4.804 -0.5497 -4.8027C-0.5265 -4.8014 -0.5077 -4.8074 -0.4933 -4.8207C-0.4765 -4.8356 -0.4673 -4.858 -0.4657 -4.8879C-0.4649 -4.905 -0.4683 -4.9212 -0.4759 -4.9365C-0.4835 -4.9518 -0.4945 -4.9636 -0.5089 -4.9719L-0.5089473684210524 -4.971900000000001ZM-0.4881 -4.8891C-0.4892 -4.867 -0.4963 -4.85 -0.5093 -4.8383C-0.52 -4.8287 -0.5331 -4.8243 -0.5485 -4.8251C-0.5669 -4.8259 -0.5808 -4.8334 -0.5901 -4.8475C-0.5989 -4.86 -0.6028 -4.8759 -0.6017 -4.8951C-0.6007 -4.9154 -0.5928 -4.932 -0.5781 -4.9451C-0.5669 -4.9552 -0.5547 -4.96 -0.5413 -4.9595C-0.5261 -4.9587 -0.5132 -4.9512 -0.5025 -4.9371C-0.4919 -4.923 -0.4871 -4.907 -0.4881 -4.8891ZM-0.5857 -5.0307C-0.5849 -5.0432 -0.5803 -5.054 -0.5719 -5.0629C-0.5635 -5.0718 -0.5541 -5.076 -0.5437 -5.0755C-0.5331 -5.075 -0.5241 -5.0698 -0.5167 -5.0599C-0.5094 -5.05 -0.506 -5.0388 -0.5065 -5.0263C-0.5073 -5.0148 -0.5104 -5.0051 -0.5157 -4.9971C-0.5219 -4.9883 -0.5303 -4.9832 -0.5409 -4.9819C-0.5439 -4.9819 -0.5468 -4.9818 -0.5497 -4.9815C-0.5612 -4.9823 -0.5702 -4.9872 -0.5767 -4.9961C-0.5833 -5.005 -0.5863 -5.0166 -0.5857 -5.0307L-0.5857473684210524 -5.0307ZM-0.3933 -4.9807C-0.3917 -4.9954 -0.3859 -5.007 -0.3757 -5.0155C-0.3669 -5.0227 -0.3564 -5.0263 -0.3441 -5.0263C-0.3321 -5.0263 -0.3215 -5.0228 -0.3121 -5.0159C-0.3007 -5.0074 -0.2949 -4.9955 -0.2949 -4.9803C-0.2949 -4.9611 -0.3085 -4.9374 -0.3357 -4.9091L-0.41854736842105233 -4.822700000000001L-0.41854736842105233 -4.805900000000001L-0.2729473684210524 -4.805900000000001L-0.2729473684210524 -4.823500000000001C-0.278 -4.8248 -0.3089 -4.8248 -0.3657 -4.8235L-0.39494736842105227 -4.822700000000001L-0.3253473684210524 -4.8947C-0.3056 -4.915 -0.2919 -4.9322 -0.2841 -4.9463C-0.2777 -4.9575 -0.2745 -4.9688 -0.2745 -4.9803C-0.2745 -4.9984 -0.2809 -5.0133 -0.2935 -5.0249C-0.3062 -5.0365 -0.3227 -5.0423 -0.3429 -5.0423C-0.368 -5.0423 -0.3867 -5.0348 -0.3989 -5.0199C-0.4059 -5.0116 -0.4113 -4.9994 -0.4153 -4.9831C-0.4084 -4.9823 -0.4011 -4.9815 -0.3933 -4.9807ZM-0.1733 -4.8055L-0.04054736842105244 -5.1303L-0.062147368421052285 -5.1303L-0.19534736842105227 -4.8055L-0.17334736842105225 -4.8055ZM-0.0637 -4.8843C-0.0755 -4.8843 -0.0854 -4.8802 -0.0935 -4.8721C-0.1017 -4.864 -0.1057 -4.854 -0.1057 -4.8423C-0.1057 -4.8308 -0.1017 -4.821 -0.0935 -4.8129C-0.0854 -4.8048 -0.0755 -4.8007 -0.0637 -4.8007C-0.0523 -4.8007 -0.0425 -4.8048 -0.0343 -4.8129C-0.0262 -4.821 -0.0221 -4.8308 -0.0221 -4.8423C-0.0221 -4.854 -0.0262 -4.864 -0.0343 -4.8721C-0.0425 -4.8802 -0.0523 -4.8843 -0.0637 -4.8843ZM-0.1753 -5.1243C-0.1868 -5.1243 -0.1966 -5.1202 -0.2047 -5.1121C-0.2129 -5.104 -0.2169 -5.0942 -0.2169 -5.0827C-0.2169 -5.071 -0.2129 -5.061 -0.2047 -5.0529C-0.1966 -5.0448 -0.1868 -5.0407 -0.1753 -5.0407C-0.1639 -5.0407 -0.1541 -5.0448 -0.1459 -5.0529C-0.1378 -5.061 -0.1337 -5.071 -0.1337 -5.0827C-0.1337 -5.0942 -0.1378 -5.104 -0.1459 -5.1121C-0.1541 -5.1202 -0.1639 -5.1243 -0.1753 -5.1243ZM-0.1753 -5.0583C-0.182 -5.0583 -0.1877 -5.0606 -0.1925 -5.0653C-0.1973 -5.07 -0.1997 -5.0758 -0.1997 -5.0827C-0.1997 -5.0894 -0.1973 -5.095 -0.1925 -5.0997C-0.1877 -5.1044 -0.182 -5.1067 -0.1753 -5.1067C-0.1687 -5.1067 -0.1629 -5.1044 -0.1581 -5.0997C-0.1533 -5.095 -0.1509 -5.0894 -0.1509 -5.0827C-0.1509 -5.0758 -0.1533 -5.07 -0.1581 -5.0653C-0.1629 -5.0606 -0.1687 -5.0583 -0.1753 -5.0583ZM-0.0637 -4.8183C-0.0707 -4.8183 -0.0765 -4.8206 -0.0811 -4.8253C-0.0858 -4.83 -0.0881 -4.8356 -0.0881 -4.8423C-0.0881 -4.8492 -0.0858 -4.855 -0.0811 -4.8597C-0.0765 -4.8644 -0.0707 -4.8667 -0.0637 -4.8667C-0.0571 -4.8667 -0.0514 -4.8644 -0.0467 -4.8597C-0.0421 -4.855 -0.0397 -4.8492 -0.0397 -4.8423C-0.0397 -4.8356 -0.0421 -4.83 -0.0467 -4.8253C-0.0514 -4.8206 -0.0571 -4.8183 -0.0637 -4.8183Z" stroke="none" fill="#FFFFFF"/>
  <path d="M-1.0244 -5.4303L0.37785263157894766 -5.430300000000001L0.37785263157894766 -4.1131L-1.0243999999999998 -4.1131Z" stroke="none" fill="none"/>
  <path d="M1.8423 -5.4503L3.370652631578947 -5.4503L3.370652631578947 -4.093100000000001L1.8422526315789476 -4.093100000000001Z" stroke="none" fill="#8033B3"/>
  <path d="M2.4269 -4.6215L2.3336859649122808 -4.621500000000001L2.3336859649122808 -4.6115L2.3752859649122806 -4.6115L2.3752859649122806 -4.4617L2.3852859649122804 -4.4617L2.3852859649122804 -4.6115L2.4268859649122803 -4.6115L2.4268859649122803 -4.621500000000001ZM2.5445 -4.5195C2.545 -4.5335 2.5418 -4.546 2.5349 -4.5571C2.5272 -4.5694 2.5168 -4.5766 2.5037 -4.5787C2.5013 -4.5791 2.499 -4.5793 2.4967 -4.5793C2.4848 -4.5793 2.4742 -4.5752 2.4649 -4.5669C2.4525 -4.5561 2.4456 -4.5424 2.4443 -4.5259C2.4442 -4.5251 2.4441 -4.5242 2.4441 -4.5233L2.444085964912281 -4.5189L2.444085964912281 -4.5147C2.4464 -4.4959 2.4532 -4.4815 2.4645 -4.4715C2.4744 -4.4628 2.487 -4.4586 2.5023 -4.4587C2.5056 -4.4588 2.5091 -4.4591 2.5127 -4.4595C2.5215 -4.4606 2.5302 -4.4624 2.5387 -4.4649C2.5387 -4.4645 2.5387 -4.4653 2.5387 -4.4673L2.538685964912281 -4.4747C2.53 -4.4723 2.5245 -4.4708 2.5221 -4.4703C2.5156 -4.4686 2.5082 -4.4679 2.5001 -4.4683C2.4886 -4.4683 2.4786 -4.472 2.4701 -4.4795C2.4625 -4.4862 2.4574 -4.4974 2.4549 -4.5131C2.4545 -4.5151 2.4543 -4.5169 2.4543 -4.5185L2.4542859649122803 -4.519500000000001L2.5444859649122806 -4.519500000000001ZM2.4973 -4.5691C2.5097 -4.5691 2.5198 -4.5623 2.5277 -4.5487C2.531 -4.5432 2.5331 -4.5368 2.5339 -4.5295L2.4546859649122803 -4.5295000000000005C2.4564 -4.541 2.4616 -4.5504 2.4701 -4.5579C2.4786 -4.5654 2.4877 -4.5691 2.4973 -4.5691ZM2.7405 -4.5621C2.735 -4.5725 2.7246 -4.5788 2.7091 -4.5809C2.7068 -4.5813 2.7046 -4.5815 2.7023 -4.5815C2.691 -4.5815 2.6807 -4.5774 2.6715 -4.5693C2.6667 -4.5652 2.663 -4.5606 2.6603 -4.5555C2.655 -4.5699 2.6436 -4.5784 2.6261 -4.5809C2.6238 -4.5813 2.6216 -4.5815 2.6193 -4.5815C2.6056 -4.5815 2.5937 -4.5758 2.5837 -4.5645L2.5836859649122808 -4.577500000000001L2.573685964912281 -4.577500000000001L2.573685964912281 -4.4617L2.5836859649122808 -4.4617L2.5836859649122808 -4.545300000000001C2.5857 -4.551 2.589 -4.5559 2.5935 -4.5599C2.6022 -4.5675 2.611 -4.5713 2.6201 -4.5713C2.634 -4.5713 2.6434 -4.566 2.6483 -4.5553C2.6519 -4.5476 2.6538 -4.5374 2.6541 -4.5247L2.654085964912281 -4.461500000000001L2.6644859649122807 -4.461500000000001L2.6644859649122807 -4.5243C2.6645 -4.5291 2.6644 -4.5329 2.6643 -4.5357C2.666 -4.5462 2.6701 -4.5543 2.6765 -4.5599C2.6852 -4.5675 2.694 -4.5713 2.7031 -4.5713C2.717 -4.5713 2.7264 -4.566 2.7313 -4.5553C2.7349 -4.5476 2.7368 -4.5374 2.7371 -4.5247L2.7370859649122803 -4.461500000000001L2.747485964912281 -4.461500000000001L2.747485964912281 -4.5243C2.7475 -4.5404 2.7452 -4.553 2.7405 -4.5621ZM2.8791 -4.5267C2.8783 -4.5442 2.8721 -4.558 2.8605 -4.5683C2.8517 -4.576 2.8404 -4.5799 2.8265 -4.5799C2.8245 -4.5799 2.8225 -4.5798 2.8205 -4.5797C2.8158 -4.5797 2.8028 -4.5788 2.7813 -4.5769L2.7812859649122803 -4.3931000000000004L2.791285964912281 -4.3931000000000004L2.791285964912281 -4.460700000000001C2.8041 -4.4595 2.8138 -4.4589 2.8205 -4.4589C2.8361 -4.4589 2.8488 -4.4632 2.8585 -4.4717C2.8704 -4.4821 2.8772 -4.4965 2.8789 -4.5149C2.879 -4.516 2.8791 -4.5174 2.8791 -4.5193C2.8792 -4.5212 2.8793 -4.5225 2.8792 -4.5233C2.8791 -4.5241 2.8791 -4.5252 2.8791 -4.5267ZM2.8687 -4.5189C2.8687 -4.5173 2.8686 -4.5155 2.8683 -4.5135C2.8656 -4.4976 2.8605 -4.4864 2.8529 -4.4797C2.8436 -4.4716 2.8336 -4.4678 2.8229 -4.4685C2.819 -4.4685 2.8085 -4.4692 2.7913 -4.4705L2.791285964912281 -4.514900000000001L2.791285964912281 -4.514900000000001L2.791285964912281 -4.516500000000001L2.791285964912281 -4.5221L2.791285964912281 -4.5235L2.791285964912281 -4.5235L2.791285964912281 -4.5679C2.8038 -4.5692 2.8144 -4.57 2.8229 -4.5701C2.8362 -4.5709 2.847 -4.5675 2.8551 -4.5599C2.8632 -4.5523 2.8678 -4.5408 2.8689 -4.5253C2.8689 -4.5242 2.8688 -4.5221 2.8687 -4.5189Z" stroke="none" fill="#FFFFFF"/>
  <path d="M2.2675 -5.0019C2.2691 -5.0166 2.2749 -5.0282 2.2851 -5.0367C2.2939 -5.0439 2.3044 -5.0475 2.3167 -5.0475C2.3287 -5.0475 2.3393 -5.044 2.3487 -5.0371C2.3601 -5.0286 2.3659 -5.0167 2.3659 -5.0015C2.3659 -4.9823 2.3523 -4.9586 2.3251 -4.9303L2.2422526315789475 -4.8439000000000005L2.2422526315789475 -4.827100000000001L2.387852631578947 -4.827100000000001L2.387852631578947 -4.8447000000000005C2.3828 -4.846 2.3519 -4.846 2.2951 -4.8447L2.265852631578947 -4.8439000000000005L2.3354526315789474 -4.915900000000001C2.3552 -4.9362 2.3689 -4.9534 2.3767 -4.9675C2.3831 -4.9787 2.3863 -4.99 2.3863 -5.0015C2.3863 -5.0196 2.3799 -5.0345 2.3673 -5.0461C2.3546 -5.0577 2.3381 -5.0635 2.3179 -5.0635C2.2928 -5.0635 2.2741 -5.056 2.2619 -5.0411C2.2549 -5.0328 2.2495 -5.0206 2.2455 -5.0043C2.2524 -5.0035 2.2597 -5.0027 2.2675 -5.0019ZM2.4643 -5.0019C2.4659 -5.0166 2.4717 -5.0282 2.4819 -5.0367C2.4907 -5.0439 2.5012 -5.0475 2.5135 -5.0475C2.5255 -5.0475 2.5361 -5.044 2.5455 -5.0371C2.5569 -5.0286 2.5627 -5.0167 2.5627 -5.0015C2.5627 -4.9823 2.5491 -4.9586 2.5219 -4.9303L2.4390526315789476 -4.8439000000000005L2.4390526315789476 -4.827100000000001L2.5846526315789475 -4.827100000000001L2.5846526315789475 -4.8447000000000005C2.5796 -4.846 2.5487 -4.846 2.4919 -4.8447L2.4626526315789476 -4.8439000000000005L2.532252631578947 -4.915900000000001C2.552 -4.9362 2.5657 -4.9534 2.5735 -4.9675C2.5799 -4.9787 2.5831 -4.99 2.5831 -5.0015C2.5831 -5.0196 2.5767 -5.0345 2.5641 -5.0461C2.5514 -5.0577 2.5349 -5.0635 2.5147 -5.0635C2.4896 -5.0635 2.4709 -5.056 2.4587 -5.0411C2.4517 -5.0328 2.4463 -5.0206 2.4423 -5.0043C2.4492 -5.0035 2.4565 -5.0027 2.4643 -5.0019ZM2.6827 -5.1451C2.6712 -5.1451 2.6614 -5.141 2.6533 -5.1329C2.6451 -5.1248 2.6411 -5.115 2.6411 -5.1035C2.6411 -5.092 2.6451 -5.0822 2.6533 -5.0741C2.6614 -5.066 2.6712 -5.0619 2.6827 -5.0619C2.6941 -5.0619 2.7039 -5.066 2.7121 -5.0741C2.7202 -5.0822 2.7243 -5.092 2.7243 -5.1035C2.7243 -5.115 2.7202 -5.1248 2.7121 -5.1329C2.7039 -5.141 2.6941 -5.1451 2.6827 -5.1451ZM2.6827 -5.0791C2.676 -5.0791 2.6703 -5.0814 2.6655 -5.0861C2.6607 -5.0908 2.6583 -5.0966 2.6583 -5.1035C2.6583 -5.1102 2.6607 -5.1158 2.6655 -5.1205C2.6703 -5.1252 2.676 -5.1275 2.6827 -5.1275C2.6893 -5.1275 2.6951 -5.1252 2.6999 -5.1205C2.7047 -5.1158 2.7071 -5.1102 2.7071 -5.1035C2.7071 -5.0966 2.7047 -5.0908 2.6999 -5.0861C2.6951 -5.0814 2.6893 -5.0791 2.6827 -5.0791ZM2.9091 -5.1311C2.9232 -5.1311 2.9437 -5.1298 2.9707 -5.1271L2.9706526315789477 -5.1471C2.9456 -5.1492 2.9265 -5.1503 2.9135 -5.1503C2.8767 -5.1503 2.8485 -5.1432 2.8291 -5.1291C2.812 -5.1163 2.7997 -5.1032 2.7923 -5.0899C2.78 -5.0683 2.7731 -5.0383 2.7715 -4.9999L2.7710526315789474 -4.9999L2.7710526315789474 -4.985900000000001L2.7710526315789474 -4.9795L2.7710526315789474 -4.972300000000001L2.7714526315789474 -4.972300000000001C2.7731 -4.9339 2.78 -4.9039 2.7923 -4.8823C2.7997 -4.8687 2.812 -4.8556 2.8291 -4.8431C2.8485 -4.8287 2.8767 -4.8215 2.9135 -4.8215C2.9265 -4.8215 2.9456 -4.8227 2.9707 -4.8251L2.9706526315789477 -4.8451C2.9437 -4.8424 2.9232 -4.8411 2.9091 -4.8411C2.8813 -4.8411 2.8598 -4.8469 2.8445 -4.8585C2.8291 -4.8701 2.8183 -4.8815 2.8119 -4.8927C2.8009 -4.9119 2.7943 -4.9396 2.7919 -4.9759L2.791852631578947 -4.9861L2.791852631578947 -4.995900000000001C2.7943 -5.0324 2.8009 -5.0603 2.8119 -5.0795C2.818 -5.0904 2.8288 -5.1018 2.8443 -5.1135C2.8597 -5.1252 2.8813 -5.1311 2.9091 -5.1311Z" stroke="none" fill="#FFFFFF"/>
  <path d="M1.8423 -5.4503L3.370652631578947 -5.4503L3.370652631578947 -4.093100000000001L1.8422526315789476 -4.093100000000001Z" stroke="none" fill="none"/>
  <path d="M4.2699 -5.4533L6.437052631578948 -5.4533000000000005L6.437052631578948 -4.0901000000000005L4.269852631578947 -4.0901000000000005Z" stroke="none" fill="#1AB3CC"/>
  <path d="M5.1603 -4.5463C5.1673 -4.5463 5.1776 -4.5456 5.1911 -4.5443L5.191052631578947 -4.5543000000000005C5.1785 -4.5554 5.169 -4.5559 5.1625 -4.5559C5.1441 -4.5559 5.13 -4.5524 5.1203 -4.5453C5.1117 -4.5389 5.1056 -4.5324 5.1019 -4.5257C5.0957 -4.5149 5.0923 -4.4999 5.0915 -4.4807L5.091252631578947 -4.480700000000001L5.091252631578947 -4.473700000000001L5.091252631578947 -4.4705L5.091252631578947 -4.466900000000001L5.091452631578947 -4.466900000000001C5.0923 -4.4477 5.0957 -4.4327 5.1019 -4.4219C5.1056 -4.4151 5.1117 -4.4086 5.1203 -4.4023C5.13 -4.3951 5.1441 -4.3915 5.1625 -4.3915C5.169 -4.3915 5.1785 -4.3921 5.1911 -4.3933L5.191052631578947 -4.4033C5.1776 -4.402 5.1673 -4.4013 5.1603 -4.4013C5.1464 -4.4013 5.1356 -4.4042 5.128 -4.41C5.1203 -4.4158 5.1149 -4.4215 5.1117 -4.4271C5.1062 -4.4367 5.1029 -4.4506 5.1017 -4.4687L5.101652631578947 -4.473800000000001L5.101652631578947 -4.4787C5.1029 -4.497 5.1062 -4.5109 5.1117 -4.5205C5.1147 -4.526 5.1201 -4.5316 5.1279 -4.5375C5.1356 -4.5434 5.1464 -4.5463 5.1603 -4.5463ZM5.2735 -4.5117C5.2583 -4.5128 5.2453 -4.5085 5.2345 -4.4989C5.2229 -4.4888 5.2157 -4.4754 5.2131 -4.4589C5.2124 -4.4549 5.2121 -4.451 5.2121 -4.4471C5.2121 -4.4322 5.2163 -4.4192 5.2247 -4.4081C5.2339 -4.3961 5.2457 -4.3901 5.2601 -4.3901C5.2719 -4.3901 5.2825 -4.3942 5.2919 -4.4023C5.2964 -4.4063 5.3 -4.4103 5.3027 -4.4143L5.3026526315789475 -4.4073L5.3026526315789475 -4.4073L5.3026526315789475 -4.4073L5.3026526315789475 -4.3943L5.312652631578947 -4.3943L5.312652631578947 -4.508900000000001C5.2971 -4.5106 5.284 -4.5116 5.2735 -4.5117ZM5.3027 -4.4487C5.3025 -4.4331 5.2973 -4.4207 5.2869 -4.4115C5.2782 -4.404 5.269 -4.4003 5.2593 -4.4003C5.247 -4.4003 5.2369 -4.407 5.2289 -4.4205C5.2246 -4.4278 5.2225 -4.4366 5.2225 -4.4467C5.2225 -4.4548 5.2239 -4.4628 5.2269 -4.4707C5.2301 -4.4794 5.2344 -4.4861 5.2399 -4.4909C5.2492 -4.4992 5.2597 -4.5029 5.2713 -4.5021C5.275 -4.5021 5.2855 -4.5014 5.3027 -4.5001L5.3026526315789475 -4.4487000000000005ZM5.4383 -4.4559L5.438252631578948 -4.4589C5.4377 -4.4725 5.4339 -4.4839 5.4267 -4.4931C5.4192 -4.5028 5.4091 -4.5087 5.3963 -4.5107C5.3917 -4.5114 5.3863 -4.5117 5.3799 -4.5117C5.3732 -4.5117 5.3635 -4.5111 5.3507 -4.5099L5.3506526315789475 -4.5773L5.340652631578947 -4.5773L5.340652631578947 -4.3941L5.340652631578947 -4.3941L5.340652631578947 -4.3941C5.3563 -4.3924 5.3693 -4.3914 5.3799 -4.3913C5.3943 -4.3904 5.4069 -4.3946 5.4177 -4.4041C5.4295 -4.4144 5.4363 -4.4288 5.4381 -4.4473C5.4382 -4.4482 5.4383 -4.4496 5.4383 -4.4515C5.4384 -4.4534 5.4384 -4.4548 5.4383 -4.4559ZM5.4281 -4.4511C5.4279 -4.4495 5.4277 -4.4477 5.4275 -4.4457C5.4249 -4.43 5.4198 -4.4188 5.4121 -4.4121C5.4029 -4.404 5.3929 -4.4002 5.3821 -4.4009C5.3783 -4.4009 5.3679 -4.4016 5.3507 -4.4029L5.3506526315789475 -4.4473L5.3506526315789475 -4.4473L5.3506526315789475 -4.4487000000000005L5.3506526315789475 -4.4543L5.3506526315789475 -4.4557L5.3506526315789475 -4.4557L5.3506526315789475 -4.5001C5.3632 -4.5013 5.3737 -4.502 5.3821 -4.5021C5.3954 -4.503 5.4061 -4.4997 5.4143 -4.492C5.4224 -4.4843 5.427 -4.4729 5.4281 -4.4577L5.4280526315789475 -4.4511ZM5.4667 -4.5101L5.466652631578947 -4.3941L5.476652631578947 -4.3941L5.476652631578947 -4.5101L5.466652631578947 -4.5101ZM5.4767 -4.5395L5.466652631578947 -4.5395L5.466652631578947 -4.5295000000000005L5.476652631578947 -4.5295000000000005L5.476652631578947 -4.5395ZM5.6085 -4.4915C5.6046 -4.498 5.6002 -4.5029 5.5953 -4.506C5.5903 -4.5091 5.5834 -4.5114 5.5745 -4.5129C5.5722 -4.5132 5.5699 -4.5133 5.5675 -4.5133C5.5591 -4.5133 5.5511 -4.5111 5.5436 -4.5067C5.536 -4.5023 5.5298 -4.4965 5.5249 -4.4893L5.5248526315789475 -4.5099L5.514852631578948 -4.5099L5.514852631578948 -4.3943L5.5248526315789475 -4.3943L5.5248526315789475 -4.4575000000000005C5.5249 -4.4711 5.5301 -4.4826 5.5407 -4.4919C5.5493 -4.4995 5.5585 -4.5033 5.5683 -4.5033C5.5697 -4.5033 5.5712 -4.5032 5.5727 -4.5029C5.5799 -4.5017 5.5853 -4.4999 5.5891 -4.4975C5.5928 -4.4951 5.5962 -4.4912 5.5993 -4.4857C5.6033 -4.479 5.6053 -4.4694 5.6053 -4.4567L5.6052526315789475 -4.4567000000000005L5.6052526315789475 -4.3943L5.615652631578947 -4.3943L5.615652631578947 -4.4567000000000005C5.6157 -4.4716 5.6133 -4.4832 5.6085 -4.4915Z" stroke="none" fill="#FFFFFF"/>
  <path d="M4.8647 -5.1061L4.864652631578947 -4.8237000000000005L4.6898526315789475 -5.1061L4.6898526315789475 -5.1061L4.6898526315789475 -5.1061L4.669852631578947 -5.1061L4.669852631578947 -4.7861L4.6898526315789475 -4.7861L4.6898526315789475 -5.0681L4.864252631578947 -4.7861L4.864652631578947 -4.7861L4.864652631578947 -4.7861L4.884252631578947 -4.7861L4.884652631578947 -5.1061L4.864652631578947 -5.1061ZM5.0515 -5.0217C5.0235 -5.0217 4.9987 -5.0098 4.9773 -4.9861C4.9558 -4.9624 4.9451 -4.934 4.9451 -4.9009C4.9451 -4.8636 4.9548 -4.8341 4.9743 -4.8125C4.9937 -4.7909 5.0195 -4.7801 5.0515 -4.7801C5.0848 -4.7801 5.1109 -4.7908 5.1297 -4.8121C5.1485 -4.8334 5.1579 -4.863 5.1579 -4.9009C5.1579 -4.934 5.1472 -4.9624 5.1259 -4.9861C5.1045 -5.0098 5.0797 -5.0217 5.0515 -5.0217ZM5.0519 -4.8001C5.026 -4.8001 5.0052 -4.8091 4.9895 -4.8271C4.9737 -4.8451 4.9659 -4.8697 4.9659 -4.9009C4.9659 -4.9284 4.9745 -4.952 4.9919 -4.9719C5.0092 -4.9918 5.0292 -5.0017 5.0519 -5.0017C5.0745 -5.0017 5.0945 -4.9918 5.1119 -4.9719C5.1292 -4.952 5.1379 -4.9284 5.1379 -4.9009C5.1379 -4.8702 5.1299 -4.8458 5.1139 -4.8275C5.0979 -4.8092 5.0772 -4.8001 5.0519 -4.8001ZM5.2551 -4.9961C5.2455 -4.9876 5.2372 -4.9774 5.2303 -4.9657L5.2302526315789475 -5.0169L5.210252631578947 -5.0169L5.210252631578947 -4.7857L5.2302526315789475 -4.7857L5.2302526315789475 -4.894500000000001C5.2303 -4.8969 5.2311 -4.9029 5.2327 -4.9125C5.2375 -4.9421 5.2487 -4.9646 5.2663 -4.9801C5.2751 -4.9876 5.2848 -4.9932 5.2955 -4.9969L5.295452631578947 -5.0173000000000005C5.28 -5.013 5.2665 -5.006 5.2551 -4.9961ZM5.6839 -4.9865C5.6729 -5.0073 5.652 -5.0198 5.6211 -5.0241C5.6165 -5.0249 5.612 -5.0253 5.6075 -5.0253C5.5848 -5.0253 5.5643 -5.0172 5.5459 -5.0009C5.5363 -4.9926 5.5288 -4.9834 5.5235 -4.9733C5.5128 -5.0021 5.49 -5.019 5.4551 -5.0241C5.4505 -5.0249 5.446 -5.0253 5.4415 -5.0253C5.414 -5.0253 5.3903 -5.014 5.3703 -4.9913L5.370252631578947 -5.0173000000000005L5.350252631578948 -5.0173000000000005L5.350252631578948 -4.7857L5.370252631578947 -4.7857L5.370252631578947 -4.9529C5.3743 -4.9644 5.3808 -4.9741 5.3899 -4.9821C5.4072 -4.9973 5.4249 -5.0049 5.4431 -5.0049C5.4708 -5.0049 5.4896 -4.9942 5.4995 -4.9729C5.5067 -4.9574 5.5105 -4.937 5.5111 -4.9117L5.511052631578948 -4.7853L5.531852631578947 -4.7853L5.531852631578947 -4.9109C5.5319 -4.9205 5.5317 -4.9281 5.5315 -4.9337C5.5349 -4.9548 5.5431 -4.9709 5.5559 -4.9821C5.5732 -4.9973 5.5909 -5.0049 5.6091 -5.0049C5.6368 -5.0049 5.6556 -4.9942 5.6655 -4.9729C5.6727 -4.9574 5.6765 -4.937 5.6771 -4.9117L5.677052631578947 -4.7853L5.6978526315789475 -4.7853L5.6978526315789475 -4.9109C5.6979 -4.9432 5.6932 -4.9684 5.6839 -4.9865ZM5.8711 -5.0205C5.8407 -5.0226 5.8147 -5.0141 5.7931 -4.9949C5.7699 -4.9746 5.7556 -4.948 5.7503 -4.9149C5.7489 -4.9069 5.7483 -4.899 5.7483 -4.8913C5.7483 -4.8614 5.7567 -4.8354 5.7735 -4.8133C5.7919 -4.7893 5.8155 -4.7773 5.8443 -4.7773C5.868 -4.7773 5.8892 -4.7854 5.9079 -4.8017C5.9169 -4.8097 5.9241 -4.8177 5.9295 -4.8257L5.929452631578948 -4.8117L5.929452631578948 -4.8117L5.929452631578948 -4.8117L5.929452631578948 -4.7857L5.949452631578947 -4.7857L5.949452631578947 -5.014900000000001C5.9183 -5.0184 5.8921 -5.0202 5.8711 -5.0205ZM5.9295 -4.8945C5.9292 -4.8633 5.9187 -4.8385 5.8979 -4.8201C5.8805 -4.8052 5.8621 -4.7977 5.8427 -4.7977C5.8181 -4.7977 5.7979 -4.8112 5.7819 -4.8381C5.7733 -4.8528 5.7691 -4.8702 5.7691 -4.8905C5.7691 -4.9068 5.772 -4.9228 5.7779 -4.9385C5.7843 -4.9558 5.7929 -4.9693 5.8039 -4.9789C5.8225 -4.9954 5.8435 -5.0029 5.8667 -5.0013C5.8741 -5.0013 5.8951 -5 5.9295 -4.9973L5.929452631578948 -4.894500000000001ZM6.0171 -4.7849L6.0370526315789474 -4.7849L6.0370526315789474 -5.1533L6.017052631578947 -5.1533L6.017052631578947 -4.7849Z" stroke="none" fill="#FFFFFF"/>
  <path d="M4.2699 -5.4533L6.437052631578948 -5.4533000000000005L6.437052631578948 -4.0901000000000005L4.269852631578947 -4.0901000000000005Z" stroke="none" fill="none"/>
  <path d="M-2.162 -5.9533L7.009452631578948 -5.9533000000000005L7.009452631578948 0.5L-2.162 0.5Z" stroke="none" fill="none"/>
</svg>
