<svg xmlns="http://www.w3.org/2000/svg" viewBox="-0.1 -1.019 7.4285 2.0905">
  <path d="M-0.1 -1.019L7.3285 -1.0190000000000001L7.3285 1.0715000000000001L-0.1 1.0715000000000001Z" stroke="none" fill="#FFFFFF"/>
  <path d="M0.453 -0.797L0.453 -0.46L0.05 -0.46L0.05 -0.797L0 -0.797L0 0L0.05 0L0.05 -0.41000000000000003L0.453 -0.41000000000000003L0.453 0L0.502 0L0.502 -0.797L0.453 -0.797ZM1.129 -0.289C1.1317 -0.359 1.1157 -0.4217 1.081 -0.477C1.0423 -0.5383 0.9903 -0.5743 0.925 -0.585C0.913 -0.587 0.9013 -0.588 0.89 -0.588C0.8307 -0.588 0.7777 -0.5673 0.731 -0.526C0.669 -0.472 0.6347 -0.4037 0.628 -0.321C0.6273 -0.317 0.627 -0.3127 0.627 -0.308L0.627 -0.28600000000000003L0.627 -0.265C0.6383 -0.171 0.6723 -0.099 0.729 -0.049C0.7783 -0.0057 0.8413 0.0157 0.918 0.015C0.9347 0.0143 0.952 0.013 0.97 0.011C1.014 0.0057 1.0573 -0.0033 1.1 -0.016C1.1 -0.014 1.1 -0.018 1.1 -0.028L1.1 -0.065C1.0567 -0.053 1.029 -0.0457 1.017 -0.043C0.9843 -0.0343 0.9477 -0.031 0.907 -0.033C0.8497 -0.033 0.7997 -0.0517 0.757 -0.089C0.719 -0.1223 0.6937 -0.1783 0.681 -0.257C0.679 -0.267 0.678 -0.276 0.678 -0.284L0.678 -0.289L1.129 -0.289ZM0.893 -0.537C0.955 -0.537 1.0057 -0.503 1.045 -0.435C1.0617 -0.4077 1.072 -0.3757 1.076 -0.339L0.68 -0.339C0.6887 -0.3963 0.7143 -0.4437 0.757 -0.481C0.7997 -0.5183 0.845 -0.537 0.893 -0.537ZM1.278 0.002L1.328 0.002L1.328 -0.919L1.278 -0.919L1.278 0.002ZM1.538 0.002L1.588 0.002L1.588 -0.919L1.538 -0.919L1.538 0.002ZM2.013 -0.59C1.943 -0.59 1.8812 -0.5603 1.8275 -0.501C1.7738 -0.4417 1.747 -0.3707 1.747 -0.288C1.747 -0.1947 1.7713 -0.121 1.82 -0.067C1.8687 -0.013 1.933 0.014 2.013 0.014C2.0963 0.014 2.1615 -0.0127 2.2085 -0.066C2.2555 -0.1193 2.279 -0.1933 2.279 -0.288C2.279 -0.3707 2.2523 -0.4417 2.199 -0.501C2.1457 -0.5603 2.0837 -0.59 2.013 -0.59ZM2.014 -0.036C1.9493 -0.036 1.8973 -0.0585 1.858 -0.1035C1.8187 -0.1485 1.799 -0.21 1.799 -0.288C1.799 -0.3567 1.8207 -0.4158 1.864 -0.4655C1.9073 -0.5152 1.9573 -0.54 2.014 -0.54C2.0707 -0.54 2.1207 -0.5152 2.164 -0.4655C2.2073 -0.4158 2.229 -0.3567 2.229 -0.288C2.229 -0.2113 2.209 -0.1502 2.169 -0.1045C2.129 -0.0588 2.0773 -0.036 2.014 -0.036ZM3.623 -0.8L3.623 -0.8L3.623 -0.8L3.623 -0.8L3.368 -0.293L3.107 -0.8L3.107 -0.8L3.107 -0.8L3.057 -0.8L3.057 -0.8L3.057 -0.8L3.057 -0.001L3.107 -0.001L3.107 -0.6930000000000001L3.369 -0.165L3.623 -0.6900000000000001L3.623 -0.001L3.672 -0.001L3.672 -0.8L3.623 -0.8ZM4.091 -0.59C4.021 -0.59 3.9592 -0.5603 3.9055 -0.501C3.8518 -0.4417 3.825 -0.3707 3.825 -0.288C3.825 -0.1947 3.8493 -0.121 3.898 -0.067C3.9467 -0.013 4.011 0.014 4.091 0.014C4.1743 0.014 4.2395 -0.0127 4.2865 -0.066C4.3335 -0.1193 4.357 -0.1933 4.357 -0.288C4.357 -0.3707 4.3303 -0.4417 4.277 -0.501C4.2237 -0.5603 4.1617 -0.59 4.091 -0.59ZM4.092 -0.036C4.0273 -0.036 3.9753 -0.0585 3.936 -0.1035C3.8967 -0.1485 3.877 -0.21 3.877 -0.288C3.877 -0.3567 3.8987 -0.4158 3.942 -0.4655C3.9853 -0.5152 4.0353 -0.54 4.092 -0.54C4.1487 -0.54 4.1987 -0.5152 4.242 -0.4655C4.2853 -0.4158 4.307 -0.3567 4.307 -0.288C4.307 -0.2113 4.287 -0.1502 4.247 -0.1045C4.207 -0.0588 4.1553 -0.036 4.092 -0.036ZM4.72 -0.59C4.65 -0.59 4.5882 -0.5603 4.5345 -0.501C4.4808 -0.4417 4.454 -0.3707 4.454 -0.288C4.454 -0.1947 4.4783 -0.121 4.527 -0.067C4.5757 -0.013 4.64 0.014 4.72 0.014C4.8033 0.014 4.8685 -0.0127 4.9155 -0.066C4.9625 -0.1193 4.986 -0.1933 4.986 -0.288C4.986 -0.3707 4.9593 -0.4417 4.906 -0.501C4.8527 -0.5603 4.7907 -0.59 4.72 -0.59ZM4.721 -0.036C4.6563 -0.036 4.6043 -0.0585 4.565 -0.1035C4.5257 -0.1485 4.506 -0.21 4.506 -0.288C4.506 -0.3567 4.5277 -0.4158 4.571 -0.4655C4.6143 -0.5152 4.6643 -0.54 4.721 -0.54C4.7777 -0.54 4.8277 -0.5152 4.871 -0.4655C4.9143 -0.4158 4.936 -0.3567 4.936 -0.288C4.936 -0.2113 4.916 -0.1502 4.876 -0.1045C4.836 -0.0588 4.7843 -0.036 4.721 -0.036ZM5.598 -0.486C5.5787 -0.5187 5.5567 -0.5428 5.532 -0.5585C5.5073 -0.5742 5.4727 -0.5857 5.428 -0.593C5.4167 -0.5943 5.405 -0.595 5.393 -0.595C5.351 -0.595 5.3112 -0.584 5.2735 -0.562C5.2358 -0.54 5.2047 -0.511 5.18 -0.475L5.18 -0.578L5.13 -0.578L5.13 0L5.18 0L5.18 -0.316C5.18 -0.384 5.2063 -0.4413 5.259 -0.488C5.3023 -0.526 5.3483 -0.545 5.397 -0.545C5.4043 -0.545 5.4117 -0.5443 5.419 -0.543C5.455 -0.537 5.4823 -0.528 5.501 -0.516C5.5197 -0.504 5.5367 -0.4843 5.552 -0.457C5.572 -0.4237 5.582 -0.3753 5.582 -0.312L5.582 -0.312L5.582 0L5.634 0L5.634 -0.312C5.634 -0.3867 5.622 -0.4447 5.598 -0.486ZM6.264 -0.249C6.262 -0.2997 6.244 -0.3427 6.21 -0.378C6.1807 -0.408 6.1433 -0.43 6.098 -0.444C6.166 -0.4767 6.1977 -0.54 6.193 -0.634C6.191 -0.686 6.1657 -0.7283 6.117 -0.761C6.0757 -0.789 6.0297 -0.804 5.979 -0.806C5.9597 -0.8067 5.9407 -0.807 5.922 -0.807C5.8633 -0.807 5.8157 -0.8043 5.779 -0.799L5.7780000000000005 -0.799L5.7780000000000005 -0.799L5.7780000000000005 -0.799L5.7780000000000005 0L5.779 0L5.779 0C5.849 0.0107 5.918 0.0153 5.986 0.014C6.0993 0.0107 6.1773 -0.0177 6.22 -0.071C6.2527 -0.1117 6.2673 -0.171 6.264 -0.249L6.264 -0.249ZM5.967 -0.037C5.9283 -0.0363 5.882 -0.0383 5.828 -0.043L5.828 -0.41000000000000003L6.007000000000001 -0.41000000000000003C6.057 -0.41 6.1023 -0.3967 6.143 -0.37C6.1903 -0.3387 6.2153 -0.2973 6.218 -0.246C6.2207 -0.1833 6.2073 -0.1363 6.178 -0.105C6.1393 -0.0623 6.069 -0.0397 5.967 -0.037L5.9670000000000005 -0.037ZM5.954 -0.762C5.9993 -0.7607 6.0403 -0.749 6.077 -0.727C6.1203 -0.7017 6.143 -0.6693 6.145 -0.63C6.151 -0.5167 6.0807 -0.46 5.934 -0.46L5.828 -0.46L5.828 -0.761C5.8673 -0.763 5.9093 -0.7633 5.954 -0.762ZM6.407 -0.579L6.407 0.001L6.457 0.001L6.457 -0.579L6.407 -0.579ZM6.457 -0.726L6.407 -0.726L6.407 -0.676L6.457 -0.676L6.457 -0.726ZM6.762 -0.053C6.7433 -0.0697 6.7317 -0.1 6.727 -0.144C6.7257 -0.1567 6.7247 -0.2017 6.724 -0.279C6.7227 -0.3623 6.7227 -0.4453 6.724 -0.528L6.853 -0.528L6.853 -0.578L6.724 -0.578L6.724 -0.675L6.674 -0.675L6.674 -0.578L6.59 -0.578L6.59 -0.528L6.674 -0.528C6.6727 -0.444 6.6727 -0.36 6.674 -0.276C6.6753 -0.1907 6.677 -0.1387 6.679 -0.12C6.685 -0.0733 6.7 -0.0397 6.724 -0.019C6.7387 -0.0063 6.7617 0.0017 6.793 0.005C6.8043 0.0063 6.8297 0.007 6.869 0.007L6.869 -0.036000000000000004C6.813 -0.0347 6.7773 -0.0403 6.762 -0.053ZM7.006 -0.8L7.006 -0.149L7.056 -0.149L7.056 -0.8L7.006 -0.8ZM6.995 -0.06L7.065 -0.06L7.065 0L6.995 0L6.995 -0.06Z" stroke="none" fill="#0000FF"/>
  <path d="M0.1725 0.42C0.1902 0.42 0.2158 0.4217 0.2495 0.425L0.2495 0.4C0.2182 0.3973 0.1943 0.396 0.178 0.396C0.132 0.396 0.0968 0.4048 0.0725 0.4225C0.0512 0.4385 0.0358 0.4548 0.0265 0.4715C0.0112 0.4985 0.0025 0.536 0.0005 0.584L0 0.5840000000000001L0 0.6015L0 0.6095L0 0.6185L0.0005 0.6185C0.0025 0.6665 0.0112 0.704 0.0265 0.731C0.0358 0.748 0.0512 0.7643 0.0725 0.78C0.0968 0.798 0.132 0.807 0.178 0.807C0.1943 0.807 0.2182 0.8055 0.2495 0.8025L0.2495 0.7775000000000001C0.2158 0.7808 0.1902 0.7825 0.1725 0.7825C0.1378 0.7825 0.1109 0.7753 0.0918 0.7608C0.0726 0.7463 0.059 0.732 0.051 0.718C0.0373 0.694 0.029 0.6593 0.026 0.614L0.026000000000000002 0.6012500000000001L0.026000000000000002 0.5890000000000001C0.029 0.5433 0.0373 0.5085 0.051 0.4845C0.0587 0.4708 0.0722 0.4567 0.0915 0.442C0.1108 0.4273 0.1378 0.42 0.1725 0.42ZM0.4345 0.505C0.3995 0.505 0.3686 0.5198 0.3418 0.5495C0.3149 0.5792 0.3015 0.6147 0.3015 0.656C0.3015 0.7027 0.3137 0.7395 0.338 0.7665C0.3623 0.7935 0.3945 0.807 0.4345 0.807C0.4762 0.807 0.5088 0.7937 0.5323 0.767C0.5558 0.7403 0.5675 0.7033 0.5675 0.656C0.5675 0.6147 0.5542 0.5792 0.5275 0.5495C0.5008 0.5198 0.4698 0.505 0.4345 0.505ZM0.435 0.782C0.4027 0.782 0.3767 0.7708 0.357 0.7483C0.3373 0.7258 0.3275 0.695 0.3275 0.656C0.3275 0.6217 0.3383 0.5921 0.36 0.5673C0.3817 0.5424 0.4067 0.53 0.435 0.53C0.4633 0.53 0.4883 0.5424 0.51 0.5673C0.5317 0.5921 0.5425 0.6217 0.5425 0.656C0.5425 0.6943 0.5325 0.7249 0.5125 0.7478C0.4925 0.7706 0.4667 0.782 0.435 0.782ZM1.057 0.549C1.0433 0.523 1.0172 0.5073 0.9785 0.502C0.9728 0.501 0.9672 0.5005 0.9615 0.5005C0.9332 0.5005 0.9075 0.5107 0.8845 0.531C0.8725 0.5413 0.8632 0.5528 0.8565 0.5655C0.8432 0.5295 0.8147 0.5083 0.771 0.502C0.7653 0.501 0.7597 0.5005 0.754 0.5005C0.7197 0.5005 0.69 0.5147 0.665 0.543L0.665 0.5105000000000001L0.64 0.5105000000000001L0.64 0.8L0.665 0.8L0.665 0.5910000000000001C0.67 0.5767 0.6782 0.5645 0.6895 0.5545C0.7112 0.5355 0.7333 0.526 0.756 0.526C0.7907 0.526 0.8142 0.5393 0.8265 0.566C0.8355 0.5853 0.8403 0.6108 0.841 0.6425L0.841 0.8005L0.867 0.8005L0.867 0.6435000000000001C0.867 0.6315 0.8668 0.622 0.8665 0.615C0.8708 0.5887 0.881 0.5685 0.897 0.5545C0.9187 0.5355 0.9408 0.526 0.9635 0.526C0.9982 0.526 1.0217 0.5393 1.034 0.566C1.043 0.5853 1.0478 0.6108 1.0485 0.6425L1.0485 0.8005L1.0745 0.8005L1.0745 0.6435000000000001C1.0745 0.6032 1.0687 0.5717 1.057 0.549ZM1.4035 0.6375C1.4015 0.5938 1.386 0.5592 1.357 0.5335C1.335 0.5142 1.3067 0.5045 1.272 0.5045C1.267 0.5045 1.262 0.5047 1.257 0.505C1.2453 0.505 1.2127 0.5073 1.159 0.512L1.159 0.9715L1.184 0.9715L1.184 0.8025C1.216 0.8055 1.2403 0.807 1.257 0.807C1.296 0.807 1.3277 0.7963 1.352 0.775C1.3817 0.749 1.3987 0.713 1.403 0.667C1.4033 0.6643 1.4035 0.6607 1.4035 0.656C1.4038 0.6513 1.4039 0.648 1.4038 0.646C1.4036 0.644 1.4035 0.6412 1.4035 0.6375ZM1.3775 0.657C1.3775 0.661 1.3772 0.6655 1.3765 0.6705C1.3698 0.7102 1.357 0.7383 1.338 0.755C1.3147 0.7753 1.2897 0.7847 1.263 0.783C1.2533 0.783 1.227 0.7813 1.184 0.778L1.184 0.667L1.184 0.667L1.184 0.663L1.184 0.649L1.184 0.6455000000000001L1.184 0.6455000000000001L1.184 0.5345C1.2153 0.5312 1.2417 0.5293 1.263 0.529C1.2963 0.527 1.3232 0.5355 1.3435 0.5545C1.3638 0.5735 1.3753 0.6023 1.378 0.641C1.378 0.6437 1.3778 0.649 1.3775 0.657ZM1.5855 0.505C1.5505 0.505 1.5196 0.5198 1.4928 0.5495C1.4659 0.5792 1.4525 0.6147 1.4525 0.656C1.4525 0.7027 1.4647 0.7395 1.489 0.7665C1.5133 0.7935 1.5455 0.807 1.5855 0.807C1.6272 0.807 1.6598 0.7937 1.6833 0.767C1.7068 0.7403 1.7185 0.7033 1.7185 0.656C1.7185 0.6147 1.7052 0.5792 1.6785 0.5495C1.6518 0.5198 1.6208 0.505 1.5855 0.505ZM1.586 0.782C1.5537 0.782 1.5277 0.7708 1.508 0.7483C1.4883 0.7258 1.4785 0.695 1.4785 0.656C1.4785 0.6217 1.4893 0.5921 1.511 0.5673C1.5327 0.5424 1.5577 0.53 1.586 0.53C1.6143 0.53 1.6393 0.5424 1.661 0.5673C1.6827 0.5921 1.6935 0.6217 1.6935 0.656C1.6935 0.6943 1.6835 0.7249 1.6635 0.7478C1.6435 0.7706 1.6177 0.782 1.586 0.782ZM1.837 0.636C1.804 0.616 1.7875 0.5977 1.7875 0.581C1.7875 0.578 1.788 0.5743 1.789 0.57C1.7943 0.5433 1.811 0.53 1.839 0.53C1.844 0.53 1.8495 0.5305 1.8555 0.5315C1.8678 0.5335 1.8772 0.5362 1.8835 0.5395C1.8915 0.5432 1.9007 0.5502 1.911 0.5605L1.9135 0.537C1.8942 0.517 1.8677 0.507 1.834 0.507C1.794 0.507 1.7703 0.5257 1.763 0.563C1.762 0.5683 1.7615 0.5733 1.7615 0.578C1.7615 0.5997 1.7727 0.6197 1.795 0.638C1.816 0.652 1.8368 0.666 1.8575 0.68C1.8798 0.6967 1.891 0.7137 1.891 0.731C1.891 0.7343 1.8907 0.7377 1.89 0.741C1.884 0.773 1.866 0.789 1.836 0.789C1.8097 0.789 1.7855 0.7792 1.7635 0.7595L1.7625 0.787C1.7755 0.797 1.7925 0.804 1.8135 0.808C1.8208 0.8097 1.8282 0.8105 1.8355 0.8105C1.8558 0.8105 1.873 0.8053 1.887 0.795C1.9023 0.7843 1.912 0.769 1.916 0.749C1.9173 0.7417 1.918 0.735 1.918 0.729C1.918 0.7133 1.9122 0.6987 1.9005 0.685C1.8888 0.6713 1.8677 0.655 1.837 0.636ZM2.1165 0.5065C2.0785 0.5038 2.046 0.5145 2.019 0.5385C1.99 0.5638 1.9722 0.5972 1.9655 0.6385C1.9638 0.6485 1.963 0.6583 1.963 0.668C1.963 0.7053 1.9735 0.7378 1.9945 0.7655C2.0175 0.7955 2.047 0.8105 2.083 0.8105C2.1127 0.8105 2.1392 0.8003 2.1625 0.78C2.1738 0.77 2.1828 0.76 2.1895 0.75L2.1895000000000002 0.7675000000000001L2.1895000000000002 0.7675000000000001L2.1895000000000002 0.7675000000000001L2.1895000000000002 0.8L2.2145 0.8L2.2145 0.5135000000000001C2.1755 0.5092 2.1428 0.5068 2.1165 0.5065ZM2.1895 0.664C2.1892 0.703 2.176 0.734 2.15 0.757C2.1283 0.7757 2.1053 0.785 2.081 0.785C2.0503 0.785 2.025 0.7682 2.005 0.7345C1.9943 0.7162 1.989 0.6943 1.989 0.669C1.989 0.6487 1.9927 0.6287 2 0.609C2.008 0.5873 2.0188 0.5705 2.0325 0.5585C2.0558 0.5378 2.082 0.5285 2.111 0.5305C2.1203 0.5305 2.1465 0.5322 2.1895 0.5355L2.1895000000000002 0.664ZM2.5285 0.646L2.5285 0.6385000000000001C2.5272 0.6045 2.5175 0.576 2.4995 0.553C2.4808 0.5287 2.4555 0.514 2.4235 0.509C2.4122 0.5073 2.3985 0.5065 2.3825 0.5065C2.3658 0.5065 2.3415 0.508 2.3095 0.511L2.3095 0.3425L2.2845 0.3425L2.2845 0.8005L2.2845 0.8005L2.2845 0.8005C2.3235 0.8048 2.3562 0.8072 2.3825 0.8075C2.4185 0.8098 2.45 0.7992 2.477 0.7755C2.5067 0.7498 2.5237 0.7138 2.528 0.6675C2.5283 0.6652 2.5285 0.6617 2.5285 0.657C2.5288 0.6523 2.5288 0.6487 2.5285 0.646ZM2.503 0.658C2.5027 0.662 2.5022 0.6665 2.5015 0.6715C2.4952 0.7108 2.4823 0.7388 2.463 0.7555C2.44 0.7758 2.415 0.7852 2.388 0.7835C2.3787 0.7835 2.3525 0.7818 2.3095 0.7785L2.3095 0.6675L2.3095 0.6675L2.3095 0.664L2.3095 0.65L2.3095 0.6465000000000001L2.3095 0.6465000000000001L2.3095 0.5355000000000001C2.3408 0.5325 2.367 0.5308 2.388 0.5305C2.4213 0.5282 2.4482 0.5366 2.4685 0.5558C2.4888 0.5749 2.5003 0.6035 2.503 0.6415L2.503 0.658ZM2.6 0.801L2.625 0.801L2.625 0.3405L2.6 0.3405L2.6 0.801ZM2.9515 0.6555C2.9528 0.6205 2.9448 0.5892 2.9275 0.5615C2.9082 0.5308 2.8822 0.5128 2.8495 0.5075C2.8435 0.5065 2.8377 0.506 2.832 0.506C2.8023 0.506 2.7758 0.5163 2.7525 0.537C2.7215 0.564 2.7043 0.5982 2.701 0.6395C2.7007 0.6415 2.7005 0.6437 2.7005 0.646L2.7005 0.657L2.7005 0.6675C2.7062 0.7145 2.7232 0.7505 2.7515 0.7755C2.7762 0.7972 2.8077 0.8078 2.846 0.8075C2.8543 0.8072 2.863 0.8065 2.872 0.8055C2.894 0.8028 2.9157 0.7983 2.937 0.792C2.937 0.793 2.937 0.791 2.937 0.786L2.9370000000000003 0.7675000000000001C2.9153 0.7735 2.9015 0.7772 2.8955 0.7785C2.8792 0.7828 2.8608 0.7845 2.8405 0.7835C2.8118 0.7835 2.7868 0.7742 2.7655 0.7555C2.7465 0.7388 2.7338 0.7108 2.7275 0.6715C2.7265 0.6665 2.726 0.662 2.726 0.658L2.726 0.6555000000000001L2.9515000000000002 0.6555000000000001ZM2.8335 0.5315C2.8645 0.5315 2.8898 0.5485 2.9095 0.5825C2.9178 0.5962 2.923 0.6122 2.925 0.6305L2.727 0.6305000000000001C2.7313 0.6018 2.7442 0.5782 2.7655 0.5595C2.7868 0.5408 2.8095 0.5315 2.8335 0.5315ZM3.46 0.8005L3.4865 0.8005L3.6265 0.402L3.6 0.402L3.473 0.763L3.343 0.402L3.3165 0.402L3.46 0.8005ZM3.921 0.6555C3.9223 0.6205 3.9143 0.5892 3.897 0.5615C3.8777 0.5308 3.8517 0.5128 3.819 0.5075C3.813 0.5065 3.8072 0.506 3.8015 0.506C3.7718 0.506 3.7453 0.5163 3.722 0.537C3.691 0.564 3.6738 0.5982 3.6705 0.6395C3.6702 0.6415 3.67 0.6437 3.67 0.646L3.67 0.657L3.67 0.6675C3.6757 0.7145 3.6927 0.7505 3.721 0.7755C3.7457 0.7972 3.7772 0.8078 3.8155 0.8075C3.8238 0.8072 3.8325 0.8065 3.8415 0.8055C3.8635 0.8028 3.8852 0.7983 3.9065 0.792C3.9065 0.793 3.9065 0.791 3.9065 0.786L3.9065 0.7675000000000001C3.8848 0.7735 3.871 0.7772 3.865 0.7785C3.8487 0.7828 3.8303 0.7845 3.81 0.7835C3.7813 0.7835 3.7563 0.7742 3.735 0.7555C3.716 0.7388 3.7033 0.7108 3.697 0.6715C3.696 0.6665 3.6955 0.662 3.6955 0.658L3.6955 0.6555000000000001L3.9210000000000003 0.6555000000000001ZM3.803 0.5315C3.834 0.5315 3.8593 0.5485 3.879 0.5825C3.8873 0.5962 3.8925 0.6122 3.8945 0.6305L3.6965 0.6305000000000001C3.7008 0.6018 3.7137 0.5782 3.735 0.5595C3.7563 0.5408 3.779 0.5315 3.803 0.5315ZM4.2035 0.7675C4.1818 0.7735 4.168 0.7772 4.162 0.7785C4.1457 0.7828 4.1273 0.7845 4.107 0.7835C4.0783 0.7835 4.0533 0.7742 4.032 0.7555C4.013 0.7388 4.0003 0.7108 3.994 0.6715C3.993 0.6665 3.9925 0.662 3.9925 0.658C3.9922 0.65 3.9922 0.6445 3.9925 0.6415C3.9948 0.6035 4.0063 0.5748 4.027 0.5555C4.0447 0.5388 4.0713 0.5305 4.107 0.5305C4.1243 0.5305 4.1497 0.5322 4.183 0.5355L4.183 0.5105000000000001C4.1523 0.5078 4.1288 0.5065 4.1125 0.5065C4.0678 0.5065 4.0347 0.516 4.013 0.535C3.984 0.5603 3.9687 0.5948 3.967 0.6385C3.967 0.6398 3.9668 0.6423 3.9665 0.646L3.9665 0.657C3.9665 0.659 3.9667 0.6625 3.967 0.6675C3.9717 0.7138 3.9888 0.7498 4.0185 0.7755C4.0428 0.7972 4.0742 0.8078 4.1125 0.8075C4.1208 0.8072 4.1297 0.8065 4.139 0.8055C4.1607 0.8028 4.1823 0.7983 4.204 0.792C4.204 0.793 4.2038 0.791 4.2035 0.786L4.2035 0.7675000000000001ZM4.324 0.7735C4.3147 0.7652 4.3088 0.75 4.3065 0.728C4.3058 0.7217 4.3053 0.6992 4.305 0.6605C4.3043 0.6188 4.3043 0.5773 4.305 0.536L4.3695 0.536L4.3695 0.5110000000000001L4.305 0.5110000000000001L4.305 0.4625L4.28 0.4625L4.28 0.5110000000000001L4.238 0.5110000000000001L4.238 0.536L4.28 0.536C4.2793 0.578 4.2793 0.62 4.28 0.662C4.2807 0.7047 4.2815 0.7307 4.2825 0.74C4.2855 0.7633 4.293 0.7802 4.305 0.7905C4.3123 0.7968 4.3238 0.8008 4.3395 0.8025C4.3452 0.8032 4.3578 0.8035 4.3775 0.8035L4.3775 0.782C4.3495 0.7827 4.3317 0.7798 4.324 0.7735ZM4.548 0.505C4.513 0.505 4.4821 0.5198 4.4553 0.5495C4.4284 0.5792 4.415 0.6147 4.415 0.656C4.415 0.7027 4.4272 0.7395 4.4515 0.7665C4.4758 0.7935 4.508 0.807 4.548 0.807C4.5897 0.807 4.6223 0.7937 4.6458 0.767C4.6693 0.7403 4.681 0.7033 4.681 0.656C4.681 0.6147 4.6677 0.5792 4.641 0.5495C4.6143 0.5198 4.5833 0.505 4.548 0.505ZM4.5485 0.782C4.5162 0.782 4.4902 0.7708 4.4705 0.7483C4.4508 0.7258 4.441 0.695 4.441 0.656C4.441 0.6217 4.4518 0.5921 4.4735 0.5673C4.4952 0.5424 4.5202 0.53 4.5485 0.53C4.5768 0.53 4.6018 0.5424 4.6235 0.5673C4.6452 0.5921 4.656 0.6217 4.656 0.656C4.656 0.6943 4.646 0.7249 4.626 0.7478C4.606 0.7706 4.5802 0.782 4.5485 0.782ZM4.8025 0.537C4.7905 0.5477 4.7802 0.5603 4.7715 0.575L4.7715000000000005 0.5110000000000001L4.7465 0.5110000000000001L4.7465 0.8L4.7715000000000005 0.8L4.7715000000000005 0.664C4.7715 0.661 4.7725 0.6535 4.7745 0.6415C4.7805 0.6045 4.7945 0.5763 4.8165 0.557C4.8275 0.5477 4.8397 0.5407 4.853 0.536L4.853 0.5105000000000001C4.8337 0.5158 4.8168 0.5247 4.8025 0.537ZM5.4955 0.5965L5.3685 0.5965L5.3685 0.6215L5.4695 0.6215L5.4695 0.7775000000000001C5.4422 0.7792 5.4167 0.78 5.393 0.78C5.3577 0.78 5.3302 0.7728 5.3105 0.7583C5.2908 0.7438 5.277 0.7297 5.269 0.716C5.255 0.6923 5.2465 0.6578 5.2435 0.6125C5.2432 0.6112 5.243 0.6072 5.243 0.6005C5.243 0.5938 5.2432 0.5897 5.2435 0.588C5.2465 0.543 5.255 0.5087 5.269 0.485C5.277 0.471 5.2908 0.4568 5.3105 0.4425C5.3302 0.4282 5.3577 0.421 5.393 0.421C5.411 0.421 5.4373 0.4225 5.472 0.4255L5.472 0.401C5.44 0.3983 5.4157 0.397 5.399 0.397C5.3517 0.397 5.3157 0.4058 5.291 0.4235C5.2693 0.4392 5.2535 0.4553 5.2435 0.472C5.2282 0.4987 5.2193 0.5358 5.217 0.5835L5.2165 0.5835L5.2165 0.6005L5.2165 0.6085L5.2165 0.6175L5.2170000000000005 0.6175C5.2193 0.6652 5.2282 0.7023 5.2435 0.729C5.2535 0.7457 5.2693 0.7618 5.291 0.7775C5.3157 0.7952 5.3517 0.804 5.399 0.804C5.431 0.804 5.4575 0.8033 5.4785 0.802L5.4955 0.8005L5.4955 0.6215L5.4955 0.6215L5.4955 0.5965ZM5.629 0.537C5.617 0.5477 5.6067 0.5603 5.598 0.575L5.598 0.5110000000000001L5.573 0.5110000000000001L5.573 0.8L5.598 0.8L5.598 0.664C5.598 0.661 5.599 0.6535 5.601 0.6415C5.607 0.6045 5.621 0.5763 5.643 0.557C5.654 0.5477 5.6662 0.5407 5.6795 0.536L5.6795 0.5105000000000001C5.6602 0.5158 5.6433 0.5247 5.629 0.537ZM5.878 0.5065C5.84 0.5038 5.8075 0.5145 5.7805 0.5385C5.7515 0.5638 5.7337 0.5972 5.727 0.6385C5.7253 0.6485 5.7245 0.6583 5.7245 0.668C5.7245 0.7053 5.735 0.7378 5.756 0.7655C5.779 0.7955 5.8085 0.8105 5.8445 0.8105C5.8742 0.8105 5.9007 0.8003 5.924 0.78C5.9353 0.77 5.9443 0.76 5.951 0.75L5.9510000000000005 0.7675000000000001L5.9510000000000005 0.7675000000000001L5.9510000000000005 0.7675000000000001L5.9510000000000005 0.8L5.976 0.8L5.976 0.5135000000000001C5.937 0.5092 5.9043 0.5068 5.878 0.5065ZM5.951 0.664C5.9507 0.703 5.9375 0.734 5.9115 0.757C5.8898 0.7757 5.8668 0.785 5.8425 0.785C5.8118 0.785 5.7865 0.7682 5.7665 0.7345C5.7558 0.7162 5.7505 0.6943 5.7505 0.669C5.7505 0.6487 5.7542 0.6287 5.7615 0.609C5.7695 0.5873 5.7803 0.5705 5.794 0.5585C5.8173 0.5378 5.8435 0.5285 5.8725 0.5305C5.8818 0.5305 5.908 0.5322 5.951 0.5355L5.9510000000000005 0.664ZM6.3015 0.6375C6.2995 0.5938 6.284 0.5592 6.255 0.5335C6.233 0.5142 6.2047 0.5045 6.17 0.5045C6.165 0.5045 6.16 0.5047 6.155 0.505C6.1433 0.505 6.1107 0.5073 6.057 0.512L6.057 0.9715L6.082 0.9715L6.082 0.8025C6.114 0.8055 6.1383 0.807 6.155 0.807C6.194 0.807 6.2257 0.7963 6.25 0.775C6.2797 0.749 6.2967 0.713 6.301 0.667C6.3013 0.6643 6.3015 0.6607 6.3015 0.656C6.3018 0.6513 6.3019 0.648 6.3018 0.646C6.3016 0.644 6.3015 0.6412 6.3015 0.6375ZM6.2755 0.657C6.2755 0.661 6.2752 0.6655 6.2745 0.6705C6.2678 0.7102 6.255 0.7383 6.236 0.755C6.2127 0.7753 6.1877 0.7847 6.161 0.783C6.1513 0.783 6.125 0.7813 6.082 0.778L6.082 0.667L6.082 0.667L6.082 0.663L6.082 0.649L6.082 0.6455000000000001L6.082 0.6455000000000001L6.082 0.5345C6.1133 0.5312 6.1397 0.5293 6.161 0.529C6.1943 0.527 6.2212 0.5355 6.2415 0.5545C6.2618 0.5735 6.2733 0.6023 6.276 0.641C6.276 0.6437 6.2758 0.649 6.2755 0.657ZM6.608 0.557C6.5987 0.5403 6.5878 0.5281 6.5753 0.5203C6.5628 0.5124 6.5455 0.5068 6.5235 0.5035C6.5175 0.5025 6.5117 0.502 6.506 0.502C6.485 0.502 6.4647 0.5077 6.445 0.519C6.427 0.5297 6.4117 0.5442 6.399 0.5625L6.399 0.34L6.3740000000000006 0.34L6.3740000000000006 0.8005L6.399 0.8005L6.399 0.642C6.399 0.6077 6.4123 0.579 6.439 0.556C6.4607 0.537 6.4835 0.5275 6.5075 0.5275C6.5115 0.5275 6.5153 0.5277 6.519 0.528C6.537 0.531 6.5506 0.5356 6.5598 0.5418C6.5689 0.5479 6.5775 0.5577 6.5855 0.571C6.5955 0.5877 6.6005 0.612 6.6005 0.644L6.6005 0.644L6.6005 0.8L6.6265 0.8L6.6265 0.644L6.6265 0.644C6.6262 0.606 6.62 0.577 6.608 0.557ZM6.707 0.5105L6.707 0.8005L6.732 0.8005L6.732 0.5105000000000001L6.707 0.5105000000000001ZM6.732 0.437L6.707 0.43700000000000006L6.707 0.462L6.732 0.462L6.732 0.43700000000000006ZM7.0375 0.7675C7.0158 0.7735 7.002 0.7772 6.996 0.7785C6.9797 0.7828 6.9613 0.7845 6.941 0.7835C6.9123 0.7835 6.8873 0.7742 6.866 0.7555C6.847 0.7388 6.8343 0.7108 6.828 0.6715C6.827 0.6665 6.8265 0.662 6.8265 0.658C6.8262 0.65 6.8262 0.6445 6.8265 0.6415C6.8288 0.6035 6.8403 0.5748 6.861 0.5555C6.8787 0.5388 6.9053 0.5305 6.941 0.5305C6.9583 0.5305 6.9837 0.5322 7.017 0.5355L7.017 0.5105000000000001C6.9863 0.5078 6.9628 0.5065 6.9465 0.5065C6.9018 0.5065 6.8687 0.516 6.847 0.535C6.818 0.5603 6.8027 0.5948 6.801 0.6385C6.801 0.6398 6.8008 0.6423 6.8005 0.646L6.8005 0.657C6.8005 0.659 6.8007 0.6625 6.801 0.6675C6.8057 0.7138 6.8228 0.7498 6.8525 0.7755C6.8768 0.7972 6.9082 0.8078 6.9465 0.8075C6.9548 0.8072 6.9637 0.8065 6.973 0.8055C6.9947 0.8028 7.0163 0.7983 7.038 0.792C7.038 0.793 7.0378 0.791 7.0375 0.786L7.0375000000000005 0.7675000000000001ZM7.1475 0.636C7.1145 0.616 7.098 0.5977 7.098 0.581C7.098 0.578 7.0985 0.5743 7.0995 0.57C7.1048 0.5433 7.1215 0.53 7.1495 0.53C7.1545 0.53 7.16 0.5305 7.166 0.5315C7.1783 0.5335 7.1877 0.5362 7.194 0.5395C7.202 0.5432 7.2112 0.5502 7.2215 0.5605L7.224 0.537C7.2047 0.517 7.1782 0.507 7.1445 0.507C7.1045 0.507 7.0808 0.5257 7.0735 0.563C7.0725 0.5683 7.072 0.5733 7.072 0.578C7.072 0.5997 7.0832 0.6197 7.1055 0.638C7.1265 0.652 7.1473 0.666 7.168 0.68C7.1903 0.6967 7.2015 0.7137 7.2015 0.731C7.2015 0.7343 7.2012 0.7377 7.2005 0.741C7.1945 0.773 7.1765 0.789 7.1465 0.789C7.1202 0.789 7.096 0.7792 7.074 0.7595L7.073 0.787C7.086 0.797 7.103 0.804 7.124 0.808C7.1313 0.8097 7.1387 0.8105 7.146 0.8105C7.1663 0.8105 7.1835 0.8053 7.1975 0.795C7.2128 0.7843 7.2225 0.769 7.2265 0.749C7.2278 0.7417 7.2285 0.735 7.2285 0.729C7.2285 0.7133 7.2227 0.6987 7.211 0.685C7.1993 0.6713 7.1782 0.655 7.1475 0.636Z" stroke="none" fill="#FF0000"/>
  <path d="M-0.1 -1.019L7.3285 -1.0190000000000001L7.3285 1.0715000000000001L-0.1 1.0715000000000001Z" stroke="none" fill="none"/>
</svg>
