<svg xmlns="http://www.w3.org/2000/svg" viewBox="-0.1 -1.02 7.43 2.09">
  <path d="M-0.1 -1.02L7.3285 -1.0190000000000001L7.3285 1.0715000000000001L-0.1 1.0715000000000001Z" stroke="none" fill="#FFFFFF"/>
  <path d="M0.45 -0.8L0.453 -0.46L0.05 -0.46L0.05 -0.797L0 -0.797L0 0L0.05 0L0.05 -0.41000000000000003L0.453 -0.41000000000000003L0.453 0L0.502 0L0.502 -0.797L0.453 -0.797ZM1.13 -0.29C1.13 -0.36 1.12 -0.42 1.08 -0.48C1.04 -0.54 0.99 -0.57 0.93 -0.58C0.91 -0.59 0.9 -0.59 0.89 -0.59C0.83 -0.59 0.78 -0.57 0.73 -0.53C0.67 -0.47 0.63 -0.4 0.63 -0.32C0.63 -0.32 0.63 -0.31 0.63 -0.31L0.627 -0.28600000000000003L0.627 -0.265C0.64 -0.17 0.67 -0.1 0.73 -0.05C0.78 -0.01 0.84 0.02 0.92 0.02C0.93 0.01 0.95 0.01 0.97 0.01C1.01 0.01 1.06 0 1.1 -0.02C1.1 -0.01 1.1 -0.02 1.1 -0.03L1.1 -0.065C1.06 -0.05 1.03 -0.05 1.02 -0.04C0.98 -0.03 0.95 -0.03 0.91 -0.03C0.85 -0.03 0.8 -0.05 0.76 -0.09C0.72 -0.12 0.69 -0.18 0.68 -0.26C0.68 -0.27 0.68 -0.28 0.68 -0.28L0.678 -0.289L1.129 -0.289ZM0.89 -0.54C0.96 -0.54 1.01 -0.5 1.05 -0.43C1.06 -0.41 1.07 -0.38 1.08 -0.34L0.68 -0.339C0.69 -0.4 0.71 -0.44 0.76 -0.48C0.8 -0.52 0.85 -0.54 0.89 -0.54ZM1.28 0L1.328 0.002L1.328 -0.919L1.278 -0.919L1.278 0.002ZM1.54 0L1.588 0.002L1.588 -0.919L1.538 -0.919L1.538 0.002ZM2.01 -0.59C1.94 -0.59 1.88 -0.56 1.83 -0.5C1.77 -0.44 1.75 -0.37 1.75 -0.29C1.75 -0.19 1.77 -0.12 1.82 -0.07C1.87 -0.01 1.93 0.01 2.01 0.01C2.1 0.01 2.16 -0.01 2.21 -0.07C2.26 -0.12 2.28 -0.19 2.28 -0.29C2.28 -0.37 2.25 -0.44 2.2 -0.5C2.15 -0.56 2.08 -0.59 2.01 -0.59ZM2.01 -0.04C1.95 -0.04 1.9 -0.06 1.86 -0.1C1.82 -0.15 1.8 -0.21 1.8 -0.29C1.8 -0.36 1.82 -0.42 1.86 -0.47C1.91 -0.52 1.96 -0.54 2.01 -0.54C2.07 -0.54 2.12 -0.52 2.16 -0.47C2.21 -0.42 2.23 -0.36 2.23 -0.29C2.23 -0.21 2.21 -0.15 2.17 -0.1C2.13 -0.06 2.08 -0.04 2.01 -0.04ZM3.62 -0.8L3.623 -0.8L3.623 -0.8L3.623 -0.8L3.368 -0.293L3.107 -0.8L3.107 -0.8L3.107 -0.8L3.057 -0.8L3.057 -0.8L3.057 -0.8L3.057 -0.001L3.107 -0.001L3.107 -0.6930000000000001L3.369 -0.165L3.623 -0.6900000000000001L3.623 -0.001L3.672 -0.001L3.672 -0.8L3.623 -0.8ZM4.09 -0.59C4.02 -0.59 3.96 -0.56 3.91 -0.5C3.85 -0.44 3.83 -0.37 3.83 -0.29C3.83 -0.19 3.85 -0.12 3.9 -0.07C3.95 -0.01 4.01 0.01 4.09 0.01C4.17 0.01 4.24 -0.01 4.29 -0.07C4.33 -0.12 4.36 -0.19 4.36 -0.29C4.36 -0.37 4.33 -0.44 4.28 -0.5C4.22 -0.56 4.16 -0.59 4.09 -0.59ZM4.09 -0.04C4.03 -0.04 3.98 -0.06 3.94 -0.1C3.9 -0.15 3.88 -0.21 3.88 -0.29C3.88 -0.36 3.9 -0.42 3.94 -0.47C3.99 -0.52 4.04 -0.54 4.09 -0.54C4.15 -0.54 4.2 -0.52 4.24 -0.47C4.29 -0.42 4.31 -0.36 4.31 -0.29C4.31 -0.21 4.29 -0.15 4.25 -0.1C4.21 -0.06 4.16 -0.04 4.09 -0.04ZM4.72 -0.59C4.65 -0.59 4.59 -0.56 4.53 -0.5C4.48 -0.44 4.45 -0.37 4.45 -0.29C4.45 -0.19 4.48 -0.12 4.53 -0.07C4.58 -0.01 4.64 0.01 4.72 0.01C4.8 0.01 4.87 -0.01 4.92 -0.07C4.96 -0.12 4.99 -0.19 4.99 -0.29C4.99 -0.37 4.96 -0.44 4.91 -0.5C4.85 -0.56 4.79 -0.59 4.72 -0.59ZM4.72 -0.04C4.66 -0.04 4.6 -0.06 4.57 -0.1C4.53 -0.15 4.51 -0.21 4.51 -0.29C4.51 -0.36 4.53 -0.42 4.57 -0.47C4.61 -0.52 4.66 -0.54 4.72 -0.54C4.78 -0.54 4.83 -0.52 4.87 -0.47C4.91 -0.42 4.94 -0.36 4.94 -0.29C4.94 -0.21 4.92 -0.15 4.88 -0.1C4.84 -0.06 4.78 -0.04 4.72 -0.04ZM5.6 -0.49C5.58 -0.52 5.56 -0.54 5.53 -0.56C5.51 -0.57 5.47 -0.59 5.43 -0.59C5.42 -0.59 5.41 -0.59 5.39 -0.59C5.35 -0.59 5.31 -0.58 5.27 -0.56C5.24 -0.54 5.2 -0.51 5.18 -0.47L5.18 -0.578L5.13 -0.578L5.13 0L5.18 0L5.18 -0.316C5.18 -0.38 5.21 -0.44 5.26 -0.49C5.3 -0.53 5.35 -0.55 5.4 -0.55C5.4 -0.55 5.41 -0.54 5.42 -0.54C5.46 -0.54 5.48 -0.53 5.5 -0.52C5.52 -0.5 5.54 -0.48 5.55 -0.46C5.57 -0.42 5.58 -0.38 5.58 -0.31L5.582 -0.312L5.582 0L5.634 0L5.634 -0.312C5.63 -0.39 5.62 -0.44 5.6 -0.49ZM6.26 -0.25C6.26 -0.3 6.24 -0.34 6.21 -0.38C6.18 -0.41 6.14 -0.43 6.1 -0.44C6.17 -0.48 6.2 -0.54 6.19 -0.63C6.19 -0.69 6.17 -0.73 6.12 -0.76C6.08 -0.79 6.03 -0.8 5.98 -0.81C5.96 -0.81 5.94 -0.81 5.92 -0.81C5.86 -0.81 5.82 -0.8 5.78 -0.8L5.7780000000000005 -0.799L5.7780000000000005 -0.799L5.7780000000000005 -0.799L5.7780000000000005 0L5.779 0L5.779 0C5.85 0.01 5.92 0.02 5.99 0.01C6.1 0.01 6.18 -0.02 6.22 -0.07C6.25 -0.11 6.27 -0.17 6.26 -0.25L6.264 -0.249ZM5.97 -0.04C5.93 -0.04 5.88 -0.04 5.83 -0.04L5.828 -0.41000000000000003L6.007000000000001 -0.41000000000000003C6.06 -0.41 6.1 -0.4 6.14 -0.37C6.19 -0.34 6.22 -0.3 6.22 -0.25C6.22 -0.18 6.21 -0.14 6.18 -0.1C6.14 -0.06 6.07 -0.04 5.97 -0.04L5.9670000000000005 -0.037ZM5.95 -0.76C6 -0.76 6.04 -0.75 6.08 -0.73C6.12 -0.7 6.14 -0.67 6.15 -0.63C6.15 -0.52 6.08 -0.46 5.93 -0.46L5.828 -0.46L5.828 -0.761C5.87 -0.76 5.91 -0.76 5.95 -0.76ZM6.41 -0.58L6.407 0.001L6.457 0.001L6.457 -0.579L6.407 -0.579ZM6.46 -0.73L6.407 -0.726L6.407 -0.676L6.457 -0.676L6.457 -0.726ZM6.76 -0.05C6.74 -0.07 6.73 -0.1 6.73 -0.14C6.73 -0.16 6.72 -0.2 6.72 -0.28C6.72 -0.36 6.72 -0.45 6.72 -0.53L6.853 -0.528L6.853 -0.578L6.724 -0.578L6.724 -0.675L6.674 -0.675L6.674 -0.578L6.59 -0.578L6.59 -0.528L6.674 -0.528C6.67 -0.44 6.67 -0.36 6.67 -0.28C6.68 -0.19 6.68 -0.14 6.68 -0.12C6.69 -0.07 6.7 -0.04 6.72 -0.02C6.74 -0.01 6.76 0 6.79 0.01C6.8 0.01 6.83 0.01 6.87 0.01L6.869 -0.036000000000000004C6.81 -0.03 6.78 -0.04 6.76 -0.05ZM7.01 -0.8L7.006 -0.149L7.056 -0.149L7.056 -0.8L7.006 -0.8ZM7 -0.06L7.065 -0.06L7.065 0L6.995 0L6.995 -0.06Z" stroke="none" fill="#0000FF"/>
  <path d="M0.17 0.42C0.19 0.42 0.22 0.42 0.25 0.43L0.2495 0.4C0.22 0.4 0.19 0.4 0.18 0.4C0.13 0.4 0.1 0.4 0.07 0.42C0.05 0.44 0.04 0.45 0.03 0.47C0.01 0.5 0 0.54 0 0.58L0 0.5840000000000001L0 0.6015L0 0.6095L0 0.6185L0.0005 0.6185C0 0.67 0.01 0.7 0.03 0.73C0.04 0.75 0.05 0.76 0.07 0.78C0.1 0.8 0.13 0.81 0.18 0.81C0.19 0.81 0.22 0.81 0.25 0.8L0.2495 0.7775000000000001C0.22 0.78 0.19 0.78 0.17 0.78C0.14 0.78 0.11 0.78 0.09 0.76C0.07 0.75 0.06 0.73 0.05 0.72C0.04 0.69 0.03 0.66 0.03 0.61L0.026000000000000002 0.6012500000000001L0.026000000000000002 0.5890000000000001C0.03 0.54 0.04 0.51 0.05 0.48C0.06 0.47 0.07 0.46 0.09 0.44C0.11 0.43 0.14 0.42 0.17 0.42ZM0.43 0.51C0.4 0.51 0.37 0.52 0.34 0.55C0.31 0.58 0.3 0.61 0.3 0.66C0.3 0.7 0.31 0.74 0.34 0.77C0.36 0.79 0.39 0.81 0.43 0.81C0.48 0.81 0.51 0.79 0.53 0.77C0.56 0.74 0.57 0.7 0.57 0.66C0.57 0.61 0.55 0.58 0.53 0.55C0.5 0.52 0.47 0.51 0.43 0.51ZM0.44 0.78C0.4 0.78 0.38 0.77 0.36 0.75C0.34 0.73 0.33 0.7 0.33 0.66C0.33 0.62 0.34 0.59 0.36 0.57C0.38 0.54 0.41 0.53 0.44 0.53C0.46 0.53 0.49 0.54 0.51 0.57C0.53 0.59 0.54 0.62 0.54 0.66C0.54 0.69 0.53 0.72 0.51 0.75C0.49 0.77 0.47 0.78 0.44 0.78ZM1.06 0.55C1.04 0.52 1.02 0.51 0.98 0.5C0.97 0.5 0.97 0.5 0.96 0.5C0.93 0.5 0.91 0.51 0.88 0.53C0.87 0.54 0.86 0.55 0.86 0.57C0.84 0.53 0.81 0.51 0.77 0.5C0.77 0.5 0.76 0.5 0.75 0.5C0.72 0.5 0.69 0.51 0.67 0.54L0.665 0.5105000000000001L0.64 0.5105000000000001L0.64 0.8L0.665 0.8L0.665 0.5910000000000001C0.67 0.58 0.68 0.56 0.69 0.55C0.71 0.54 0.73 0.53 0.76 0.53C0.79 0.53 0.81 0.54 0.83 0.57C0.84 0.59 0.84 0.61 0.84 0.64L0.841 0.8005L0.867 0.8005L0.867 0.6435000000000001C0.87 0.63 0.87 0.62 0.87 0.62C0.87 0.59 0.88 0.57 0.9 0.55C0.92 0.54 0.94 0.53 0.96 0.53C1 0.53 1.02 0.54 1.03 0.57C1.04 0.59 1.05 0.61 1.05 0.64L1.0485 0.8005L1.0745 0.8005L1.0745 0.6435000000000001C1.07 0.6 1.07 0.57 1.06 0.55ZM1.4 0.64C1.4 0.59 1.39 0.56 1.36 0.53C1.34 0.51 1.31 0.5 1.27 0.5C1.27 0.5 1.26 0.5 1.26 0.51C1.25 0.51 1.21 0.51 1.16 0.51L1.159 0.9715L1.184 0.9715L1.184 0.8025C1.22 0.81 1.24 0.81 1.26 0.81C1.3 0.81 1.33 0.8 1.35 0.78C1.38 0.75 1.4 0.71 1.4 0.67C1.4 0.66 1.4 0.66 1.4 0.66C1.4 0.65 1.4 0.65 1.4 0.65C1.4 0.64 1.4 0.64 1.4 0.64ZM1.38 0.66C1.38 0.66 1.38 0.67 1.38 0.67C1.37 0.71 1.36 0.74 1.34 0.76C1.31 0.78 1.29 0.78 1.26 0.78C1.25 0.78 1.23 0.78 1.18 0.78L1.184 0.667L1.184 0.667L1.184 0.663L1.184 0.649L1.184 0.6455000000000001L1.184 0.6455000000000001L1.184 0.5345C1.22 0.53 1.24 0.53 1.26 0.53C1.3 0.53 1.32 0.54 1.34 0.55C1.36 0.57 1.38 0.6 1.38 0.64C1.38 0.64 1.38 0.65 1.38 0.66ZM1.59 0.51C1.55 0.51 1.52 0.52 1.49 0.55C1.47 0.58 1.45 0.61 1.45 0.66C1.45 0.7 1.46 0.74 1.49 0.77C1.51 0.79 1.55 0.81 1.59 0.81C1.63 0.81 1.66 0.79 1.68 0.77C1.71 0.74 1.72 0.7 1.72 0.66C1.72 0.61 1.71 0.58 1.68 0.55C1.65 0.52 1.62 0.51 1.59 0.51ZM1.59 0.78C1.55 0.78 1.53 0.77 1.51 0.75C1.49 0.73 1.48 0.7 1.48 0.66C1.48 0.62 1.49 0.59 1.51 0.57C1.53 0.54 1.56 0.53 1.59 0.53C1.61 0.53 1.64 0.54 1.66 0.57C1.68 0.59 1.69 0.62 1.69 0.66C1.69 0.69 1.68 0.72 1.66 0.75C1.64 0.77 1.62 0.78 1.59 0.78ZM1.84 0.64C1.8 0.62 1.79 0.6 1.79 0.58C1.79 0.58 1.79 0.57 1.79 0.57C1.79 0.54 1.81 0.53 1.84 0.53C1.84 0.53 1.85 0.53 1.86 0.53C1.87 0.53 1.88 0.54 1.88 0.54C1.89 0.54 1.9 0.55 1.91 0.56L1.9135 0.537C1.89 0.52 1.87 0.51 1.83 0.51C1.79 0.51 1.77 0.53 1.76 0.56C1.76 0.57 1.76 0.57 1.76 0.58C1.76 0.6 1.77 0.62 1.8 0.64C1.82 0.65 1.84 0.67 1.86 0.68C1.88 0.7 1.89 0.71 1.89 0.73C1.89 0.73 1.89 0.74 1.89 0.74C1.88 0.77 1.87 0.79 1.84 0.79C1.81 0.79 1.79 0.78 1.76 0.76L1.7625 0.787C1.78 0.8 1.79 0.8 1.81 0.81C1.82 0.81 1.83 0.81 1.84 0.81C1.86 0.81 1.87 0.81 1.89 0.8C1.9 0.78 1.91 0.77 1.92 0.75C1.92 0.74 1.92 0.74 1.92 0.73C1.92 0.71 1.91 0.7 1.9 0.69C1.89 0.67 1.87 0.66 1.84 0.64ZM2.12 0.51C2.08 0.5 2.05 0.51 2.02 0.54C1.99 0.56 1.97 0.6 1.97 0.64C1.96 0.65 1.96 0.66 1.96 0.67C1.96 0.71 1.97 0.74 1.99 0.77C2.02 0.8 2.05 0.81 2.08 0.81C2.11 0.81 2.14 0.8 2.16 0.78C2.17 0.77 2.18 0.76 2.19 0.75L2.1895000000000002 0.7675000000000001L2.1895000000000002 0.7675000000000001L2.1895000000000002 0.7675000000000001L2.1895000000000002 0.8L2.2145 0.8L2.2145 0.5135000000000001C2.18 0.51 2.14 0.51 2.12 0.51ZM2.19 0.66C2.19 0.7 2.18 0.73 2.15 0.76C2.13 0.78 2.11 0.79 2.08 0.79C2.05 0.79 2.03 0.77 2.01 0.73C1.99 0.72 1.99 0.69 1.99 0.67C1.99 0.65 1.99 0.63 2 0.61C2.01 0.59 2.02 0.57 2.03 0.56C2.06 0.54 2.08 0.53 2.11 0.53C2.12 0.53 2.15 0.53 2.19 0.54L2.1895000000000002 0.664ZM2.53 0.65L2.5285 0.6385000000000001C2.53 0.6 2.52 0.58 2.5 0.55C2.48 0.53 2.46 0.51 2.42 0.51C2.41 0.51 2.4 0.51 2.38 0.51C2.37 0.51 2.34 0.51 2.31 0.51L2.3095 0.3425L2.2845 0.3425L2.2845 0.8005L2.2845 0.8005L2.2845 0.8005C2.32 0.8 2.36 0.81 2.38 0.81C2.42 0.81 2.45 0.8 2.48 0.78C2.51 0.75 2.52 0.71 2.53 0.67C2.53 0.67 2.53 0.66 2.53 0.66C2.53 0.65 2.53 0.65 2.53 0.65ZM2.5 0.66C2.5 0.66 2.5 0.67 2.5 0.67C2.5 0.71 2.48 0.74 2.46 0.76C2.44 0.78 2.42 0.79 2.39 0.78C2.38 0.78 2.35 0.78 2.31 0.78L2.3095 0.6675L2.3095 0.6675L2.3095 0.664L2.3095 0.65L2.3095 0.6465000000000001L2.3095 0.6465000000000001L2.3095 0.5355000000000001C2.34 0.53 2.37 0.53 2.39 0.53C2.42 0.53 2.45 0.54 2.47 0.56C2.49 0.57 2.5 0.6 2.5 0.64L2.503 0.658ZM2.6 0.8L2.625 0.801L2.625 0.3405L2.6 0.3405L2.6 0.801ZM2.95 0.66C2.95 0.62 2.94 0.59 2.93 0.56C2.91 0.53 2.88 0.51 2.85 0.51C2.84 0.51 2.84 0.51 2.83 0.51C2.8 0.51 2.78 0.52 2.75 0.54C2.72 0.56 2.7 0.6 2.7 0.64C2.7 0.64 2.7 0.64 2.7 0.65L2.7005 0.657L2.7005 0.6675C2.71 0.71 2.72 0.75 2.75 0.78C2.78 0.8 2.81 0.81 2.85 0.81C2.85 0.81 2.86 0.81 2.87 0.81C2.89 0.8 2.92 0.8 2.94 0.79C2.94 0.79 2.94 0.79 2.94 0.79L2.9370000000000003 0.7675000000000001C2.92 0.77 2.9 0.78 2.9 0.78C2.88 0.78 2.86 0.78 2.84 0.78C2.81 0.78 2.79 0.77 2.77 0.76C2.75 0.74 2.73 0.71 2.73 0.67C2.73 0.67 2.73 0.66 2.73 0.66L2.726 0.6555000000000001L2.9515000000000002 0.6555000000000001ZM2.83 0.53C2.86 0.53 2.89 0.55 2.91 0.58C2.92 0.6 2.92 0.61 2.93 0.63L2.727 0.6305000000000001C2.73 0.6 2.74 0.58 2.77 0.56C2.79 0.54 2.81 0.53 2.83 0.53ZM3.46 0.8L3.4865 0.8005L3.6265 0.402L3.6 0.402L3.473 0.763L3.343 0.402L3.3165 0.402L3.46 0.8005ZM3.92 0.66C3.92 0.62 3.91 0.59 3.9 0.56C3.88 0.53 3.85 0.51 3.82 0.51C3.81 0.51 3.81 0.51 3.8 0.51C3.77 0.51 3.75 0.52 3.72 0.54C3.69 0.56 3.67 0.6 3.67 0.64C3.67 0.64 3.67 0.64 3.67 0.65L3.67 0.657L3.67 0.6675C3.68 0.71 3.69 0.75 3.72 0.78C3.75 0.8 3.78 0.81 3.82 0.81C3.82 0.81 3.83 0.81 3.84 0.81C3.86 0.8 3.89 0.8 3.91 0.79C3.91 0.79 3.91 0.79 3.91 0.79L3.9065 0.7675000000000001C3.88 0.77 3.87 0.78 3.87 0.78C3.85 0.78 3.83 0.78 3.81 0.78C3.78 0.78 3.76 0.77 3.74 0.76C3.72 0.74 3.7 0.71 3.7 0.67C3.7 0.67 3.7 0.66 3.7 0.66L3.6955 0.6555000000000001L3.9210000000000003 0.6555000000000001ZM3.8 0.53C3.83 0.53 3.86 0.55 3.88 0.58C3.89 0.6 3.89 0.61 3.89 0.63L3.6965 0.6305000000000001C3.7 0.6 3.71 0.58 3.74 0.56C3.76 0.54 3.78 0.53 3.8 0.53ZM4.2 0.77C4.18 0.77 4.17 0.78 4.16 0.78C4.15 0.78 4.13 0.78 4.11 0.78C4.08 0.78 4.05 0.77 4.03 0.76C4.01 0.74 4 0.71 3.99 0.67C3.99 0.67 3.99 0.66 3.99 0.66C3.99 0.65 3.99 0.64 3.99 0.64C3.99 0.6 4.01 0.57 4.03 0.56C4.04 0.54 4.07 0.53 4.11 0.53C4.12 0.53 4.15 0.53 4.18 0.54L4.183 0.5105000000000001C4.15 0.51 4.13 0.51 4.11 0.51C4.07 0.51 4.03 0.52 4.01 0.54C3.98 0.56 3.97 0.59 3.97 0.64C3.97 0.64 3.97 0.64 3.97 0.65L3.9665 0.657C3.97 0.66 3.97 0.66 3.97 0.67C3.97 0.71 3.99 0.75 4.02 0.78C4.04 0.8 4.07 0.81 4.11 0.81C4.12 0.81 4.13 0.81 4.14 0.81C4.16 0.8 4.18 0.8 4.2 0.79C4.2 0.79 4.2 0.79 4.2 0.79L4.2035 0.7675000000000001ZM4.32 0.77C4.31 0.77 4.31 0.75 4.31 0.73C4.31 0.72 4.31 0.7 4.31 0.66C4.3 0.62 4.3 0.58 4.31 0.54L4.3695 0.536L4.3695 0.5110000000000001L4.305 0.5110000000000001L4.305 0.4625L4.28 0.4625L4.28 0.5110000000000001L4.238 0.5110000000000001L4.238 0.536L4.28 0.536C4.28 0.58 4.28 0.62 4.28 0.66C4.28 0.7 4.28 0.73 4.28 0.74C4.29 0.76 4.29 0.78 4.31 0.79C4.31 0.8 4.32 0.8 4.34 0.8C4.35 0.8 4.36 0.8 4.38 0.8L4.3775 0.782C4.35 0.78 4.33 0.78 4.32 0.77ZM4.55 0.51C4.51 0.51 4.48 0.52 4.46 0.55C4.43 0.58 4.42 0.61 4.42 0.66C4.42 0.7 4.43 0.74 4.45 0.77C4.48 0.79 4.51 0.81 4.55 0.81C4.59 0.81 4.62 0.79 4.65 0.77C4.67 0.74 4.68 0.7 4.68 0.66C4.68 0.61 4.67 0.58 4.64 0.55C4.61 0.52 4.58 0.51 4.55 0.51ZM4.55 0.78C4.52 0.78 4.49 0.77 4.47 0.75C4.45 0.73 4.44 0.7 4.44 0.66C4.44 0.62 4.45 0.59 4.47 0.57C4.5 0.54 4.52 0.53 4.55 0.53C4.58 0.53 4.6 0.54 4.62 0.57C4.65 0.59 4.66 0.62 4.66 0.66C4.66 0.69 4.65 0.72 4.63 0.75C4.61 0.77 4.58 0.78 4.55 0.78ZM4.8 0.54C4.79 0.55 4.78 0.56 4.77 0.58L4.7715000000000005 0.5110000000000001L4.7465 0.5110000000000001L4.7465 0.8L4.7715000000000005 0.8L4.7715000000000005 0.664C4.77 0.66 4.77 0.65 4.77 0.64C4.78 0.6 4.79 0.58 4.82 0.56C4.83 0.55 4.84 0.54 4.85 0.54L4.853 0.5105000000000001C4.83 0.52 4.82 0.52 4.8 0.54ZM5.5 0.6L5.3685 0.5965L5.3685 0.6215L5.4695 0.6215L5.4695 0.7775000000000001C5.44 0.78 5.42 0.78 5.39 0.78C5.36 0.78 5.33 0.77 5.31 0.76C5.29 0.74 5.28 0.73 5.27 0.72C5.26 0.69 5.25 0.66 5.24 0.61C5.24 0.61 5.24 0.61 5.24 0.6C5.24 0.59 5.24 0.59 5.24 0.59C5.25 0.54 5.26 0.51 5.27 0.49C5.28 0.47 5.29 0.46 5.31 0.44C5.33 0.43 5.36 0.42 5.39 0.42C5.41 0.42 5.44 0.42 5.47 0.43L5.472 0.401C5.44 0.4 5.42 0.4 5.4 0.4C5.35 0.4 5.32 0.41 5.29 0.42C5.27 0.44 5.25 0.46 5.24 0.47C5.23 0.5 5.22 0.54 5.22 0.58L5.2165 0.5835L5.2165 0.6005L5.2165 0.6085L5.2165 0.6175L5.2170000000000005 0.6175C5.22 0.67 5.23 0.7 5.24 0.73C5.25 0.75 5.27 0.76 5.29 0.78C5.32 0.8 5.35 0.8 5.4 0.8C5.43 0.8 5.46 0.8 5.48 0.8L5.4955 0.8005L5.4955 0.6215L5.4955 0.6215L5.4955 0.5965ZM5.63 0.54C5.62 0.55 5.61 0.56 5.6 0.58L5.598 0.5110000000000001L5.573 0.5110000000000001L5.573 0.8L5.598 0.8L5.598 0.664C5.6 0.66 5.6 0.65 5.6 0.64C5.61 0.6 5.62 0.58 5.64 0.56C5.65 0.55 5.67 0.54 5.68 0.54L5.6795 0.5105000000000001C5.66 0.52 5.64 0.52 5.63 0.54ZM5.88 0.51C5.84 0.5 5.81 0.51 5.78 0.54C5.75 0.56 5.73 0.6 5.73 0.64C5.73 0.65 5.72 0.66 5.72 0.67C5.72 0.71 5.74 0.74 5.76 0.77C5.78 0.8 5.81 0.81 5.84 0.81C5.87 0.81 5.9 0.8 5.92 0.78C5.94 0.77 5.94 0.76 5.95 0.75L5.9510000000000005 0.7675000000000001L5.9510000000000005 0.7675000000000001L5.9510000000000005 0.7675000000000001L5.9510000000000005 0.8L5.976 0.8L5.976 0.5135000000000001C5.94 0.51 5.9 0.51 5.88 0.51ZM5.95 0.66C5.95 0.7 5.94 0.73 5.91 0.76C5.89 0.78 5.87 0.79 5.84 0.79C5.81 0.79 5.79 0.77 5.77 0.73C5.76 0.72 5.75 0.69 5.75 0.67C5.75 0.65 5.75 0.63 5.76 0.61C5.77 0.59 5.78 0.57 5.79 0.56C5.82 0.54 5.84 0.53 5.87 0.53C5.88 0.53 5.91 0.53 5.95 0.54L5.9510000000000005 0.664ZM6.3 0.64C6.3 0.59 6.28 0.56 6.26 0.53C6.23 0.51 6.2 0.5 6.17 0.5C6.17 0.5 6.16 0.5 6.16 0.51C6.14 0.51 6.11 0.51 6.06 0.51L6.057 0.9715L6.082 0.9715L6.082 0.8025C6.11 0.81 6.14 0.81 6.16 0.81C6.19 0.81 6.23 0.8 6.25 0.78C6.28 0.75 6.3 0.71 6.3 0.67C6.3 0.66 6.3 0.66 6.3 0.66C6.3 0.65 6.3 0.65 6.3 0.65C6.3 0.64 6.3 0.64 6.3 0.64ZM6.28 0.66C6.28 0.66 6.28 0.67 6.27 0.67C6.27 0.71 6.26 0.74 6.24 0.76C6.21 0.78 6.19 0.78 6.16 0.78C6.15 0.78 6.13 0.78 6.08 0.78L6.082 0.667L6.082 0.667L6.082 0.663L6.082 0.649L6.082 0.6455000000000001L6.082 0.6455000000000001L6.082 0.5345C6.11 0.53 6.14 0.53 6.16 0.53C6.19 0.53 6.22 0.54 6.24 0.55C6.26 0.57 6.27 0.6 6.28 0.64C6.28 0.64 6.28 0.65 6.28 0.66ZM6.61 0.56C6.6 0.54 6.59 0.53 6.58 0.52C6.56 0.51 6.55 0.51 6.52 0.5C6.52 0.5 6.51 0.5 6.51 0.5C6.49 0.5 6.46 0.51 6.45 0.52C6.43 0.53 6.41 0.54 6.4 0.56L6.399 0.34L6.3740000000000006 0.34L6.3740000000000006 0.8005L6.399 0.8005L6.399 0.642C6.4 0.61 6.41 0.58 6.44 0.56C6.46 0.54 6.48 0.53 6.51 0.53C6.51 0.53 6.52 0.53 6.52 0.53C6.54 0.53 6.55 0.54 6.56 0.54C6.57 0.55 6.58 0.56 6.59 0.57C6.6 0.59 6.6 0.61 6.6 0.64L6.6005 0.644L6.6005 0.8L6.6265 0.8L6.6265 0.644L6.6265 0.644C6.63 0.61 6.62 0.58 6.61 0.56ZM6.71 0.51L6.707 0.8005L6.732 0.8005L6.732 0.5105000000000001L6.707 0.5105000000000001ZM6.73 0.44L6.707 0.43700000000000006L6.707 0.462L6.732 0.462L6.732 0.43700000000000006ZM7.04 0.77C7.02 0.77 7 0.78 7 0.78C6.98 0.78 6.96 0.78 6.94 0.78C6.91 0.78 6.89 0.77 6.87 0.76C6.85 0.74 6.83 0.71 6.83 0.67C6.83 0.67 6.83 0.66 6.83 0.66C6.83 0.65 6.83 0.64 6.83 0.64C6.83 0.6 6.84 0.57 6.86 0.56C6.88 0.54 6.91 0.53 6.94 0.53C6.96 0.53 6.98 0.53 7.02 0.54L7.017 0.5105000000000001C6.99 0.51 6.96 0.51 6.95 0.51C6.9 0.51 6.87 0.52 6.85 0.54C6.82 0.56 6.8 0.59 6.8 0.64C6.8 0.64 6.8 0.64 6.8 0.65L6.8005 0.657C6.8 0.66 6.8 0.66 6.8 0.67C6.81 0.71 6.82 0.75 6.85 0.78C6.88 0.8 6.91 0.81 6.95 0.81C6.95 0.81 6.96 0.81 6.97 0.81C6.99 0.8 7.02 0.8 7.04 0.79C7.04 0.79 7.04 0.79 7.04 0.79L7.0375000000000005 0.7675000000000001ZM7.15 0.64C7.11 0.62 7.1 0.6 7.1 0.58C7.1 0.58 7.1 0.57 7.1 0.57C7.1 0.54 7.12 0.53 7.15 0.53C7.15 0.53 7.16 0.53 7.17 0.53C7.18 0.53 7.19 0.54 7.19 0.54C7.2 0.54 7.21 0.55 7.22 0.56L7.224 0.537C7.2 0.52 7.18 0.51 7.14 0.51C7.1 0.51 7.08 0.53 7.07 0.56C7.07 0.57 7.07 0.57 7.07 0.58C7.07 0.6 7.08 0.62 7.11 0.64C7.13 0.65 7.15 0.67 7.17 0.68C7.19 0.7 7.2 0.71 7.2 0.73C7.2 0.73 7.2 0.74 7.2 0.74C7.19 0.77 7.18 0.79 7.15 0.79C7.12 0.79 7.1 0.78 7.07 0.76L7.073 0.787C7.09 0.8 7.1 0.8 7.12 0.81C7.13 0.81 7.14 0.81 7.15 0.81C7.17 0.81 7.18 0.81 7.2 0.8C7.21 0.78 7.22 0.77 7.23 0.75C7.23 0.74 7.23 0.74 7.23 0.73C7.23 0.71 7.22 0.7 7.21 0.69C7.2 0.67 7.18 0.66 7.15 0.64Z" stroke="none" fill="#FF0000"/>
  <path d="M-0.1 -1.02L7.3285 -1.0190000000000001L7.3285 1.0715000000000001L-0.1 1.0715000000000001Z" stroke="none" fill="none"/>
</svg>
